<?xml version="1.0" encoding="UTF-8" standalone="no"?>
<!DOCTYPE svg PUBLIC "-//W3C//DTD SVG 1.1//EN"
 "http://www.w3.org/Graphics/SVG/1.1/DTD/svg11.dtd">
<!-- Generated by graphviz version 2.36.0 (20140111.2315)
 -->
<!-- Title: view.ImportDesign Pages: 1 -->
<svg width="316pt" height="164pt"
 viewBox="0.00 0.00 316.00 164.00" xmlns="http://www.w3.org/2000/svg" xmlns:xlink="http://www.w3.org/1999/xlink">
<g id="graph0" class="graph" transform="scale(1 1) rotate(0) translate(4 160)">
<title>view.ImportDesign</title>
<polygon fill="white" stroke="none" points="-4,4 -4,-160 312,-160 312,4 -4,4"/>
<!-- Node1 -->
<g id="node1" class="node"><title>Node1</title>
<polygon fill="#bfbfbf" stroke="black" points="0,-136.5 0,-155.5 104,-155.5 104,-136.5 0,-136.5"/>
<text text-anchor="middle" x="52" y="-143.5" font-family="Helvetica,sans-Serif" font-size="10.00">view.ImportDesign</text>
</g>
<!-- Node2 -->
<g id="node2" class="node"><title>Node2</title>
<g id="a_node2"><a xlink:href="../../d3/dfc/classview_1_1_enter_commands.html" target="_top" xlink:title="view.EnterCommands">
<polygon fill="white" stroke="black" points="124,-68.5 124,-87.5 244,-87.5 244,-68.5 124,-68.5"/>
<text text-anchor="middle" x="184" y="-75.5" font-family="Helvetica,sans-Serif" font-size="10.00">view.EnterCommands</text>
</a>
</g>
</g>
<!-- Node1&#45;&gt;Node2 -->
<g id="edge3" class="edge"><title>Node1&#45;&gt;Node2</title>
<path fill="none" stroke="#9a32cd" stroke-dasharray="5,2" d="M35.1605,-128.366C29.7594,-121.045 26.4497,-112.623 32,-106 43.7923,-91.9285 86.4947,-85.1853 123.647,-81.9568"/>
<polygon fill="#9a32cd" stroke="#9a32cd" points="32.8485,-131.04 42.0563,-136.281 38.1264,-126.442 32.8485,-131.04"/>
<text text-anchor="middle" x="50" y="-109.5" font-family="Helvetica,sans-Serif" font-size="10.00"> upload</text>
</g>
<!-- Node2&#45;&gt;Node1 -->
<g id="edge1" class="edge"><title>Node2&#45;&gt;Node1</title>
<path fill="none" stroke="#9a32cd" stroke-dasharray="5,2" d="M121.466,-90.3431C109.147,-94.1692 96.7275,-99.2547 86,-106 73.6811,-113.746 63.3379,-127.306 57.4031,-136.22"/>
<polygon fill="#9a32cd" stroke="#9a32cd" points="122.635,-93.6491 131.289,-87.5369 120.712,-86.9184 122.635,-93.6491"/>
<text text-anchor="middle" x="136" y="-109.5" font-family="Helvetica,sans-Serif" font-size="10.00"> myEnterCommands</text>
</g>
<!-- Node4 -->
<g id="node4" class="node"><title>Node4</title>
<g id="a_node4"><a xlink:href="../../d2/d22/classview_1_1_previous_commands.html" target="_top" xlink:title="view.PreviousCommands">
<polygon fill="white" stroke="black" points="164.5,-0.5 164.5,-19.5 299.5,-19.5 299.5,-0.5 164.5,-0.5"/>
<text text-anchor="middle" x="232" y="-7.5" font-family="Helvetica,sans-Serif" font-size="10.00">view.PreviousCommands</text>
</a>
</g>
</g>
<!-- Node2&#45;&gt;Node4 -->
<g id="edge6" class="edge"><title>Node2&#45;&gt;Node4</title>
<path fill="none" stroke="#9a32cd" stroke-dasharray="5,2" d="M200.803,-60.8661C204.023,-57.4197 207.245,-53.6992 210,-50 217.243,-40.2734 223.828,-27.9189 227.867,-19.7511"/>
<polygon fill="#9a32cd" stroke="#9a32cd" points="198.036,-58.6887 193.516,-68.2713 203.025,-63.5985 198.036,-58.6887"/>
<text text-anchor="middle" x="232.5" y="-41.5" font-family="Helvetica,sans-Serif" font-size="10.00"> enter</text>
</g>
<!-- Node3 -->
<g id="node3" class="node"><title>Node3</title>
<polygon fill="white" stroke="#bfbfbf" points="161.5,-136.5 161.5,-155.5 232.5,-155.5 232.5,-136.5 161.5,-136.5"/>
<text text-anchor="middle" x="197" y="-143.5" font-family="Helvetica,sans-Serif" font-size="10.00">Observable</text>
</g>
<!-- Node3&#45;&gt;Node2 -->
<g id="edge2" class="edge"><title>Node3&#45;&gt;Node2</title>
<path fill="none" stroke="midnightblue" d="M193.341,-126.425C190.854,-113.798 187.676,-97.6623 185.741,-87.8411"/>
<polygon fill="midnightblue" stroke="midnightblue" points="189.934,-127.237 195.3,-136.372 196.802,-125.884 189.934,-127.237"/>
</g>
<!-- Node4&#45;&gt;Node2 -->
<g id="edge4" class="edge"><title>Node4&#45;&gt;Node2</title>
<path fill="none" stroke="#9a32cd" stroke-dasharray="5,2" d="M197.862,-24.8317C192.751,-28.3734 188.148,-32.718 185,-38 179.521,-47.1924 180.424,-59.8939 181.919,-68.2713"/>
<polygon fill="#9a32cd" stroke="#9a32cd" points="199.918,-27.6834 206.773,-19.6056 196.377,-21.6451 199.918,-27.6834"/>
<text text-anchor="middle" x="197.5" y="-41.5" font-family="Helvetica,sans-Serif" font-size="10.00"> prev</text>
</g>
<!-- Node5 -->
<g id="node5" class="node"><title>Node5</title>
<polygon fill="white" stroke="#bfbfbf" points="251,-136.5 251,-155.5 309,-155.5 309,-136.5 251,-136.5"/>
<text text-anchor="middle" x="280" y="-143.5" font-family="Helvetica,sans-Serif" font-size="10.00">TextArea</text>
</g>
<!-- Node5&#45;&gt;Node2 -->
<g id="edge7" class="edge"><title>Node5&#45;&gt;Node2</title>
<path fill="none" stroke="#9a32cd" stroke-dasharray="5,2" d="M259.103,-130.634C240.021,-117.515 212.438,-98.551 196.553,-87.6305"/>
<polygon fill="#9a32cd" stroke="#9a32cd" points="257.226,-133.59 267.45,-136.372 261.192,-127.822 257.226,-133.59"/>
<text text-anchor="middle" x="252" y="-109.5" font-family="Helvetica,sans-Serif" font-size="10.00"> text</text>
</g>
<!-- Node5&#45;&gt;Node4 -->
<g id="edge5" class="edge"><title>Node5&#45;&gt;Node4</title>
<path fill="none" stroke="#9a32cd" stroke-dasharray="5,2" d="M276.99,-126.376C272.996,-104.472 264.791,-67.3752 251,-38 247.882,-31.3588 243.132,-24.6088 239.162,-19.5191"/>
<polygon fill="#9a32cd" stroke="#9a32cd" points="273.557,-127.062 278.703,-136.324 280.456,-125.875 273.557,-127.062"/>
<text text-anchor="middle" x="280" y="-75.5" font-family="Helvetica,sans-Serif" font-size="10.00"> text</text>
</g>
</g>
</svg>
