<?xml version="1.0" encoding="UTF-8" standalone="no"?>
<!DOCTYPE svg PUBLIC "-//W3C//DTD SVG 1.1//EN"
 "http://www.w3.org/Graphics/SVG/1.1/DTD/svg11.dtd">
<!-- Generated by graphviz version 2.36.0 (20140111.2315)
 -->
<!-- Title: view.View Pages: 1 -->
<svg width="1566pt" height="1025pt"
 viewBox="0.00 0.00 1566.00 1025.00" xmlns="http://www.w3.org/2000/svg" xmlns:xlink="http://www.w3.org/1999/xlink">
<g id="graph0" class="graph" transform="scale(1 1) rotate(0) translate(4 1021)">
<title>view.View</title>
<polygon fill="white" stroke="none" points="-4,4 -4,-1021 1562,-1021 1562,4 -4,4"/>
<!-- Node1 -->
<g id="node1" class="node"><title>Node1</title>
<polygon fill="#bfbfbf" stroke="black" points="1057.5,-674.5 1057.5,-693.5 1118.5,-693.5 1118.5,-674.5 1057.5,-674.5"/>
<text text-anchor="middle" x="1088" y="-681.5" font-family="Helvetica,sans-Serif" font-size="10.00">view.View</text>
</g>
<!-- Node8 -->
<g id="node8" class="node"><title>Node8</title>
<g id="a_node8"><a xlink:href="../../df/d10/classview_1_1_language_chooser.html" target="_top" xlink:title="view.LanguageChooser">
<polygon fill="white" stroke="black" points="1284,-583.5 1284,-602.5 1410,-602.5 1410,-583.5 1284,-583.5"/>
<text text-anchor="middle" x="1347" y="-590.5" font-family="Helvetica,sans-Serif" font-size="10.00">view.LanguageChooser</text>
</a>
</g>
</g>
<!-- Node1&#45;&gt;Node8 -->
<g id="edge13" class="edge"><title>Node1&#45;&gt;Node8</title>
<path fill="none" stroke="#9a32cd" stroke-dasharray="5,2" d="M1106.2,-667.269C1120.89,-653.974 1143.2,-636.005 1166,-626 1177.06,-621.149 1238.44,-610.425 1286.49,-602.512"/>
<polygon fill="#9a32cd" stroke="#9a32cd" points="1103.42,-665.081 1098.49,-674.461 1108.19,-670.2 1103.42,-665.081"/>
<text text-anchor="middle" x="1216" y="-629" font-family="Helvetica,sans-Serif" font-size="10.00"> view</text>
</g>
<!-- Node2 -->
<g id="node2" class="node"><title>Node2</title>
<g id="a_node2"><a xlink:href="../../de/d83/classview_1_1_import_design.html" target="_top" xlink:title="view.ImportDesign">
<polygon fill="white" stroke="black" points="274,-782.5 274,-801.5 378,-801.5 378,-782.5 274,-782.5"/>
<text text-anchor="middle" x="326" y="-789.5" font-family="Helvetica,sans-Serif" font-size="10.00">view.ImportDesign</text>
</a>
</g>
</g>
<!-- Node2&#45;&gt;Node1 -->
<g id="edge1" class="edge"><title>Node2&#45;&gt;Node1</title>
<path fill="none" stroke="#9a32cd" stroke-dasharray="5,2" d="M384.397,-780.663C396.761,-778.52 409.786,-776.487 422,-775 658.98,-746.151 724.828,-791.21 958,-740 1000.69,-730.625 1046.75,-706.982 1070.59,-693.607"/>
<polygon fill="#9a32cd" stroke="#9a32cd" points="383.43,-777.28 374.198,-782.479 384.657,-784.171 383.43,-777.28"/>
<text text-anchor="middle" x="751" y="-770" font-family="Helvetica,sans-Serif" font-size="10.00"> des</text>
</g>
<!-- Node3 -->
<g id="node3" class="node"><title>Node3</title>
<g id="a_node3"><a xlink:href="../../d3/dfc/classview_1_1_enter_commands.html" target="_top" xlink:title="view.EnterCommands">
<polygon fill="white" stroke="black" points="552,-856.5 552,-875.5 672,-875.5 672,-856.5 552,-856.5"/>
<text text-anchor="middle" x="612" y="-863.5" font-family="Helvetica,sans-Serif" font-size="10.00">view.EnterCommands</text>
</a>
</g>
</g>
<!-- Node2&#45;&gt;Node3 -->
<g id="edge4" class="edge"><title>Node2&#45;&gt;Node3</title>
<path fill="none" stroke="#9a32cd" stroke-dasharray="5,2" d="M372.991,-805.011C383.6,-809.004 394.539,-813.974 404,-820 413.543,-826.077 411.894,-832.914 422,-838 444.149,-849.146 504.884,-856.823 551.585,-861.281"/>
<polygon fill="#9a32cd" stroke="#9a32cd" points="373.988,-801.651 363.393,-801.616 371.654,-808.25 373.988,-801.651"/>
<text text-anchor="middle" x="474" y="-862" font-family="Helvetica,sans-Serif" font-size="10.00"> upload</text>
</g>
<!-- Node3&#45;&gt;Node1 -->
<g id="edge61" class="edge"><title>Node3&#45;&gt;Node1</title>
<path fill="none" stroke="#9a32cd" stroke-dasharray="5,2" d="M642.269,-852.189C658.413,-845.022 678.988,-836.616 698,-831 833.265,-791.047 887.648,-843.164 1010,-773 1044.38,-753.282 1070.87,-712.338 1081.69,-693.663"/>
<polygon fill="#9a32cd" stroke="#9a32cd" points="640.51,-849.143 632.843,-856.455 643.396,-855.52 640.51,-849.143"/>
<text text-anchor="middle" x="890" y="-817" font-family="Helvetica,sans-Serif" font-size="10.00"> enter</text>
</g>
<!-- Node3&#45;&gt;Node2 -->
<g id="edge2" class="edge"><title>Node3&#45;&gt;Node2</title>
<path fill="none" stroke="#9a32cd" stroke-dasharray="5,2" d="M597.095,-848.298C581.855,-830.464 555.599,-804.05 526,-793 478.259,-775.177 419.469,-777.56 378.211,-782.782"/>
<polygon fill="#9a32cd" stroke="#9a32cd" points="594.597,-850.769 603.659,-856.259 599.998,-846.317 594.597,-850.769"/>
<text text-anchor="middle" x="474" y="-796" font-family="Helvetica,sans-Serif" font-size="10.00"> myEnterCommands</text>
</g>
<!-- Node5 -->
<g id="node5" class="node"><title>Node5</title>
<g id="a_node5"><a xlink:href="../../d2/d22/classview_1_1_previous_commands.html" target="_top" xlink:title="view.PreviousCommands">
<polygon fill="white" stroke="black" points="822.5,-888.5 822.5,-907.5 957.5,-907.5 957.5,-888.5 822.5,-888.5"/>
<text text-anchor="middle" x="890" y="-895.5" font-family="Helvetica,sans-Serif" font-size="10.00">view.PreviousCommands</text>
</a>
</g>
</g>
<!-- Node3&#45;&gt;Node5 -->
<g id="edge7" class="edge"><title>Node3&#45;&gt;Node5</title>
<path fill="none" stroke="#9a32cd" stroke-dasharray="5,2" d="M662.535,-877.669C674.119,-880.07 686.449,-882.361 698,-884 739.149,-889.838 785.651,-893.312 822.468,-895.34"/>
<polygon fill="#9a32cd" stroke="#9a32cd" points="663.096,-874.21 652.585,-875.546 661.635,-881.056 663.096,-874.21"/>
<text text-anchor="middle" x="751" y="-898" font-family="Helvetica,sans-Serif" font-size="10.00"> enter</text>
</g>
<!-- Node11 -->
<g id="node11" class="node"><title>Node11</title>
<g id="a_node11"><a xlink:href="../../d8/da5/classview_1_1_create_design.html" target="_top" xlink:title="view.CreateDesign">
<polygon fill="white" stroke="black" points="838,-834.5 838,-853.5 942,-853.5 942,-834.5 838,-834.5"/>
<text text-anchor="middle" x="890" y="-841.5" font-family="Helvetica,sans-Serif" font-size="10.00">view.CreateDesign</text>
</a>
</g>
</g>
<!-- Node3&#45;&gt;Node11 -->
<g id="edge15" class="edge"><title>Node3&#45;&gt;Node11</title>
<path fill="none" stroke="#9a32cd" stroke-dasharray="5,2" d="M646.002,-852.91C661.516,-847.437 680.428,-841.724 698,-839 744.875,-831.734 798.979,-834.146 837.609,-837.69"/>
<polygon fill="#9a32cd" stroke="#9a32cd" points="644.538,-849.719 636.346,-856.438 646.94,-856.294 644.538,-849.719"/>
<text text-anchor="middle" x="751" y="-842" font-family="Helvetica,sans-Serif" font-size="10.00"> myEnter</text>
</g>
<!-- Node4 -->
<g id="node4" class="node"><title>Node4</title>
<polygon fill="white" stroke="#bfbfbf" points="290.5,-876.5 290.5,-895.5 361.5,-895.5 361.5,-876.5 290.5,-876.5"/>
<text text-anchor="middle" x="326" y="-883.5" font-family="Helvetica,sans-Serif" font-size="10.00">Observable</text>
</g>
<!-- Node4&#45;&gt;Node3 -->
<g id="edge3" class="edge"><title>Node4&#45;&gt;Node3</title>
<path fill="none" stroke="midnightblue" d="M371.555,-882.868C411.886,-880.033 472.924,-875.74 526,-872 534.264,-871.418 542.98,-870.803 551.554,-870.198"/>
<polygon fill="midnightblue" stroke="midnightblue" points="371.242,-879.382 361.512,-883.574 371.733,-886.365 371.242,-879.382"/>
</g>
<!-- Node5&#45;&gt;Node1 -->
<g id="edge16" class="edge"><title>Node5&#45;&gt;Node1</title>
<path fill="none" stroke="#9a32cd" stroke-dasharray="5,2" d="M945.519,-885.481C967.682,-878.156 992.206,-866.91 1010,-850 1058.36,-804.042 1079.19,-721.78 1085.12,-693.701"/>
<polygon fill="#9a32cd" stroke="#9a32cd" points="944.375,-882.171 935.864,-888.481 946.452,-888.856 944.375,-882.171"/>
<text text-anchor="middle" x="993" y="-875" font-family="Helvetica,sans-Serif" font-size="10.00"> prev</text>
</g>
<!-- Node5&#45;&gt;Node3 -->
<g id="edge5" class="edge"><title>Node5&#45;&gt;Node3</title>
<path fill="none" stroke="#9a32cd" stroke-dasharray="5,2" d="M852.749,-885.171C837.841,-880.468 820.283,-875.65 804,-873 760.277,-865.884 710.214,-864.286 672.314,-864.386"/>
<polygon fill="#9a32cd" stroke="#9a32cd" points="852.005,-888.61 862.597,-888.382 854.174,-881.955 852.005,-888.61"/>
<text text-anchor="middle" x="751" y="-876" font-family="Helvetica,sans-Serif" font-size="10.00"> prev</text>
</g>
<!-- Node6 -->
<g id="node6" class="node"><title>Node6</title>
<polygon fill="white" stroke="#bfbfbf" points="297,-937.5 297,-956.5 355,-956.5 355,-937.5 297,-937.5"/>
<text text-anchor="middle" x="326" y="-944.5" font-family="Helvetica,sans-Serif" font-size="10.00">TextArea</text>
</g>
<!-- Node6&#45;&gt;Node3 -->
<g id="edge8" class="edge"><title>Node6&#45;&gt;Node3</title>
<path fill="none" stroke="#9a32cd" stroke-dasharray="5,2" d="M364.86,-936.202C420.719,-920.27 524.331,-890.719 577.547,-875.541"/>
<polygon fill="#9a32cd" stroke="#9a32cd" points="363.665,-932.903 355.008,-939.012 365.585,-939.635 363.665,-932.903"/>
<text text-anchor="middle" x="474" y="-922" font-family="Helvetica,sans-Serif" font-size="10.00"> text</text>
</g>
<!-- Node6&#45;&gt;Node5 -->
<g id="edge6" class="edge"><title>Node6&#45;&gt;Node5</title>
<path fill="none" stroke="#9a32cd" stroke-dasharray="5,2" d="M365.24,-944.965C446.296,-940.447 641.294,-928.495 804,-910 810.515,-909.259 817.302,-908.419 824.075,-907.535"/>
<polygon fill="#9a32cd" stroke="#9a32cd" points="364.816,-941.483 355.024,-945.529 365.202,-948.472 364.816,-941.483"/>
<text text-anchor="middle" x="612" y="-937" font-family="Helvetica,sans-Serif" font-size="10.00"> text</text>
</g>
<!-- Node7 -->
<g id="node7" class="node"><title>Node7</title>
<g id="a_node7"><a xlink:href="../../da/d44/classview_1_1_command_guide.html" target="_top" xlink:title="view.CommandGuide">
<polygon fill="white" stroke="black" points="831.5,-711.5 831.5,-730.5 948.5,-730.5 948.5,-711.5 831.5,-711.5"/>
<text text-anchor="middle" x="890" y="-718.5" font-family="Helvetica,sans-Serif" font-size="10.00">view.CommandGuide</text>
</a>
</g>
</g>
<!-- Node7&#45;&gt;Node1 -->
<g id="edge9" class="edge"><title>Node7&#45;&gt;Node1</title>
<path fill="none" stroke="#9a32cd" stroke-dasharray="5,2" d="M951.643,-709.552C986.798,-702.916 1029.49,-694.856 1057.41,-689.586"/>
<polygon fill="#9a32cd" stroke="#9a32cd" points="950.652,-706.177 941.475,-711.472 951.951,-713.056 950.652,-706.177"/>
<text text-anchor="middle" x="993" y="-708" font-family="Helvetica,sans-Serif" font-size="10.00"> comm</text>
</g>
<!-- Node8&#45;&gt;Node1 -->
<g id="edge10" class="edge"><title>Node8&#45;&gt;Node1</title>
<path fill="none" stroke="#9a32cd" stroke-dasharray="5,2" d="M1323.77,-608.178C1308.2,-618.2 1286.57,-630.928 1266,-639 1223.55,-655.659 1210.16,-650.621 1166,-662 1150.25,-666.059 1132.81,-671.003 1118.52,-675.175"/>
<polygon fill="#9a32cd" stroke="#9a32cd" points="1325.76,-611.063 1332.19,-602.645 1321.91,-605.213 1325.76,-611.063"/>
<text text-anchor="middle" x="1216" y="-665" font-family="Helvetica,sans-Serif" font-size="10.00"> lang</text>
</g>
<!-- Node31 -->
<g id="node31" class="node"><title>Node31</title>
<g id="a_node31"><a xlink:href="../../d3/d1e/classview_1_1_button_bar.html" target="_top" xlink:title="view.ButtonBar">
<polygon fill="white" stroke="black" points="1470,-563.5 1470,-582.5 1558,-582.5 1558,-563.5 1470,-563.5"/>
<text text-anchor="middle" x="1514" y="-570.5" font-family="Helvetica,sans-Serif" font-size="10.00">view.ButtonBar</text>
</a>
</g>
</g>
<!-- Node8&#45;&gt;Node31 -->
<g id="edge40" class="edge"><title>Node8&#45;&gt;Node31</title>
<path fill="none" stroke="#9a32cd" stroke-dasharray="5,2" d="M1420.66,-584.192C1437.33,-582.172 1454.55,-580.085 1469.53,-578.269"/>
<polygon fill="#9a32cd" stroke="#9a32cd" points="1419.89,-580.761 1410.38,-585.439 1420.73,-587.71 1419.89,-580.761"/>
<text text-anchor="middle" x="1440" y="-586" font-family="Helvetica,sans-Serif" font-size="10.00"> lang</text>
</g>
<!-- Node9 -->
<g id="node9" class="node"><title>Node9</title>
<polygon fill="white" stroke="#bfbfbf" points="283,-373.5 283,-392.5 369,-392.5 369,-373.5 283,-373.5"/>
<text text-anchor="middle" x="326" y="-380.5" font-family="Helvetica,sans-Serif" font-size="10.00">StringProperty</text>
</g>
<!-- Node9&#45;&gt;Node8 -->
<g id="edge11" class="edge"><title>Node9&#45;&gt;Node8</title>
<path fill="none" stroke="#9a32cd" stroke-dasharray="5,2" d="M379.334,-377.205C419.653,-372.299 476.66,-364.404 526,-354 534.124,-352.287 535.919,-350.906 544,-349 611.868,-332.989 628.591,-325.698 698,-319 744.893,-314.475 757.667,-310.474 804,-319 1020.1,-358.768 1087.82,-366.424 1266,-495 1300.73,-520.061 1328.97,-563.804 1340.45,-583.228"/>
<polygon fill="#9a32cd" stroke="#9a32cd" points="378.714,-373.754 369.201,-378.418 379.546,-380.705 378.714,-373.754"/>
<text text-anchor="middle" x="890" y="-352" font-family="Helvetica,sans-Serif" font-size="10.00"> languageProp</text>
</g>
<!-- Node17 -->
<g id="node17" class="node"><title>Node17</title>
<g id="a_node17"><a xlink:href="../../dd/d17/classapplication_1_1_model.html" target="_top" xlink:title="application.Model">
<polygon fill="white" stroke="black" points="562,-222.5 562,-241.5 662,-241.5 662,-222.5 562,-222.5"/>
<text text-anchor="middle" x="612" y="-229.5" font-family="Helvetica,sans-Serif" font-size="10.00">application.Model</text>
</a>
</g>
</g>
<!-- Node9&#45;&gt;Node17 -->
<g id="edge24" class="edge"><title>Node9&#45;&gt;Node17</title>
<path fill="none" stroke="#9a32cd" stroke-dasharray="5,2" d="M379.039,-374.849C387.755,-372.192 396.419,-368.669 404,-364 414.467,-357.553 411.456,-349.319 422,-343 462.605,-318.665 484.69,-343.118 526,-320 530.68,-317.381 580.897,-264.105 601.874,-241.745"/>
<polygon fill="#9a32cd" stroke="#9a32cd" points="377.973,-371.512 369.23,-377.497 379.797,-378.27 377.973,-371.512"/>
<text text-anchor="middle" x="474" y="-346" font-family="Helvetica,sans-Serif" font-size="10.00"> errorMsg</text>
</g>
<!-- Node10 -->
<g id="node10" class="node"><title>Node10</title>
<polygon fill="white" stroke="#bfbfbf" points="1028,-583.5 1028,-602.5 1148,-602.5 1148,-583.5 1028,-583.5"/>
<text text-anchor="middle" x="1088" y="-590.5" font-family="Helvetica,sans-Serif" font-size="10.00">ComboBox&lt; String &gt;</text>
</g>
<!-- Node10&#45;&gt;Node8 -->
<g id="edge12" class="edge"><title>Node10&#45;&gt;Node8</title>
<path fill="none" stroke="#9a32cd" stroke-dasharray="5,2" d="M1158.53,-593C1197.64,-593 1246.05,-593 1283.88,-593"/>
<polygon fill="#9a32cd" stroke="#9a32cd" points="1158.28,-589.5 1148.28,-593 1158.28,-596.5 1158.28,-589.5"/>
<text text-anchor="middle" x="1216" y="-596" font-family="Helvetica,sans-Serif" font-size="10.00"> languageComboBox</text>
</g>
<!-- Node11&#45;&gt;Node1 -->
<g id="edge14" class="edge"><title>Node11&#45;&gt;Node1</title>
<path fill="none" stroke="#9a32cd" stroke-dasharray="5,2" d="M952.22,-841.06C972.13,-837.64 993.362,-831.125 1010,-819 1054.92,-786.265 1077.41,-718.797 1084.48,-693.692"/>
<polygon fill="#9a32cd" stroke="#9a32cd" points="951.646,-837.607 942.27,-842.54 952.676,-844.531 951.646,-837.607"/>
<text text-anchor="middle" x="993" y="-838" font-family="Helvetica,sans-Serif" font-size="10.00"> cre</text>
</g>
<!-- Node12 -->
<g id="node12" class="node"><title>Node12</title>
<g id="a_node12"><a xlink:href="../../d4/d54/classview_1_1_turtle_state.html" target="_top" xlink:title="view.TurtleState">
<polygon fill="white" stroke="black" points="844.5,-413.5 844.5,-432.5 935.5,-432.5 935.5,-413.5 844.5,-413.5"/>
<text text-anchor="middle" x="890" y="-420.5" font-family="Helvetica,sans-Serif" font-size="10.00">view.TurtleState</text>
</a>
</g>
</g>
<!-- Node12&#45;&gt;Node1 -->
<g id="edge17" class="edge"><title>Node12&#45;&gt;Node1</title>
<path fill="none" stroke="#9a32cd" stroke-dasharray="5,2" d="M903.515,-441.002C927.207,-474.915 980.498,-550.396 1028,-612 1045.57,-634.78 1067.23,-660.691 1078.8,-674.365"/>
<polygon fill="#9a32cd" stroke="#9a32cd" points="906.237,-438.787 897.647,-432.586 900.495,-442.791 906.237,-438.787"/>
<text text-anchor="middle" x="993" y="-590" font-family="Helvetica,sans-Serif" font-size="10.00"> tState</text>
</g>
<!-- Node13 -->
<g id="node13" class="node"><title>Node13</title>
<polygon fill="white" stroke="#bfbfbf" points="589.5,-358.5 589.5,-377.5 634.5,-377.5 634.5,-358.5 589.5,-358.5"/>
<text text-anchor="middle" x="612" y="-365.5" font-family="Helvetica,sans-Serif" font-size="10.00">Stage</text>
</g>
<!-- Node13&#45;&gt;Node12 -->
<g id="edge18" class="edge"><title>Node13&#45;&gt;Node12</title>
<path fill="none" stroke="#9a32cd" stroke-dasharray="5,2" d="M644.546,-368.86C682.796,-370.496 748.977,-375.243 804,-389 827.283,-394.821 852.672,-405.604 869.582,-413.471"/>
<polygon fill="#9a32cd" stroke="#9a32cd" points="644.657,-365.362 634.53,-368.476 644.389,-372.356 644.657,-365.362"/>
<text text-anchor="middle" x="751" y="-392" font-family="Helvetica,sans-Serif" font-size="10.00"> t</text>
</g>
<!-- Node14 -->
<g id="node14" class="node"><title>Node14</title>
<polygon fill="white" stroke="#bfbfbf" points="554.5,-497.5 554.5,-516.5 669.5,-516.5 669.5,-497.5 554.5,-497.5"/>
<text text-anchor="middle" x="612" y="-504.5" font-family="Helvetica,sans-Serif" font-size="10.00">ArrayList&lt; Double &gt;</text>
</g>
<!-- Node14&#45;&gt;Node12 -->
<g id="edge19" class="edge"><title>Node14&#45;&gt;Node12</title>
<path fill="none" stroke="#9a32cd" stroke-dasharray="5,2" d="M679.899,-507.606C717.499,-505.925 764.64,-500.377 804,-485 834.964,-472.903 864.863,-446.67 879.561,-432.514"/>
<polygon fill="#9a32cd" stroke="#9a32cd" points="679.427,-504.121 669.561,-507.982 679.682,-511.116 679.427,-504.121"/>
<text text-anchor="middle" x="751" y="-532" font-family="Helvetica,sans-Serif" font-size="10.00"> x</text>
<text text-anchor="middle" x="751" y="-521" font-family="Helvetica,sans-Serif" font-size="10.00">y</text>
<text text-anchor="middle" x="751" y="-510" font-family="Helvetica,sans-Serif" font-size="10.00">r</text>
</g>
<!-- Node15 -->
<g id="node15" class="node"><title>Node15</title>
<polygon fill="white" stroke="#bfbfbf" points="591,-434.5 591,-453.5 633,-453.5 633,-434.5 591,-434.5"/>
<text text-anchor="middle" x="612" y="-441.5" font-family="Helvetica,sans-Serif" font-size="10.00">Label</text>
</g>
<!-- Node15&#45;&gt;Node12 -->
<g id="edge20" class="edge"><title>Node15&#45;&gt;Node12</title>
<path fill="none" stroke="#9a32cd" stroke-dasharray="5,2" d="M643.51,-441.679C692.244,-437.971 787.895,-430.693 844.338,-426.398"/>
<polygon fill="#9a32cd" stroke="#9a32cd" points="643.001,-438.207 633.295,-442.456 643.532,-445.187 643.001,-438.207"/>
<text text-anchor="middle" x="751" y="-474" font-family="Helvetica,sans-Serif" font-size="10.00"> pen</text>
<text text-anchor="middle" x="751" y="-463" font-family="Helvetica,sans-Serif" font-size="10.00">rotation</text>
<text text-anchor="middle" x="751" y="-452" font-family="Helvetica,sans-Serif" font-size="10.00">turtleX</text>
<text text-anchor="middle" x="751" y="-441" font-family="Helvetica,sans-Serif" font-size="10.00">turtleY</text>
</g>
<!-- Node16 -->
<g id="node16" class="node"><title>Node16</title>
<polygon fill="white" stroke="#bfbfbf" points="552,-396.5 552,-415.5 672,-415.5 672,-396.5 552,-396.5"/>
<text text-anchor="middle" x="612" y="-403.5" font-family="Helvetica,sans-Serif" font-size="10.00">ArrayList&lt; Boolean &gt;</text>
</g>
<!-- Node16&#45;&gt;Node12 -->
<g id="edge21" class="edge"><title>Node16&#45;&gt;Node12</title>
<path fill="none" stroke="#9a32cd" stroke-dasharray="5,2" d="M682.085,-403.36C718.443,-402.728 763.72,-403.136 804,-407 817.901,-408.334 832.92,-410.81 846.41,-413.423"/>
<polygon fill="#9a32cd" stroke="#9a32cd" points="682.004,-399.861 672.078,-403.564 682.147,-406.859 682.004,-399.861"/>
<text text-anchor="middle" x="751" y="-410" font-family="Helvetica,sans-Serif" font-size="10.00"> isPen</text>
</g>
<!-- Node17&#45;&gt;Node1 -->
<g id="edge62" class="edge"><title>Node17&#45;&gt;Node1</title>
<path fill="none" stroke="#9a32cd" stroke-dasharray="5,2" d="M672.395,-238.445C770.368,-249.136 955.387,-269.606 958,-272 1014.88,-324.105 994.811,-542.365 1028,-612 1040.1,-637.384 1063.01,-661.524 1076.44,-674.384"/>
<polygon fill="#9a32cd" stroke="#9a32cd" points="672.653,-234.953 662.333,-237.348 671.895,-241.911 672.653,-234.953"/>
<text text-anchor="middle" x="890" y="-275" font-family="Helvetica,sans-Serif" font-size="10.00"> m</text>
</g>
<!-- Node17&#45;&gt;Node12 -->
<g id="edge22" class="edge"><title>Node17&#45;&gt;Node12</title>
<path fill="none" stroke="#9a32cd" stroke-dasharray="5,2" d="M637.116,-247.146C673.703,-270.295 745.199,-316.199 804,-358 830.648,-376.944 860.831,-400.563 877.093,-413.474"/>
<polygon fill="#9a32cd" stroke="#9a32cd" points="638.92,-244.146 628.595,-241.768 635.183,-250.065 638.92,-244.146"/>
<text text-anchor="middle" x="751" y="-361" font-family="Helvetica,sans-Serif" font-size="10.00"> myModel</text>
</g>
<!-- Node28 -->
<g id="node28" class="node"><title>Node28</title>
<g id="a_node28"><a xlink:href="../../dc/d9e/classapplication_1_1_parser.html" target="_top" xlink:title="application.Parser">
<polygon fill="white" stroke="black" points="839.5,-171.5 839.5,-190.5 940.5,-190.5 940.5,-171.5 839.5,-171.5"/>
<text text-anchor="middle" x="890" y="-178.5" font-family="Helvetica,sans-Serif" font-size="10.00">application.Parser</text>
</a>
</g>
</g>
<!-- Node17&#45;&gt;Node28 -->
<g id="edge38" class="edge"><title>Node17&#45;&gt;Node28</title>
<path fill="none" stroke="#9a32cd" stroke-dasharray="5,2" d="M641.104,-217.869C657.324,-210.371 678.345,-201.749 698,-197 745.062,-185.628 800.327,-182.014 839.268,-181.013"/>
<polygon fill="#9a32cd" stroke="#9a32cd" points="639.211,-214.893 631.681,-222.347 642.215,-221.216 639.211,-214.893"/>
<text text-anchor="middle" x="751" y="-200" font-family="Helvetica,sans-Serif" font-size="10.00"> myModel</text>
</g>
<!-- Node18 -->
<g id="node18" class="node"><title>Node18</title>
<polygon fill="white" stroke="#bfbfbf" points="296,-335.5 296,-354.5 356,-354.5 356,-335.5 296,-335.5"/>
<text text-anchor="middle" x="326" y="-342.5" font-family="Helvetica,sans-Serif" font-size="10.00">Observer</text>
</g>
<!-- Node18&#45;&gt;Node17 -->
<g id="edge23" class="edge"><title>Node18&#45;&gt;Node17</title>
<path fill="none" stroke="midnightblue" d="M366.3,-335.994C420.075,-323.539 511.594,-301.817 526,-295 555.886,-280.857 585.767,-255.457 600.876,-241.621"/>
<polygon fill="midnightblue" stroke="midnightblue" points="365.36,-332.619 356.404,-338.281 366.935,-339.44 365.36,-332.619"/>
</g>
<!-- Node19 -->
<g id="node19" class="node"><title>Node19</title>
<polygon fill="white" stroke="#bfbfbf" points="28.5,-274.5 28.5,-293.5 119.5,-293.5 119.5,-274.5 28.5,-274.5"/>
<text text-anchor="middle" x="74" y="-281.5" font-family="Helvetica,sans-Serif" font-size="10.00">DoubleProperty</text>
</g>
<!-- Node19&#45;&gt;Node17 -->
<g id="edge25" class="edge"><title>Node19&#45;&gt;Node17</title>
<path fill="none" stroke="#9a32cd" stroke-dasharray="5,2" d="M129.818,-285.037C215.203,-285.713 384.822,-283.284 526,-258 546.355,-254.355 568.69,-247.402 585.355,-241.603"/>
<polygon fill="#9a32cd" stroke="#9a32cd" points="129.616,-281.535 119.582,-284.938 129.548,-288.534 129.616,-281.535"/>
<text text-anchor="middle" x="326" y="-309" font-family="Helvetica,sans-Serif" font-size="10.00"> penSize</text>
<text text-anchor="middle" x="326" y="-298" font-family="Helvetica,sans-Serif" font-size="10.00">penColor</text>
<text text-anchor="middle" x="326" y="-287" font-family="Helvetica,sans-Serif" font-size="10.00">background</text>
</g>
<!-- Node21 -->
<g id="node21" class="node"><title>Node21</title>
<g id="a_node21"><a xlink:href="../../d1/deb/classapplication_1_1_turtle_list.html" target="_top" xlink:title="application.TurtleList">
<polygon fill="white" stroke="black" points="269.5,-73.5 269.5,-92.5 382.5,-92.5 382.5,-73.5 269.5,-73.5"/>
<text text-anchor="middle" x="326" y="-80.5" font-family="Helvetica,sans-Serif" font-size="10.00">application.TurtleList</text>
</a>
</g>
</g>
<!-- Node19&#45;&gt;Node21 -->
<g id="edge28" class="edge"><title>Node19&#45;&gt;Node21</title>
<path fill="none" stroke="#9a32cd" stroke-dasharray="5,2" d="M89.2785,-266.512C105.908,-247.143 135.073,-216.131 166,-197 191.705,-181.099 209.527,-196.236 230,-174 250.885,-151.316 226.634,-129.231 248,-107 254.113,-100.64 261.88,-95.9564 270.118,-92.5099"/>
<polygon fill="#9a32cd" stroke="#9a32cd" points="86.5121,-264.363 82.7542,-274.269 91.8693,-268.869 86.5121,-264.363"/>
<text text-anchor="middle" x="198" y="-200" font-family="Helvetica,sans-Serif" font-size="10.00"> newID</text>
</g>
<!-- Node34 -->
<g id="node34" class="node"><title>Node34</title>
<g id="a_node34"><a xlink:href="../../d1/d31/classapplication_1_1_turtle.html" target="_top" xlink:title="application.Turtle">
<polygon fill="white" stroke="black" points="277.5,-639.5 277.5,-658.5 374.5,-658.5 374.5,-639.5 277.5,-639.5"/>
<text text-anchor="middle" x="326" y="-646.5" font-family="Helvetica,sans-Serif" font-size="10.00">application.Turtle</text>
</a>
</g>
</g>
<!-- Node19&#45;&gt;Node34 -->
<g id="edge44" class="edge"><title>Node19&#45;&gt;Node34</title>
<path fill="none" stroke="#9a32cd" stroke-dasharray="5,2" d="M90.7588,-301.259C122.838,-337.466 195.591,-425.285 230,-513 249.213,-561.978 212.495,-591.175 248,-630 255.619,-638.332 266.258,-643.276 277.2,-646.147"/>
<polygon fill="#9a32cd" stroke="#9a32cd" points="93.1498,-298.682 83.8687,-293.572 87.9375,-303.355 93.1498,-298.682"/>
<text text-anchor="middle" x="198" y="-527" font-family="Helvetica,sans-Serif" font-size="10.00"> heading</text>
<text text-anchor="middle" x="198" y="-516" font-family="Helvetica,sans-Serif" font-size="10.00">shape</text>
</g>
<!-- Node20 -->
<g id="node20" class="node"><title>Node20</title>
<polygon fill="white" stroke="#bfbfbf" points="248.5,-217 248.5,-247 403.5,-247 403.5,-217 248.5,-217"/>
<text text-anchor="start" x="256.5" y="-235" font-family="Helvetica,sans-Serif" font-size="10.00">Map&lt; String, tree.Command</text>
<text text-anchor="middle" x="326" y="-224" font-family="Helvetica,sans-Serif" font-size="10.00">Node &gt;</text>
</g>
<!-- Node20&#45;&gt;Node17 -->
<g id="edge26" class="edge"><title>Node20&#45;&gt;Node17</title>
<path fill="none" stroke="#9a32cd" stroke-dasharray="5,2" d="M414.043,-232C462.554,-232 521.184,-232 561.797,-232"/>
<polygon fill="#9a32cd" stroke="#9a32cd" points="413.855,-228.5 403.854,-232 413.854,-235.5 413.855,-228.5"/>
<text text-anchor="middle" x="474" y="-246" font-family="Helvetica,sans-Serif" font-size="10.00"> myCommandHistory</text>
<text text-anchor="middle" x="474" y="-235" font-family="Helvetica,sans-Serif" font-size="10.00">myUserCommands</text>
</g>
<!-- Node21&#45;&gt;Node17 -->
<g id="edge27" class="edge"><title>Node21&#45;&gt;Node17</title>
<path fill="none" stroke="#9a32cd" stroke-dasharray="5,2" d="M387.066,-72.4143C430.837,-68.3205 488.76,-70.9434 526,-104 552.931,-127.906 524.214,-152.911 544,-183 555.56,-200.58 575.726,-214.045 590.923,-222.371"/>
<polygon fill="#9a32cd" stroke="#9a32cd" points="386.681,-68.9354 377.112,-73.482 387.428,-75.8955 386.681,-68.9354"/>
<text text-anchor="middle" x="474" y="-107" font-family="Helvetica,sans-Serif" font-size="10.00"> myTurtleList</text>
</g>
<!-- Node22 -->
<g id="node22" class="node"><title>Node22</title>
<polygon fill="white" stroke="#bfbfbf" points="8.5,-49 8.5,-79 139.5,-79 139.5,-49 8.5,-49"/>
<text text-anchor="start" x="16.5" y="-67" font-family="Helvetica,sans-Serif" font-size="10.00">Map&lt; application.Turtle,</text>
<text text-anchor="middle" x="74" y="-56" font-family="Helvetica,sans-Serif" font-size="10.00"> Double &gt;</text>
</g>
<!-- Node22&#45;&gt;Node21 -->
<g id="edge29" class="edge"><title>Node22&#45;&gt;Node21</title>
<path fill="none" stroke="#9a32cd" stroke-dasharray="5,2" d="M149.895,-65.4282C175.352,-66.3045 203.946,-67.7185 230,-70 242.769,-71.1182 256.451,-72.7398 269.342,-74.4608"/>
<polygon fill="#9a32cd" stroke="#9a32cd" points="149.674,-61.9194 139.567,-65.0958 149.449,-68.9158 149.674,-61.9194"/>
<text text-anchor="middle" x="198" y="-73" font-family="Helvetica,sans-Serif" font-size="10.00"> IDMap</text>
</g>
<!-- Node23 -->
<g id="node23" class="node"><title>Node23</title>
<polygon fill="white" stroke="#bfbfbf" points="2.5,-0 2.5,-30 145.5,-30 145.5,-0 2.5,-0"/>
<text text-anchor="start" x="10.5" y="-18" font-family="Helvetica,sans-Serif" font-size="10.00">Map&lt; Double, application.</text>
<text text-anchor="middle" x="74" y="-7" font-family="Helvetica,sans-Serif" font-size="10.00">Turtle &gt;</text>
</g>
<!-- Node23&#45;&gt;Node21 -->
<g id="edge30" class="edge"><title>Node23&#45;&gt;Node21</title>
<path fill="none" stroke="#9a32cd" stroke-dasharray="5,2" d="M155.731,-28.6024C180.178,-34.2132 206.708,-41.8443 230,-52 238.813,-55.8428 239.201,-60.1237 248,-64 256.568,-67.7747 266.018,-70.8847 275.275,-73.4167"/>
<polygon fill="#9a32cd" stroke="#9a32cd" points="156.279,-25.1391 145.759,-26.397 154.767,-31.9739 156.279,-25.1391"/>
<text text-anchor="middle" x="198" y="-55" font-family="Helvetica,sans-Serif" font-size="10.00"> TurtleMap</text>
</g>
<!-- Node24 -->
<g id="node24" class="node"><title>Node24</title>
<polygon fill="white" stroke="#bfbfbf" points="6,-98.5 6,-117.5 142,-117.5 142,-98.5 6,-98.5"/>
<text text-anchor="middle" x="74" y="-105.5" font-family="Helvetica,sans-Serif" font-size="10.00">List&lt; application.Turtle &gt;</text>
</g>
<!-- Node24&#45;&gt;Node21 -->
<g id="edge31" class="edge"><title>Node24&#45;&gt;Node21</title>
<path fill="none" stroke="#9a32cd" stroke-dasharray="5,2" d="M152.301,-100.27C190.175,-96.4825 234.922,-92.0078 269.377,-88.5623"/>
<polygon fill="#9a32cd" stroke="#9a32cd" points="151.926,-96.7898 142.324,-101.268 152.623,-103.755 151.926,-96.7898"/>
<text text-anchor="middle" x="198" y="-102" font-family="Helvetica,sans-Serif" font-size="10.00"> myActiveList</text>
</g>
<!-- Node25 -->
<g id="node25" class="node"><title>Node25</title>
<polygon fill="white" stroke="#bfbfbf" points="26,-419.5 26,-438.5 122,-438.5 122,-419.5 26,-419.5"/>
<text text-anchor="middle" x="74" y="-426.5" font-family="Helvetica,sans-Serif" font-size="10.00">BooleanProperty</text>
</g>
<!-- Node25&#45;&gt;Node17 -->
<g id="edge32" class="edge"><title>Node25&#45;&gt;Node17</title>
<path fill="none" stroke="#9a32cd" stroke-dasharray="5,2" d="M87.41,-411.035C126.027,-355.193 241.855,-188.176 248,-185 367.116,-123.437 536.476,-195.286 592.336,-222.447"/>
<polygon fill="#9a32cd" stroke="#9a32cd" points="84.5177,-409.064 81.7107,-419.28 90.276,-413.044 84.5177,-409.064"/>
<text text-anchor="middle" x="326" y="-199" font-family="Helvetica,sans-Serif" font-size="10.00"> clearStamp</text>
<text text-anchor="middle" x="326" y="-188" font-family="Helvetica,sans-Serif" font-size="10.00">clearScreen</text>
</g>
<!-- Node25&#45;&gt;Node34 -->
<g id="edge45" class="edge"><title>Node25&#45;&gt;Node34</title>
<path fill="none" stroke="#9a32cd" stroke-dasharray="5,2" d="M89.5895,-446.528C129.427,-494.312 237.775,-623.717 248,-630 256.798,-635.407 267.05,-639.276 277.149,-642.045"/>
<polygon fill="#9a32cd" stroke="#9a32cd" points="92.0774,-444.047 82.9873,-438.604 86.6994,-448.527 92.0774,-444.047"/>
<text text-anchor="middle" x="198" y="-636" font-family="Helvetica,sans-Serif" font-size="10.00"> showing</text>
<text text-anchor="middle" x="198" y="-625" font-family="Helvetica,sans-Serif" font-size="10.00">penDown</text>
<text text-anchor="middle" x="198" y="-614" font-family="Helvetica,sans-Serif" font-size="10.00">stamp</text>
</g>
<!-- Node26 -->
<g id="node26" class="node"><title>Node26</title>
<polygon fill="white" stroke="#bfbfbf" points="0.5,-144.5 0.5,-163.5 147.5,-163.5 147.5,-144.5 0.5,-144.5"/>
<text text-anchor="middle" x="74" y="-151.5" font-family="Helvetica,sans-Serif" font-size="10.00">ObjectProperty&lt; double[]&gt;</text>
</g>
<!-- Node26&#45;&gt;Node17 -->
<g id="edge33" class="edge"><title>Node26&#45;&gt;Node17</title>
<path fill="none" stroke="#9a32cd" stroke-dasharray="5,2" d="M118.68,-142.051C203.446,-121.461 393.54,-88.1971 526,-162 536.738,-167.983 534.979,-174.65 544,-183 560.498,-198.271 581.768,-213.126 595.869,-222.401"/>
<polygon fill="#9a32cd" stroke="#9a32cd" points="117.734,-138.679 108.876,-144.491 119.425,-145.472 117.734,-138.679"/>
<text text-anchor="middle" x="326" y="-125" font-family="Helvetica,sans-Serif" font-size="10.00"> pallet</text>
</g>
<!-- Node26&#45;&gt;Node34 -->
<g id="edge46" class="edge"><title>Node26&#45;&gt;Node34</title>
<path fill="none" stroke="#9a32cd" stroke-dasharray="5,2" d="M157.719,-147.984C188.931,-147.669 219.466,-150.394 230,-161 266.75,-198 215.062,-589.569 248,-630 255.305,-638.967 266.107,-644.095 277.323,-646.938"/>
<polygon fill="#9a32cd" stroke="#9a32cd" points="157.513,-144.488 147.585,-148.188 157.654,-151.486 157.513,-144.488"/>
<text text-anchor="middle" x="198" y="-164" font-family="Helvetica,sans-Serif" font-size="10.00"> location</text>
</g>
<!-- Node27 -->
<g id="node27" class="node"><title>Node27</title>
<polygon fill="white" stroke="#bfbfbf" points="262,-35.5 262,-54.5 390,-54.5 390,-35.5 262,-35.5"/>
<text text-anchor="middle" x="326" y="-42.5" font-family="Helvetica,sans-Serif" font-size="10.00">Map&lt; String, Double &gt;</text>
</g>
<!-- Node27&#45;&gt;Node17 -->
<g id="edge34" class="edge"><title>Node27&#45;&gt;Node17</title>
<path fill="none" stroke="#9a32cd" stroke-dasharray="5,2" d="M371.202,-33.2785C416.123,-24.2839 484.795,-19.0297 526,-57 567.6,-95.3337 514.886,-134.499 544,-183 554.754,-200.916 574.821,-214.256 590.2,-222.457"/>
<polygon fill="#9a32cd" stroke="#9a32cd" points="370.206,-29.9124 361.161,-35.4298 371.672,-36.7571 370.206,-29.9124"/>
<text text-anchor="middle" x="474" y="-60" font-family="Helvetica,sans-Serif" font-size="10.00"> variableMap</text>
</g>
<!-- Node28&#45;&gt;Node17 -->
<g id="edge35" class="edge"><title>Node28&#45;&gt;Node17</title>
<path fill="none" stroke="#9a32cd" stroke-dasharray="5,2" d="M855.903,-194.136C840.37,-199.821 821.468,-206.062 804,-210 756.46,-220.718 701.021,-226.366 662.156,-229.241"/>
<polygon fill="#9a32cd" stroke="#9a32cd" points="857.441,-197.297 865.576,-190.51 854.984,-190.743 857.441,-197.297"/>
<text text-anchor="middle" x="751" y="-229" font-family="Helvetica,sans-Serif" font-size="10.00"> myParser</text>
</g>
<!-- Node29 -->
<g id="node29" class="node"><title>Node29</title>
<polygon fill="white" stroke="#bfbfbf" points="544.5,-104 544.5,-134 679.5,-134 679.5,-104 544.5,-104"/>
<text text-anchor="start" x="552.5" y="-122" font-family="Helvetica,sans-Serif" font-size="10.00">List&lt; Map.Entry&lt; String,</text>
<text text-anchor="middle" x="612" y="-111" font-family="Helvetica,sans-Serif" font-size="10.00"> Pattern &gt; &gt;</text>
</g>
<!-- Node29&#45;&gt;Node28 -->
<g id="edge36" class="edge"><title>Node29&#45;&gt;Node28</title>
<path fill="none" stroke="#9a32cd" stroke-dasharray="5,2" d="M689.886,-118.914C725.254,-120.623 767.393,-125.162 804,-136 830.737,-143.916 858.763,-160.654 875.018,-171.335"/>
<polygon fill="#9a32cd" stroke="#9a32cd" points="689.759,-115.406 679.622,-118.487 689.468,-122.4 689.759,-115.406"/>
<text text-anchor="middle" x="751" y="-150" font-family="Helvetica,sans-Serif" font-size="10.00"> mySyntaxPatterns</text>
<text text-anchor="middle" x="751" y="-139" font-family="Helvetica,sans-Serif" font-size="10.00">myCommandPatterns</text>
</g>
<!-- Node30 -->
<g id="node30" class="node"><title>Node30</title>
<g id="a_node30"><a xlink:href="../../d5/d4b/classtree_1_1_tree_builder.html" target="_top" xlink:title="tree.TreeBuilder">
<polygon fill="white" stroke="black" points="566,-154.5 566,-173.5 658,-173.5 658,-154.5 566,-154.5"/>
<text text-anchor="middle" x="612" y="-161.5" font-family="Helvetica,sans-Serif" font-size="10.00">tree.TreeBuilder</text>
</a>
</g>
</g>
<!-- Node30&#45;&gt;Node28 -->
<g id="edge37" class="edge"><title>Node30&#45;&gt;Node28</title>
<path fill="none" stroke="#9a32cd" stroke-dasharray="5,2" d="M668.658,-161.647C706.831,-160.68 758.591,-160.644 804,-165 817.901,-166.334 832.92,-168.81 846.41,-171.423"/>
<polygon fill="#9a32cd" stroke="#9a32cd" points="668.164,-158.159 658.268,-161.941 668.363,-165.156 668.164,-158.159"/>
<text text-anchor="middle" x="751" y="-168" font-family="Helvetica,sans-Serif" font-size="10.00"> myTreeBuilder</text>
</g>
<!-- Node31&#45;&gt;Node1 -->
<g id="edge39" class="edge"><title>Node31&#45;&gt;Node1</title>
<path fill="none" stroke="#9a32cd" stroke-dasharray="5,2" d="M1480.3,-586.442C1471.14,-590.194 1461.19,-594.265 1452,-598 1369.43,-631.568 1352.93,-653.316 1266,-673 1215.1,-684.525 1154.01,-685.611 1118.53,-685.028"/>
<polygon fill="#9a32cd" stroke="#9a32cd" points="1481.92,-589.562 1489.84,-582.528 1479.26,-583.085 1481.92,-589.562"/>
<text text-anchor="middle" x="1347" y="-672" font-family="Helvetica,sans-Serif" font-size="10.00"> myButtonBar</text>
</g>
<!-- Node32 -->
<g id="node32" class="node"><title>Node32</title>
<g id="a_node32"><a xlink:href="../../dd/d5e/classview_1_1_image_chooser.html" target="_top" xlink:title="view.ImageChooser">
<polygon fill="white" stroke="black" points="835.5,-567.5 835.5,-586.5 944.5,-586.5 944.5,-567.5 835.5,-567.5"/>
<text text-anchor="middle" x="890" y="-574.5" font-family="Helvetica,sans-Serif" font-size="10.00">view.ImageChooser</text>
</a>
</g>
</g>
<!-- Node32&#45;&gt;Node1 -->
<g id="edge58" class="edge"><title>Node32&#45;&gt;Node1</title>
<path fill="none" stroke="#9a32cd" stroke-dasharray="5,2" d="M922.812,-590.884C947.109,-601.81 981.204,-617.843 1010,-634 1032.94,-646.869 1058.29,-663.92 1073.42,-674.416"/>
<polygon fill="#9a32cd" stroke="#9a32cd" points="923.925,-587.548 913.366,-586.671 921.073,-593.941 923.925,-587.548"/>
<text text-anchor="middle" x="993" y="-637" font-family="Helvetica,sans-Serif" font-size="10.00"> img</text>
</g>
<!-- Node32&#45;&gt;Node31 -->
<g id="edge41" class="edge"><title>Node32&#45;&gt;Node31</title>
<path fill="none" stroke="#9a32cd" stroke-dasharray="5,2" d="M918.457,-562.874C934.756,-555.129 956.069,-546.092 976,-541 1180.97,-488.63 1249.43,-480.006 1452,-541 1468.95,-546.103 1486.69,-556.001 1498.64,-563.444"/>
<polygon fill="#9a32cd" stroke="#9a32cd" points="916.465,-559.951 909.014,-567.482 919.536,-566.242 916.465,-559.951"/>
<text text-anchor="middle" x="1216" y="-505" font-family="Helvetica,sans-Serif" font-size="10.00"> img</text>
</g>
<!-- Node33 -->
<g id="node33" class="node"><title>Node33</title>
<g id="a_node33"><a xlink:href="../../d1/d1a/classview_1_1_display.html" target="_top" xlink:title="view.Display">
<polygon fill="white" stroke="black" points="575,-653.5 575,-672.5 649,-672.5 649,-653.5 575,-653.5"/>
<text text-anchor="middle" x="612" y="-660.5" font-family="Helvetica,sans-Serif" font-size="10.00">view.Display</text>
</a>
</g>
</g>
<!-- Node33&#45;&gt;Node1 -->
<g id="edge57" class="edge"><title>Node33&#45;&gt;Node1</title>
<path fill="none" stroke="#9a32cd" stroke-dasharray="5,2" d="M659.589,-665.889C672.064,-666.622 685.543,-667.377 698,-668 832.003,-674.697 992.075,-680.628 1057.22,-682.955"/>
<polygon fill="#9a32cd" stroke="#9a32cd" points="659.582,-662.383 649.392,-665.282 659.166,-669.37 659.582,-662.383"/>
<text text-anchor="middle" x="890" y="-683" font-family="Helvetica,sans-Serif" font-size="10.00"> display</text>
</g>
<!-- Node33&#45;&gt;Node32 -->
<g id="edge42" class="edge"><title>Node33&#45;&gt;Node32</title>
<path fill="none" stroke="#9a32cd" stroke-dasharray="5,2" d="M653.319,-649.955C662.304,-646.503 671.639,-642.474 680,-638 688.701,-633.344 689.054,-629.166 698,-625 742.012,-604.503 795.965,-591.976 835.289,-584.884"/>
<polygon fill="#9a32cd" stroke="#9a32cd" points="651.947,-646.73 643.771,-653.468 654.364,-653.3 651.947,-646.73"/>
<text text-anchor="middle" x="751" y="-628" font-family="Helvetica,sans-Serif" font-size="10.00"> display</text>
</g>
<!-- Node42 -->
<g id="node42" class="node"><title>Node42</title>
<g id="a_node42"><a xlink:href="../../d6/d05/classview_1_1_color_chooser.html" target="_top" xlink:title="view.ColorChooser">
<polygon fill="white" stroke="black" points="838,-619.5 838,-638.5 942,-638.5 942,-619.5 838,-619.5"/>
<text text-anchor="middle" x="890" y="-626.5" font-family="Helvetica,sans-Serif" font-size="10.00">view.ColorChooser</text>
</a>
</g>
</g>
<!-- Node33&#45;&gt;Node42 -->
<g id="edge55" class="edge"><title>Node33&#45;&gt;Node42</title>
<path fill="none" stroke="#9a32cd" stroke-dasharray="5,2" d="M659.165,-657.313C708.551,-651.229 786.673,-641.606 837.885,-635.297"/>
<polygon fill="#9a32cd" stroke="#9a32cd" points="658.579,-653.859 649.082,-658.555 659.435,-660.806 658.579,-653.859"/>
<text text-anchor="middle" x="751" y="-656" font-family="Helvetica,sans-Serif" font-size="10.00"> disp</text>
</g>
<!-- Node34&#45;&gt;Node33 -->
<g id="edge43" class="edge"><title>Node34&#45;&gt;Node33</title>
<path fill="none" stroke="#9a32cd" stroke-dasharray="5,2" d="M384.803,-651.849C441.63,-654.651 526.618,-658.84 574.606,-661.206"/>
<polygon fill="#9a32cd" stroke="#9a32cd" points="384.695,-648.34 374.535,-651.343 384.351,-655.331 384.695,-648.34"/>
<text text-anchor="middle" x="474" y="-662" font-family="Helvetica,sans-Serif" font-size="10.00"> myTurtle</text>
</g>
<!-- Node35 -->
<g id="node35" class="node"><title>Node35</title>
<polygon fill="white" stroke="#bfbfbf" points="6,-639.5 6,-658.5 142,-658.5 142,-639.5 6,-639.5"/>
<text text-anchor="middle" x="74" y="-646.5" font-family="Helvetica,sans-Serif" font-size="10.00">ObjectProperty&lt; Node &gt;</text>
</g>
<!-- Node35&#45;&gt;Node34 -->
<g id="edge47" class="edge"><title>Node35&#45;&gt;Node34</title>
<path fill="none" stroke="#9a32cd" stroke-dasharray="5,2" d="M152.521,-649C193.351,-649 242.119,-649 277.364,-649"/>
<polygon fill="#9a32cd" stroke="#9a32cd" points="152.324,-645.5 142.324,-649 152.324,-652.5 152.324,-645.5"/>
<text text-anchor="middle" x="198" y="-652" font-family="Helvetica,sans-Serif" font-size="10.00"> node</text>
</g>
<!-- Node36 -->
<g id="node36" class="node"><title>Node36</title>
<polygon fill="white" stroke="#bfbfbf" points="292,-601.5 292,-620.5 360,-620.5 360,-601.5 292,-601.5"/>
<text text-anchor="middle" x="326" y="-608.5" font-family="Helvetica,sans-Serif" font-size="10.00">ImageView</text>
</g>
<!-- Node36&#45;&gt;Node33 -->
<g id="edge48" class="edge"><title>Node36&#45;&gt;Node33</title>
<path fill="none" stroke="#9a32cd" stroke-dasharray="5,2" d="M370.408,-615.393C410.92,-619.898 472.923,-627.826 526,-639 544.456,-642.885 564.799,-648.578 580.956,-653.443"/>
<polygon fill="#9a32cd" stroke="#9a32cd" points="370.658,-611.9 360.337,-614.295 369.899,-618.859 370.658,-611.9"/>
<text text-anchor="middle" x="474" y="-642" font-family="Helvetica,sans-Serif" font-size="10.00"> turtleImage</text>
</g>
<!-- Node37 -->
<g id="node37" class="node"><title>Node37</title>
<polygon fill="white" stroke="#bfbfbf" points="260.5,-720 260.5,-750 391.5,-750 391.5,-720 260.5,-720"/>
<text text-anchor="start" x="268.5" y="-738" font-family="Helvetica,sans-Serif" font-size="10.00">Map&lt; application.Turtle,</text>
<text text-anchor="middle" x="326" y="-727" font-family="Helvetica,sans-Serif" font-size="10.00"> ImageView &gt;</text>
</g>
<!-- Node37&#45;&gt;Node33 -->
<g id="edge49" class="edge"><title>Node37&#45;&gt;Node33</title>
<path fill="none" stroke="#9a32cd" stroke-dasharray="5,2" d="M401.825,-725.478C439.535,-719.672 485.695,-711.019 526,-699 549.344,-692.039 574.933,-680.653 591.871,-672.55"/>
<polygon fill="#9a32cd" stroke="#9a32cd" points="401.297,-722.018 391.929,-726.967 402.338,-728.941 401.297,-722.018"/>
<text text-anchor="middle" x="474" y="-725" font-family="Helvetica,sans-Serif" font-size="10.00"> imageMap</text>
</g>
<!-- Node38 -->
<g id="node38" class="node"><title>Node38</title>
<polygon fill="white" stroke="#bfbfbf" points="294.5,-681.5 294.5,-700.5 357.5,-700.5 357.5,-681.5 294.5,-681.5"/>
<text text-anchor="middle" x="326" y="-688.5" font-family="Helvetica,sans-Serif" font-size="10.00">Rectangle</text>
</g>
<!-- Node38&#45;&gt;Node33 -->
<g id="edge50" class="edge"><title>Node38&#45;&gt;Node33</title>
<path fill="none" stroke="#9a32cd" stroke-dasharray="5,2" d="M367.945,-688.025C408.212,-684.976 471.407,-679.862 526,-674 541.979,-672.284 559.603,-670.059 574.642,-668.058"/>
<polygon fill="#9a32cd" stroke="#9a32cd" points="367.432,-684.554 357.722,-688.792 367.955,-691.534 367.432,-684.554"/>
<text text-anchor="middle" x="474" y="-687" font-family="Helvetica,sans-Serif" font-size="10.00"> initial</text>
</g>
<!-- Node39 -->
<g id="node39" class="node"><title>Node39</title>
<polygon fill="white" stroke="#bfbfbf" points="303,-829.5 303,-848.5 349,-848.5 349,-829.5 303,-829.5"/>
<text text-anchor="middle" x="326" y="-836.5" font-family="Helvetica,sans-Serif" font-size="10.00">Group</text>
</g>
<!-- Node39&#45;&gt;Node1 -->
<g id="edge60" class="edge"><title>Node39&#45;&gt;Node1</title>
<path fill="none" stroke="#9a32cd" stroke-dasharray="5,2" d="M359.047,-843.662C374.572,-847.487 392.332,-854.427 404,-867 424.1,-888.658 399.816,-911.482 422,-931 600.913,-1088.41 731.715,-991.723 958,-917 983.336,-908.634 992.709,-907.32 1010,-887 1062.27,-825.567 1080.96,-724.988 1085.68,-693.639"/>
<polygon fill="#9a32cd" stroke="#9a32cd" points="359.765,-840.236 349.255,-841.57 358.303,-847.082 359.765,-840.236"/>
<text text-anchor="middle" x="751" y="-1009" font-family="Helvetica,sans-Serif" font-size="10.00"> root</text>
</g>
<!-- Node39&#45;&gt;Node33 -->
<g id="edge51" class="edge"><title>Node39&#45;&gt;Node33</title>
<path fill="none" stroke="#9a32cd" stroke-dasharray="5,2" d="M359.435,-834.013C414.06,-825.514 519.169,-808.685 526,-804 574.793,-770.533 600.254,-698.999 608.213,-672.841"/>
<polygon fill="#9a32cd" stroke="#9a32cd" points="358.572,-830.605 349.227,-835.596 359.645,-837.522 358.572,-830.605"/>
<text text-anchor="middle" x="474" y="-827" font-family="Helvetica,sans-Serif" font-size="10.00"> root</text>
</g>
<!-- Node40 -->
<g id="node40" class="node"><title>Node40</title>
<polygon fill="white" stroke="#bfbfbf" points="305.5,-556.5 305.5,-575.5 346.5,-575.5 346.5,-556.5 305.5,-556.5"/>
<text text-anchor="middle" x="326" y="-563.5" font-family="Helvetica,sans-Serif" font-size="10.00">Color</text>
</g>
<!-- Node40&#45;&gt;Node33 -->
<g id="edge52" class="edge"><title>Node40&#45;&gt;Node33</title>
<path fill="none" stroke="#9a32cd" stroke-dasharray="5,2" d="M356.847,-569.142C405.521,-574.754 499.252,-587.744 526,-607 538.93,-616.308 531.824,-627.725 544,-638 552.824,-645.447 564.079,-650.782 574.834,-654.558"/>
<polygon fill="#9a32cd" stroke="#9a32cd" points="356.953,-565.632 346.625,-567.996 356.173,-572.589 356.953,-565.632"/>
<text text-anchor="middle" x="474" y="-610" font-family="Helvetica,sans-Serif" font-size="10.00"> penColor</text>
</g>
<!-- Node40&#45;&gt;Node42 -->
<g id="edge56" class="edge"><title>Node40&#45;&gt;Node42</title>
<path fill="none" stroke="#9a32cd" stroke-dasharray="5,2" d="M356.878,-564.997C396.068,-564.249 466.804,-564.862 526,-576 534.287,-577.559 535.825,-579.933 544,-582 611.368,-599.034 629.181,-599.376 698,-609 745.218,-615.603 799.282,-621.07 837.81,-624.61"/>
<polygon fill="#9a32cd" stroke="#9a32cd" points="356.612,-561.502 346.697,-565.236 356.776,-568.5 356.612,-561.502"/>
<text text-anchor="middle" x="612" y="-621" font-family="Helvetica,sans-Serif" font-size="10.00"> penColor</text>
<text text-anchor="middle" x="612" y="-610" font-family="Helvetica,sans-Serif" font-size="10.00">backgroundColor</text>
</g>
<!-- Node41 -->
<g id="node41" class="node"><title>Node41</title>
<polygon fill="white" stroke="#bfbfbf" points="584,-553.5 584,-572.5 640,-572.5 640,-553.5 584,-553.5"/>
<text text-anchor="middle" x="612" y="-560.5" font-family="Helvetica,sans-Serif" font-size="10.00">Desktop</text>
</g>
<!-- Node41&#45;&gt;Node32 -->
<g id="edge53" class="edge"><title>Node41&#45;&gt;Node32</title>
<path fill="none" stroke="#9a32cd" stroke-dasharray="5,2" d="M650.488,-561.579C689.049,-560.496 750.818,-559.817 804,-564 814.12,-564.796 824.861,-566.086 835.179,-567.552"/>
<polygon fill="#9a32cd" stroke="#9a32cd" points="650.142,-558.088 640.254,-561.891 650.356,-565.084 650.142,-558.088"/>
<text text-anchor="middle" x="751" y="-567" font-family="Helvetica,sans-Serif" font-size="10.00"> desktop</text>
</g>
<!-- Node42&#45;&gt;Node1 -->
<g id="edge59" class="edge"><title>Node42&#45;&gt;Node1</title>
<path fill="none" stroke="#9a32cd" stroke-dasharray="5,2" d="M946.45,-640.762C966.585,-645.37 989.435,-650.993 1010,-657 1027.54,-662.123 1046.96,-668.939 1061.9,-674.441"/>
<polygon fill="#9a32cd" stroke="#9a32cd" points="947.027,-637.304 936.501,-638.516 945.485,-644.132 947.027,-637.304"/>
<text text-anchor="middle" x="993" y="-660" font-family="Helvetica,sans-Serif" font-size="10.00"> col</text>
</g>
<!-- Node42&#45;&gt;Node31 -->
<g id="edge54" class="edge"><title>Node42&#45;&gt;Node31</title>
<path fill="none" stroke="#9a32cd" stroke-dasharray="5,2" d="M927.796,-615.134C938.26,-610.109 949.195,-603.726 958,-596 968.841,-586.488 963.284,-575.805 976,-569 1060.77,-523.633 1357.51,-553.964 1469.64,-567.465"/>
<polygon fill="#9a32cd" stroke="#9a32cd" points="926.074,-612.071 918.392,-619.368 928.947,-618.454 926.074,-612.071"/>
<text text-anchor="middle" x="1216" y="-552" font-family="Helvetica,sans-Serif" font-size="10.00"> colz</text>
</g>
</g>
</svg>
