<?xml version="1.0" encoding="UTF-8" standalone="no"?>
<!DOCTYPE svg PUBLIC "-//W3C//DTD SVG 1.1//EN"
 "http://www.w3.org/Graphics/SVG/1.1/DTD/svg11.dtd">
<!-- Generated by graphviz version 2.36.0 (20140111.2315)
 -->
<!-- Title: application.Turtle.getFullRotation Pages: 1 -->
<svg width="558pt" height="142pt"
 viewBox="0.00 0.00 558.00 142.00" xmlns="http://www.w3.org/2000/svg" xmlns:xlink="http://www.w3.org/1999/xlink">
<g id="graph0" class="graph" transform="scale(1 1) rotate(0) translate(4 138)">
<title>application.Turtle.getFullRotation</title>
<polygon fill="white" stroke="none" points="-4,4 -4,-138 554,-138 554,4 -4,4"/>
<!-- Node1 -->
<g id="node1" class="node"><title>Node1</title>
<polygon fill="#bfbfbf" stroke="black" points="0.5,-52 0.5,-82 131.5,-82 131.5,-52 0.5,-52"/>
<text text-anchor="start" x="8.5" y="-70" font-family="Helvetica,sans-Serif" font-size="10.00">application.Turtle.getFull</text>
<text text-anchor="middle" x="66" y="-59" font-family="Helvetica,sans-Serif" font-size="10.00">Rotation</text>
</g>
<!-- Node2 -->
<g id="node2" class="node"><title>Node2</title>
<g id="a_node2"><a xlink:href="../../d4/d8c/classcommands_1_1_left.html#aded2b40e24238aa693e9a3a441898f2c" target="_top" xlink:title="commands.Left.function">
<polygon fill="white" stroke="black" points="189.5,-114.5 189.5,-133.5 322.5,-133.5 322.5,-114.5 189.5,-114.5"/>
<text text-anchor="middle" x="256" y="-121.5" font-family="Helvetica,sans-Serif" font-size="10.00">commands.Left.function</text>
</a>
</g>
</g>
<!-- Node1&#45;&gt;Node2 -->
<g id="edge1" class="edge"><title>Node1&#45;&gt;Node2</title>
<path fill="none" stroke="midnightblue" d="M112.788,-85.8312C129.924,-92.4518 149.677,-99.5834 168,-105 180.009,-108.55 193.128,-111.756 205.453,-114.48"/>
<polygon fill="midnightblue" stroke="midnightblue" points="113.62,-82.3979 103.032,-82.009 111.066,-88.9156 113.62,-82.3979"/>
</g>
<!-- Node3 -->
<g id="node3" class="node"><title>Node3</title>
<g id="a_node3"><a xlink:href="../../d0/d7a/classcommands_1_1_right.html#ab1cd698aaef03865d27a44fa32216517" target="_top" xlink:title="commands.Right.function">
<polygon fill="white" stroke="black" points="186.5,-76.5 186.5,-95.5 325.5,-95.5 325.5,-76.5 186.5,-76.5"/>
<text text-anchor="middle" x="256" y="-83.5" font-family="Helvetica,sans-Serif" font-size="10.00">commands.Right.function</text>
</a>
</g>
</g>
<!-- Node1&#45;&gt;Node3 -->
<g id="edge2" class="edge"><title>Node1&#45;&gt;Node3</title>
<path fill="none" stroke="midnightblue" d="M141.759,-74.5554C156.469,-76.0421 171.836,-77.5951 186.334,-79.0603"/>
<polygon fill="midnightblue" stroke="midnightblue" points="142,-71.0621 131.699,-73.5387 141.296,-78.0266 142,-71.0621"/>
</g>
<!-- Node4 -->
<g id="node4" class="node"><title>Node4</title>
<g id="a_node4"><a xlink:href="../../d6/dbe/classcommands_1_1_set_heading.html#a3faa911f835f80e99271ff1e292d92d8" target="_top" xlink:title="commands.SetHeading.function">
<polygon fill="white" stroke="black" points="170.5,-38.5 170.5,-57.5 341.5,-57.5 341.5,-38.5 170.5,-38.5"/>
<text text-anchor="middle" x="256" y="-45.5" font-family="Helvetica,sans-Serif" font-size="10.00">commands.SetHeading.function</text>
</a>
</g>
</g>
<!-- Node1&#45;&gt;Node4 -->
<g id="edge3" class="edge"><title>Node1&#45;&gt;Node4</title>
<path fill="none" stroke="midnightblue" d="M141.744,-59.4461C151.114,-58.4991 160.752,-57.5251 170.262,-56.564"/>
<polygon fill="midnightblue" stroke="midnightblue" points="141.296,-55.9734 131.699,-60.4613 142,-62.9379 141.296,-55.9734"/>
</g>
<!-- Node5 -->
<g id="node5" class="node"><title>Node5</title>
<g id="a_node5"><a xlink:href="../../d0/db5/classcommands_1_1_set_towards.html#a7b88861ab88e225b07507676e126846b" target="_top" xlink:title="commands.SetTowards.getOffset">
<polygon fill="white" stroke="black" points="168.5,-0.5 168.5,-19.5 343.5,-19.5 343.5,-0.5 168.5,-0.5"/>
<text text-anchor="middle" x="256" y="-7.5" font-family="Helvetica,sans-Serif" font-size="10.00">commands.SetTowards.getOffset</text>
</a>
</g>
</g>
<!-- Node1&#45;&gt;Node5 -->
<g id="edge4" class="edge"><title>Node1&#45;&gt;Node5</title>
<path fill="none" stroke="midnightblue" d="M112.788,-48.1688C129.924,-41.5482 149.677,-34.4166 168,-29 180.009,-25.4499 193.128,-22.2442 205.453,-19.5204"/>
<polygon fill="midnightblue" stroke="midnightblue" points="111.066,-45.0844 103.032,-51.991 113.62,-51.6021 111.066,-45.0844"/>
</g>
<!-- Node6 -->
<g id="node6" class="node"><title>Node6</title>
<g id="a_node6"><a xlink:href="../../d0/db5/classcommands_1_1_set_towards.html#ad21e4c21b2a2e1a568bba683a5e06d8b" target="_top" xlink:title="commands.SetTowards.function">
<polygon fill="white" stroke="black" points="380.5,-0.5 380.5,-19.5 549.5,-19.5 549.5,-0.5 380.5,-0.5"/>
<text text-anchor="middle" x="465" y="-7.5" font-family="Helvetica,sans-Serif" font-size="10.00">commands.SetTowards.function</text>
</a>
</g>
</g>
<!-- Node5&#45;&gt;Node6 -->
<g id="edge5" class="edge"><title>Node5&#45;&gt;Node6</title>
<path fill="none" stroke="midnightblue" d="M353.642,-10C362.586,-10 371.599,-10 380.411,-10"/>
<polygon fill="midnightblue" stroke="midnightblue" points="353.587,-6.5001 343.587,-10 353.587,-13.5001 353.587,-6.5001"/>
</g>
</g>
</svg>
