<?xml version="1.0" encoding="UTF-8" standalone="no"?>
<!DOCTYPE svg PUBLIC "-//W3C//DTD SVG 1.1//EN"
 "http://www.w3.org/Graphics/SVG/1.1/DTD/svg11.dtd">
<!-- Generated by graphviz version 2.36.0 (20140111.2315)
 -->
<!-- Title: application.Turtle.shapeProperty Pages: 1 -->
<svg width="846pt" height="38pt"
 viewBox="0.00 0.00 846.00 38.00" xmlns="http://www.w3.org/2000/svg" xmlns:xlink="http://www.w3.org/1999/xlink">
<g id="graph0" class="graph" transform="scale(1 1) rotate(0) translate(4 34)">
<title>application.Turtle.shapeProperty</title>
<polygon fill="white" stroke="none" points="-4,4 -4,-34 842,-34 842,4 -4,4"/>
<!-- Node1 -->
<g id="node1" class="node"><title>Node1</title>
<polygon fill="#bfbfbf" stroke="black" points="0.5,-0 0.5,-30 129.5,-30 129.5,-0 0.5,-0"/>
<text text-anchor="start" x="8.5" y="-18" font-family="Helvetica,sans-Serif" font-size="10.00">application.Turtle.shape</text>
<text text-anchor="middle" x="65" y="-7" font-family="Helvetica,sans-Serif" font-size="10.00">Property</text>
</g>
<!-- Node2 -->
<g id="node2" class="node"><title>Node2</title>
<g id="a_node2"><a xlink:href="../../d3/dbe/classview_1_1_view.html#a808f20def9060b723dd4974bc7553155" target="_top" xlink:title="view.View.addTurtleListeners">
<polygon fill="white" stroke="black" points="166,-5.5 166,-24.5 316,-24.5 316,-5.5 166,-5.5"/>
<text text-anchor="middle" x="241" y="-12.5" font-family="Helvetica,sans-Serif" font-size="10.00">view.View.addTurtleListeners</text>
</a>
</g>
</g>
<!-- Node1&#45;&gt;Node2 -->
<g id="edge1" class="edge"><title>Node1&#45;&gt;Node2</title>
<path fill="none" stroke="midnightblue" d="M139.829,-15C148.456,-15 157.26,-15 165.891,-15"/>
<polygon fill="midnightblue" stroke="midnightblue" points="139.803,-11.5001 129.803,-15 139.803,-18.5001 139.803,-11.5001"/>
</g>
<!-- Node3 -->
<g id="node3" class="node"><title>Node3</title>
<g id="a_node3"><a xlink:href="../../d3/dbe/classview_1_1_view.html#a6c2525fe1f26dc400c48823ce4f0d057" target="_top" xlink:title="view.View.addModelListeners">
<polygon fill="white" stroke="black" points="352.5,-5.5 352.5,-24.5 505.5,-24.5 505.5,-5.5 352.5,-5.5"/>
<text text-anchor="middle" x="429" y="-12.5" font-family="Helvetica,sans-Serif" font-size="10.00">view.View.addModelListeners</text>
</a>
</g>
</g>
<!-- Node2&#45;&gt;Node3 -->
<g id="edge2" class="edge"><title>Node2&#45;&gt;Node3</title>
<path fill="none" stroke="midnightblue" d="M326.218,-15C334.939,-15 343.764,-15 352.382,-15"/>
<polygon fill="midnightblue" stroke="midnightblue" points="326.047,-11.5001 316.047,-15 326.047,-18.5001 326.047,-11.5001"/>
</g>
<!-- Node4 -->
<g id="node4" class="node"><title>Node4</title>
<g id="a_node4"><a xlink:href="../../d4/d9d/classapplication_1_1_wrapper.html#a4be5486a54f6d10d816c3ff49e82ecb9" target="_top" xlink:title="application.Wrapper.make\lNewWindow">
<polygon fill="white" stroke="black" points="542,-0 542,-30 682,-30 682,-0 542,-0"/>
<text text-anchor="start" x="550" y="-18" font-family="Helvetica,sans-Serif" font-size="10.00">application.Wrapper.make</text>
<text text-anchor="middle" x="612" y="-7" font-family="Helvetica,sans-Serif" font-size="10.00">NewWindow</text>
</a>
</g>
</g>
<!-- Node3&#45;&gt;Node4 -->
<g id="edge3" class="edge"><title>Node3&#45;&gt;Node4</title>
<path fill="none" stroke="midnightblue" d="M515.912,-15C524.64,-15 533.426,-15 541.942,-15"/>
<polygon fill="midnightblue" stroke="midnightblue" points="515.712,-11.5001 505.712,-15 515.712,-18.5001 515.712,-11.5001"/>
</g>
<!-- Node5 -->
<g id="node5" class="node"><title>Node5</title>
<g id="a_node5"><a xlink:href="../../d9/d96/classapplication_1_1_main.html#a4e5ad4e3de8bbd8654120180a94e870d" target="_top" xlink:title="application.Main.start">
<polygon fill="white" stroke="black" points="718.5,-5.5 718.5,-24.5 837.5,-24.5 837.5,-5.5 718.5,-5.5"/>
<text text-anchor="middle" x="778" y="-12.5" font-family="Helvetica,sans-Serif" font-size="10.00">application.Main.start</text>
</a>
</g>
</g>
<!-- Node4&#45;&gt;Node5 -->
<g id="edge4" class="edge"><title>Node4&#45;&gt;Node5</title>
<path fill="none" stroke="midnightblue" d="M692.335,-15C701.112,-15 709.929,-15 718.384,-15"/>
<polygon fill="midnightblue" stroke="midnightblue" points="692.075,-11.5001 682.075,-15 692.075,-18.5001 692.075,-11.5001"/>
</g>
</g>
</svg>
