<?xml version="1.0" encoding="UTF-8" standalone="no"?>
<!DOCTYPE svg PUBLIC "-//W3C//DTD SVG 1.1//EN"
 "http://www.w3.org/Graphics/SVG/1.1/DTD/svg11.dtd">
<!-- Generated by graphviz version 2.36.0 (20140111.2315)
 -->
<!-- Title: application.Turtle.getY Pages: 1 -->
<svg width="708pt" height="38pt"
 viewBox="0.00 0.00 708.00 38.00" xmlns="http://www.w3.org/2000/svg" xmlns:xlink="http://www.w3.org/1999/xlink">
<g id="graph0" class="graph" transform="scale(1 1) rotate(0) translate(4 34)">
<title>application.Turtle.getY</title>
<polygon fill="white" stroke="none" points="-4,4 -4,-34 704,-34 704,4 -4,4"/>
<!-- Node1 -->
<g id="node1" class="node"><title>Node1</title>
<polygon fill="#bfbfbf" stroke="black" points="0.5,-5.5 0.5,-24.5 121.5,-24.5 121.5,-5.5 0.5,-5.5"/>
<text text-anchor="middle" x="61" y="-12.5" font-family="Helvetica,sans-Serif" font-size="10.00">application.Turtle.getY</text>
</g>
<!-- Node2 -->
<g id="node2" class="node"><title>Node2</title>
<g id="a_node2"><a xlink:href="../../d2/dc9/classcommands_1_1_forward.html#a847dfb7681940af22b76944f2ece7342" target="_top" xlink:title="commands.Forward.advance\lTurtle">
<polygon fill="white" stroke="black" points="158.5,-0 158.5,-30 313.5,-30 313.5,-0 158.5,-0"/>
<text text-anchor="start" x="166.5" y="-18" font-family="Helvetica,sans-Serif" font-size="10.00">commands.Forward.advance</text>
<text text-anchor="middle" x="236" y="-7" font-family="Helvetica,sans-Serif" font-size="10.00">Turtle</text>
</a>
</g>
</g>
<!-- Node1&#45;&gt;Node2 -->
<g id="edge1" class="edge"><title>Node1&#45;&gt;Node2</title>
<path fill="none" stroke="midnightblue" d="M131.67,-15C140.415,-15 149.398,-15 158.244,-15"/>
<polygon fill="midnightblue" stroke="midnightblue" points="131.537,-11.5001 121.537,-15 131.537,-18.5001 131.537,-11.5001"/>
</g>
<!-- Node3 -->
<g id="node3" class="node"><title>Node3</title>
<g id="a_node3"><a xlink:href="../../d2/dc9/classcommands_1_1_forward.html#ad6aede47835c759954a874b7793cff06" target="_top" xlink:title="commands.Forward.function">
<polygon fill="white" stroke="black" points="350,-5.5 350,-24.5 502,-24.5 502,-5.5 350,-5.5"/>
<text text-anchor="middle" x="426" y="-12.5" font-family="Helvetica,sans-Serif" font-size="10.00">commands.Forward.function</text>
</a>
</g>
</g>
<!-- Node2&#45;&gt;Node3 -->
<g id="edge2" class="edge"><title>Node2&#45;&gt;Node3</title>
<path fill="none" stroke="midnightblue" d="M323.834,-15C332.481,-15 341.209,-15 349.724,-15"/>
<polygon fill="midnightblue" stroke="midnightblue" points="323.738,-11.5001 313.738,-15 323.738,-18.5001 323.738,-11.5001"/>
</g>
<!-- Node4 -->
<g id="node4" class="node"><title>Node4</title>
<g id="a_node4"><a xlink:href="../../dc/de9/classcommands_1_1_backward.html#a3d024167c1b0b72f5c526e6fae458fa2" target="_top" xlink:title="commands.Backward.function">
<polygon fill="white" stroke="black" points="538.5,-5.5 538.5,-24.5 699.5,-24.5 699.5,-5.5 538.5,-5.5"/>
<text text-anchor="middle" x="619" y="-12.5" font-family="Helvetica,sans-Serif" font-size="10.00">commands.Backward.function</text>
</a>
</g>
</g>
<!-- Node3&#45;&gt;Node4 -->
<g id="edge3" class="edge"><title>Node3&#45;&gt;Node4</title>
<path fill="none" stroke="midnightblue" d="M512.342,-15C521.03,-15 529.83,-15 538.452,-15"/>
<polygon fill="midnightblue" stroke="midnightblue" points="512.214,-11.5001 502.214,-15 512.214,-18.5001 512.214,-11.5001"/>
</g>
</g>
</svg>
