<?xml version="1.0" encoding="UTF-8" standalone="no"?>
<!DOCTYPE svg PUBLIC "-//W3C//DTD SVG 1.1//EN"
 "http://www.w3.org/Graphics/SVG/1.1/DTD/svg11.dtd">
<!-- Generated by graphviz version 2.36.0 (20140111.2315)
 -->
<!-- Title: application.Turtle.getHalfRotation Pages: 1 -->
<svg width="560pt" height="38pt"
 viewBox="0.00 0.00 560.00 38.00" xmlns="http://www.w3.org/2000/svg" xmlns:xlink="http://www.w3.org/1999/xlink">
<g id="graph0" class="graph" transform="scale(1 1) rotate(0) translate(4 34)">
<title>application.Turtle.getHalfRotation</title>
<polygon fill="white" stroke="none" points="-4,4 -4,-34 556,-34 556,4 -4,4"/>
<!-- Node1 -->
<g id="node1" class="node"><title>Node1</title>
<polygon fill="#bfbfbf" stroke="black" points="0,-0 0,-30 134,-30 134,-0 0,-0"/>
<text text-anchor="start" x="8" y="-18" font-family="Helvetica,sans-Serif" font-size="10.00">application.Turtle.getHalf</text>
<text text-anchor="middle" x="67" y="-7" font-family="Helvetica,sans-Serif" font-size="10.00">Rotation</text>
</g>
<!-- Node2 -->
<g id="node2" class="node"><title>Node2</title>
<g id="a_node2"><a xlink:href="../../d0/db5/classcommands_1_1_set_towards.html#a7b88861ab88e225b07507676e126846b" target="_top" xlink:title="commands.SetTowards.getOffset">
<polygon fill="white" stroke="black" points="170.5,-5.5 170.5,-24.5 345.5,-24.5 345.5,-5.5 170.5,-5.5"/>
<text text-anchor="middle" x="258" y="-12.5" font-family="Helvetica,sans-Serif" font-size="10.00">commands.SetTowards.getOffset</text>
</a>
</g>
</g>
<!-- Node1&#45;&gt;Node2 -->
<g id="edge1" class="edge"><title>Node1&#45;&gt;Node2</title>
<path fill="none" stroke="midnightblue" d="M144.117,-15C152.746,-15 161.588,-15 170.339,-15"/>
<polygon fill="midnightblue" stroke="midnightblue" points="144.103,-11.5001 134.103,-15 144.103,-18.5001 144.103,-11.5001"/>
</g>
<!-- Node3 -->
<g id="node3" class="node"><title>Node3</title>
<g id="a_node3"><a xlink:href="../../d0/db5/classcommands_1_1_set_towards.html#ad21e4c21b2a2e1a568bba683a5e06d8b" target="_top" xlink:title="commands.SetTowards.function">
<polygon fill="white" stroke="black" points="382.5,-5.5 382.5,-24.5 551.5,-24.5 551.5,-5.5 382.5,-5.5"/>
<text text-anchor="middle" x="467" y="-12.5" font-family="Helvetica,sans-Serif" font-size="10.00">commands.SetTowards.function</text>
</a>
</g>
</g>
<!-- Node2&#45;&gt;Node3 -->
<g id="edge2" class="edge"><title>Node2&#45;&gt;Node3</title>
<path fill="none" stroke="midnightblue" d="M355.642,-15C364.586,-15 373.599,-15 382.411,-15"/>
<polygon fill="midnightblue" stroke="midnightblue" points="355.587,-11.5001 345.587,-15 355.587,-18.5001 355.587,-11.5001"/>
</g>
</g>
</svg>
