<?xml version="1.0" encoding="UTF-8" standalone="no"?>
<!DOCTYPE svg PUBLIC "-//W3C//DTD SVG 1.1//EN"
 "http://www.w3.org/Graphics/SVG/1.1/DTD/svg11.dtd">
<!-- Generated by graphviz version 2.36.0 (20140111.2315)
 -->
<!-- Title: application.Turtle.getHeadingProperty Pages: 1 -->
<svg width="872pt" height="38pt"
 viewBox="0.00 0.00 872.00 38.00" xmlns="http://www.w3.org/2000/svg" xmlns:xlink="http://www.w3.org/1999/xlink">
<g id="graph0" class="graph" transform="scale(1 1) rotate(0) translate(4 34)">
<title>application.Turtle.getHeadingProperty</title>
<polygon fill="white" stroke="none" points="-4,4 -4,-34 868,-34 868,4 -4,4"/>
<!-- Node1 -->
<g id="node1" class="node"><title>Node1</title>
<polygon fill="#bfbfbf" stroke="black" points="0.5,-0 0.5,-30 155.5,-30 155.5,-0 0.5,-0"/>
<text text-anchor="start" x="8.5" y="-18" font-family="Helvetica,sans-Serif" font-size="10.00">application.Turtle.getHeading</text>
<text text-anchor="middle" x="78" y="-7" font-family="Helvetica,sans-Serif" font-size="10.00">Property</text>
</g>
<!-- Node2 -->
<g id="node2" class="node"><title>Node2</title>
<g id="a_node2"><a xlink:href="../../d3/dbe/classview_1_1_view.html#a808f20def9060b723dd4974bc7553155" target="_top" xlink:title="view.View.addTurtleListeners">
<polygon fill="white" stroke="black" points="192,-5.5 192,-24.5 342,-24.5 342,-5.5 192,-5.5"/>
<text text-anchor="middle" x="267" y="-12.5" font-family="Helvetica,sans-Serif" font-size="10.00">view.View.addTurtleListeners</text>
</a>
</g>
</g>
<!-- Node1&#45;&gt;Node2 -->
<g id="edge1" class="edge"><title>Node1&#45;&gt;Node2</title>
<path fill="none" stroke="midnightblue" d="M165.8,-15C174.535,-15 183.349,-15 191.934,-15"/>
<polygon fill="midnightblue" stroke="midnightblue" points="165.6,-11.5001 155.6,-15 165.6,-18.5001 165.6,-11.5001"/>
</g>
<!-- Node3 -->
<g id="node3" class="node"><title>Node3</title>
<g id="a_node3"><a xlink:href="../../d3/dbe/classview_1_1_view.html#a6c2525fe1f26dc400c48823ce4f0d057" target="_top" xlink:title="view.View.addModelListeners">
<polygon fill="white" stroke="black" points="378.5,-5.5 378.5,-24.5 531.5,-24.5 531.5,-5.5 378.5,-5.5"/>
<text text-anchor="middle" x="455" y="-12.5" font-family="Helvetica,sans-Serif" font-size="10.00">view.View.addModelListeners</text>
</a>
</g>
</g>
<!-- Node2&#45;&gt;Node3 -->
<g id="edge2" class="edge"><title>Node2&#45;&gt;Node3</title>
<path fill="none" stroke="midnightblue" d="M352.218,-15C360.939,-15 369.764,-15 378.382,-15"/>
<polygon fill="midnightblue" stroke="midnightblue" points="352.047,-11.5001 342.047,-15 352.047,-18.5001 352.047,-11.5001"/>
</g>
<!-- Node4 -->
<g id="node4" class="node"><title>Node4</title>
<g id="a_node4"><a xlink:href="../../d4/d9d/classapplication_1_1_wrapper.html#a4be5486a54f6d10d816c3ff49e82ecb9" target="_top" xlink:title="application.Wrapper.make\lNewWindow">
<polygon fill="white" stroke="black" points="568,-0 568,-30 708,-30 708,-0 568,-0"/>
<text text-anchor="start" x="576" y="-18" font-family="Helvetica,sans-Serif" font-size="10.00">application.Wrapper.make</text>
<text text-anchor="middle" x="638" y="-7" font-family="Helvetica,sans-Serif" font-size="10.00">NewWindow</text>
</a>
</g>
</g>
<!-- Node3&#45;&gt;Node4 -->
<g id="edge3" class="edge"><title>Node3&#45;&gt;Node4</title>
<path fill="none" stroke="midnightblue" d="M541.912,-15C550.64,-15 559.426,-15 567.942,-15"/>
<polygon fill="midnightblue" stroke="midnightblue" points="541.712,-11.5001 531.712,-15 541.712,-18.5001 541.712,-11.5001"/>
</g>
<!-- Node5 -->
<g id="node5" class="node"><title>Node5</title>
<g id="a_node5"><a xlink:href="../../d9/d96/classapplication_1_1_main.html#a4e5ad4e3de8bbd8654120180a94e870d" target="_top" xlink:title="application.Main.start">
<polygon fill="white" stroke="black" points="744.5,-5.5 744.5,-24.5 863.5,-24.5 863.5,-5.5 744.5,-5.5"/>
<text text-anchor="middle" x="804" y="-12.5" font-family="Helvetica,sans-Serif" font-size="10.00">application.Main.start</text>
</a>
</g>
</g>
<!-- Node4&#45;&gt;Node5 -->
<g id="edge4" class="edge"><title>Node4&#45;&gt;Node5</title>
<path fill="none" stroke="midnightblue" d="M718.335,-15C727.112,-15 735.929,-15 744.384,-15"/>
<polygon fill="midnightblue" stroke="midnightblue" points="718.075,-11.5001 708.075,-15 718.075,-18.5001 718.075,-11.5001"/>
</g>
</g>
</svg>
