<?xml version="1.0" encoding="UTF-8" standalone="no"?>
<!DOCTYPE svg PUBLIC "-//W3C//DTD SVG 1.1//EN"
 "http://www.w3.org/Graphics/SVG/1.1/DTD/svg11.dtd">
<!-- Generated by graphviz version 2.36.0 (20140111.2315)
 -->
<!-- Title: syntax.GroupHandler Pages: 1 -->
<svg width="1058pt" height="435pt"
 viewBox="0.00 0.00 1058.00 435.05" xmlns="http://www.w3.org/2000/svg" xmlns:xlink="http://www.w3.org/1999/xlink">
<g id="graph0" class="graph" transform="scale(1 1) rotate(0) translate(4 431.052)">
<title>syntax.GroupHandler</title>
<polygon fill="white" stroke="none" points="-4,4 -4,-431.052 1054,-431.052 1054,4 -4,4"/>
<!-- Node1 -->
<g id="node1" class="node"><title>Node1</title>
<polygon fill="#bfbfbf" stroke="black" points="932,-376.552 932,-395.552 1050,-395.552 1050,-376.552 932,-376.552"/>
<text text-anchor="middle" x="991" y="-383.552" font-family="Helvetica,sans-Serif" font-size="10.00">syntax.GroupHandler</text>
</g>
<!-- Node2 -->
<g id="node2" class="node"><title>Node2</title>
<g id="a_node2"><a xlink:href="../../d0/d2d/classsyntax_1_1_syntax_handler.html" target="_top" xlink:title="syntax.SyntaxHandler">
<polygon fill="white" stroke="black" points="772,-376.552 772,-395.552 894,-395.552 894,-376.552 772,-376.552"/>
<text text-anchor="middle" x="833" y="-383.552" font-family="Helvetica,sans-Serif" font-size="10.00">syntax.SyntaxHandler</text>
</a>
</g>
</g>
<!-- Node2&#45;&gt;Node1 -->
<g id="edge1" class="edge"><title>Node2&#45;&gt;Node1</title>
<path fill="none" stroke="midnightblue" d="M904.554,-386.052C913.701,-386.052 922.985,-386.052 931.897,-386.052"/>
<polygon fill="midnightblue" stroke="midnightblue" points="904.314,-382.552 894.314,-386.052 904.314,-389.552 904.314,-382.552"/>
</g>
<!-- Node3 -->
<g id="node3" class="node"><title>Node3</title>
<polygon fill="white" stroke="#bfbfbf" points="4.5,-396.052 4.5,-426.052 139.5,-426.052 139.5,-396.052 4.5,-396.052"/>
<text text-anchor="start" x="12.5" y="-414.052" font-family="Helvetica,sans-Serif" font-size="10.00">List&lt; Map.Entry&lt; String,</text>
<text text-anchor="middle" x="72" y="-403.052" font-family="Helvetica,sans-Serif" font-size="10.00"> Pattern &gt; &gt;</text>
</g>
<!-- Node3&#45;&gt;Node2 -->
<g id="edge2" class="edge"><title>Node3&#45;&gt;Node2</title>
<path fill="none" stroke="#9a32cd" stroke-dasharray="5,2" d="M150.175,-411.563C186.009,-411.669 229.18,-411.611 268,-411.052 484.067,-407.94 538.68,-415.279 754,-397.052 759.723,-396.567 765.668,-395.945 771.608,-395.245"/>
<polygon fill="#9a32cd" stroke="#9a32cd" points="149.801,-408.061 139.789,-411.527 149.776,-415.061 149.801,-408.061"/>
<text text-anchor="middle" x="515" y="-414.052" font-family="Helvetica,sans-Serif" font-size="10.00"> myCommandPatterns</text>
</g>
<!-- Node4 -->
<g id="node4" class="node"><title>Node4</title>
<g id="a_node4"><a xlink:href="../../dc/d9e/classapplication_1_1_parser.html" target="_top" xlink:title="application.Parser">
<polygon fill="white" stroke="black" points="313.5,-356.552 313.5,-375.552 414.5,-375.552 414.5,-356.552 313.5,-356.552"/>
<text text-anchor="middle" x="364" y="-363.552" font-family="Helvetica,sans-Serif" font-size="10.00">application.Parser</text>
</a>
</g>
</g>
<!-- Node3&#45;&gt;Node4 -->
<g id="edge4" class="edge"><title>Node3&#45;&gt;Node4</title>
<path fill="none" stroke="#9a32cd" stroke-dasharray="5,2" d="M139.244,-393.685C146.887,-391.976 154.594,-390.385 162,-389.052 213.16,-379.841 272.346,-373.593 313.179,-369.96"/>
<polygon fill="#9a32cd" stroke="#9a32cd" points="138.221,-390.329 129.263,-395.986 139.794,-397.15 138.221,-390.329"/>
<text text-anchor="middle" x="215" y="-403.052" font-family="Helvetica,sans-Serif" font-size="10.00"> mySyntaxPatterns</text>
<text text-anchor="middle" x="215" y="-392.052" font-family="Helvetica,sans-Serif" font-size="10.00">myCommandPatterns</text>
</g>
<!-- Node4&#45;&gt;Node2 -->
<g id="edge3" class="edge"><title>Node4&#45;&gt;Node2</title>
<path fill="none" stroke="#9a32cd" stroke-dasharray="5,2" d="M424.869,-370.065C436.519,-370.781 448.639,-371.479 460,-372.052 569.892,-377.589 698.146,-381.953 771.736,-384.255"/>
<polygon fill="#9a32cd" stroke="#9a32cd" points="424.983,-366.566 414.784,-369.435 424.546,-373.552 424.983,-366.566"/>
<text text-anchor="middle" x="638" y="-385.052" font-family="Helvetica,sans-Serif" font-size="10.00"> myParser</text>
</g>
<!-- Node6 -->
<g id="node6" class="node"><title>Node6</title>
<g id="a_node6"><a xlink:href="../../dd/d17/classapplication_1_1_model.html" target="_top" xlink:title="application.Model">
<polygon fill="white" stroke="black" points="588,-219.552 588,-238.552 688,-238.552 688,-219.552 588,-219.552"/>
<text text-anchor="middle" x="638" y="-226.552" font-family="Helvetica,sans-Serif" font-size="10.00">application.Model</text>
</a>
</g>
</g>
<!-- Node4&#45;&gt;Node6 -->
<g id="edge19" class="edge"><title>Node4&#45;&gt;Node6</title>
<path fill="none" stroke="#9a32cd" stroke-dasharray="5,2" d="M424.973,-363.495C476.73,-360.283 546.726,-353.223 570,-338.052 607.402,-313.67 627.375,-260.38 634.23,-238.607"/>
<polygon fill="#9a32cd" stroke="#9a32cd" points="424.661,-360.007 414.884,-364.088 425.072,-366.995 424.661,-360.007"/>
<text text-anchor="middle" x="515" y="-364.052" font-family="Helvetica,sans-Serif" font-size="10.00"> myParser</text>
</g>
<!-- Node5 -->
<g id="node5" class="node"><title>Node5</title>
<g id="a_node5"><a xlink:href="../../d5/d4b/classtree_1_1_tree_builder.html" target="_top" xlink:title="tree.TreeBuilder">
<polygon fill="white" stroke="black" points="26,-344.552 26,-363.552 118,-363.552 118,-344.552 26,-344.552"/>
<text text-anchor="middle" x="72" y="-351.552" font-family="Helvetica,sans-Serif" font-size="10.00">tree.TreeBuilder</text>
</a>
</g>
</g>
<!-- Node5&#45;&gt;Node4 -->
<g id="edge5" class="edge"><title>Node5&#45;&gt;Node4</title>
<path fill="none" stroke="#9a32cd" stroke-dasharray="5,2" d="M128.467,-352.714C167.52,-352.169 221.003,-352.219 268,-355.052 282.75,-355.941 298.726,-357.541 313.294,-359.251"/>
<polygon fill="#9a32cd" stroke="#9a32cd" points="128.302,-349.216 118.358,-352.873 128.412,-356.215 128.302,-349.216"/>
<text text-anchor="middle" x="215" y="-358.052" font-family="Helvetica,sans-Serif" font-size="10.00"> myTreeBuilder</text>
</g>
<!-- Node6&#45;&gt;Node2 -->
<g id="edge20" class="edge"><title>Node6&#45;&gt;Node2</title>
<path fill="none" stroke="#9a32cd" stroke-dasharray="5,2" d="M658.709,-245.084C698.513,-277.464 787.458,-349.818 819.879,-376.191"/>
<polygon fill="#9a32cd" stroke="#9a32cd" points="660.749,-242.232 650.782,-238.636 656.331,-247.662 660.749,-242.232"/>
<text text-anchor="middle" x="730" y="-325.052" font-family="Helvetica,sans-Serif" font-size="10.00"> myModel</text>
</g>
<!-- Node6&#45;&gt;Node4 -->
<g id="edge6" class="edge"><title>Node6&#45;&gt;Node4</title>
<path fill="none" stroke="#9a32cd" stroke-dasharray="5,2" d="M625.702,-247.336C613.967,-264.716 593.981,-290.197 570,-304.052 526.753,-329.038 503.293,-302.145 460,-327.052 449.634,-333.015 452.257,-340.904 442,-347.052 433.733,-352.007 424.23,-355.672 414.785,-358.384"/>
<polygon fill="#9a32cd" stroke="#9a32cd" points="628.838,-248.934 631.346,-238.64 622.966,-245.123 628.838,-248.934"/>
<text text-anchor="middle" x="515" y="-330.052" font-family="Helvetica,sans-Serif" font-size="10.00"> myModel</text>
</g>
<!-- Node7 -->
<g id="node7" class="node"><title>Node7</title>
<polygon fill="white" stroke="#bfbfbf" points="334,-318.552 334,-337.552 394,-337.552 394,-318.552 334,-318.552"/>
<text text-anchor="middle" x="364" y="-325.552" font-family="Helvetica,sans-Serif" font-size="10.00">Observer</text>
</g>
<!-- Node7&#45;&gt;Node6 -->
<g id="edge7" class="edge"><title>Node7&#45;&gt;Node6</title>
<path fill="none" stroke="midnightblue" d="M404.085,-319.137C461.431,-305.997 562.438,-282.592 570,-279.052 592.346,-268.59 614.559,-249.974 626.962,-238.646"/>
<polygon fill="midnightblue" stroke="midnightblue" points="403.224,-315.744 394.257,-321.387 404.786,-322.567 403.224,-315.744"/>
</g>
<!-- Node8 -->
<g id="node8" class="node"><title>Node8</title>
<polygon fill="white" stroke="#bfbfbf" points="321,-280.552 321,-299.552 407,-299.552 407,-280.552 321,-280.552"/>
<text text-anchor="middle" x="364" y="-287.552" font-family="Helvetica,sans-Serif" font-size="10.00">StringProperty</text>
</g>
<!-- Node8&#45;&gt;Node6 -->
<g id="edge8" class="edge"><title>Node8&#45;&gt;Node6</title>
<path fill="none" stroke="#9a32cd" stroke-dasharray="5,2" d="M415.805,-278.181C430.093,-274.871 445.649,-271.294 460,-268.052 505.271,-257.822 557.134,-246.434 592.964,-238.618"/>
<polygon fill="#9a32cd" stroke="#9a32cd" points="414.61,-274.865 405.66,-280.535 416.192,-281.684 414.61,-274.865"/>
<text text-anchor="middle" x="515" y="-271.052" font-family="Helvetica,sans-Serif" font-size="10.00"> errorMsg</text>
</g>
<!-- Node9 -->
<g id="node9" class="node"><title>Node9</title>
<polygon fill="white" stroke="#bfbfbf" points="26.5,-215.552 26.5,-234.552 117.5,-234.552 117.5,-215.552 26.5,-215.552"/>
<text text-anchor="middle" x="72" y="-222.552" font-family="Helvetica,sans-Serif" font-size="10.00">DoubleProperty</text>
</g>
<!-- Node9&#45;&gt;Node6 -->
<g id="edge9" class="edge"><title>Node9&#45;&gt;Node6</title>
<path fill="none" stroke="#9a32cd" stroke-dasharray="5,2" d="M127.927,-225.441C237.781,-226.22 482.999,-227.959 587.882,-228.703"/>
<polygon fill="#9a32cd" stroke="#9a32cd" points="127.752,-221.94 117.728,-225.369 127.702,-228.94 127.752,-221.94"/>
<text text-anchor="middle" x="364" y="-253.052" font-family="Helvetica,sans-Serif" font-size="10.00"> penSize</text>
<text text-anchor="middle" x="364" y="-242.052" font-family="Helvetica,sans-Serif" font-size="10.00">penColor</text>
<text text-anchor="middle" x="364" y="-231.052" font-family="Helvetica,sans-Serif" font-size="10.00">background</text>
</g>
<!-- Node11 -->
<g id="node11" class="node"><title>Node11</title>
<g id="a_node11"><a xlink:href="../../d1/deb/classapplication_1_1_turtle_list.html" target="_top" xlink:title="application.TurtleList">
<polygon fill="white" stroke="black" points="307.5,-123.552 307.5,-142.552 420.5,-142.552 420.5,-123.552 307.5,-123.552"/>
<text text-anchor="middle" x="364" y="-130.552" font-family="Helvetica,sans-Serif" font-size="10.00">application.TurtleList</text>
</a>
</g>
</g>
<!-- Node9&#45;&gt;Node11 -->
<g id="edge12" class="edge"><title>Node9&#45;&gt;Node11</title>
<path fill="none" stroke="#9a32cd" stroke-dasharray="5,2" d="M123.438,-213.123C180.706,-199.547 266.472,-179.099 268,-178.052 279.593,-170.106 274.429,-160.029 286,-152.052 292.462,-147.597 299.863,-144.184 307.466,-141.57"/>
<polygon fill="#9a32cd" stroke="#9a32cd" points="122.379,-209.777 113.456,-215.489 123.993,-216.588 122.379,-209.777"/>
<text text-anchor="middle" x="215" y="-207.052" font-family="Helvetica,sans-Serif" font-size="10.00"> newID</text>
</g>
<!-- Node10 -->
<g id="node10" class="node"><title>Node10</title>
<polygon fill="white" stroke="#bfbfbf" points="286.5,-162.052 286.5,-192.052 441.5,-192.052 441.5,-162.052 286.5,-162.052"/>
<text text-anchor="start" x="294.5" y="-180.052" font-family="Helvetica,sans-Serif" font-size="10.00">Map&lt; String, tree.Command</text>
<text text-anchor="middle" x="364" y="-169.052" font-family="Helvetica,sans-Serif" font-size="10.00">Node &gt;</text>
</g>
<!-- Node10&#45;&gt;Node6 -->
<g id="edge10" class="edge"><title>Node10&#45;&gt;Node6</title>
<path fill="none" stroke="#9a32cd" stroke-dasharray="5,2" d="M452.067,-175.931C489.059,-177.472 532.271,-181.979 570,-193.052 589.766,-198.853 610.322,-210.952 623.365,-219.519"/>
<polygon fill="#9a32cd" stroke="#9a32cd" points="451.924,-172.424 441.808,-175.573 451.679,-179.42 451.924,-172.424"/>
<text text-anchor="middle" x="515" y="-207.052" font-family="Helvetica,sans-Serif" font-size="10.00"> myCommandHistory</text>
<text text-anchor="middle" x="515" y="-196.052" font-family="Helvetica,sans-Serif" font-size="10.00">myUserCommands</text>
</g>
<!-- Node11&#45;&gt;Node6 -->
<g id="edge11" class="edge"><title>Node11&#45;&gt;Node6</title>
<path fill="none" stroke="#9a32cd" stroke-dasharray="5,2" d="M430.978,-131.878C472.794,-133.608 526.919,-140.548 570,-162.052 597.082,-175.569 619.846,-204.268 630.508,-219.341"/>
<polygon fill="#9a32cd" stroke="#9a32cd" points="431.007,-128.378 420.899,-131.552 430.78,-135.374 431.007,-128.378"/>
<text text-anchor="middle" x="515" y="-165.052" font-family="Helvetica,sans-Serif" font-size="10.00"> myTurtleList</text>
</g>
<!-- Node12 -->
<g id="node12" class="node"><title>Node12</title>
<polygon fill="white" stroke="#bfbfbf" points="6.5,-161.052 6.5,-191.052 137.5,-191.052 137.5,-161.052 6.5,-161.052"/>
<text text-anchor="start" x="14.5" y="-179.052" font-family="Helvetica,sans-Serif" font-size="10.00">Map&lt; application.Turtle,</text>
<text text-anchor="middle" x="72" y="-168.052" font-family="Helvetica,sans-Serif" font-size="10.00"> Double &gt;</text>
</g>
<!-- Node12&#45;&gt;Node11 -->
<g id="edge13" class="edge"><title>Node12&#45;&gt;Node11</title>
<path fill="none" stroke="#9a32cd" stroke-dasharray="5,2" d="M147.795,-164.961C197.594,-157.577 261.955,-148.034 307.272,-141.315"/>
<polygon fill="#9a32cd" stroke="#9a32cd" points="147.099,-161.526 137.721,-166.455 148.126,-168.45 147.099,-161.526"/>
<text text-anchor="middle" x="215" y="-166.052" font-family="Helvetica,sans-Serif" font-size="10.00"> IDMap</text>
</g>
<!-- Node13 -->
<g id="node13" class="node"><title>Node13</title>
<polygon fill="white" stroke="#bfbfbf" points="0.5,-112.052 0.5,-142.052 143.5,-142.052 143.5,-112.052 0.5,-112.052"/>
<text text-anchor="start" x="8.5" y="-130.052" font-family="Helvetica,sans-Serif" font-size="10.00">Map&lt; Double, application.</text>
<text text-anchor="middle" x="72" y="-119.052" font-family="Helvetica,sans-Serif" font-size="10.00">Turtle &gt;</text>
</g>
<!-- Node13&#45;&gt;Node11 -->
<g id="edge14" class="edge"><title>Node13&#45;&gt;Node11</title>
<path fill="none" stroke="#9a32cd" stroke-dasharray="5,2" d="M153.798,-128.723C202.637,-129.734 263.653,-130.996 307.163,-131.896"/>
<polygon fill="#9a32cd" stroke="#9a32cd" points="153.641,-125.219 143.571,-128.512 153.497,-132.218 153.641,-125.219"/>
<text text-anchor="middle" x="215" y="-134.052" font-family="Helvetica,sans-Serif" font-size="10.00"> TurtleMap</text>
</g>
<!-- Node14 -->
<g id="node14" class="node"><title>Node14</title>
<polygon fill="white" stroke="#bfbfbf" points="4,-73.5516 4,-92.5516 140,-92.5516 140,-73.5516 4,-73.5516"/>
<text text-anchor="middle" x="72" y="-80.5516" font-family="Helvetica,sans-Serif" font-size="10.00">List&lt; application.Turtle &gt;</text>
</g>
<!-- Node14&#45;&gt;Node11 -->
<g id="edge15" class="edge"><title>Node14&#45;&gt;Node11</title>
<path fill="none" stroke="#9a32cd" stroke-dasharray="5,2" d="M147.274,-94.1494C183.71,-99.7744 228.215,-106.914 268,-114.052 284.059,-116.933 301.587,-120.358 317.166,-123.502"/>
<polygon fill="#9a32cd" stroke="#9a32cd" points="147.637,-90.6642 137.222,-92.6043 146.574,-97.583 147.637,-90.6642"/>
<text text-anchor="middle" x="215" y="-117.052" font-family="Helvetica,sans-Serif" font-size="10.00"> myActiveList</text>
</g>
<!-- Node15 -->
<g id="node15" class="node"><title>Node15</title>
<polygon fill="white" stroke="#bfbfbf" points="316,-85.5516 316,-104.552 412,-104.552 412,-85.5516 316,-85.5516"/>
<text text-anchor="middle" x="364" y="-92.5516" font-family="Helvetica,sans-Serif" font-size="10.00">BooleanProperty</text>
</g>
<!-- Node15&#45;&gt;Node6 -->
<g id="edge16" class="edge"><title>Node15&#45;&gt;Node6</title>
<path fill="none" stroke="#9a32cd" stroke-dasharray="5,2" d="M422.244,-85.0803C466.057,-80.5441 526.205,-81.2953 570,-109.052 611.114,-135.108 629.248,-195.838 634.919,-219.435"/>
<polygon fill="#9a32cd" stroke="#9a32cd" points="421.569,-81.635 412.038,-86.2621 422.374,-88.5885 421.569,-81.635"/>
<text text-anchor="middle" x="515" y="-123.052" font-family="Helvetica,sans-Serif" font-size="10.00"> clearStamp</text>
<text text-anchor="middle" x="515" y="-112.052" font-family="Helvetica,sans-Serif" font-size="10.00">clearScreen</text>
</g>
<!-- Node16 -->
<g id="node16" class="node"><title>Node16</title>
<polygon fill="white" stroke="#bfbfbf" points="290.5,-47.5516 290.5,-66.5516 437.5,-66.5516 437.5,-47.5516 290.5,-47.5516"/>
<text text-anchor="middle" x="364" y="-54.5516" font-family="Helvetica,sans-Serif" font-size="10.00">ObjectProperty&lt; double[]&gt;</text>
</g>
<!-- Node16&#45;&gt;Node6 -->
<g id="edge17" class="edge"><title>Node16&#45;&gt;Node6</title>
<path fill="none" stroke="#9a32cd" stroke-dasharray="5,2" d="M415.345,-45.8167C460.088,-38.8346 525.169,-36.3815 570,-68.0516 622.175,-104.909 633.858,-190.383 636.354,-219.293"/>
<polygon fill="#9a32cd" stroke="#9a32cd" points="414.556,-42.4002 405.279,-47.5167 415.722,-49.3025 414.556,-42.4002"/>
<text text-anchor="middle" x="515" y="-71.0516" font-family="Helvetica,sans-Serif" font-size="10.00"> pallet</text>
</g>
<!-- Node17 -->
<g id="node17" class="node"><title>Node17</title>
<polygon fill="white" stroke="#bfbfbf" points="300,-9.55156 300,-28.5516 428,-28.5516 428,-9.55156 300,-9.55156"/>
<text text-anchor="middle" x="364" y="-16.5516" font-family="Helvetica,sans-Serif" font-size="10.00">Map&lt; String, Double &gt;</text>
</g>
<!-- Node17&#45;&gt;Node6 -->
<g id="edge18" class="edge"><title>Node17&#45;&gt;Node6</title>
<path fill="none" stroke="#9a32cd" stroke-dasharray="5,2" d="M409.163,-7.4291C454.243,1.6364 523.951,7.57681 570,-27.0516 633.786,-75.0173 637.631,-185.847 637.276,-219.311"/>
<polygon fill="#9a32cd" stroke="#9a32cd" points="408.425,-4.00784 399.379,-9.5234 409.89,-10.8528 408.425,-4.00784"/>
<text text-anchor="middle" x="515" y="-30.0516" font-family="Helvetica,sans-Serif" font-size="10.00"> variableMap</text>
</g>
</g>
</svg>
