<?xml version="1.0" encoding="UTF-8" standalone="no"?>
<!DOCTYPE svg PUBLIC "-//W3C//DTD SVG 1.1//EN"
 "http://www.w3.org/Graphics/SVG/1.1/DTD/svg11.dtd">
<!-- Generated by graphviz version 2.36.0 (20140111.2315)
 -->
<!-- Title: commands.SetPallet.function Pages: 1 -->
<svg width="366pt" height="126pt"
 viewBox="0.00 0.00 366.00 126.00" xmlns="http://www.w3.org/2000/svg" xmlns:xlink="http://www.w3.org/1999/xlink">
<g id="graph0" class="graph" transform="scale(1 1) rotate(0) translate(4 122)">
<title>commands.SetPallet.function</title>
<polygon fill="white" stroke="none" points="-4,4 -4,-122 362,-122 362,4 -4,4"/>
<!-- Node1 -->
<g id="node1" class="node"><title>Node1</title>
<polygon fill="#bfbfbf" stroke="black" points="0.5,-54.5 0.5,-73.5 157.5,-73.5 157.5,-54.5 0.5,-54.5"/>
<text text-anchor="middle" x="79" y="-61.5" font-family="Helvetica,sans-Serif" font-size="10.00">commands.SetPallet.function</text>
</g>
<!-- Node2 -->
<g id="node2" class="node"><title>Node2</title>
<g id="a_node2"><a xlink:href="../../d7/d99/classtree_1_1_command_node.html#ae60b1b2f861235627eb90a0d1fa25814" target="_top" xlink:title="tree.CommandNode.getModel">
<polygon fill="white" stroke="black" points="195,-98.5 195,-117.5 357,-117.5 357,-98.5 195,-98.5"/>
<text text-anchor="middle" x="276" y="-105.5" font-family="Helvetica,sans-Serif" font-size="10.00">tree.CommandNode.getModel</text>
</a>
</g>
</g>
<!-- Node1&#45;&gt;Node2 -->
<g id="edge1" class="edge"><title>Node1&#45;&gt;Node2</title>
<path fill="none" stroke="midnightblue" d="M122.312,-73.5473C151.826,-80.2069 191.4,-89.1363 222.863,-96.2358"/>
<polygon fill="midnightblue" stroke="midnightblue" points="222.245,-99.6843 232.77,-98.4713 223.786,-92.856 222.245,-99.6843"/>
</g>
<!-- Node3 -->
<g id="node3" class="node"><title>Node3</title>
<g id="a_node3"><a xlink:href="../../dd/d17/classapplication_1_1_model.html#ac9d2f4ee1bfafa90b824428344eef650" target="_top" xlink:title="application.Model.pallet\lProperty">
<polygon fill="white" stroke="black" points="211.5,-49 211.5,-79 340.5,-79 340.5,-49 211.5,-49"/>
<text text-anchor="start" x="219.5" y="-67" font-family="Helvetica,sans-Serif" font-size="10.00">application.Model.pallet</text>
<text text-anchor="middle" x="276" y="-56" font-family="Helvetica,sans-Serif" font-size="10.00">Property</text>
</a>
</g>
</g>
<!-- Node1&#45;&gt;Node3 -->
<g id="edge2" class="edge"><title>Node1&#45;&gt;Node3</title>
<path fill="none" stroke="midnightblue" d="M157.629,-64C171.988,-64 186.946,-64 201.187,-64"/>
<polygon fill="midnightblue" stroke="midnightblue" points="201.411,-67.5001 211.411,-64 201.411,-60.5001 201.411,-67.5001"/>
</g>
<!-- Node4 -->
<g id="node4" class="node"><title>Node4</title>
<g id="a_node4"><a xlink:href="../../d7/d99/classtree_1_1_command_node.html#a9f3dd4c2d2489cbbbc7e09e252a8c9a3" target="_top" xlink:title="tree.CommandNode.putObject\lInList">
<polygon fill="white" stroke="black" points="194,-0 194,-30 358,-30 358,-0 194,-0"/>
<text text-anchor="start" x="202" y="-18" font-family="Helvetica,sans-Serif" font-size="10.00">tree.CommandNode.putObject</text>
<text text-anchor="middle" x="276" y="-7" font-family="Helvetica,sans-Serif" font-size="10.00">InList</text>
</a>
</g>
</g>
<!-- Node1&#45;&gt;Node4 -->
<g id="edge3" class="edge"><title>Node1&#45;&gt;Node4</title>
<path fill="none" stroke="midnightblue" d="M118.061,-54.436C142.856,-48.2053 175.945,-39.8906 205.347,-32.5026"/>
<polygon fill="midnightblue" stroke="midnightblue" points="206.314,-35.8686 215.159,-30.037 204.608,-29.0796 206.314,-35.8686"/>
</g>
</g>
</svg>
