<?xml version="1.0" encoding="UTF-8" standalone="no"?>
<!DOCTYPE svg PUBLIC "-//W3C//DTD SVG 1.1//EN"
 "http://www.w3.org/Graphics/SVG/1.1/DTD/svg11.dtd">
<!-- Generated by graphviz version 2.36.0 (20140111.2315)
 -->
<!-- Title: commands.Backward.function Pages: 1 -->
<svg width="776pt" height="408pt"
 viewBox="0.00 0.00 776.00 408.00" xmlns="http://www.w3.org/2000/svg" xmlns:xlink="http://www.w3.org/1999/xlink">
<g id="graph0" class="graph" transform="scale(1 1) rotate(0) translate(4 404)">
<title>commands.Backward.function</title>
<polygon fill="white" stroke="none" points="-4,4 -4,-404 772,-404 772,4 -4,4"/>
<!-- Node1 -->
<g id="node1" class="node"><title>Node1</title>
<polygon fill="#bfbfbf" stroke="black" points="0.5,-77.5 0.5,-96.5 161.5,-96.5 161.5,-77.5 0.5,-77.5"/>
<text text-anchor="middle" x="81" y="-84.5" font-family="Helvetica,sans-Serif" font-size="10.00">commands.Backward.function</text>
</g>
<!-- Node2 -->
<g id="node2" class="node"><title>Node2</title>
<g id="a_node2"><a xlink:href="../../d2/dc9/classcommands_1_1_forward.html#ad6aede47835c759954a874b7793cff06" target="_top" xlink:title="commands.Forward.function">
<polygon fill="white" stroke="black" points="198,-115.5 198,-134.5 350,-134.5 350,-115.5 198,-115.5"/>
<text text-anchor="middle" x="274" y="-122.5" font-family="Helvetica,sans-Serif" font-size="10.00">commands.Forward.function</text>
</a>
</g>
</g>
<!-- Node1&#45;&gt;Node2 -->
<g id="edge1" class="edge"><title>Node1&#45;&gt;Node2</title>
<path fill="none" stroke="midnightblue" d="M130.197,-96.589C155.97,-101.716 187.891,-108.067 215.012,-113.463"/>
<polygon fill="midnightblue" stroke="midnightblue" points="214.658,-116.961 225.149,-115.48 216.024,-110.096 214.658,-116.961"/>
</g>
<!-- Node4 -->
<g id="node4" class="node"><title>Node4</title>
<g id="a_node4"><a xlink:href="../../d7/d99/classtree_1_1_command_node.html#ae60b1b2f861235627eb90a0d1fa25814" target="_top" xlink:title="tree.CommandNode.getModel">
<polygon fill="white" stroke="black" points="596,-0.5 596,-19.5 758,-19.5 758,-0.5 596,-0.5"/>
<text text-anchor="middle" x="677" y="-7.5" font-family="Helvetica,sans-Serif" font-size="10.00">tree.CommandNode.getModel</text>
</a>
</g>
</g>
<!-- Node1&#45;&gt;Node4 -->
<g id="edge15" class="edge"><title>Node1&#45;&gt;Node4</title>
<path fill="none" stroke="midnightblue" d="M155.432,-77.4811C266.274,-63.1127 475.723,-35.9618 592.317,-20.8478"/>
<polygon fill="midnightblue" stroke="midnightblue" points="592.803,-24.3142 602.27,-19.5576 591.903,-17.3722 592.803,-24.3142"/>
</g>
<!-- Node15 -->
<g id="node15" class="node"><title>Node15</title>
<g id="a_node15"><a xlink:href="../../d7/d99/classtree_1_1_command_node.html#a9f3dd4c2d2489cbbbc7e09e252a8c9a3" target="_top" xlink:title="tree.CommandNode.putObject\lInList">
<polygon fill="white" stroke="black" points="386,-91 386,-121 550,-121 550,-91 386,-91"/>
<text text-anchor="start" x="394" y="-109" font-family="Helvetica,sans-Serif" font-size="10.00">tree.CommandNode.putObject</text>
<text text-anchor="middle" x="468" y="-98" font-family="Helvetica,sans-Serif" font-size="10.00">InList</text>
</a>
</g>
</g>
<!-- Node1&#45;&gt;Node15 -->
<g id="edge16" class="edge"><title>Node1&#45;&gt;Node15</title>
<path fill="none" stroke="midnightblue" d="M161.772,-90.9368C223.97,-94.0063 310.409,-98.2721 375.429,-101.481"/>
<polygon fill="midnightblue" stroke="midnightblue" points="375.513,-104.989 385.673,-101.986 375.858,-97.9977 375.513,-104.989"/>
</g>
<!-- Node3 -->
<g id="node3" class="node"><title>Node3</title>
<g id="a_node3"><a xlink:href="../../d2/dc9/classcommands_1_1_forward.html#a847dfb7681940af22b76944f2ece7342" target="_top" xlink:title="commands.Forward.advance\lTurtle">
<polygon fill="white" stroke="black" points="390.5,-166 390.5,-196 545.5,-196 545.5,-166 390.5,-166"/>
<text text-anchor="start" x="398.5" y="-184" font-family="Helvetica,sans-Serif" font-size="10.00">commands.Forward.advance</text>
<text text-anchor="middle" x="468" y="-173" font-family="Helvetica,sans-Serif" font-size="10.00">Turtle</text>
</a>
</g>
</g>
<!-- Node2&#45;&gt;Node3 -->
<g id="edge2" class="edge"><title>Node2&#45;&gt;Node3</title>
<path fill="none" stroke="midnightblue" d="M308.006,-134.627C334.727,-142.42 373.105,-153.614 405.461,-163.051"/>
<polygon fill="midnightblue" stroke="midnightblue" points="404.71,-166.478 415.29,-165.918 406.67,-159.758 404.71,-166.478"/>
</g>
<!-- Node2&#45;&gt;Node15 -->
<g id="edge14" class="edge"><title>Node2&#45;&gt;Node15</title>
<path fill="none" stroke="midnightblue" d="M350.057,-117.572C358.524,-116.735 367.219,-115.874 375.862,-115.019"/>
<polygon fill="midnightblue" stroke="midnightblue" points="376.359,-118.487 385.966,-114.019 375.67,-111.521 376.359,-118.487"/>
</g>
<!-- Node3&#45;&gt;Node4 -->
<g id="edge3" class="edge"><title>Node3&#45;&gt;Node4</title>
<path fill="none" stroke="midnightblue" d="M503.546,-165.857C519.569,-157.332 537.737,-145.301 550,-130 579.803,-92.8142 550.117,-60.3595 586,-29 587.759,-27.4631 589.61,-26.0398 591.538,-24.7221"/>
<polygon fill="midnightblue" stroke="midnightblue" points="593.514,-27.623 600.43,-19.5967 590.018,-21.5584 593.514,-27.623"/>
</g>
<!-- Node5 -->
<g id="node5" class="node"><title>Node5</title>
<g id="a_node5"><a xlink:href="../../dd/d17/classapplication_1_1_model.html#a3d3cc4e125eb703c34005f184e7eadba" target="_top" xlink:title="application.Model.getMaxX">
<polygon fill="white" stroke="black" points="605,-380.5 605,-399.5 749,-399.5 749,-380.5 605,-380.5"/>
<text text-anchor="middle" x="677" y="-387.5" font-family="Helvetica,sans-Serif" font-size="10.00">application.Model.getMaxX</text>
</a>
</g>
</g>
<!-- Node3&#45;&gt;Node5 -->
<g id="edge4" class="edge"><title>Node3&#45;&gt;Node5</title>
<path fill="none" stroke="midnightblue" d="M473.7,-196.238C485.806,-232.783 521.699,-325.728 586,-371 589.052,-373.149 592.297,-375.064 595.675,-376.77"/>
<polygon fill="midnightblue" stroke="midnightblue" points="594.319,-379.997 604.882,-380.813 597.134,-373.588 594.319,-379.997"/>
</g>
<!-- Node6 -->
<g id="node6" class="node"><title>Node6</title>
<g id="a_node6"><a xlink:href="../../dd/d17/classapplication_1_1_model.html#a5a8cc58b4a700f02a1f6c7582bea61e6" target="_top" xlink:title="application.Model.getMaxY">
<polygon fill="white" stroke="black" points="605.5,-342.5 605.5,-361.5 748.5,-361.5 748.5,-342.5 605.5,-342.5"/>
<text text-anchor="middle" x="677" y="-349.5" font-family="Helvetica,sans-Serif" font-size="10.00">application.Model.getMaxY</text>
</a>
</g>
</g>
<!-- Node3&#45;&gt;Node6 -->
<g id="edge5" class="edge"><title>Node3&#45;&gt;Node6</title>
<path fill="none" stroke="midnightblue" d="M476.163,-196.408C491.518,-227.612 530.749,-298.251 586,-333 589.232,-335.032 592.645,-336.851 596.177,-338.478"/>
<polygon fill="midnightblue" stroke="midnightblue" points="595.18,-341.85 605.763,-342.352 597.803,-335.36 595.18,-341.85"/>
</g>
<!-- Node7 -->
<g id="node7" class="node"><title>Node7</title>
<g id="a_node7"><a xlink:href="../../d1/d31/classapplication_1_1_turtle.html#a060718d9e233e3c4ff1920f51db78206" target="_top" xlink:title="application.Turtle.getHeading">
<polygon fill="white" stroke="black" points="599.5,-304.5 599.5,-323.5 754.5,-323.5 754.5,-304.5 599.5,-304.5"/>
<text text-anchor="middle" x="677" y="-311.5" font-family="Helvetica,sans-Serif" font-size="10.00">application.Turtle.getHeading</text>
</a>
</g>
</g>
<!-- Node3&#45;&gt;Node7 -->
<g id="edge6" class="edge"><title>Node3&#45;&gt;Node7</title>
<path fill="none" stroke="midnightblue" d="M480.021,-196.338C498.786,-221.238 539.463,-270.164 586,-295 590.464,-297.383 595.202,-299.466 600.078,-301.289"/>
<polygon fill="midnightblue" stroke="midnightblue" points="598.994,-304.617 609.588,-304.482 601.222,-297.981 598.994,-304.617"/>
</g>
<!-- Node8 -->
<g id="node8" class="node"><title>Node8</title>
<g id="a_node8"><a xlink:href="../../d1/d31/classapplication_1_1_turtle.html#a80e3fa65ab3f13379b31618aac18a08e" target="_top" xlink:title="application.Turtle.getX">
<polygon fill="white" stroke="black" points="616,-266.5 616,-285.5 738,-285.5 738,-266.5 616,-266.5"/>
<text text-anchor="middle" x="677" y="-273.5" font-family="Helvetica,sans-Serif" font-size="10.00">application.Turtle.getX</text>
</a>
</g>
</g>
<!-- Node3&#45;&gt;Node8 -->
<g id="edge7" class="edge"><title>Node3&#45;&gt;Node8</title>
<path fill="none" stroke="midnightblue" d="M487.64,-196.256C509.759,-213.58 548.395,-241.451 586,-257 592.247,-259.583 598.888,-261.831 605.623,-263.784"/>
<polygon fill="midnightblue" stroke="midnightblue" points="604.957,-267.229 615.522,-266.44 606.771,-260.469 604.957,-267.229"/>
</g>
<!-- Node9 -->
<g id="node9" class="node"><title>Node9</title>
<g id="a_node9"><a xlink:href="../../d1/d31/classapplication_1_1_turtle.html#a50b8c7a122871445c4c7eebb8de97e63" target="_top" xlink:title="application.Turtle.getY">
<polygon fill="white" stroke="black" points="616.5,-228.5 616.5,-247.5 737.5,-247.5 737.5,-228.5 616.5,-228.5"/>
<text text-anchor="middle" x="677" y="-235.5" font-family="Helvetica,sans-Serif" font-size="10.00">application.Turtle.getY</text>
</a>
</g>
</g>
<!-- Node3&#45;&gt;Node9 -->
<g id="edge8" class="edge"><title>Node3&#45;&gt;Node9</title>
<path fill="none" stroke="midnightblue" d="M511.739,-196.086C533.757,-203.549 561.137,-212.358 586,-219 595.72,-221.597 606.106,-224.066 616.243,-226.313"/>
<polygon fill="midnightblue" stroke="midnightblue" points="615.747,-229.787 626.262,-228.483 617.229,-222.946 615.747,-229.787"/>
</g>
<!-- Node10 -->
<g id="node10" class="node"><title>Node10</title>
<g id="a_node10"><a xlink:href="../../d1/d31/classapplication_1_1_turtle.html#a652b61c378ef935292ba88f128d2ca9b" target="_top" xlink:title="application.Turtle.isPenDown">
<polygon fill="white" stroke="black" points="601,-190.5 601,-209.5 753,-209.5 753,-190.5 601,-190.5"/>
<text text-anchor="middle" x="677" y="-197.5" font-family="Helvetica,sans-Serif" font-size="10.00">application.Turtle.isPenDown</text>
</a>
</g>
</g>
<!-- Node3&#45;&gt;Node10 -->
<g id="edge9" class="edge"><title>Node3&#45;&gt;Node10</title>
<path fill="none" stroke="midnightblue" d="M545.785,-188.048C560.369,-189.386 575.712,-190.795 590.545,-192.156"/>
<polygon fill="midnightblue" stroke="midnightblue" points="590.439,-195.661 600.717,-193.09 591.079,-188.69 590.439,-195.661"/>
</g>
<!-- Node11 -->
<g id="node11" class="node"><title>Node11</title>
<g id="a_node11"><a xlink:href="../../d2/dc9/classcommands_1_1_forward.html#abacebfa35429a541d35211f1b2c6511b" target="_top" xlink:title="commands.Forward.outOfXBounds">
<polygon fill="white" stroke="black" points="586,-152.5 586,-171.5 768,-171.5 768,-152.5 586,-152.5"/>
<text text-anchor="middle" x="677" y="-159.5" font-family="Helvetica,sans-Serif" font-size="10.00">commands.Forward.outOfXBounds</text>
</a>
</g>
</g>
<!-- Node3&#45;&gt;Node11 -->
<g id="edge10" class="edge"><title>Node3&#45;&gt;Node11</title>
<path fill="none" stroke="midnightblue" d="M545.785,-173.952C555.536,-173.057 565.627,-172.131 575.678,-171.208"/>
<polygon fill="midnightblue" stroke="midnightblue" points="576.063,-174.688 585.701,-170.288 575.423,-167.717 576.063,-174.688"/>
</g>
<!-- Node12 -->
<g id="node12" class="node"><title>Node12</title>
<g id="a_node12"><a xlink:href="../../d2/dc9/classcommands_1_1_forward.html#a400ab6b6d5cf943c1995f13951fb91af" target="_top" xlink:title="commands.Forward.outOfYBounds">
<polygon fill="white" stroke="black" points="586,-114.5 586,-133.5 768,-133.5 768,-114.5 586,-114.5"/>
<text text-anchor="middle" x="677" y="-121.5" font-family="Helvetica,sans-Serif" font-size="10.00">commands.Forward.outOfYBounds</text>
</a>
</g>
</g>
<!-- Node3&#45;&gt;Node12 -->
<g id="edge11" class="edge"><title>Node3&#45;&gt;Node12</title>
<path fill="none" stroke="midnightblue" d="M511.739,-165.914C533.757,-158.451 561.137,-149.642 586,-143 595.72,-140.403 606.106,-137.934 616.243,-135.687"/>
<polygon fill="midnightblue" stroke="midnightblue" points="617.229,-139.054 626.262,-133.517 615.747,-132.213 617.229,-139.054"/>
</g>
<!-- Node13 -->
<g id="node13" class="node"><title>Node13</title>
<g id="a_node13"><a xlink:href="../../d1/d31/classapplication_1_1_turtle.html#aee4406eddbfc4ed9316cd6da1f5bc7af" target="_top" xlink:title="application.Turtle.setLocation">
<polygon fill="white" stroke="black" points="599.5,-76.5 599.5,-95.5 754.5,-95.5 754.5,-76.5 599.5,-76.5"/>
<text text-anchor="middle" x="677" y="-83.5" font-family="Helvetica,sans-Serif" font-size="10.00">application.Turtle.setLocation</text>
</a>
</g>
</g>
<!-- Node3&#45;&gt;Node13 -->
<g id="edge12" class="edge"><title>Node3&#45;&gt;Node13</title>
<path fill="none" stroke="midnightblue" d="M493.641,-165.885C509.788,-155.884 531.29,-142.378 550,-130 566.246,-119.252 568.116,-112.72 586,-105 591.869,-102.466 598.104,-100.26 604.445,-98.3418"/>
<polygon fill="midnightblue" stroke="midnightblue" points="605.765,-101.608 614.462,-95.5574 603.89,-94.8635 605.765,-101.608"/>
</g>
<!-- Node14 -->
<g id="node14" class="node"><title>Node14</title>
<g id="a_node14"><a xlink:href="../../d1/d31/classapplication_1_1_turtle.html#a6674f61063cd54e15d663f65a95de31c" target="_top" xlink:title="application.Turtle.setPenDown">
<polygon fill="white" stroke="black" points="597.5,-38.5 597.5,-57.5 756.5,-57.5 756.5,-38.5 597.5,-38.5"/>
<text text-anchor="middle" x="677" y="-45.5" font-family="Helvetica,sans-Serif" font-size="10.00">application.Turtle.setPenDown</text>
</a>
</g>
</g>
<!-- Node3&#45;&gt;Node14 -->
<g id="edge13" class="edge"><title>Node3&#45;&gt;Node14</title>
<path fill="none" stroke="midnightblue" d="M500.422,-165.958C516.608,-157.109 535.859,-144.759 550,-130 572.311,-106.714 559.939,-85.9955 586,-67 588.563,-65.132 591.27,-63.4394 594.083,-61.9063"/>
<polygon fill="midnightblue" stroke="midnightblue" points="595.822,-64.9562 603.382,-57.5334 592.843,-58.6216 595.822,-64.9562"/>
</g>
</g>
</svg>
