<?xml version="1.0" encoding="UTF-8" standalone="no"?>
<!DOCTYPE svg PUBLIC "-//W3C//DTD SVG 1.1//EN"
 "http://www.w3.org/Graphics/SVG/1.1/DTD/svg11.dtd">
<!-- Generated by graphviz version 2.36.0 (20140111.2315)
 -->
<!-- Title: tree.TreeBuilder.addChildren Pages: 1 -->
<svg width="370pt" height="66pt"
 viewBox="0.00 0.00 370.00 66.00" xmlns="http://www.w3.org/2000/svg" xmlns:xlink="http://www.w3.org/1999/xlink">
<g id="graph0" class="graph" transform="scale(1 1) rotate(0) translate(4 62)">
<title>tree.TreeBuilder.addChildren</title>
<polygon fill="white" stroke="none" points="-4,4 -4,-62 366,-62 366,4 -4,4"/>
<!-- Node1 -->
<g id="node1" class="node"><title>Node1</title>
<polygon fill="#bfbfbf" stroke="black" points="0.5,-19.5 0.5,-38.5 151.5,-38.5 151.5,-19.5 0.5,-19.5"/>
<text text-anchor="middle" x="76" y="-26.5" font-family="Helvetica,sans-Serif" font-size="10.00">tree.TreeBuilder.addChildren</text>
</g>
<!-- Node2 -->
<g id="node2" class="node"><title>Node2</title>
<g id="a_node2"><a xlink:href="../../d7/d99/classtree_1_1_command_node.html#ae5d7b13f887006572eb9bbaa3f0e9d4e" target="_top" xlink:title="tree.CommandNode.addChild">
<polygon fill="white" stroke="black" points="195.5,-38.5 195.5,-57.5 354.5,-57.5 354.5,-38.5 195.5,-38.5"/>
<text text-anchor="middle" x="275" y="-45.5" font-family="Helvetica,sans-Serif" font-size="10.00">tree.CommandNode.addChild</text>
</a>
</g>
</g>
<!-- Node1&#45;&gt;Node2 -->
<g id="edge1" class="edge"><title>Node1&#45;&gt;Node2</title>
<path fill="none" stroke="midnightblue" d="M151.758,-36.2102C162.675,-37.2631 174.006,-38.3559 185.17,-39.4326"/>
<polygon fill="midnightblue" stroke="midnightblue" points="185.068,-42.939 195.358,-40.4152 185.74,-35.9713 185.068,-42.939"/>
</g>
<!-- Node3 -->
<g id="node3" class="node"><title>Node3</title>
<g id="a_node3"><a xlink:href="../../d7/d99/classtree_1_1_command_node.html#a7a383438fa8edd362dddfc785615edd2" target="_top" xlink:title="tree.CommandNode.getArgNum">
<polygon fill="white" stroke="black" points="188.5,-0.5 188.5,-19.5 361.5,-19.5 361.5,-0.5 188.5,-0.5"/>
<text text-anchor="middle" x="275" y="-7.5" font-family="Helvetica,sans-Serif" font-size="10.00">tree.CommandNode.getArgNum</text>
</a>
</g>
</g>
<!-- Node1&#45;&gt;Node3 -->
<g id="edge2" class="edge"><title>Node1&#45;&gt;Node3</title>
<path fill="none" stroke="midnightblue" d="M151.758,-21.7898C160.457,-20.9508 169.419,-20.0865 178.35,-19.2251"/>
<polygon fill="midnightblue" stroke="midnightblue" points="178.787,-22.6994 188.404,-18.2554 178.114,-15.7317 178.787,-22.6994"/>
</g>
</g>
</svg>
