<?xml version="1.0" encoding="UTF-8" standalone="no"?>
<!DOCTYPE svg PUBLIC "-//W3C//DTD SVG 1.1//EN"
 "http://www.w3.org/Graphics/SVG/1.1/DTD/svg11.dtd">
<!-- Generated by graphviz version 2.36.0 (20140111.2315)
 -->
<!-- Title: view.TurtleState.initiateState Pages: 1 -->
<svg width="664pt" height="167pt"
 viewBox="0.00 0.00 664.00 167.00" xmlns="http://www.w3.org/2000/svg" xmlns:xlink="http://www.w3.org/1999/xlink">
<g id="graph0" class="graph" transform="scale(1 1) rotate(0) translate(4 163)">
<title>view.TurtleState.initiateState</title>
<polygon fill="white" stroke="none" points="-4,4 -4,-163 660,-163 660,4 -4,4"/>
<!-- Node1 -->
<g id="node1" class="node"><title>Node1</title>
<polygon fill="#bfbfbf" stroke="black" points="0,-64 0,-94 126,-94 126,-64 0,-64"/>
<text text-anchor="start" x="8" y="-82" font-family="Helvetica,sans-Serif" font-size="10.00">view.TurtleState.initiate</text>
<text text-anchor="middle" x="63" y="-71" font-family="Helvetica,sans-Serif" font-size="10.00">State</text>
</g>
<!-- Node2 -->
<g id="node2" class="node"><title>Node2</title>
<g id="a_node2"><a xlink:href="../../d4/d54/classview_1_1_turtle_state.html#a3e4441bdb52aa2698734b68d1c2f851a" target="_top" xlink:title="view.TurtleState.attrib">
<polygon fill="white" stroke="black" points="168.5,-91.5 168.5,-110.5 287.5,-110.5 287.5,-91.5 168.5,-91.5"/>
<text text-anchor="middle" x="228" y="-98.5" font-family="Helvetica,sans-Serif" font-size="10.00">view.TurtleState.attrib</text>
</a>
</g>
</g>
<!-- Node1&#45;&gt;Node2 -->
<g id="edge1" class="edge"><title>Node1&#45;&gt;Node2</title>
<path fill="none" stroke="midnightblue" d="M126.088,-87.38C136.588,-88.7971 147.544,-90.2759 158.203,-91.7145"/>
<polygon fill="midnightblue" stroke="midnightblue" points="157.928,-95.209 168.306,-93.0781 158.864,-88.2719 157.928,-95.209"/>
</g>
<!-- Node5 -->
<g id="node5" class="node"><title>Node5</title>
<g id="a_node5"><a xlink:href="../../d4/d54/classview_1_1_turtle_state.html#abdea116a1a22735abf21aae594bf68ef" target="_top" xlink:title="view.TurtleState.StateOf\lTurtle">
<polygon fill="white" stroke="black" points="162.5,-42 162.5,-72 293.5,-72 293.5,-42 162.5,-42"/>
<text text-anchor="start" x="170.5" y="-60" font-family="Helvetica,sans-Serif" font-size="10.00">view.TurtleState.StateOf</text>
<text text-anchor="middle" x="228" y="-49" font-family="Helvetica,sans-Serif" font-size="10.00">Turtle</text>
</a>
</g>
</g>
<!-- Node1&#45;&gt;Node5 -->
<g id="edge4" class="edge"><title>Node1&#45;&gt;Node5</title>
<path fill="none" stroke="midnightblue" d="M126.088,-70.62C134.624,-69.4679 143.461,-68.2751 152.196,-67.0963"/>
<polygon fill="midnightblue" stroke="midnightblue" points="152.935,-70.5283 162.377,-65.7221 151.999,-63.5912 152.935,-70.5283"/>
</g>
<!-- Node3 -->
<g id="node3" class="node"><title>Node3</title>
<g id="a_node3"><a xlink:href="../../d1/deb/classapplication_1_1_turtle_list.html#a87d2c5ddc9378480e8b4bfa5e95b5629" target="_top" xlink:title="application.TurtleList.get\lActiveTurtles">
<polygon fill="white" stroke="black" points="345,-129 345,-159 477,-159 477,-129 345,-129"/>
<text text-anchor="start" x="353" y="-147" font-family="Helvetica,sans-Serif" font-size="10.00">application.TurtleList.get</text>
<text text-anchor="middle" x="411" y="-136" font-family="Helvetica,sans-Serif" font-size="10.00">ActiveTurtles</text>
</a>
</g>
</g>
<!-- Node2&#45;&gt;Node3 -->
<g id="edge2" class="edge"><title>Node2&#45;&gt;Node3</title>
<path fill="none" stroke="midnightblue" d="M269.17,-110.543C289.127,-115.284 313.873,-121.163 337.027,-126.664"/>
<polygon fill="midnightblue" stroke="midnightblue" points="336.296,-130.087 346.834,-128.994 337.914,-123.277 336.296,-130.087"/>
</g>
<!-- Node4 -->
<g id="node4" class="node"><title>Node4</title>
<g id="a_node4"><a xlink:href="../../dd/d17/classapplication_1_1_model.html#aa7ed87b9bf32630ff3c5b771feb6a67a" target="_top" xlink:title="application.Model.getTurtleList">
<polygon fill="white" stroke="black" points="330.5,-90.5 330.5,-109.5 491.5,-109.5 491.5,-90.5 330.5,-90.5"/>
<text text-anchor="middle" x="411" y="-97.5" font-family="Helvetica,sans-Serif" font-size="10.00">application.Model.getTurtleList</text>
</a>
</g>
</g>
<!-- Node2&#45;&gt;Node4 -->
<g id="edge3" class="edge"><title>Node2&#45;&gt;Node4</title>
<path fill="none" stroke="midnightblue" d="M287.766,-100.675C298.198,-100.618 309.274,-100.556 320.334,-100.495"/>
<polygon fill="midnightblue" stroke="midnightblue" points="320.486,-103.995 330.467,-100.439 320.448,-96.9948 320.486,-103.995"/>
</g>
<!-- Node6 -->
<g id="node6" class="node"><title>Node6</title>
<g id="a_node6"><a xlink:href="../../d4/d54/classview_1_1_turtle_state.html#a3bb9e702c972e9bf0d45895be22d3f2c" target="_top" xlink:title="view.TurtleState.output">
<polygon fill="white" stroke="black" points="348.5,-49.5 348.5,-68.5 473.5,-68.5 473.5,-49.5 348.5,-49.5"/>
<text text-anchor="middle" x="411" y="-56.5" font-family="Helvetica,sans-Serif" font-size="10.00">view.TurtleState.output</text>
</a>
</g>
</g>
<!-- Node5&#45;&gt;Node6 -->
<g id="edge5" class="edge"><title>Node5&#45;&gt;Node6</title>
<path fill="none" stroke="midnightblue" d="M293.579,-57.7136C308.097,-57.874 323.587,-58.0452 338.373,-58.2085"/>
<polygon fill="midnightblue" stroke="midnightblue" points="338.439,-61.7094 348.477,-58.3202 338.516,-54.7098 338.439,-61.7094"/>
</g>
<!-- Node7 -->
<g id="node7" class="node"><title>Node7</title>
<g id="a_node7"><a xlink:href="../../d4/d54/classview_1_1_turtle_state.html#a0a10884d38ddbe122790ec162a1bb8b2" target="_top" xlink:title="view.TurtleState.refresh\lButton">
<polygon fill="white" stroke="black" points="347,-0 347,-30 475,-30 475,-0 347,-0"/>
<text text-anchor="start" x="355" y="-18" font-family="Helvetica,sans-Serif" font-size="10.00">view.TurtleState.refresh</text>
<text text-anchor="middle" x="411" y="-7" font-family="Helvetica,sans-Serif" font-size="10.00">Button</text>
</a>
</g>
</g>
<!-- Node5&#45;&gt;Node7 -->
<g id="edge6" class="edge"><title>Node5&#45;&gt;Node7</title>
<path fill="none" stroke="midnightblue" d="M293.579,-42.0149C307.684,-38.7418 322.707,-35.2558 337.111,-31.9134"/>
<polygon fill="midnightblue" stroke="midnightblue" points="338.015,-35.2967 346.965,-29.6268 336.433,-28.4778 338.015,-35.2967"/>
</g>
<!-- Node8 -->
<g id="node8" class="node"><title>Node8</title>
<g id="a_node8"><a xlink:href="../../d4/d54/classview_1_1_turtle_state.html#a82984a055d38c6f5a2a4fae97741ce2c" target="_top" xlink:title="view.TurtleState.refresh">
<polygon fill="white" stroke="black" points="528,-5.5 528,-24.5 656,-24.5 656,-5.5 528,-5.5"/>
<text text-anchor="middle" x="592" y="-12.5" font-family="Helvetica,sans-Serif" font-size="10.00">view.TurtleState.refresh</text>
</a>
</g>
</g>
<!-- Node7&#45;&gt;Node8 -->
<g id="edge7" class="edge"><title>Node7&#45;&gt;Node8</title>
<path fill="none" stroke="midnightblue" d="M475.109,-15C488.878,-15 503.562,-15 517.69,-15"/>
<polygon fill="midnightblue" stroke="midnightblue" points="517.858,-18.5001 527.858,-15 517.858,-11.5001 517.858,-18.5001"/>
</g>
</g>
</svg>
