<?xml version="1.0" encoding="UTF-8" standalone="no"?>
<!DOCTYPE svg PUBLIC "-//W3C//DTD SVG 1.1//EN"
 "http://www.w3.org/Graphics/SVG/1.1/DTD/svg11.dtd">
<!-- Generated by graphviz version 2.36.0 (20140111.2315)
 -->
<!-- Title: view.TurtleState.StateOfTurtle Pages: 1 -->
<svg width="468pt" height="77pt"
 viewBox="0.00 0.00 468.00 77.00" xmlns="http://www.w3.org/2000/svg" xmlns:xlink="http://www.w3.org/1999/xlink">
<g id="graph0" class="graph" transform="scale(1 1) rotate(0) translate(4 73)">
<title>view.TurtleState.StateOfTurtle</title>
<polygon fill="white" stroke="none" points="-4,4 -4,-73 464,-73 464,4 -4,4"/>
<!-- Node1 -->
<g id="node1" class="node"><title>Node1</title>
<polygon fill="#bfbfbf" stroke="black" points="0.5,-22 0.5,-52 131.5,-52 131.5,-22 0.5,-22"/>
<text text-anchor="start" x="8.5" y="-40" font-family="Helvetica,sans-Serif" font-size="10.00">view.TurtleState.StateOf</text>
<text text-anchor="middle" x="66" y="-29" font-family="Helvetica,sans-Serif" font-size="10.00">Turtle</text>
</g>
<!-- Node2 -->
<g id="node2" class="node"><title>Node2</title>
<g id="a_node2"><a xlink:href="../../d4/d54/classview_1_1_turtle_state.html#a3bb9e702c972e9bf0d45895be22d3f2c" target="_top" xlink:title="view.TurtleState.output">
<polygon fill="white" stroke="black" points="169.5,-49.5 169.5,-68.5 294.5,-68.5 294.5,-49.5 169.5,-49.5"/>
<text text-anchor="middle" x="232" y="-56.5" font-family="Helvetica,sans-Serif" font-size="10.00">view.TurtleState.output</text>
</a>
</g>
</g>
<!-- Node1&#45;&gt;Node2 -->
<g id="edge1" class="edge"><title>Node1&#45;&gt;Node2</title>
<path fill="none" stroke="midnightblue" d="M131.817,-45.695C140.794,-46.8992 150.059,-48.1421 159.154,-49.3622"/>
<polygon fill="midnightblue" stroke="midnightblue" points="158.951,-52.8661 169.327,-50.7268 159.881,-45.9283 158.951,-52.8661"/>
</g>
<!-- Node3 -->
<g id="node3" class="node"><title>Node3</title>
<g id="a_node3"><a xlink:href="../../d4/d54/classview_1_1_turtle_state.html#a0a10884d38ddbe122790ec162a1bb8b2" target="_top" xlink:title="view.TurtleState.refresh\lButton">
<polygon fill="white" stroke="black" points="168,-0 168,-30 296,-30 296,-0 168,-0"/>
<text text-anchor="start" x="176" y="-18" font-family="Helvetica,sans-Serif" font-size="10.00">view.TurtleState.refresh</text>
<text text-anchor="middle" x="232" y="-7" font-family="Helvetica,sans-Serif" font-size="10.00">Button</text>
</a>
</g>
</g>
<!-- Node1&#45;&gt;Node3 -->
<g id="edge2" class="edge"><title>Node1&#45;&gt;Node3</title>
<path fill="none" stroke="midnightblue" d="M131.817,-28.305C140.376,-27.1569 149.196,-25.9737 157.882,-24.8085"/>
<polygon fill="midnightblue" stroke="midnightblue" points="158.547,-28.2508 167.993,-23.4522 157.616,-21.3129 158.547,-28.2508"/>
</g>
<!-- Node4 -->
<g id="node4" class="node"><title>Node4</title>
<g id="a_node4"><a xlink:href="../../d4/d54/classview_1_1_turtle_state.html#a82984a055d38c6f5a2a4fae97741ce2c" target="_top" xlink:title="view.TurtleState.refresh">
<polygon fill="white" stroke="black" points="332,-5.5 332,-24.5 460,-24.5 460,-5.5 332,-5.5"/>
<text text-anchor="middle" x="396" y="-12.5" font-family="Helvetica,sans-Serif" font-size="10.00">view.TurtleState.refresh</text>
</a>
</g>
</g>
<!-- Node3&#45;&gt;Node4 -->
<g id="edge3" class="edge"><title>Node3&#45;&gt;Node4</title>
<path fill="none" stroke="midnightblue" d="M296.097,-15C304.435,-15 313.038,-15 321.53,-15"/>
<polygon fill="midnightblue" stroke="midnightblue" points="321.808,-18.5001 331.808,-15 321.808,-11.5001 321.808,-18.5001"/>
</g>
</g>
</svg>
