<?xml version="1.0" encoding="UTF-8" standalone="no"?>
<!DOCTYPE svg PUBLIC "-//W3C//DTD SVG 1.1//EN"
 "http://www.w3.org/Graphics/SVG/1.1/DTD/svg11.dtd">
<!-- Generated by graphviz version 2.36.0 (20140111.2315)
 -->
<!-- Title: view.TurtleState.attrib Pages: 1 -->
<svg width="326pt" height="77pt"
 viewBox="0.00 0.00 326.00 77.00" xmlns="http://www.w3.org/2000/svg" xmlns:xlink="http://www.w3.org/1999/xlink">
<g id="graph0" class="graph" transform="scale(1 1) rotate(0) translate(4 73)">
<title>view.TurtleState.attrib</title>
<polygon fill="white" stroke="none" points="-4,4 -4,-73 322,-73 322,4 -4,4"/>
<!-- Node1 -->
<g id="node1" class="node"><title>Node1</title>
<polygon fill="#bfbfbf" stroke="black" points="0.5,-22.5 0.5,-41.5 119.5,-41.5 119.5,-22.5 0.5,-22.5"/>
<text text-anchor="middle" x="60" y="-29.5" font-family="Helvetica,sans-Serif" font-size="10.00">view.TurtleState.attrib</text>
</g>
<!-- Node2 -->
<g id="node2" class="node"><title>Node2</title>
<g id="a_node2"><a xlink:href="../../d1/deb/classapplication_1_1_turtle_list.html#a87d2c5ddc9378480e8b4bfa5e95b5629" target="_top" xlink:title="application.TurtleList.get\lActiveTurtles">
<polygon fill="white" stroke="black" points="171,-39 171,-69 303,-69 303,-39 171,-39"/>
<text text-anchor="start" x="179" y="-57" font-family="Helvetica,sans-Serif" font-size="10.00">application.TurtleList.get</text>
<text text-anchor="middle" x="237" y="-46" font-family="Helvetica,sans-Serif" font-size="10.00">ActiveTurtles</text>
</a>
</g>
</g>
<!-- Node1&#45;&gt;Node2 -->
<g id="edge1" class="edge"><title>Node1&#45;&gt;Node2</title>
<path fill="none" stroke="midnightblue" d="M119.759,-39.3869C132.815,-41.0282 146.831,-42.7902 160.454,-44.5027"/>
<polygon fill="midnightblue" stroke="midnightblue" points="160.413,-48.0251 170.771,-45.7998 161.286,-41.0798 160.413,-48.0251"/>
</g>
<!-- Node3 -->
<g id="node3" class="node"><title>Node3</title>
<g id="a_node3"><a xlink:href="../../dd/d17/classapplication_1_1_model.html#aa7ed87b9bf32630ff3c5b771feb6a67a" target="_top" xlink:title="application.Model.getTurtleList">
<polygon fill="white" stroke="black" points="156.5,-0.5 156.5,-19.5 317.5,-19.5 317.5,-0.5 156.5,-0.5"/>
<text text-anchor="middle" x="237" y="-7.5" font-family="Helvetica,sans-Serif" font-size="10.00">application.Model.getTurtleList</text>
</a>
</g>
</g>
<!-- Node1&#45;&gt;Node3 -->
<g id="edge2" class="edge"><title>Node1&#45;&gt;Node3</title>
<path fill="none" stroke="midnightblue" d="M119.759,-24.6131C129.515,-23.3867 139.807,-22.0928 150.07,-20.8026"/>
<polygon fill="midnightblue" stroke="midnightblue" points="150.818,-24.2363 160.303,-19.5162 149.944,-17.2909 150.818,-24.2363"/>
</g>
</g>
</svg>
