<?xml version="1.0" encoding="UTF-8" standalone="no"?>
<!DOCTYPE svg PUBLIC "-//W3C//DTD SVG 1.1//EN"
 "http://www.w3.org/Graphics/SVG/1.1/DTD/svg11.dtd">
<!-- Generated by graphviz version 2.36.0 (20140111.2315)
 -->
<!-- Title: view.TurtleState.state Pages: 1 -->
<!--zoomable 126 -->
<svg id="main" version="1.1" xmlns="http://www.w3.org/2000/svg" xmlns:xlink="http://www.w3.org/1999/xlink" xml:space="preserve" onload="init(evt)">
<style type="text/css"><![CDATA[
.edge:hover path { stroke: red; }
.edge:hover polygon { stroke: red; fill: red; }
]]></style>
<script type="text/javascript"><![CDATA[
var edges = document.getElementsByTagName('g');
if (edges && edges.length) {
  for (var i=0;i<edges.length;i++) {
    if (edges[i].id.substr(0,4)=='edge') {
      edges[i].setAttribute('class','edge');
    }
  }
}
]]></script>
        <defs>
                <circle id="rim" cx="0" cy="0" r="7"/>
                <circle id="rim2" cx="0" cy="0" r="3.5"/>
                <g id="zoomPlus">
                        <use xlink:href="#rim" fill="#404040">
                                <set attributeName="fill" to="#808080" begin="zoomplus.mouseover" end="zoomplus.mouseout"/>
                        </use>
                        <path d="M-4,0h8M0,-4v8" fill="none" stroke="white" stroke-width="1.5" pointer-events="none"/>
                </g>
                <g id="zoomMin">
                        <use xlink:href="#rim" fill="#404040">
                                <set attributeName="fill" to="#808080" begin="zoomminus.mouseover" end="zoomminus.mouseout"/>
                        </use>
                        <path d="M-4,0h8" fill="none" stroke="white" stroke-width="1.5" pointer-events="none"/>
                </g>
                <g id="dirArrow">
                        <path fill="none" stroke="white" stroke-width="1.5" d="M0,-3.0v7 M-2.5,-0.5L0,-3.0L2.5,-0.5"/>
                </g>
               <g id="resetDef">
                       <use xlink:href="#rim2" fill="#404040">
                               <set attributeName="fill" to="#808080" begin="reset.mouseover" end="reset.mouseout"/>
                       </use>
               </g>
        </defs>

<script type="text/javascript">
var viewWidth = 628;
var viewHeight = 126;
var sectionId = 'dynsection-7';
</script>
<script xlink:href="../../svgpan.js"/>
<svg id="graph" class="graph">
<g id="viewport">
<title>view.TurtleState.state</title>
<polygon fill="white" stroke="none" points="-4,4 -4,-122 624,-122 624,4 -4,4"/>
<!-- Node1 -->
<g id="node1" class="node"><title>Node1</title>
<polygon fill="#bfbfbf" stroke="black" points="0.5,-71.5 0.5,-90.5 119.5,-90.5 119.5,-71.5 0.5,-71.5"/>
<text text-anchor="middle" x="60" y="-78.5" font-family="Helvetica,sans-Serif" font-size="10.00">view.TurtleState.state</text>
</g>
<!-- Node2 -->
<g id="node2" class="node"><title>Node2</title>
<g id="a_node2"><a xlink:href="../../d4/d54/classview_1_1_turtle_state.html#a3e4441bdb52aa2698734b68d1c2f851a" target="_top" xlink:title="view.TurtleState.attrib">
<polygon fill="white" stroke="black" points="162.5,-93.5 162.5,-112.5 281.5,-112.5 281.5,-93.5 162.5,-93.5"/>
<text text-anchor="middle" x="222" y="-100.5" font-family="Helvetica,sans-Serif" font-size="10.00">view.TurtleState.attrib</text>
</a>
</g>
</g>
<!-- Node1&#45;&gt;Node2 -->
<g id="edge1" class="edge"><title>Node1&#45;&gt;Node2</title>
<path fill="none" stroke="midnightblue" d="M119.67,-89.0671C130.322,-90.5318 141.519,-92.0713 152.426,-93.5711"/>
<polygon fill="midnightblue" stroke="midnightblue" points="151.954,-97.039 162.338,-94.9339 152.908,-90.1043 151.954,-97.039"/>
</g>
<!-- Node4 -->
<g id="node4" class="node"><title>Node4</title>
<g id="a_node4"><a xlink:href="../../d4/d54/classview_1_1_turtle_state.html#abdea116a1a22735abf21aae594bf68ef" target="_top" xlink:title="view.TurtleState.StateOf\lTurtle">
<polygon fill="white" stroke="black" points="156.5,-44 156.5,-74 287.5,-74 287.5,-44 156.5,-44"/>
<text text-anchor="start" x="164.5" y="-62" font-family="Helvetica,sans-Serif" font-size="10.00">view.TurtleState.StateOf</text>
<text text-anchor="middle" x="222" y="-51" font-family="Helvetica,sans-Serif" font-size="10.00">Turtle</text>
</a>
</g>
</g>
<!-- Node1&#45;&gt;Node4 -->
<g id="edge3" class="edge"><title>Node1&#45;&gt;Node4</title>
<path fill="none" stroke="midnightblue" d="M119.67,-72.9329C128.353,-71.739 137.398,-70.4953 146.353,-69.264"/>
<polygon fill="midnightblue" stroke="midnightblue" points="146.971,-72.712 156.401,-67.8824 146.017,-65.7772 146.971,-72.712"/>
</g>
<!-- Node3 -->
<g id="node3" class="node"><title>Node3</title>
<g id="a_node3"><a xlink:href="../../d1/deb/classapplication_1_1_turtle_list.html#a87d2c5ddc9378480e8b4bfa5e95b5629" target="_top" xlink:title="application.TurtleList.get\lActiveTurtles">
<polygon fill="white" stroke="black" points="324,-88 324,-118 456,-118 456,-88 324,-88"/>
<text text-anchor="start" x="332" y="-106" font-family="Helvetica,sans-Serif" font-size="10.00">application.TurtleList.get</text>
<text text-anchor="middle" x="390" y="-95" font-family="Helvetica,sans-Serif" font-size="10.00">ActiveTurtles</text>
</a>
</g>
</g>
<!-- Node2&#45;&gt;Node3 -->
<g id="edge2" class="edge"><title>Node2&#45;&gt;Node3</title>
<path fill="none" stroke="midnightblue" d="M281.525,-103C291.924,-103 302.885,-103 313.672,-103"/>
<polygon fill="midnightblue" stroke="midnightblue" points="313.937,-106.5 323.937,-103 313.937,-99.5001 313.937,-106.5"/>
</g>
<!-- Node5 -->
<g id="node5" class="node"><title>Node5</title>
<g id="a_node5"><a xlink:href="../../d4/d54/classview_1_1_turtle_state.html#a3bb9e702c972e9bf0d45895be22d3f2c" target="_top" xlink:title="view.TurtleState.output">
<polygon fill="white" stroke="black" points="327.5,-49.5 327.5,-68.5 452.5,-68.5 452.5,-49.5 327.5,-49.5"/>
<text text-anchor="middle" x="390" y="-56.5" font-family="Helvetica,sans-Serif" font-size="10.00">view.TurtleState.output</text>
</a>
</g>
</g>
<!-- Node4&#45;&gt;Node5 -->
<g id="edge4" class="edge"><title>Node4&#45;&gt;Node5</title>
<path fill="none" stroke="midnightblue" d="M287.655,-59C297.317,-59 307.328,-59 317.128,-59"/>
<polygon fill="midnightblue" stroke="midnightblue" points="317.241,-62.5001 327.241,-59 317.241,-55.5001 317.241,-62.5001"/>
</g>
<!-- Node6 -->
<g id="node6" class="node"><title>Node6</title>
<g id="a_node6"><a xlink:href="../../d4/d54/classview_1_1_turtle_state.html#a0a10884d38ddbe122790ec162a1bb8b2" target="_top" xlink:title="view.TurtleState.refresh\lButton">
<polygon fill="white" stroke="black" points="326,-0 326,-30 454,-30 454,-0 326,-0"/>
<text text-anchor="start" x="334" y="-18" font-family="Helvetica,sans-Serif" font-size="10.00">view.TurtleState.refresh</text>
<text text-anchor="middle" x="390" y="-7" font-family="Helvetica,sans-Serif" font-size="10.00">Button</text>
</a>
</g>
</g>
<!-- Node4&#45;&gt;Node6 -->
<g id="edge5" class="edge"><title>Node4&#45;&gt;Node6</title>
<path fill="none" stroke="midnightblue" d="M279.663,-43.9808C293.476,-40.3196 308.374,-36.3706 322.595,-32.6013"/>
<polygon fill="midnightblue" stroke="midnightblue" points="323.541,-35.9716 332.31,-30.0262 321.747,-29.2052 323.541,-35.9716"/>
</g>
<!-- Node7 -->
<g id="node7" class="node"><title>Node7</title>
<g id="a_node7"><a xlink:href="../../d4/d54/classview_1_1_turtle_state.html#a82984a055d38c6f5a2a4fae97741ce2c" target="_top" xlink:title="view.TurtleState.refresh">
<polygon fill="white" stroke="black" points="492,-5.5 492,-24.5 620,-24.5 620,-5.5 492,-5.5"/>
<text text-anchor="middle" x="556" y="-12.5" font-family="Helvetica,sans-Serif" font-size="10.00">view.TurtleState.refresh</text>
</a>
</g>
</g>
<!-- Node6&#45;&gt;Node7 -->
<g id="edge6" class="edge"><title>Node6&#45;&gt;Node7</title>
<path fill="none" stroke="midnightblue" d="M454.407,-15C463.313,-15 472.529,-15 481.602,-15"/>
<polygon fill="midnightblue" stroke="midnightblue" points="481.762,-18.5001 491.762,-15 481.762,-11.5001 481.762,-18.5001"/>
</g>
</g>
</svg>
        <g id="navigator" transform="translate(0 0)" fill="#404254">
                <rect fill="#f2f5e9" fill-opacity="0.5" stroke="#606060" stroke-width=".5" x="0" y="0" width="60" height="60"/>
                <use id="zoomplus" xlink:href="#zoomPlus" x="17" y="9" onmousedown="handleZoom(evt,'in')"/>
                <use id="zoomminus" xlink:href="#zoomMin" x="42" y="9" onmousedown="handleZoom(evt,'out')"/>
                <use id="reset" xlink:href="#resetDef" x="30" y="36" onmousedown="handleReset()"/>
                <g id="arrowUp" xlink:href="#dirArrow" transform="translate(30 24)" onmousedown="handlePan(0,-1)">
                  <use xlink:href="#rim" fill="#404040">
                        <set attributeName="fill" to="#808080" begin="arrowUp.mouseover" end="arrowUp.mouseout"/>
                  </use>
                  <path fill="none" stroke="white" stroke-width="1.5" d="M0,-3.0v7 M-2.5,-0.5L0,-3.0L2.5,-0.5"/>
                </g>
                <g id="arrowRight" xlink:href="#dirArrow" transform="rotate(90) translate(36 -43)" onmousedown="handlePan(1,0)">
                  <use xlink:href="#rim" fill="#404040">
                        <set attributeName="fill" to="#808080" begin="arrowRight.mouseover" end="arrowRight.mouseout"/>
                  </use>
                  <path fill="none" stroke="white" stroke-width="1.5" d="M0,-3.0v7 M-2.5,-0.5L0,-3.0L2.5,-0.5"/>
                </g>
                <g id="arrowDown" xlink:href="#dirArrow" transform="rotate(180) translate(-30 -48)" onmousedown="handlePan(0,1)">
                  <use xlink:href="#rim" fill="#404040">
                        <set attributeName="fill" to="#808080" begin="arrowDown.mouseover" end="arrowDown.mouseout"/>
                  </use>
                  <path fill="none" stroke="white" stroke-width="1.5" d="M0,-3.0v7 M-2.5,-0.5L0,-3.0L2.5,-0.5"/>
                </g>
                <g id="arrowLeft" xlink:href="#dirArrow" transform="rotate(270) translate(-36 17)" onmousedown="handlePan(-1,0)">
                  <use xlink:href="#rim" fill="#404040">
                        <set attributeName="fill" to="#808080" begin="arrowLeft.mouseover" end="arrowLeft.mouseout"/>
                  </use>
                  <path fill="none" stroke="white" stroke-width="1.5" d="M0,-3.0v7 M-2.5,-0.5L0,-3.0L2.5,-0.5"/>
                </g>
        </g>
        <svg viewBox="0 0 15 15" width="100%" height="30px" preserveAspectRatio="xMaxYMin meet">
         <g id="arrow_out" transform="scale(0.3 0.3)">
          <a xlink:href="classview_1_1_turtle_state_adddc3ba0815784df7bd506a962bd20c6_cgraph_org.svg" target="_base">
           <rect id="button" ry="5" rx="5" y="6" x="6" height="38" width="38"
                fill="#f2f5e9" fill-opacity="0.5" stroke="#606060" stroke-width="1.0"/>
           <path id="arrow"
             d="M 11.500037,31.436501 C 11.940474,20.09759 22.043105,11.32322 32.158766,21.979434 L 37.068811,17.246167 C 37.068811,17.246167 37.088388,32 37.088388,32 L 22.160133,31.978069 C 22.160133,31.978069 26.997745,27.140456 26.997745,27.140456 C 18.528582,18.264221 13.291696,25.230495 11.500037,31.436501 z"
             style="fill:#404040;"/>
          </a>
         </g>
        </svg>
</svg>
