<?xml version="1.0" encoding="UTF-8" standalone="no"?>
<!DOCTYPE svg PUBLIC "-//W3C//DTD SVG 1.1//EN"
 "http://www.w3.org/Graphics/SVG/1.1/DTD/svg11.dtd">
<!-- Generated by graphviz version 2.36.0 (20140111.2315)
 -->
<!-- Title: view.TurtleState.refresh Pages: 1 -->
<svg width="1078pt" height="38pt"
 viewBox="0.00 0.00 1078.00 38.00" xmlns="http://www.w3.org/2000/svg" xmlns:xlink="http://www.w3.org/1999/xlink">
<g id="graph0" class="graph" transform="scale(1 1) rotate(0) translate(4 34)">
<title>view.TurtleState.refresh</title>
<polygon fill="white" stroke="none" points="-4,4 -4,-34 1074,-34 1074,4 -4,4"/>
<!-- Node1 -->
<g id="node1" class="node"><title>Node1</title>
<polygon fill="#bfbfbf" stroke="black" points="0,-5.5 0,-24.5 128,-24.5 128,-5.5 0,-5.5"/>
<text text-anchor="middle" x="64" y="-12.5" font-family="Helvetica,sans-Serif" font-size="10.00">view.TurtleState.refresh</text>
</g>
<!-- Node2 -->
<g id="node2" class="node"><title>Node2</title>
<g id="a_node2"><a xlink:href="../../d4/d54/classview_1_1_turtle_state.html#a0a10884d38ddbe122790ec162a1bb8b2" target="_top" xlink:title="view.TurtleState.refresh\lButton">
<polygon fill="white" stroke="black" points="164,-0 164,-30 292,-30 292,-0 164,-0"/>
<text text-anchor="start" x="172" y="-18" font-family="Helvetica,sans-Serif" font-size="10.00">view.TurtleState.refresh</text>
<text text-anchor="middle" x="228" y="-7" font-family="Helvetica,sans-Serif" font-size="10.00">Button</text>
</a>
</g>
</g>
<!-- Node1&#45;&gt;Node2 -->
<g id="edge1" class="edge"><title>Node1&#45;&gt;Node2</title>
<path fill="none" stroke="midnightblue" d="M138.374,-15C146.865,-15 155.469,-15 163.808,-15"/>
<polygon fill="midnightblue" stroke="midnightblue" points="138.097,-11.5001 128.097,-15 138.097,-18.5001 138.097,-11.5001"/>
</g>
<!-- Node3 -->
<g id="node3" class="node"><title>Node3</title>
<g id="a_node3"><a xlink:href="../../d4/d54/classview_1_1_turtle_state.html#abdea116a1a22735abf21aae594bf68ef" target="_top" xlink:title="view.TurtleState.StateOf\lTurtle">
<polygon fill="white" stroke="black" points="328.5,-0 328.5,-30 459.5,-30 459.5,-0 328.5,-0"/>
<text text-anchor="start" x="336.5" y="-18" font-family="Helvetica,sans-Serif" font-size="10.00">view.TurtleState.StateOf</text>
<text text-anchor="middle" x="394" y="-7" font-family="Helvetica,sans-Serif" font-size="10.00">Turtle</text>
</a>
</g>
</g>
<!-- Node2&#45;&gt;Node3 -->
<g id="edge2" class="edge"><title>Node2&#45;&gt;Node3</title>
<path fill="none" stroke="midnightblue" d="M302.475,-15C311.122,-15 319.896,-15 328.408,-15"/>
<polygon fill="midnightblue" stroke="midnightblue" points="302.407,-11.5001 292.407,-15 302.407,-18.5001 302.407,-11.5001"/>
</g>
<!-- Node4 -->
<g id="node4" class="node"><title>Node4</title>
<g id="a_node4"><a xlink:href="../../d4/d54/classview_1_1_turtle_state.html#adddc3ba0815784df7bd506a962bd20c6" target="_top" xlink:title="view.TurtleState.state">
<polygon fill="white" stroke="black" points="496.5,-5.5 496.5,-24.5 615.5,-24.5 615.5,-5.5 496.5,-5.5"/>
<text text-anchor="middle" x="556" y="-12.5" font-family="Helvetica,sans-Serif" font-size="10.00">view.TurtleState.state</text>
</a>
</g>
</g>
<!-- Node3&#45;&gt;Node4 -->
<g id="edge3" class="edge"><title>Node3&#45;&gt;Node4</title>
<path fill="none" stroke="midnightblue" d="M469.664,-15C478.617,-15 487.66,-15 496.341,-15"/>
<polygon fill="midnightblue" stroke="midnightblue" points="469.617,-11.5001 459.617,-15 469.617,-18.5001 469.617,-11.5001"/>
</g>
<!-- Node5 -->
<g id="node5" class="node"><title>Node5</title>
<g id="a_node5"><a xlink:href="../../d3/dbe/classview_1_1_view.html#aef3f2dd859a6a5c719987365a9afb905" target="_top" xlink:title="view.View.start">
<polygon fill="white" stroke="black" points="652,-5.5 652,-24.5 738,-24.5 738,-5.5 652,-5.5"/>
<text text-anchor="middle" x="695" y="-12.5" font-family="Helvetica,sans-Serif" font-size="10.00">view.View.start</text>
</a>
</g>
</g>
<!-- Node4&#45;&gt;Node5 -->
<g id="edge4" class="edge"><title>Node4&#45;&gt;Node5</title>
<path fill="none" stroke="midnightblue" d="M626.115,-15C634.844,-15 643.56,-15 651.696,-15"/>
<polygon fill="midnightblue" stroke="midnightblue" points="625.895,-11.5001 615.895,-15 625.895,-18.5001 625.895,-11.5001"/>
</g>
<!-- Node6 -->
<g id="node6" class="node"><title>Node6</title>
<g id="a_node6"><a xlink:href="../../d4/d9d/classapplication_1_1_wrapper.html#a4be5486a54f6d10d816c3ff49e82ecb9" target="_top" xlink:title="application.Wrapper.make\lNewWindow">
<polygon fill="white" stroke="black" points="774,-0 774,-30 914,-30 914,-0 774,-0"/>
<text text-anchor="start" x="782" y="-18" font-family="Helvetica,sans-Serif" font-size="10.00">application.Wrapper.make</text>
<text text-anchor="middle" x="844" y="-7" font-family="Helvetica,sans-Serif" font-size="10.00">NewWindow</text>
</a>
</g>
</g>
<!-- Node5&#45;&gt;Node6 -->
<g id="edge5" class="edge"><title>Node5&#45;&gt;Node6</title>
<path fill="none" stroke="midnightblue" d="M748.379,-15C756.668,-15 765.349,-15 773.949,-15"/>
<polygon fill="midnightblue" stroke="midnightblue" points="748.124,-11.5001 738.124,-15 748.124,-18.5001 748.124,-11.5001"/>
</g>
<!-- Node7 -->
<g id="node7" class="node"><title>Node7</title>
<g id="a_node7"><a xlink:href="../../d9/d96/classapplication_1_1_main.html#a4e5ad4e3de8bbd8654120180a94e870d" target="_top" xlink:title="application.Main.start">
<polygon fill="white" stroke="black" points="950.5,-5.5 950.5,-24.5 1069.5,-24.5 1069.5,-5.5 950.5,-5.5"/>
<text text-anchor="middle" x="1010" y="-12.5" font-family="Helvetica,sans-Serif" font-size="10.00">application.Main.start</text>
</a>
</g>
</g>
<!-- Node6&#45;&gt;Node7 -->
<g id="edge6" class="edge"><title>Node6&#45;&gt;Node7</title>
<path fill="none" stroke="midnightblue" d="M924.335,-15C933.112,-15 941.929,-15 950.384,-15"/>
<polygon fill="midnightblue" stroke="midnightblue" points="924.075,-11.5001 914.075,-15 924.075,-18.5001 924.075,-11.5001"/>
</g>
</g>
</svg>
