<?xml version="1.0" encoding="UTF-8" standalone="no"?>
<!DOCTYPE svg PUBLIC "-//W3C//DTD SVG 1.1//EN"
 "http://www.w3.org/Graphics/SVG/1.1/DTD/svg11.dtd">
<!-- Generated by graphviz version 2.36.0 (20140111.2315)
 -->
<!-- Title: application.Model.penSizeProperty Pages: 1 -->
<svg width="688pt" height="71pt"
 viewBox="0.00 0.00 688.00 71.00" xmlns="http://www.w3.org/2000/svg" xmlns:xlink="http://www.w3.org/1999/xlink">
<g id="graph0" class="graph" transform="scale(1 1) rotate(0) translate(4 67)">
<title>application.Model.penSizeProperty</title>
<polygon fill="white" stroke="none" points="-4,4 -4,-67 684,-67 684,4 -4,4"/>
<!-- Node1 -->
<g id="node1" class="node"><title>Node1</title>
<polygon fill="#bfbfbf" stroke="black" points="0.5,-14 0.5,-44 141.5,-44 141.5,-14 0.5,-14"/>
<text text-anchor="start" x="8.5" y="-32" font-family="Helvetica,sans-Serif" font-size="10.00">application.Model.penSize</text>
<text text-anchor="middle" x="71" y="-21" font-family="Helvetica,sans-Serif" font-size="10.00">Property</text>
</g>
<!-- Node2 -->
<g id="node2" class="node"><title>Node2</title>
<g id="a_node2"><a xlink:href="../../d3/dbe/classview_1_1_view.html#a6c2525fe1f26dc400c48823ce4f0d057" target="_top" xlink:title="view.View.addModelListeners">
<polygon fill="white" stroke="black" points="186.5,-38.5 186.5,-57.5 339.5,-57.5 339.5,-38.5 186.5,-38.5"/>
<text text-anchor="middle" x="263" y="-45.5" font-family="Helvetica,sans-Serif" font-size="10.00">view.View.addModelListeners</text>
</a>
</g>
</g>
<!-- Node1&#45;&gt;Node2 -->
<g id="edge1" class="edge"><title>Node1&#45;&gt;Node2</title>
<path fill="none" stroke="midnightblue" d="M151.646,-36.9646C163.107,-38.1107 174.874,-39.2874 186.256,-40.4256"/>
<polygon fill="midnightblue" stroke="midnightblue" points="151.969,-33.4795 141.67,-35.967 151.272,-40.4448 151.969,-33.4795"/>
</g>
<!-- Node5 -->
<g id="node5" class="node"><title>Node5</title>
<g id="a_node5"><a xlink:href="../../d3/de4/classcommands_1_1_set_pen_size.html#aaf550efa2331c7079921a71b257f2807" target="_top" xlink:title="commands.SetPenSize.function">
<polygon fill="white" stroke="black" points="178,-0.5 178,-19.5 348,-19.5 348,-0.5 178,-0.5"/>
<text text-anchor="middle" x="263" y="-7.5" font-family="Helvetica,sans-Serif" font-size="10.00">commands.SetPenSize.function</text>
</a>
</g>
</g>
<!-- Node1&#45;&gt;Node5 -->
<g id="edge4" class="edge"><title>Node1&#45;&gt;Node5</title>
<path fill="none" stroke="midnightblue" d="M151.704,-21.0296C160.334,-20.1666 169.137,-19.2863 177.818,-18.4182"/>
<polygon fill="midnightblue" stroke="midnightblue" points="151.272,-17.5552 141.67,-22.033 151.969,-24.5205 151.272,-17.5552"/>
</g>
<!-- Node3 -->
<g id="node3" class="node"><title>Node3</title>
<g id="a_node3"><a xlink:href="../../d4/d9d/classapplication_1_1_wrapper.html#a4be5486a54f6d10d816c3ff49e82ecb9" target="_top" xlink:title="application.Wrapper.make\lNewWindow">
<polygon fill="white" stroke="black" points="384,-33 384,-63 524,-63 524,-33 384,-33"/>
<text text-anchor="start" x="392" y="-51" font-family="Helvetica,sans-Serif" font-size="10.00">application.Wrapper.make</text>
<text text-anchor="middle" x="454" y="-40" font-family="Helvetica,sans-Serif" font-size="10.00">NewWindow</text>
</a>
</g>
</g>
<!-- Node2&#45;&gt;Node3 -->
<g id="edge2" class="edge"><title>Node2&#45;&gt;Node3</title>
<path fill="none" stroke="midnightblue" d="M349.516,-48C360.971,-48 372.604,-48 383.733,-48"/>
<polygon fill="midnightblue" stroke="midnightblue" points="349.513,-44.5001 339.513,-48 349.513,-51.5001 349.513,-44.5001"/>
</g>
<!-- Node4 -->
<g id="node4" class="node"><title>Node4</title>
<g id="a_node4"><a xlink:href="../../d9/d96/classapplication_1_1_main.html#a4e5ad4e3de8bbd8654120180a94e870d" target="_top" xlink:title="application.Main.start">
<polygon fill="white" stroke="black" points="560.5,-38.5 560.5,-57.5 679.5,-57.5 679.5,-38.5 560.5,-38.5"/>
<text text-anchor="middle" x="620" y="-45.5" font-family="Helvetica,sans-Serif" font-size="10.00">application.Main.start</text>
</a>
</g>
</g>
<!-- Node3&#45;&gt;Node4 -->
<g id="edge3" class="edge"><title>Node3&#45;&gt;Node4</title>
<path fill="none" stroke="midnightblue" d="M534.335,-48C543.112,-48 551.929,-48 560.384,-48"/>
<polygon fill="midnightblue" stroke="midnightblue" points="534.075,-44.5001 524.075,-48 534.075,-51.5001 534.075,-44.5001"/>
</g>
</g>
</svg>
