<?xml version="1.0" encoding="UTF-8" standalone="no"?>
<!DOCTYPE svg PUBLIC "-//W3C//DTD SVG 1.1//EN"
 "http://www.w3.org/Graphics/SVG/1.1/DTD/svg11.dtd">
<!-- Generated by graphviz version 2.36.0 (20140111.2315)
 -->
<!-- Title: application.Model.setVariableValue Pages: 1 -->
<svg width="380pt" height="66pt"
 viewBox="0.00 0.00 380.00 66.00" xmlns="http://www.w3.org/2000/svg" xmlns:xlink="http://www.w3.org/1999/xlink">
<g id="graph0" class="graph" transform="scale(1 1) rotate(0) translate(4 62)">
<title>application.Model.setVariableValue</title>
<polygon fill="white" stroke="none" points="-4,4 -4,-62 376,-62 376,4 -4,4"/>
<!-- Node1 -->
<g id="node1" class="node"><title>Node1</title>
<polygon fill="#bfbfbf" stroke="black" points="0,-14 0,-44 156,-44 156,-14 0,-14"/>
<text text-anchor="start" x="8" y="-32" font-family="Helvetica,sans-Serif" font-size="10.00">application.Model.setVariable</text>
<text text-anchor="middle" x="78" y="-21" font-family="Helvetica,sans-Serif" font-size="10.00">Value</text>
</g>
<!-- Node2 -->
<g id="node2" class="node"><title>Node2</title>
<g id="a_node2"><a xlink:href="../../d1/d25/classcommands_1_1_make_variable.html#a2ce4565365023ca6d062ff89c47aa355" target="_top" xlink:title="commands.MakeVariable.function">
<polygon fill="white" stroke="black" points="192.5,-38.5 192.5,-57.5 371.5,-57.5 371.5,-38.5 192.5,-38.5"/>
<text text-anchor="middle" x="282" y="-45.5" font-family="Helvetica,sans-Serif" font-size="10.00">commands.MakeVariable.function</text>
</a>
</g>
</g>
<!-- Node1&#45;&gt;Node2 -->
<g id="edge1" class="edge"><title>Node1&#45;&gt;Node2</title>
<path fill="none" stroke="midnightblue" d="M166.287,-37.2102C174.919,-38.0221 183.687,-38.8468 192.332,-39.66"/>
<polygon fill="midnightblue" stroke="midnightblue" points="166.516,-33.7163 156.232,-36.2644 165.86,-40.6856 166.516,-33.7163"/>
</g>
<!-- Node3 -->
<g id="node3" class="node"><title>Node3</title>
<g id="a_node3"><a xlink:href="../../db/d3c/classcommands_1_1_do_times.html#ab41d74dfb8204d3a48187415d6269c6a" target="_top" xlink:title="commands.DoTimes.runForLoop">
<polygon fill="white" stroke="black" points="195.5,-0.5 195.5,-19.5 368.5,-19.5 368.5,-0.5 195.5,-0.5"/>
<text text-anchor="middle" x="282" y="-7.5" font-family="Helvetica,sans-Serif" font-size="10.00">commands.DoTimes.runForLoop</text>
</a>
</g>
</g>
<!-- Node1&#45;&gt;Node3 -->
<g id="edge2" class="edge"><title>Node1&#45;&gt;Node3</title>
<path fill="none" stroke="midnightblue" d="M166.231,-20.7951C175.901,-19.8856 185.741,-18.96 195.39,-18.0524"/>
<polygon fill="midnightblue" stroke="midnightblue" points="165.86,-17.3144 156.232,-21.7356 166.516,-24.2837 165.86,-17.3144"/>
</g>
</g>
</svg>
