<?xml version="1.0" encoding="UTF-8" standalone="no"?>
<!DOCTYPE svg PUBLIC "-//W3C//DTD SVG 1.1//EN"
 "http://www.w3.org/Graphics/SVG/1.1/DTD/svg11.dtd">
<!-- Generated by graphviz version 2.36.0 (20140111.2315)
 -->
<!-- Title: application.Model.setLanguage Pages: 1 -->
<svg width="1010pt" height="76pt"
 viewBox="0.00 0.00 1010.00 76.00" xmlns="http://www.w3.org/2000/svg" xmlns:xlink="http://www.w3.org/1999/xlink">
<g id="graph0" class="graph" transform="scale(1 1) rotate(0) translate(4 72)">
<title>application.Model.setLanguage</title>
<polygon fill="white" stroke="none" points="-4,4 -4,-72 1006,-72 1006,4 -4,4"/>
<!-- Node1 -->
<g id="node1" class="node"><title>Node1</title>
<polygon fill="#bfbfbf" stroke="black" points="0.5,-27.5 0.5,-46.5 165.5,-46.5 165.5,-27.5 0.5,-27.5"/>
<text text-anchor="middle" x="83" y="-34.5" font-family="Helvetica,sans-Serif" font-size="10.00">application.Model.setLanguage</text>
</g>
<!-- Node2 -->
<g id="node2" class="node"><title>Node2</title>
<g id="a_node2"><a xlink:href="../../d3/dbe/classview_1_1_view.html#a6c2525fe1f26dc400c48823ce4f0d057" target="_top" xlink:title="view.View.addModelListeners">
<polygon fill="white" stroke="black" points="388.5,-48.5 388.5,-67.5 541.5,-67.5 541.5,-48.5 388.5,-48.5"/>
<text text-anchor="middle" x="465" y="-55.5" font-family="Helvetica,sans-Serif" font-size="10.00">view.View.addModelListeners</text>
</a>
</g>
</g>
<!-- Node1&#45;&gt;Node2 -->
<g id="edge1" class="edge"><title>Node1&#45;&gt;Node2</title>
<path fill="none" stroke="midnightblue" d="M175.783,-42.0722C240.91,-45.6713 327.273,-50.444 388.429,-53.8237"/>
<polygon fill="midnightblue" stroke="midnightblue" points="175.697,-38.5622 165.52,-41.505 175.311,-45.5516 175.697,-38.5622"/>
</g>
<!-- Node5 -->
<g id="node5" class="node"><title>Node5</title>
<g id="a_node5"><a xlink:href="../../df/d10/classview_1_1_language_chooser.html#a638bfb57c9d44edbc77c09dbbea172f2" target="_top" xlink:title="view.LanguageChooser.set\lLanguage">
<polygon fill="white" stroke="black" points="202.5,-0 202.5,-30 345.5,-30 345.5,-0 202.5,-0"/>
<text text-anchor="start" x="210.5" y="-18" font-family="Helvetica,sans-Serif" font-size="10.00">view.LanguageChooser.set</text>
<text text-anchor="middle" x="274" y="-7" font-family="Helvetica,sans-Serif" font-size="10.00">Language</text>
</a>
</g>
</g>
<!-- Node1&#45;&gt;Node5 -->
<g id="edge4" class="edge"><title>Node1&#45;&gt;Node5</title>
<path fill="none" stroke="midnightblue" d="M175.654,-26.3312C184.655,-25.2835 193.69,-24.2318 202.433,-23.2142"/>
<polygon fill="midnightblue" stroke="midnightblue" points="175.053,-22.8776 165.524,-27.5104 175.862,-29.8306 175.053,-22.8776"/>
</g>
<!-- Node3 -->
<g id="node3" class="node"><title>Node3</title>
<g id="a_node3"><a xlink:href="../../d4/d9d/classapplication_1_1_wrapper.html#a4be5486a54f6d10d816c3ff49e82ecb9" target="_top" xlink:title="application.Wrapper.make\lNewWindow">
<polygon fill="white" stroke="black" points="706,-22 706,-52 846,-52 846,-22 706,-22"/>
<text text-anchor="start" x="714" y="-40" font-family="Helvetica,sans-Serif" font-size="10.00">application.Wrapper.make</text>
<text text-anchor="middle" x="776" y="-29" font-family="Helvetica,sans-Serif" font-size="10.00">NewWindow</text>
</a>
</g>
</g>
<!-- Node2&#45;&gt;Node3 -->
<g id="edge2" class="edge"><title>Node2&#45;&gt;Node3</title>
<path fill="none" stroke="midnightblue" d="M551.784,-52.17C600.409,-48.8654 660.44,-44.7857 705.995,-41.6896"/>
<polygon fill="midnightblue" stroke="midnightblue" points="551.33,-48.6927 541.59,-52.8628 551.804,-55.6766 551.33,-48.6927"/>
</g>
<!-- Node4 -->
<g id="node4" class="node"><title>Node4</title>
<g id="a_node4"><a xlink:href="../../d9/d96/classapplication_1_1_main.html#a4e5ad4e3de8bbd8654120180a94e870d" target="_top" xlink:title="application.Main.start">
<polygon fill="white" stroke="black" points="882.5,-27.5 882.5,-46.5 1001.5,-46.5 1001.5,-27.5 882.5,-27.5"/>
<text text-anchor="middle" x="942" y="-34.5" font-family="Helvetica,sans-Serif" font-size="10.00">application.Main.start</text>
</a>
</g>
</g>
<!-- Node3&#45;&gt;Node4 -->
<g id="edge3" class="edge"><title>Node3&#45;&gt;Node4</title>
<path fill="none" stroke="midnightblue" d="M856.335,-37C865.112,-37 873.929,-37 882.384,-37"/>
<polygon fill="midnightblue" stroke="midnightblue" points="856.075,-33.5001 846.075,-37 856.075,-40.5001 856.075,-33.5001"/>
</g>
<!-- Node6 -->
<g id="node6" class="node"><title>Node6</title>
<g id="a_node6"><a xlink:href="../../d3/d1e/classview_1_1_button_bar.html#a9663e7fffc7f3559097b76313739e507" target="_top" xlink:title="view.ButtonBar.makeButtonBar">
<polygon fill="white" stroke="black" points="382,-8.5 382,-27.5 548,-27.5 548,-8.5 382,-8.5"/>
<text text-anchor="middle" x="465" y="-15.5" font-family="Helvetica,sans-Serif" font-size="10.00">view.ButtonBar.makeButtonBar</text>
</a>
</g>
</g>
<!-- Node5&#45;&gt;Node6 -->
<g id="edge5" class="edge"><title>Node5&#45;&gt;Node6</title>
<path fill="none" stroke="midnightblue" d="M355.751,-16.2818C364.437,-16.4196 373.281,-16.56 381.982,-16.6981"/>
<polygon fill="midnightblue" stroke="midnightblue" points="355.7,-12.7806 345.645,-16.1214 355.589,-19.7797 355.7,-12.7806"/>
</g>
<!-- Node7 -->
<g id="node7" class="node"><title>Node7</title>
<g id="a_node7"><a xlink:href="../../d3/dbe/classview_1_1_view.html#aef3f2dd859a6a5c719987365a9afb905" target="_top" xlink:title="view.View.start">
<polygon fill="white" stroke="black" points="584,-8.5 584,-27.5 670,-27.5 670,-8.5 584,-8.5"/>
<text text-anchor="middle" x="627" y="-15.5" font-family="Helvetica,sans-Serif" font-size="10.00">view.View.start</text>
</a>
</g>
</g>
<!-- Node6&#45;&gt;Node7 -->
<g id="edge6" class="edge"><title>Node6&#45;&gt;Node7</title>
<path fill="none" stroke="midnightblue" d="M558.353,-18C567.163,-18 575.768,-18 583.726,-18"/>
<polygon fill="midnightblue" stroke="midnightblue" points="558.343,-14.5001 548.343,-18 558.343,-21.5001 558.343,-14.5001"/>
</g>
<!-- Node7&#45;&gt;Node3 -->
<g id="edge7" class="edge"><title>Node7&#45;&gt;Node3</title>
<path fill="none" stroke="midnightblue" d="M680.103,-24.7344C688.475,-25.8166 697.254,-26.9512 705.949,-28.075"/>
<polygon fill="midnightblue" stroke="midnightblue" points="680.49,-21.2555 670.124,-23.4446 679.593,-28.1977 680.49,-21.2555"/>
</g>
</g>
</svg>
