<?xml version="1.0" encoding="UTF-8" standalone="no"?>
<!DOCTYPE svg PUBLIC "-//W3C//DTD SVG 1.1//EN"
 "http://www.w3.org/Graphics/SVG/1.1/DTD/svg11.dtd">
<!-- Generated by graphviz version 2.36.0 (20140111.2315)
 -->
<!-- Title: application.Model.update Pages: 1 -->
<!--zoomable 256 -->
<svg id="main" version="1.1" xmlns="http://www.w3.org/2000/svg" xmlns:xlink="http://www.w3.org/1999/xlink" xml:space="preserve" onload="init(evt)">
<style type="text/css"><![CDATA[
.edge:hover path { stroke: red; }
.edge:hover polygon { stroke: red; fill: red; }
]]></style>
<script type="text/javascript"><![CDATA[
var edges = document.getElementsByTagName('g');
if (edges && edges.length) {
  for (var i=0;i<edges.length;i++) {
    if (edges[i].id.substr(0,4)=='edge') {
      edges[i].setAttribute('class','edge');
    }
  }
}
]]></script>
        <defs>
                <circle id="rim" cx="0" cy="0" r="7"/>
                <circle id="rim2" cx="0" cy="0" r="3.5"/>
                <g id="zoomPlus">
                        <use xlink:href="#rim" fill="#404040">
                                <set attributeName="fill" to="#808080" begin="zoomplus.mouseover" end="zoomplus.mouseout"/>
                        </use>
                        <path d="M-4,0h8M0,-4v8" fill="none" stroke="white" stroke-width="1.5" pointer-events="none"/>
                </g>
                <g id="zoomMin">
                        <use xlink:href="#rim" fill="#404040">
                                <set attributeName="fill" to="#808080" begin="zoomminus.mouseover" end="zoomminus.mouseout"/>
                        </use>
                        <path d="M-4,0h8" fill="none" stroke="white" stroke-width="1.5" pointer-events="none"/>
                </g>
                <g id="dirArrow">
                        <path fill="none" stroke="white" stroke-width="1.5" d="M0,-3.0v7 M-2.5,-0.5L0,-3.0L2.5,-0.5"/>
                </g>
               <g id="resetDef">
                       <use xlink:href="#rim2" fill="#404040">
                               <set attributeName="fill" to="#808080" begin="reset.mouseover" end="reset.mouseout"/>
                       </use>
               </g>
        </defs>

<script type="text/javascript">
var viewWidth = 1224;
var viewHeight = 256;
var sectionId = 'dynsection-19';
</script>
<script xlink:href="../../svgpan.js"/>
<svg id="graph" class="graph">
<g id="viewport">
<title>application.Model.update</title>
<polygon fill="white" stroke="none" points="-4,4 -4,-252 1220,-252 1220,4 -4,4"/>
<!-- Node1 -->
<g id="node1" class="node"><title>Node1</title>
<polygon fill="#bfbfbf" stroke="black" points="0.5,-132.5 0.5,-151.5 137.5,-151.5 137.5,-132.5 0.5,-132.5"/>
<text text-anchor="middle" x="69" y="-139.5" font-family="Helvetica,sans-Serif" font-size="10.00">application.Model.update</text>
</g>
<!-- Node2 -->
<g id="node2" class="node"><title>Node2</title>
<g id="a_node2"><a xlink:href="../../d7/d99/classtree_1_1_command_node.html#a5bebc2f70e6e3486c403b9cdb0ce04cb" target="_top" xlink:title="tree.CommandNode.evaluate">
<polygon fill="white" stroke="black" points="174.5,-159.5 174.5,-178.5 333.5,-178.5 333.5,-159.5 174.5,-159.5"/>
<text text-anchor="middle" x="254" y="-166.5" font-family="Helvetica,sans-Serif" font-size="10.00">tree.CommandNode.evaluate</text>
</a>
</g>
</g>
<!-- Node1&#45;&gt;Node2 -->
<g id="edge1" class="edge"><title>Node1&#45;&gt;Node2</title>
<path fill="none" stroke="midnightblue" d="M134.519,-151.519C148.733,-153.616 163.9,-155.854 178.472,-158.004"/>
<polygon fill="midnightblue" stroke="midnightblue" points="178.043,-161.479 188.447,-159.476 179.065,-154.554 178.043,-161.479"/>
</g>
<!-- Node8 -->
<g id="node8" class="node"><title>Node8</title>
<g id="a_node8"><a xlink:href="../../dc/d9e/classapplication_1_1_parser.html#a135ca81f754c89fe4bf36783b9884861" target="_top" xlink:title="application.Parser.parse">
<polygon fill="white" stroke="black" points="188.5,-106.5 188.5,-125.5 319.5,-125.5 319.5,-106.5 188.5,-106.5"/>
<text text-anchor="middle" x="254" y="-113.5" font-family="Helvetica,sans-Serif" font-size="10.00">application.Parser.parse</text>
</a>
</g>
</g>
<!-- Node1&#45;&gt;Node8 -->
<g id="edge7" class="edge"><title>Node1&#45;&gt;Node8</title>
<path fill="none" stroke="midnightblue" d="M137.103,-132.466C150.434,-130.572 164.511,-128.572 178.084,-126.644"/>
<polygon fill="midnightblue" stroke="midnightblue" points="178.936,-130.058 188.344,-125.186 177.951,-123.128 178.936,-130.058"/>
</g>
<!-- Node3 -->
<g id="node3" class="node"><title>Node3</title>
<g id="a_node3"><a xlink:href="../../dd/d17/classapplication_1_1_model.html#aa7ed87b9bf32630ff3c5b771feb6a67a" target="_top" xlink:title="application.Model.getTurtleList">
<polygon fill="white" stroke="black" points="370.5,-228.5 370.5,-247.5 531.5,-247.5 531.5,-228.5 370.5,-228.5"/>
<text text-anchor="middle" x="451" y="-235.5" font-family="Helvetica,sans-Serif" font-size="10.00">application.Model.getTurtleList</text>
</a>
</g>
</g>
<!-- Node2&#45;&gt;Node3 -->
<g id="edge2" class="edge"><title>Node2&#45;&gt;Node3</title>
<path fill="none" stroke="midnightblue" d="M274.983,-178.659C297.632,-189.335 335.848,-206.535 370,-218 378.48,-220.847 387.587,-223.496 396.509,-225.873"/>
<polygon fill="midnightblue" stroke="midnightblue" points="395.903,-229.331 406.46,-228.438 397.651,-222.553 395.903,-229.331"/>
</g>
<!-- Node4 -->
<g id="node4" class="node"><title>Node4</title>
<g id="a_node4"><a xlink:href="../../d1/deb/classapplication_1_1_turtle_list.html#a87d2c5ddc9378480e8b4bfa5e95b5629" target="_top" xlink:title="application.TurtleList.get\lActiveTurtles">
<polygon fill="white" stroke="black" points="385,-179 385,-209 517,-209 517,-179 385,-179"/>
<text text-anchor="start" x="393" y="-197" font-family="Helvetica,sans-Serif" font-size="10.00">application.TurtleList.get</text>
<text text-anchor="middle" x="451" y="-186" font-family="Helvetica,sans-Serif" font-size="10.00">ActiveTurtles</text>
</a>
</g>
</g>
<!-- Node2&#45;&gt;Node4 -->
<g id="edge3" class="edge"><title>Node2&#45;&gt;Node4</title>
<path fill="none" stroke="midnightblue" d="M329.277,-178.523C344.144,-180.429 359.775,-182.433 374.677,-184.343"/>
<polygon fill="midnightblue" stroke="midnightblue" points="374.494,-187.848 384.858,-185.648 375.384,-180.905 374.494,-187.848"/>
</g>
<!-- Node5 -->
<g id="node5" class="node"><title>Node5</title>
<g id="a_node5"><a xlink:href="../../d7/d99/classtree_1_1_command_node.html#a4bf51af9a3fc4eecf4e2b0e2dceb1a2e" target="_top" xlink:title="tree.CommandNode.evaluate\lTurtles">
<polygon fill="white" stroke="black" points="371.5,-130 371.5,-160 530.5,-160 530.5,-130 371.5,-130"/>
<text text-anchor="start" x="379.5" y="-148" font-family="Helvetica,sans-Serif" font-size="10.00">tree.CommandNode.evaluate</text>
<text text-anchor="middle" x="451" y="-137" font-family="Helvetica,sans-Serif" font-size="10.00">Turtles</text>
</a>
</g>
</g>
<!-- Node2&#45;&gt;Node5 -->
<g id="edge4" class="edge"><title>Node2&#45;&gt;Node5</title>
<path fill="none" stroke="midnightblue" d="M332.349,-159.48C341.898,-158.305 351.717,-157.096 361.418,-155.902"/>
<polygon fill="midnightblue" stroke="midnightblue" points="361.969,-159.361 371.467,-154.666 361.114,-152.413 361.969,-159.361"/>
</g>
<!-- Node6 -->
<g id="node6" class="node"><title>Node6</title>
<g id="a_node6"><a xlink:href="../../d7/d99/classtree_1_1_command_node.html#a69bfa124214fd3236c99901925a5f055" target="_top" xlink:title="tree.CommandNode.checkParameters">
<polygon fill="white" stroke="black" points="568.5,-145.5 568.5,-164.5 769.5,-164.5 769.5,-145.5 568.5,-145.5"/>
<text text-anchor="middle" x="669" y="-152.5" font-family="Helvetica,sans-Serif" font-size="10.00">tree.CommandNode.checkParameters</text>
</a>
</g>
</g>
<!-- Node5&#45;&gt;Node6 -->
<g id="edge5" class="edge"><title>Node5&#45;&gt;Node6</title>
<path fill="none" stroke="midnightblue" d="M530.592,-148.639C539.628,-149.057 548.96,-149.489 558.31,-149.922"/>
<polygon fill="midnightblue" stroke="midnightblue" points="558.298,-153.425 568.449,-150.391 558.621,-146.432 558.298,-153.425"/>
</g>
<!-- Node7 -->
<g id="node7" class="node"><title>Node7</title>
<g id="a_node7"><a xlink:href="../../d7/d99/classtree_1_1_command_node.html#a217a1626d7815f8121a2224ddf7af40f" target="_top" xlink:title="tree.CommandNode.throwParameters\lException">
<polygon fill="white" stroke="black" points="806,-140 806,-170 1006,-170 1006,-140 806,-140"/>
<text text-anchor="start" x="814" y="-158" font-family="Helvetica,sans-Serif" font-size="10.00">tree.CommandNode.throwParameters</text>
<text text-anchor="middle" x="906" y="-147" font-family="Helvetica,sans-Serif" font-size="10.00">Exception</text>
</a>
</g>
</g>
<!-- Node6&#45;&gt;Node7 -->
<g id="edge6" class="edge"><title>Node6&#45;&gt;Node7</title>
<path fill="none" stroke="midnightblue" d="M769.661,-155C778.293,-155 787.056,-155 795.758,-155"/>
<polygon fill="midnightblue" stroke="midnightblue" points="795.935,-158.5 805.935,-155 795.935,-151.5 795.935,-158.5"/>
</g>
<!-- Node9 -->
<g id="node9" class="node"><title>Node9</title>
<g id="a_node9"><a xlink:href="../../dc/d9e/classapplication_1_1_parser.html#a74e9be1b3f5d45542735791cf13baa90" target="_top" xlink:title="application.Parser.parse\lIterator">
<polygon fill="white" stroke="black" points="385.5,-62 385.5,-92 516.5,-92 516.5,-62 385.5,-62"/>
<text text-anchor="start" x="393.5" y="-80" font-family="Helvetica,sans-Serif" font-size="10.00">application.Parser.parse</text>
<text text-anchor="middle" x="451" y="-69" font-family="Helvetica,sans-Serif" font-size="10.00">Iterator</text>
</a>
</g>
</g>
<!-- Node8&#45;&gt;Node9 -->
<g id="edge8" class="edge"><title>Node8&#45;&gt;Node9</title>
<path fill="none" stroke="midnightblue" d="M302.702,-106.46C324.603,-102.079 351.087,-96.7827 375.523,-91.8954"/>
<polygon fill="midnightblue" stroke="midnightblue" points="376.37,-95.2953 385.49,-89.902 374.998,-88.4312 376.37,-95.2953"/>
</g>
<!-- Node10 -->
<g id="node10" class="node"><title>Node10</title>
<g id="a_node10"><a xlink:href="../../de/d31/classapplication_1_1_pattern_matcher.html#a2db70f4edd389c1f149acdebd3da0b7f" target="_top" xlink:title="application.PatternMatcher.check\lForMatch">
<polygon fill="white" stroke="black" points="581.5,-96 581.5,-126 756.5,-126 756.5,-96 581.5,-96"/>
<text text-anchor="start" x="589.5" y="-114" font-family="Helvetica,sans-Serif" font-size="10.00">application.PatternMatcher.check</text>
<text text-anchor="middle" x="669" y="-103" font-family="Helvetica,sans-Serif" font-size="10.00">ForMatch</text>
</a>
</g>
</g>
<!-- Node9&#45;&gt;Node10 -->
<g id="edge9" class="edge"><title>Node9&#45;&gt;Node10</title>
<path fill="none" stroke="midnightblue" d="M516.515,-87.1551C533.796,-89.8753 552.861,-92.8762 571.466,-95.8048"/>
<polygon fill="midnightblue" stroke="midnightblue" points="571.017,-99.2773 581.44,-97.3748 572.106,-92.3624 571.017,-99.2773"/>
</g>
<!-- Node12 -->
<g id="node12" class="node"><title>Node12</title>
<g id="a_node12"><a xlink:href="../../d0/d2d/classsyntax_1_1_syntax_handler.html#a5068c7316f7b220bb6a8ce045e5ebd47" target="_top" xlink:title="syntax.SyntaxHandler.handle">
<polygon fill="white" stroke="black" points="591,-57.5 591,-76.5 747,-76.5 747,-57.5 591,-57.5"/>
<text text-anchor="middle" x="669" y="-64.5" font-family="Helvetica,sans-Serif" font-size="10.00">syntax.SyntaxHandler.handle</text>
</a>
</g>
</g>
<!-- Node9&#45;&gt;Node12 -->
<g id="edge11" class="edge"><title>Node9&#45;&gt;Node12</title>
<path fill="none" stroke="midnightblue" d="M516.515,-74.0132C536.69,-73.0792 559.296,-72.0326 580.765,-71.0387"/>
<polygon fill="midnightblue" stroke="midnightblue" points="581.037,-74.5299 590.865,-70.5711 580.714,-67.5374 581.037,-74.5299"/>
</g>
<!-- Node13 -->
<g id="node13" class="node"><title>Node13</title>
<g id="a_node13"><a xlink:href="../../d5/d4b/classtree_1_1_tree_builder.html#a1e29a66ff647bc0ef8933f412cc16359" target="_top" xlink:title="tree.TreeBuilder.build">
<polygon fill="white" stroke="black" points="611,-19.5 611,-38.5 727,-38.5 727,-19.5 611,-19.5"/>
<text text-anchor="middle" x="669" y="-26.5" font-family="Helvetica,sans-Serif" font-size="10.00">tree.TreeBuilder.build</text>
</a>
</g>
</g>
<!-- Node9&#45;&gt;Node13 -->
<g id="edge12" class="edge"><title>Node9&#45;&gt;Node13</title>
<path fill="none" stroke="midnightblue" d="M509.374,-61.9659C528.019,-57.2654 548.84,-52.2115 568,-48 579.799,-45.4065 592.426,-42.8433 604.6,-40.4792"/>
<polygon fill="midnightblue" stroke="midnightblue" points="605.528,-43.865 614.69,-38.5438 604.209,-36.9903 605.528,-43.865"/>
</g>
<!-- Node11 -->
<g id="node11" class="node"><title>Node11</title>
<g id="a_node11"><a xlink:href="../../de/d31/classapplication_1_1_pattern_matcher.html#a463a0d665a268cd83796230ffb17ebdc" target="_top" xlink:title="application.PatternMatcher.match">
<polygon fill="white" stroke="black" points="817,-101.5 817,-120.5 995,-120.5 995,-101.5 817,-101.5"/>
<text text-anchor="middle" x="906" y="-108.5" font-family="Helvetica,sans-Serif" font-size="10.00">application.PatternMatcher.match</text>
</a>
</g>
</g>
<!-- Node10&#45;&gt;Node11 -->
<g id="edge10" class="edge"><title>Node10&#45;&gt;Node11</title>
<path fill="none" stroke="midnightblue" d="M756.504,-111C772.761,-111 789.87,-111 806.461,-111"/>
<polygon fill="midnightblue" stroke="midnightblue" points="806.712,-114.5 816.712,-111 806.712,-107.5 806.712,-114.5"/>
</g>
<!-- Node14 -->
<g id="node14" class="node"><title>Node14</title>
<g id="a_node14"><a xlink:href="../../d5/d4b/classtree_1_1_tree_builder.html#a4032cc1efc7fb77f4414d1bd58713d4b" target="_top" xlink:title="tree.TreeBuilder.addChildren">
<polygon fill="white" stroke="black" points="830.5,-19.5 830.5,-38.5 981.5,-38.5 981.5,-19.5 830.5,-19.5"/>
<text text-anchor="middle" x="906" y="-26.5" font-family="Helvetica,sans-Serif" font-size="10.00">tree.TreeBuilder.addChildren</text>
</a>
</g>
</g>
<!-- Node13&#45;&gt;Node14 -->
<g id="edge13" class="edge"><title>Node13&#45;&gt;Node14</title>
<path fill="none" stroke="midnightblue" d="M727.187,-29C755.017,-29 789.041,-29 819.847,-29"/>
<polygon fill="midnightblue" stroke="midnightblue" points="820.158,-32.5001 830.158,-29 820.158,-25.5001 820.158,-32.5001"/>
</g>
<!-- Node15 -->
<g id="node15" class="node"><title>Node15</title>
<g id="a_node15"><a xlink:href="../../d7/d99/classtree_1_1_command_node.html#a7a383438fa8edd362dddfc785615edd2" target="_top" xlink:title="tree.CommandNode.getArgNum">
<polygon fill="white" stroke="black" points="1042.5,-38.5 1042.5,-57.5 1215.5,-57.5 1215.5,-38.5 1042.5,-38.5"/>
<text text-anchor="middle" x="1129" y="-45.5" font-family="Helvetica,sans-Serif" font-size="10.00">tree.CommandNode.getArgNum</text>
</a>
</g>
</g>
<!-- Node14&#45;&gt;Node15 -->
<g id="edge14" class="edge"><title>Node14&#45;&gt;Node15</title>
<path fill="none" stroke="midnightblue" d="M981.512,-35.406C997.854,-36.8109 1015.37,-38.3172 1032.41,-39.782"/>
<polygon fill="midnightblue" stroke="midnightblue" points="1032.11,-43.2691 1042.38,-40.6386 1032.71,-36.2948 1032.11,-43.2691"/>
</g>
<!-- Node16 -->
<g id="node16" class="node"><title>Node16</title>
<g id="a_node16"><a xlink:href="../../d7/d99/classtree_1_1_command_node.html#ae5d7b13f887006572eb9bbaa3f0e9d4e" target="_top" xlink:title="tree.CommandNode.addChild">
<polygon fill="white" stroke="black" points="1049.5,-0.5 1049.5,-19.5 1208.5,-19.5 1208.5,-0.5 1049.5,-0.5"/>
<text text-anchor="middle" x="1129" y="-7.5" font-family="Helvetica,sans-Serif" font-size="10.00">tree.CommandNode.addChild</text>
</a>
</g>
</g>
<!-- Node14&#45;&gt;Node16 -->
<g id="edge15" class="edge"><title>Node14&#45;&gt;Node16</title>
<path fill="none" stroke="midnightblue" d="M981.512,-22.594C999.995,-21.005 1019.98,-19.2864 1039.08,-17.6447"/>
<polygon fill="midnightblue" stroke="midnightblue" points="1039.61,-21.112 1049.28,-16.7682 1039.01,-14.1377 1039.61,-21.112"/>
</g>
</g>
</svg>
        <g id="navigator" transform="translate(0 0)" fill="#404254">
                <rect fill="#f2f5e9" fill-opacity="0.5" stroke="#606060" stroke-width=".5" x="0" y="0" width="60" height="60"/>
                <use id="zoomplus" xlink:href="#zoomPlus" x="17" y="9" onmousedown="handleZoom(evt,'in')"/>
                <use id="zoomminus" xlink:href="#zoomMin" x="42" y="9" onmousedown="handleZoom(evt,'out')"/>
                <use id="reset" xlink:href="#resetDef" x="30" y="36" onmousedown="handleReset()"/>
                <g id="arrowUp" xlink:href="#dirArrow" transform="translate(30 24)" onmousedown="handlePan(0,-1)">
                  <use xlink:href="#rim" fill="#404040">
                        <set attributeName="fill" to="#808080" begin="arrowUp.mouseover" end="arrowUp.mouseout"/>
                  </use>
                  <path fill="none" stroke="white" stroke-width="1.5" d="M0,-3.0v7 M-2.5,-0.5L0,-3.0L2.5,-0.5"/>
                </g>
                <g id="arrowRight" xlink:href="#dirArrow" transform="rotate(90) translate(36 -43)" onmousedown="handlePan(1,0)">
                  <use xlink:href="#rim" fill="#404040">
                        <set attributeName="fill" to="#808080" begin="arrowRight.mouseover" end="arrowRight.mouseout"/>
                  </use>
                  <path fill="none" stroke="white" stroke-width="1.5" d="M0,-3.0v7 M-2.5,-0.5L0,-3.0L2.5,-0.5"/>
                </g>
                <g id="arrowDown" xlink:href="#dirArrow" transform="rotate(180) translate(-30 -48)" onmousedown="handlePan(0,1)">
                  <use xlink:href="#rim" fill="#404040">
                        <set attributeName="fill" to="#808080" begin="arrowDown.mouseover" end="arrowDown.mouseout"/>
                  </use>
                  <path fill="none" stroke="white" stroke-width="1.5" d="M0,-3.0v7 M-2.5,-0.5L0,-3.0L2.5,-0.5"/>
                </g>
                <g id="arrowLeft" xlink:href="#dirArrow" transform="rotate(270) translate(-36 17)" onmousedown="handlePan(-1,0)">
                  <use xlink:href="#rim" fill="#404040">
                        <set attributeName="fill" to="#808080" begin="arrowLeft.mouseover" end="arrowLeft.mouseout"/>
                  </use>
                  <path fill="none" stroke="white" stroke-width="1.5" d="M0,-3.0v7 M-2.5,-0.5L0,-3.0L2.5,-0.5"/>
                </g>
        </g>
        <svg viewBox="0 0 15 15" width="100%" height="30px" preserveAspectRatio="xMaxYMin meet">
         <g id="arrow_out" transform="scale(0.3 0.3)">
          <a xlink:href="classapplication_1_1_model_a9457364de27b16e384b02f2d679cb327_cgraph_org.svg" target="_base">
           <rect id="button" ry="5" rx="5" y="6" x="6" height="38" width="38"
                fill="#f2f5e9" fill-opacity="0.5" stroke="#606060" stroke-width="1.0"/>
           <path id="arrow"
             d="M 11.500037,31.436501 C 11.940474,20.09759 22.043105,11.32322 32.158766,21.979434 L 37.068811,17.246167 C 37.068811,17.246167 37.088388,32 37.088388,32 L 22.160133,31.978069 C 22.160133,31.978069 26.997745,27.140456 26.997745,27.140456 C 18.528582,18.264221 13.291696,25.230495 11.500037,31.436501 z"
             style="fill:#404040;"/>
          </a>
         </g>
        </svg>
</svg>
