<?xml version="1.0" encoding="UTF-8" standalone="no"?>
<!DOCTYPE svg PUBLIC "-//W3C//DTD SVG 1.1//EN"
 "http://www.w3.org/Graphics/SVG/1.1/DTD/svg11.dtd">
<!-- Generated by graphviz version 2.36.0 (20140111.2315)
 -->
<!-- Title: application.Model.updateCommandPatterns Pages: 1 -->
<svg width="530pt" height="77pt"
 viewBox="0.00 0.00 530.00 77.00" xmlns="http://www.w3.org/2000/svg" xmlns:xlink="http://www.w3.org/1999/xlink">
<g id="graph0" class="graph" transform="scale(1 1) rotate(0) translate(4 73)">
<title>application.Model.updateCommandPatterns</title>
<polygon fill="white" stroke="none" points="-4,4 -4,-73 526,-73 526,4 -4,4"/>
<!-- Node1 -->
<g id="node1" class="node"><title>Node1</title>
<polygon fill="#bfbfbf" stroke="black" points="0.5,-17 0.5,-47 137.5,-47 137.5,-17 0.5,-17"/>
<text text-anchor="start" x="8.5" y="-35" font-family="Helvetica,sans-Serif" font-size="10.00">application.Model.update</text>
<text text-anchor="middle" x="69" y="-24" font-family="Helvetica,sans-Serif" font-size="10.00">CommandPatterns</text>
</g>
<!-- Node2 -->
<g id="node2" class="node"><title>Node2</title>
<g id="a_node2"><a xlink:href="../../dc/d9e/classapplication_1_1_parser.html#a62688af8185b6fc69d3253cce9b75b5a" target="_top" xlink:title="application.Parser.update\lCommandPatterns">
<polygon fill="white" stroke="black" points="174.5,-17 174.5,-47 311.5,-47 311.5,-17 174.5,-17"/>
<text text-anchor="start" x="182.5" y="-35" font-family="Helvetica,sans-Serif" font-size="10.00">application.Parser.update</text>
<text text-anchor="middle" x="243" y="-24" font-family="Helvetica,sans-Serif" font-size="10.00">CommandPatterns</text>
</a>
</g>
</g>
<!-- Node1&#45;&gt;Node2 -->
<g id="edge1" class="edge"><title>Node1&#45;&gt;Node2</title>
<path fill="none" stroke="midnightblue" d="M137.979,-32C146.55,-32 155.372,-32 164.082,-32"/>
<polygon fill="midnightblue" stroke="midnightblue" points="164.233,-35.5001 174.233,-32 164.233,-28.5001 164.233,-35.5001"/>
</g>
<!-- Node3 -->
<g id="node3" class="node"><title>Node3</title>
<g id="a_node3"><a xlink:href="../../de/d31/classapplication_1_1_pattern_matcher.html#aa9ad491c96a7737068b2907dffd3f837" target="_top" xlink:title="application.PatternMatcher.make\lPatterns">
<polygon fill="white" stroke="black" points="348,-39 348,-69 522,-69 522,-39 348,-39"/>
<text text-anchor="start" x="356" y="-57" font-family="Helvetica,sans-Serif" font-size="10.00">application.PatternMatcher.make</text>
<text text-anchor="middle" x="435" y="-46" font-family="Helvetica,sans-Serif" font-size="10.00">Patterns</text>
</a>
</g>
</g>
<!-- Node2&#45;&gt;Node3 -->
<g id="edge2" class="edge"><title>Node2&#45;&gt;Node3</title>
<path fill="none" stroke="midnightblue" d="M311.522,-39.8183C320.047,-40.8054 328.894,-41.8299 337.756,-42.856"/>
<polygon fill="midnightblue" stroke="midnightblue" points="337.415,-46.3398 347.752,-44.0134 338.221,-39.3863 337.415,-46.3398"/>
</g>
<!-- Node4 -->
<g id="node4" class="node"><title>Node4</title>
<g id="a_node4"><a xlink:href="../../dd/d17/classapplication_1_1_model.html#aee52a4cb7337da546f826833d133c871" target="_top" xlink:title="application.Model.getLanguage">
<polygon fill="white" stroke="black" points="352,-0.5 352,-19.5 518,-19.5 518,-0.5 352,-0.5"/>
<text text-anchor="middle" x="435" y="-7.5" font-family="Helvetica,sans-Serif" font-size="10.00">application.Model.getLanguage</text>
</a>
</g>
</g>
<!-- Node2&#45;&gt;Node4 -->
<g id="edge3" class="edge"><title>Node2&#45;&gt;Node4</title>
<path fill="none" stroke="midnightblue" d="M311.522,-24.1817C321.282,-23.0516 331.465,-21.8725 341.608,-20.698"/>
<polygon fill="midnightblue" stroke="midnightblue" points="342.19,-24.1541 351.721,-19.5271 341.385,-17.2006 342.19,-24.1541"/>
</g>
</g>
</svg>
