<?xml version="1.0" encoding="UTF-8" standalone="no"?>
<!DOCTYPE svg PUBLIC "-//W3C//DTD SVG 1.1//EN"
 "http://www.w3.org/Graphics/SVG/1.1/DTD/svg11.dtd">
<!-- Generated by graphviz version 2.36.0 (20140111.2315)
 -->
<!-- Title: application.Model.getTurtleList Pages: 1 -->
<svg width="1098pt" height="231pt"
 viewBox="0.00 0.00 1098.00 230.93" xmlns="http://www.w3.org/2000/svg" xmlns:xlink="http://www.w3.org/1999/xlink">
<g id="graph0" class="graph" transform="scale(1 1) rotate(0) translate(4 226.933)">
<title>application.Model.getTurtleList</title>
<polygon fill="white" stroke="none" points="-4,4 -4,-226.933 1094,-226.933 1094,4 -4,4"/>
<!-- Node1 -->
<g id="node1" class="node"><title>Node1</title>
<polygon fill="#bfbfbf" stroke="black" points="0.5,-95.5 0.5,-114.5 161.5,-114.5 161.5,-95.5 0.5,-95.5"/>
<text text-anchor="middle" x="81" y="-102.5" font-family="Helvetica,sans-Serif" font-size="10.00">application.Model.getTurtleList</text>
</g>
<!-- Node2 -->
<g id="node2" class="node"><title>Node2</title>
<g id="a_node2"><a xlink:href="../../d3/dbe/classview_1_1_view.html#a6c2525fe1f26dc400c48823ce4f0d057" target="_top" xlink:title="view.View.addModelListeners">
<polygon fill="white" stroke="black" points="604.5,-199.5 604.5,-218.5 757.5,-218.5 757.5,-199.5 604.5,-199.5"/>
<text text-anchor="middle" x="681" y="-206.5" font-family="Helvetica,sans-Serif" font-size="10.00">view.View.addModelListeners</text>
</a>
</g>
</g>
<!-- Node1&#45;&gt;Node2 -->
<g id="edge1" class="edge"><title>Node1&#45;&gt;Node2</title>
<path fill="none" stroke="midnightblue" d="M99.3756,-121.448C120.697,-140.459 158.86,-170.818 198,-184 335.38,-230.267 507.202,-225.418 604.177,-217.411"/>
<polygon fill="midnightblue" stroke="midnightblue" points="101.557,-118.701 91.8121,-114.544 96.8381,-123.871 101.557,-118.701"/>
</g>
<!-- Node5 -->
<g id="node5" class="node"><title>Node5</title>
<g id="a_node5"><a xlink:href="../../d4/d54/classview_1_1_turtle_state.html#a3e4441bdb52aa2698734b68d1c2f851a" target="_top" xlink:title="view.TurtleState.attrib">
<polygon fill="white" stroke="black" points="218.5,-155.5 218.5,-174.5 337.5,-174.5 337.5,-155.5 218.5,-155.5"/>
<text text-anchor="middle" x="278" y="-162.5" font-family="Helvetica,sans-Serif" font-size="10.00">view.TurtleState.attrib</text>
</a>
</g>
</g>
<!-- Node1&#45;&gt;Node5 -->
<g id="edge4" class="edge"><title>Node1&#45;&gt;Node5</title>
<path fill="none" stroke="midnightblue" d="M122.78,-117.548C159.466,-128.836 212.576,-145.177 245.924,-155.438"/>
<polygon fill="midnightblue" stroke="midnightblue" points="123.485,-114.103 112.898,-114.507 121.427,-120.793 123.485,-114.103"/>
</g>
<!-- Node7 -->
<g id="node7" class="node"><title>Node7</title>
<g id="a_node7"><a xlink:href="../../d3/dbe/classview_1_1_view.html#aef3f2dd859a6a5c719987365a9afb905" target="_top" xlink:title="view.View.start">
<polygon fill="white" stroke="black" points="638,-158.5 638,-177.5 724,-177.5 724,-158.5 638,-158.5"/>
<text text-anchor="middle" x="681" y="-165.5" font-family="Helvetica,sans-Serif" font-size="10.00">view.View.start</text>
</a>
</g>
</g>
<!-- Node1&#45;&gt;Node7 -->
<g id="edge16" class="edge"><title>Node1&#45;&gt;Node7</title>
<path fill="none" stroke="midnightblue" d="M172.064,-108.692C269.926,-113.526 430.692,-123.868 568,-144 592.693,-147.62 620.092,-153.459 641.61,-158.471"/>
<polygon fill="midnightblue" stroke="midnightblue" points="172.072,-105.189 161.914,-108.199 171.732,-112.18 172.072,-105.189"/>
</g>
<!-- Node8 -->
<g id="node8" class="node"><title>Node8</title>
<g id="a_node8"><a xlink:href="../../d7/d99/classtree_1_1_command_node.html#a5bebc2f70e6e3486c403b9cdb0ce04cb" target="_top" xlink:title="tree.CommandNode.evaluate">
<polygon fill="white" stroke="black" points="198.5,-76.5 198.5,-95.5 357.5,-95.5 357.5,-76.5 198.5,-76.5"/>
<text text-anchor="middle" x="278" y="-83.5" font-family="Helvetica,sans-Serif" font-size="10.00">tree.CommandNode.evaluate</text>
</a>
</g>
</g>
<!-- Node1&#45;&gt;Node8 -->
<g id="edge8" class="edge"><title>Node1&#45;&gt;Node8</title>
<path fill="none" stroke="midnightblue" d="M171.6,-96.2698C180.508,-95.4018 189.505,-94.5252 198.29,-93.6691"/>
<polygon fill="midnightblue" stroke="midnightblue" points="171.209,-92.7912 161.595,-97.2446 171.888,-99.7582 171.209,-92.7912"/>
</g>
<!-- Node10 -->
<g id="node10" class="node"><title>Node10</title>
<g id="a_node10"><a xlink:href="../../de/d74/classcommands_1_1_ask.html#a9d61a23c4bf1adad72ae5f73bc820b92" target="_top" xlink:title="commands.Ask.function">
<polygon fill="white" stroke="black" points="415,-0.5 415,-19.5 547,-19.5 547,-0.5 415,-0.5"/>
<text text-anchor="middle" x="481" y="-7.5" font-family="Helvetica,sans-Serif" font-size="10.00">commands.Ask.function</text>
</a>
</g>
</g>
<!-- Node1&#45;&gt;Node10 -->
<g id="edge15" class="edge"><title>Node1&#45;&gt;Node10</title>
<path fill="none" stroke="midnightblue" d="M118.035,-91.9869C140.772,-84.0783 170.869,-74.1594 198,-67 275.031,-46.6726 365.543,-29.5484 422.835,-19.5267"/>
<polygon fill="midnightblue" stroke="midnightblue" points="116.733,-88.7345 108.458,-95.3504 119.053,-95.339 116.733,-88.7345"/>
</g>
<!-- Node14 -->
<g id="node14" class="node"><title>Node14</title>
<g id="a_node14"><a xlink:href="../../df/d6d/classcommands_1_1_tell.html#ae9a130ae492df45b33f1e45d4aafd255" target="_top" xlink:title="commands.Tell.function">
<polygon fill="white" stroke="black" points="213.5,-0.5 213.5,-19.5 342.5,-19.5 342.5,-0.5 213.5,-0.5"/>
<text text-anchor="middle" x="278" y="-7.5" font-family="Helvetica,sans-Serif" font-size="10.00">commands.Tell.function</text>
</a>
</g>
</g>
<!-- Node1&#45;&gt;Node14 -->
<g id="edge14" class="edge"><title>Node1&#45;&gt;Node14</title>
<path fill="none" stroke="midnightblue" d="M103.507,-89.5204C126.127,-73.8066 163.202,-49.6272 198,-34 210.815,-28.2452 225.395,-23.3793 238.512,-19.5651"/>
<polygon fill="midnightblue" stroke="midnightblue" points="101.468,-86.6752 95.3024,-95.2909 105.495,-92.4009 101.468,-86.6752"/>
</g>
<!-- Node3 -->
<g id="node3" class="node"><title>Node3</title>
<g id="a_node3"><a xlink:href="../../d4/d9d/classapplication_1_1_wrapper.html#a4be5486a54f6d10d816c3ff49e82ecb9" target="_top" xlink:title="application.Wrapper.make\lNewWindow">
<polygon fill="white" stroke="black" points="794,-173 794,-203 934,-203 934,-173 794,-173"/>
<text text-anchor="start" x="802" y="-191" font-family="Helvetica,sans-Serif" font-size="10.00">application.Wrapper.make</text>
<text text-anchor="middle" x="864" y="-180" font-family="Helvetica,sans-Serif" font-size="10.00">NewWindow</text>
</a>
</g>
</g>
<!-- Node2&#45;&gt;Node3 -->
<g id="edge2" class="edge"><title>Node2&#45;&gt;Node3</title>
<path fill="none" stroke="midnightblue" d="M767.912,-199.032C776.64,-198.02 785.426,-197 793.942,-196.012"/>
<polygon fill="midnightblue" stroke="midnightblue" points="767.242,-195.587 757.712,-200.216 768.048,-202.54 767.242,-195.587"/>
</g>
<!-- Node4 -->
<g id="node4" class="node"><title>Node4</title>
<g id="a_node4"><a xlink:href="../../d9/d96/classapplication_1_1_main.html#a4e5ad4e3de8bbd8654120180a94e870d" target="_top" xlink:title="application.Main.start">
<polygon fill="white" stroke="black" points="970.5,-178.5 970.5,-197.5 1089.5,-197.5 1089.5,-178.5 970.5,-178.5"/>
<text text-anchor="middle" x="1030" y="-185.5" font-family="Helvetica,sans-Serif" font-size="10.00">application.Main.start</text>
</a>
</g>
</g>
<!-- Node3&#45;&gt;Node4 -->
<g id="edge3" class="edge"><title>Node3&#45;&gt;Node4</title>
<path fill="none" stroke="midnightblue" d="M944.335,-188C953.112,-188 961.929,-188 970.384,-188"/>
<polygon fill="midnightblue" stroke="midnightblue" points="944.075,-184.5 934.075,-188 944.075,-191.5 944.075,-184.5"/>
</g>
<!-- Node6 -->
<g id="node6" class="node"><title>Node6</title>
<g id="a_node6"><a xlink:href="../../d4/d54/classview_1_1_turtle_state.html#a79db2ab9487e3436d6672f1de33b5605" target="_top" xlink:title="view.TurtleState.initiate\lState">
<polygon fill="white" stroke="black" points="418,-153 418,-183 544,-183 544,-153 418,-153"/>
<text text-anchor="start" x="426" y="-171" font-family="Helvetica,sans-Serif" font-size="10.00">view.TurtleState.initiate</text>
<text text-anchor="middle" x="481" y="-160" font-family="Helvetica,sans-Serif" font-size="10.00">State</text>
</a>
</g>
</g>
<!-- Node5&#45;&gt;Node6 -->
<g id="edge5" class="edge"><title>Node5&#45;&gt;Node6</title>
<path fill="none" stroke="midnightblue" d="M347.902,-166.028C370.563,-166.367 395.609,-166.74 417.746,-167.071"/>
<polygon fill="midnightblue" stroke="midnightblue" points="347.729,-162.526 337.678,-165.876 347.624,-169.525 347.729,-162.526"/>
</g>
<!-- Node6&#45;&gt;Node7 -->
<g id="edge6" class="edge"><title>Node6&#45;&gt;Node7</title>
<path fill="none" stroke="midnightblue" d="M554.293,-168C582.376,-168 613.558,-168 637.84,-168"/>
<polygon fill="midnightblue" stroke="midnightblue" points="554.105,-164.5 544.105,-168 554.105,-171.5 554.105,-164.5"/>
</g>
<!-- Node7&#45;&gt;Node3 -->
<g id="edge7" class="edge"><title>Node7&#45;&gt;Node3</title>
<path fill="none" stroke="midnightblue" d="M734.454,-173.796C753.016,-175.847 774.189,-178.187 793.92,-180.367"/>
<polygon fill="midnightblue" stroke="midnightblue" points="734.76,-170.309 724.436,-172.689 733.992,-177.266 734.76,-170.309"/>
</g>
<!-- Node9 -->
<g id="node9" class="node"><title>Node9</title>
<g id="a_node9"><a xlink:href="../../dd/d17/classapplication_1_1_model.html#a9457364de27b16e384b02f2d679cb327" target="_top" xlink:title="application.Model.update">
<polygon fill="white" stroke="black" points="412.5,-76.5 412.5,-95.5 549.5,-95.5 549.5,-76.5 412.5,-76.5"/>
<text text-anchor="middle" x="481" y="-83.5" font-family="Helvetica,sans-Serif" font-size="10.00">application.Model.update</text>
</a>
</g>
</g>
<!-- Node8&#45;&gt;Node9 -->
<g id="edge9" class="edge"><title>Node8&#45;&gt;Node9</title>
<path fill="none" stroke="midnightblue" d="M367.821,-86C382.724,-86 397.975,-86 412.237,-86"/>
<polygon fill="midnightblue" stroke="midnightblue" points="367.575,-82.5001 357.575,-86 367.575,-89.5001 367.575,-82.5001"/>
</g>
<!-- Node8&#45;&gt;Node10 -->
<g id="edge10" class="edge"><title>Node8&#45;&gt;Node10</title>
<path fill="none" stroke="midnightblue" d="M332.842,-73.1997C341.532,-70.1398 350.22,-66.4383 358,-62 376.853,-51.2445 374.745,-39.017 394,-29 401.461,-25.1188 409.685,-22.0283 418.001,-19.5679"/>
<polygon fill="midnightblue" stroke="midnightblue" points="331.498,-69.9564 323.078,-76.387 333.671,-76.6109 331.498,-69.9564"/>
</g>
<!-- Node11 -->
<g id="node11" class="node"><title>Node11</title>
<g id="a_node11"><a xlink:href="../../dd/dec/classcommands_1_1_if.html#af4992935265deb1e4759cd6579da4680" target="_top" xlink:title="commands.If.evaluateCommand">
<polygon fill="white" stroke="black" points="394.5,-38.5 394.5,-57.5 567.5,-57.5 567.5,-38.5 394.5,-38.5"/>
<text text-anchor="middle" x="481" y="-45.5" font-family="Helvetica,sans-Serif" font-size="10.00">commands.If.evaluateCommand</text>
</a>
</g>
</g>
<!-- Node8&#45;&gt;Node11 -->
<g id="edge11" class="edge"><title>Node8&#45;&gt;Node11</title>
<path fill="none" stroke="midnightblue" d="M339.396,-74.5819C368.155,-69.1448 402.156,-62.7168 429.518,-57.5439"/>
<polygon fill="midnightblue" stroke="midnightblue" points="338.637,-71.1632 329.461,-76.46 339.937,-78.0414 338.637,-71.1632"/>
</g>
<!-- Node12 -->
<g id="node12" class="node"><title>Node12</title>
<g id="a_node12"><a xlink:href="../../dd/dec/classcommands_1_1_if.html#a2a8e2fd04325679983dae1be727b5772" target="_top" xlink:title="commands.If.function">
<polygon fill="white" stroke="black" points="621.5,-57.5 621.5,-76.5 740.5,-76.5 740.5,-57.5 621.5,-57.5"/>
<text text-anchor="middle" x="681" y="-64.5" font-family="Helvetica,sans-Serif" font-size="10.00">commands.If.function</text>
</a>
</g>
</g>
<!-- Node11&#45;&gt;Node12 -->
<g id="edge12" class="edge"><title>Node11&#45;&gt;Node12</title>
<path fill="none" stroke="midnightblue" d="M577.912,-57.2037C592.716,-58.6243 607.612,-60.0537 621.275,-61.3648"/>
<polygon fill="midnightblue" stroke="midnightblue" points="577.983,-53.6945 567.694,-56.2232 577.314,-60.6625 577.983,-53.6945"/>
</g>
<!-- Node13 -->
<g id="node13" class="node"><title>Node13</title>
<g id="a_node13"><a xlink:href="../../d8/dc1/classcommands_1_1_if_else.html#a8a6526a96655b8c3f5b5d933c1aacc64" target="_top" xlink:title="commands.IfElse.function">
<polygon fill="white" stroke="black" points="611,-19.5 611,-38.5 751,-38.5 751,-19.5 611,-19.5"/>
<text text-anchor="middle" x="681" y="-26.5" font-family="Helvetica,sans-Serif" font-size="10.00">commands.IfElse.function</text>
</a>
</g>
</g>
<!-- Node11&#45;&gt;Node13 -->
<g id="edge13" class="edge"><title>Node11&#45;&gt;Node13</title>
<path fill="none" stroke="midnightblue" d="M577.882,-38.7992C589.01,-37.7314 600.19,-36.6585 610.86,-35.6346"/>
<polygon fill="midnightblue" stroke="midnightblue" points="577.314,-35.3375 567.694,-39.7768 577.983,-42.3055 577.314,-35.3375"/>
</g>
</g>
</svg>
