<?xml version="1.0" encoding="UTF-8" standalone="no"?>
<!DOCTYPE svg PUBLIC "-//W3C//DTD SVG 1.1//EN"
 "http://www.w3.org/Graphics/SVG/1.1/DTD/svg11.dtd">
<!-- Generated by graphviz version 2.36.0 (20140111.2315)
 -->
<!-- Title: application.Model.clearStampProperty Pages: 1 -->
<svg width="706pt" height="71pt"
 viewBox="0.00 0.00 706.00 71.00" xmlns="http://www.w3.org/2000/svg" xmlns:xlink="http://www.w3.org/1999/xlink">
<g id="graph0" class="graph" transform="scale(1 1) rotate(0) translate(4 67)">
<title>application.Model.clearStampProperty</title>
<polygon fill="white" stroke="none" points="-4,4 -4,-67 702,-67 702,4 -4,4"/>
<!-- Node1 -->
<g id="node1" class="node"><title>Node1</title>
<polygon fill="#bfbfbf" stroke="black" points="0,-14 0,-44 158,-44 158,-14 0,-14"/>
<text text-anchor="start" x="8" y="-32" font-family="Helvetica,sans-Serif" font-size="10.00">application.Model.clearStamp</text>
<text text-anchor="middle" x="79" y="-21" font-family="Helvetica,sans-Serif" font-size="10.00">Property</text>
</g>
<!-- Node2 -->
<g id="node2" class="node"><title>Node2</title>
<g id="a_node2"><a xlink:href="../../d3/dbe/classview_1_1_view.html#a6c2525fe1f26dc400c48823ce4f0d057" target="_top" xlink:title="view.View.addModelListeners">
<polygon fill="white" stroke="black" points="203.5,-38.5 203.5,-57.5 356.5,-57.5 356.5,-38.5 203.5,-38.5"/>
<text text-anchor="middle" x="280" y="-45.5" font-family="Helvetica,sans-Serif" font-size="10.00">view.View.addModelListeners</text>
</a>
</g>
</g>
<!-- Node1&#45;&gt;Node2 -->
<g id="edge1" class="edge"><title>Node1&#45;&gt;Node2</title>
<path fill="none" stroke="midnightblue" d="M168.306,-37.4312C180.023,-38.5499 191.95,-39.6887 203.426,-40.7844"/>
<polygon fill="midnightblue" stroke="midnightblue" points="168.366,-33.9212 158.079,-36.4548 167.701,-40.8895 168.366,-33.9212"/>
</g>
<!-- Node5 -->
<g id="node5" class="node"><title>Node5</title>
<g id="a_node5"><a xlink:href="../../d6/dd9/classcommands_1_1_clear_stamp.html#a94e21b0f5273c51734f7e56e2cab6171" target="_top" xlink:title="commands.ClearStamp.function">
<polygon fill="white" stroke="black" points="194,-0.5 194,-19.5 366,-19.5 366,-0.5 194,-0.5"/>
<text text-anchor="middle" x="280" y="-7.5" font-family="Helvetica,sans-Serif" font-size="10.00">commands.ClearStamp.function</text>
</a>
</g>
</g>
<!-- Node1&#45;&gt;Node5 -->
<g id="edge4" class="edge"><title>Node1&#45;&gt;Node5</title>
<path fill="none" stroke="midnightblue" d="M168.085,-20.5898C176.667,-19.7705 185.364,-18.9401 193.916,-18.1236"/>
<polygon fill="midnightblue" stroke="midnightblue" points="167.701,-17.1105 158.079,-21.5452 168.366,-24.0788 167.701,-17.1105"/>
</g>
<!-- Node3 -->
<g id="node3" class="node"><title>Node3</title>
<g id="a_node3"><a xlink:href="../../d4/d9d/classapplication_1_1_wrapper.html#a4be5486a54f6d10d816c3ff49e82ecb9" target="_top" xlink:title="application.Wrapper.make\lNewWindow">
<polygon fill="white" stroke="black" points="402,-33 402,-63 542,-63 542,-33 402,-33"/>
<text text-anchor="start" x="410" y="-51" font-family="Helvetica,sans-Serif" font-size="10.00">application.Wrapper.make</text>
<text text-anchor="middle" x="472" y="-40" font-family="Helvetica,sans-Serif" font-size="10.00">NewWindow</text>
</a>
</g>
</g>
<!-- Node2&#45;&gt;Node3 -->
<g id="edge2" class="edge"><title>Node2&#45;&gt;Node3</title>
<path fill="none" stroke="midnightblue" d="M366.852,-48C378.549,-48 390.432,-48 401.784,-48"/>
<polygon fill="midnightblue" stroke="midnightblue" points="366.639,-44.5001 356.639,-48 366.639,-51.5001 366.639,-44.5001"/>
</g>
<!-- Node4 -->
<g id="node4" class="node"><title>Node4</title>
<g id="a_node4"><a xlink:href="../../d9/d96/classapplication_1_1_main.html#a4e5ad4e3de8bbd8654120180a94e870d" target="_top" xlink:title="application.Main.start">
<polygon fill="white" stroke="black" points="578.5,-38.5 578.5,-57.5 697.5,-57.5 697.5,-38.5 578.5,-38.5"/>
<text text-anchor="middle" x="638" y="-45.5" font-family="Helvetica,sans-Serif" font-size="10.00">application.Main.start</text>
</a>
</g>
</g>
<!-- Node3&#45;&gt;Node4 -->
<g id="edge3" class="edge"><title>Node3&#45;&gt;Node4</title>
<path fill="none" stroke="midnightblue" d="M552.335,-48C561.112,-48 569.929,-48 578.384,-48"/>
<polygon fill="midnightblue" stroke="midnightblue" points="552.075,-44.5001 542.075,-48 552.075,-51.5001 552.075,-44.5001"/>
</g>
</g>
</svg>
