<?xml version="1.0" encoding="UTF-8" standalone="no"?>
<!DOCTYPE svg PUBLIC "-//W3C//DTD SVG 1.1//EN"
 "http://www.w3.org/Graphics/SVG/1.1/DTD/svg11.dtd">
<!-- Generated by graphviz version 2.36.0 (20140111.2315)
 -->
<!-- Title: application.Model.penColorProperty Pages: 1 -->
<svg width="696pt" height="71pt"
 viewBox="0.00 0.00 696.00 71.00" xmlns="http://www.w3.org/2000/svg" xmlns:xlink="http://www.w3.org/1999/xlink">
<g id="graph0" class="graph" transform="scale(1 1) rotate(0) translate(4 67)">
<title>application.Model.penColorProperty</title>
<polygon fill="white" stroke="none" points="-4,4 -4,-67 692,-67 692,4 -4,4"/>
<!-- Node1 -->
<g id="node1" class="node"><title>Node1</title>
<polygon fill="#bfbfbf" stroke="black" points="0,-14 0,-44 146,-44 146,-14 0,-14"/>
<text text-anchor="start" x="8" y="-32" font-family="Helvetica,sans-Serif" font-size="10.00">application.Model.penColor</text>
<text text-anchor="middle" x="73" y="-21" font-family="Helvetica,sans-Serif" font-size="10.00">Property</text>
</g>
<!-- Node2 -->
<g id="node2" class="node"><title>Node2</title>
<g id="a_node2"><a xlink:href="../../d3/dbe/classview_1_1_view.html#a6c2525fe1f26dc400c48823ce4f0d057" target="_top" xlink:title="view.View.addModelListeners">
<polygon fill="white" stroke="black" points="192.5,-38.5 192.5,-57.5 345.5,-57.5 345.5,-38.5 192.5,-38.5"/>
<text text-anchor="middle" x="269" y="-45.5" font-family="Helvetica,sans-Serif" font-size="10.00">view.View.addModelListeners</text>
</a>
</g>
</g>
<!-- Node1&#45;&gt;Node2 -->
<g id="edge1" class="edge"><title>Node1&#45;&gt;Node2</title>
<path fill="none" stroke="midnightblue" d="M156.242,-37.0546C168.258,-38.2314 180.583,-39.4385 192.456,-40.6014"/>
<polygon fill="midnightblue" stroke="midnightblue" points="156.532,-33.5664 146.238,-36.0749 155.85,-40.533 156.532,-33.5664"/>
</g>
<!-- Node5 -->
<g id="node5" class="node"><title>Node5</title>
<g id="a_node5"><a xlink:href="../../dc/d0f/classcommands_1_1_set_pen_color.html#a164176f9d1a0b78612e194ba28a23e48" target="_top" xlink:title="commands.SetPenColor.function">
<polygon fill="white" stroke="black" points="182.5,-0.5 182.5,-19.5 355.5,-19.5 355.5,-0.5 182.5,-0.5"/>
<text text-anchor="middle" x="269" y="-7.5" font-family="Helvetica,sans-Serif" font-size="10.00">commands.SetPenColor.function</text>
</a>
</g>
</g>
<!-- Node1&#45;&gt;Node5 -->
<g id="edge4" class="edge"><title>Node1&#45;&gt;Node5</title>
<path fill="none" stroke="midnightblue" d="M156.252,-20.9443C164.859,-20.1014 173.625,-19.2429 182.269,-18.3963"/>
<polygon fill="midnightblue" stroke="midnightblue" points="155.85,-17.467 146.238,-21.9251 156.532,-24.4336 155.85,-17.467"/>
</g>
<!-- Node3 -->
<g id="node3" class="node"><title>Node3</title>
<g id="a_node3"><a xlink:href="../../d4/d9d/classapplication_1_1_wrapper.html#a4be5486a54f6d10d816c3ff49e82ecb9" target="_top" xlink:title="application.Wrapper.make\lNewWindow">
<polygon fill="white" stroke="black" points="392,-33 392,-63 532,-63 532,-33 392,-33"/>
<text text-anchor="start" x="400" y="-51" font-family="Helvetica,sans-Serif" font-size="10.00">application.Wrapper.make</text>
<text text-anchor="middle" x="462" y="-40" font-family="Helvetica,sans-Serif" font-size="10.00">NewWindow</text>
</a>
</g>
</g>
<!-- Node2&#45;&gt;Node3 -->
<g id="edge2" class="edge"><title>Node2&#45;&gt;Node3</title>
<path fill="none" stroke="midnightblue" d="M355.825,-48C367.882,-48 380.147,-48 391.841,-48"/>
<polygon fill="midnightblue" stroke="midnightblue" points="355.763,-44.5001 345.763,-48 355.763,-51.5001 355.763,-44.5001"/>
</g>
<!-- Node4 -->
<g id="node4" class="node"><title>Node4</title>
<g id="a_node4"><a xlink:href="../../d9/d96/classapplication_1_1_main.html#a4e5ad4e3de8bbd8654120180a94e870d" target="_top" xlink:title="application.Main.start">
<polygon fill="white" stroke="black" points="568.5,-38.5 568.5,-57.5 687.5,-57.5 687.5,-38.5 568.5,-38.5"/>
<text text-anchor="middle" x="628" y="-45.5" font-family="Helvetica,sans-Serif" font-size="10.00">application.Main.start</text>
</a>
</g>
</g>
<!-- Node3&#45;&gt;Node4 -->
<g id="edge3" class="edge"><title>Node3&#45;&gt;Node4</title>
<path fill="none" stroke="midnightblue" d="M542.335,-48C551.112,-48 559.929,-48 568.384,-48"/>
<polygon fill="midnightblue" stroke="midnightblue" points="542.075,-44.5001 532.075,-48 542.075,-51.5001 542.075,-44.5001"/>
</g>
</g>
</svg>
