<?xml version="1.0" encoding="UTF-8" standalone="no"?>
<!DOCTYPE svg PUBLIC "-//W3C//DTD SVG 1.1//EN"
 "http://www.w3.org/Graphics/SVG/1.1/DTD/svg11.dtd">
<!-- Generated by graphviz version 2.36.0 (20140111.2315)
 -->
<!-- Title: application.Model.setLanguage Pages: 1 -->
<svg width="876pt" height="75pt"
 viewBox="0.00 0.00 876.00 75.00" xmlns="http://www.w3.org/2000/svg" xmlns:xlink="http://www.w3.org/1999/xlink">
<g id="graph0" class="graph" transform="scale(1 1) rotate(0) translate(4 71)">
<title>application.Model.setLanguage</title>
<polygon fill="white" stroke="none" points="-4,4 -4,-71 872,-71 872,4 -4,4"/>
<!-- Node1 -->
<g id="node1" class="node"><title>Node1</title>
<polygon fill="#bfbfbf" stroke="black" points="0.5,-27.5 0.5,-46.5 165.5,-46.5 165.5,-27.5 0.5,-27.5"/>
<text text-anchor="middle" x="83" y="-34.5" font-family="Helvetica,sans-Serif" font-size="10.00">application.Model.setLanguage</text>
</g>
<!-- Node2 -->
<g id="node2" class="node"><title>Node2</title>
<g id="a_node2"><a xlink:href="../../d3/dbe/classview_1_1_view.html#a6c2525fe1f26dc400c48823ce4f0d057" target="_top" xlink:title="view.View.addModelListeners">
<polygon fill="white" stroke="black" points="382.5,-47.5 382.5,-66.5 535.5,-66.5 535.5,-47.5 382.5,-47.5"/>
<text text-anchor="middle" x="459" y="-54.5" font-family="Helvetica,sans-Serif" font-size="10.00">view.View.addModelListeners</text>
</a>
</g>
</g>
<!-- Node1&#45;&gt;Node2 -->
<g id="edge1" class="edge"><title>Node1&#45;&gt;Node2</title>
<path fill="none" stroke="midnightblue" d="M175.622,-41.8996C239.095,-45.2939 322.588,-49.7587 382.291,-52.9514"/>
<polygon fill="midnightblue" stroke="midnightblue" points="175.786,-38.4035 165.614,-41.3644 175.413,-45.3935 175.786,-38.4035"/>
</g>
<!-- Node5 -->
<g id="node5" class="node"><title>Node5</title>
<g id="a_node5"><a xlink:href="../../df/d10/classview_1_1_language_chooser.html#a638bfb57c9d44edbc77c09dbbea172f2" target="_top" xlink:title="view.LanguageChooser.set\lLanguage">
<polygon fill="white" stroke="black" points="202.5,-0 202.5,-30 345.5,-30 345.5,-0 202.5,-0"/>
<text text-anchor="start" x="210.5" y="-18" font-family="Helvetica,sans-Serif" font-size="10.00">view.LanguageChooser.set</text>
<text text-anchor="middle" x="274" y="-7" font-family="Helvetica,sans-Serif" font-size="10.00">Language</text>
</a>
</g>
</g>
<!-- Node1&#45;&gt;Node5 -->
<g id="edge4" class="edge"><title>Node1&#45;&gt;Node5</title>
<path fill="none" stroke="midnightblue" d="M175.654,-26.3312C184.655,-25.2835 193.69,-24.2318 202.433,-23.2142"/>
<polygon fill="midnightblue" stroke="midnightblue" points="175.053,-22.8776 165.524,-27.5104 175.862,-29.8306 175.053,-22.8776"/>
</g>
<!-- Node3 -->
<g id="node3" class="node"><title>Node3</title>
<g id="a_node3"><a xlink:href="../../d4/d9d/classapplication_1_1_wrapper.html#a4be5486a54f6d10d816c3ff49e82ecb9" target="_top" xlink:title="application.Wrapper.make\lNewWindow">
<polygon fill="white" stroke="black" points="572,-22 572,-52 712,-52 712,-22 572,-22"/>
<text text-anchor="start" x="580" y="-40" font-family="Helvetica,sans-Serif" font-size="10.00">application.Wrapper.make</text>
<text text-anchor="middle" x="642" y="-29" font-family="Helvetica,sans-Serif" font-size="10.00">NewWindow</text>
</a>
</g>
</g>
<!-- Node2&#45;&gt;Node3 -->
<g id="edge2" class="edge"><title>Node2&#45;&gt;Node3</title>
<path fill="none" stroke="midnightblue" d="M545.912,-47.507C554.64,-46.5425 563.426,-45.5717 571.942,-44.6307"/>
<polygon fill="midnightblue" stroke="midnightblue" points="545.267,-44.0569 535.712,-48.6341 546.035,-51.0145 545.267,-44.0569"/>
</g>
<!-- Node4 -->
<g id="node4" class="node"><title>Node4</title>
<g id="a_node4"><a xlink:href="../../d9/d96/classapplication_1_1_main.html#a4e5ad4e3de8bbd8654120180a94e870d" target="_top" xlink:title="application.Main.start">
<polygon fill="white" stroke="black" points="748.5,-27.5 748.5,-46.5 867.5,-46.5 867.5,-27.5 748.5,-27.5"/>
<text text-anchor="middle" x="808" y="-34.5" font-family="Helvetica,sans-Serif" font-size="10.00">application.Main.start</text>
</a>
</g>
</g>
<!-- Node3&#45;&gt;Node4 -->
<g id="edge3" class="edge"><title>Node3&#45;&gt;Node4</title>
<path fill="none" stroke="midnightblue" d="M722.335,-37C731.112,-37 739.929,-37 748.384,-37"/>
<polygon fill="midnightblue" stroke="midnightblue" points="722.075,-33.5001 712.075,-37 722.075,-40.5001 722.075,-33.5001"/>
</g>
<!-- Node6 -->
<g id="node6" class="node"><title>Node6</title>
<g id="a_node6"><a xlink:href="../../d3/dbe/classview_1_1_view.html#aef3f2dd859a6a5c719987365a9afb905" target="_top" xlink:title="view.View.start">
<polygon fill="white" stroke="black" points="416,-8.5 416,-27.5 502,-27.5 502,-8.5 416,-8.5"/>
<text text-anchor="middle" x="459" y="-15.5" font-family="Helvetica,sans-Serif" font-size="10.00">view.View.start</text>
</a>
</g>
</g>
<!-- Node5&#45;&gt;Node6 -->
<g id="edge5" class="edge"><title>Node5&#45;&gt;Node6</title>
<path fill="none" stroke="midnightblue" d="M355.821,-16.3249C376.489,-16.6638 397.894,-17.0147 415.741,-17.3072"/>
<polygon fill="midnightblue" stroke="midnightblue" points="355.809,-12.8244 345.753,-16.1599 355.694,-19.8234 355.809,-12.8244"/>
</g>
<!-- Node6&#45;&gt;Node3 -->
<g id="edge6" class="edge"><title>Node6&#45;&gt;Node3</title>
<path fill="none" stroke="midnightblue" d="M512.454,-23.5063C531.016,-25.4547 552.189,-27.6773 571.92,-29.7485"/>
<polygon fill="midnightblue" stroke="midnightblue" points="512.747,-20.0179 502.436,-22.4547 512.016,-26.9796 512.747,-20.0179"/>
</g>
</g>
</svg>
