<?xml version="1.0" encoding="UTF-8" standalone="no"?>
<!DOCTYPE svg PUBLIC "-//W3C//DTD SVG 1.1//EN"
 "http://www.w3.org/Graphics/SVG/1.1/DTD/svg11.dtd">
<!-- Generated by graphviz version 2.36.0 (20140111.2315)
 -->
<!-- Title: application.Model.clearScreenProperty Pages: 1 -->
<svg width="710pt" height="71pt"
 viewBox="0.00 0.00 710.00 71.00" xmlns="http://www.w3.org/2000/svg" xmlns:xlink="http://www.w3.org/1999/xlink">
<g id="graph0" class="graph" transform="scale(1 1) rotate(0) translate(4 67)">
<title>application.Model.clearScreenProperty</title>
<polygon fill="white" stroke="none" points="-4,4 -4,-67 706,-67 706,4 -4,4"/>
<!-- Node1 -->
<g id="node1" class="node"><title>Node1</title>
<polygon fill="#bfbfbf" stroke="black" points="0,-14 0,-44 160,-44 160,-14 0,-14"/>
<text text-anchor="start" x="8" y="-32" font-family="Helvetica,sans-Serif" font-size="10.00">application.Model.clearScreen</text>
<text text-anchor="middle" x="80" y="-21" font-family="Helvetica,sans-Serif" font-size="10.00">Property</text>
</g>
<!-- Node2 -->
<g id="node2" class="node"><title>Node2</title>
<g id="a_node2"><a xlink:href="../../d3/dbe/classview_1_1_view.html#a6c2525fe1f26dc400c48823ce4f0d057" target="_top" xlink:title="view.View.addModelListeners">
<polygon fill="white" stroke="black" points="206.5,-38.5 206.5,-57.5 359.5,-57.5 359.5,-38.5 206.5,-38.5"/>
<text text-anchor="middle" x="283" y="-45.5" font-family="Helvetica,sans-Serif" font-size="10.00">view.View.addModelListeners</text>
</a>
</g>
</g>
<!-- Node1&#45;&gt;Node2 -->
<g id="edge1" class="edge"><title>Node1&#45;&gt;Node2</title>
<path fill="none" stroke="midnightblue" d="M170.183,-37.4303C182.205,-38.5666 194.445,-39.7236 206.204,-40.8352"/>
<polygon fill="midnightblue" stroke="midnightblue" points="170.437,-33.9387 160.152,-36.482 169.778,-40.9077 170.437,-33.9387"/>
</g>
<!-- Node5 -->
<g id="node5" class="node"><title>Node5</title>
<g id="a_node5"><a xlink:href="../../d1/d7f/classcommands_1_1_clear_screen.html#aee6fc75e575435caceaeefb00fbe6029" target="_top" xlink:title="commands.ClearScreen.function">
<polygon fill="white" stroke="black" points="196.5,-0.5 196.5,-19.5 369.5,-19.5 369.5,-0.5 196.5,-0.5"/>
<text text-anchor="middle" x="283" y="-7.5" font-family="Helvetica,sans-Serif" font-size="10.00">commands.ClearScreen.function</text>
</a>
</g>
</g>
<!-- Node1&#45;&gt;Node5 -->
<g id="edge4" class="edge"><title>Node1&#45;&gt;Node5</title>
<path fill="none" stroke="midnightblue" d="M170.246,-20.5638C178.902,-19.7456 187.671,-18.9167 196.291,-18.1018"/>
<polygon fill="midnightblue" stroke="midnightblue" points="169.778,-17.0923 160.152,-21.518 170.437,-24.0613 169.778,-17.0923"/>
</g>
<!-- Node3 -->
<g id="node3" class="node"><title>Node3</title>
<g id="a_node3"><a xlink:href="../../d4/d9d/classapplication_1_1_wrapper.html#a4be5486a54f6d10d816c3ff49e82ecb9" target="_top" xlink:title="application.Wrapper.make\lNewWindow">
<polygon fill="white" stroke="black" points="406,-33 406,-63 546,-63 546,-33 406,-33"/>
<text text-anchor="start" x="414" y="-51" font-family="Helvetica,sans-Serif" font-size="10.00">application.Wrapper.make</text>
<text text-anchor="middle" x="476" y="-40" font-family="Helvetica,sans-Serif" font-size="10.00">NewWindow</text>
</a>
</g>
</g>
<!-- Node2&#45;&gt;Node3 -->
<g id="edge2" class="edge"><title>Node2&#45;&gt;Node3</title>
<path fill="none" stroke="midnightblue" d="M369.825,-48C381.882,-48 394.147,-48 405.841,-48"/>
<polygon fill="midnightblue" stroke="midnightblue" points="369.763,-44.5001 359.763,-48 369.763,-51.5001 369.763,-44.5001"/>
</g>
<!-- Node4 -->
<g id="node4" class="node"><title>Node4</title>
<g id="a_node4"><a xlink:href="../../d9/d96/classapplication_1_1_main.html#a4e5ad4e3de8bbd8654120180a94e870d" target="_top" xlink:title="application.Main.start">
<polygon fill="white" stroke="black" points="582.5,-38.5 582.5,-57.5 701.5,-57.5 701.5,-38.5 582.5,-38.5"/>
<text text-anchor="middle" x="642" y="-45.5" font-family="Helvetica,sans-Serif" font-size="10.00">application.Main.start</text>
</a>
</g>
</g>
<!-- Node3&#45;&gt;Node4 -->
<g id="edge3" class="edge"><title>Node3&#45;&gt;Node4</title>
<path fill="none" stroke="midnightblue" d="M556.335,-48C565.112,-48 573.929,-48 582.384,-48"/>
<polygon fill="midnightblue" stroke="midnightblue" points="556.075,-44.5001 546.075,-48 556.075,-51.5001 556.075,-44.5001"/>
</g>
</g>
</svg>
