<?xml version="1.0" encoding="UTF-8" standalone="no"?>
<!DOCTYPE svg PUBLIC "-//W3C//DTD SVG 1.1//EN"
 "http://www.w3.org/Graphics/SVG/1.1/DTD/svg11.dtd">
<!-- Generated by graphviz version 2.36.0 (20140111.2315)
 -->
<!-- Title: application.Model.backgroundProperty Pages: 1 -->
<svg width="724pt" height="71pt"
 viewBox="0.00 0.00 724.00 71.00" xmlns="http://www.w3.org/2000/svg" xmlns:xlink="http://www.w3.org/1999/xlink">
<g id="graph0" class="graph" transform="scale(1 1) rotate(0) translate(4 67)">
<title>application.Model.backgroundProperty</title>
<polygon fill="white" stroke="none" points="-4,4 -4,-67 720,-67 720,4 -4,4"/>
<!-- Node1 -->
<g id="node1" class="node"><title>Node1</title>
<polygon fill="#bfbfbf" stroke="black" points="0.5,-14 0.5,-44 159.5,-44 159.5,-14 0.5,-14"/>
<text text-anchor="start" x="8.5" y="-32" font-family="Helvetica,sans-Serif" font-size="10.00">application.Model.background</text>
<text text-anchor="middle" x="80" y="-21" font-family="Helvetica,sans-Serif" font-size="10.00">Property</text>
</g>
<!-- Node2 -->
<g id="node2" class="node"><title>Node2</title>
<g id="a_node2"><a xlink:href="../../d3/dbe/classview_1_1_view.html#a6c2525fe1f26dc400c48823ce4f0d057" target="_top" xlink:title="view.View.addModelListeners">
<polygon fill="white" stroke="black" points="213.5,-38.5 213.5,-57.5 366.5,-57.5 366.5,-38.5 213.5,-38.5"/>
<text text-anchor="middle" x="290" y="-45.5" font-family="Helvetica,sans-Serif" font-size="10.00">view.View.addModelListeners</text>
</a>
</g>
</g>
<!-- Node1&#45;&gt;Node2 -->
<g id="edge1" class="edge"><title>Node1&#45;&gt;Node2</title>
<path fill="none" stroke="midnightblue" d="M169.631,-37.0961C184.184,-38.4255 199.148,-39.7924 213.349,-41.0895"/>
<polygon fill="midnightblue" stroke="midnightblue" points="169.913,-33.6074 159.636,-36.1831 169.276,-40.5783 169.913,-33.6074"/>
</g>
<!-- Node5 -->
<g id="node5" class="node"><title>Node5</title>
<g id="a_node5"><a xlink:href="../../d5/ddb/classcommands_1_1_set_background.html#adc89c631b71f6814a5988b9bcb9c82ff" target="_top" xlink:title="commands.SetBackground.function">
<polygon fill="white" stroke="black" points="196,-0.5 196,-19.5 384,-19.5 384,-0.5 196,-0.5"/>
<text text-anchor="middle" x="290" y="-7.5" font-family="Helvetica,sans-Serif" font-size="10.00">commands.SetBackground.function</text>
</a>
</g>
</g>
<!-- Node1&#45;&gt;Node5 -->
<g id="edge4" class="edge"><title>Node1&#45;&gt;Node5</title>
<path fill="none" stroke="midnightblue" d="M169.73,-20.8949C178.398,-20.1031 187.211,-19.2981 195.92,-18.5025"/>
<polygon fill="midnightblue" stroke="midnightblue" points="169.276,-17.4217 159.636,-21.8169 169.913,-24.3926 169.276,-17.4217"/>
</g>
<!-- Node3 -->
<g id="node3" class="node"><title>Node3</title>
<g id="a_node3"><a xlink:href="../../d4/d9d/classapplication_1_1_wrapper.html#a4be5486a54f6d10d816c3ff49e82ecb9" target="_top" xlink:title="application.Wrapper.make\lNewWindow">
<polygon fill="white" stroke="black" points="420,-33 420,-63 560,-63 560,-33 420,-33"/>
<text text-anchor="start" x="428" y="-51" font-family="Helvetica,sans-Serif" font-size="10.00">application.Wrapper.make</text>
<text text-anchor="middle" x="490" y="-40" font-family="Helvetica,sans-Serif" font-size="10.00">NewWindow</text>
</a>
</g>
</g>
<!-- Node2&#45;&gt;Node3 -->
<g id="edge2" class="edge"><title>Node2&#45;&gt;Node3</title>
<path fill="none" stroke="midnightblue" d="M377.038,-48C391.344,-48 406.018,-48 419.836,-48"/>
<polygon fill="midnightblue" stroke="midnightblue" points="376.703,-44.5001 366.703,-48 376.703,-51.5001 376.703,-44.5001"/>
</g>
<!-- Node4 -->
<g id="node4" class="node"><title>Node4</title>
<g id="a_node4"><a xlink:href="../../d9/d96/classapplication_1_1_main.html#a4e5ad4e3de8bbd8654120180a94e870d" target="_top" xlink:title="application.Main.start">
<polygon fill="white" stroke="black" points="596.5,-38.5 596.5,-57.5 715.5,-57.5 715.5,-38.5 596.5,-38.5"/>
<text text-anchor="middle" x="656" y="-45.5" font-family="Helvetica,sans-Serif" font-size="10.00">application.Main.start</text>
</a>
</g>
</g>
<!-- Node3&#45;&gt;Node4 -->
<g id="edge3" class="edge"><title>Node3&#45;&gt;Node4</title>
<path fill="none" stroke="midnightblue" d="M570.335,-48C579.112,-48 587.929,-48 596.384,-48"/>
<polygon fill="midnightblue" stroke="midnightblue" points="570.075,-44.5001 560.075,-48 570.075,-51.5001 570.075,-44.5001"/>
</g>
</g>
</svg>
