<?xml version="1.0" encoding="UTF-8" standalone="no"?>
<!DOCTYPE svg PUBLIC "-//W3C//DTD SVG 1.1//EN"
 "http://www.w3.org/Graphics/SVG/1.1/DTD/svg11.dtd">
<!-- Generated by graphviz version 2.36.0 (20140111.2315)
 -->
<!-- Title: application.Model.palletProperty Pages: 1 -->
<svg width="664pt" height="71pt"
 viewBox="0.00 0.00 664.00 71.00" xmlns="http://www.w3.org/2000/svg" xmlns:xlink="http://www.w3.org/1999/xlink">
<g id="graph0" class="graph" transform="scale(1 1) rotate(0) translate(4 67)">
<title>application.Model.palletProperty</title>
<polygon fill="white" stroke="none" points="-4,4 -4,-67 660,-67 660,4 -4,4"/>
<!-- Node1 -->
<g id="node1" class="node"><title>Node1</title>
<polygon fill="#bfbfbf" stroke="black" points="0.5,-14 0.5,-44 129.5,-44 129.5,-14 0.5,-14"/>
<text text-anchor="start" x="8.5" y="-32" font-family="Helvetica,sans-Serif" font-size="10.00">application.Model.pallet</text>
<text text-anchor="middle" x="65" y="-21" font-family="Helvetica,sans-Serif" font-size="10.00">Property</text>
</g>
<!-- Node2 -->
<g id="node2" class="node"><title>Node2</title>
<g id="a_node2"><a xlink:href="../../d3/dbe/classview_1_1_view.html#a6c2525fe1f26dc400c48823ce4f0d057" target="_top" xlink:title="view.View.addModelListeners">
<polygon fill="white" stroke="black" points="168.5,-38.5 168.5,-57.5 321.5,-57.5 321.5,-38.5 168.5,-38.5"/>
<text text-anchor="middle" x="245" y="-45.5" font-family="Helvetica,sans-Serif" font-size="10.00">view.View.addModelListeners</text>
</a>
</g>
</g>
<!-- Node1&#45;&gt;Node2 -->
<g id="edge1" class="edge"><title>Node1&#45;&gt;Node2</title>
<path fill="none" stroke="midnightblue" d="M139.669,-36.8635C149.139,-37.8743 158.847,-38.9106 168.348,-39.9247"/>
<polygon fill="midnightblue" stroke="midnightblue" points="139.823,-33.3602 129.508,-35.779 139.08,-40.3207 139.823,-33.3602"/>
</g>
<!-- Node5 -->
<g id="node5" class="node"><title>Node5</title>
<g id="a_node5"><a xlink:href="../../d0/ddf/classcommands_1_1_set_pallet.html#a78380e95b4ef6decd828ba69d72d4ac7" target="_top" xlink:title="commands.SetPallet.function">
<polygon fill="white" stroke="black" points="166.5,-0.5 166.5,-19.5 323.5,-19.5 323.5,-0.5 166.5,-0.5"/>
<text text-anchor="middle" x="245" y="-7.5" font-family="Helvetica,sans-Serif" font-size="10.00">commands.SetPallet.function</text>
</a>
</g>
</g>
<!-- Node1&#45;&gt;Node5 -->
<g id="edge4" class="edge"><title>Node1&#45;&gt;Node5</title>
<path fill="none" stroke="midnightblue" d="M139.467,-21.158C148.387,-20.2059 157.521,-19.2309 166.497,-18.2728"/>
<polygon fill="midnightblue" stroke="midnightblue" points="139.08,-17.6793 129.508,-22.221 139.823,-24.6398 139.08,-17.6793"/>
</g>
<!-- Node3 -->
<g id="node3" class="node"><title>Node3</title>
<g id="a_node3"><a xlink:href="../../d4/d9d/classapplication_1_1_wrapper.html#a4be5486a54f6d10d816c3ff49e82ecb9" target="_top" xlink:title="application.Wrapper.make\lNewWindow">
<polygon fill="white" stroke="black" points="360,-33 360,-63 500,-63 500,-33 360,-33"/>
<text text-anchor="start" x="368" y="-51" font-family="Helvetica,sans-Serif" font-size="10.00">application.Wrapper.make</text>
<text text-anchor="middle" x="430" y="-40" font-family="Helvetica,sans-Serif" font-size="10.00">NewWindow</text>
</a>
</g>
</g>
<!-- Node2&#45;&gt;Node3 -->
<g id="edge2" class="edge"><title>Node2&#45;&gt;Node3</title>
<path fill="none" stroke="midnightblue" d="M331.852,-48C341.203,-48 350.634,-48 359.75,-48"/>
<polygon fill="midnightblue" stroke="midnightblue" points="331.754,-44.5001 321.754,-48 331.754,-51.5001 331.754,-44.5001"/>
</g>
<!-- Node4 -->
<g id="node4" class="node"><title>Node4</title>
<g id="a_node4"><a xlink:href="../../d9/d96/classapplication_1_1_main.html#a4e5ad4e3de8bbd8654120180a94e870d" target="_top" xlink:title="application.Main.start">
<polygon fill="white" stroke="black" points="536.5,-38.5 536.5,-57.5 655.5,-57.5 655.5,-38.5 536.5,-38.5"/>
<text text-anchor="middle" x="596" y="-45.5" font-family="Helvetica,sans-Serif" font-size="10.00">application.Main.start</text>
</a>
</g>
</g>
<!-- Node3&#45;&gt;Node4 -->
<g id="edge3" class="edge"><title>Node3&#45;&gt;Node4</title>
<path fill="none" stroke="midnightblue" d="M510.335,-48C519.112,-48 527.929,-48 536.384,-48"/>
<polygon fill="midnightblue" stroke="midnightblue" points="510.075,-44.5001 500.075,-48 510.075,-51.5001 510.075,-44.5001"/>
</g>
</g>
</svg>
