<?xml version="1.0" encoding="UTF-8" standalone="no"?>
<!DOCTYPE svg PUBLIC "-//W3C//DTD SVG 1.1//EN"
 "http://www.w3.org/Graphics/SVG/1.1/DTD/svg11.dtd">
<!-- Generated by graphviz version 2.36.0 (20140111.2315)
 -->
<!-- Title: application.Model.getVariableValue Pages: 1 -->
<svg width="600pt" height="38pt"
 viewBox="0.00 0.00 600.00 38.00" xmlns="http://www.w3.org/2000/svg" xmlns:xlink="http://www.w3.org/1999/xlink">
<g id="graph0" class="graph" transform="scale(1 1) rotate(0) translate(4 34)">
<title>application.Model.getVariableValue</title>
<polygon fill="white" stroke="none" points="-4,4 -4,-34 596,-34 596,4 -4,4"/>
<!-- Node1 -->
<g id="node1" class="node"><title>Node1</title>
<polygon fill="#bfbfbf" stroke="black" points="0.5,-0 0.5,-30 157.5,-30 157.5,-0 0.5,-0"/>
<text text-anchor="start" x="8.5" y="-18" font-family="Helvetica,sans-Serif" font-size="10.00">application.Model.getVariable</text>
<text text-anchor="middle" x="79" y="-7" font-family="Helvetica,sans-Serif" font-size="10.00">Value</text>
</g>
<!-- Node2 -->
<g id="node2" class="node"><title>Node2</title>
<g id="a_node2"><a xlink:href="../../d1/da4/classtree_1_1_variable_node.html#a7fbc548f055d7b646c09931fd61a7771" target="_top" xlink:title="tree.VariableNode.evaluate">
<polygon fill="white" stroke="black" points="194.5,-5.5 194.5,-24.5 341.5,-24.5 341.5,-5.5 194.5,-5.5"/>
<text text-anchor="middle" x="268" y="-12.5" font-family="Helvetica,sans-Serif" font-size="10.00">tree.VariableNode.evaluate</text>
</a>
</g>
</g>
<!-- Node1&#45;&gt;Node2 -->
<g id="edge1" class="edge"><title>Node1&#45;&gt;Node2</title>
<path fill="none" stroke="midnightblue" d="M167.705,-15C176.627,-15 185.619,-15 194.355,-15"/>
<polygon fill="midnightblue" stroke="midnightblue" points="167.68,-11.5001 157.68,-15 167.68,-18.5001 167.68,-11.5001"/>
</g>
<!-- Node3 -->
<g id="node3" class="node"><title>Node3</title>
<g id="a_node3"><a xlink:href="../../de/d4a/classcommands_1_1_make_user_instruction.html#a838bf1cdeaa97909512ef4c1378bd706" target="_top" xlink:title="commands.MakeUserInstruction.function">
<polygon fill="white" stroke="black" points="378.5,-5.5 378.5,-24.5 591.5,-24.5 591.5,-5.5 378.5,-5.5"/>
<text text-anchor="middle" x="485" y="-12.5" font-family="Helvetica,sans-Serif" font-size="10.00">commands.MakeUserInstruction.function</text>
</a>
</g>
</g>
<!-- Node2&#45;&gt;Node3 -->
<g id="edge2" class="edge"><title>Node2&#45;&gt;Node3</title>
<path fill="none" stroke="midnightblue" d="M351.894,-15C360.603,-15 369.54,-15 378.458,-15"/>
<polygon fill="midnightblue" stroke="midnightblue" points="351.789,-11.5001 341.789,-15 351.789,-18.5001 351.789,-11.5001"/>
</g>
</g>
</svg>
