<?xml version="1.0" encoding="UTF-8" standalone="no"?>
<!DOCTYPE svg PUBLIC "-//W3C//DTD SVG 1.1//EN"
 "http://www.w3.org/Graphics/SVG/1.1/DTD/svg11.dtd">
<!-- Generated by graphviz version 2.36.0 (20140111.2315)
 -->
<!-- Title: application.Model.getMaxY Pages: 1 -->
<svg width="730pt" height="38pt"
 viewBox="0.00 0.00 730.00 38.00" xmlns="http://www.w3.org/2000/svg" xmlns:xlink="http://www.w3.org/1999/xlink">
<g id="graph0" class="graph" transform="scale(1 1) rotate(0) translate(4 34)">
<title>application.Model.getMaxY</title>
<polygon fill="white" stroke="none" points="-4,4 -4,-34 726,-34 726,4 -4,4"/>
<!-- Node1 -->
<g id="node1" class="node"><title>Node1</title>
<polygon fill="#bfbfbf" stroke="black" points="0.5,-5.5 0.5,-24.5 143.5,-24.5 143.5,-5.5 0.5,-5.5"/>
<text text-anchor="middle" x="72" y="-12.5" font-family="Helvetica,sans-Serif" font-size="10.00">application.Model.getMaxY</text>
</g>
<!-- Node2 -->
<g id="node2" class="node"><title>Node2</title>
<g id="a_node2"><a xlink:href="../../d2/dc9/classcommands_1_1_forward.html#a847dfb7681940af22b76944f2ece7342" target="_top" xlink:title="commands.Forward.advance\lTurtle">
<polygon fill="white" stroke="black" points="180.5,-0 180.5,-30 335.5,-30 335.5,-0 180.5,-0"/>
<text text-anchor="start" x="188.5" y="-18" font-family="Helvetica,sans-Serif" font-size="10.00">commands.Forward.advance</text>
<text text-anchor="middle" x="258" y="-7" font-family="Helvetica,sans-Serif" font-size="10.00">Turtle</text>
</a>
</g>
</g>
<!-- Node1&#45;&gt;Node2 -->
<g id="edge1" class="edge"><title>Node1&#45;&gt;Node2</title>
<path fill="none" stroke="midnightblue" d="M153.892,-15C162.719,-15 171.685,-15 180.458,-15"/>
<polygon fill="midnightblue" stroke="midnightblue" points="153.613,-11.5001 143.613,-15 153.613,-18.5001 153.613,-11.5001"/>
</g>
<!-- Node3 -->
<g id="node3" class="node"><title>Node3</title>
<g id="a_node3"><a xlink:href="../../d2/dc9/classcommands_1_1_forward.html#ad6aede47835c759954a874b7793cff06" target="_top" xlink:title="commands.Forward.function">
<polygon fill="white" stroke="black" points="372,-5.5 372,-24.5 524,-24.5 524,-5.5 372,-5.5"/>
<text text-anchor="middle" x="448" y="-12.5" font-family="Helvetica,sans-Serif" font-size="10.00">commands.Forward.function</text>
</a>
</g>
</g>
<!-- Node2&#45;&gt;Node3 -->
<g id="edge2" class="edge"><title>Node2&#45;&gt;Node3</title>
<path fill="none" stroke="midnightblue" d="M345.834,-15C354.481,-15 363.209,-15 371.724,-15"/>
<polygon fill="midnightblue" stroke="midnightblue" points="345.738,-11.5001 335.738,-15 345.738,-18.5001 345.738,-11.5001"/>
</g>
<!-- Node4 -->
<g id="node4" class="node"><title>Node4</title>
<g id="a_node4"><a xlink:href="../../dc/de9/classcommands_1_1_backward.html#a3d024167c1b0b72f5c526e6fae458fa2" target="_top" xlink:title="commands.Backward.function">
<polygon fill="white" stroke="black" points="560.5,-5.5 560.5,-24.5 721.5,-24.5 721.5,-5.5 560.5,-5.5"/>
<text text-anchor="middle" x="641" y="-12.5" font-family="Helvetica,sans-Serif" font-size="10.00">commands.Backward.function</text>
</a>
</g>
</g>
<!-- Node3&#45;&gt;Node4 -->
<g id="edge3" class="edge"><title>Node3&#45;&gt;Node4</title>
<path fill="none" stroke="midnightblue" d="M534.342,-15C543.03,-15 551.83,-15 560.452,-15"/>
<polygon fill="midnightblue" stroke="midnightblue" points="534.214,-11.5001 524.214,-15 534.214,-18.5001 534.214,-11.5001"/>
</g>
</g>
</svg>
