<?xml version="1.0" encoding="UTF-8" standalone="no"?>
<!DOCTYPE svg PUBLIC "-//W3C//DTD SVG 1.1//EN"
 "http://www.w3.org/Graphics/SVG/1.1/DTD/svg11.dtd">
<!-- Generated by graphviz version 2.36.0 (20140111.2315)
 -->
<!-- Title: tree.TreeNode.evaluate Pages: 1 -->
<svg width="754pt" height="268pt"
 viewBox="0.00 0.00 754.00 268.38" xmlns="http://www.w3.org/2000/svg" xmlns:xlink="http://www.w3.org/1999/xlink">
<g id="graph0" class="graph" transform="scale(1 1) rotate(0) translate(4 264.378)">
<title>tree.TreeNode.evaluate</title>
<polygon fill="white" stroke="none" points="-4,4 -4,-264.378 750,-264.378 750,4 -4,4"/>
<!-- Node1 -->
<g id="node1" class="node"><title>Node1</title>
<polygon fill="#bfbfbf" stroke="black" points="0,-114.5 0,-133.5 128,-133.5 128,-114.5 0,-114.5"/>
<text text-anchor="middle" x="64" y="-121.5" font-family="Helvetica,sans-Serif" font-size="10.00">tree.TreeNode.evaluate</text>
</g>
<!-- Node2 -->
<g id="node2" class="node"><title>Node2</title>
<g id="a_node2"><a xlink:href="../../d7/d99/classtree_1_1_command_node.html#a7812a5927c35af83e5f65508fc0a0236" target="_top" xlink:title="tree.CommandNode.getRoot\lNodes">
<polygon fill="white" stroke="black" points="164.5,-109 164.5,-139 319.5,-139 319.5,-109 164.5,-109"/>
<text text-anchor="start" x="172.5" y="-127" font-family="Helvetica,sans-Serif" font-size="10.00">tree.CommandNode.getRoot</text>
<text text-anchor="middle" x="242" y="-116" font-family="Helvetica,sans-Serif" font-size="10.00">Nodes</text>
</a>
</g>
</g>
<!-- Node1&#45;&gt;Node2 -->
<g id="edge1" class="edge"><title>Node1&#45;&gt;Node2</title>
<path fill="none" stroke="midnightblue" d="M138.079,-124C146.723,-124 155.566,-124 164.259,-124"/>
<polygon fill="midnightblue" stroke="midnightblue" points="138.043,-120.5 128.043,-124 138.043,-127.5 138.043,-120.5"/>
</g>
<!-- Node3 -->
<g id="node3" class="node"><title>Node3</title>
<g id="a_node3"><a xlink:href="../../d7/d99/classtree_1_1_command_node.html#a0d6206db5d6903518833d81b5ca922da" target="_top" xlink:title="tree.CommandNode.blockTo\lDoubleList">
<polygon fill="white" stroke="black" points="387,-191 387,-221 539,-221 539,-191 387,-191"/>
<text text-anchor="start" x="395" y="-209" font-family="Helvetica,sans-Serif" font-size="10.00">tree.CommandNode.blockTo</text>
<text text-anchor="middle" x="463" y="-198" font-family="Helvetica,sans-Serif" font-size="10.00">DoubleList</text>
</a>
</g>
</g>
<!-- Node2&#45;&gt;Node3 -->
<g id="edge2" class="edge"><title>Node2&#45;&gt;Node3</title>
<path fill="none" stroke="midnightblue" d="M277.609,-144.142C299.502,-156.199 328.723,-171.062 356,-181 366.215,-184.722 377.189,-188.033 388.065,-190.93"/>
<polygon fill="midnightblue" stroke="midnightblue" points="279.14,-140.988 268.702,-139.169 275.727,-147.1 279.14,-140.988"/>
</g>
<!-- Node4 -->
<g id="node4" class="node"><title>Node4</title>
<g id="a_node4"><a xlink:href="../../de/d74/classcommands_1_1_ask.html#a9d61a23c4bf1adad72ae5f73bc820b92" target="_top" xlink:title="commands.Ask.function">
<polygon fill="white" stroke="black" points="610,-237.5 610,-256.5 742,-256.5 742,-237.5 610,-237.5"/>
<text text-anchor="middle" x="676" y="-244.5" font-family="Helvetica,sans-Serif" font-size="10.00">commands.Ask.function</text>
</a>
</g>
</g>
<!-- Node2&#45;&gt;Node4 -->
<g id="edge9" class="edge"><title>Node2&#45;&gt;Node4</title>
<path fill="none" stroke="midnightblue" d="M259.457,-147.084C279.139,-172.58 314.657,-212.357 356,-230 438.126,-265.047 543.125,-262.735 609.744,-256.193"/>
<polygon fill="midnightblue" stroke="midnightblue" points="262.213,-144.925 253.404,-139.037 256.619,-149.133 262.213,-144.925"/>
</g>
<!-- Node6 -->
<g id="node6" class="node"><title>Node6</title>
<g id="a_node6"><a xlink:href="../../dd/dec/classcommands_1_1_if.html#af4992935265deb1e4759cd6579da4680" target="_top" xlink:title="commands.If.evaluateCommand">
<polygon fill="white" stroke="black" points="376.5,-152.5 376.5,-171.5 549.5,-171.5 549.5,-152.5 376.5,-152.5"/>
<text text-anchor="middle" x="463" y="-159.5" font-family="Helvetica,sans-Serif" font-size="10.00">commands.If.evaluateCommand</text>
</a>
</g>
</g>
<!-- Node2&#45;&gt;Node6 -->
<g id="edge5" class="edge"><title>Node2&#45;&gt;Node6</title>
<path fill="none" stroke="midnightblue" d="M329.521,-139.013C355.686,-143.553 383.684,-148.411 407.17,-152.486"/>
<polygon fill="midnightblue" stroke="midnightblue" points="330.047,-135.552 319.596,-137.291 328.85,-142.449 330.047,-135.552"/>
</g>
<!-- Node9 -->
<g id="node9" class="node"><title>Node9</title>
<g id="a_node9"><a xlink:href="../../d1/d02/classcommands_1_1_for.html#a8da419ba7440611f91c927f59a444697" target="_top" xlink:title="commands.For.function">
<polygon fill="white" stroke="black" points="398.5,-114.5 398.5,-133.5 527.5,-133.5 527.5,-114.5 398.5,-114.5"/>
<text text-anchor="middle" x="463" y="-121.5" font-family="Helvetica,sans-Serif" font-size="10.00">commands.For.function</text>
</a>
</g>
</g>
<!-- Node2&#45;&gt;Node9 -->
<g id="edge8" class="edge"><title>Node2&#45;&gt;Node9</title>
<path fill="none" stroke="midnightblue" d="M329.685,-124C352.65,-124 377.015,-124 398.495,-124"/>
<polygon fill="midnightblue" stroke="midnightblue" points="329.596,-120.5 319.596,-124 329.596,-127.5 329.596,-120.5"/>
</g>
<!-- Node10 -->
<g id="node10" class="node"><title>Node10</title>
<g id="a_node10"><a xlink:href="../../db/d3c/classcommands_1_1_do_times.html#a1ceaf103ac42aec6746670fb09e7f47e" target="_top" xlink:title="commands.DoTimes.function">
<polygon fill="white" stroke="black" points="384.5,-76.5 384.5,-95.5 541.5,-95.5 541.5,-76.5 384.5,-76.5"/>
<text text-anchor="middle" x="463" y="-83.5" font-family="Helvetica,sans-Serif" font-size="10.00">commands.DoTimes.function</text>
</a>
</g>
</g>
<!-- Node2&#45;&gt;Node10 -->
<g id="edge10" class="edge"><title>Node2&#45;&gt;Node10</title>
<path fill="none" stroke="midnightblue" d="M329.521,-108.987C355.686,-104.447 383.684,-99.589 407.17,-95.5139"/>
<polygon fill="midnightblue" stroke="midnightblue" points="328.85,-105.551 319.596,-110.709 330.047,-112.448 328.85,-105.551"/>
</g>
<!-- Node11 -->
<g id="node11" class="node"><title>Node11</title>
<g id="a_node11"><a xlink:href="../../de/d4a/classcommands_1_1_make_user_instruction.html#a838bf1cdeaa97909512ef4c1378bd706" target="_top" xlink:title="commands.MakeUserInstruction.function">
<polygon fill="white" stroke="black" points="356.5,-38.5 356.5,-57.5 569.5,-57.5 569.5,-38.5 356.5,-38.5"/>
<text text-anchor="middle" x="463" y="-45.5" font-family="Helvetica,sans-Serif" font-size="10.00">commands.MakeUserInstruction.function</text>
</a>
</g>
</g>
<!-- Node2&#45;&gt;Node11 -->
<g id="edge11" class="edge"><title>Node2&#45;&gt;Node11</title>
<path fill="none" stroke="midnightblue" d="M276.564,-103.822C298.476,-91.4771 328.099,-76.3166 356,-67 367.527,-63.1511 380.034,-60.0318 392.28,-57.5197"/>
<polygon fill="midnightblue" stroke="midnightblue" points="274.61,-100.907 267.672,-108.914 278.089,-106.981 274.61,-100.907"/>
</g>
<!-- Node12 -->
<g id="node12" class="node"><title>Node12</title>
<g id="a_node12"><a xlink:href="../../db/d3c/classcommands_1_1_do_times.html#ab41d74dfb8204d3a48187415d6269c6a" target="_top" xlink:title="commands.DoTimes.runForLoop">
<polygon fill="white" stroke="black" points="376.5,-0.5 376.5,-19.5 549.5,-19.5 549.5,-0.5 376.5,-0.5"/>
<text text-anchor="middle" x="463" y="-7.5" font-family="Helvetica,sans-Serif" font-size="10.00">commands.DoTimes.runForLoop</text>
</a>
</g>
</g>
<!-- Node2&#45;&gt;Node12 -->
<g id="edge12" class="edge"><title>Node2&#45;&gt;Node12</title>
<path fill="none" stroke="midnightblue" d="M263.041,-101.333C283.957,-79.2095 318.839,-46.4139 356,-29 364.295,-25.1127 373.299,-22.0174 382.435,-19.5534"/>
<polygon fill="midnightblue" stroke="midnightblue" points="260.472,-98.9552 256.244,-108.67 265.608,-103.712 260.472,-98.9552"/>
</g>
<!-- Node3&#45;&gt;Node4 -->
<g id="edge3" class="edge"><title>Node3&#45;&gt;Node4</title>
<path fill="none" stroke="midnightblue" d="M549.209,-222.557C575.368,-227.64 603.256,-233.059 626.11,-237.5"/>
<polygon fill="midnightblue" stroke="midnightblue" points="549.766,-219.1 539.282,-220.628 548.431,-225.972 549.766,-219.1"/>
</g>
<!-- Node5 -->
<g id="node5" class="node"><title>Node5</title>
<g id="a_node5"><a xlink:href="../../df/d6d/classcommands_1_1_tell.html#ae9a130ae492df45b33f1e45d4aafd255" target="_top" xlink:title="commands.Tell.function">
<polygon fill="white" stroke="black" points="611.5,-196.5 611.5,-215.5 740.5,-215.5 740.5,-196.5 611.5,-196.5"/>
<text text-anchor="middle" x="676" y="-203.5" font-family="Helvetica,sans-Serif" font-size="10.00">commands.Tell.function</text>
</a>
</g>
</g>
<!-- Node3&#45;&gt;Node5 -->
<g id="edge4" class="edge"><title>Node3&#45;&gt;Node5</title>
<path fill="none" stroke="midnightblue" d="M549.334,-206C570.015,-206 591.77,-206 611.258,-206"/>
<polygon fill="midnightblue" stroke="midnightblue" points="549.282,-202.5 539.282,-206 549.282,-209.5 549.282,-202.5"/>
</g>
<!-- Node7 -->
<g id="node7" class="node"><title>Node7</title>
<g id="a_node7"><a xlink:href="../../d8/dc1/classcommands_1_1_if_else.html#a8a6526a96655b8c3f5b5d933c1aacc64" target="_top" xlink:title="commands.IfElse.function">
<polygon fill="white" stroke="black" points="606,-155.5 606,-174.5 746,-174.5 746,-155.5 606,-155.5"/>
<text text-anchor="middle" x="676" y="-162.5" font-family="Helvetica,sans-Serif" font-size="10.00">commands.IfElse.function</text>
</a>
</g>
</g>
<!-- Node6&#45;&gt;Node7 -->
<g id="edge6" class="edge"><title>Node6&#45;&gt;Node7</title>
<path fill="none" stroke="midnightblue" d="M559.687,-163.36C575.247,-163.582 591.094,-163.807 605.858,-164.017"/>
<polygon fill="midnightblue" stroke="midnightblue" points="559.566,-159.859 549.518,-163.216 559.467,-166.858 559.566,-159.859"/>
</g>
<!-- Node8 -->
<g id="node8" class="node"><title>Node8</title>
<g id="a_node8"><a xlink:href="../../dd/dec/classcommands_1_1_if.html#a2a8e2fd04325679983dae1be727b5772" target="_top" xlink:title="commands.If.function">
<polygon fill="white" stroke="black" points="616.5,-117.5 616.5,-136.5 735.5,-136.5 735.5,-117.5 616.5,-117.5"/>
<text text-anchor="middle" x="676" y="-124.5" font-family="Helvetica,sans-Serif" font-size="10.00">commands.If.function</text>
</a>
</g>
</g>
<!-- Node6&#45;&gt;Node8 -->
<g id="edge7" class="edge"><title>Node6&#45;&gt;Node8</title>
<path fill="none" stroke="midnightblue" d="M531.407,-150.819C559.173,-146.213 591.007,-140.933 617.633,-136.516"/>
<polygon fill="midnightblue" stroke="midnightblue" points="530.67,-147.393 521.378,-152.482 531.816,-154.299 530.67,-147.393"/>
</g>
</g>
</svg>
