<?xml version="1.0" encoding="UTF-8" standalone="no"?>
<!DOCTYPE svg PUBLIC "-//W3C//DTD SVG 1.1//EN"
 "http://www.w3.org/Graphics/SVG/1.1/DTD/svg11.dtd">
<!-- Generated by graphviz version 2.36.0 (20140111.2315)
 -->
<!-- Title: view.View.addTurtleListeners Pages: 1 -->
<!--zoomable 420 -->
<svg id="main" version="1.1" xmlns="http://www.w3.org/2000/svg" xmlns:xlink="http://www.w3.org/1999/xlink" xml:space="preserve" onload="init(evt)">
<style type="text/css"><![CDATA[
.edge:hover path { stroke: red; }
.edge:hover polygon { stroke: red; fill: red; }
]]></style>
<script type="text/javascript"><![CDATA[
var edges = document.getElementsByTagName('g');
if (edges && edges.length) {
  for (var i=0;i<edges.length;i++) {
    if (edges[i].id.substr(0,4)=='edge') {
      edges[i].setAttribute('class','edge');
    }
  }
}
]]></script>
        <defs>
                <circle id="rim" cx="0" cy="0" r="7"/>
                <circle id="rim2" cx="0" cy="0" r="3.5"/>
                <g id="zoomPlus">
                        <use xlink:href="#rim" fill="#404040">
                                <set attributeName="fill" to="#808080" begin="zoomplus.mouseover" end="zoomplus.mouseout"/>
                        </use>
                        <path d="M-4,0h8M0,-4v8" fill="none" stroke="white" stroke-width="1.5" pointer-events="none"/>
                </g>
                <g id="zoomMin">
                        <use xlink:href="#rim" fill="#404040">
                                <set attributeName="fill" to="#808080" begin="zoomminus.mouseover" end="zoomminus.mouseout"/>
                        </use>
                        <path d="M-4,0h8" fill="none" stroke="white" stroke-width="1.5" pointer-events="none"/>
                </g>
                <g id="dirArrow">
                        <path fill="none" stroke="white" stroke-width="1.5" d="M0,-3.0v7 M-2.5,-0.5L0,-3.0L2.5,-0.5"/>
                </g>
               <g id="resetDef">
                       <use xlink:href="#rim2" fill="#404040">
                               <set attributeName="fill" to="#808080" begin="reset.mouseover" end="reset.mouseout"/>
                       </use>
               </g>
        </defs>

<script type="text/javascript">
var viewWidth = 508;
var viewHeight = 420;
var sectionId = 'dynsection-3';
</script>
<script xlink:href="../../svgpan.js"/>
<svg id="graph" class="graph">
<g id="viewport">
<title>view.View.addTurtleListeners</title>
<polygon fill="white" stroke="none" points="-4,4 -4,-416 504,-416 504,4 -4,4"/>
<!-- Node1 -->
<g id="node1" class="node"><title>Node1</title>
<polygon fill="#bfbfbf" stroke="black" points="0,-196.5 0,-215.5 150,-215.5 150,-196.5 0,-196.5"/>
<text text-anchor="middle" x="75" y="-203.5" font-family="Helvetica,sans-Serif" font-size="10.00">view.View.addTurtleListeners</text>
</g>
<!-- Node2 -->
<g id="node2" class="node"><title>Node2</title>
<g id="a_node2"><a xlink:href="../../d1/d31/classapplication_1_1_turtle.html#a9aeb42d200dd4bac290fb0f896af8fc4" target="_top" xlink:title="application.Turtle.getHeading\lProperty">
<polygon fill="white" stroke="black" points="186.5,-382 186.5,-412 341.5,-412 341.5,-382 186.5,-382"/>
<text text-anchor="start" x="194.5" y="-400" font-family="Helvetica,sans-Serif" font-size="10.00">application.Turtle.getHeading</text>
<text text-anchor="middle" x="264" y="-389" font-family="Helvetica,sans-Serif" font-size="10.00">Property</text>
</a>
</g>
</g>
<!-- Node1&#45;&gt;Node2 -->
<g id="edge1" class="edge"><title>Node1&#45;&gt;Node2</title>
<path fill="none" stroke="midnightblue" d="M79.7791,-215.898C91.2048,-244.511 128.192,-328.076 186,-372 188.439,-373.853 191.021,-375.572 193.704,-377.167"/>
<polygon fill="midnightblue" stroke="midnightblue" points="192.087,-380.271 202.565,-381.844 195.355,-374.08 192.087,-380.271"/>
</g>
<!-- Node3 -->
<g id="node3" class="node"><title>Node3</title>
<g id="a_node3"><a xlink:href="../../d1/d31/classapplication_1_1_turtle.html#a2aa6d64cf4909c1d5db7d48118491805" target="_top" xlink:title="application.Turtle.getLocation\lProperty">
<polygon fill="white" stroke="black" points="186,-333 186,-363 342,-363 342,-333 186,-333"/>
<text text-anchor="start" x="194" y="-351" font-family="Helvetica,sans-Serif" font-size="10.00">application.Turtle.getLocation</text>
<text text-anchor="middle" x="264" y="-340" font-family="Helvetica,sans-Serif" font-size="10.00">Property</text>
</a>
</g>
</g>
<!-- Node1&#45;&gt;Node3 -->
<g id="edge2" class="edge"><title>Node1&#45;&gt;Node3</title>
<path fill="none" stroke="midnightblue" d="M82.4968,-215.726C97.8522,-237.979 138.673,-292.992 186,-323 189.311,-325.099 192.814,-327.038 196.428,-328.825"/>
<polygon fill="midnightblue" stroke="midnightblue" points="195.042,-332.04 205.596,-332.965 197.923,-325.66 195.042,-332.04"/>
</g>
<!-- Node4 -->
<g id="node4" class="node"><title>Node4</title>
<g id="a_node4"><a xlink:href="../../d1/d31/classapplication_1_1_turtle.html#aba1e48364a283753a4d099fe64fc663f" target="_top" xlink:title="application.Turtle.getPen\lDownProperty">
<polygon fill="white" stroke="black" points="197,-284 197,-314 331,-314 331,-284 197,-284"/>
<text text-anchor="start" x="205" y="-302" font-family="Helvetica,sans-Serif" font-size="10.00">application.Turtle.getPen</text>
<text text-anchor="middle" x="264" y="-291" font-family="Helvetica,sans-Serif" font-size="10.00">DownProperty</text>
</a>
</g>
</g>
<!-- Node1&#45;&gt;Node4 -->
<g id="edge3" class="edge"><title>Node1&#45;&gt;Node4</title>
<path fill="none" stroke="midnightblue" d="M89.2975,-215.691C109.406,-229.999 149.127,-256.919 186,-274 190.942,-276.289 196.152,-278.458 201.436,-280.491"/>
<polygon fill="midnightblue" stroke="midnightblue" points="200.39,-283.836 210.984,-283.999 202.805,-277.265 200.39,-283.836"/>
</g>
<!-- Node5 -->
<g id="node5" class="node"><title>Node5</title>
<g id="a_node5"><a xlink:href="../../d1/d31/classapplication_1_1_turtle.html#a4b35563bbf3dd74893e43cef84865a35" target="_top" xlink:title="application.Turtle.getShowing\lProperty">
<polygon fill="white" stroke="black" points="186.5,-235 186.5,-265 341.5,-265 341.5,-235 186.5,-235"/>
<text text-anchor="start" x="194.5" y="-253" font-family="Helvetica,sans-Serif" font-size="10.00">application.Turtle.getShowing</text>
<text text-anchor="middle" x="264" y="-242" font-family="Helvetica,sans-Serif" font-size="10.00">Property</text>
</a>
</g>
</g>
<!-- Node1&#45;&gt;Node5 -->
<g id="edge4" class="edge"><title>Node1&#45;&gt;Node5</title>
<path fill="none" stroke="midnightblue" d="M116.576,-215.547C137.818,-220.545 164.494,-226.822 189.238,-232.644"/>
<polygon fill="midnightblue" stroke="midnightblue" points="188.436,-236.051 198.972,-234.935 190.04,-229.237 188.436,-236.051"/>
</g>
<!-- Node6 -->
<g id="node6" class="node"><title>Node6</title>
<g id="a_node6"><a xlink:href="../../d1/d1a/classview_1_1_display.html#a2557e79982a0547b1ce94db60a2021d7" target="_top" xlink:title="view.Display.setVisibility">
<polygon fill="white" stroke="black" points="200,-196.5 200,-215.5 328,-215.5 328,-196.5 200,-196.5"/>
<text text-anchor="middle" x="264" y="-203.5" font-family="Helvetica,sans-Serif" font-size="10.00">view.Display.setVisibility</text>
</a>
</g>
</g>
<!-- Node1&#45;&gt;Node6 -->
<g id="edge5" class="edge"><title>Node1&#45;&gt;Node6</title>
<path fill="none" stroke="midnightblue" d="M150.176,-206C163.13,-206 176.602,-206 189.537,-206"/>
<polygon fill="midnightblue" stroke="midnightblue" points="189.775,-209.5 199.775,-206 189.775,-202.5 189.775,-209.5"/>
</g>
<!-- Node7 -->
<g id="node7" class="node"><title>Node7</title>
<g id="a_node7"><a xlink:href="../../d1/d31/classapplication_1_1_turtle.html#ac6534349b22cc2e1b750608f75897e5f" target="_top" xlink:title="application.Turtle.shape\lProperty">
<polygon fill="white" stroke="black" points="199.5,-147 199.5,-177 328.5,-177 328.5,-147 199.5,-147"/>
<text text-anchor="start" x="207.5" y="-165" font-family="Helvetica,sans-Serif" font-size="10.00">application.Turtle.shape</text>
<text text-anchor="middle" x="264" y="-154" font-family="Helvetica,sans-Serif" font-size="10.00">Property</text>
</a>
</g>
</g>
<!-- Node1&#45;&gt;Node7 -->
<g id="edge6" class="edge"><title>Node1&#45;&gt;Node7</title>
<path fill="none" stroke="midnightblue" d="M116.576,-196.453C137.913,-191.432 164.732,-185.122 189.569,-179.278"/>
<polygon fill="midnightblue" stroke="midnightblue" points="190.405,-182.677 199.338,-176.979 188.802,-175.863 190.405,-182.677"/>
</g>
<!-- Node8 -->
<g id="node8" class="node"><title>Node8</title>
<g id="a_node8"><a xlink:href="../../d1/d1a/classview_1_1_display.html#aaed3fea01db035ba2f25d6aee7367f8b" target="_top" xlink:title="view.Display.updateTurtle\lHeading">
<polygon fill="white" stroke="black" points="197,-98 197,-128 331,-128 331,-98 197,-98"/>
<text text-anchor="start" x="205" y="-116" font-family="Helvetica,sans-Serif" font-size="10.00">view.Display.updateTurtle</text>
<text text-anchor="middle" x="264" y="-105" font-family="Helvetica,sans-Serif" font-size="10.00">Heading</text>
</a>
</g>
</g>
<!-- Node1&#45;&gt;Node8 -->
<g id="edge7" class="edge"><title>Node1&#45;&gt;Node8</title>
<path fill="none" stroke="midnightblue" d="M89.2975,-196.309C109.406,-182.001 149.127,-155.081 186,-138 190.942,-135.711 196.152,-133.542 201.436,-131.509"/>
<polygon fill="midnightblue" stroke="midnightblue" points="202.805,-134.735 210.984,-128.001 200.39,-128.164 202.805,-134.735"/>
</g>
<!-- Node9 -->
<g id="node9" class="node"><title>Node9</title>
<g id="a_node9"><a xlink:href="../../d1/d1a/classview_1_1_display.html#acf01babbf39275410d66f26521aec7ce" target="_top" xlink:title="view.Display.updateTurtle\lLocation">
<polygon fill="white" stroke="black" points="197,-49 197,-79 331,-79 331,-49 197,-49"/>
<text text-anchor="start" x="205" y="-67" font-family="Helvetica,sans-Serif" font-size="10.00">view.Display.updateTurtle</text>
<text text-anchor="middle" x="264" y="-56" font-family="Helvetica,sans-Serif" font-size="10.00">Location</text>
</a>
</g>
</g>
<!-- Node1&#45;&gt;Node9 -->
<g id="edge8" class="edge"><title>Node1&#45;&gt;Node9</title>
<path fill="none" stroke="midnightblue" d="M82.4968,-196.274C97.8522,-174.021 138.673,-119.008 186,-89 189.311,-86.9009 192.814,-84.9624 196.428,-83.1745"/>
<polygon fill="midnightblue" stroke="midnightblue" points="197.923,-86.3401 205.596,-79.0346 195.042,-79.9604 197.923,-86.3401"/>
</g>
<!-- Node11 -->
<g id="node11" class="node"><title>Node11</title>
<g id="a_node11"><a xlink:href="../../d1/d1a/classview_1_1_display.html#af0abcb9d9b5ec2892bf7617c4aaed48a" target="_top" xlink:title="view.Display.updateTurtle\lShowing">
<polygon fill="white" stroke="black" points="197,-0 197,-30 331,-30 331,-0 197,-0"/>
<text text-anchor="start" x="205" y="-18" font-family="Helvetica,sans-Serif" font-size="10.00">view.Display.updateTurtle</text>
<text text-anchor="middle" x="264" y="-7" font-family="Helvetica,sans-Serif" font-size="10.00">Showing</text>
</a>
</g>
</g>
<!-- Node1&#45;&gt;Node11 -->
<g id="edge10" class="edge"><title>Node1&#45;&gt;Node11</title>
<path fill="none" stroke="midnightblue" d="M79.7791,-196.102C91.2048,-167.489 128.192,-83.9241 186,-40 188.439,-38.1466 191.021,-36.4275 193.704,-34.8334"/>
<polygon fill="midnightblue" stroke="midnightblue" points="195.355,-37.9197 202.565,-30.1558 192.087,-31.7294 195.355,-37.9197"/>
</g>
<!-- Node10 -->
<g id="node10" class="node"><title>Node10</title>
<g id="a_node10"><a xlink:href="../../d1/d1a/classview_1_1_display.html#ae37f2b2ceda0b899a554cbdacc791a35" target="_top" xlink:title="view.Display.drawLines">
<polygon fill="white" stroke="black" points="378,-54.5 378,-73.5 500,-73.5 500,-54.5 378,-54.5"/>
<text text-anchor="middle" x="439" y="-61.5" font-family="Helvetica,sans-Serif" font-size="10.00">view.Display.drawLines</text>
</a>
</g>
</g>
<!-- Node9&#45;&gt;Node10 -->
<g id="edge9" class="edge"><title>Node9&#45;&gt;Node10</title>
<path fill="none" stroke="midnightblue" d="M331.392,-64C343.183,-64 355.503,-64 367.406,-64"/>
<polygon fill="midnightblue" stroke="midnightblue" points="367.736,-67.5001 377.736,-64 367.736,-60.5001 367.736,-67.5001"/>
</g>
</g>
</svg>
        <g id="navigator" transform="translate(0 0)" fill="#404254">
                <rect fill="#f2f5e9" fill-opacity="0.5" stroke="#606060" stroke-width=".5" x="0" y="0" width="60" height="60"/>
                <use id="zoomplus" xlink:href="#zoomPlus" x="17" y="9" onmousedown="handleZoom(evt,'in')"/>
                <use id="zoomminus" xlink:href="#zoomMin" x="42" y="9" onmousedown="handleZoom(evt,'out')"/>
                <use id="reset" xlink:href="#resetDef" x="30" y="36" onmousedown="handleReset()"/>
                <g id="arrowUp" xlink:href="#dirArrow" transform="translate(30 24)" onmousedown="handlePan(0,-1)">
                  <use xlink:href="#rim" fill="#404040">
                        <set attributeName="fill" to="#808080" begin="arrowUp.mouseover" end="arrowUp.mouseout"/>
                  </use>
                  <path fill="none" stroke="white" stroke-width="1.5" d="M0,-3.0v7 M-2.5,-0.5L0,-3.0L2.5,-0.5"/>
                </g>
                <g id="arrowRight" xlink:href="#dirArrow" transform="rotate(90) translate(36 -43)" onmousedown="handlePan(1,0)">
                  <use xlink:href="#rim" fill="#404040">
                        <set attributeName="fill" to="#808080" begin="arrowRight.mouseover" end="arrowRight.mouseout"/>
                  </use>
                  <path fill="none" stroke="white" stroke-width="1.5" d="M0,-3.0v7 M-2.5,-0.5L0,-3.0L2.5,-0.5"/>
                </g>
                <g id="arrowDown" xlink:href="#dirArrow" transform="rotate(180) translate(-30 -48)" onmousedown="handlePan(0,1)">
                  <use xlink:href="#rim" fill="#404040">
                        <set attributeName="fill" to="#808080" begin="arrowDown.mouseover" end="arrowDown.mouseout"/>
                  </use>
                  <path fill="none" stroke="white" stroke-width="1.5" d="M0,-3.0v7 M-2.5,-0.5L0,-3.0L2.5,-0.5"/>
                </g>
                <g id="arrowLeft" xlink:href="#dirArrow" transform="rotate(270) translate(-36 17)" onmousedown="handlePan(-1,0)">
                  <use xlink:href="#rim" fill="#404040">
                        <set attributeName="fill" to="#808080" begin="arrowLeft.mouseover" end="arrowLeft.mouseout"/>
                  </use>
                  <path fill="none" stroke="white" stroke-width="1.5" d="M0,-3.0v7 M-2.5,-0.5L0,-3.0L2.5,-0.5"/>
                </g>
        </g>
        <svg viewBox="0 0 15 15" width="100%" height="30px" preserveAspectRatio="xMaxYMin meet">
         <g id="arrow_out" transform="scale(0.3 0.3)">
          <a xlink:href="classview_1_1_view_a808f20def9060b723dd4974bc7553155_cgraph_org.svg" target="_base">
           <rect id="button" ry="5" rx="5" y="6" x="6" height="38" width="38"
                fill="#f2f5e9" fill-opacity="0.5" stroke="#606060" stroke-width="1.0"/>
           <path id="arrow"
             d="M 11.500037,31.436501 C 11.940474,20.09759 22.043105,11.32322 32.158766,21.979434 L 37.068811,17.246167 C 37.068811,17.246167 37.088388,32 37.088388,32 L 22.160133,31.978069 C 22.160133,31.978069 26.997745,27.140456 26.997745,27.140456 C 18.528582,18.264221 13.291696,25.230495 11.500037,31.436501 z"
             style="fill:#404040;"/>
          </a>
         </g>
        </svg>
</svg>
