<?xml version="1.0" encoding="UTF-8" standalone="no"?>
<!DOCTYPE svg PUBLIC "-//W3C//DTD SVG 1.1//EN"
 "http://www.w3.org/Graphics/SVG/1.1/DTD/svg11.dtd">
<!-- Generated by graphviz version 2.36.0 (20140111.2315)
 -->
<!-- Title: view.View.start Pages: 1 -->
<svg width="914pt" height="712pt"
 viewBox="0.00 0.00 914.00 712.00" xmlns="http://www.w3.org/2000/svg" xmlns:xlink="http://www.w3.org/1999/xlink">
<g id="graph0" class="graph" transform="scale(1 1) rotate(0) translate(4 708)">
<title>view.View.start</title>
<polygon fill="white" stroke="none" points="-4,4 -4,-708 910,-708 910,4 -4,4"/>
<!-- Node1 -->
<g id="node1" class="node"><title>Node1</title>
<polygon fill="#bfbfbf" stroke="black" points="0,-344.5 0,-363.5 86,-363.5 86,-344.5 0,-344.5"/>
<text text-anchor="middle" x="43" y="-351.5" font-family="Helvetica,sans-Serif" font-size="10.00">view.View.start</text>
</g>
<!-- Node2 -->
<g id="node2" class="node"><title>Node2</title>
<g id="a_node2"><a xlink:href="../../d3/d1e/classview_1_1_button_bar.html#a6b4fddf728ff459282b8040e7513b9a7" target="_top" xlink:title="view.ButtonBar.addtoHButtonBar">
<polygon fill="white" stroke="black" points="132,-684.5 132,-703.5 306,-703.5 306,-684.5 132,-684.5"/>
<text text-anchor="middle" x="219" y="-691.5" font-family="Helvetica,sans-Serif" font-size="10.00">view.ButtonBar.addtoHButtonBar</text>
</a>
</g>
</g>
<!-- Node1&#45;&gt;Node2 -->
<g id="edge1" class="edge"><title>Node1&#45;&gt;Node2</title>
<path fill="none" stroke="midnightblue" d="M44.9664,-363.691C50.0211,-412.406 74.9938,-629.972 122,-675 123.472,-676.41 125.017,-677.73 126.626,-678.965"/>
<polygon fill="midnightblue" stroke="midnightblue" points="124.841,-681.979 135.143,-684.455 128.634,-676.095 124.841,-681.979"/>
</g>
<!-- Node3 -->
<g id="node3" class="node"><title>Node3</title>
<g id="a_node3"><a xlink:href="../../d3/d1e/classview_1_1_button_bar.html#a1abca5cea82b748c22cbb0c596bfadf1" target="_top" xlink:title="view.ButtonBar.addtoVButtonBar">
<polygon fill="white" stroke="black" points="132.5,-646.5 132.5,-665.5 305.5,-665.5 305.5,-646.5 132.5,-646.5"/>
<text text-anchor="middle" x="219" y="-653.5" font-family="Helvetica,sans-Serif" font-size="10.00">view.ButtonBar.addtoVButtonBar</text>
</a>
</g>
</g>
<!-- Node1&#45;&gt;Node3 -->
<g id="edge2" class="edge"><title>Node1&#45;&gt;Node3</title>
<path fill="none" stroke="midnightblue" d="M45.3203,-363.685C51.6502,-408.696 80.3105,-596.915 122,-636 123.956,-637.834 126.035,-639.518 128.214,-641.063"/>
<polygon fill="midnightblue" stroke="midnightblue" points="126.689,-644.23 137.067,-646.363 130.285,-638.224 126.689,-644.23"/>
</g>
<!-- Node4 -->
<g id="node4" class="node"><title>Node4</title>
<g id="a_node4"><a xlink:href="../../de/d83/classview_1_1_import_design.html#a28c331a446c4c74cfc94149e5ceb0977" target="_top" xlink:title="view.ImportDesign.choose\lDesign">
<polygon fill="white" stroke="black" points="148.5,-597 148.5,-627 289.5,-627 289.5,-597 148.5,-597"/>
<text text-anchor="start" x="156.5" y="-615" font-family="Helvetica,sans-Serif" font-size="10.00">view.ImportDesign.choose</text>
<text text-anchor="middle" x="219" y="-604" font-family="Helvetica,sans-Serif" font-size="10.00">Design</text>
</a>
</g>
</g>
<!-- Node1&#45;&gt;Node4 -->
<g id="edge3" class="edge"><title>Node1&#45;&gt;Node4</title>
<path fill="none" stroke="midnightblue" d="M44.1532,-363.682C45.2611,-399.194 54.0371,-523.526 122,-587 126.989,-591.66 132.736,-595.476 138.884,-598.598"/>
<polygon fill="midnightblue" stroke="midnightblue" points="137.579,-601.848 148.14,-602.693 140.411,-595.446 137.579,-601.848"/>
</g>
<!-- Node9 -->
<g id="node9" class="node"><title>Node9</title>
<g id="a_node9"><a xlink:href="../../d2/d22/classview_1_1_previous_commands.html#ac81954fc7397e066d454cfd63fc9e2e0" target="_top" xlink:title="view.PreviousCommands.get\lTextArea">
<polygon fill="white" stroke="black" points="584,-531 584,-561 738,-561 738,-531 584,-531"/>
<text text-anchor="start" x="592" y="-549" font-family="Helvetica,sans-Serif" font-size="10.00">view.PreviousCommands.get</text>
<text text-anchor="middle" x="661" y="-538" font-family="Helvetica,sans-Serif" font-size="10.00">TextArea</text>
</a>
</g>
</g>
<!-- Node1&#45;&gt;Node9 -->
<g id="edge8" class="edge"><title>Node1&#45;&gt;Node9</title>
<path fill="none" stroke="midnightblue" d="M45.5219,-363.889C50.4859,-392.369 69.0555,-474.782 122,-510 158.607,-534.351 431.22,-542.349 573.737,-544.882"/>
<polygon fill="midnightblue" stroke="midnightblue" points="573.71,-548.382 583.769,-545.055 573.831,-541.383 573.71,-548.382"/>
</g>
<!-- Node10 -->
<g id="node10" class="node"><title>Node10</title>
<g id="a_node10"><a xlink:href="../../d1/deb/classapplication_1_1_turtle_list.html#a0de066aa32e9e19fe3d8313693a95247" target="_top" xlink:title="application.TurtleList.get\lTurtle">
<polygon fill="white" stroke="black" points="153,-471 153,-501 285,-501 285,-471 153,-471"/>
<text text-anchor="start" x="161" y="-489" font-family="Helvetica,sans-Serif" font-size="10.00">application.TurtleList.get</text>
<text text-anchor="middle" x="219" y="-478" font-family="Helvetica,sans-Serif" font-size="10.00">Turtle</text>
</a>
</g>
</g>
<!-- Node1&#45;&gt;Node10 -->
<g id="edge9" class="edge"><title>Node1&#45;&gt;Node10</title>
<path fill="none" stroke="midnightblue" d="M48.7852,-363.745C59.223,-383.994 86.0144,-430.827 122,-456 128.612,-460.625 135.965,-464.558 143.576,-467.898"/>
<polygon fill="midnightblue" stroke="midnightblue" points="142.372,-471.187 152.955,-471.685 144.993,-464.696 142.372,-471.187"/>
</g>
<!-- Node11 -->
<g id="node11" class="node"><title>Node11</title>
<g id="a_node11"><a xlink:href="../../dd/d17/classapplication_1_1_model.html#aa7ed87b9bf32630ff3c5b771feb6a67a" target="_top" xlink:title="application.Model.getTurtleList">
<polygon fill="white" stroke="black" points="580.5,-432.5 580.5,-451.5 741.5,-451.5 741.5,-432.5 580.5,-432.5"/>
<text text-anchor="middle" x="661" y="-439.5" font-family="Helvetica,sans-Serif" font-size="10.00">application.Model.getTurtleList</text>
</a>
</g>
</g>
<!-- Node1&#45;&gt;Node11 -->
<g id="edge10" class="edge"><title>Node1&#45;&gt;Node11</title>
<path fill="none" stroke="midnightblue" d="M51.3378,-363.712C63.8343,-379.375 90.9324,-409.696 122,-422 200.977,-453.278 439.024,-450.223 570.441,-445.82"/>
<polygon fill="midnightblue" stroke="midnightblue" points="570.616,-449.317 580.49,-445.474 570.375,-442.321 570.616,-449.317"/>
</g>
<!-- Node12 -->
<g id="node12" class="node"><title>Node12</title>
<g id="a_node12"><a xlink:href="../../d3/dfc/classview_1_1_enter_commands.html#a27689d1e232eda1d9e0fe966becb8167" target="_top" xlink:title="view.EnterCommands.init">
<polygon fill="white" stroke="black" points="150.5,-344.5 150.5,-363.5 287.5,-363.5 287.5,-344.5 150.5,-344.5"/>
<text text-anchor="middle" x="219" y="-351.5" font-family="Helvetica,sans-Serif" font-size="10.00">view.EnterCommands.init</text>
</a>
</g>
</g>
<!-- Node1&#45;&gt;Node12 -->
<g id="edge11" class="edge"><title>Node1&#45;&gt;Node12</title>
<path fill="none" stroke="midnightblue" d="M86.1205,-354C102.49,-354 121.777,-354 140.475,-354"/>
<polygon fill="midnightblue" stroke="midnightblue" points="140.478,-357.5 150.478,-354 140.478,-350.5 140.478,-357.5"/>
</g>
<!-- Node13 -->
<g id="node13" class="node"><title>Node13</title>
<g id="a_node13"><a xlink:href="../../d4/d54/classview_1_1_turtle_state.html#a79db2ab9487e3436d6672f1de33b5605" target="_top" xlink:title="view.TurtleState.initiate\lState">
<polygon fill="white" stroke="black" points="156,-383 156,-413 282,-413 282,-383 156,-383"/>
<text text-anchor="start" x="164" y="-401" font-family="Helvetica,sans-Serif" font-size="10.00">view.TurtleState.initiate</text>
<text text-anchor="middle" x="219" y="-390" font-family="Helvetica,sans-Serif" font-size="10.00">State</text>
</a>
</g>
</g>
<!-- Node1&#45;&gt;Node13 -->
<g id="edge12" class="edge"><title>Node1&#45;&gt;Node13</title>
<path fill="none" stroke="midnightblue" d="M81.7554,-363.547C101.258,-368.479 125.684,-374.656 148.448,-380.412"/>
<polygon fill="midnightblue" stroke="midnightblue" points="147.87,-383.876 158.423,-382.935 149.587,-377.09 147.87,-383.876"/>
</g>
<!-- Node20 -->
<g id="node20" class="node"><title>Node20</title>
<g id="a_node20"><a xlink:href="../../d3/d1e/classview_1_1_button_bar.html#a122a1893502233bc97ab889074bdf2b1" target="_top" xlink:title="view.ButtonBar.makeButton">
<polygon fill="white" stroke="black" points="144.5,-306.5 144.5,-325.5 293.5,-325.5 293.5,-306.5 144.5,-306.5"/>
<text text-anchor="middle" x="219" y="-313.5" font-family="Helvetica,sans-Serif" font-size="10.00">view.ButtonBar.makeButton</text>
</a>
</g>
</g>
<!-- Node1&#45;&gt;Node20 -->
<g id="edge20" class="edge"><title>Node1&#45;&gt;Node20</title>
<path fill="none" stroke="midnightblue" d="M81.6127,-344.487C94.4022,-341.346 108.798,-337.913 122,-335 133.536,-332.455 145.887,-329.89 157.76,-327.505"/>
<polygon fill="midnightblue" stroke="midnightblue" points="158.468,-330.933 167.592,-325.548 157.101,-324.068 158.468,-330.933"/>
</g>
<!-- Node21 -->
<g id="node21" class="node"><title>Node21</title>
<g id="a_node21"><a xlink:href="../../d6/d05/classview_1_1_color_chooser.html#aeff346e71fef58d80a7e9e2ee22e8232" target="_top" xlink:title="view.ColorChooser.makeColor\lChooserPopUp">
<polygon fill="white" stroke="black" points="140,-257 140,-287 298,-287 298,-257 140,-257"/>
<text text-anchor="start" x="148" y="-275" font-family="Helvetica,sans-Serif" font-size="10.00">view.ColorChooser.makeColor</text>
<text text-anchor="middle" x="219" y="-264" font-family="Helvetica,sans-Serif" font-size="10.00">ChooserPopUp</text>
</a>
</g>
</g>
<!-- Node1&#45;&gt;Node21 -->
<g id="edge21" class="edge"><title>Node1&#45;&gt;Node21</title>
<path fill="none" stroke="midnightblue" d="M54.2772,-344.486C68.4637,-331.848 95.3295,-309.651 122,-297 127.184,-294.541 132.644,-292.299 138.221,-290.258"/>
<polygon fill="midnightblue" stroke="midnightblue" points="139.364,-293.567 147.688,-287.013 137.094,-286.945 139.364,-293.567"/>
</g>
<!-- Node23 -->
<g id="node23" class="node"><title>Node23</title>
<g id="a_node23"><a xlink:href="../../d1/d1a/classview_1_1_display.html#a5a90faf6bdd48db75a4a68793c171b7c" target="_top" xlink:title="view.Display.makeDisplay">
<polygon fill="white" stroke="black" points="150.5,-218.5 150.5,-237.5 287.5,-237.5 287.5,-218.5 150.5,-218.5"/>
<text text-anchor="middle" x="219" y="-225.5" font-family="Helvetica,sans-Serif" font-size="10.00">view.Display.makeDisplay</text>
</a>
</g>
</g>
<!-- Node1&#45;&gt;Node23 -->
<g id="edge23" class="edge"><title>Node1&#45;&gt;Node23</title>
<path fill="none" stroke="midnightblue" d="M48.0011,-344.431C57.4378,-323.131 83.2463,-271.738 122,-247 127.773,-243.315 134.109,-240.319 140.686,-237.887"/>
<polygon fill="midnightblue" stroke="midnightblue" points="142.029,-241.131 150.459,-234.712 139.867,-234.473 142.029,-241.131"/>
</g>
<!-- Node25 -->
<g id="node25" class="node"><title>Node25</title>
<g id="a_node25"><a xlink:href="../../d3/d1e/classview_1_1_button_bar.html#a6be23823d0e49ff97a9c0b22c7c4a732" target="_top" xlink:title="view.ButtonBar.makeHButtonBar">
<polygon fill="white" stroke="black" points="132.5,-180.5 132.5,-199.5 305.5,-199.5 305.5,-180.5 132.5,-180.5"/>
<text text-anchor="middle" x="219" y="-187.5" font-family="Helvetica,sans-Serif" font-size="10.00">view.ButtonBar.makeHButtonBar</text>
</a>
</g>
</g>
<!-- Node1&#45;&gt;Node25 -->
<g id="edge25" class="edge"><title>Node1&#45;&gt;Node25</title>
<path fill="none" stroke="midnightblue" d="M46.1548,-344.345C52.5754,-317.972 74.1804,-244.332 122,-209 124.515,-207.142 127.165,-205.452 129.917,-203.917"/>
<polygon fill="midnightblue" stroke="midnightblue" points="131.533,-207.024 139.014,-199.522 128.487,-200.721 131.533,-207.024"/>
</g>
<!-- Node26 -->
<g id="node26" class="node"><title>Node26</title>
<g id="a_node26"><a xlink:href="../../d3/d1e/classview_1_1_button_bar.html#a58956aa5c4b96656bb2a894202627872" target="_top" xlink:title="view.ButtonBar.makeVButtonBar">
<polygon fill="white" stroke="black" points="132.5,-142.5 132.5,-161.5 305.5,-161.5 305.5,-142.5 132.5,-142.5"/>
<text text-anchor="middle" x="219" y="-149.5" font-family="Helvetica,sans-Serif" font-size="10.00">view.ButtonBar.makeVButtonBar</text>
</a>
</g>
</g>
<!-- Node1&#45;&gt;Node26 -->
<g id="edge26" class="edge"><title>Node1&#45;&gt;Node26</title>
<path fill="none" stroke="midnightblue" d="M45.0276,-344.168C48.8123,-313.257 64.8756,-217.349 122,-171 124.02,-169.361 126.142,-167.85 128.347,-166.457"/>
<polygon fill="midnightblue" stroke="midnightblue" points="130.089,-169.494 137.217,-161.655 126.756,-163.338 130.089,-169.494"/>
</g>
<!-- Node27 -->
<g id="node27" class="node"><title>Node27</title>
<g id="a_node27"><a xlink:href="../../da/d44/classview_1_1_command_guide.html#aeb6f34c3947f2494cff0a14b15793008" target="_top" xlink:title="view.CommandGuide.openCommand\lGuide">
<polygon fill="white" stroke="black" points="122,-93 122,-123 316,-123 316,-93 122,-93"/>
<text text-anchor="start" x="130" y="-111" font-family="Helvetica,sans-Serif" font-size="10.00">view.CommandGuide.openCommand</text>
<text text-anchor="middle" x="219" y="-100" font-family="Helvetica,sans-Serif" font-size="10.00">Guide</text>
</a>
</g>
</g>
<!-- Node1&#45;&gt;Node27 -->
<g id="edge27" class="edge"><title>Node1&#45;&gt;Node27</title>
<path fill="none" stroke="midnightblue" d="M44.3526,-344.335C46.1463,-309.995 56.9857,-192.738 122,-133 123.7,-131.438 125.486,-129.971 127.343,-128.593"/>
<polygon fill="midnightblue" stroke="midnightblue" points="129.371,-131.45 135.901,-123.107 125.593,-125.557 129.371,-131.45"/>
</g>
<!-- Node28 -->
<g id="node28" class="node"><title>Node28</title>
<g id="a_node28"><a xlink:href="../../d8/da5/classview_1_1_create_design.html#a4552eff83910a3510b98f123945ce0da" target="_top" xlink:title="view.CreateDesign.saveFile">
<polygon fill="white" stroke="black" points="146.5,-558.5 146.5,-577.5 291.5,-577.5 291.5,-558.5 146.5,-558.5"/>
<text text-anchor="middle" x="219" y="-565.5" font-family="Helvetica,sans-Serif" font-size="10.00">view.CreateDesign.saveFile</text>
</a>
</g>
</g>
<!-- Node1&#45;&gt;Node28 -->
<g id="edge28" class="edge"><title>Node1&#45;&gt;Node28</title>
<path fill="none" stroke="midnightblue" d="M44.9492,-363.633C48.5571,-394.85 64.2867,-494.08 122,-544 126.775,-548.13 132.158,-551.569 137.875,-554.43"/>
<polygon fill="midnightblue" stroke="midnightblue" points="136.531,-557.663 147.095,-558.467 139.338,-551.25 136.531,-557.663"/>
</g>
<!-- Node30 -->
<g id="node30" class="node"><title>Node30</title>
<g id="a_node30"><a xlink:href="../../df/d10/classview_1_1_language_chooser.html#a638bfb57c9d44edbc77c09dbbea172f2" target="_top" xlink:title="view.LanguageChooser.set\lLanguage">
<polygon fill="white" stroke="black" points="147.5,-44 147.5,-74 290.5,-74 290.5,-44 147.5,-44"/>
<text text-anchor="start" x="155.5" y="-62" font-family="Helvetica,sans-Serif" font-size="10.00">view.LanguageChooser.set</text>
<text text-anchor="middle" x="219" y="-51" font-family="Helvetica,sans-Serif" font-size="10.00">Language</text>
</a>
</g>
</g>
<!-- Node1&#45;&gt;Node30 -->
<g id="edge32" class="edge"><title>Node1&#45;&gt;Node30</title>
<path fill="none" stroke="midnightblue" d="M43.61,-344.402C42.5844,-305.512 44.1548,-158.147 122,-83 126.705,-78.4585 132.132,-74.7369 137.964,-71.6918"/>
<polygon fill="midnightblue" stroke="midnightblue" points="139.73,-74.7355 147.416,-67.443 136.86,-68.351 139.73,-74.7355"/>
</g>
<!-- Node33 -->
<g id="node33" class="node"><title>Node33</title>
<g id="a_node33"><a xlink:href="../../dd/d5e/classview_1_1_image_chooser.html#acce8e5e36cde606043547a64c1f44223" target="_top" xlink:title="view.ImageChooser.start">
<polygon fill="white" stroke="black" points="152,-5.5 152,-24.5 286,-24.5 286,-5.5 152,-5.5"/>
<text text-anchor="middle" x="219" y="-12.5" font-family="Helvetica,sans-Serif" font-size="10.00">view.ImageChooser.start</text>
</a>
</g>
</g>
<!-- Node1&#45;&gt;Node33 -->
<g id="edge35" class="edge"><title>Node1&#45;&gt;Node33</title>
<path fill="none" stroke="midnightblue" d="M44.9711,-344.339C50.0488,-295.774 75.1159,-78.8789 122,-34 127.782,-28.4654 134.687,-24.3244 142.105,-21.2514"/>
<polygon fill="midnightblue" stroke="midnightblue" points="143.435,-24.4948 151.731,-17.9057 141.137,-17.8828 143.435,-24.4948"/>
</g>
<!-- Node5 -->
<g id="node5" class="node"><title>Node5</title>
<g id="a_node5"><a xlink:href="../../d3/dfc/classview_1_1_enter_commands.html#a1d0bf48565d2681b213f2c735c896ee0" target="_top" xlink:title="view.EnterCommands.addCommand">
<polygon fill="white" stroke="black" points="352.5,-672.5 352.5,-691.5 543.5,-691.5 543.5,-672.5 352.5,-672.5"/>
<text text-anchor="middle" x="448" y="-679.5" font-family="Helvetica,sans-Serif" font-size="10.00">view.EnterCommands.addCommand</text>
</a>
</g>
</g>
<!-- Node4&#45;&gt;Node5 -->
<g id="edge4" class="edge"><title>Node4&#45;&gt;Node5</title>
<path fill="none" stroke="midnightblue" d="M289.527,-626.812C298.62,-629.698 307.664,-633.074 316,-637 333.856,-645.409 333.911,-655.107 352,-663 357.868,-665.56 364.091,-667.779 370.434,-669.702"/>
<polygon fill="midnightblue" stroke="midnightblue" points="369.894,-673.184 380.466,-672.486 371.766,-666.439 369.894,-673.184"/>
</g>
<!-- Node6 -->
<g id="node6" class="node"><title>Node6</title>
<g id="a_node6"><a xlink:href="../../d7/d64/classview_1_1_error_display.html#a6c3f2eacf1ed428f546b8df535aea14d" target="_top" xlink:title="view.ErrorDisplay.QuitError">
<polygon fill="white" stroke="black" points="377.5,-596.5 377.5,-615.5 518.5,-615.5 518.5,-596.5 377.5,-596.5"/>
<text text-anchor="middle" x="448" y="-603.5" font-family="Helvetica,sans-Serif" font-size="10.00">view.ErrorDisplay.QuitError</text>
</a>
</g>
</g>
<!-- Node4&#45;&gt;Node6 -->
<g id="edge5" class="edge"><title>Node4&#45;&gt;Node6</title>
<path fill="none" stroke="midnightblue" d="M289.65,-610.159C314.163,-609.511 341.9,-608.778 367.185,-608.11"/>
<polygon fill="midnightblue" stroke="midnightblue" points="367.578,-611.601 377.482,-607.837 367.393,-604.603 367.578,-611.601"/>
</g>
<!-- Node8 -->
<g id="node8" class="node"><title>Node8</title>
<g id="a_node8"><a xlink:href="../../de/d83/classview_1_1_import_design.html#af8cc1739fba8473b1983acb24fd9d47c" target="_top" xlink:title="view.ImportDesign.readFile">
<polygon fill="white" stroke="black" points="376.5,-634.5 376.5,-653.5 519.5,-653.5 519.5,-634.5 376.5,-634.5"/>
<text text-anchor="middle" x="448" y="-641.5" font-family="Helvetica,sans-Serif" font-size="10.00">view.ImportDesign.readFile</text>
</a>
</g>
</g>
<!-- Node4&#45;&gt;Node8 -->
<g id="edge7" class="edge"><title>Node4&#45;&gt;Node8</title>
<path fill="none" stroke="midnightblue" d="M289.65,-621.819C314.847,-625.371 343.451,-629.403 369.296,-633.046"/>
<polygon fill="midnightblue" stroke="midnightblue" points="369.038,-636.544 379.429,-634.475 370.015,-629.613 369.038,-636.544"/>
</g>
<!-- Node7 -->
<g id="node7" class="node"><title>Node7</title>
<g id="a_node7"><a xlink:href="../../d7/d64/classview_1_1_error_display.html#a0c73067dcb42d542520886861c13953f" target="_top" xlink:title="view.ErrorDisplay.message">
<polygon fill="white" stroke="black" points="589.5,-596.5 589.5,-615.5 732.5,-615.5 732.5,-596.5 589.5,-596.5"/>
<text text-anchor="middle" x="661" y="-603.5" font-family="Helvetica,sans-Serif" font-size="10.00">view.ErrorDisplay.message</text>
</a>
</g>
</g>
<!-- Node6&#45;&gt;Node7 -->
<g id="edge6" class="edge"><title>Node6&#45;&gt;Node7</title>
<path fill="none" stroke="midnightblue" d="M518.674,-606C538.082,-606 559.326,-606 579.311,-606"/>
<polygon fill="midnightblue" stroke="midnightblue" points="579.317,-609.5 589.317,-606 579.317,-602.5 579.317,-609.5"/>
</g>
<!-- Node14 -->
<g id="node14" class="node"><title>Node14</title>
<g id="a_node14"><a xlink:href="../../d4/d54/classview_1_1_turtle_state.html#a3e4441bdb52aa2698734b68d1c2f851a" target="_top" xlink:title="view.TurtleState.attrib">
<polygon fill="white" stroke="black" points="388.5,-388.5 388.5,-407.5 507.5,-407.5 507.5,-388.5 388.5,-388.5"/>
<text text-anchor="middle" x="448" y="-395.5" font-family="Helvetica,sans-Serif" font-size="10.00">view.TurtleState.attrib</text>
</a>
</g>
</g>
<!-- Node13&#45;&gt;Node14 -->
<g id="edge13" class="edge"><title>Node13&#45;&gt;Node14</title>
<path fill="none" stroke="midnightblue" d="M282.029,-398C311.749,-398 347.443,-398 378.017,-398"/>
<polygon fill="midnightblue" stroke="midnightblue" points="378.173,-401.5 388.173,-398 378.173,-394.5 378.173,-401.5"/>
</g>
<!-- Node16 -->
<g id="node16" class="node"><title>Node16</title>
<g id="a_node16"><a xlink:href="../../d4/d54/classview_1_1_turtle_state.html#abdea116a1a22735abf21aae594bf68ef" target="_top" xlink:title="view.TurtleState.StateOf\lTurtle">
<polygon fill="white" stroke="black" points="382.5,-339 382.5,-369 513.5,-369 513.5,-339 382.5,-339"/>
<text text-anchor="start" x="390.5" y="-357" font-family="Helvetica,sans-Serif" font-size="10.00">view.TurtleState.StateOf</text>
<text text-anchor="middle" x="448" y="-346" font-family="Helvetica,sans-Serif" font-size="10.00">Turtle</text>
</a>
</g>
</g>
<!-- Node13&#45;&gt;Node16 -->
<g id="edge16" class="edge"><title>Node13&#45;&gt;Node16</title>
<path fill="none" stroke="midnightblue" d="M282.029,-385.977C309.859,-380.582 342.926,-374.173 372.123,-368.514"/>
<polygon fill="midnightblue" stroke="midnightblue" points="373.122,-371.885 382.274,-366.546 371.79,-365.013 373.122,-371.885"/>
</g>
<!-- Node14&#45;&gt;Node11 -->
<g id="edge15" class="edge"><title>Node14&#45;&gt;Node11</title>
<path fill="none" stroke="midnightblue" d="M494.784,-407.547C526.996,-414.265 570.282,-423.291 604.468,-430.42"/>
<polygon fill="midnightblue" stroke="midnightblue" points="603.802,-433.856 614.305,-432.471 605.231,-427.004 603.802,-433.856"/>
</g>
<!-- Node15 -->
<g id="node15" class="node"><title>Node15</title>
<g id="a_node15"><a xlink:href="../../d1/deb/classapplication_1_1_turtle_list.html#a87d2c5ddc9378480e8b4bfa5e95b5629" target="_top" xlink:title="application.TurtleList.get\lActiveTurtles">
<polygon fill="white" stroke="black" points="595,-383 595,-413 727,-413 727,-383 595,-383"/>
<text text-anchor="start" x="603" y="-401" font-family="Helvetica,sans-Serif" font-size="10.00">application.TurtleList.get</text>
<text text-anchor="middle" x="661" y="-390" font-family="Helvetica,sans-Serif" font-size="10.00">ActiveTurtles</text>
</a>
</g>
</g>
<!-- Node14&#45;&gt;Node15 -->
<g id="edge14" class="edge"><title>Node14&#45;&gt;Node15</title>
<path fill="none" stroke="midnightblue" d="M507.775,-398C531.568,-398 559.334,-398 584.589,-398"/>
<polygon fill="midnightblue" stroke="midnightblue" points="584.868,-401.5 594.868,-398 584.868,-394.5 584.868,-401.5"/>
</g>
<!-- Node17 -->
<g id="node17" class="node"><title>Node17</title>
<g id="a_node17"><a xlink:href="../../d4/d54/classview_1_1_turtle_state.html#a3bb9e702c972e9bf0d45895be22d3f2c" target="_top" xlink:title="view.TurtleState.output">
<polygon fill="white" stroke="black" points="598.5,-344.5 598.5,-363.5 723.5,-363.5 723.5,-344.5 598.5,-344.5"/>
<text text-anchor="middle" x="661" y="-351.5" font-family="Helvetica,sans-Serif" font-size="10.00">view.TurtleState.output</text>
</a>
</g>
</g>
<!-- Node16&#45;&gt;Node17 -->
<g id="edge17" class="edge"><title>Node16&#45;&gt;Node17</title>
<path fill="none" stroke="midnightblue" d="M513.741,-354C537.273,-354 564.001,-354 588.114,-354"/>
<polygon fill="midnightblue" stroke="midnightblue" points="588.271,-357.5 598.271,-354 588.271,-350.5 588.271,-357.5"/>
</g>
<!-- Node18 -->
<g id="node18" class="node"><title>Node18</title>
<g id="a_node18"><a xlink:href="../../d4/d54/classview_1_1_turtle_state.html#a0a10884d38ddbe122790ec162a1bb8b2" target="_top" xlink:title="view.TurtleState.refresh\lButton">
<polygon fill="white" stroke="black" points="597,-295 597,-325 725,-325 725,-295 597,-295"/>
<text text-anchor="start" x="605" y="-313" font-family="Helvetica,sans-Serif" font-size="10.00">view.TurtleState.refresh</text>
<text text-anchor="middle" x="661" y="-302" font-family="Helvetica,sans-Serif" font-size="10.00">Button</text>
</a>
</g>
</g>
<!-- Node16&#45;&gt;Node18 -->
<g id="edge18" class="edge"><title>Node16&#45;&gt;Node18</title>
<path fill="none" stroke="midnightblue" d="M513.741,-340.5C536.849,-335.681 563.039,-330.219 586.808,-325.263"/>
<polygon fill="midnightblue" stroke="midnightblue" points="587.756,-328.641 596.83,-323.173 586.326,-321.788 587.756,-328.641"/>
</g>
<!-- Node19 -->
<g id="node19" class="node"><title>Node19</title>
<g id="a_node19"><a xlink:href="../../d4/d54/classview_1_1_turtle_state.html#a82984a055d38c6f5a2a4fae97741ce2c" target="_top" xlink:title="view.TurtleState.refresh">
<polygon fill="white" stroke="black" points="778,-300.5 778,-319.5 906,-319.5 906,-300.5 778,-300.5"/>
<text text-anchor="middle" x="842" y="-307.5" font-family="Helvetica,sans-Serif" font-size="10.00">view.TurtleState.refresh</text>
</a>
</g>
</g>
<!-- Node18&#45;&gt;Node19 -->
<g id="edge19" class="edge"><title>Node18&#45;&gt;Node19</title>
<path fill="none" stroke="midnightblue" d="M725.109,-310C738.878,-310 753.562,-310 767.69,-310"/>
<polygon fill="midnightblue" stroke="midnightblue" points="767.858,-313.5 777.858,-310 767.858,-306.5 767.858,-313.5"/>
</g>
<!-- Node22 -->
<g id="node22" class="node"><title>Node22</title>
<g id="a_node22"><a xlink:href="../../d6/d05/classview_1_1_color_chooser.html#a66232fdbcddc16c0550b7094a0807028" target="_top" xlink:title="view.ColorChooser.format\lColorSelector">
<polygon fill="white" stroke="black" points="379,-257 379,-287 517,-287 517,-257 379,-257"/>
<text text-anchor="start" x="387" y="-275" font-family="Helvetica,sans-Serif" font-size="10.00">view.ColorChooser.format</text>
<text text-anchor="middle" x="448" y="-264" font-family="Helvetica,sans-Serif" font-size="10.00">ColorSelector</text>
</a>
</g>
</g>
<!-- Node21&#45;&gt;Node22 -->
<g id="edge22" class="edge"><title>Node21&#45;&gt;Node22</title>
<path fill="none" stroke="midnightblue" d="M298.121,-272C321.022,-272 346.059,-272 368.956,-272"/>
<polygon fill="midnightblue" stroke="midnightblue" points="368.967,-275.5 378.967,-272 368.967,-268.5 368.967,-275.5"/>
</g>
<!-- Node24 -->
<g id="node24" class="node"><title>Node24</title>
<g id="a_node24"><a xlink:href="../../d1/d1a/classview_1_1_display.html#a6809a7a7ebf1366aa0417c5f12d29b26" target="_top" xlink:title="view.Display.addTurtle">
<polygon fill="white" stroke="black" points="388.5,-218.5 388.5,-237.5 507.5,-237.5 507.5,-218.5 388.5,-218.5"/>
<text text-anchor="middle" x="448" y="-225.5" font-family="Helvetica,sans-Serif" font-size="10.00">view.Display.addTurtle</text>
</a>
</g>
</g>
<!-- Node23&#45;&gt;Node24 -->
<g id="edge24" class="edge"><title>Node23&#45;&gt;Node24</title>
<path fill="none" stroke="midnightblue" d="M287.8,-228C316.307,-228 349.431,-228 378.059,-228"/>
<polygon fill="midnightblue" stroke="midnightblue" points="378.386,-231.5 388.386,-228 378.386,-224.5 378.386,-231.5"/>
</g>
<!-- Node28&#45;&gt;Node6 -->
<g id="edge31" class="edge"><title>Node28&#45;&gt;Node6</title>
<path fill="none" stroke="midnightblue" d="M276.989,-577.54C308.291,-582.78 347.292,-589.309 380.041,-594.791"/>
<polygon fill="midnightblue" stroke="midnightblue" points="379.547,-598.257 389.988,-596.456 380.703,-591.353 379.547,-598.257"/>
</g>
<!-- Node29 -->
<g id="node29" class="node"><title>Node29</title>
<g id="a_node29"><a xlink:href="../../d3/dfc/classview_1_1_enter_commands.html#accac5331932cfb53b59d1ba5b2027184" target="_top" xlink:title="view.EnterCommands.getHistory">
<polygon fill="white" stroke="black" points="361.5,-558.5 361.5,-577.5 534.5,-577.5 534.5,-558.5 361.5,-558.5"/>
<text text-anchor="middle" x="448" y="-565.5" font-family="Helvetica,sans-Serif" font-size="10.00">view.EnterCommands.getHistory</text>
</a>
</g>
</g>
<!-- Node28&#45;&gt;Node29 -->
<g id="edge29" class="edge"><title>Node28&#45;&gt;Node29</title>
<path fill="none" stroke="midnightblue" d="M291.513,-568C310.412,-568 331.12,-568 351.084,-568"/>
<polygon fill="midnightblue" stroke="midnightblue" points="351.127,-571.5 361.127,-568 351.127,-564.5 351.127,-571.5"/>
</g>
<!-- Node29&#45;&gt;Node9 -->
<g id="edge30" class="edge"><title>Node29&#45;&gt;Node9</title>
<path fill="none" stroke="midnightblue" d="M534.518,-559.083C547.407,-557.74 560.71,-556.352 573.618,-555.007"/>
<polygon fill="midnightblue" stroke="midnightblue" points="574.287,-558.456 583.87,-553.938 573.561,-551.494 574.287,-558.456"/>
</g>
<!-- Node31 -->
<g id="node31" class="node"><title>Node31</title>
<g id="a_node31"><a xlink:href="../../d3/dbe/classview_1_1_view.html#a318198fbcd4b1cac52bff73680ca8730" target="_top" xlink:title="view.View.getModel">
<polygon fill="white" stroke="black" points="394.5,-84.5 394.5,-103.5 501.5,-103.5 501.5,-84.5 394.5,-84.5"/>
<text text-anchor="middle" x="448" y="-91.5" font-family="Helvetica,sans-Serif" font-size="10.00">view.View.getModel</text>
</a>
</g>
</g>
<!-- Node30&#45;&gt;Node31 -->
<g id="edge33" class="edge"><title>Node30&#45;&gt;Node31</title>
<path fill="none" stroke="midnightblue" d="M290.58,-69.8824C320.617,-74.5136 355.357,-79.87 384.457,-84.3569"/>
<polygon fill="midnightblue" stroke="midnightblue" points="384.082,-87.8402 394.498,-85.905 385.149,-80.922 384.082,-87.8402"/>
</g>
<!-- Node32 -->
<g id="node32" class="node"><title>Node32</title>
<g id="a_node32"><a xlink:href="../../dd/d17/classapplication_1_1_model.html#a31a6a7f1c136e4fccef5f51525c9ade0" target="_top" xlink:title="application.Model.setLanguage">
<polygon fill="white" stroke="black" points="365.5,-46.5 365.5,-65.5 530.5,-65.5 530.5,-46.5 365.5,-46.5"/>
<text text-anchor="middle" x="448" y="-53.5" font-family="Helvetica,sans-Serif" font-size="10.00">application.Model.setLanguage</text>
</a>
</g>
</g>
<!-- Node30&#45;&gt;Node32 -->
<g id="edge34" class="edge"><title>Node30&#45;&gt;Node32</title>
<path fill="none" stroke="midnightblue" d="M290.58,-58.0672C311.029,-57.797 333.657,-57.4979 355.202,-57.2132"/>
<polygon fill="midnightblue" stroke="midnightblue" points="355.391,-60.7111 365.343,-57.0792 355.298,-53.7117 355.391,-60.7111"/>
</g>
<!-- Node34 -->
<g id="node34" class="node"><title>Node34</title>
<g id="a_node34"><a xlink:href="../../dd/d5e/classview_1_1_image_chooser.html#a6d668cc328dfded5d66f3311c8a5637d" target="_top" xlink:title="view.ImageChooser.openFile">
<polygon fill="white" stroke="black" points="373,-5.5 373,-24.5 523,-24.5 523,-5.5 373,-5.5"/>
<text text-anchor="middle" x="448" y="-12.5" font-family="Helvetica,sans-Serif" font-size="10.00">view.ImageChooser.openFile</text>
</a>
</g>
</g>
<!-- Node33&#45;&gt;Node34 -->
<g id="edge36" class="edge"><title>Node33&#45;&gt;Node34</title>
<path fill="none" stroke="midnightblue" d="M286.268,-15C310.077,-15 337.26,-15 362.413,-15"/>
<polygon fill="midnightblue" stroke="midnightblue" points="362.68,-18.5001 372.68,-15 362.68,-11.5001 362.68,-18.5001"/>
</g>
<!-- Node35 -->
<g id="node35" class="node"><title>Node35</title>
<g id="a_node35"><a xlink:href="../../d1/d1a/classview_1_1_display.html#a09cd42ab0296796c2c321ba6cb02a8b8" target="_top" xlink:title="view.Display.updateTurtle\lImage">
<polygon fill="white" stroke="black" points="594,-0 594,-30 728,-30 728,-0 594,-0"/>
<text text-anchor="start" x="602" y="-18" font-family="Helvetica,sans-Serif" font-size="10.00">view.Display.updateTurtle</text>
<text text-anchor="middle" x="661" y="-7" font-family="Helvetica,sans-Serif" font-size="10.00">Image</text>
</a>
</g>
</g>
<!-- Node34&#45;&gt;Node35 -->
<g id="edge37" class="edge"><title>Node34&#45;&gt;Node35</title>
<path fill="none" stroke="midnightblue" d="M523.094,-15C542.711,-15 563.922,-15 583.656,-15"/>
<polygon fill="midnightblue" stroke="midnightblue" points="583.825,-18.5001 593.825,-15 583.825,-11.5001 583.825,-18.5001"/>
</g>
</g>
</svg>
