<?xml version="1.0" encoding="UTF-8" standalone="no"?>
<!DOCTYPE svg PUBLIC "-//W3C//DTD SVG 1.1//EN"
 "http://www.w3.org/Graphics/SVG/1.1/DTD/svg11.dtd">
<!-- Generated by graphviz version 2.36.0 (20140111.2315)
 -->
<!-- Title: view.View.addModelListeners Pages: 1 -->
<!--zoomable 1090 -->
<svg id="main" version="1.1" xmlns="http://www.w3.org/2000/svg" xmlns:xlink="http://www.w3.org/1999/xlink" xml:space="preserve" onload="init(evt)">
<style type="text/css"><![CDATA[
.edge:hover path { stroke: red; }
.edge:hover polygon { stroke: red; fill: red; }
]]></style>
<script type="text/javascript"><![CDATA[
var edges = document.getElementsByTagName('g');
if (edges && edges.length) {
  for (var i=0;i<edges.length;i++) {
    if (edges[i].id.substr(0,4)=='edge') {
      edges[i].setAttribute('class','edge');
    }
  }
}
]]></script>
        <defs>
                <circle id="rim" cx="0" cy="0" r="7"/>
                <circle id="rim2" cx="0" cy="0" r="3.5"/>
                <g id="zoomPlus">
                        <use xlink:href="#rim" fill="#404040">
                                <set attributeName="fill" to="#808080" begin="zoomplus.mouseover" end="zoomplus.mouseout"/>
                        </use>
                        <path d="M-4,0h8M0,-4v8" fill="none" stroke="white" stroke-width="1.5" pointer-events="none"/>
                </g>
                <g id="zoomMin">
                        <use xlink:href="#rim" fill="#404040">
                                <set attributeName="fill" to="#808080" begin="zoomminus.mouseover" end="zoomminus.mouseout"/>
                        </use>
                        <path d="M-4,0h8" fill="none" stroke="white" stroke-width="1.5" pointer-events="none"/>
                </g>
                <g id="dirArrow">
                        <path fill="none" stroke="white" stroke-width="1.5" d="M0,-3.0v7 M-2.5,-0.5L0,-3.0L2.5,-0.5"/>
                </g>
               <g id="resetDef">
                       <use xlink:href="#rim2" fill="#404040">
                               <set attributeName="fill" to="#808080" begin="reset.mouseover" end="reset.mouseout"/>
                       </use>
               </g>
        </defs>

<script type="text/javascript">
var viewWidth = 770;
var viewHeight = 1090;
var sectionId = 'dynsection-1';
</script>
<script xlink:href="../../svgpan.js"/>
<svg id="graph" class="graph">
<g id="viewport">
<title>view.View.addModelListeners</title>
<polygon fill="white" stroke="none" points="-4,4 -4,-1086 766,-1086 766,4 -4,4"/>
<!-- Node1 -->
<g id="node1" class="node"><title>Node1</title>
<polygon fill="#bfbfbf" stroke="black" points="0.5,-443.5 0.5,-462.5 153.5,-462.5 153.5,-443.5 0.5,-443.5"/>
<text text-anchor="middle" x="77" y="-450.5" font-family="Helvetica,sans-Serif" font-size="10.00">view.View.addModelListeners</text>
</g>
<!-- Node2 -->
<g id="node2" class="node"><title>Node2</title>
<g id="a_node2"><a xlink:href="../../d1/d1a/classview_1_1_display.html#a38e173e9f2975b993df2b99e96a2b1ca" target="_top" xlink:title="view.Display.addToRoot">
<polygon fill="white" stroke="black" points="213,-875.5 213,-894.5 337,-894.5 337,-875.5 213,-875.5"/>
<text text-anchor="middle" x="275" y="-882.5" font-family="Helvetica,sans-Serif" font-size="10.00">view.Display.addToRoot</text>
</a>
</g>
</g>
<!-- Node1&#45;&gt;Node2 -->
<g id="edge1" class="edge"><title>Node1&#45;&gt;Node2</title>
<path fill="none" stroke="midnightblue" d="M79.2725,-462.713C86.8872,-519.376 128.188,-806.753 190,-866 193.881,-869.72 198.328,-872.769 203.107,-875.264"/>
<polygon fill="midnightblue" stroke="midnightblue" points="202.076,-878.632 212.642,-879.407 204.865,-872.212 202.076,-878.632"/>
</g>
<!-- Node3 -->
<g id="node3" class="node"><title>Node3</title>
<g id="a_node3"><a xlink:href="../../d1/d1a/classview_1_1_display.html#a6809a7a7ebf1366aa0417c5f12d29b26" target="_top" xlink:title="view.Display.addTurtle">
<polygon fill="white" stroke="black" points="414.5,-434.5 414.5,-453.5 533.5,-453.5 533.5,-434.5 414.5,-434.5"/>
<text text-anchor="middle" x="474" y="-441.5" font-family="Helvetica,sans-Serif" font-size="10.00">view.Display.addTurtle</text>
</a>
</g>
</g>
<!-- Node1&#45;&gt;Node3 -->
<g id="edge2" class="edge"><title>Node1&#45;&gt;Node3</title>
<path fill="none" stroke="midnightblue" d="M81.6392,-462.826C92.7075,-491.071 128.988,-572.412 190,-603 257.543,-636.862 292.86,-637.653 360,-603 417.817,-573.159 452.497,-498.555 466.204,-463.183"/>
<polygon fill="midnightblue" stroke="midnightblue" points="469.578,-464.151 469.787,-453.558 463.018,-461.709 469.578,-464.151"/>
</g>
<!-- Node4 -->
<g id="node4" class="node"><title>Node4</title>
<g id="a_node4"><a xlink:href="../../d3/dbe/classview_1_1_view.html#a808f20def9060b723dd4974bc7553155" target="_top" xlink:title="view.View.addTurtleListeners">
<polygon fill="white" stroke="black" points="200,-837.5 200,-856.5 350,-856.5 350,-837.5 200,-837.5"/>
<text text-anchor="middle" x="275" y="-844.5" font-family="Helvetica,sans-Serif" font-size="10.00">view.View.addTurtleListeners</text>
</a>
</g>
</g>
<!-- Node1&#45;&gt;Node4 -->
<g id="edge3" class="edge"><title>Node1&#45;&gt;Node4</title>
<path fill="none" stroke="midnightblue" d="M77.6394,-462.605C76.4097,-510.23 77.553,-722.928 190,-828 191.516,-829.416 193.114,-830.735 194.781,-831.962"/>
<polygon fill="midnightblue" stroke="midnightblue" points="193.273,-835.142 203.631,-837.368 196.922,-829.169 193.273,-835.142"/>
</g>
<!-- Node15 -->
<g id="node15" class="node"><title>Node15</title>
<g id="a_node15"><a xlink:href="../../dd/d17/classapplication_1_1_model.html#aa8b0b73eaf7a90d7cf114b7f72fa12ec" target="_top" xlink:title="application.Model.background\lProperty">
<polygon fill="white" stroke="black" points="195.5,-750 195.5,-780 354.5,-780 354.5,-750 195.5,-750"/>
<text text-anchor="start" x="203.5" y="-768" font-family="Helvetica,sans-Serif" font-size="10.00">application.Model.background</text>
<text text-anchor="middle" x="275" y="-757" font-family="Helvetica,sans-Serif" font-size="10.00">Property</text>
</a>
</g>
</g>
<!-- Node1&#45;&gt;Node15 -->
<g id="edge14" class="edge"><title>Node1&#45;&gt;Node15</title>
<path fill="none" stroke="midnightblue" d="M78.7789,-462.587C82.5683,-502.812 102.636,-659.586 190,-740 191.683,-741.549 193.457,-743.002 195.308,-744.365"/>
<polygon fill="midnightblue" stroke="midnightblue" points="193.532,-747.384 203.851,-749.786 197.282,-741.473 193.532,-747.384"/>
</g>
<!-- Node16 -->
<g id="node16" class="node"><title>Node16</title>
<g id="a_node16"><a xlink:href="../../dd/d17/classapplication_1_1_model.html#a720c4d7864cbc6057f611cd2a33c3d8c" target="_top" xlink:title="application.Model.clearScreen\lProperty">
<polygon fill="white" stroke="black" points="195,-701 195,-731 355,-731 355,-701 195,-701"/>
<text text-anchor="start" x="203" y="-719" font-family="Helvetica,sans-Serif" font-size="10.00">application.Model.clearScreen</text>
<text text-anchor="middle" x="275" y="-708" font-family="Helvetica,sans-Serif" font-size="10.00">Property</text>
</a>
</g>
</g>
<!-- Node1&#45;&gt;Node16 -->
<g id="edge15" class="edge"><title>Node1&#45;&gt;Node16</title>
<path fill="none" stroke="midnightblue" d="M79.6808,-462.885C86.3714,-499.145 114.511,-626.1 190,-691 191.969,-692.692 194.048,-694.27 196.215,-695.742"/>
<polygon fill="midnightblue" stroke="midnightblue" points="194.564,-698.831 204.954,-700.903 198.123,-692.804 194.564,-698.831"/>
</g>
<!-- Node17 -->
<g id="node17" class="node"><title>Node17</title>
<g id="a_node17"><a xlink:href="../../dd/d17/classapplication_1_1_model.html#aae61fd8906b6795789ec63cb7b969c8b" target="_top" xlink:title="application.Model.clearStamp\lProperty">
<polygon fill="white" stroke="black" points="196,-652 196,-682 354,-682 354,-652 196,-652"/>
<text text-anchor="start" x="204" y="-670" font-family="Helvetica,sans-Serif" font-size="10.00">application.Model.clearStamp</text>
<text text-anchor="middle" x="275" y="-659" font-family="Helvetica,sans-Serif" font-size="10.00">Property</text>
</a>
</g>
</g>
<!-- Node1&#45;&gt;Node17 -->
<g id="edge16" class="edge"><title>Node1&#45;&gt;Node17</title>
<path fill="none" stroke="midnightblue" d="M81.1907,-462.572C91.7171,-492.722 128.238,-586.696 190,-637 194.885,-640.979 200.34,-644.451 206.059,-647.477"/>
<polygon fill="midnightblue" stroke="midnightblue" points="204.69,-650.702 215.22,-651.873 207.718,-644.391 204.69,-650.702"/>
</g>
<!-- Node18 -->
<g id="node18" class="node"><title>Node18</title>
<g id="a_node18"><a xlink:href="../../d3/dbe/classview_1_1_view.html#a6b05d2b97544251a998d74941d37038e" target="_top" xlink:title="view.View.displayError">
<polygon fill="white" stroke="black" points="215.5,-799.5 215.5,-818.5 334.5,-818.5 334.5,-799.5 215.5,-799.5"/>
<text text-anchor="middle" x="275" y="-806.5" font-family="Helvetica,sans-Serif" font-size="10.00">view.View.displayError</text>
</a>
</g>
</g>
<!-- Node1&#45;&gt;Node18 -->
<g id="edge17" class="edge"><title>Node1&#45;&gt;Node18</title>
<path fill="none" stroke="midnightblue" d="M78.0455,-462.775C78.812,-507.659 88.1901,-695.778 190,-789 194.716,-793.318 200.193,-796.753 206.046,-799.478"/>
<polygon fill="midnightblue" stroke="midnightblue" points="204.91,-802.793 215.497,-803.202 207.477,-796.28 204.91,-802.793"/>
</g>
<!-- Node20 -->
<g id="node20" class="node"><title>Node20</title>
<g id="a_node20"><a xlink:href="../../dd/d17/classapplication_1_1_model.html#a09699b01958f2fae8d980421c5af1811" target="_top" xlink:title="application.Model.errorMessage\lProperty">
<polygon fill="white" stroke="black" points="190.5,-564 190.5,-594 359.5,-594 359.5,-564 190.5,-564"/>
<text text-anchor="start" x="198.5" y="-582" font-family="Helvetica,sans-Serif" font-size="10.00">application.Model.errorMessage</text>
<text text-anchor="middle" x="275" y="-571" font-family="Helvetica,sans-Serif" font-size="10.00">Property</text>
</a>
</g>
</g>
<!-- Node1&#45;&gt;Node20 -->
<g id="edge19" class="edge"><title>Node1&#45;&gt;Node20</title>
<path fill="none" stroke="midnightblue" d="M85.9377,-462.598C102.944,-482.551 145.022,-528.75 190,-554 193.912,-556.196 198.037,-558.218 202.274,-560.077"/>
<polygon fill="midnightblue" stroke="midnightblue" points="201.108,-563.38 211.69,-563.889 203.735,-556.892 201.108,-563.38"/>
</g>
<!-- Node21 -->
<g id="node21" class="node"><title>Node21</title>
<g id="a_node21"><a xlink:href="../../d1/d1a/classview_1_1_display.html#a03e05d48dd3ba5d7feb81bdd027383c2" target="_top" xlink:title="view.Display.getMap">
<polygon fill="white" stroke="black" points="219.5,-525.5 219.5,-544.5 330.5,-544.5 330.5,-525.5 219.5,-525.5"/>
<text text-anchor="middle" x="275" y="-532.5" font-family="Helvetica,sans-Serif" font-size="10.00">view.Display.getMap</text>
</a>
</g>
</g>
<!-- Node1&#45;&gt;Node21 -->
<g id="edge20" class="edge"><title>Node1&#45;&gt;Node21</title>
<path fill="none" stroke="midnightblue" d="M91.8432,-462.547C112.377,-476.289 152.523,-501.575 190,-516 196.715,-518.585 203.874,-520.869 211.073,-522.875"/>
<polygon fill="midnightblue" stroke="midnightblue" points="210.316,-526.294 220.876,-525.439 212.087,-519.522 210.316,-526.294"/>
</g>
<!-- Node22 -->
<g id="node22" class="node"><title>Node22</title>
<g id="a_node22"><a xlink:href="../../d1/d1a/classview_1_1_display.html#ac1ae4c5935665f8fc4eb828506c3a6f4" target="_top" xlink:title="view.Display.getRoot">
<polygon fill="white" stroke="black" points="219,-487.5 219,-506.5 331,-506.5 331,-487.5 219,-487.5"/>
<text text-anchor="middle" x="275" y="-494.5" font-family="Helvetica,sans-Serif" font-size="10.00">view.Display.getRoot</text>
</a>
</g>
</g>
<!-- Node1&#45;&gt;Node22 -->
<g id="edge21" class="edge"><title>Node1&#45;&gt;Node22</title>
<path fill="none" stroke="midnightblue" d="M120.529,-462.547C150.194,-469.207 189.971,-478.136 221.596,-485.236"/>
<polygon fill="midnightblue" stroke="midnightblue" points="221.03,-488.696 231.554,-487.471 222.563,-481.866 221.03,-488.696"/>
</g>
<!-- Node23 -->
<g id="node23" class="node"><title>Node23</title>
<g id="a_node23"><a xlink:href="../../df/d10/classview_1_1_language_chooser.html#a82ea8efbdca9cbb66c70af5530fd52ac" target="_top" xlink:title="view.LanguageChooser.get\lStringProperty">
<polygon fill="white" stroke="black" points="203,-438 203,-468 347,-468 347,-438 203,-438"/>
<text text-anchor="start" x="211" y="-456" font-family="Helvetica,sans-Serif" font-size="10.00">view.LanguageChooser.get</text>
<text text-anchor="middle" x="275" y="-445" font-family="Helvetica,sans-Serif" font-size="10.00">StringProperty</text>
</a>
</g>
</g>
<!-- Node1&#45;&gt;Node23 -->
<g id="edge22" class="edge"><title>Node1&#45;&gt;Node23</title>
<path fill="none" stroke="midnightblue" d="M153.779,-453C166.529,-453 179.809,-453 192.692,-453"/>
<polygon fill="midnightblue" stroke="midnightblue" points="192.921,-456.5 202.921,-453 192.921,-449.5 192.921,-456.5"/>
</g>
<!-- Node24 -->
<g id="node24" class="node"><title>Node24</title>
<g id="a_node24"><a xlink:href="../../d1/deb/classapplication_1_1_turtle_list.html#a0de066aa32e9e19fe3d8313693a95247" target="_top" xlink:title="application.TurtleList.get\lTurtle">
<polygon fill="white" stroke="black" points="209,-389 209,-419 341,-419 341,-389 209,-389"/>
<text text-anchor="start" x="217" y="-407" font-family="Helvetica,sans-Serif" font-size="10.00">application.TurtleList.get</text>
<text text-anchor="middle" x="275" y="-396" font-family="Helvetica,sans-Serif" font-size="10.00">Turtle</text>
</a>
</g>
</g>
<!-- Node1&#45;&gt;Node24 -->
<g id="edge23" class="edge"><title>Node1&#45;&gt;Node24</title>
<path fill="none" stroke="midnightblue" d="M116.256,-443.436C141.179,-437.205 174.437,-428.891 203.99,-421.503"/>
<polygon fill="midnightblue" stroke="midnightblue" points="205,-424.858 213.852,-419.037 203.302,-418.067 205,-424.858"/>
</g>
<!-- Node25 -->
<g id="node25" class="node"><title>Node25</title>
<g id="a_node25"><a xlink:href="../../dd/d17/classapplication_1_1_model.html#aa7ed87b9bf32630ff3c5b771feb6a67a" target="_top" xlink:title="application.Model.getTurtleList">
<polygon fill="white" stroke="black" points="194.5,-350.5 194.5,-369.5 355.5,-369.5 355.5,-350.5 194.5,-350.5"/>
<text text-anchor="middle" x="275" y="-357.5" font-family="Helvetica,sans-Serif" font-size="10.00">application.Model.getTurtleList</text>
</a>
</g>
</g>
<!-- Node1&#45;&gt;Node25 -->
<g id="edge24" class="edge"><title>Node1&#45;&gt;Node25</title>
<path fill="none" stroke="midnightblue" d="M89.2868,-443.497C108.629,-427.702 149.913,-396.098 190,-379 195.867,-376.498 202.11,-374.302 208.442,-372.38"/>
<polygon fill="midnightblue" stroke="midnightblue" points="209.741,-375.651 218.425,-369.58 207.851,-368.911 209.741,-375.651"/>
</g>
<!-- Node26 -->
<g id="node26" class="node"><title>Node26</title>
<g id="a_node26"><a xlink:href="../../d1/deb/classapplication_1_1_turtle_list.html#a69cce048d8a5c69017cb3cf4accfb3d1" target="_top" xlink:title="application.TurtleList.IDProperty">
<polygon fill="white" stroke="black" points="191.5,-312.5 191.5,-331.5 358.5,-331.5 358.5,-312.5 191.5,-312.5"/>
<text text-anchor="middle" x="275" y="-319.5" font-family="Helvetica,sans-Serif" font-size="10.00">application.TurtleList.IDProperty</text>
</a>
</g>
</g>
<!-- Node1&#45;&gt;Node26 -->
<g id="edge25" class="edge"><title>Node1&#45;&gt;Node26</title>
<path fill="none" stroke="midnightblue" d="M84.5854,-443.408C100.158,-421.513 141.598,-367.689 190,-341 194.198,-338.685 198.662,-336.652 203.26,-334.867"/>
<polygon fill="midnightblue" stroke="midnightblue" points="204.544,-338.126 212.842,-331.538 202.247,-331.513 204.544,-338.126"/>
</g>
<!-- Node27 -->
<g id="node27" class="node"><title>Node27</title>
<g id="a_node27"><a xlink:href="../../d1/d1a/classview_1_1_display.html#a5a90faf6bdd48db75a4a68793c171b7c" target="_top" xlink:title="view.Display.makeDisplay">
<polygon fill="white" stroke="black" points="206.5,-274.5 206.5,-293.5 343.5,-293.5 343.5,-274.5 206.5,-274.5"/>
<text text-anchor="middle" x="275" y="-281.5" font-family="Helvetica,sans-Serif" font-size="10.00">view.Display.makeDisplay</text>
</a>
</g>
</g>
<!-- Node1&#45;&gt;Node27 -->
<g id="edge26" class="edge"><title>Node1&#45;&gt;Node27</title>
<path fill="none" stroke="midnightblue" d="M82.1787,-443.429C94.4321,-416.561 133.032,-339.994 190,-303 193.198,-300.924 196.592,-299.072 200.111,-297.422"/>
<polygon fill="midnightblue" stroke="midnightblue" points="201.745,-300.535 209.673,-293.506 199.092,-294.057 201.745,-300.535"/>
</g>
<!-- Node28 -->
<g id="node28" class="node"><title>Node28</title>
<g id="a_node28"><a xlink:href="../../dd/d17/classapplication_1_1_model.html#ac9d2f4ee1bfafa90b824428344eef650" target="_top" xlink:title="application.Model.pallet\lProperty">
<polygon fill="white" stroke="black" points="210.5,-225 210.5,-255 339.5,-255 339.5,-225 210.5,-225"/>
<text text-anchor="start" x="218.5" y="-243" font-family="Helvetica,sans-Serif" font-size="10.00">application.Model.pallet</text>
<text text-anchor="middle" x="275" y="-232" font-family="Helvetica,sans-Serif" font-size="10.00">Property</text>
</a>
</g>
</g>
<!-- Node1&#45;&gt;Node28 -->
<g id="edge28" class="edge"><title>Node1&#45;&gt;Node28</title>
<path fill="none" stroke="midnightblue" d="M81.0131,-443.076C91.0124,-411.845 126.141,-314.704 190,-265 193.54,-262.245 197.379,-259.792 201.401,-257.61"/>
<polygon fill="midnightblue" stroke="midnightblue" points="202.963,-260.742 210.453,-253.25 199.925,-254.436 202.963,-260.742"/>
</g>
<!-- Node29 -->
<g id="node29" class="node"><title>Node29</title>
<g id="a_node29"><a xlink:href="../../dd/d17/classapplication_1_1_model.html#a36689862ee176033fe7f2cd205cc8cfb" target="_top" xlink:title="application.Model.penColor\lProperty">
<polygon fill="white" stroke="black" points="202,-176 202,-206 348,-206 348,-176 202,-176"/>
<text text-anchor="start" x="210" y="-194" font-family="Helvetica,sans-Serif" font-size="10.00">application.Model.penColor</text>
<text text-anchor="middle" x="275" y="-183" font-family="Helvetica,sans-Serif" font-size="10.00">Property</text>
</a>
</g>
</g>
<!-- Node1&#45;&gt;Node29 -->
<g id="edge29" class="edge"><title>Node1&#45;&gt;Node29</title>
<path fill="none" stroke="midnightblue" d="M79.6573,-443.087C86.2661,-406.732 114.156,-279.485 190,-215 191.517,-213.711 193.098,-212.49 194.735,-211.335"/>
<polygon fill="midnightblue" stroke="midnightblue" points="196.614,-214.289 203.323,-206.089 192.965,-208.315 196.614,-214.289"/>
</g>
<!-- Node30 -->
<g id="node30" class="node"><title>Node30</title>
<g id="a_node30"><a xlink:href="../../dd/d17/classapplication_1_1_model.html#a63d02440007e1584ac2877ceaed55d1f" target="_top" xlink:title="application.Model.penSize\lProperty">
<polygon fill="white" stroke="black" points="204.5,-127 204.5,-157 345.5,-157 345.5,-127 204.5,-127"/>
<text text-anchor="start" x="212.5" y="-145" font-family="Helvetica,sans-Serif" font-size="10.00">application.Model.penSize</text>
<text text-anchor="middle" x="275" y="-134" font-family="Helvetica,sans-Serif" font-size="10.00">Property</text>
</a>
</g>
</g>
<!-- Node1&#45;&gt;Node30 -->
<g id="edge30" class="edge"><title>Node1&#45;&gt;Node30</title>
<path fill="none" stroke="midnightblue" d="M78.7556,-443.387C82.4515,-403.061 102.196,-245.934 190,-166 191.731,-164.424 193.559,-162.95 195.466,-161.573"/>
<polygon fill="midnightblue" stroke="midnightblue" points="197.608,-164.364 204.275,-156.13 193.928,-158.409 197.608,-164.364"/>
</g>
<!-- Node31 -->
<g id="node31" class="node"><title>Node31</title>
<g id="a_node31"><a xlink:href="../../dd/d17/classapplication_1_1_model.html#a31a6a7f1c136e4fccef5f51525c9ade0" target="_top" xlink:title="application.Model.setLanguage">
<polygon fill="white" stroke="black" points="192.5,-88.5 192.5,-107.5 357.5,-107.5 357.5,-88.5 192.5,-88.5"/>
<text text-anchor="middle" x="275" y="-95.5" font-family="Helvetica,sans-Serif" font-size="10.00">application.Model.setLanguage</text>
</a>
</g>
</g>
<!-- Node1&#45;&gt;Node31 -->
<g id="edge31" class="edge"><title>Node1&#45;&gt;Node31</title>
<path fill="none" stroke="midnightblue" d="M78.0174,-443.497C78.6433,-399.04 87.4373,-209.852 190,-117 191.711,-115.451 193.521,-114.02 195.412,-112.697"/>
<polygon fill="midnightblue" stroke="midnightblue" points="197.304,-115.645 204.166,-107.573 193.768,-109.604 197.304,-115.645"/>
</g>
<!-- Node32 -->
<g id="node32" class="node"><title>Node32</title>
<g id="a_node32"><a xlink:href="../../dd/d17/classapplication_1_1_model.html#aad99353c2f5f15a7b60a353b4d0fcae0" target="_top" xlink:title="application.Model.update\lCommandPatterns">
<polygon fill="white" stroke="black" points="206.5,-39 206.5,-69 343.5,-69 343.5,-39 206.5,-39"/>
<text text-anchor="start" x="214.5" y="-57" font-family="Helvetica,sans-Serif" font-size="10.00">application.Model.update</text>
<text text-anchor="middle" x="275" y="-46" font-family="Helvetica,sans-Serif" font-size="10.00">CommandPatterns</text>
</a>
</g>
</g>
<!-- Node1&#45;&gt;Node32 -->
<g id="edge32" class="edge"><title>Node1&#45;&gt;Node32</title>
<path fill="none" stroke="midnightblue" d="M77.7875,-443.254C77.3039,-395.845 81.5924,-187.224 190,-79 192.369,-76.635 194.951,-74.4919 197.692,-72.55"/>
<polygon fill="midnightblue" stroke="midnightblue" points="199.603,-75.4847 206.339,-67.307 195.973,-69.4991 199.603,-75.4847"/>
</g>
<!-- Node36 -->
<g id="node36" class="node"><title>Node36</title>
<g id="a_node36"><a xlink:href="../../d1/d1a/classview_1_1_display.html#a5d97c9a2e3425a7f1e5ded361ad993f8" target="_top" xlink:title="view.Display.updateMap">
<polygon fill="white" stroke="black" points="210.5,-0.5 210.5,-19.5 339.5,-19.5 339.5,-0.5 210.5,-0.5"/>
<text text-anchor="middle" x="275" y="-7.5" font-family="Helvetica,sans-Serif" font-size="10.00">view.Display.updateMap</text>
</a>
</g>
</g>
<!-- Node1&#45;&gt;Node36 -->
<g id="edge36" class="edge"><title>Node1&#45;&gt;Node36</title>
<path fill="none" stroke="midnightblue" d="M79.1852,-443.406C86.4467,-386.156 126.716,-90.0578 190,-29 193.359,-25.759 197.148,-23.0259 201.212,-20.7251"/>
<polygon fill="midnightblue" stroke="midnightblue" points="202.938,-23.7811 210.489,-16.3492 199.951,-17.4501 202.938,-23.7811"/>
</g>
<!-- Node5 -->
<g id="node5" class="node"><title>Node5</title>
<g id="a_node5"><a xlink:href="../../d1/d31/classapplication_1_1_turtle.html#a9aeb42d200dd4bac290fb0f896af8fc4" target="_top" xlink:title="application.Turtle.getHeading\lProperty">
<polygon fill="white" stroke="black" points="396.5,-905 396.5,-935 551.5,-935 551.5,-905 396.5,-905"/>
<text text-anchor="start" x="404.5" y="-923" font-family="Helvetica,sans-Serif" font-size="10.00">application.Turtle.getHeading</text>
<text text-anchor="middle" x="474" y="-912" font-family="Helvetica,sans-Serif" font-size="10.00">Property</text>
</a>
</g>
</g>
<!-- Node4&#45;&gt;Node5 -->
<g id="edge4" class="edge"><title>Node4&#45;&gt;Node5</title>
<path fill="none" stroke="midnightblue" d="M334.562,-856.617C343.315,-859.082 352.058,-862.161 360,-866 378.498,-874.942 377.931,-885.222 396,-895 400.002,-897.166 404.223,-899.183 408.544,-901.056"/>
<polygon fill="midnightblue" stroke="midnightblue" points="407.534,-904.423 418.117,-904.925 410.157,-897.933 407.534,-904.423"/>
</g>
<!-- Node6 -->
<g id="node6" class="node"><title>Node6</title>
<g id="a_node6"><a xlink:href="../../d1/d1a/classview_1_1_display.html#aaed3fea01db035ba2f25d6aee7367f8b" target="_top" xlink:title="view.Display.updateTurtle\lHeading">
<polygon fill="white" stroke="black" points="407,-856 407,-886 541,-886 541,-856 407,-856"/>
<text text-anchor="start" x="415" y="-874" font-family="Helvetica,sans-Serif" font-size="10.00">view.Display.updateTurtle</text>
<text text-anchor="middle" x="474" y="-863" font-family="Helvetica,sans-Serif" font-size="10.00">Heading</text>
</a>
</g>
</g>
<!-- Node4&#45;&gt;Node6 -->
<g id="edge5" class="edge"><title>Node4&#45;&gt;Node6</title>
<path fill="none" stroke="midnightblue" d="M350.197,-856.039C365.496,-857.903 381.63,-859.869 396.993,-861.74"/>
<polygon fill="midnightblue" stroke="midnightblue" points="396.61,-865.219 406.96,-862.955 397.457,-858.271 396.61,-865.219"/>
</g>
<!-- Node7 -->
<g id="node7" class="node"><title>Node7</title>
<g id="a_node7"><a xlink:href="../../d1/d31/classapplication_1_1_turtle.html#a2aa6d64cf4909c1d5db7d48118491805" target="_top" xlink:title="application.Turtle.getLocation\lProperty">
<polygon fill="white" stroke="black" points="396,-807 396,-837 552,-837 552,-807 396,-807"/>
<text text-anchor="start" x="404" y="-825" font-family="Helvetica,sans-Serif" font-size="10.00">application.Turtle.getLocation</text>
<text text-anchor="middle" x="474" y="-814" font-family="Helvetica,sans-Serif" font-size="10.00">Property</text>
</a>
</g>
</g>
<!-- Node4&#45;&gt;Node7 -->
<g id="edge6" class="edge"><title>Node4&#45;&gt;Node7</title>
<path fill="none" stroke="midnightblue" d="M350.197,-837.584C361.87,-836.103 374.03,-834.56 385.962,-833.045"/>
<polygon fill="midnightblue" stroke="midnightblue" points="386.436,-836.513 395.916,-831.782 385.555,-829.569 386.436,-836.513"/>
</g>
<!-- Node8 -->
<g id="node8" class="node"><title>Node8</title>
<g id="a_node8"><a xlink:href="../../d1/d1a/classview_1_1_display.html#acf01babbf39275410d66f26521aec7ce" target="_top" xlink:title="view.Display.updateTurtle\lLocation">
<polygon fill="white" stroke="black" points="407,-758 407,-788 541,-788 541,-758 407,-758"/>
<text text-anchor="start" x="415" y="-776" font-family="Helvetica,sans-Serif" font-size="10.00">view.Display.updateTurtle</text>
<text text-anchor="middle" x="474" y="-765" font-family="Helvetica,sans-Serif" font-size="10.00">Location</text>
</a>
</g>
</g>
<!-- Node4&#45;&gt;Node8 -->
<g id="edge7" class="edge"><title>Node4&#45;&gt;Node8</title>
<path fill="none" stroke="midnightblue" d="M335.064,-837.373C343.66,-834.914 352.224,-831.839 360,-828 378.675,-818.78 377.766,-808.064 396,-798 399.913,-795.84 404.041,-793.832 408.272,-791.969"/>
<polygon fill="midnightblue" stroke="midnightblue" points="409.726,-795.156 417.652,-788.126 407.071,-788.679 409.726,-795.156"/>
</g>
<!-- Node10 -->
<g id="node10" class="node"><title>Node10</title>
<g id="a_node10"><a xlink:href="../../d1/d31/classapplication_1_1_turtle.html#aba1e48364a283753a4d099fe64fc663f" target="_top" xlink:title="application.Turtle.getPen\lDownProperty">
<polygon fill="white" stroke="black" points="407,-709 407,-739 541,-739 541,-709 407,-709"/>
<text text-anchor="start" x="415" y="-727" font-family="Helvetica,sans-Serif" font-size="10.00">application.Turtle.getPen</text>
<text text-anchor="middle" x="474" y="-716" font-family="Helvetica,sans-Serif" font-size="10.00">DownProperty</text>
</a>
</g>
</g>
<!-- Node4&#45;&gt;Node10 -->
<g id="edge9" class="edge"><title>Node4&#45;&gt;Node10</title>
<path fill="none" stroke="midnightblue" d="M344.163,-837.491C349.857,-834.985 355.244,-831.868 360,-828 389.934,-803.653 367.211,-774.69 396,-749 397.747,-747.441 399.592,-745.98 401.516,-744.609"/>
<polygon fill="midnightblue" stroke="midnightblue" points="403.698,-747.376 410.39,-739.163 400.037,-741.41 403.698,-747.376"/>
</g>
<!-- Node11 -->
<g id="node11" class="node"><title>Node11</title>
<g id="a_node11"><a xlink:href="../../d1/d1a/classview_1_1_display.html#a2557e79982a0547b1ce94db60a2021d7" target="_top" xlink:title="view.Display.setVisibility">
<polygon fill="white" stroke="black" points="410,-670.5 410,-689.5 538,-689.5 538,-670.5 410,-670.5"/>
<text text-anchor="middle" x="474" y="-677.5" font-family="Helvetica,sans-Serif" font-size="10.00">view.Display.setVisibility</text>
</a>
</g>
</g>
<!-- Node4&#45;&gt;Node11 -->
<g id="edge10" class="edge"><title>Node4&#45;&gt;Node11</title>
<path fill="none" stroke="midnightblue" d="M346.436,-837.439C351.382,-834.914 355.988,-831.809 360,-828 402.854,-787.307 353.796,-741.366 396,-700 397.899,-698.139 399.947,-696.445 402.112,-694.903"/>
<polygon fill="midnightblue" stroke="midnightblue" points="404.135,-697.773 410.971,-689.679 400.579,-691.743 404.135,-697.773"/>
</g>
<!-- Node12 -->
<g id="node12" class="node"><title>Node12</title>
<g id="a_node12"><a xlink:href="../../d1/d31/classapplication_1_1_turtle.html#a4b35563bbf3dd74893e43cef84865a35" target="_top" xlink:title="application.Turtle.getShowing\lProperty">
<polygon fill="white" stroke="black" points="396.5,-1052 396.5,-1082 551.5,-1082 551.5,-1052 396.5,-1052"/>
<text text-anchor="start" x="404.5" y="-1070" font-family="Helvetica,sans-Serif" font-size="10.00">application.Turtle.getShowing</text>
<text text-anchor="middle" x="474" y="-1059" font-family="Helvetica,sans-Serif" font-size="10.00">Property</text>
</a>
</g>
</g>
<!-- Node4&#45;&gt;Node12 -->
<g id="edge11" class="edge"><title>Node4&#45;&gt;Node12</title>
<path fill="none" stroke="midnightblue" d="M347.532,-856.673C352.107,-859.19 356.338,-862.262 360,-866 415.87,-923.038 342.797,-982.467 396,-1042 397.191,-1043.33 398.454,-1044.6 399.779,-1045.79"/>
<polygon fill="midnightblue" stroke="midnightblue" points="397.867,-1048.73 407.968,-1051.93 402.066,-1043.13 397.867,-1048.73"/>
</g>
<!-- Node13 -->
<g id="node13" class="node"><title>Node13</title>
<g id="a_node13"><a xlink:href="../../d1/d1a/classview_1_1_display.html#af0abcb9d9b5ec2892bf7617c4aaed48a" target="_top" xlink:title="view.Display.updateTurtle\lShowing">
<polygon fill="white" stroke="black" points="407,-1003 407,-1033 541,-1033 541,-1003 407,-1003"/>
<text text-anchor="start" x="415" y="-1021" font-family="Helvetica,sans-Serif" font-size="10.00">view.Display.updateTurtle</text>
<text text-anchor="middle" x="474" y="-1010" font-family="Helvetica,sans-Serif" font-size="10.00">Showing</text>
</a>
</g>
</g>
<!-- Node4&#45;&gt;Node13 -->
<g id="edge12" class="edge"><title>Node4&#45;&gt;Node13</title>
<path fill="none" stroke="midnightblue" d="M346.427,-856.57C351.375,-859.093 355.984,-862.195 360,-866 402.585,-906.355 355.305,-950.74 396,-993 397.389,-994.443 398.862,-995.802 400.406,-997.083"/>
<polygon fill="midnightblue" stroke="midnightblue" points="398.448,-999.985 408.646,-1002.86 402.465,-994.253 398.448,-999.985"/>
</g>
<!-- Node14 -->
<g id="node14" class="node"><title>Node14</title>
<g id="a_node14"><a xlink:href="../../d1/d31/classapplication_1_1_turtle.html#ac6534349b22cc2e1b750608f75897e5f" target="_top" xlink:title="application.Turtle.shape\lProperty">
<polygon fill="white" stroke="black" points="409.5,-954 409.5,-984 538.5,-984 538.5,-954 409.5,-954"/>
<text text-anchor="start" x="417.5" y="-972" font-family="Helvetica,sans-Serif" font-size="10.00">application.Turtle.shape</text>
<text text-anchor="middle" x="474" y="-961" font-family="Helvetica,sans-Serif" font-size="10.00">Property</text>
</a>
</g>
</g>
<!-- Node4&#45;&gt;Node14 -->
<g id="edge13" class="edge"><title>Node4&#45;&gt;Node14</title>
<path fill="none" stroke="midnightblue" d="M344.143,-856.533C349.842,-859.035 355.235,-862.143 360,-866 389.678,-890.02 367.451,-918.648 396,-944 397.75,-945.554 399.599,-947.012 401.526,-948.38"/>
<polygon fill="midnightblue" stroke="midnightblue" points="400.053,-951.582 410.41,-953.815 403.706,-945.611 400.053,-951.582"/>
</g>
<!-- Node9 -->
<g id="node9" class="node"><title>Node9</title>
<g id="a_node9"><a xlink:href="../../d1/d1a/classview_1_1_display.html#ae37f2b2ceda0b899a554cbdacc791a35" target="_top" xlink:title="view.Display.drawLines">
<polygon fill="white" stroke="black" points="614,-763.5 614,-782.5 736,-782.5 736,-763.5 614,-763.5"/>
<text text-anchor="middle" x="675" y="-770.5" font-family="Helvetica,sans-Serif" font-size="10.00">view.Display.drawLines</text>
</a>
</g>
</g>
<!-- Node8&#45;&gt;Node9 -->
<g id="edge8" class="edge"><title>Node8&#45;&gt;Node9</title>
<path fill="none" stroke="midnightblue" d="M541.264,-773C561.286,-773 583.336,-773 603.617,-773"/>
<polygon fill="midnightblue" stroke="midnightblue" points="603.726,-776.5 613.726,-773 603.726,-769.5 603.726,-776.5"/>
</g>
<!-- Node19 -->
<g id="node19" class="node"><title>Node19</title>
<g id="a_node19"><a xlink:href="../../d7/d64/classview_1_1_error_display.html#a5fafc1b8bef7b7cc1609f5d6d6d2cf47" target="_top" xlink:title="view.ErrorDisplay.display">
<polygon fill="white" stroke="black" points="408.5,-632.5 408.5,-651.5 539.5,-651.5 539.5,-632.5 408.5,-632.5"/>
<text text-anchor="middle" x="474" y="-639.5" font-family="Helvetica,sans-Serif" font-size="10.00">view.ErrorDisplay.display</text>
</a>
</g>
</g>
<!-- Node18&#45;&gt;Node19 -->
<g id="edge18" class="edge"><title>Node18&#45;&gt;Node19</title>
<path fill="none" stroke="midnightblue" d="M334.767,-803.485C344.098,-800.361 352.972,-795.749 360,-789 402.623,-748.066 353.544,-702.108 396,-661 397.484,-659.563 399.058,-658.23 400.707,-656.992"/>
<polygon fill="midnightblue" stroke="midnightblue" points="402.826,-659.797 409.503,-651.571 399.153,-653.838 402.826,-659.797"/>
</g>
<!-- Node27&#45;&gt;Node3 -->
<g id="edge27" class="edge"><title>Node27&#45;&gt;Node3</title>
<path fill="none" stroke="midnightblue" d="M339.761,-293.559C346.877,-296.022 353.788,-299.116 360,-303 409.467,-333.932 446.698,-394.336 463.365,-425.066"/>
<polygon fill="midnightblue" stroke="midnightblue" points="460.455,-427.052 468.217,-434.264 466.647,-423.786 460.455,-427.052"/>
</g>
<!-- Node33 -->
<g id="node33" class="node"><title>Node33</title>
<g id="a_node33"><a xlink:href="../../dc/d9e/classapplication_1_1_parser.html#a62688af8185b6fc69d3253cce9b75b5a" target="_top" xlink:title="application.Parser.update\lCommandPatterns">
<polygon fill="white" stroke="black" points="405.5,-39 405.5,-69 542.5,-69 542.5,-39 405.5,-39"/>
<text text-anchor="start" x="413.5" y="-57" font-family="Helvetica,sans-Serif" font-size="10.00">application.Parser.update</text>
<text text-anchor="middle" x="474" y="-46" font-family="Helvetica,sans-Serif" font-size="10.00">CommandPatterns</text>
</a>
</g>
</g>
<!-- Node32&#45;&gt;Node33 -->
<g id="edge33" class="edge"><title>Node32&#45;&gt;Node33</title>
<path fill="none" stroke="midnightblue" d="M343.521,-54C360.031,-54 377.835,-54 394.799,-54"/>
<polygon fill="midnightblue" stroke="midnightblue" points="395.233,-57.5001 405.233,-54 395.233,-50.5001 395.233,-57.5001"/>
</g>
<!-- Node34 -->
<g id="node34" class="node"><title>Node34</title>
<g id="a_node34"><a xlink:href="../../dd/d17/classapplication_1_1_model.html#aee52a4cb7337da546f826833d133c871" target="_top" xlink:title="application.Model.getLanguage">
<polygon fill="white" stroke="black" points="592,-22.5 592,-41.5 758,-41.5 758,-22.5 592,-22.5"/>
<text text-anchor="middle" x="675" y="-29.5" font-family="Helvetica,sans-Serif" font-size="10.00">application.Model.getLanguage</text>
</a>
</g>
</g>
<!-- Node33&#45;&gt;Node34 -->
<g id="edge34" class="edge"><title>Node33&#45;&gt;Node34</title>
<path fill="none" stroke="midnightblue" d="M542.65,-46.5211C555.22,-45.1314 568.549,-43.6579 581.709,-42.203"/>
<polygon fill="midnightblue" stroke="midnightblue" points="582.169,-45.6736 591.724,-41.0959 581.4,-38.716 582.169,-45.6736"/>
</g>
<!-- Node35 -->
<g id="node35" class="node"><title>Node35</title>
<g id="a_node35"><a xlink:href="../../de/d31/classapplication_1_1_pattern_matcher.html#aa9ad491c96a7737068b2907dffd3f837" target="_top" xlink:title="application.PatternMatcher.make\lPatterns">
<polygon fill="white" stroke="black" points="588,-61 588,-91 762,-91 762,-61 588,-61"/>
<text text-anchor="start" x="596" y="-79" font-family="Helvetica,sans-Serif" font-size="10.00">application.PatternMatcher.make</text>
<text text-anchor="middle" x="675" y="-68" font-family="Helvetica,sans-Serif" font-size="10.00">Patterns</text>
</a>
</g>
</g>
<!-- Node33&#45;&gt;Node35 -->
<g id="edge35" class="edge"><title>Node33&#45;&gt;Node35</title>
<path fill="none" stroke="midnightblue" d="M542.65,-61.4789C554.006,-62.7343 565.98,-64.0581 577.89,-65.3747"/>
<polygon fill="midnightblue" stroke="midnightblue" points="577.539,-68.8573 587.863,-66.4774 578.309,-61.8996 577.539,-68.8573"/>
</g>
</g>
</svg>
        <g id="navigator" transform="translate(0 0)" fill="#404254">
                <rect fill="#f2f5e9" fill-opacity="0.5" stroke="#606060" stroke-width=".5" x="0" y="0" width="60" height="60"/>
                <use id="zoomplus" xlink:href="#zoomPlus" x="17" y="9" onmousedown="handleZoom(evt,'in')"/>
                <use id="zoomminus" xlink:href="#zoomMin" x="42" y="9" onmousedown="handleZoom(evt,'out')"/>
                <use id="reset" xlink:href="#resetDef" x="30" y="36" onmousedown="handleReset()"/>
                <g id="arrowUp" xlink:href="#dirArrow" transform="translate(30 24)" onmousedown="handlePan(0,-1)">
                  <use xlink:href="#rim" fill="#404040">
                        <set attributeName="fill" to="#808080" begin="arrowUp.mouseover" end="arrowUp.mouseout"/>
                  </use>
                  <path fill="none" stroke="white" stroke-width="1.5" d="M0,-3.0v7 M-2.5,-0.5L0,-3.0L2.5,-0.5"/>
                </g>
                <g id="arrowRight" xlink:href="#dirArrow" transform="rotate(90) translate(36 -43)" onmousedown="handlePan(1,0)">
                  <use xlink:href="#rim" fill="#404040">
                        <set attributeName="fill" to="#808080" begin="arrowRight.mouseover" end="arrowRight.mouseout"/>
                  </use>
                  <path fill="none" stroke="white" stroke-width="1.5" d="M0,-3.0v7 M-2.5,-0.5L0,-3.0L2.5,-0.5"/>
                </g>
                <g id="arrowDown" xlink:href="#dirArrow" transform="rotate(180) translate(-30 -48)" onmousedown="handlePan(0,1)">
                  <use xlink:href="#rim" fill="#404040">
                        <set attributeName="fill" to="#808080" begin="arrowDown.mouseover" end="arrowDown.mouseout"/>
                  </use>
                  <path fill="none" stroke="white" stroke-width="1.5" d="M0,-3.0v7 M-2.5,-0.5L0,-3.0L2.5,-0.5"/>
                </g>
                <g id="arrowLeft" xlink:href="#dirArrow" transform="rotate(270) translate(-36 17)" onmousedown="handlePan(-1,0)">
                  <use xlink:href="#rim" fill="#404040">
                        <set attributeName="fill" to="#808080" begin="arrowLeft.mouseover" end="arrowLeft.mouseout"/>
                  </use>
                  <path fill="none" stroke="white" stroke-width="1.5" d="M0,-3.0v7 M-2.5,-0.5L0,-3.0L2.5,-0.5"/>
                </g>
        </g>
        <svg viewBox="0 0 15 15" width="100%" height="30px" preserveAspectRatio="xMaxYMin meet">
         <g id="arrow_out" transform="scale(0.3 0.3)">
          <a xlink:href="classview_1_1_view_a6c2525fe1f26dc400c48823ce4f0d057_cgraph_org.svg" target="_base">
           <rect id="button" ry="5" rx="5" y="6" x="6" height="38" width="38"
                fill="#f2f5e9" fill-opacity="0.5" stroke="#606060" stroke-width="1.0"/>
           <path id="arrow"
             d="M 11.500037,31.436501 C 11.940474,20.09759 22.043105,11.32322 32.158766,21.979434 L 37.068811,17.246167 C 37.068811,17.246167 37.088388,32 37.088388,32 L 22.160133,31.978069 C 22.160133,31.978069 26.997745,27.140456 26.997745,27.140456 C 18.528582,18.264221 13.291696,25.230495 11.500037,31.436501 z"
             style="fill:#404040;"/>
          </a>
         </g>
        </svg>
</svg>
