<?xml version="1.0" encoding="UTF-8" standalone="no"?>
<!DOCTYPE svg PUBLIC "-//W3C//DTD SVG 1.1//EN"
 "http://www.w3.org/Graphics/SVG/1.1/DTD/svg11.dtd">
<!-- Generated by graphviz version 2.36.0 (20140111.2315)
 -->
<!-- Title: view.View.start Pages: 1 -->
<svg width="426pt" height="38pt"
 viewBox="0.00 0.00 426.00 38.00" xmlns="http://www.w3.org/2000/svg" xmlns:xlink="http://www.w3.org/1999/xlink">
<g id="graph0" class="graph" transform="scale(1 1) rotate(0) translate(4 34)">
<title>view.View.start</title>
<polygon fill="white" stroke="none" points="-4,4 -4,-34 422,-34 422,4 -4,4"/>
<!-- Node1 -->
<g id="node1" class="node"><title>Node1</title>
<polygon fill="#bfbfbf" stroke="black" points="0,-5.5 0,-24.5 86,-24.5 86,-5.5 0,-5.5"/>
<text text-anchor="middle" x="43" y="-12.5" font-family="Helvetica,sans-Serif" font-size="10.00">view.View.start</text>
</g>
<!-- Node2 -->
<g id="node2" class="node"><title>Node2</title>
<g id="a_node2"><a xlink:href="../../d4/d9d/classapplication_1_1_wrapper.html#a4be5486a54f6d10d816c3ff49e82ecb9" target="_top" xlink:title="application.Wrapper.make\lNewWindow">
<polygon fill="white" stroke="black" points="122,-0 122,-30 262,-30 262,-0 122,-0"/>
<text text-anchor="start" x="130" y="-18" font-family="Helvetica,sans-Serif" font-size="10.00">application.Wrapper.make</text>
<text text-anchor="middle" x="192" y="-7" font-family="Helvetica,sans-Serif" font-size="10.00">NewWindow</text>
</a>
</g>
</g>
<!-- Node1&#45;&gt;Node2 -->
<g id="edge1" class="edge"><title>Node1&#45;&gt;Node2</title>
<path fill="none" stroke="midnightblue" d="M96.379,-15C104.668,-15 113.349,-15 121.949,-15"/>
<polygon fill="midnightblue" stroke="midnightblue" points="96.1243,-11.5001 86.1243,-15 96.1243,-18.5001 96.1243,-11.5001"/>
</g>
<!-- Node3 -->
<g id="node3" class="node"><title>Node3</title>
<g id="a_node3"><a xlink:href="../../d9/d96/classapplication_1_1_main.html#a4e5ad4e3de8bbd8654120180a94e870d" target="_top" xlink:title="application.Main.start">
<polygon fill="white" stroke="black" points="298.5,-5.5 298.5,-24.5 417.5,-24.5 417.5,-5.5 298.5,-5.5"/>
<text text-anchor="middle" x="358" y="-12.5" font-family="Helvetica,sans-Serif" font-size="10.00">application.Main.start</text>
</a>
</g>
</g>
<!-- Node2&#45;&gt;Node3 -->
<g id="edge2" class="edge"><title>Node2&#45;&gt;Node3</title>
<path fill="none" stroke="midnightblue" d="M272.335,-15C281.112,-15 289.929,-15 298.384,-15"/>
<polygon fill="midnightblue" stroke="midnightblue" points="272.075,-11.5001 262.075,-15 272.075,-18.5001 272.075,-11.5001"/>
</g>
</g>
</svg>
