<?xml version="1.0" encoding="UTF-8" standalone="no"?>
<!DOCTYPE svg PUBLIC "-//W3C//DTD SVG 1.1//EN"
 "http://www.w3.org/Graphics/SVG/1.1/DTD/svg11.dtd">
<!-- Generated by graphviz version 2.36.0 (20140111.2315)
 -->
<!-- Title: view.View.start Pages: 1 -->
<svg width="930pt" height="591pt"
 viewBox="0.00 0.00 930.00 591.00" xmlns="http://www.w3.org/2000/svg" xmlns:xlink="http://www.w3.org/1999/xlink">
<g id="graph0" class="graph" transform="scale(1 1) rotate(0) translate(4 587)">
<title>view.View.start</title>
<polygon fill="white" stroke="none" points="-4,4 -4,-587 926,-587 926,4 -4,4"/>
<!-- Node1 -->
<g id="node1" class="node"><title>Node1</title>
<polygon fill="#bfbfbf" stroke="black" points="0,-345.5 0,-364.5 86,-364.5 86,-345.5 0,-345.5"/>
<text text-anchor="middle" x="43" y="-352.5" font-family="Helvetica,sans-Serif" font-size="10.00">view.View.start</text>
</g>
<!-- Node2 -->
<g id="node2" class="node"><title>Node2</title>
<g id="a_node2"><a xlink:href="../../d5/d91/classview_1_1_workspace_adder.html#a5d98fcd51967cc231f611295fe3bbc4b" target="_top" xlink:title="view.WorkspaceAdder.addButton">
<polygon fill="white" stroke="black" points="128.5,-547.5 128.5,-566.5 299.5,-566.5 299.5,-547.5 128.5,-547.5"/>
<text text-anchor="middle" x="214" y="-554.5" font-family="Helvetica,sans-Serif" font-size="10.00">view.WorkspaceAdder.addButton</text>
</a>
</g>
</g>
<!-- Node1&#45;&gt;Node2 -->
<g id="edge1" class="edge"><title>Node1&#45;&gt;Node2</title>
<path fill="none" stroke="midnightblue" d="M45.0872,-364.729C49.0488,-395.327 65.5798,-490.328 122,-537 124.555,-539.114 127.285,-541.017 130.144,-542.73"/>
<polygon fill="midnightblue" stroke="midnightblue" points="128.574,-545.859 139.068,-547.32 131.776,-539.634 128.574,-545.859"/>
</g>
<!-- Node3 -->
<g id="node3" class="node"><title>Node3</title>
<g id="a_node3"><a xlink:href="../../d1/deb/classapplication_1_1_turtle_list.html#a0de066aa32e9e19fe3d8313693a95247" target="_top" xlink:title="application.TurtleList.get\lTurtle">
<polygon fill="white" stroke="black" points="148,-498 148,-528 280,-528 280,-498 148,-498"/>
<text text-anchor="start" x="156" y="-516" font-family="Helvetica,sans-Serif" font-size="10.00">application.TurtleList.get</text>
<text text-anchor="middle" x="214" y="-505" font-family="Helvetica,sans-Serif" font-size="10.00">Turtle</text>
</a>
</g>
</g>
<!-- Node1&#45;&gt;Node3 -->
<g id="edge2" class="edge"><title>Node1&#45;&gt;Node3</title>
<path fill="none" stroke="midnightblue" d="M46.8691,-364.756C54.6331,-389.408 78.4565,-454.605 122,-488 127.034,-491.861 132.626,-495.125 138.494,-497.886"/>
<polygon fill="midnightblue" stroke="midnightblue" points="137.324,-501.19 147.899,-501.822 140.026,-494.733 137.324,-501.19"/>
</g>
<!-- Node4 -->
<g id="node4" class="node"><title>Node4</title>
<g id="a_node4"><a xlink:href="../../dd/d17/classapplication_1_1_model.html#aa7ed87b9bf32630ff3c5b771feb6a67a" target="_top" xlink:title="application.Model.getTurtleList">
<polygon fill="white" stroke="black" points="133.5,-459.5 133.5,-478.5 294.5,-478.5 294.5,-459.5 133.5,-459.5"/>
<text text-anchor="middle" x="214" y="-466.5" font-family="Helvetica,sans-Serif" font-size="10.00">application.Model.getTurtleList</text>
</a>
</g>
</g>
<!-- Node1&#45;&gt;Node4 -->
<g id="edge3" class="edge"><title>Node1&#45;&gt;Node4</title>
<path fill="none" stroke="midnightblue" d="M48.9499,-364.638C59.5079,-384.155 86.2242,-428.331 122,-450 125.473,-452.103 129.142,-453.977 132.935,-455.645"/>
<polygon fill="midnightblue" stroke="midnightblue" points="131.989,-459.032 142.578,-459.384 134.52,-452.506 131.989,-459.032"/>
</g>
<!-- Node5 -->
<g id="node5" class="node"><title>Node5</title>
<g id="a_node5"><a xlink:href="../../d2/d22/classview_1_1_previous_commands.html#a472f2472ea7abd1ccb32bf2a618da248" target="_top" xlink:title="view.PreviousCommands.makeBox">
<polygon fill="white" stroke="black" points="122.5,-421.5 122.5,-440.5 305.5,-440.5 305.5,-421.5 122.5,-421.5"/>
<text text-anchor="middle" x="214" y="-428.5" font-family="Helvetica,sans-Serif" font-size="10.00">view.PreviousCommands.makeBox</text>
</a>
</g>
</g>
<!-- Node1&#45;&gt;Node5 -->
<g id="edge4" class="edge"><title>Node1&#45;&gt;Node5</title>
<path fill="none" stroke="midnightblue" d="M54.1889,-364.706C68.2753,-377.562 95.028,-400.005 122,-412 127.71,-414.539 133.774,-416.745 139.955,-418.66"/>
<polygon fill="midnightblue" stroke="midnightblue" points="139.154,-422.071 149.73,-421.436 141.066,-415.337 139.154,-422.071"/>
</g>
<!-- Node8 -->
<g id="node8" class="node"><title>Node8</title>
<g id="a_node8"><a xlink:href="../../d3/dfc/classview_1_1_enter_commands.html#aeb289f93b5ba654a92cbdd49fd97a125" target="_top" xlink:title="view.EnterCommands.makeBox">
<polygon fill="white" stroke="black" points="130,-383.5 130,-402.5 298,-402.5 298,-383.5 130,-383.5"/>
<text text-anchor="middle" x="214" y="-390.5" font-family="Helvetica,sans-Serif" font-size="10.00">view.EnterCommands.makeBox</text>
</a>
</g>
</g>
<!-- Node1&#45;&gt;Node8 -->
<g id="edge7" class="edge"><title>Node1&#45;&gt;Node8</title>
<path fill="none" stroke="midnightblue" d="M82.0266,-364.53C94.718,-367.639 108.949,-371.049 122,-374 132.847,-376.453 144.448,-378.962 155.611,-381.319"/>
<polygon fill="midnightblue" stroke="midnightblue" points="155.199,-384.809 165.705,-383.435 156.636,-377.958 155.199,-384.809"/>
</g>
<!-- Node12 -->
<g id="node12" class="node"><title>Node12</title>
<g id="a_node12"><a xlink:href="../../d3/d1e/classview_1_1_button_bar.html#a9663e7fffc7f3559097b76313739e507" target="_top" xlink:title="view.ButtonBar.makeButtonBar">
<polygon fill="white" stroke="black" points="131,-345.5 131,-364.5 297,-364.5 297,-345.5 131,-345.5"/>
<text text-anchor="middle" x="214" y="-352.5" font-family="Helvetica,sans-Serif" font-size="10.00">view.ButtonBar.makeButtonBar</text>
</a>
</g>
</g>
<!-- Node1&#45;&gt;Node12 -->
<g id="edge11" class="edge"><title>Node1&#45;&gt;Node12</title>
<path fill="none" stroke="midnightblue" d="M86.2099,-355C96.8268,-355 108.644,-355 120.674,-355"/>
<polygon fill="midnightblue" stroke="midnightblue" points="120.808,-358.5 130.808,-355 120.808,-351.5 120.808,-358.5"/>
</g>
<!-- Node22 -->
<g id="node22" class="node"><title>Node22</title>
<g id="a_node22"><a xlink:href="../../d1/d1a/classview_1_1_display.html#a5a90faf6bdd48db75a4a68793c171b7c" target="_top" xlink:title="view.Display.makeDisplay">
<polygon fill="white" stroke="black" points="145.5,-307.5 145.5,-326.5 282.5,-326.5 282.5,-307.5 145.5,-307.5"/>
<text text-anchor="middle" x="214" y="-314.5" font-family="Helvetica,sans-Serif" font-size="10.00">view.Display.makeDisplay</text>
</a>
</g>
</g>
<!-- Node1&#45;&gt;Node22 -->
<g id="edge21" class="edge"><title>Node1&#45;&gt;Node22</title>
<path fill="none" stroke="midnightblue" d="M82.0266,-345.47C94.718,-342.361 108.949,-338.951 122,-336 132.847,-333.547 144.448,-331.038 155.611,-328.681"/>
<polygon fill="midnightblue" stroke="midnightblue" points="156.636,-332.042 165.705,-326.565 155.199,-325.191 156.636,-332.042"/>
</g>
<!-- Node24 -->
<g id="node24" class="node"><title>Node24</title>
<g id="a_node24"><a xlink:href="../../da/d44/classview_1_1_command_guide.html#a2c736190d7aad7c6f7a147f3e48c0f37" target="_top" xlink:title="view.CommandGuide.makeMy\lButton">
<polygon fill="white" stroke="black" points="133.5,-258 133.5,-288 294.5,-288 294.5,-258 133.5,-258"/>
<text text-anchor="start" x="141.5" y="-276" font-family="Helvetica,sans-Serif" font-size="10.00">view.CommandGuide.makeMy</text>
<text text-anchor="middle" x="214" y="-265" font-family="Helvetica,sans-Serif" font-size="10.00">Button</text>
</a>
</g>
</g>
<!-- Node1&#45;&gt;Node24 -->
<g id="edge23" class="edge"><title>Node1&#45;&gt;Node24</title>
<path fill="none" stroke="midnightblue" d="M54.7916,-345.106C69.1282,-332.458 95.7167,-310.683 122,-298 126.888,-295.641 132.034,-293.475 137.291,-291.489"/>
<polygon fill="midnightblue" stroke="midnightblue" points="138.58,-294.746 146.839,-288.11 136.244,-288.147 138.58,-294.746"/>
</g>
<!-- Node25 -->
<g id="node25" class="node"><title>Node25</title>
<g id="a_node25"><a xlink:href="../../de/d83/classview_1_1_import_design.html#abbb01e02f74d5d3492cdc9befa9acd11" target="_top" xlink:title="view.ImportDesign.openDesign">
<polygon fill="white" stroke="black" points="132,-219.5 132,-238.5 296,-238.5 296,-219.5 132,-219.5"/>
<text text-anchor="middle" x="214" y="-226.5" font-family="Helvetica,sans-Serif" font-size="10.00">view.ImportDesign.openDesign</text>
</a>
</g>
</g>
<!-- Node1&#45;&gt;Node25 -->
<g id="edge24" class="edge"><title>Node1&#45;&gt;Node25</title>
<path fill="none" stroke="midnightblue" d="M48.0197,-345.46C57.4946,-324.219 83.376,-272.94 122,-248 125.169,-245.954 128.518,-244.122 131.988,-242.484"/>
<polygon fill="midnightblue" stroke="midnightblue" points="133.512,-245.642 141.414,-238.584 130.836,-239.173 133.512,-245.642"/>
</g>
<!-- Node31 -->
<g id="node31" class="node"><title>Node31</title>
<g id="a_node31"><a xlink:href="../../d8/da5/classview_1_1_create_design.html#a8871165116e29a90754e135d7d46a245" target="_top" xlink:title="view.CreateDesign.SaveDesign">
<polygon fill="white" stroke="black" points="132,-178.5 132,-197.5 296,-197.5 296,-178.5 132,-178.5"/>
<text text-anchor="middle" x="214" y="-185.5" font-family="Helvetica,sans-Serif" font-size="10.00">view.CreateDesign.SaveDesign</text>
</a>
</g>
</g>
<!-- Node1&#45;&gt;Node31 -->
<g id="edge30" class="edge"><title>Node1&#45;&gt;Node31</title>
<path fill="none" stroke="midnightblue" d="M46.2338,-345.45C52.8564,-319.344 74.9295,-246.324 122,-210 126.156,-206.793 130.712,-204.045 135.5,-201.691"/>
<polygon fill="midnightblue" stroke="midnightblue" points="137.143,-204.795 144.951,-197.634 134.382,-198.362 137.143,-204.795"/>
</g>
<!-- Node34 -->
<g id="node34" class="node"><title>Node34</title>
<g id="a_node34"><a xlink:href="../../d4/d54/classview_1_1_turtle_state.html#adddc3ba0815784df7bd506a962bd20c6" target="_top" xlink:title="view.TurtleState.state">
<polygon fill="white" stroke="black" points="154.5,-93.5 154.5,-112.5 273.5,-112.5 273.5,-93.5 154.5,-93.5"/>
<text text-anchor="middle" x="214" y="-100.5" font-family="Helvetica,sans-Serif" font-size="10.00">view.TurtleState.state</text>
</a>
</g>
</g>
<!-- Node1&#45;&gt;Node34 -->
<g id="edge34" class="edge"><title>Node1&#45;&gt;Node34</title>
<path fill="none" stroke="midnightblue" d="M46.129,-345.146C52.8778,-315.713 76.1078,-226.903 122,-169 139.267,-147.214 165.492,-129.238 185.361,-117.578"/>
<polygon fill="midnightblue" stroke="midnightblue" points="187.294,-120.505 194.261,-112.523 183.837,-114.418 187.294,-120.505"/>
</g>
<!-- Node6 -->
<g id="node6" class="node"><title>Node6</title>
<g id="a_node6"><a xlink:href="../../d3/dfc/classview_1_1_enter_commands.html#a77e6f93d9ab56679c8a32220d1d7f7c1" target="_top" xlink:title="view.EnterCommands.clear\lHistory">
<polygon fill="white" stroke="black" points="364,-534 364,-564 510,-564 510,-534 364,-534"/>
<text text-anchor="start" x="372" y="-552" font-family="Helvetica,sans-Serif" font-size="10.00">view.EnterCommands.clear</text>
<text text-anchor="middle" x="437" y="-541" font-family="Helvetica,sans-Serif" font-size="10.00">History</text>
</a>
</g>
</g>
<!-- Node5&#45;&gt;Node6 -->
<g id="edge5" class="edge"><title>Node5&#45;&gt;Node6</title>
<path fill="none" stroke="midnightblue" d="M287.715,-440.627C294.188,-443.103 300.4,-446.181 306,-450 330.137,-466.461 319.93,-485.857 342,-505 353.502,-514.977 367.652,-523.161 381.449,-529.649"/>
<polygon fill="midnightblue" stroke="midnightblue" points="380.35,-532.991 390.908,-533.872 383.203,-526.599 380.35,-532.991"/>
</g>
<!-- Node7 -->
<g id="node7" class="node"><title>Node7</title>
<g id="a_node7"><a xlink:href="../../d2/d22/classview_1_1_previous_commands.html#ac81954fc7397e066d454cfd63fc9e2e0" target="_top" xlink:title="view.PreviousCommands.get\lTextArea">
<polygon fill="white" stroke="black" points="578,-553 578,-583 732,-583 732,-553 578,-553"/>
<text text-anchor="start" x="586" y="-571" font-family="Helvetica,sans-Serif" font-size="10.00">view.PreviousCommands.get</text>
<text text-anchor="middle" x="655" y="-560" font-family="Helvetica,sans-Serif" font-size="10.00">TextArea</text>
</a>
</g>
</g>
<!-- Node6&#45;&gt;Node7 -->
<g id="edge6" class="edge"><title>Node6&#45;&gt;Node7</title>
<path fill="none" stroke="midnightblue" d="M510.225,-555.353C528.626,-556.972 548.588,-558.728 567.617,-560.402"/>
<polygon fill="midnightblue" stroke="midnightblue" points="567.504,-563.905 577.772,-561.295 568.117,-556.932 567.504,-563.905"/>
</g>
<!-- Node9 -->
<g id="node9" class="node"><title>Node9</title>
<g id="a_node9"><a xlink:href="../../d3/dfc/classview_1_1_enter_commands.html#a4ae967866de547c659252867cdc41ce5" target="_top" xlink:title="view.EnterCommands.runCommand">
<polygon fill="white" stroke="black" points="342.5,-476.5 342.5,-495.5 531.5,-495.5 531.5,-476.5 342.5,-476.5"/>
<text text-anchor="middle" x="437" y="-483.5" font-family="Helvetica,sans-Serif" font-size="10.00">view.EnterCommands.runCommand</text>
</a>
</g>
</g>
<!-- Node8&#45;&gt;Node9 -->
<g id="edge8" class="edge"><title>Node8&#45;&gt;Node9</title>
<path fill="none" stroke="midnightblue" d="M287.715,-402.627C294.188,-405.103 300.4,-408.181 306,-412 330.137,-428.461 317.811,-450.616 342,-467 344.914,-468.974 347.988,-470.751 351.176,-472.351"/>
<polygon fill="midnightblue" stroke="midnightblue" points="349.857,-475.595 360.42,-476.406 352.669,-469.184 349.857,-475.595"/>
</g>
<!-- Node10 -->
<g id="node10" class="node"><title>Node10</title>
<g id="a_node10"><a xlink:href="../../d3/dfc/classview_1_1_enter_commands.html#a27689d1e232eda1d9e0fe966becb8167" target="_top" xlink:title="view.EnterCommands.init">
<polygon fill="white" stroke="black" points="586.5,-514.5 586.5,-533.5 723.5,-533.5 723.5,-514.5 586.5,-514.5"/>
<text text-anchor="middle" x="655" y="-521.5" font-family="Helvetica,sans-Serif" font-size="10.00">view.EnterCommands.init</text>
</a>
</g>
</g>
<!-- Node9&#45;&gt;Node10 -->
<g id="edge9" class="edge"><title>Node9&#45;&gt;Node10</title>
<path fill="none" stroke="midnightblue" d="M492.227,-495.54C521.884,-500.757 558.804,-507.253 589.882,-512.72"/>
<polygon fill="midnightblue" stroke="midnightblue" points="589.295,-516.17 599.751,-514.456 590.508,-509.276 589.295,-516.17"/>
</g>
<!-- Node11 -->
<g id="node11" class="node"><title>Node11</title>
<g id="a_node11"><a xlink:href="../../d2/d22/classview_1_1_previous_commands.html#a8a4fd1bef3b409528deebf149b9417e6" target="_top" xlink:title="view.PreviousCommands.update\lTextArea">
<polygon fill="white" stroke="black" points="569,-465 569,-495 741,-495 741,-465 569,-465"/>
<text text-anchor="start" x="577" y="-483" font-family="Helvetica,sans-Serif" font-size="10.00">view.PreviousCommands.update</text>
<text text-anchor="middle" x="655" y="-472" font-family="Helvetica,sans-Serif" font-size="10.00">TextArea</text>
</a>
</g>
</g>
<!-- Node9&#45;&gt;Node11 -->
<g id="edge10" class="edge"><title>Node9&#45;&gt;Node11</title>
<path fill="none" stroke="midnightblue" d="M531.798,-483.394C540.732,-483.146 549.798,-482.895 558.745,-482.646"/>
<polygon fill="midnightblue" stroke="midnightblue" points="558.885,-486.144 568.784,-482.367 558.69,-479.146 558.885,-486.144"/>
</g>
<!-- Node13 -->
<g id="node13" class="node"><title>Node13</title>
<g id="a_node13"><a xlink:href="../../d3/d1e/classview_1_1_button_bar.html#a0fceb97a1c422006be3e1c0645bc2a1e" target="_top" xlink:title="view.ButtonBar.makeButton">
<polygon fill="white" stroke="black" points="362.5,-438.5 362.5,-457.5 511.5,-457.5 511.5,-438.5 362.5,-438.5"/>
<text text-anchor="middle" x="437" y="-445.5" font-family="Helvetica,sans-Serif" font-size="10.00">view.ButtonBar.makeButton</text>
</a>
</g>
</g>
<!-- Node12&#45;&gt;Node13 -->
<g id="edge12" class="edge"><title>Node12&#45;&gt;Node13</title>
<path fill="none" stroke="midnightblue" d="M287.219,-364.502C293.864,-366.998 300.25,-370.114 306,-374 329.899,-390.151 318.132,-411.803 342,-428 345.572,-430.424 349.383,-432.563 353.347,-434.448"/>
<polygon fill="midnightblue" stroke="midnightblue" points="352.258,-437.786 362.835,-438.405 354.953,-431.326 352.258,-437.786"/>
</g>
<!-- Node14 -->
<g id="node14" class="node"><title>Node14</title>
<g id="a_node14"><a xlink:href="../../d6/d05/classview_1_1_color_chooser.html#aeff346e71fef58d80a7e9e2ee22e8232" target="_top" xlink:title="view.ColorChooser.makeColor\lChooserPopUp">
<polygon fill="white" stroke="black" points="358,-389 358,-419 516,-419 516,-389 358,-389"/>
<text text-anchor="start" x="366" y="-407" font-family="Helvetica,sans-Serif" font-size="10.00">view.ColorChooser.makeColor</text>
<text text-anchor="middle" x="437" y="-396" font-family="Helvetica,sans-Serif" font-size="10.00">ChooserPopUp</text>
</a>
</g>
</g>
<!-- Node12&#45;&gt;Node14 -->
<g id="edge13" class="edge"><title>Node12&#45;&gt;Node14</title>
<path fill="none" stroke="midnightblue" d="M261.802,-364.576C276.01,-367.536 291.656,-370.848 306,-374 324.218,-378.003 343.837,-382.457 362.175,-386.681"/>
<polygon fill="midnightblue" stroke="midnightblue" points="361.39,-390.091 371.922,-388.932 362.966,-383.271 361.39,-390.091"/>
</g>
<!-- Node16 -->
<g id="node16" class="node"><title>Node16</title>
<g id="a_node16"><a xlink:href="../../df/d10/classview_1_1_language_chooser.html#a638bfb57c9d44edbc77c09dbbea172f2" target="_top" xlink:title="view.LanguageChooser.set\lLanguage">
<polygon fill="white" stroke="black" points="365.5,-340 365.5,-370 508.5,-370 508.5,-340 365.5,-340"/>
<text text-anchor="start" x="373.5" y="-358" font-family="Helvetica,sans-Serif" font-size="10.00">view.LanguageChooser.set</text>
<text text-anchor="middle" x="437" y="-347" font-family="Helvetica,sans-Serif" font-size="10.00">Language</text>
</a>
</g>
</g>
<!-- Node12&#45;&gt;Node16 -->
<g id="edge15" class="edge"><title>Node12&#45;&gt;Node16</title>
<path fill="none" stroke="midnightblue" d="M297.292,-355C316.225,-355 336.342,-355 355.21,-355"/>
<polygon fill="midnightblue" stroke="midnightblue" points="355.248,-358.5 365.248,-355 355.248,-351.5 355.248,-358.5"/>
</g>
<!-- Node19 -->
<g id="node19" class="node"><title>Node19</title>
<g id="a_node19"><a xlink:href="../../dd/d5e/classview_1_1_image_chooser.html#acce8e5e36cde606043547a64c1f44223" target="_top" xlink:title="view.ImageChooser.start">
<polygon fill="white" stroke="black" points="370,-301.5 370,-320.5 504,-320.5 504,-301.5 370,-301.5"/>
<text text-anchor="middle" x="437" y="-308.5" font-family="Helvetica,sans-Serif" font-size="10.00">view.ImageChooser.start</text>
</a>
</g>
</g>
<!-- Node12&#45;&gt;Node19 -->
<g id="edge18" class="edge"><title>Node12&#45;&gt;Node19</title>
<path fill="none" stroke="midnightblue" d="M262.954,-345.453C296.837,-338.707 342.42,-329.631 378.296,-322.489"/>
<polygon fill="midnightblue" stroke="midnightblue" points="379.016,-325.914 388.14,-320.529 377.649,-319.049 379.016,-325.914"/>
</g>
<!-- Node15 -->
<g id="node15" class="node"><title>Node15</title>
<g id="a_node15"><a xlink:href="../../d6/d05/classview_1_1_color_chooser.html#a66232fdbcddc16c0550b7094a0807028" target="_top" xlink:title="view.ColorChooser.format\lColorSelector">
<polygon fill="white" stroke="black" points="586,-416 586,-446 724,-446 724,-416 586,-416"/>
<text text-anchor="start" x="594" y="-434" font-family="Helvetica,sans-Serif" font-size="10.00">view.ColorChooser.format</text>
<text text-anchor="middle" x="655" y="-423" font-family="Helvetica,sans-Serif" font-size="10.00">ColorSelector</text>
</a>
</g>
</g>
<!-- Node14&#45;&gt;Node15 -->
<g id="edge14" class="edge"><title>Node14&#45;&gt;Node15</title>
<path fill="none" stroke="midnightblue" d="M516.286,-413.786C535.718,-416.215 556.541,-418.818 575.96,-421.245"/>
<polygon fill="midnightblue" stroke="midnightblue" points="575.616,-424.729 585.973,-422.497 576.484,-417.783 575.616,-424.729"/>
</g>
<!-- Node17 -->
<g id="node17" class="node"><title>Node17</title>
<g id="a_node17"><a xlink:href="../../d3/dbe/classview_1_1_view.html#a318198fbcd4b1cac52bff73680ca8730" target="_top" xlink:title="view.View.getModel">
<polygon fill="white" stroke="black" points="601.5,-377.5 601.5,-396.5 708.5,-396.5 708.5,-377.5 601.5,-377.5"/>
<text text-anchor="middle" x="655" y="-384.5" font-family="Helvetica,sans-Serif" font-size="10.00">view.View.getModel</text>
</a>
</g>
</g>
<!-- Node16&#45;&gt;Node17 -->
<g id="edge16" class="edge"><title>Node16&#45;&gt;Node17</title>
<path fill="none" stroke="midnightblue" d="M508.726,-365.478C535.338,-369.42 565.391,-373.873 591.228,-377.701"/>
<polygon fill="midnightblue" stroke="midnightblue" points="590.872,-381.186 601.277,-379.189 591.898,-374.261 590.872,-381.186"/>
</g>
<!-- Node18 -->
<g id="node18" class="node"><title>Node18</title>
<g id="a_node18"><a xlink:href="../../dd/d17/classapplication_1_1_model.html#a31a6a7f1c136e4fccef5f51525c9ade0" target="_top" xlink:title="application.Model.setLanguage">
<polygon fill="white" stroke="black" points="572.5,-339.5 572.5,-358.5 737.5,-358.5 737.5,-339.5 572.5,-339.5"/>
<text text-anchor="middle" x="655" y="-346.5" font-family="Helvetica,sans-Serif" font-size="10.00">application.Model.setLanguage</text>
</a>
</g>
</g>
<!-- Node16&#45;&gt;Node18 -->
<g id="edge17" class="edge"><title>Node16&#45;&gt;Node18</title>
<path fill="none" stroke="midnightblue" d="M508.726,-353.035C525.697,-352.564 544.067,-352.054 561.851,-351.56"/>
<polygon fill="midnightblue" stroke="midnightblue" points="562.34,-355.048 572.239,-351.271 562.145,-348.05 562.34,-355.048"/>
</g>
<!-- Node20 -->
<g id="node20" class="node"><title>Node20</title>
<g id="a_node20"><a xlink:href="../../dd/d5e/classview_1_1_image_chooser.html#a6d668cc328dfded5d66f3311c8a5637d" target="_top" xlink:title="view.ImageChooser.openFile">
<polygon fill="white" stroke="black" points="580,-301.5 580,-320.5 730,-320.5 730,-301.5 580,-301.5"/>
<text text-anchor="middle" x="655" y="-308.5" font-family="Helvetica,sans-Serif" font-size="10.00">view.ImageChooser.openFile</text>
</a>
</g>
</g>
<!-- Node19&#45;&gt;Node20 -->
<g id="edge19" class="edge"><title>Node19&#45;&gt;Node20</title>
<path fill="none" stroke="midnightblue" d="M504.275,-311C524.937,-311 548.007,-311 569.729,-311"/>
<polygon fill="midnightblue" stroke="midnightblue" points="569.934,-314.5 579.934,-311 569.934,-307.5 569.934,-314.5"/>
</g>
<!-- Node21 -->
<g id="node21" class="node"><title>Node21</title>
<g id="a_node21"><a xlink:href="../../d1/d1a/classview_1_1_display.html#a09cd42ab0296796c2c321ba6cb02a8b8" target="_top" xlink:title="view.Display.updateTurtle\lImage">
<polygon fill="white" stroke="black" points="783,-296 783,-326 917,-326 917,-296 783,-296"/>
<text text-anchor="start" x="791" y="-314" font-family="Helvetica,sans-Serif" font-size="10.00">view.Display.updateTurtle</text>
<text text-anchor="middle" x="850" y="-303" font-family="Helvetica,sans-Serif" font-size="10.00">Image</text>
</a>
</g>
</g>
<!-- Node20&#45;&gt;Node21 -->
<g id="edge20" class="edge"><title>Node20&#45;&gt;Node21</title>
<path fill="none" stroke="midnightblue" d="M730.067,-311C744.01,-311 758.615,-311 772.627,-311"/>
<polygon fill="midnightblue" stroke="midnightblue" points="772.707,-314.5 782.707,-311 772.707,-307.5 772.707,-314.5"/>
</g>
<!-- Node23 -->
<g id="node23" class="node"><title>Node23</title>
<g id="a_node23"><a xlink:href="../../d1/d1a/classview_1_1_display.html#a6809a7a7ebf1366aa0417c5f12d29b26" target="_top" xlink:title="view.Display.addTurtle">
<polygon fill="white" stroke="black" points="377.5,-263.5 377.5,-282.5 496.5,-282.5 496.5,-263.5 377.5,-263.5"/>
<text text-anchor="middle" x="437" y="-270.5" font-family="Helvetica,sans-Serif" font-size="10.00">view.Display.addTurtle</text>
</a>
</g>
</g>
<!-- Node22&#45;&gt;Node23 -->
<g id="edge22" class="edge"><title>Node22&#45;&gt;Node23</title>
<path fill="none" stroke="midnightblue" d="M262.954,-307.453C296.837,-300.707 342.42,-291.631 378.296,-284.489"/>
<polygon fill="midnightblue" stroke="midnightblue" points="379.016,-287.914 388.14,-282.529 377.649,-281.049 379.016,-287.914"/>
</g>
<!-- Node26 -->
<g id="node26" class="node"><title>Node26</title>
<g id="a_node26"><a xlink:href="../../de/d83/classview_1_1_import_design.html#a28c331a446c4c74cfc94149e5ceb0977" target="_top" xlink:title="view.ImportDesign.choose\lDesign">
<polygon fill="white" stroke="black" points="366.5,-214 366.5,-244 507.5,-244 507.5,-214 366.5,-214"/>
<text text-anchor="start" x="374.5" y="-232" font-family="Helvetica,sans-Serif" font-size="10.00">view.ImportDesign.choose</text>
<text text-anchor="middle" x="437" y="-221" font-family="Helvetica,sans-Serif" font-size="10.00">Design</text>
</a>
</g>
</g>
<!-- Node25&#45;&gt;Node26 -->
<g id="edge25" class="edge"><title>Node25&#45;&gt;Node26</title>
<path fill="none" stroke="midnightblue" d="M296.037,-229C315.654,-229 336.608,-229 356.169,-229"/>
<polygon fill="midnightblue" stroke="midnightblue" points="356.257,-232.5 366.257,-229 356.257,-225.5 356.257,-232.5"/>
</g>
<!-- Node27 -->
<g id="node27" class="node"><title>Node27</title>
<g id="a_node27"><a xlink:href="../../d7/d64/classview_1_1_error_display.html#a6c3f2eacf1ed428f546b8df535aea14d" target="_top" xlink:title="view.ErrorDisplay.QuitError">
<polygon fill="white" stroke="black" points="584.5,-175.5 584.5,-194.5 725.5,-194.5 725.5,-175.5 584.5,-175.5"/>
<text text-anchor="middle" x="655" y="-182.5" font-family="Helvetica,sans-Serif" font-size="10.00">view.ErrorDisplay.QuitError</text>
</a>
</g>
</g>
<!-- Node26&#45;&gt;Node27 -->
<g id="edge26" class="edge"><title>Node26&#45;&gt;Node27</title>
<path fill="none" stroke="midnightblue" d="M507.533,-214.836C536.53,-208.929 569.783,-202.155 597.268,-196.556"/>
<polygon fill="midnightblue" stroke="midnightblue" points="598.014,-199.976 607.115,-194.551 596.617,-193.117 598.014,-199.976"/>
</g>
<!-- Node29 -->
<g id="node29" class="node"><title>Node29</title>
<g id="a_node29"><a xlink:href="../../de/d83/classview_1_1_import_design.html#af8cc1739fba8473b1983acb24fd9d47c" target="_top" xlink:title="view.ImportDesign.readFile">
<polygon fill="white" stroke="black" points="583.5,-263.5 583.5,-282.5 726.5,-282.5 726.5,-263.5 583.5,-263.5"/>
<text text-anchor="middle" x="655" y="-270.5" font-family="Helvetica,sans-Serif" font-size="10.00">view.ImportDesign.readFile</text>
</a>
</g>
</g>
<!-- Node26&#45;&gt;Node29 -->
<g id="edge28" class="edge"><title>Node26&#45;&gt;Node29</title>
<path fill="none" stroke="midnightblue" d="M507.533,-243.164C536.53,-249.071 569.783,-255.845 597.268,-261.444"/>
<polygon fill="midnightblue" stroke="midnightblue" points="596.617,-264.883 607.115,-263.449 598.014,-258.024 596.617,-264.883"/>
</g>
<!-- Node30 -->
<g id="node30" class="node"><title>Node30</title>
<g id="a_node30"><a xlink:href="../../d3/dfc/classview_1_1_enter_commands.html#a17b5999a795f8675493768d88b06481c" target="_top" xlink:title="view.EnterCommands.upload\lCommand">
<polygon fill="white" stroke="black" points="577.5,-214 577.5,-244 732.5,-244 732.5,-214 577.5,-214"/>
<text text-anchor="start" x="585.5" y="-232" font-family="Helvetica,sans-Serif" font-size="10.00">view.EnterCommands.upload</text>
<text text-anchor="middle" x="655" y="-221" font-family="Helvetica,sans-Serif" font-size="10.00">Command</text>
</a>
</g>
</g>
<!-- Node26&#45;&gt;Node30 -->
<g id="edge29" class="edge"><title>Node26&#45;&gt;Node30</title>
<path fill="none" stroke="midnightblue" d="M507.533,-229C526.542,-229 547.379,-229 567.222,-229"/>
<polygon fill="midnightblue" stroke="midnightblue" points="567.493,-232.5 577.493,-229 567.493,-225.5 567.493,-232.5"/>
</g>
<!-- Node28 -->
<g id="node28" class="node"><title>Node28</title>
<g id="a_node28"><a xlink:href="../../d7/d64/classview_1_1_error_display.html#a0c73067dcb42d542520886861c13953f" target="_top" xlink:title="view.ErrorDisplay.message">
<polygon fill="white" stroke="black" points="778.5,-175.5 778.5,-194.5 921.5,-194.5 921.5,-175.5 778.5,-175.5"/>
<text text-anchor="middle" x="850" y="-182.5" font-family="Helvetica,sans-Serif" font-size="10.00">view.ErrorDisplay.message</text>
</a>
</g>
</g>
<!-- Node27&#45;&gt;Node28 -->
<g id="edge27" class="edge"><title>Node27&#45;&gt;Node28</title>
<path fill="none" stroke="midnightblue" d="M725.677,-185C739.492,-185 754.104,-185 768.251,-185"/>
<polygon fill="midnightblue" stroke="midnightblue" points="768.452,-188.5 778.452,-185 768.452,-181.5 768.452,-188.5"/>
</g>
<!-- Node32 -->
<g id="node32" class="node"><title>Node32</title>
<g id="a_node32"><a xlink:href="../../d8/da5/classview_1_1_create_design.html#a4552eff83910a3510b98f123945ce0da" target="_top" xlink:title="view.CreateDesign.saveFile">
<polygon fill="white" stroke="black" points="364.5,-175.5 364.5,-194.5 509.5,-194.5 509.5,-175.5 364.5,-175.5"/>
<text text-anchor="middle" x="437" y="-182.5" font-family="Helvetica,sans-Serif" font-size="10.00">view.CreateDesign.saveFile</text>
</a>
</g>
</g>
<!-- Node31&#45;&gt;Node32 -->
<g id="edge31" class="edge"><title>Node31&#45;&gt;Node32</title>
<path fill="none" stroke="midnightblue" d="M296.037,-186.9C315.042,-186.642 335.302,-186.367 354.334,-186.109"/>
<polygon fill="midnightblue" stroke="midnightblue" points="354.511,-189.607 364.462,-185.971 354.416,-182.607 354.511,-189.607"/>
</g>
<!-- Node32&#45;&gt;Node27 -->
<g id="edge33" class="edge"><title>Node32&#45;&gt;Node27</title>
<path fill="none" stroke="midnightblue" d="M509.625,-185C530.31,-185 553.01,-185 574.161,-185"/>
<polygon fill="midnightblue" stroke="midnightblue" points="574.404,-188.5 584.404,-185 574.404,-181.5 574.404,-188.5"/>
</g>
<!-- Node33 -->
<g id="node33" class="node"><title>Node33</title>
<g id="a_node33"><a xlink:href="../../d3/dfc/classview_1_1_enter_commands.html#accac5331932cfb53b59d1ba5b2027184" target="_top" xlink:title="view.EnterCommands.getHistory">
<polygon fill="white" stroke="black" points="568.5,-137.5 568.5,-156.5 741.5,-156.5 741.5,-137.5 568.5,-137.5"/>
<text text-anchor="middle" x="655" y="-144.5" font-family="Helvetica,sans-Serif" font-size="10.00">view.EnterCommands.getHistory</text>
</a>
</g>
</g>
<!-- Node32&#45;&gt;Node33 -->
<g id="edge32" class="edge"><title>Node32&#45;&gt;Node33</title>
<path fill="none" stroke="midnightblue" d="M492.227,-175.46C521.884,-170.243 558.804,-163.747 589.882,-158.28"/>
<polygon fill="midnightblue" stroke="midnightblue" points="590.508,-161.724 599.751,-156.544 589.295,-154.83 590.508,-161.724"/>
</g>
<!-- Node35 -->
<g id="node35" class="node"><title>Node35</title>
<g id="a_node35"><a xlink:href="../../d4/d54/classview_1_1_turtle_state.html#a3e4441bdb52aa2698734b68d1c2f851a" target="_top" xlink:title="view.TurtleState.attrib">
<polygon fill="white" stroke="black" points="377.5,-93.5 377.5,-112.5 496.5,-112.5 496.5,-93.5 377.5,-93.5"/>
<text text-anchor="middle" x="437" y="-100.5" font-family="Helvetica,sans-Serif" font-size="10.00">view.TurtleState.attrib</text>
</a>
</g>
</g>
<!-- Node34&#45;&gt;Node35 -->
<g id="edge35" class="edge"><title>Node34&#45;&gt;Node35</title>
<path fill="none" stroke="midnightblue" d="M273.644,-103C302.355,-103 337.108,-103 367.081,-103"/>
<polygon fill="midnightblue" stroke="midnightblue" points="367.466,-106.5 377.466,-103 367.466,-99.5001 367.466,-106.5"/>
</g>
<!-- Node37 -->
<g id="node37" class="node"><title>Node37</title>
<g id="a_node37"><a xlink:href="../../d4/d54/classview_1_1_turtle_state.html#abdea116a1a22735abf21aae594bf68ef" target="_top" xlink:title="view.TurtleState.StateOf\lTurtle">
<polygon fill="white" stroke="black" points="371.5,-44 371.5,-74 502.5,-74 502.5,-44 371.5,-44"/>
<text text-anchor="start" x="379.5" y="-62" font-family="Helvetica,sans-Serif" font-size="10.00">view.TurtleState.StateOf</text>
<text text-anchor="middle" x="437" y="-51" font-family="Helvetica,sans-Serif" font-size="10.00">Turtle</text>
</a>
</g>
</g>
<!-- Node34&#45;&gt;Node37 -->
<g id="edge37" class="edge"><title>Node34&#45;&gt;Node37</title>
<path fill="none" stroke="midnightblue" d="M262.954,-93.4527C291.716,-87.7263 328.907,-80.3216 361.436,-73.8453"/>
<polygon fill="midnightblue" stroke="midnightblue" points="362.243,-77.2534 371.367,-71.868 360.876,-70.3881 362.243,-77.2534"/>
</g>
<!-- Node36 -->
<g id="node36" class="node"><title>Node36</title>
<g id="a_node36"><a xlink:href="../../d1/deb/classapplication_1_1_turtle_list.html#a87d2c5ddc9378480e8b4bfa5e95b5629" target="_top" xlink:title="application.TurtleList.get\lActiveTurtles">
<polygon fill="white" stroke="black" points="589,-88 589,-118 721,-118 721,-88 589,-88"/>
<text text-anchor="start" x="597" y="-106" font-family="Helvetica,sans-Serif" font-size="10.00">application.TurtleList.get</text>
<text text-anchor="middle" x="655" y="-95" font-family="Helvetica,sans-Serif" font-size="10.00">ActiveTurtles</text>
</a>
</g>
</g>
<!-- Node35&#45;&gt;Node36 -->
<g id="edge36" class="edge"><title>Node35&#45;&gt;Node36</title>
<path fill="none" stroke="midnightblue" d="M496.738,-103C521.994,-103 551.825,-103 578.68,-103"/>
<polygon fill="midnightblue" stroke="midnightblue" points="578.811,-106.5 588.811,-103 578.811,-99.5001 578.811,-106.5"/>
</g>
<!-- Node38 -->
<g id="node38" class="node"><title>Node38</title>
<g id="a_node38"><a xlink:href="../../d4/d54/classview_1_1_turtle_state.html#a3bb9e702c972e9bf0d45895be22d3f2c" target="_top" xlink:title="view.TurtleState.output">
<polygon fill="white" stroke="black" points="592.5,-49.5 592.5,-68.5 717.5,-68.5 717.5,-49.5 592.5,-49.5"/>
<text text-anchor="middle" x="655" y="-56.5" font-family="Helvetica,sans-Serif" font-size="10.00">view.TurtleState.output</text>
</a>
</g>
</g>
<!-- Node37&#45;&gt;Node38 -->
<g id="edge38" class="edge"><title>Node37&#45;&gt;Node38</title>
<path fill="none" stroke="midnightblue" d="M502.515,-59C527.646,-59 556.549,-59 582.327,-59"/>
<polygon fill="midnightblue" stroke="midnightblue" points="582.411,-62.5001 592.411,-59 582.411,-55.5001 582.411,-62.5001"/>
</g>
<!-- Node39 -->
<g id="node39" class="node"><title>Node39</title>
<g id="a_node39"><a xlink:href="../../d4/d54/classview_1_1_turtle_state.html#a0a10884d38ddbe122790ec162a1bb8b2" target="_top" xlink:title="view.TurtleState.refresh\lButton">
<polygon fill="white" stroke="black" points="591,-0 591,-30 719,-30 719,-0 591,-0"/>
<text text-anchor="start" x="599" y="-18" font-family="Helvetica,sans-Serif" font-size="10.00">view.TurtleState.refresh</text>
<text text-anchor="middle" x="655" y="-7" font-family="Helvetica,sans-Serif" font-size="10.00">Button</text>
</a>
</g>
</g>
<!-- Node37&#45;&gt;Node39 -->
<g id="edge39" class="edge"><title>Node37&#45;&gt;Node39</title>
<path fill="none" stroke="midnightblue" d="M502.515,-45.8581C527.207,-40.8282 555.54,-35.0566 580.973,-29.8759"/>
<polygon fill="midnightblue" stroke="midnightblue" points="581.832,-33.2728 590.932,-27.8471 580.435,-26.4137 581.832,-33.2728"/>
</g>
<!-- Node40 -->
<g id="node40" class="node"><title>Node40</title>
<g id="a_node40"><a xlink:href="../../d4/d54/classview_1_1_turtle_state.html#a82984a055d38c6f5a2a4fae97741ce2c" target="_top" xlink:title="view.TurtleState.refresh">
<polygon fill="white" stroke="black" points="786,-5.5 786,-24.5 914,-24.5 914,-5.5 786,-5.5"/>
<text text-anchor="middle" x="850" y="-12.5" font-family="Helvetica,sans-Serif" font-size="10.00">view.TurtleState.refresh</text>
</a>
</g>
</g>
<!-- Node39&#45;&gt;Node40 -->
<g id="edge40" class="edge"><title>Node39&#45;&gt;Node40</title>
<path fill="none" stroke="midnightblue" d="M719.195,-15C737.283,-15 757.15,-15 775.785,-15"/>
<polygon fill="midnightblue" stroke="midnightblue" points="775.992,-18.5001 785.992,-15 775.992,-11.5001 775.992,-18.5001"/>
</g>
</g>
</svg>
