<?xml version="1.0" encoding="UTF-8" standalone="no"?>
<!DOCTYPE svg PUBLIC "-//W3C//DTD SVG 1.1//EN"
 "http://www.w3.org/Graphics/SVG/1.1/DTD/svg11.dtd">
<!-- Generated by graphviz version 2.36.0 (20140111.2315)
 -->
<!-- Title: commands.DoTimes Pages: 1 -->
<svg width="221pt" height="196pt"
 viewBox="0.00 0.00 221.00 196.00" xmlns="http://www.w3.org/2000/svg" xmlns:xlink="http://www.w3.org/1999/xlink">
<g id="graph0" class="graph" transform="scale(1 1) rotate(0) translate(4 192)">
<title>commands.DoTimes</title>
<polygon fill="white" stroke="none" points="-4,4 -4,-192 217,-192 217,4 -4,4"/>
<!-- Node1 -->
<g id="node1" class="node"><title>Node1</title>
<polygon fill="#bfbfbf" stroke="black" points="44,-56.5 44,-75.5 160,-75.5 160,-56.5 44,-56.5"/>
<text text-anchor="middle" x="102" y="-63.5" font-family="Helvetica,sans-Serif" font-size="10.00">commands.DoTimes</text>
</g>
<!-- Node4 -->
<g id="node4" class="node"><title>Node4</title>
<g id="a_node4"><a xlink:href="../../d1/d02/classcommands_1_1_for.html" target="_top" xlink:title="commands.For">
<polygon fill="white" stroke="black" points="-0.5,-0.5 -0.5,-19.5 88.5,-19.5 88.5,-0.5 -0.5,-0.5"/>
<text text-anchor="middle" x="44" y="-7.5" font-family="Helvetica,sans-Serif" font-size="10.00">commands.For</text>
</a>
</g>
</g>
<!-- Node1&#45;&gt;Node4 -->
<g id="edge3" class="edge"><title>Node1&#45;&gt;Node4</title>
<path fill="none" stroke="midnightblue" d="M85.0869,-49.2533C74.797,-39.6731 62.0343,-27.7906 53.4883,-19.8339"/>
<polygon fill="midnightblue" stroke="midnightblue" points="82.9774,-52.0714 92.6813,-56.324 87.7473,-46.9481 82.9774,-52.0714"/>
</g>
<!-- Node5 -->
<g id="node5" class="node"><title>Node5</title>
<g id="a_node5"><a xlink:href="../../d2/d1d/classcommands_1_1_repeat.html" target="_top" xlink:title="commands.Repeat">
<polygon fill="white" stroke="black" points="106.5,-0.5 106.5,-19.5 213.5,-19.5 213.5,-0.5 106.5,-0.5"/>
<text text-anchor="middle" x="160" y="-7.5" font-family="Helvetica,sans-Serif" font-size="10.00">commands.Repeat</text>
</a>
</g>
</g>
<!-- Node1&#45;&gt;Node5 -->
<g id="edge4" class="edge"><title>Node1&#45;&gt;Node5</title>
<path fill="none" stroke="midnightblue" d="M118.913,-49.2533C129.203,-39.6731 141.966,-27.7906 150.512,-19.8339"/>
<polygon fill="midnightblue" stroke="midnightblue" points="116.253,-46.9481 111.319,-56.324 121.023,-52.0714 116.253,-46.9481"/>
</g>
<!-- Node2 -->
<g id="node2" class="node"><title>Node2</title>
<g id="a_node2"><a xlink:href="../../d7/d99/classtree_1_1_command_node.html" target="_top" xlink:title="tree.CommandNode">
<polygon fill="white" stroke="black" points="44.5,-112.5 44.5,-131.5 159.5,-131.5 159.5,-112.5 44.5,-112.5"/>
<text text-anchor="middle" x="102" y="-119.5" font-family="Helvetica,sans-Serif" font-size="10.00">tree.CommandNode</text>
</a>
</g>
</g>
<!-- Node2&#45;&gt;Node1 -->
<g id="edge1" class="edge"><title>Node2&#45;&gt;Node1</title>
<path fill="none" stroke="midnightblue" d="M102,-101.805C102,-92.9102 102,-82.7798 102,-75.7511"/>
<polygon fill="midnightblue" stroke="midnightblue" points="98.5001,-102.083 102,-112.083 105.5,-102.083 98.5001,-102.083"/>
</g>
<!-- Node3 -->
<g id="node3" class="node"><title>Node3</title>
<g id="a_node3"><a xlink:href="../../da/d49/classtree_1_1_tree_node.html" target="_top" xlink:title="tree.TreeNode">
<polygon fill="white" stroke="black" points="60,-168.5 60,-187.5 144,-187.5 144,-168.5 60,-168.5"/>
<text text-anchor="middle" x="102" y="-175.5" font-family="Helvetica,sans-Serif" font-size="10.00">tree.TreeNode</text>
</a>
</g>
</g>
<!-- Node3&#45;&gt;Node2 -->
<g id="edge2" class="edge"><title>Node3&#45;&gt;Node2</title>
<path fill="none" stroke="midnightblue" d="M102,-157.805C102,-148.91 102,-138.78 102,-131.751"/>
<polygon fill="midnightblue" stroke="midnightblue" points="98.5001,-158.083 102,-168.083 105.5,-158.083 98.5001,-158.083"/>
</g>
</g>
</svg>
