<?xml version="1.0" encoding="UTF-8" standalone="no"?>
<!DOCTYPE svg PUBLIC "-//W3C//DTD SVG 1.1//EN"
 "http://www.w3.org/Graphics/SVG/1.1/DTD/svg11.dtd">
<!-- Generated by graphviz version 2.36.0 (20140111.2315)
 -->
<!-- Title: commands.PenColor.function Pages: 1 -->
<svg width="366pt" height="77pt"
 viewBox="0.00 0.00 366.00 77.00" xmlns="http://www.w3.org/2000/svg" xmlns:xlink="http://www.w3.org/1999/xlink">
<g id="graph0" class="graph" transform="scale(1 1) rotate(0) translate(4 73)">
<title>commands.PenColor.function</title>
<polygon fill="white" stroke="none" points="-4,4 -4,-73 362,-73 362,4 -4,4"/>
<!-- Node1 -->
<g id="node1" class="node"><title>Node1</title>
<polygon fill="#bfbfbf" stroke="black" points="0.5,-27.5 0.5,-46.5 157.5,-46.5 157.5,-27.5 0.5,-27.5"/>
<text text-anchor="middle" x="79" y="-34.5" font-family="Helvetica,sans-Serif" font-size="10.00">commands.PenColor.function</text>
</g>
<!-- Node2 -->
<g id="node2" class="node"><title>Node2</title>
<g id="a_node2"><a xlink:href="../../d7/d99/classtree_1_1_command_node.html#ae60b1b2f861235627eb90a0d1fa25814" target="_top" xlink:title="tree.CommandNode.getModel">
<polygon fill="white" stroke="black" points="195,-49.5 195,-68.5 357,-68.5 357,-49.5 195,-49.5"/>
<text text-anchor="middle" x="276" y="-56.5" font-family="Helvetica,sans-Serif" font-size="10.00">tree.CommandNode.getModel</text>
</a>
</g>
</g>
<!-- Node1&#45;&gt;Node2 -->
<g id="edge1" class="edge"><title>Node1&#45;&gt;Node2</title>
<path fill="none" stroke="midnightblue" d="M157.629,-45.7582C166.504,-46.7594 175.607,-47.7865 184.629,-48.8043"/>
<polygon fill="midnightblue" stroke="midnightblue" points="184.434,-52.3045 194.764,-49.9477 185.219,-45.3486 184.434,-52.3045"/>
</g>
<!-- Node3 -->
<g id="node3" class="node"><title>Node3</title>
<g id="a_node3"><a xlink:href="../../d7/d99/classtree_1_1_command_node.html#a9f3dd4c2d2489cbbbc7e09e252a8c9a3" target="_top" xlink:title="tree.CommandNode.putObject\lInList">
<polygon fill="white" stroke="black" points="194,-0 194,-30 358,-30 358,-0 194,-0"/>
<text text-anchor="start" x="202" y="-18" font-family="Helvetica,sans-Serif" font-size="10.00">tree.CommandNode.putObject</text>
<text text-anchor="middle" x="276" y="-7" font-family="Helvetica,sans-Serif" font-size="10.00">InList</text>
</a>
</g>
</g>
<!-- Node1&#45;&gt;Node3 -->
<g id="edge2" class="edge"><title>Node1&#45;&gt;Node3</title>
<path fill="none" stroke="midnightblue" d="M157.629,-28.2418C166.179,-27.2772 174.942,-26.2886 183.639,-25.3073"/>
<polygon fill="midnightblue" stroke="midnightblue" points="184.258,-28.7598 193.803,-24.1607 183.473,-21.804 184.258,-28.7598"/>
</g>
</g>
</svg>
