<?xml version="1.0" encoding="UTF-8" standalone="no"?>
<!DOCTYPE svg PUBLIC "-//W3C//DTD SVG 1.1//EN"
 "http://www.w3.org/Graphics/SVG/1.1/DTD/svg11.dtd">
<!-- Generated by graphviz version 2.36.0 (20140111.2315)
 -->
<!-- Title: tree.EvaluatorNode.generateParameterArray Pages: 1 -->
<svg width="384pt" height="77pt"
 viewBox="0.00 0.00 384.00 77.00" xmlns="http://www.w3.org/2000/svg" xmlns:xlink="http://www.w3.org/1999/xlink">
<g id="graph0" class="graph" transform="scale(1 1) rotate(0) translate(4 73)">
<title>tree.EvaluatorNode.generateParameterArray</title>
<polygon fill="white" stroke="none" points="-4,4 -4,-73 380,-73 380,4 -4,4"/>
<!-- Node1 -->
<g id="node1" class="node"><title>Node1</title>
<polygon fill="#bfbfbf" stroke="black" points="0,-22 0,-52 156,-52 156,-22 0,-22"/>
<text text-anchor="start" x="8" y="-40" font-family="Helvetica,sans-Serif" font-size="10.00">tree.EvaluatorNode.generate</text>
<text text-anchor="middle" x="78" y="-29" font-family="Helvetica,sans-Serif" font-size="10.00">ParameterArray</text>
</g>
<!-- Node2 -->
<g id="node2" class="node"><title>Node2</title>
<g id="a_node2"><a xlink:href="../../d7/d99/classtree_1_1_command_node.html#a7a383438fa8edd362dddfc785615edd2" target="_top" xlink:title="tree.CommandNode.getArgNum">
<polygon fill="white" stroke="black" points="197.5,-49.5 197.5,-68.5 370.5,-68.5 370.5,-49.5 197.5,-49.5"/>
<text text-anchor="middle" x="284" y="-56.5" font-family="Helvetica,sans-Serif" font-size="10.00">tree.CommandNode.getArgNum</text>
</a>
</g>
</g>
<!-- Node1&#45;&gt;Node2 -->
<g id="edge1" class="edge"><title>Node1&#45;&gt;Node2</title>
<path fill="none" stroke="midnightblue" d="M156.124,-45.3173C166.299,-46.4146 176.825,-47.5498 187.264,-48.6756"/>
<polygon fill="midnightblue" stroke="midnightblue" points="186.914,-52.158 197.232,-49.7505 187.665,-45.1983 186.914,-52.158"/>
</g>
<!-- Node3 -->
<g id="node3" class="node"><title>Node3</title>
<g id="a_node3"><a xlink:href="../../d7/d99/classtree_1_1_command_node.html#a83cd3f67e4b610083b8caaf732af79ea" target="_top" xlink:title="tree.CommandNode.setParameter\lArray">
<polygon fill="white" stroke="black" points="192.5,-0 192.5,-30 375.5,-30 375.5,-0 192.5,-0"/>
<text text-anchor="start" x="200.5" y="-18" font-family="Helvetica,sans-Serif" font-size="10.00">tree.CommandNode.setParameter</text>
<text text-anchor="middle" x="284" y="-7" font-family="Helvetica,sans-Serif" font-size="10.00">Array</text>
</a>
</g>
</g>
<!-- Node1&#45;&gt;Node3 -->
<g id="edge2" class="edge"><title>Node1&#45;&gt;Node3</title>
<path fill="none" stroke="midnightblue" d="M156.124,-28.6827C164.731,-27.7545 173.591,-26.799 182.436,-25.8451"/>
<polygon fill="midnightblue" stroke="midnightblue" points="182.835,-29.3225 192.402,-24.7704 182.084,-22.3629 182.835,-29.3225"/>
</g>
</g>
</svg>
