<?xml version="1.0" encoding="UTF-8" standalone="no"?>
<!DOCTYPE svg PUBLIC "-//W3C//DTD SVG 1.1//EN"
 "http://www.w3.org/Graphics/SVG/1.1/DTD/svg11.dtd">
<!-- Generated by graphviz version 2.36.0 (20140111.2315)
 -->
<!-- Title: tree.EvaluatorNode.EvaluatorNode Pages: 1 -->
<svg width="622pt" height="94pt"
 viewBox="0.00 0.00 622.00 94.00" xmlns="http://www.w3.org/2000/svg" xmlns:xlink="http://www.w3.org/1999/xlink">
<g id="graph0" class="graph" transform="scale(1 1) rotate(0) translate(4 90)">
<title>tree.EvaluatorNode.EvaluatorNode</title>
<polygon fill="white" stroke="none" points="-4,4 -4,-90 618,-90 618,4 -4,4"/>
<!-- Node1 -->
<g id="node1" class="node"><title>Node1</title>
<polygon fill="#bfbfbf" stroke="black" points="0.5,-22.5 0.5,-41.5 183.5,-41.5 183.5,-22.5 0.5,-22.5"/>
<text text-anchor="middle" x="92" y="-29.5" font-family="Helvetica,sans-Serif" font-size="10.00">tree.EvaluatorNode.EvaluatorNode</text>
</g>
<!-- Node2 -->
<g id="node2" class="node"><title>Node2</title>
<g id="a_node2"><a xlink:href="../../dd/dbf/classtree_1_1_evaluator_node.html#af30d930126908158d1e8938ba961b403" target="_top" xlink:title="tree.EvaluatorNode.generate\lParameterArray">
<polygon fill="white" stroke="black" points="229,-39 229,-69 385,-69 385,-39 229,-39"/>
<text text-anchor="start" x="237" y="-57" font-family="Helvetica,sans-Serif" font-size="10.00">tree.EvaluatorNode.generate</text>
<text text-anchor="middle" x="307" y="-46" font-family="Helvetica,sans-Serif" font-size="10.00">ParameterArray</text>
</a>
</g>
</g>
<!-- Node1&#45;&gt;Node2 -->
<g id="edge1" class="edge"><title>Node1&#45;&gt;Node2</title>
<path fill="none" stroke="midnightblue" d="M183.64,-41.3619C195.288,-42.5649 207.194,-43.7947 218.785,-44.9919"/>
<polygon fill="midnightblue" stroke="midnightblue" points="218.569,-48.4881 228.876,-46.0341 219.288,-41.5251 218.569,-48.4881"/>
</g>
<!-- Node5 -->
<g id="node5" class="node"><title>Node5</title>
<g id="a_node5"><a xlink:href="../../d7/d99/classtree_1_1_command_node.html#a5c36681d8611747f8d2beec70124b25b" target="_top" xlink:title="tree.CommandNode.setArgNum">
<polygon fill="white" stroke="black" points="220.5,-0.5 220.5,-19.5 393.5,-19.5 393.5,-0.5 220.5,-0.5"/>
<text text-anchor="middle" x="307" y="-7.5" font-family="Helvetica,sans-Serif" font-size="10.00">tree.CommandNode.setArgNum</text>
</a>
</g>
</g>
<!-- Node1&#45;&gt;Node5 -->
<g id="edge4" class="edge"><title>Node1&#45;&gt;Node5</title>
<path fill="none" stroke="midnightblue" d="M183.64,-22.6381C192.348,-21.7387 201.201,-20.8243 209.958,-19.9198"/>
<polygon fill="midnightblue" stroke="midnightblue" points="210.593,-23.3729 220.181,-18.864 209.874,-16.41 210.593,-23.3729"/>
</g>
<!-- Node3 -->
<g id="node3" class="node"><title>Node3</title>
<g id="a_node3"><a xlink:href="../../d7/d99/classtree_1_1_command_node.html#a7a383438fa8edd362dddfc785615edd2" target="_top" xlink:title="tree.CommandNode.getArgNum">
<polygon fill="white" stroke="black" points="435.5,-66.5 435.5,-85.5 608.5,-85.5 608.5,-66.5 435.5,-66.5"/>
<text text-anchor="middle" x="522" y="-73.5" font-family="Helvetica,sans-Serif" font-size="10.00">tree.CommandNode.getArgNum</text>
</a>
</g>
</g>
<!-- Node2&#45;&gt;Node3 -->
<g id="edge2" class="edge"><title>Node2&#45;&gt;Node3</title>
<path fill="none" stroke="midnightblue" d="M385.199,-61.9736C398.197,-63.3161 411.826,-64.7238 425.226,-66.1078"/>
<polygon fill="midnightblue" stroke="midnightblue" points="425.108,-69.6141 435.414,-67.1602 425.827,-62.6512 425.108,-69.6141"/>
</g>
<!-- Node4 -->
<g id="node4" class="node"><title>Node4</title>
<g id="a_node4"><a xlink:href="../../d7/d99/classtree_1_1_command_node.html#a83cd3f67e4b610083b8caaf732af79ea" target="_top" xlink:title="tree.CommandNode.setParameter\lArray">
<polygon fill="white" stroke="black" points="430.5,-17 430.5,-47 613.5,-47 613.5,-17 430.5,-17"/>
<text text-anchor="start" x="438.5" y="-35" font-family="Helvetica,sans-Serif" font-size="10.00">tree.CommandNode.setParameter</text>
<text text-anchor="middle" x="522" y="-24" font-family="Helvetica,sans-Serif" font-size="10.00">Array</text>
</a>
</g>
</g>
<!-- Node2&#45;&gt;Node4 -->
<g id="edge3" class="edge"><title>Node2&#45;&gt;Node4</title>
<path fill="none" stroke="midnightblue" d="M385.199,-46.0264C396.525,-44.8565 408.331,-43.6372 420.047,-42.4271"/>
<polygon fill="midnightblue" stroke="midnightblue" points="420.718,-45.8765 430.305,-41.3676 419.998,-38.9136 420.718,-45.8765"/>
</g>
</g>
</svg>
