<?xml version="1.0" encoding="UTF-8" standalone="no"?>
<!DOCTYPE svg PUBLIC "-//W3C//DTD SVG 1.1//EN"
 "http://www.w3.org/Graphics/SVG/1.1/DTD/svg11.dtd">
<!-- Generated by graphviz version 2.36.0 (20140111.2315)
 -->
<!-- Title: view.ButtonBar.makeButton Pages: 1 -->
<svg width="814pt" height="38pt"
 viewBox="0.00 0.00 814.00 38.00" xmlns="http://www.w3.org/2000/svg" xmlns:xlink="http://www.w3.org/1999/xlink">
<g id="graph0" class="graph" transform="scale(1 1) rotate(0) translate(4 34)">
<title>view.ButtonBar.makeButton</title>
<polygon fill="white" stroke="none" points="-4,4 -4,-34 810,-34 810,4 -4,4"/>
<!-- Node1 -->
<g id="node1" class="node"><title>Node1</title>
<polygon fill="#bfbfbf" stroke="black" points="0.5,-5.5 0.5,-24.5 149.5,-24.5 149.5,-5.5 0.5,-5.5"/>
<text text-anchor="middle" x="75" y="-12.5" font-family="Helvetica,sans-Serif" font-size="10.00">view.ButtonBar.makeButton</text>
</g>
<!-- Node2 -->
<g id="node2" class="node"><title>Node2</title>
<g id="a_node2"><a xlink:href="../../d3/d1e/classview_1_1_button_bar.html#a9663e7fffc7f3559097b76313739e507" target="_top" xlink:title="view.ButtonBar.makeButtonBar">
<polygon fill="white" stroke="black" points="186,-5.5 186,-24.5 352,-24.5 352,-5.5 186,-5.5"/>
<text text-anchor="middle" x="269" y="-12.5" font-family="Helvetica,sans-Serif" font-size="10.00">view.ButtonBar.makeButtonBar</text>
</a>
</g>
</g>
<!-- Node1&#45;&gt;Node2 -->
<g id="edge1" class="edge"><title>Node1&#45;&gt;Node2</title>
<path fill="none" stroke="midnightblue" d="M159.773,-15C168.436,-15 177.234,-15 185.878,-15"/>
<polygon fill="midnightblue" stroke="midnightblue" points="159.683,-11.5001 149.683,-15 159.683,-18.5001 159.683,-11.5001"/>
</g>
<!-- Node3 -->
<g id="node3" class="node"><title>Node3</title>
<g id="a_node3"><a xlink:href="../../d3/dbe/classview_1_1_view.html#aef3f2dd859a6a5c719987365a9afb905" target="_top" xlink:title="view.View.start">
<polygon fill="white" stroke="black" points="388,-5.5 388,-24.5 474,-24.5 474,-5.5 388,-5.5"/>
<text text-anchor="middle" x="431" y="-12.5" font-family="Helvetica,sans-Serif" font-size="10.00">view.View.start</text>
</a>
</g>
</g>
<!-- Node2&#45;&gt;Node3 -->
<g id="edge2" class="edge"><title>Node2&#45;&gt;Node3</title>
<path fill="none" stroke="midnightblue" d="M362.353,-15C371.163,-15 379.768,-15 387.726,-15"/>
<polygon fill="midnightblue" stroke="midnightblue" points="362.343,-11.5001 352.343,-15 362.343,-18.5001 362.343,-11.5001"/>
</g>
<!-- Node4 -->
<g id="node4" class="node"><title>Node4</title>
<g id="a_node4"><a xlink:href="../../d4/d9d/classapplication_1_1_wrapper.html#a4be5486a54f6d10d816c3ff49e82ecb9" target="_top" xlink:title="application.Wrapper.make\lNewWindow">
<polygon fill="white" stroke="black" points="510,-0 510,-30 650,-30 650,-0 510,-0"/>
<text text-anchor="start" x="518" y="-18" font-family="Helvetica,sans-Serif" font-size="10.00">application.Wrapper.make</text>
<text text-anchor="middle" x="580" y="-7" font-family="Helvetica,sans-Serif" font-size="10.00">NewWindow</text>
</a>
</g>
</g>
<!-- Node3&#45;&gt;Node4 -->
<g id="edge3" class="edge"><title>Node3&#45;&gt;Node4</title>
<path fill="none" stroke="midnightblue" d="M484.379,-15C492.668,-15 501.349,-15 509.949,-15"/>
<polygon fill="midnightblue" stroke="midnightblue" points="484.124,-11.5001 474.124,-15 484.124,-18.5001 484.124,-11.5001"/>
</g>
<!-- Node5 -->
<g id="node5" class="node"><title>Node5</title>
<g id="a_node5"><a xlink:href="../../d9/d96/classapplication_1_1_main.html#a4e5ad4e3de8bbd8654120180a94e870d" target="_top" xlink:title="application.Main.start">
<polygon fill="white" stroke="black" points="686.5,-5.5 686.5,-24.5 805.5,-24.5 805.5,-5.5 686.5,-5.5"/>
<text text-anchor="middle" x="746" y="-12.5" font-family="Helvetica,sans-Serif" font-size="10.00">application.Main.start</text>
</a>
</g>
</g>
<!-- Node4&#45;&gt;Node5 -->
<g id="edge4" class="edge"><title>Node4&#45;&gt;Node5</title>
<path fill="none" stroke="midnightblue" d="M660.335,-15C669.112,-15 677.929,-15 686.384,-15"/>
<polygon fill="midnightblue" stroke="midnightblue" points="660.075,-11.5001 650.075,-15 660.075,-18.5001 660.075,-11.5001"/>
</g>
</g>
</svg>
