<?xml version="1.0" encoding="UTF-8" standalone="no"?>
<!DOCTYPE svg PUBLIC "-//W3C//DTD SVG 1.1//EN"
 "http://www.w3.org/Graphics/SVG/1.1/DTD/svg11.dtd">
<!-- Generated by graphviz version 2.36.0 (20140111.2315)
 -->
<!-- Title: view.ButtonBar.addtoVButtonBar Pages: 1 -->
<svg width="636pt" height="38pt"
 viewBox="0.00 0.00 636.00 38.00" xmlns="http://www.w3.org/2000/svg" xmlns:xlink="http://www.w3.org/1999/xlink">
<g id="graph0" class="graph" transform="scale(1 1) rotate(0) translate(4 34)">
<title>view.ButtonBar.addtoVButtonBar</title>
<polygon fill="white" stroke="none" points="-4,4 -4,-34 632,-34 632,4 -4,4"/>
<!-- Node1 -->
<g id="node1" class="node"><title>Node1</title>
<polygon fill="#bfbfbf" stroke="black" points="0.5,-5.5 0.5,-24.5 173.5,-24.5 173.5,-5.5 0.5,-5.5"/>
<text text-anchor="middle" x="87" y="-12.5" font-family="Helvetica,sans-Serif" font-size="10.00">view.ButtonBar.addtoVButtonBar</text>
</g>
<!-- Node2 -->
<g id="node2" class="node"><title>Node2</title>
<g id="a_node2"><a xlink:href="../../d3/dbe/classview_1_1_view.html#aef3f2dd859a6a5c719987365a9afb905" target="_top" xlink:title="view.View.start">
<polygon fill="white" stroke="black" points="210,-5.5 210,-24.5 296,-24.5 296,-5.5 210,-5.5"/>
<text text-anchor="middle" x="253" y="-12.5" font-family="Helvetica,sans-Serif" font-size="10.00">view.View.start</text>
</a>
</g>
</g>
<!-- Node1&#45;&gt;Node2 -->
<g id="edge1" class="edge"><title>Node1&#45;&gt;Node2</title>
<path fill="none" stroke="midnightblue" d="M184.09,-15C193.1,-15 201.876,-15 209.966,-15"/>
<polygon fill="midnightblue" stroke="midnightblue" points="183.843,-11.5001 173.842,-15 183.842,-18.5001 183.843,-11.5001"/>
</g>
<!-- Node3 -->
<g id="node3" class="node"><title>Node3</title>
<g id="a_node3"><a xlink:href="../../d4/d9d/classapplication_1_1_wrapper.html#a4be5486a54f6d10d816c3ff49e82ecb9" target="_top" xlink:title="application.Wrapper.make\lNewWindow">
<polygon fill="white" stroke="black" points="332,-0 332,-30 472,-30 472,-0 332,-0"/>
<text text-anchor="start" x="340" y="-18" font-family="Helvetica,sans-Serif" font-size="10.00">application.Wrapper.make</text>
<text text-anchor="middle" x="402" y="-7" font-family="Helvetica,sans-Serif" font-size="10.00">NewWindow</text>
</a>
</g>
</g>
<!-- Node2&#45;&gt;Node3 -->
<g id="edge2" class="edge"><title>Node2&#45;&gt;Node3</title>
<path fill="none" stroke="midnightblue" d="M306.379,-15C314.668,-15 323.349,-15 331.949,-15"/>
<polygon fill="midnightblue" stroke="midnightblue" points="306.124,-11.5001 296.124,-15 306.124,-18.5001 306.124,-11.5001"/>
</g>
<!-- Node4 -->
<g id="node4" class="node"><title>Node4</title>
<g id="a_node4"><a xlink:href="../../d9/d96/classapplication_1_1_main.html#a4e5ad4e3de8bbd8654120180a94e870d" target="_top" xlink:title="application.Main.start">
<polygon fill="white" stroke="black" points="508.5,-5.5 508.5,-24.5 627.5,-24.5 627.5,-5.5 508.5,-5.5"/>
<text text-anchor="middle" x="568" y="-12.5" font-family="Helvetica,sans-Serif" font-size="10.00">application.Main.start</text>
</a>
</g>
</g>
<!-- Node3&#45;&gt;Node4 -->
<g id="edge3" class="edge"><title>Node3&#45;&gt;Node4</title>
<path fill="none" stroke="midnightblue" d="M482.335,-15C491.112,-15 499.929,-15 508.384,-15"/>
<polygon fill="midnightblue" stroke="midnightblue" points="482.075,-11.5001 472.075,-15 482.075,-18.5001 482.075,-11.5001"/>
</g>
</g>
</svg>
