<?xml version="1.0" encoding="UTF-8" standalone="no"?>
<!DOCTYPE svg PUBLIC "-//W3C//DTD SVG 1.1//EN"
 "http://www.w3.org/Graphics/SVG/1.1/DTD/svg11.dtd">
<!-- Generated by graphviz version 2.36.0 (20140111.2315)
 -->
<!-- Title: view.ButtonBar.makeButtonBar Pages: 1 -->
<svg width="740pt" height="190pt"
 viewBox="0.00 0.00 740.00 190.00" xmlns="http://www.w3.org/2000/svg" xmlns:xlink="http://www.w3.org/1999/xlink">
<g id="graph0" class="graph" transform="scale(1 1) rotate(0) translate(4 186)">
<title>view.ButtonBar.makeButtonBar</title>
<polygon fill="white" stroke="none" points="-4,4 -4,-186 736,-186 736,4 -4,4"/>
<!-- Node1 -->
<g id="node1" class="node"><title>Node1</title>
<polygon fill="#bfbfbf" stroke="black" points="0,-93.5 0,-112.5 166,-112.5 166,-93.5 0,-93.5"/>
<text text-anchor="middle" x="83" y="-100.5" font-family="Helvetica,sans-Serif" font-size="10.00">view.ButtonBar.makeButtonBar</text>
</g>
<!-- Node2 -->
<g id="node2" class="node"><title>Node2</title>
<g id="a_node2"><a xlink:href="../../d3/d1e/classview_1_1_button_bar.html#a0fceb97a1c422006be3e1c0645bc2a1e" target="_top" xlink:title="view.ButtonBar.makeButton">
<polygon fill="white" stroke="black" points="206.5,-162.5 206.5,-181.5 355.5,-181.5 355.5,-162.5 206.5,-162.5"/>
<text text-anchor="middle" x="281" y="-169.5" font-family="Helvetica,sans-Serif" font-size="10.00">view.ButtonBar.makeButton</text>
</a>
</g>
</g>
<!-- Node1&#45;&gt;Node2 -->
<g id="edge1" class="edge"><title>Node1&#45;&gt;Node2</title>
<path fill="none" stroke="midnightblue" d="M104.548,-112.586C127.827,-123.196 167.074,-140.337 202,-152 210.478,-154.831 219.587,-157.496 228.482,-159.9"/>
<polygon fill="midnightblue" stroke="midnightblue" points="227.829,-163.347 238.39,-162.5 229.605,-156.576 227.829,-163.347"/>
</g>
<!-- Node3 -->
<g id="node3" class="node"><title>Node3</title>
<g id="a_node3"><a xlink:href="../../d6/d05/classview_1_1_color_chooser.html#aeff346e71fef58d80a7e9e2ee22e8232" target="_top" xlink:title="view.ColorChooser.makeColor\lChooserPopUp">
<polygon fill="white" stroke="black" points="202,-113 202,-143 360,-143 360,-113 202,-113"/>
<text text-anchor="start" x="210" y="-131" font-family="Helvetica,sans-Serif" font-size="10.00">view.ColorChooser.makeColor</text>
<text text-anchor="middle" x="281" y="-120" font-family="Helvetica,sans-Serif" font-size="10.00">ChooserPopUp</text>
</a>
</g>
</g>
<!-- Node1&#45;&gt;Node3 -->
<g id="edge2" class="edge"><title>Node1&#45;&gt;Node3</title>
<path fill="none" stroke="midnightblue" d="M158.658,-112.523C169.509,-113.907 180.764,-115.342 191.85,-116.756"/>
<polygon fill="midnightblue" stroke="midnightblue" points="191.604,-120.253 201.967,-118.047 192.49,-113.31 191.604,-120.253"/>
</g>
<!-- Node5 -->
<g id="node5" class="node"><title>Node5</title>
<g id="a_node5"><a xlink:href="../../df/d10/classview_1_1_language_chooser.html#a638bfb57c9d44edbc77c09dbbea172f2" target="_top" xlink:title="view.LanguageChooser.set\lLanguage">
<polygon fill="white" stroke="black" points="209.5,-64 209.5,-94 352.5,-94 352.5,-64 209.5,-64"/>
<text text-anchor="start" x="217.5" y="-82" font-family="Helvetica,sans-Serif" font-size="10.00">view.LanguageChooser.set</text>
<text text-anchor="middle" x="281" y="-71" font-family="Helvetica,sans-Serif" font-size="10.00">Language</text>
</a>
</g>
</g>
<!-- Node1&#45;&gt;Node5 -->
<g id="edge4" class="edge"><title>Node1&#45;&gt;Node5</title>
<path fill="none" stroke="midnightblue" d="M161.746,-93.4801C174.02,-91.9771 186.738,-90.4198 199.082,-88.9083"/>
<polygon fill="midnightblue" stroke="midnightblue" points="199.846,-92.3411 209.346,-87.6515 198.995,-85.3929 199.846,-92.3411"/>
</g>
<!-- Node8 -->
<g id="node8" class="node"><title>Node8</title>
<g id="a_node8"><a xlink:href="../../dd/d5e/classview_1_1_image_chooser.html#acce8e5e36cde606043547a64c1f44223" target="_top" xlink:title="view.ImageChooser.start">
<polygon fill="white" stroke="black" points="214,-18.5 214,-37.5 348,-37.5 348,-18.5 214,-18.5"/>
<text text-anchor="middle" x="281" y="-25.5" font-family="Helvetica,sans-Serif" font-size="10.00">view.ImageChooser.start</text>
</a>
</g>
</g>
<!-- Node1&#45;&gt;Node8 -->
<g id="edge7" class="edge"><title>Node1&#45;&gt;Node8</title>
<path fill="none" stroke="midnightblue" d="M105.563,-93.4979C129.08,-83.2635 167.923,-66.7359 202,-54 214.344,-49.3865 227.929,-44.7192 240.254,-40.6368"/>
<polygon fill="midnightblue" stroke="midnightblue" points="241.409,-43.9416 249.821,-37.5005 239.228,-37.2899 241.409,-43.9416"/>
</g>
<!-- Node4 -->
<g id="node4" class="node"><title>Node4</title>
<g id="a_node4"><a xlink:href="../../d6/d05/classview_1_1_color_chooser.html#a66232fdbcddc16c0550b7094a0807028" target="_top" xlink:title="view.ColorChooser.format\lColorSelector">
<polygon fill="white" stroke="black" points="410,-120 410,-150 548,-150 548,-120 410,-120"/>
<text text-anchor="start" x="418" y="-138" font-family="Helvetica,sans-Serif" font-size="10.00">view.ColorChooser.format</text>
<text text-anchor="middle" x="479" y="-127" font-family="Helvetica,sans-Serif" font-size="10.00">ColorSelector</text>
</a>
</g>
</g>
<!-- Node3&#45;&gt;Node4 -->
<g id="edge3" class="edge"><title>Node3&#45;&gt;Node4</title>
<path fill="none" stroke="midnightblue" d="M360.028,-130.787C373,-131.25 386.46,-131.731 399.445,-132.194"/>
<polygon fill="midnightblue" stroke="midnightblue" points="399.62,-135.703 409.739,-132.562 399.87,-128.707 399.62,-135.703"/>
</g>
<!-- Node6 -->
<g id="node6" class="node"><title>Node6</title>
<g id="a_node6"><a xlink:href="../../d3/dbe/classview_1_1_view.html#a318198fbcd4b1cac52bff73680ca8730" target="_top" xlink:title="view.View.getModel">
<polygon fill="white" stroke="black" points="425.5,-81.5 425.5,-100.5 532.5,-100.5 532.5,-81.5 425.5,-81.5"/>
<text text-anchor="middle" x="479" y="-88.5" font-family="Helvetica,sans-Serif" font-size="10.00">view.View.getModel</text>
</a>
</g>
</g>
<!-- Node5&#45;&gt;Node6 -->
<g id="edge5" class="edge"><title>Node5&#45;&gt;Node6</title>
<path fill="none" stroke="midnightblue" d="M352.76,-83.3323C373.21,-84.5843 395.378,-85.9415 415.3,-87.1612"/>
<polygon fill="midnightblue" stroke="midnightblue" points="415.296,-90.6675 425.492,-87.7852 415.724,-83.6806 415.296,-90.6675"/>
</g>
<!-- Node7 -->
<g id="node7" class="node"><title>Node7</title>
<g id="a_node7"><a xlink:href="../../dd/d17/classapplication_1_1_model.html#a31a6a7f1c136e4fccef5f51525c9ade0" target="_top" xlink:title="application.Model.setLanguage">
<polygon fill="white" stroke="black" points="396.5,-43.5 396.5,-62.5 561.5,-62.5 561.5,-43.5 396.5,-43.5"/>
<text text-anchor="middle" x="479" y="-50.5" font-family="Helvetica,sans-Serif" font-size="10.00">application.Model.setLanguage</text>
</a>
</g>
</g>
<!-- Node5&#45;&gt;Node7 -->
<g id="edge6" class="edge"><title>Node5&#45;&gt;Node7</title>
<path fill="none" stroke="midnightblue" d="M352.76,-69.6134C366.926,-67.7343 381.917,-65.7457 396.414,-63.8226"/>
<polygon fill="midnightblue" stroke="midnightblue" points="396.903,-67.2886 406.355,-62.5039 395.982,-60.3494 396.903,-67.2886"/>
</g>
<!-- Node9 -->
<g id="node9" class="node"><title>Node9</title>
<g id="a_node9"><a xlink:href="../../dd/d5e/classview_1_1_image_chooser.html#a6d668cc328dfded5d66f3311c8a5637d" target="_top" xlink:title="view.ImageChooser.openFile">
<polygon fill="white" stroke="black" points="404,-5.5 404,-24.5 554,-24.5 554,-5.5 404,-5.5"/>
<text text-anchor="middle" x="479" y="-12.5" font-family="Helvetica,sans-Serif" font-size="10.00">view.ImageChooser.openFile</text>
</a>
</g>
</g>
<!-- Node8&#45;&gt;Node9 -->
<g id="edge8" class="edge"><title>Node8&#45;&gt;Node9</title>
<path fill="none" stroke="midnightblue" d="M348.083,-23.6169C362.621,-22.6527 378.211,-21.6187 393.366,-20.6135"/>
<polygon fill="midnightblue" stroke="midnightblue" points="394.024,-24.0776 403.77,-19.9234 393.561,-17.093 394.024,-24.0776"/>
</g>
<!-- Node10 -->
<g id="node10" class="node"><title>Node10</title>
<g id="a_node10"><a xlink:href="../../d1/d1a/classview_1_1_display.html#a09cd42ab0296796c2c321ba6cb02a8b8" target="_top" xlink:title="view.Display.updateTurtle\lImage">
<polygon fill="white" stroke="black" points="598,-0 598,-30 732,-30 732,-0 598,-0"/>
<text text-anchor="start" x="606" y="-18" font-family="Helvetica,sans-Serif" font-size="10.00">view.Display.updateTurtle</text>
<text text-anchor="middle" x="665" y="-7" font-family="Helvetica,sans-Serif" font-size="10.00">Image</text>
</a>
</g>
</g>
<!-- Node9&#45;&gt;Node10 -->
<g id="edge9" class="edge"><title>Node9&#45;&gt;Node10</title>
<path fill="none" stroke="midnightblue" d="M554.044,-15C565.131,-15 576.579,-15 587.71,-15"/>
<polygon fill="midnightblue" stroke="midnightblue" points="587.825,-18.5001 597.825,-15 587.825,-11.5001 587.825,-18.5001"/>
</g>
</g>
</svg>
