<?xml version="1.0" encoding="UTF-8" standalone="no"?>
<!DOCTYPE svg PUBLIC "-//W3C//DTD SVG 1.1//EN"
 "http://www.w3.org/Graphics/SVG/1.1/DTD/svg11.dtd">
<!-- Generated by graphviz version 2.36.0 (20140111.2315)
 -->
<!-- Title: view.ErrorDisplay.message Pages: 1 -->
<svg width="1166pt" height="77pt"
 viewBox="0.00 0.00 1166.00 77.00" xmlns="http://www.w3.org/2000/svg" xmlns:xlink="http://www.w3.org/1999/xlink">
<g id="graph0" class="graph" transform="scale(1 1) rotate(0) translate(4 73)">
<title>view.ErrorDisplay.message</title>
<polygon fill="white" stroke="none" points="-4,4 -4,-73 1162,-73 1162,4 -4,4"/>
<!-- Node1 -->
<g id="node1" class="node"><title>Node1</title>
<polygon fill="#bfbfbf" stroke="black" points="0.5,-27.5 0.5,-46.5 143.5,-46.5 143.5,-27.5 0.5,-27.5"/>
<text text-anchor="middle" x="72" y="-34.5" font-family="Helvetica,sans-Serif" font-size="10.00">view.ErrorDisplay.message</text>
</g>
<!-- Node2 -->
<g id="node2" class="node"><title>Node2</title>
<g id="a_node2"><a xlink:href="../../d7/d64/classview_1_1_error_display.html#a6c3f2eacf1ed428f546b8df535aea14d" target="_top" xlink:title="view.ErrorDisplay.QuitError">
<polygon fill="white" stroke="black" points="180.5,-27.5 180.5,-46.5 321.5,-46.5 321.5,-27.5 180.5,-27.5"/>
<text text-anchor="middle" x="251" y="-34.5" font-family="Helvetica,sans-Serif" font-size="10.00">view.ErrorDisplay.QuitError</text>
</a>
</g>
</g>
<!-- Node1&#45;&gt;Node2 -->
<g id="edge1" class="edge"><title>Node1&#45;&gt;Node2</title>
<path fill="none" stroke="midnightblue" d="M153.962,-37C162.744,-37 171.627,-37 180.26,-37"/>
<polygon fill="midnightblue" stroke="midnightblue" points="153.718,-33.5001 143.718,-37 153.718,-40.5001 153.718,-33.5001"/>
</g>
<!-- Node3 -->
<g id="node3" class="node"><title>Node3</title>
<g id="a_node3"><a xlink:href="../../d8/da5/classview_1_1_create_design.html#a4552eff83910a3510b98f123945ce0da" target="_top" xlink:title="view.CreateDesign.saveFile">
<polygon fill="white" stroke="black" points="358.5,-49.5 358.5,-68.5 503.5,-68.5 503.5,-49.5 358.5,-49.5"/>
<text text-anchor="middle" x="431" y="-56.5" font-family="Helvetica,sans-Serif" font-size="10.00">view.CreateDesign.saveFile</text>
</a>
</g>
</g>
<!-- Node2&#45;&gt;Node3 -->
<g id="edge2" class="edge"><title>Node2&#45;&gt;Node3</title>
<path fill="none" stroke="midnightblue" d="M331.596,-46.8377C340.529,-47.9417 349.589,-49.0616 358.412,-50.1521"/>
<polygon fill="midnightblue" stroke="midnightblue" points="331.938,-43.3534 321.584,-45.6003 331.079,-50.3006 331.938,-43.3534"/>
</g>
<!-- Node8 -->
<g id="node8" class="node"><title>Node8</title>
<g id="a_node8"><a xlink:href="../../de/d83/classview_1_1_import_design.html#a28c331a446c4c74cfc94149e5ceb0977" target="_top" xlink:title="view.ImportDesign.choose\lDesign">
<polygon fill="white" stroke="black" points="360.5,-0 360.5,-30 501.5,-30 501.5,-0 360.5,-0"/>
<text text-anchor="start" x="368.5" y="-18" font-family="Helvetica,sans-Serif" font-size="10.00">view.ImportDesign.choose</text>
<text text-anchor="middle" x="431" y="-7" font-family="Helvetica,sans-Serif" font-size="10.00">Design</text>
</a>
</g>
</g>
<!-- Node2&#45;&gt;Node8 -->
<g id="edge7" class="edge"><title>Node2&#45;&gt;Node8</title>
<path fill="none" stroke="midnightblue" d="M331.556,-27.1672C341.196,-25.9758 350.985,-24.7659 360.464,-23.5943"/>
<polygon fill="midnightblue" stroke="midnightblue" points="331.079,-23.6994 321.584,-28.3997 331.938,-30.6466 331.079,-23.6994"/>
</g>
<!-- Node4 -->
<g id="node4" class="node"><title>Node4</title>
<g id="a_node4"><a xlink:href="../../d8/da5/classview_1_1_create_design.html#a8871165116e29a90754e135d7d46a245" target="_top" xlink:title="view.CreateDesign.SaveDesign">
<polygon fill="white" stroke="black" points="540,-47.5 540,-66.5 704,-66.5 704,-47.5 540,-47.5"/>
<text text-anchor="middle" x="622" y="-54.5" font-family="Helvetica,sans-Serif" font-size="10.00">view.CreateDesign.SaveDesign</text>
</a>
</g>
</g>
<!-- Node3&#45;&gt;Node4 -->
<g id="edge3" class="edge"><title>Node3&#45;&gt;Node4</title>
<path fill="none" stroke="midnightblue" d="M513.781,-58.1346C522.42,-58.0432 531.205,-57.9502 539.837,-57.8589"/>
<polygon fill="midnightblue" stroke="midnightblue" points="513.685,-54.6353 503.722,-58.241 513.759,-61.6349 513.685,-54.6353"/>
</g>
<!-- Node5 -->
<g id="node5" class="node"><title>Node5</title>
<g id="a_node5"><a xlink:href="../../d3/dbe/classview_1_1_view.html#aef3f2dd859a6a5c719987365a9afb905" target="_top" xlink:title="view.View.start">
<polygon fill="white" stroke="black" points="740,-27.5 740,-46.5 826,-46.5 826,-27.5 740,-27.5"/>
<text text-anchor="middle" x="783" y="-34.5" font-family="Helvetica,sans-Serif" font-size="10.00">view.View.start</text>
</a>
</g>
</g>
<!-- Node4&#45;&gt;Node5 -->
<g id="edge4" class="edge"><title>Node4&#45;&gt;Node5</title>
<path fill="none" stroke="midnightblue" d="M709.005,-46.1818C719.652,-44.8426 730.141,-43.5231 739.704,-42.3202"/>
<polygon fill="midnightblue" stroke="midnightblue" points="708.26,-42.7478 698.775,-47.4686 709.133,-49.6931 708.26,-42.7478"/>
</g>
<!-- Node6 -->
<g id="node6" class="node"><title>Node6</title>
<g id="a_node6"><a xlink:href="../../d4/d9d/classapplication_1_1_wrapper.html#a4be5486a54f6d10d816c3ff49e82ecb9" target="_top" xlink:title="application.Wrapper.make\lNewWindow">
<polygon fill="white" stroke="black" points="862,-22 862,-52 1002,-52 1002,-22 862,-22"/>
<text text-anchor="start" x="870" y="-40" font-family="Helvetica,sans-Serif" font-size="10.00">application.Wrapper.make</text>
<text text-anchor="middle" x="932" y="-29" font-family="Helvetica,sans-Serif" font-size="10.00">NewWindow</text>
</a>
</g>
</g>
<!-- Node5&#45;&gt;Node6 -->
<g id="edge5" class="edge"><title>Node5&#45;&gt;Node6</title>
<path fill="none" stroke="midnightblue" d="M836.379,-37C844.668,-37 853.349,-37 861.949,-37"/>
<polygon fill="midnightblue" stroke="midnightblue" points="836.124,-33.5001 826.124,-37 836.124,-40.5001 836.124,-33.5001"/>
</g>
<!-- Node7 -->
<g id="node7" class="node"><title>Node7</title>
<g id="a_node7"><a xlink:href="../../d9/d96/classapplication_1_1_main.html#a4e5ad4e3de8bbd8654120180a94e870d" target="_top" xlink:title="application.Main.start">
<polygon fill="white" stroke="black" points="1038.5,-27.5 1038.5,-46.5 1157.5,-46.5 1157.5,-27.5 1038.5,-27.5"/>
<text text-anchor="middle" x="1098" y="-34.5" font-family="Helvetica,sans-Serif" font-size="10.00">application.Main.start</text>
</a>
</g>
</g>
<!-- Node6&#45;&gt;Node7 -->
<g id="edge6" class="edge"><title>Node6&#45;&gt;Node7</title>
<path fill="none" stroke="midnightblue" d="M1012.34,-37C1021.11,-37 1029.93,-37 1038.38,-37"/>
<polygon fill="midnightblue" stroke="midnightblue" points="1012.08,-33.5001 1002.08,-37 1012.08,-40.5001 1012.08,-33.5001"/>
</g>
<!-- Node9 -->
<g id="node9" class="node"><title>Node9</title>
<g id="a_node9"><a xlink:href="../../de/d83/classview_1_1_import_design.html#abbb01e02f74d5d3492cdc9befa9acd11" target="_top" xlink:title="view.ImportDesign.openDesign">
<polygon fill="white" stroke="black" points="540,-8.5 540,-27.5 704,-27.5 704,-8.5 540,-8.5"/>
<text text-anchor="middle" x="622" y="-15.5" font-family="Helvetica,sans-Serif" font-size="10.00">view.ImportDesign.openDesign</text>
</a>
</g>
</g>
<!-- Node8&#45;&gt;Node9 -->
<g id="edge8" class="edge"><title>Node8&#45;&gt;Node9</title>
<path fill="none" stroke="midnightblue" d="M511.582,-16.2632C520.895,-16.411 530.407,-16.562 539.743,-16.7102"/>
<polygon fill="midnightblue" stroke="midnightblue" points="511.626,-12.7636 501.571,-16.1043 511.515,-19.7627 511.626,-12.7636"/>
</g>
<!-- Node9&#45;&gt;Node5 -->
<g id="edge9" class="edge"><title>Node9&#45;&gt;Node5</title>
<path fill="none" stroke="midnightblue" d="M713.045,-28.7601C722.285,-29.8643 731.332,-30.9454 739.675,-31.9423"/>
<polygon fill="midnightblue" stroke="midnightblue" points="713.31,-25.267 702.966,-27.5557 712.48,-32.2176 713.31,-25.267"/>
</g>
</g>
</svg>
