<?xml version="1.0" encoding="UTF-8" standalone="no"?>
<!DOCTYPE svg PUBLIC "-//W3C//DTD SVG 1.1//EN"
 "http://www.w3.org/Graphics/SVG/1.1/DTD/svg11.dtd">
<!-- Generated by graphviz version 2.36.0 (20140111.2315)
 -->
<!-- Title: view.ErrorDisplay.display Pages: 1 -->
<svg width="818pt" height="38pt"
 viewBox="0.00 0.00 818.00 38.00" xmlns="http://www.w3.org/2000/svg" xmlns:xlink="http://www.w3.org/1999/xlink">
<g id="graph0" class="graph" transform="scale(1 1) rotate(0) translate(4 34)">
<title>view.ErrorDisplay.display</title>
<polygon fill="white" stroke="none" points="-4,4 -4,-34 814,-34 814,4 -4,4"/>
<!-- Node1 -->
<g id="node1" class="node"><title>Node1</title>
<polygon fill="#bfbfbf" stroke="black" points="0.5,-5.5 0.5,-24.5 131.5,-24.5 131.5,-5.5 0.5,-5.5"/>
<text text-anchor="middle" x="66" y="-12.5" font-family="Helvetica,sans-Serif" font-size="10.00">view.ErrorDisplay.display</text>
</g>
<!-- Node2 -->
<g id="node2" class="node"><title>Node2</title>
<g id="a_node2"><a xlink:href="../../d3/dbe/classview_1_1_view.html#a6b05d2b97544251a998d74941d37038e" target="_top" xlink:title="view.View.displayError">
<polygon fill="white" stroke="black" points="168.5,-5.5 168.5,-24.5 287.5,-24.5 287.5,-5.5 168.5,-5.5"/>
<text text-anchor="middle" x="228" y="-12.5" font-family="Helvetica,sans-Serif" font-size="10.00">view.View.displayError</text>
</a>
</g>
</g>
<!-- Node1&#45;&gt;Node2 -->
<g id="edge1" class="edge"><title>Node1&#45;&gt;Node2</title>
<path fill="none" stroke="midnightblue" d="M141.664,-15C150.617,-15 159.66,-15 168.341,-15"/>
<polygon fill="midnightblue" stroke="midnightblue" points="141.617,-11.5001 131.617,-15 141.617,-18.5001 141.617,-11.5001"/>
</g>
<!-- Node3 -->
<g id="node3" class="node"><title>Node3</title>
<g id="a_node3"><a xlink:href="../../d3/dbe/classview_1_1_view.html#a6c2525fe1f26dc400c48823ce4f0d057" target="_top" xlink:title="view.View.addModelListeners">
<polygon fill="white" stroke="black" points="324.5,-5.5 324.5,-24.5 477.5,-24.5 477.5,-5.5 324.5,-5.5"/>
<text text-anchor="middle" x="401" y="-12.5" font-family="Helvetica,sans-Serif" font-size="10.00">view.View.addModelListeners</text>
</a>
</g>
</g>
<!-- Node2&#45;&gt;Node3 -->
<g id="edge2" class="edge"><title>Node2&#45;&gt;Node3</title>
<path fill="none" stroke="midnightblue" d="M297.949,-15C306.665,-15 315.62,-15 324.433,-15"/>
<polygon fill="midnightblue" stroke="midnightblue" points="297.849,-11.5001 287.848,-15 297.848,-18.5001 297.849,-11.5001"/>
</g>
<!-- Node4 -->
<g id="node4" class="node"><title>Node4</title>
<g id="a_node4"><a xlink:href="../../d4/d9d/classapplication_1_1_wrapper.html#a4be5486a54f6d10d816c3ff49e82ecb9" target="_top" xlink:title="application.Wrapper.make\lNewWindow">
<polygon fill="white" stroke="black" points="514,-0 514,-30 654,-30 654,-0 514,-0"/>
<text text-anchor="start" x="522" y="-18" font-family="Helvetica,sans-Serif" font-size="10.00">application.Wrapper.make</text>
<text text-anchor="middle" x="584" y="-7" font-family="Helvetica,sans-Serif" font-size="10.00">NewWindow</text>
</a>
</g>
</g>
<!-- Node3&#45;&gt;Node4 -->
<g id="edge3" class="edge"><title>Node3&#45;&gt;Node4</title>
<path fill="none" stroke="midnightblue" d="M487.912,-15C496.64,-15 505.426,-15 513.942,-15"/>
<polygon fill="midnightblue" stroke="midnightblue" points="487.712,-11.5001 477.712,-15 487.712,-18.5001 487.712,-11.5001"/>
</g>
<!-- Node5 -->
<g id="node5" class="node"><title>Node5</title>
<g id="a_node5"><a xlink:href="../../d9/d96/classapplication_1_1_main.html#a4e5ad4e3de8bbd8654120180a94e870d" target="_top" xlink:title="application.Main.start">
<polygon fill="white" stroke="black" points="690.5,-5.5 690.5,-24.5 809.5,-24.5 809.5,-5.5 690.5,-5.5"/>
<text text-anchor="middle" x="750" y="-12.5" font-family="Helvetica,sans-Serif" font-size="10.00">application.Main.start</text>
</a>
</g>
</g>
<!-- Node4&#45;&gt;Node5 -->
<g id="edge4" class="edge"><title>Node4&#45;&gt;Node5</title>
<path fill="none" stroke="midnightblue" d="M664.335,-15C673.112,-15 681.929,-15 690.384,-15"/>
<polygon fill="midnightblue" stroke="midnightblue" points="664.075,-11.5001 654.075,-15 664.075,-18.5001 664.075,-11.5001"/>
</g>
</g>
</svg>
