<?xml version="1.0" encoding="UTF-8" standalone="no"?>
<!DOCTYPE svg PUBLIC "-//W3C//DTD SVG 1.1//EN"
 "http://www.w3.org/Graphics/SVG/1.1/DTD/svg11.dtd">
<!-- Generated by graphviz version 2.36.0 (20140111.2315)
 -->
<!-- Title: view.ErrorDisplay.QuitError Pages: 1 -->
<svg width="786pt" height="77pt"
 viewBox="0.00 0.00 786.00 77.00" xmlns="http://www.w3.org/2000/svg" xmlns:xlink="http://www.w3.org/1999/xlink">
<g id="graph0" class="graph" transform="scale(1 1) rotate(0) translate(4 73)">
<title>view.ErrorDisplay.QuitError</title>
<polygon fill="white" stroke="none" points="-4,4 -4,-73 782,-73 782,4 -4,4"/>
<!-- Node1 -->
<g id="node1" class="node"><title>Node1</title>
<polygon fill="#bfbfbf" stroke="black" points="0.5,-22.5 0.5,-41.5 141.5,-41.5 141.5,-22.5 0.5,-22.5"/>
<text text-anchor="middle" x="71" y="-29.5" font-family="Helvetica,sans-Serif" font-size="10.00">view.ErrorDisplay.QuitError</text>
</g>
<!-- Node2 -->
<g id="node2" class="node"><title>Node2</title>
<g id="a_node2"><a xlink:href="../../de/d83/classview_1_1_import_design.html#a28c331a446c4c74cfc94149e5ceb0977" target="_top" xlink:title="view.ImportDesign.choose\lDesign">
<polygon fill="white" stroke="black" points="180.5,-39 180.5,-69 321.5,-69 321.5,-39 180.5,-39"/>
<text text-anchor="start" x="188.5" y="-57" font-family="Helvetica,sans-Serif" font-size="10.00">view.ImportDesign.choose</text>
<text text-anchor="middle" x="251" y="-46" font-family="Helvetica,sans-Serif" font-size="10.00">Design</text>
</a>
</g>
</g>
<!-- Node1&#45;&gt;Node2 -->
<g id="edge1" class="edge"><title>Node1&#45;&gt;Node2</title>
<path fill="none" stroke="midnightblue" d="M151.556,-41.8328C161.196,-43.0242 170.985,-44.2341 180.464,-45.4057"/>
<polygon fill="midnightblue" stroke="midnightblue" points="151.938,-38.3534 141.584,-40.6003 151.079,-45.3006 151.938,-38.3534"/>
</g>
<!-- Node6 -->
<g id="node6" class="node"><title>Node6</title>
<g id="a_node6"><a xlink:href="../../d8/da5/classview_1_1_create_design.html#a4552eff83910a3510b98f123945ce0da" target="_top" xlink:title="view.CreateDesign.saveFile">
<polygon fill="white" stroke="black" points="178.5,-0.5 178.5,-19.5 323.5,-19.5 323.5,-0.5 178.5,-0.5"/>
<text text-anchor="middle" x="251" y="-7.5" font-family="Helvetica,sans-Serif" font-size="10.00">view.CreateDesign.saveFile</text>
</a>
</g>
</g>
<!-- Node1&#45;&gt;Node6 -->
<g id="edge5" class="edge"><title>Node1&#45;&gt;Node6</title>
<path fill="none" stroke="midnightblue" d="M151.596,-22.1623C160.529,-21.0583 169.589,-19.9384 178.412,-18.8479"/>
<polygon fill="midnightblue" stroke="midnightblue" points="151.079,-18.6994 141.584,-23.3997 151.938,-25.6466 151.079,-18.6994"/>
</g>
<!-- Node3 -->
<g id="node3" class="node"><title>Node3</title>
<g id="a_node3"><a xlink:href="../../d3/dbe/classview_1_1_view.html#aef3f2dd859a6a5c719987365a9afb905" target="_top" xlink:title="view.View.start">
<polygon fill="white" stroke="black" points="360,-22.5 360,-41.5 446,-41.5 446,-22.5 360,-22.5"/>
<text text-anchor="middle" x="403" y="-29.5" font-family="Helvetica,sans-Serif" font-size="10.00">view.View.start</text>
</a>
</g>
</g>
<!-- Node2&#45;&gt;Node3 -->
<g id="edge2" class="edge"><title>Node2&#45;&gt;Node3</title>
<path fill="none" stroke="midnightblue" d="M331.805,-42.2952C341.462,-40.8789 351.012,-39.4783 359.811,-38.1877"/>
<polygon fill="midnightblue" stroke="midnightblue" points="331.117,-38.8587 321.73,-43.7729 332.133,-45.7846 331.117,-38.8587"/>
</g>
<!-- Node4 -->
<g id="node4" class="node"><title>Node4</title>
<g id="a_node4"><a xlink:href="../../d4/d9d/classapplication_1_1_wrapper.html#a4be5486a54f6d10d816c3ff49e82ecb9" target="_top" xlink:title="application.Wrapper.make\lNewWindow">
<polygon fill="white" stroke="black" points="482,-17 482,-47 622,-47 622,-17 482,-17"/>
<text text-anchor="start" x="490" y="-35" font-family="Helvetica,sans-Serif" font-size="10.00">application.Wrapper.make</text>
<text text-anchor="middle" x="552" y="-24" font-family="Helvetica,sans-Serif" font-size="10.00">NewWindow</text>
</a>
</g>
</g>
<!-- Node3&#45;&gt;Node4 -->
<g id="edge3" class="edge"><title>Node3&#45;&gt;Node4</title>
<path fill="none" stroke="midnightblue" d="M456.379,-32C464.668,-32 473.349,-32 481.949,-32"/>
<polygon fill="midnightblue" stroke="midnightblue" points="456.124,-28.5001 446.124,-32 456.124,-35.5001 456.124,-28.5001"/>
</g>
<!-- Node5 -->
<g id="node5" class="node"><title>Node5</title>
<g id="a_node5"><a xlink:href="../../d9/d96/classapplication_1_1_main.html#a4e5ad4e3de8bbd8654120180a94e870d" target="_top" xlink:title="application.Main.start">
<polygon fill="white" stroke="black" points="658.5,-22.5 658.5,-41.5 777.5,-41.5 777.5,-22.5 658.5,-22.5"/>
<text text-anchor="middle" x="718" y="-29.5" font-family="Helvetica,sans-Serif" font-size="10.00">application.Main.start</text>
</a>
</g>
</g>
<!-- Node4&#45;&gt;Node5 -->
<g id="edge4" class="edge"><title>Node4&#45;&gt;Node5</title>
<path fill="none" stroke="midnightblue" d="M632.335,-32C641.112,-32 649.929,-32 658.384,-32"/>
<polygon fill="midnightblue" stroke="midnightblue" points="632.075,-28.5001 622.075,-32 632.075,-35.5001 632.075,-28.5001"/>
</g>
<!-- Node6&#45;&gt;Node3 -->
<g id="edge6" class="edge"><title>Node6&#45;&gt;Node3</title>
<path fill="none" stroke="midnightblue" d="M326.875,-20.9817C338.235,-22.6478 349.599,-24.3145 359.924,-25.8288"/>
<polygon fill="midnightblue" stroke="midnightblue" points="327.322,-17.5098 316.92,-19.5216 326.306,-24.4357 327.322,-17.5098"/>
</g>
</g>
</svg>
