<?xml version="1.0" encoding="UTF-8" standalone="no"?>
<!DOCTYPE svg PUBLIC "-//W3C//DTD SVG 1.1//EN"
 "http://www.w3.org/Graphics/SVG/1.1/DTD/svg11.dtd">
<!-- Generated by graphviz version 2.36.0 (20140111.2315)
 -->
<!-- Title: view.ErrorDisplay.QuitError Pages: 1 -->
<svg width="986pt" height="77pt"
 viewBox="0.00 0.00 986.00 77.00" xmlns="http://www.w3.org/2000/svg" xmlns:xlink="http://www.w3.org/1999/xlink">
<g id="graph0" class="graph" transform="scale(1 1) rotate(0) translate(4 73)">
<title>view.ErrorDisplay.QuitError</title>
<polygon fill="white" stroke="none" points="-4,4 -4,-73 982,-73 982,4 -4,4"/>
<!-- Node1 -->
<g id="node1" class="node"><title>Node1</title>
<polygon fill="#bfbfbf" stroke="black" points="0.5,-22.5 0.5,-41.5 141.5,-41.5 141.5,-22.5 0.5,-22.5"/>
<text text-anchor="middle" x="71" y="-29.5" font-family="Helvetica,sans-Serif" font-size="10.00">view.ErrorDisplay.QuitError</text>
</g>
<!-- Node2 -->
<g id="node2" class="node"><title>Node2</title>
<g id="a_node2"><a xlink:href="../../de/d83/classview_1_1_import_design.html#a28c331a446c4c74cfc94149e5ceb0977" target="_top" xlink:title="view.ImportDesign.choose\lDesign">
<polygon fill="white" stroke="black" points="180.5,-39 180.5,-69 321.5,-69 321.5,-39 180.5,-39"/>
<text text-anchor="start" x="188.5" y="-57" font-family="Helvetica,sans-Serif" font-size="10.00">view.ImportDesign.choose</text>
<text text-anchor="middle" x="251" y="-46" font-family="Helvetica,sans-Serif" font-size="10.00">Design</text>
</a>
</g>
</g>
<!-- Node1&#45;&gt;Node2 -->
<g id="edge1" class="edge"><title>Node1&#45;&gt;Node2</title>
<path fill="none" stroke="midnightblue" d="M151.556,-41.8328C161.196,-43.0242 170.985,-44.2341 180.464,-45.4057"/>
<polygon fill="midnightblue" stroke="midnightblue" points="151.938,-38.3534 141.584,-40.6003 151.079,-45.3006 151.938,-38.3534"/>
</g>
<!-- Node7 -->
<g id="node7" class="node"><title>Node7</title>
<g id="a_node7"><a xlink:href="../../d8/da5/classview_1_1_create_design.html#a4552eff83910a3510b98f123945ce0da" target="_top" xlink:title="view.CreateDesign.saveFile">
<polygon fill="white" stroke="black" points="178.5,-0.5 178.5,-19.5 323.5,-19.5 323.5,-0.5 178.5,-0.5"/>
<text text-anchor="middle" x="251" y="-7.5" font-family="Helvetica,sans-Serif" font-size="10.00">view.CreateDesign.saveFile</text>
</a>
</g>
</g>
<!-- Node1&#45;&gt;Node7 -->
<g id="edge6" class="edge"><title>Node1&#45;&gt;Node7</title>
<path fill="none" stroke="midnightblue" d="M151.596,-22.1623C160.529,-21.0583 169.589,-19.9384 178.412,-18.8479"/>
<polygon fill="midnightblue" stroke="midnightblue" points="151.079,-18.6994 141.584,-23.3997 151.938,-25.6466 151.079,-18.6994"/>
</g>
<!-- Node3 -->
<g id="node3" class="node"><title>Node3</title>
<g id="a_node3"><a xlink:href="../../de/d83/classview_1_1_import_design.html#abbb01e02f74d5d3492cdc9befa9acd11" target="_top" xlink:title="view.ImportDesign.openDesign">
<polygon fill="white" stroke="black" points="360,-42.5 360,-61.5 524,-61.5 524,-42.5 360,-42.5"/>
<text text-anchor="middle" x="442" y="-49.5" font-family="Helvetica,sans-Serif" font-size="10.00">view.ImportDesign.openDesign</text>
</a>
</g>
</g>
<!-- Node2&#45;&gt;Node3 -->
<g id="edge2" class="edge"><title>Node2&#45;&gt;Node3</title>
<path fill="none" stroke="midnightblue" d="M331.582,-53.1579C340.895,-53.0593 350.407,-52.9587 359.743,-52.8599"/>
<polygon fill="midnightblue" stroke="midnightblue" points="331.534,-49.6581 321.571,-53.2638 331.608,-56.6577 331.534,-49.6581"/>
</g>
<!-- Node4 -->
<g id="node4" class="node"><title>Node4</title>
<g id="a_node4"><a xlink:href="../../d3/dbe/classview_1_1_view.html#aef3f2dd859a6a5c719987365a9afb905" target="_top" xlink:title="view.View.start">
<polygon fill="white" stroke="black" points="560,-22.5 560,-41.5 646,-41.5 646,-22.5 560,-22.5"/>
<text text-anchor="middle" x="603" y="-29.5" font-family="Helvetica,sans-Serif" font-size="10.00">view.View.start</text>
</a>
</g>
</g>
<!-- Node3&#45;&gt;Node4 -->
<g id="edge3" class="edge"><title>Node3&#45;&gt;Node4</title>
<path fill="none" stroke="midnightblue" d="M529.005,-41.1818C539.652,-39.8426 550.141,-38.5231 559.704,-37.3202"/>
<polygon fill="midnightblue" stroke="midnightblue" points="528.26,-37.7478 518.775,-42.4686 529.133,-44.6931 528.26,-37.7478"/>
</g>
<!-- Node5 -->
<g id="node5" class="node"><title>Node5</title>
<g id="a_node5"><a xlink:href="../../d4/d9d/classapplication_1_1_wrapper.html#a4be5486a54f6d10d816c3ff49e82ecb9" target="_top" xlink:title="application.Wrapper.make\lNewWindow">
<polygon fill="white" stroke="black" points="682,-17 682,-47 822,-47 822,-17 682,-17"/>
<text text-anchor="start" x="690" y="-35" font-family="Helvetica,sans-Serif" font-size="10.00">application.Wrapper.make</text>
<text text-anchor="middle" x="752" y="-24" font-family="Helvetica,sans-Serif" font-size="10.00">NewWindow</text>
</a>
</g>
</g>
<!-- Node4&#45;&gt;Node5 -->
<g id="edge4" class="edge"><title>Node4&#45;&gt;Node5</title>
<path fill="none" stroke="midnightblue" d="M656.379,-32C664.668,-32 673.349,-32 681.949,-32"/>
<polygon fill="midnightblue" stroke="midnightblue" points="656.124,-28.5001 646.124,-32 656.124,-35.5001 656.124,-28.5001"/>
</g>
<!-- Node6 -->
<g id="node6" class="node"><title>Node6</title>
<g id="a_node6"><a xlink:href="../../d9/d96/classapplication_1_1_main.html#a4e5ad4e3de8bbd8654120180a94e870d" target="_top" xlink:title="application.Main.start">
<polygon fill="white" stroke="black" points="858.5,-22.5 858.5,-41.5 977.5,-41.5 977.5,-22.5 858.5,-22.5"/>
<text text-anchor="middle" x="918" y="-29.5" font-family="Helvetica,sans-Serif" font-size="10.00">application.Main.start</text>
</a>
</g>
</g>
<!-- Node5&#45;&gt;Node6 -->
<g id="edge5" class="edge"><title>Node5&#45;&gt;Node6</title>
<path fill="none" stroke="midnightblue" d="M832.335,-32C841.112,-32 849.929,-32 858.384,-32"/>
<polygon fill="midnightblue" stroke="midnightblue" points="832.075,-28.5001 822.075,-32 832.075,-35.5001 832.075,-28.5001"/>
</g>
<!-- Node8 -->
<g id="node8" class="node"><title>Node8</title>
<g id="a_node8"><a xlink:href="../../d8/da5/classview_1_1_create_design.html#a8871165116e29a90754e135d7d46a245" target="_top" xlink:title="view.CreateDesign.SaveDesign">
<polygon fill="white" stroke="black" points="360,-3.5 360,-22.5 524,-22.5 524,-3.5 360,-3.5"/>
<text text-anchor="middle" x="442" y="-10.5" font-family="Helvetica,sans-Serif" font-size="10.00">view.CreateDesign.SaveDesign</text>
</a>
</g>
</g>
<!-- Node7&#45;&gt;Node8 -->
<g id="edge7" class="edge"><title>Node7&#45;&gt;Node8</title>
<path fill="none" stroke="midnightblue" d="M333.781,-11.2981C342.42,-11.4352 351.205,-11.5747 359.837,-11.7117"/>
<polygon fill="midnightblue" stroke="midnightblue" points="333.777,-7.7977 323.722,-11.1384 333.665,-14.7968 333.777,-7.7977"/>
</g>
<!-- Node8&#45;&gt;Node4 -->
<g id="edge8" class="edge"><title>Node8&#45;&gt;Node4</title>
<path fill="none" stroke="midnightblue" d="M533.045,-23.7601C542.285,-24.8643 551.332,-25.9454 559.675,-26.9423"/>
<polygon fill="midnightblue" stroke="midnightblue" points="533.31,-20.267 522.966,-22.5557 532.48,-27.2176 533.31,-20.267"/>
</g>
</g>
</svg>
