<?xml version="1.0" encoding="UTF-8" standalone="no"?>
<!DOCTYPE svg PUBLIC "-//W3C//DTD SVG 1.1//EN"
 "http://www.w3.org/Graphics/SVG/1.1/DTD/svg11.dtd">
<!-- Generated by graphviz version 2.36.0 (20140111.2315)
 -->
<!-- Title: commands.For Pages: 1 -->
<!--zoomable 340 -->
<svg id="main" version="1.1" xmlns="http://www.w3.org/2000/svg" xmlns:xlink="http://www.w3.org/1999/xlink" xml:space="preserve" onload="init(evt)">
<style type="text/css"><![CDATA[
.edge:hover path { stroke: red; }
.edge:hover polygon { stroke: red; fill: red; }
]]></style>
<script type="text/javascript"><![CDATA[
var edges = document.getElementsByTagName('g');
if (edges && edges.length) {
  for (var i=0;i<edges.length;i++) {
    if (edges[i].id.substr(0,4)=='edge') {
      edges[i].setAttribute('class','edge');
    }
  }
}
]]></script>
        <defs>
                <circle id="rim" cx="0" cy="0" r="7"/>
                <circle id="rim2" cx="0" cy="0" r="3.5"/>
                <g id="zoomPlus">
                        <use xlink:href="#rim" fill="#404040">
                                <set attributeName="fill" to="#808080" begin="zoomplus.mouseover" end="zoomplus.mouseout"/>
                        </use>
                        <path d="M-4,0h8M0,-4v8" fill="none" stroke="white" stroke-width="1.5" pointer-events="none"/>
                </g>
                <g id="zoomMin">
                        <use xlink:href="#rim" fill="#404040">
                                <set attributeName="fill" to="#808080" begin="zoomminus.mouseover" end="zoomminus.mouseout"/>
                        </use>
                        <path d="M-4,0h8" fill="none" stroke="white" stroke-width="1.5" pointer-events="none"/>
                </g>
                <g id="dirArrow">
                        <path fill="none" stroke="white" stroke-width="1.5" d="M0,-3.0v7 M-2.5,-0.5L0,-3.0L2.5,-0.5"/>
                </g>
               <g id="resetDef">
                       <use xlink:href="#rim2" fill="#404040">
                               <set attributeName="fill" to="#808080" begin="reset.mouseover" end="reset.mouseout"/>
                       </use>
               </g>
        </defs>

<script type="text/javascript">
var viewWidth = 1224;
var viewHeight = 340;
var sectionId = 'dynsection-1';
</script>
<script xlink:href="../../svgpan.js"/>
<svg id="graph" class="graph">
<g id="viewport">
<title>commands.For</title>
<polygon fill="white" stroke="none" points="-4,4 -4,-336.424 1220,-336.424 1220,4 -4,4"/>
<!-- Node1 -->
<g id="node1" class="node"><title>Node1</title>
<polygon fill="#bfbfbf" stroke="black" points="1126.5,-215.924 1126.5,-234.924 1215.5,-234.924 1215.5,-215.924 1126.5,-215.924"/>
<text text-anchor="middle" x="1171" y="-222.924" font-family="Helvetica,sans-Serif" font-size="10.00">commands.For</text>
</g>
<!-- Node2 -->
<g id="node2" class="node"><title>Node2</title>
<g id="a_node2"><a xlink:href="../../db/d3c/classcommands_1_1_do_times.html" target="_top" xlink:title="commands.DoTimes">
<polygon fill="white" stroke="black" points="972,-215.924 972,-234.924 1088,-234.924 1088,-215.924 972,-215.924"/>
<text text-anchor="middle" x="1030" y="-222.924" font-family="Helvetica,sans-Serif" font-size="10.00">commands.DoTimes</text>
</a>
</g>
</g>
<!-- Node2&#45;&gt;Node1 -->
<g id="edge1" class="edge"><title>Node2&#45;&gt;Node1</title>
<path fill="none" stroke="midnightblue" d="M1098.56,-225.424C1108.02,-225.424 1117.53,-225.424 1126.39,-225.424"/>
<polygon fill="midnightblue" stroke="midnightblue" points="1098.34,-221.924 1088.34,-225.424 1098.34,-228.924 1098.34,-221.924"/>
</g>
<!-- Node3 -->
<g id="node3" class="node"><title>Node3</title>
<g id="a_node3"><a xlink:href="../../d7/d99/classtree_1_1_command_node.html" target="_top" xlink:title="tree.CommandNode">
<polygon fill="white" stroke="black" points="818.5,-215.924 818.5,-234.924 933.5,-234.924 933.5,-215.924 818.5,-215.924"/>
<text text-anchor="middle" x="876" y="-222.924" font-family="Helvetica,sans-Serif" font-size="10.00">tree.CommandNode</text>
</a>
</g>
</g>
<!-- Node3&#45;&gt;Node2 -->
<g id="edge2" class="edge"><title>Node3&#45;&gt;Node2</title>
<path fill="none" stroke="midnightblue" d="M943.685,-225.424C953.074,-225.424 962.657,-225.424 971.847,-225.424"/>
<polygon fill="midnightblue" stroke="midnightblue" points="943.599,-221.924 933.599,-225.424 943.599,-228.924 943.599,-221.924"/>
</g>
<!-- Node4 -->
<g id="node4" class="node"><title>Node4</title>
<g id="a_node4"><a xlink:href="../../da/d49/classtree_1_1_tree_node.html" target="_top" xlink:title="tree.TreeNode">
<polygon fill="white" stroke="black" points="566,-253.924 566,-272.924 650,-272.924 650,-253.924 566,-253.924"/>
<text text-anchor="middle" x="608" y="-260.924" font-family="Helvetica,sans-Serif" font-size="10.00">tree.TreeNode</text>
</a>
</g>
</g>
<!-- Node4&#45;&gt;Node3 -->
<g id="edge3" class="edge"><title>Node4&#45;&gt;Node3</title>
<path fill="none" stroke="midnightblue" d="M660.059,-258.363C698.615,-254.278 752.772,-247.978 800,-240.424 809.834,-238.851 820.343,-236.912 830.288,-234.957"/>
<polygon fill="midnightblue" stroke="midnightblue" points="659.694,-254.882 650.112,-259.404 660.423,-261.844 659.694,-254.882"/>
</g>
<!-- Node5 -->
<g id="node5" class="node"><title>Node5</title>
<polygon fill="white" stroke="#bfbfbf" points="546.5,-215.924 546.5,-234.924 669.5,-234.924 669.5,-215.924 546.5,-215.924"/>
<text text-anchor="middle" x="608" y="-222.924" font-family="Helvetica,sans-Serif" font-size="10.00">List&lt; tree.TreeNode &gt;</text>
</g>
<!-- Node5&#45;&gt;Node3 -->
<g id="edge4" class="edge"><title>Node5&#45;&gt;Node3</title>
<path fill="none" stroke="#9a32cd" stroke-dasharray="5,2" d="M679.872,-225.424C723.161,-225.424 777.775,-225.424 818.207,-225.424"/>
<polygon fill="#9a32cd" stroke="#9a32cd" points="679.692,-221.924 669.692,-225.424 679.692,-228.924 679.692,-221.924"/>
<text text-anchor="middle" x="747" y="-228.424" font-family="Helvetica,sans-Serif" font-size="10.00"> myChildren</text>
</g>
<!-- Node6 -->
<g id="node6" class="node"><title>Node6</title>
<g id="a_node6"><a xlink:href="../../dd/d17/classapplication_1_1_model.html" target="_top" xlink:title="application.Model">
<polygon fill="white" stroke="black" points="558,-147.924 558,-166.924 658,-166.924 658,-147.924 558,-147.924"/>
<text text-anchor="middle" x="608" y="-154.924" font-family="Helvetica,sans-Serif" font-size="10.00">application.Model</text>
</a>
</g>
</g>
<!-- Node6&#45;&gt;Node3 -->
<g id="edge5" class="edge"><title>Node6&#45;&gt;Node3</title>
<path fill="none" stroke="#9a32cd" stroke-dasharray="5,2" d="M656.199,-169.489C707.975,-182.725 790.019,-203.699 837.557,-215.852"/>
<polygon fill="#9a32cd" stroke="#9a32cd" points="656.822,-166.036 646.266,-166.95 655.088,-172.818 656.822,-166.036"/>
<text text-anchor="middle" x="747" y="-208.424" font-family="Helvetica,sans-Serif" font-size="10.00"> myModel</text>
</g>
<!-- Node18 -->
<g id="node18" class="node"><title>Node18</title>
<g id="a_node18"><a xlink:href="../../dc/d9e/classapplication_1_1_parser.html" target="_top" xlink:title="application.Parser">
<polygon fill="white" stroke="black" points="825.5,-90.9237 825.5,-109.924 926.5,-109.924 926.5,-90.9237 825.5,-90.9237"/>
<text text-anchor="middle" x="876" y="-97.9237" font-family="Helvetica,sans-Serif" font-size="10.00">application.Parser</text>
</a>
</g>
</g>
<!-- Node6&#45;&gt;Node18 -->
<g id="edge21" class="edge"><title>Node6&#45;&gt;Node18</title>
<path fill="none" stroke="#9a32cd" stroke-dasharray="5,2" d="M668.543,-155.486C706.714,-153.047 756.99,-147.589 800,-135.424 821.154,-129.44 843.812,-118.107 858.62,-109.956"/>
<polygon fill="#9a32cd" stroke="#9a32cd" points="667.892,-152.018 658.113,-156.097 668.301,-159.006 667.892,-152.018"/>
<text text-anchor="middle" x="747" y="-156.424" font-family="Helvetica,sans-Serif" font-size="10.00"> myModel</text>
</g>
<!-- Node7 -->
<g id="node7" class="node"><title>Node7</title>
<polygon fill="white" stroke="#bfbfbf" points="292,-312.924 292,-331.924 352,-331.924 352,-312.924 292,-312.924"/>
<text text-anchor="middle" x="322" y="-319.924" font-family="Helvetica,sans-Serif" font-size="10.00">Observer</text>
</g>
<!-- Node7&#45;&gt;Node6 -->
<g id="edge6" class="edge"><title>Node7&#45;&gt;Node6</title>
<path fill="none" stroke="midnightblue" d="M362.23,-328.514C406.94,-333.058 479.327,-332.743 522,-292.424 550.384,-265.605 518.834,-239.24 540,-206.424 551.404,-188.743 571.592,-175.291 586.836,-166.996"/>
<polygon fill="midnightblue" stroke="midnightblue" points="362.373,-325.008 352.04,-327.346 361.576,-331.962 362.373,-325.008"/>
</g>
<!-- Node8 -->
<g id="node8" class="node"><title>Node8</title>
<polygon fill="white" stroke="#bfbfbf" points="279,-274.924 279,-293.924 365,-293.924 365,-274.924 279,-274.924"/>
<text text-anchor="middle" x="322" y="-281.924" font-family="Helvetica,sans-Serif" font-size="10.00">StringProperty</text>
</g>
<!-- Node8&#45;&gt;Node6 -->
<g id="edge7" class="edge"><title>Node8&#45;&gt;Node6</title>
<path fill="none" stroke="#9a32cd" stroke-dasharray="5,2" d="M375.125,-283.24C418.284,-279.832 479.243,-269.147 522,-237.424 534.795,-227.931 529.343,-218.267 540,-206.424 554.651,-190.141 575.524,-175.919 590.066,-167.052"/>
<polygon fill="#9a32cd" stroke="#9a32cd" points="374.844,-279.751 365.107,-283.927 375.323,-286.735 374.844,-279.751"/>
<text text-anchor="middle" x="470" y="-280.424" font-family="Helvetica,sans-Serif" font-size="10.00"> errorMsg</text>
</g>
<!-- Node9 -->
<g id="node9" class="node"><title>Node9</title>
<polygon fill="white" stroke="#bfbfbf" points="26.5,-204.924 26.5,-223.924 117.5,-223.924 117.5,-204.924 26.5,-204.924"/>
<text text-anchor="middle" x="72" y="-211.924" font-family="Helvetica,sans-Serif" font-size="10.00">DoubleProperty</text>
</g>
<!-- Node9&#45;&gt;Node6 -->
<g id="edge8" class="edge"><title>Node9&#45;&gt;Node6</title>
<path fill="none" stroke="#9a32cd" stroke-dasharray="5,2" d="M127.738,-215.763C212.963,-216.761 382.115,-214.373 522,-185.424 542.996,-181.079 566.056,-173.282 582.853,-167.017"/>
<polygon fill="#9a32cd" stroke="#9a32cd" points="127.568,-212.261 117.521,-215.622 127.472,-219.26 127.568,-212.261"/>
<text text-anchor="middle" x="322" y="-239.424" font-family="Helvetica,sans-Serif" font-size="10.00"> penSize</text>
<text text-anchor="middle" x="322" y="-228.424" font-family="Helvetica,sans-Serif" font-size="10.00">penColor</text>
<text text-anchor="middle" x="322" y="-217.424" font-family="Helvetica,sans-Serif" font-size="10.00">background</text>
</g>
<!-- Node11 -->
<g id="node11" class="node"><title>Node11</title>
<g id="a_node11"><a xlink:href="../../d1/deb/classapplication_1_1_turtle_list.html" target="_top" xlink:title="application.TurtleList">
<polygon fill="white" stroke="black" points="265.5,-167.924 265.5,-186.924 378.5,-186.924 378.5,-167.924 265.5,-167.924"/>
<text text-anchor="middle" x="322" y="-174.924" font-family="Helvetica,sans-Serif" font-size="10.00">application.TurtleList</text>
</a>
</g>
</g>
<!-- Node9&#45;&gt;Node11 -->
<g id="edge11" class="edge"><title>Node9&#45;&gt;Node11</title>
<path fill="none" stroke="#9a32cd" stroke-dasharray="5,2" d="M127.909,-204.139C139.169,-202.146 150.955,-200.145 162,-198.424 196.252,-193.086 234.795,-187.973 265.353,-184.129"/>
<polygon fill="#9a32cd" stroke="#9a32cd" points="126.978,-200.75 117.752,-205.958 128.212,-207.64 126.978,-200.75"/>
<text text-anchor="middle" x="194" y="-201.424" font-family="Helvetica,sans-Serif" font-size="10.00"> newID</text>
</g>
<!-- Node10 -->
<g id="node10" class="node"><title>Node10</title>
<polygon fill="white" stroke="#bfbfbf" points="244.5,-118.424 244.5,-148.424 399.5,-148.424 399.5,-118.424 244.5,-118.424"/>
<text text-anchor="start" x="252.5" y="-136.424" font-family="Helvetica,sans-Serif" font-size="10.00">Map&lt; String, tree.Command</text>
<text text-anchor="middle" x="322" y="-125.424" font-family="Helvetica,sans-Serif" font-size="10.00">Node &gt;</text>
</g>
<!-- Node10&#45;&gt;Node6 -->
<g id="edge9" class="edge"><title>Node10&#45;&gt;Node6</title>
<path fill="none" stroke="#9a32cd" stroke-dasharray="5,2" d="M409.971,-131.946C444.902,-132.305 485.474,-133.926 522,-138.424 538.509,-140.456 556.524,-144.25 571.703,-147.916"/>
<polygon fill="#9a32cd" stroke="#9a32cd" points="409.825,-128.445 399.8,-131.875 409.776,-135.445 409.825,-128.445"/>
<text text-anchor="middle" x="470" y="-152.424" font-family="Helvetica,sans-Serif" font-size="10.00"> myCommandHistory</text>
<text text-anchor="middle" x="470" y="-141.424" font-family="Helvetica,sans-Serif" font-size="10.00">myUserCommands</text>
</g>
<!-- Node11&#45;&gt;Node6 -->
<g id="edge10" class="edge"><title>Node11&#45;&gt;Node6</title>
<path fill="none" stroke="#9a32cd" stroke-dasharray="5,2" d="M388.834,-172.787C440.488,-169.15 511.24,-164.167 557.991,-160.875"/>
<polygon fill="#9a32cd" stroke="#9a32cd" points="388.5,-169.302 378.77,-173.496 388.992,-176.285 388.5,-169.302"/>
<text text-anchor="middle" x="470" y="-173.424" font-family="Helvetica,sans-Serif" font-size="10.00"> myTurtleList</text>
</g>
<!-- Node12 -->
<g id="node12" class="node"><title>Node12</title>
<polygon fill="white" stroke="#bfbfbf" points="6.5,-109.424 6.5,-139.424 137.5,-139.424 137.5,-109.424 6.5,-109.424"/>
<text text-anchor="start" x="14.5" y="-127.424" font-family="Helvetica,sans-Serif" font-size="10.00">Map&lt; application.Turtle,</text>
<text text-anchor="middle" x="72" y="-116.424" font-family="Helvetica,sans-Serif" font-size="10.00"> Double &gt;</text>
</g>
<!-- Node12&#45;&gt;Node11 -->
<g id="edge12" class="edge"><title>Node12&#45;&gt;Node11</title>
<path fill="none" stroke="#9a32cd" stroke-dasharray="5,2" d="M147.908,-131.488C173.108,-135.093 201.129,-140.467 226,-148.424 234.519,-151.149 235.626,-154.282 244,-157.424 254.733,-161.45 266.601,-164.968 277.739,-167.884"/>
<polygon fill="#9a32cd" stroke="#9a32cd" points="148.048,-127.975 137.667,-130.096 147.105,-134.911 148.048,-127.975"/>
<text text-anchor="middle" x="194" y="-151.424" font-family="Helvetica,sans-Serif" font-size="10.00"> IDMap</text>
</g>
<!-- Node13 -->
<g id="node13" class="node"><title>Node13</title>
<polygon fill="white" stroke="#bfbfbf" points="0.5,-60.4237 0.5,-90.4237 143.5,-90.4237 143.5,-60.4237 0.5,-60.4237"/>
<text text-anchor="start" x="8.5" y="-78.4237" font-family="Helvetica,sans-Serif" font-size="10.00">Map&lt; Double, application.</text>
<text text-anchor="middle" x="72" y="-67.4237" font-family="Helvetica,sans-Serif" font-size="10.00">Turtle &gt;</text>
</g>
<!-- Node13&#45;&gt;Node11 -->
<g id="edge13" class="edge"><title>Node13&#45;&gt;Node11</title>
<path fill="none" stroke="#9a32cd" stroke-dasharray="5,2" d="M153.713,-85.325C179.082,-91.7131 205.731,-102.204 226,-119.424 240.242,-131.523 229.602,-145.51 244,-157.424 250.172,-162.531 257.499,-166.35 265.142,-169.203"/>
<polygon fill="#9a32cd" stroke="#9a32cd" points="154.23,-81.8517 143.697,-82.9919 152.642,-88.6692 154.23,-81.8517"/>
<text text-anchor="middle" x="194" y="-122.424" font-family="Helvetica,sans-Serif" font-size="10.00"> TurtleMap</text>
</g>
<!-- Node14 -->
<g id="node14" class="node"><title>Node14</title>
<polygon fill="white" stroke="#bfbfbf" points="4,-158.924 4,-177.924 140,-177.924 140,-158.924 4,-158.924"/>
<text text-anchor="middle" x="72" y="-165.924" font-family="Helvetica,sans-Serif" font-size="10.00">List&lt; application.Turtle &gt;</text>
</g>
<!-- Node14&#45;&gt;Node11 -->
<g id="edge14" class="edge"><title>Node14&#45;&gt;Node11</title>
<path fill="none" stroke="#9a32cd" stroke-dasharray="5,2" d="M150.102,-164.745C154.125,-164.62 158.11,-164.511 162,-164.424 190.437,-163.785 197.621,-162.491 226,-164.424 238.788,-165.295 252.478,-166.818 265.371,-168.522"/>
<polygon fill="#9a32cd" stroke="#9a32cd" points="149.928,-161.249 140.053,-165.087 150.166,-168.245 149.928,-161.249"/>
<text text-anchor="middle" x="194" y="-167.424" font-family="Helvetica,sans-Serif" font-size="10.00"> myActiveList</text>
</g>
<!-- Node15 -->
<g id="node15" class="node"><title>Node15</title>
<polygon fill="white" stroke="#bfbfbf" points="274,-79.9237 274,-98.9237 370,-98.9237 370,-79.9237 274,-79.9237"/>
<text text-anchor="middle" x="322" y="-86.9237" font-family="Helvetica,sans-Serif" font-size="10.00">BooleanProperty</text>
</g>
<!-- Node15&#45;&gt;Node6 -->
<g id="edge15" class="edge"><title>Node15&#45;&gt;Node6</title>
<path fill="none" stroke="#9a32cd" stroke-dasharray="5,2" d="M380.248,-87.5309C420.762,-87.8099 475.868,-91.5029 522,-106.424 550.491,-115.639 579.52,-135.888 595.193,-147.914"/>
<polygon fill="#9a32cd" stroke="#9a32cd" points="380.015,-84.0309 370.015,-87.5304 380.015,-91.0309 380.015,-84.0309"/>
<text text-anchor="middle" x="470" y="-120.424" font-family="Helvetica,sans-Serif" font-size="10.00"> clearStamp</text>
<text text-anchor="middle" x="470" y="-109.424" font-family="Helvetica,sans-Serif" font-size="10.00">clearScreen</text>
</g>
<!-- Node16 -->
<g id="node16" class="node"><title>Node16</title>
<polygon fill="white" stroke="#bfbfbf" points="248.5,-41.9237 248.5,-60.9237 395.5,-60.9237 395.5,-41.9237 248.5,-41.9237"/>
<text text-anchor="middle" x="322" y="-48.9237" font-family="Helvetica,sans-Serif" font-size="10.00">ObjectProperty&lt; double[]&gt;</text>
</g>
<!-- Node16&#45;&gt;Node6 -->
<g id="edge16" class="edge"><title>Node16&#45;&gt;Node6</title>
<path fill="none" stroke="#9a32cd" stroke-dasharray="5,2" d="M405.61,-45.3899C443.598,-46.3506 487.724,-53.0649 522,-74.4237 534.556,-82.2477 530.163,-91.3738 540,-102.424 556.111,-120.521 578.457,-137.609 592.824,-147.799"/>
<polygon fill="#9a32cd" stroke="#9a32cd" points="405.628,-41.89 395.585,-45.2639 405.54,-48.8894 405.628,-41.89"/>
<text text-anchor="middle" x="470" y="-77.4237" font-family="Helvetica,sans-Serif" font-size="10.00"> pallet</text>
</g>
<!-- Node17 -->
<g id="node17" class="node"><title>Node17</title>
<polygon fill="white" stroke="#bfbfbf" points="258,-3.92366 258,-22.9237 386,-22.9237 386,-3.92366 258,-3.92366"/>
<text text-anchor="middle" x="322" y="-10.9237" font-family="Helvetica,sans-Serif" font-size="10.00">Map&lt; String, Double &gt;</text>
</g>
<!-- Node17&#45;&gt;Node6 -->
<g id="edge17" class="edge"><title>Node17&#45;&gt;Node6</title>
<path fill="none" stroke="#9a32cd" stroke-dasharray="5,2" d="M378.126,-2.58554C422.177,2.71367 482.828,1.99836 522,-31.4237 546.765,-52.5533 522.546,-74.9442 540,-102.424 552.587,-122.241 574.713,-138.329 590.079,-147.875"/>
<polygon fill="#9a32cd" stroke="#9a32cd" points="377.599,0.875246 368.152,-3.92075 378.528,-6.06286 377.599,0.875246"/>
<text text-anchor="middle" x="470" y="-34.4237" font-family="Helvetica,sans-Serif" font-size="10.00"> variableMap</text>
</g>
<!-- Node18&#45;&gt;Node6 -->
<g id="edge18" class="edge"><title>Node18&#45;&gt;Node6</title>
<path fill="none" stroke="#9a32cd" stroke-dasharray="5,2" d="M815.005,-104.763C779.431,-108.227 733.684,-114.245 694,-124.424 671.306,-130.244 646.443,-140.364 629.503,-147.867"/>
<polygon fill="#9a32cd" stroke="#9a32cd" points="815.595,-108.223 825.227,-103.81 814.945,-101.253 815.595,-108.223"/>
<text text-anchor="middle" x="747" y="-127.424" font-family="Helvetica,sans-Serif" font-size="10.00"> myParser</text>
</g>
<!-- Node19 -->
<g id="node19" class="node"><title>Node19</title>
<polygon fill="white" stroke="#bfbfbf" points="540.5,-63.4237 540.5,-93.4237 675.5,-93.4237 675.5,-63.4237 540.5,-63.4237"/>
<text text-anchor="start" x="548.5" y="-81.4237" font-family="Helvetica,sans-Serif" font-size="10.00">List&lt; Map.Entry&lt; String,</text>
<text text-anchor="middle" x="608" y="-70.4237" font-family="Helvetica,sans-Serif" font-size="10.00"> Pattern &gt; &gt;</text>
</g>
<!-- Node19&#45;&gt;Node18 -->
<g id="edge19" class="edge"><title>Node19&#45;&gt;Node18</title>
<path fill="none" stroke="#9a32cd" stroke-dasharray="5,2" d="M685.762,-74.162C720.762,-73.4129 762.638,-74.192 800,-79.4237 816.069,-81.6738 833.553,-86.4287 847.594,-90.8457"/>
<polygon fill="#9a32cd" stroke="#9a32cd" points="685.515,-70.6672 675.609,-74.4257 685.697,-77.6648 685.515,-70.6672"/>
<text text-anchor="middle" x="747" y="-93.4237" font-family="Helvetica,sans-Serif" font-size="10.00"> mySyntaxPatterns</text>
<text text-anchor="middle" x="747" y="-82.4237" font-family="Helvetica,sans-Serif" font-size="10.00">myCommandPatterns</text>
</g>
<!-- Node20 -->
<g id="node20" class="node"><title>Node20</title>
<g id="a_node20"><a xlink:href="../../d5/d4b/classtree_1_1_tree_builder.html" target="_top" xlink:title="tree.TreeBuilder">
<polygon fill="white" stroke="black" points="562,-24.9237 562,-43.9237 654,-43.9237 654,-24.9237 562,-24.9237"/>
<text text-anchor="middle" x="608" y="-31.9237" font-family="Helvetica,sans-Serif" font-size="10.00">tree.TreeBuilder</text>
</a>
</g>
</g>
<!-- Node20&#45;&gt;Node18 -->
<g id="edge20" class="edge"><title>Node20&#45;&gt;Node18</title>
<path fill="none" stroke="#9a32cd" stroke-dasharray="5,2" d="M664.082,-36.2561C702.892,-38.8336 755.636,-44.9572 800,-59.4237 822.855,-66.8765 846.818,-81.3154 861.335,-90.9141"/>
<polygon fill="#9a32cd" stroke="#9a32cd" points="664.221,-32.7581 654.027,-35.6466 663.797,-39.7453 664.221,-32.7581"/>
<text text-anchor="middle" x="747" y="-62.4237" font-family="Helvetica,sans-Serif" font-size="10.00"> myTreeBuilder</text>
</g>
</g>
</svg>
        <g id="navigator" transform="translate(0 0)" fill="#404254">
                <rect fill="#f2f5e9" fill-opacity="0.5" stroke="#606060" stroke-width=".5" x="0" y="0" width="60" height="60"/>
                <use id="zoomplus" xlink:href="#zoomPlus" x="17" y="9" onmousedown="handleZoom(evt,'in')"/>
                <use id="zoomminus" xlink:href="#zoomMin" x="42" y="9" onmousedown="handleZoom(evt,'out')"/>
                <use id="reset" xlink:href="#resetDef" x="30" y="36" onmousedown="handleReset()"/>
                <g id="arrowUp" xlink:href="#dirArrow" transform="translate(30 24)" onmousedown="handlePan(0,-1)">
                  <use xlink:href="#rim" fill="#404040">
                        <set attributeName="fill" to="#808080" begin="arrowUp.mouseover" end="arrowUp.mouseout"/>
                  </use>
                  <path fill="none" stroke="white" stroke-width="1.5" d="M0,-3.0v7 M-2.5,-0.5L0,-3.0L2.5,-0.5"/>
                </g>
                <g id="arrowRight" xlink:href="#dirArrow" transform="rotate(90) translate(36 -43)" onmousedown="handlePan(1,0)">
                  <use xlink:href="#rim" fill="#404040">
                        <set attributeName="fill" to="#808080" begin="arrowRight.mouseover" end="arrowRight.mouseout"/>
                  </use>
                  <path fill="none" stroke="white" stroke-width="1.5" d="M0,-3.0v7 M-2.5,-0.5L0,-3.0L2.5,-0.5"/>
                </g>
                <g id="arrowDown" xlink:href="#dirArrow" transform="rotate(180) translate(-30 -48)" onmousedown="handlePan(0,1)">
                  <use xlink:href="#rim" fill="#404040">
                        <set attributeName="fill" to="#808080" begin="arrowDown.mouseover" end="arrowDown.mouseout"/>
                  </use>
                  <path fill="none" stroke="white" stroke-width="1.5" d="M0,-3.0v7 M-2.5,-0.5L0,-3.0L2.5,-0.5"/>
                </g>
                <g id="arrowLeft" xlink:href="#dirArrow" transform="rotate(270) translate(-36 17)" onmousedown="handlePan(-1,0)">
                  <use xlink:href="#rim" fill="#404040">
                        <set attributeName="fill" to="#808080" begin="arrowLeft.mouseover" end="arrowLeft.mouseout"/>
                  </use>
                  <path fill="none" stroke="white" stroke-width="1.5" d="M0,-3.0v7 M-2.5,-0.5L0,-3.0L2.5,-0.5"/>
                </g>
        </g>
        <svg viewBox="0 0 15 15" width="100%" height="30px" preserveAspectRatio="xMaxYMin meet">
         <g id="arrow_out" transform="scale(0.3 0.3)">
          <a xlink:href="classcommands_1_1_for__coll__graph_org.svg" target="_base">
           <rect id="button" ry="5" rx="5" y="6" x="6" height="38" width="38"
                fill="#f2f5e9" fill-opacity="0.5" stroke="#606060" stroke-width="1.0"/>
           <path id="arrow"
             d="M 11.500037,31.436501 C 11.940474,20.09759 22.043105,11.32322 32.158766,21.979434 L 37.068811,17.246167 C 37.068811,17.246167 37.088388,32 37.088388,32 L 22.160133,31.978069 C 22.160133,31.978069 26.997745,27.140456 26.997745,27.140456 C 18.528582,18.264221 13.291696,25.230495 11.500037,31.436501 z"
             style="fill:#404040;"/>
          </a>
         </g>
        </svg>
</svg>
