<?xml version="1.0" encoding="UTF-8" standalone="no"?>
<!DOCTYPE svg PUBLIC "-//W3C//DTD SVG 1.1//EN"
 "http://www.w3.org/Graphics/SVG/1.1/DTD/svg11.dtd">
<!-- Generated by graphviz version 2.36.0 (20140111.2315)
 -->
<!-- Title: view.ImageChooser Pages: 1 -->
<!--zoomable 305 -->
<svg id="main" version="1.1" xmlns="http://www.w3.org/2000/svg" xmlns:xlink="http://www.w3.org/1999/xlink" xml:space="preserve" onload="init(evt)">
<style type="text/css"><![CDATA[
.edge:hover path { stroke: red; }
.edge:hover polygon { stroke: red; fill: red; }
]]></style>
<script type="text/javascript"><![CDATA[
var edges = document.getElementsByTagName('g');
if (edges && edges.length) {
  for (var i=0;i<edges.length;i++) {
    if (edges[i].id.substr(0,4)=='edge') {
      edges[i].setAttribute('class','edge');
    }
  }
}
]]></script>
        <defs>
                <circle id="rim" cx="0" cy="0" r="7"/>
                <circle id="rim2" cx="0" cy="0" r="3.5"/>
                <g id="zoomPlus">
                        <use xlink:href="#rim" fill="#404040">
                                <set attributeName="fill" to="#808080" begin="zoomplus.mouseover" end="zoomplus.mouseout"/>
                        </use>
                        <path d="M-4,0h8M0,-4v8" fill="none" stroke="white" stroke-width="1.5" pointer-events="none"/>
                </g>
                <g id="zoomMin">
                        <use xlink:href="#rim" fill="#404040">
                                <set attributeName="fill" to="#808080" begin="zoomminus.mouseover" end="zoomminus.mouseout"/>
                        </use>
                        <path d="M-4,0h8" fill="none" stroke="white" stroke-width="1.5" pointer-events="none"/>
                </g>
                <g id="dirArrow">
                        <path fill="none" stroke="white" stroke-width="1.5" d="M0,-3.0v7 M-2.5,-0.5L0,-3.0L2.5,-0.5"/>
                </g>
               <g id="resetDef">
                       <use xlink:href="#rim2" fill="#404040">
                               <set attributeName="fill" to="#808080" begin="reset.mouseover" end="reset.mouseout"/>
                       </use>
               </g>
        </defs>

<script type="text/javascript">
var viewWidth = 728;
var viewHeight = 305;
var sectionId = 'dynsection-0';
</script>
<script xlink:href="../../svgpan.js"/>
<svg id="graph" class="graph">
<g id="viewport">
<title>view.ImageChooser</title>
<polygon fill="white" stroke="none" points="-4,4 -4,-301 724,-301 724,4 -4,4"/>
<!-- Node1 -->
<g id="node1" class="node"><title>Node1</title>
<polygon fill="#bfbfbf" stroke="black" points="610.5,-78.5 610.5,-97.5 719.5,-97.5 719.5,-78.5 610.5,-78.5"/>
<text text-anchor="middle" x="665" y="-85.5" font-family="Helvetica,sans-Serif" font-size="10.00">view.ImageChooser</text>
</g>
<!-- Node2 -->
<g id="node2" class="node"><title>Node2</title>
<g id="a_node2"><a xlink:href="../../d1/d1a/classview_1_1_display.html" target="_top" xlink:title="view.Display">
<polygon fill="white" stroke="black" points="458,-98.5 458,-117.5 532,-117.5 532,-98.5 458,-98.5"/>
<text text-anchor="middle" x="495" y="-105.5" font-family="Helvetica,sans-Serif" font-size="10.00">view.Display</text>
</a>
</g>
</g>
<!-- Node2&#45;&gt;Node1 -->
<g id="edge1" class="edge"><title>Node2&#45;&gt;Node1</title>
<path fill="none" stroke="#9a32cd" stroke-dasharray="5,2" d="M542.071,-102.515C563.233,-99.996 588.461,-96.9927 610.464,-94.3733"/>
<polygon fill="#9a32cd" stroke="#9a32cd" points="541.556,-99.0518 532.04,-103.709 542.384,-106.003 541.556,-99.0518"/>
<text text-anchor="middle" x="571" y="-105" font-family="Helvetica,sans-Serif" font-size="10.00"> display</text>
</g>
<!-- Node3 -->
<g id="node3" class="node"><title>Node3</title>
<g id="a_node3"><a xlink:href="../../d1/d31/classapplication_1_1_turtle.html" target="_top" xlink:title="application.Turtle">
<polygon fill="white" stroke="black" points="247.5,-202.5 247.5,-221.5 344.5,-221.5 344.5,-202.5 247.5,-202.5"/>
<text text-anchor="middle" x="296" y="-209.5" font-family="Helvetica,sans-Serif" font-size="10.00">application.Turtle</text>
</a>
</g>
</g>
<!-- Node3&#45;&gt;Node2 -->
<g id="edge2" class="edge"><title>Node3&#45;&gt;Node2</title>
<path fill="none" stroke="#9a32cd" stroke-dasharray="5,2" d="M354.455,-202.92C381.909,-196.702 414.301,-186.49 440,-170 461.384,-156.278 479.138,-131.664 487.971,-117.938"/>
<polygon fill="#9a32cd" stroke="#9a32cd" points="353.63,-199.517 344.585,-205.034 355.096,-206.362 353.63,-199.517"/>
<text text-anchor="middle" x="410" y="-200" font-family="Helvetica,sans-Serif" font-size="10.00"> myTurtle</text>
</g>
<!-- Node4 -->
<g id="node4" class="node"><title>Node4</title>
<polygon fill="white" stroke="#bfbfbf" points="28.5,-277.5 28.5,-296.5 119.5,-296.5 119.5,-277.5 28.5,-277.5"/>
<text text-anchor="middle" x="74" y="-284.5" font-family="Helvetica,sans-Serif" font-size="10.00">DoubleProperty</text>
</g>
<!-- Node4&#45;&gt;Node3 -->
<g id="edge3" class="edge"><title>Node4&#45;&gt;Node3</title>
<path fill="none" stroke="#9a32cd" stroke-dasharray="5,2" d="M129.468,-281.072C155.082,-277.181 185.701,-270.912 212,-261 238.462,-251.027 266.158,-232.867 281.926,-221.675"/>
<polygon fill="#9a32cd" stroke="#9a32cd" points="128.953,-277.61 119.554,-282.499 129.951,-284.539 128.953,-277.61"/>
<text text-anchor="middle" x="189" y="-288" font-family="Helvetica,sans-Serif" font-size="10.00"> heading</text>
<text text-anchor="middle" x="189" y="-277" font-family="Helvetica,sans-Serif" font-size="10.00">shape</text>
</g>
<!-- Node5 -->
<g id="node5" class="node"><title>Node5</title>
<polygon fill="white" stroke="#bfbfbf" points="26,-223.5 26,-242.5 122,-242.5 122,-223.5 26,-223.5"/>
<text text-anchor="middle" x="74" y="-230.5" font-family="Helvetica,sans-Serif" font-size="10.00">BooleanProperty</text>
</g>
<!-- Node5&#45;&gt;Node3 -->
<g id="edge4" class="edge"><title>Node5&#45;&gt;Node3</title>
<path fill="none" stroke="#9a32cd" stroke-dasharray="5,2" d="M132.455,-227.516C168.117,-224.112 213.412,-219.788 247.123,-216.57"/>
<polygon fill="#9a32cd" stroke="#9a32cd" points="131.818,-224.06 122.196,-228.495 132.483,-231.029 131.818,-224.06"/>
<text text-anchor="middle" x="189" y="-249" font-family="Helvetica,sans-Serif" font-size="10.00"> showing</text>
<text text-anchor="middle" x="189" y="-238" font-family="Helvetica,sans-Serif" font-size="10.00">penDown</text>
<text text-anchor="middle" x="189" y="-227" font-family="Helvetica,sans-Serif" font-size="10.00">stamp</text>
</g>
<!-- Node6 -->
<g id="node6" class="node"><title>Node6</title>
<polygon fill="white" stroke="#bfbfbf" points="0.5,-185.5 0.5,-204.5 147.5,-204.5 147.5,-185.5 0.5,-185.5"/>
<text text-anchor="middle" x="74" y="-192.5" font-family="Helvetica,sans-Serif" font-size="10.00">ObjectProperty&lt; double[]&gt;</text>
</g>
<!-- Node6&#45;&gt;Node3 -->
<g id="edge5" class="edge"><title>Node6&#45;&gt;Node3</title>
<path fill="none" stroke="#9a32cd" stroke-dasharray="5,2" d="M157.769,-194.876C175.68,-195.39 194.496,-196.341 212,-198 223.493,-199.089 235.797,-200.84 247.316,-202.739"/>
<polygon fill="#9a32cd" stroke="#9a32cd" points="157.719,-191.374 147.636,-194.628 157.548,-198.372 157.719,-191.374"/>
<text text-anchor="middle" x="189" y="-201" font-family="Helvetica,sans-Serif" font-size="10.00"> location</text>
</g>
<!-- Node7 -->
<g id="node7" class="node"><title>Node7</title>
<polygon fill="white" stroke="#bfbfbf" points="6,-147.5 6,-166.5 142,-166.5 142,-147.5 6,-147.5"/>
<text text-anchor="middle" x="74" y="-154.5" font-family="Helvetica,sans-Serif" font-size="10.00">ObjectProperty&lt; Node &gt;</text>
</g>
<!-- Node7&#45;&gt;Node3 -->
<g id="edge6" class="edge"><title>Node7&#45;&gt;Node3</title>
<path fill="none" stroke="#9a32cd" stroke-dasharray="5,2" d="M152.044,-164.758C172.028,-168.308 193.206,-173.478 212,-181 220.926,-184.573 221.285,-188.938 230,-193 237.886,-196.676 246.643,-199.814 255.11,-202.418"/>
<polygon fill="#9a32cd" stroke="#9a32cd" points="152.474,-161.281 142.035,-163.093 151.325,-168.186 152.474,-161.281"/>
<text text-anchor="middle" x="189" y="-184" font-family="Helvetica,sans-Serif" font-size="10.00"> node</text>
</g>
<!-- Node8 -->
<g id="node8" class="node"><title>Node8</title>
<polygon fill="white" stroke="#bfbfbf" points="262,-164.5 262,-183.5 330,-183.5 330,-164.5 262,-164.5"/>
<text text-anchor="middle" x="296" y="-171.5" font-family="Helvetica,sans-Serif" font-size="10.00">ImageView</text>
</g>
<!-- Node8&#45;&gt;Node2 -->
<g id="edge7" class="edge"><title>Node8&#45;&gt;Node2</title>
<path fill="none" stroke="#9a32cd" stroke-dasharray="5,2" d="M339.781,-165.21C368.608,-158.665 407.21,-148.682 440,-136 453.198,-130.895 467.375,-123.463 477.889,-117.538"/>
<polygon fill="#9a32cd" stroke="#9a32cd" points="339.019,-161.794 330.017,-167.381 340.538,-168.627 339.019,-161.794"/>
<text text-anchor="middle" x="410" y="-158" font-family="Helvetica,sans-Serif" font-size="10.00"> turtleImage</text>
</g>
<!-- Node9 -->
<g id="node9" class="node"><title>Node9</title>
<polygon fill="white" stroke="#bfbfbf" points="230.5,-115 230.5,-145 361.5,-145 361.5,-115 230.5,-115"/>
<text text-anchor="start" x="238.5" y="-133" font-family="Helvetica,sans-Serif" font-size="10.00">Map&lt; application.Turtle,</text>
<text text-anchor="middle" x="296" y="-122" font-family="Helvetica,sans-Serif" font-size="10.00"> ImageView &gt;</text>
</g>
<!-- Node9&#45;&gt;Node2 -->
<g id="edge8" class="edge"><title>Node9&#45;&gt;Node2</title>
<path fill="none" stroke="#9a32cd" stroke-dasharray="5,2" d="M371.787,-121.648C401.265,-118.356 433.754,-114.728 457.821,-112.04"/>
<polygon fill="#9a32cd" stroke="#9a32cd" points="371.055,-118.208 361.505,-122.796 371.832,-125.165 371.055,-118.208"/>
<text text-anchor="middle" x="410" y="-124" font-family="Helvetica,sans-Serif" font-size="10.00"> imageMap</text>
</g>
<!-- Node10 -->
<g id="node10" class="node"><title>Node10</title>
<polygon fill="white" stroke="#bfbfbf" points="264.5,-76.5 264.5,-95.5 327.5,-95.5 327.5,-76.5 264.5,-76.5"/>
<text text-anchor="middle" x="296" y="-83.5" font-family="Helvetica,sans-Serif" font-size="10.00">Rectangle</text>
</g>
<!-- Node10&#45;&gt;Node2 -->
<g id="edge9" class="edge"><title>Node10&#45;&gt;Node2</title>
<path fill="none" stroke="#9a32cd" stroke-dasharray="5,2" d="M337.779,-89.4519C366.42,-92.0084 405.601,-95.7707 440,-100 445.738,-100.705 451.807,-101.529 457.725,-102.374"/>
<polygon fill="#9a32cd" stroke="#9a32cd" points="338.002,-85.958 327.733,-88.566 337.387,-92.931 338.002,-85.958"/>
<text text-anchor="middle" x="410" y="-103" font-family="Helvetica,sans-Serif" font-size="10.00"> initial</text>
</g>
<!-- Node11 -->
<g id="node11" class="node"><title>Node11</title>
<polygon fill="white" stroke="#bfbfbf" points="273,-38.5 273,-57.5 319,-57.5 319,-38.5 273,-38.5"/>
<text text-anchor="middle" x="296" y="-45.5" font-family="Helvetica,sans-Serif" font-size="10.00">Group</text>
</g>
<!-- Node11&#45;&gt;Node2 -->
<g id="edge10" class="edge"><title>Node11&#45;&gt;Node2</title>
<path fill="none" stroke="#9a32cd" stroke-dasharray="5,2" d="M329.534,-52.267C359.034,-56.7829 403.372,-65.2012 440,-79 448.564,-82.2264 449.953,-84.6417 458,-89 463.717,-92.0963 469.974,-95.421 475.645,-98.41"/>
<polygon fill="#9a32cd" stroke="#9a32cd" points="329.781,-48.7658 319.379,-50.777 328.765,-55.6917 329.781,-48.7658"/>
<text text-anchor="middle" x="410" y="-82" font-family="Helvetica,sans-Serif" font-size="10.00"> root</text>
</g>
<!-- Node12 -->
<g id="node12" class="node"><title>Node12</title>
<polygon fill="white" stroke="#bfbfbf" points="275.5,-0.5 275.5,-19.5 316.5,-19.5 316.5,-0.5 275.5,-0.5"/>
<text text-anchor="middle" x="296" y="-7.5" font-family="Helvetica,sans-Serif" font-size="10.00">Color</text>
</g>
<!-- Node12&#45;&gt;Node2 -->
<g id="edge11" class="edge"><title>Node12&#45;&gt;Node2</title>
<path fill="none" stroke="#9a32cd" stroke-dasharray="5,2" d="M326.91,-10.5874C358.501,-12.7328 408.067,-20.6402 440,-48 455.113,-60.9483 444.443,-74.431 458,-89 461.466,-92.725 465.83,-95.8576 470.313,-98.4364"/>
<polygon fill="#9a32cd" stroke="#9a32cd" points="326.713,-7.07244 316.544,-10.0464 326.348,-14.0629 326.713,-7.07244"/>
<text text-anchor="middle" x="410" y="-51" font-family="Helvetica,sans-Serif" font-size="10.00"> penColor</text>
</g>
<!-- Node13 -->
<g id="node13" class="node"><title>Node13</title>
<polygon fill="white" stroke="#bfbfbf" points="467,-60.5 467,-79.5 523,-79.5 523,-60.5 467,-60.5"/>
<text text-anchor="middle" x="495" y="-67.5" font-family="Helvetica,sans-Serif" font-size="10.00">Desktop</text>
</g>
<!-- Node13&#45;&gt;Node1 -->
<g id="edge12" class="edge"><title>Node13&#45;&gt;Node1</title>
<path fill="none" stroke="#9a32cd" stroke-dasharray="5,2" d="M533.407,-69.6606C551.208,-69.8839 572.76,-70.7129 592,-73 602.65,-74.2661 614.064,-76.3162 624.592,-78.4997"/>
<polygon fill="#9a32cd" stroke="#9a32cd" points="533.429,-66.1608 523.405,-69.5927 533.381,-73.1606 533.429,-66.1608"/>
<text text-anchor="middle" x="571" y="-76" font-family="Helvetica,sans-Serif" font-size="10.00"> desktop</text>
</g>
</g>
</svg>
        <g id="navigator" transform="translate(0 0)" fill="#404254">
                <rect fill="#f2f5e9" fill-opacity="0.5" stroke="#606060" stroke-width=".5" x="0" y="0" width="60" height="60"/>
                <use id="zoomplus" xlink:href="#zoomPlus" x="17" y="9" onmousedown="handleZoom(evt,'in')"/>
                <use id="zoomminus" xlink:href="#zoomMin" x="42" y="9" onmousedown="handleZoom(evt,'out')"/>
                <use id="reset" xlink:href="#resetDef" x="30" y="36" onmousedown="handleReset()"/>
                <g id="arrowUp" xlink:href="#dirArrow" transform="translate(30 24)" onmousedown="handlePan(0,-1)">
                  <use xlink:href="#rim" fill="#404040">
                        <set attributeName="fill" to="#808080" begin="arrowUp.mouseover" end="arrowUp.mouseout"/>
                  </use>
                  <path fill="none" stroke="white" stroke-width="1.5" d="M0,-3.0v7 M-2.5,-0.5L0,-3.0L2.5,-0.5"/>
                </g>
                <g id="arrowRight" xlink:href="#dirArrow" transform="rotate(90) translate(36 -43)" onmousedown="handlePan(1,0)">
                  <use xlink:href="#rim" fill="#404040">
                        <set attributeName="fill" to="#808080" begin="arrowRight.mouseover" end="arrowRight.mouseout"/>
                  </use>
                  <path fill="none" stroke="white" stroke-width="1.5" d="M0,-3.0v7 M-2.5,-0.5L0,-3.0L2.5,-0.5"/>
                </g>
                <g id="arrowDown" xlink:href="#dirArrow" transform="rotate(180) translate(-30 -48)" onmousedown="handlePan(0,1)">
                  <use xlink:href="#rim" fill="#404040">
                        <set attributeName="fill" to="#808080" begin="arrowDown.mouseover" end="arrowDown.mouseout"/>
                  </use>
                  <path fill="none" stroke="white" stroke-width="1.5" d="M0,-3.0v7 M-2.5,-0.5L0,-3.0L2.5,-0.5"/>
                </g>
                <g id="arrowLeft" xlink:href="#dirArrow" transform="rotate(270) translate(-36 17)" onmousedown="handlePan(-1,0)">
                  <use xlink:href="#rim" fill="#404040">
                        <set attributeName="fill" to="#808080" begin="arrowLeft.mouseover" end="arrowLeft.mouseout"/>
                  </use>
                  <path fill="none" stroke="white" stroke-width="1.5" d="M0,-3.0v7 M-2.5,-0.5L0,-3.0L2.5,-0.5"/>
                </g>
        </g>
        <svg viewBox="0 0 15 15" width="100%" height="30px" preserveAspectRatio="xMaxYMin meet">
         <g id="arrow_out" transform="scale(0.3 0.3)">
          <a xlink:href="classview_1_1_image_chooser__coll__graph_org.svg" target="_base">
           <rect id="button" ry="5" rx="5" y="6" x="6" height="38" width="38"
                fill="#f2f5e9" fill-opacity="0.5" stroke="#606060" stroke-width="1.0"/>
           <path id="arrow"
             d="M 11.500037,31.436501 C 11.940474,20.09759 22.043105,11.32322 32.158766,21.979434 L 37.068811,17.246167 C 37.068811,17.246167 37.088388,32 37.088388,32 L 22.160133,31.978069 C 22.160133,31.978069 26.997745,27.140456 26.997745,27.140456 C 18.528582,18.264221 13.291696,25.230495 11.500037,31.436501 z"
             style="fill:#404040;"/>
          </a>
         </g>
        </svg>
</svg>
