<?xml version="1.0" encoding="UTF-8" standalone="no"?>
<!DOCTYPE svg PUBLIC "-//W3C//DTD SVG 1.1//EN"
 "http://www.w3.org/Graphics/SVG/1.1/DTD/svg11.dtd">
<!-- Generated by graphviz version 2.36.0 (20140111.2315)
 -->
<!-- Title: view.CreateDesign.saveFile Pages: 1 -->
<svg width="554pt" height="77pt"
 viewBox="0.00 0.00 554.00 77.00" xmlns="http://www.w3.org/2000/svg" xmlns:xlink="http://www.w3.org/1999/xlink">
<g id="graph0" class="graph" transform="scale(1 1) rotate(0) translate(4 73)">
<title>view.CreateDesign.saveFile</title>
<polygon fill="white" stroke="none" points="-4,4 -4,-73 550,-73 550,4 -4,4"/>
<!-- Node1 -->
<g id="node1" class="node"><title>Node1</title>
<polygon fill="#bfbfbf" stroke="black" points="0.5,-22.5 0.5,-41.5 145.5,-41.5 145.5,-22.5 0.5,-22.5"/>
<text text-anchor="middle" x="73" y="-29.5" font-family="Helvetica,sans-Serif" font-size="10.00">view.CreateDesign.saveFile</text>
</g>
<!-- Node2 -->
<g id="node2" class="node"><title>Node2</title>
<g id="a_node2"><a xlink:href="../../d3/dfc/classview_1_1_enter_commands.html#accac5331932cfb53b59d1ba5b2027184" target="_top" xlink:title="view.EnterCommands.getHistory">
<polygon fill="white" stroke="black" points="182.5,-42.5 182.5,-61.5 355.5,-61.5 355.5,-42.5 182.5,-42.5"/>
<text text-anchor="middle" x="269" y="-49.5" font-family="Helvetica,sans-Serif" font-size="10.00">view.EnterCommands.getHistory</text>
</a>
</g>
</g>
<!-- Node1&#45;&gt;Node2 -->
<g id="edge1" class="edge"><title>Node1&#45;&gt;Node2</title>
<path fill="none" stroke="midnightblue" d="M145.687,-39.3904C154.392,-40.2878 163.389,-41.2154 172.371,-42.1414"/>
<polygon fill="midnightblue" stroke="midnightblue" points="172.182,-45.6404 182.489,-43.1844 172.9,-38.6773 172.182,-45.6404"/>
</g>
<!-- Node4 -->
<g id="node4" class="node"><title>Node4</title>
<g id="a_node4"><a xlink:href="../../d7/d64/classview_1_1_error_display.html#a6c3f2eacf1ed428f546b8df535aea14d" target="_top" xlink:title="view.ErrorDisplay.QuitError">
<polygon fill="white" stroke="black" points="198.5,-3.5 198.5,-22.5 339.5,-22.5 339.5,-3.5 198.5,-3.5"/>
<text text-anchor="middle" x="269" y="-10.5" font-family="Helvetica,sans-Serif" font-size="10.00">view.ErrorDisplay.QuitError</text>
</a>
</g>
</g>
<!-- Node1&#45;&gt;Node4 -->
<g id="edge3" class="edge"><title>Node1&#45;&gt;Node4</title>
<path fill="none" stroke="midnightblue" d="M145.687,-24.9791C159.497,-23.6266 174.043,-22.202 188.095,-20.8258"/>
<polygon fill="midnightblue" stroke="midnightblue" points="188.611,-24.2921 198.222,-19.834 187.928,-17.3254 188.611,-24.2921"/>
</g>
<!-- Node3 -->
<g id="node3" class="node"><title>Node3</title>
<g id="a_node3"><a xlink:href="../../d2/d22/classview_1_1_previous_commands.html#ac81954fc7397e066d454cfd63fc9e2e0" target="_top" xlink:title="view.PreviousCommands.get\lTextArea">
<polygon fill="white" stroke="black" points="392,-39 392,-69 546,-69 546,-39 392,-39"/>
<text text-anchor="start" x="400" y="-57" font-family="Helvetica,sans-Serif" font-size="10.00">view.PreviousCommands.get</text>
<text text-anchor="middle" x="469" y="-46" font-family="Helvetica,sans-Serif" font-size="10.00">TextArea</text>
</a>
</g>
</g>
<!-- Node2&#45;&gt;Node3 -->
<g id="edge2" class="edge"><title>Node2&#45;&gt;Node3</title>
<path fill="none" stroke="midnightblue" d="M355.694,-52.8656C364.333,-52.9529 373.109,-53.0415 381.754,-53.1288"/>
<polygon fill="midnightblue" stroke="midnightblue" points="381.79,-56.6293 391.825,-53.2306 381.861,-49.6296 381.79,-56.6293"/>
</g>
<!-- Node5 -->
<g id="node5" class="node"><title>Node5</title>
<g id="a_node5"><a xlink:href="../../d7/d64/classview_1_1_error_display.html#a0c73067dcb42d542520886861c13953f" target="_top" xlink:title="view.ErrorDisplay.message">
<polygon fill="white" stroke="black" points="397.5,-0.5 397.5,-19.5 540.5,-19.5 540.5,-0.5 397.5,-0.5"/>
<text text-anchor="middle" x="469" y="-7.5" font-family="Helvetica,sans-Serif" font-size="10.00">view.ErrorDisplay.message</text>
</a>
</g>
</g>
<!-- Node4&#45;&gt;Node5 -->
<g id="edge4" class="edge"><title>Node4&#45;&gt;Node5</title>
<path fill="none" stroke="midnightblue" d="M339.529,-11.9465C354.885,-11.7139 371.283,-11.4654 387.048,-11.2265"/>
<polygon fill="midnightblue" stroke="midnightblue" points="387.354,-14.7224 397.299,-11.0712 387.247,-7.72322 387.354,-14.7224"/>
</g>
</g>
</svg>
