<?xml version="1.0" encoding="UTF-8" standalone="no"?>
<!DOCTYPE svg PUBLIC "-//W3C//DTD SVG 1.1//EN"
 "http://www.w3.org/Graphics/SVG/1.1/DTD/svg11.dtd">
<!-- Generated by graphviz version 2.36.0 (20140111.2315)
 -->
<!-- Title: view.CreateDesign.SaveDesign Pages: 1 -->
<svg width="744pt" height="66pt"
 viewBox="0.00 0.00 744.00 66.00" xmlns="http://www.w3.org/2000/svg" xmlns:xlink="http://www.w3.org/1999/xlink">
<g id="graph0" class="graph" transform="scale(1 1) rotate(0) translate(4 62)">
<title>view.CreateDesign.SaveDesign</title>
<polygon fill="white" stroke="none" points="-4,4 -4,-62 740,-62 740,4 -4,4"/>
<!-- Node1 -->
<g id="node1" class="node"><title>Node1</title>
<polygon fill="#bfbfbf" stroke="black" points="0,-19.5 0,-38.5 164,-38.5 164,-19.5 0,-19.5"/>
<text text-anchor="middle" x="82" y="-26.5" font-family="Helvetica,sans-Serif" font-size="10.00">view.CreateDesign.SaveDesign</text>
</g>
<!-- Node2 -->
<g id="node2" class="node"><title>Node2</title>
<g id="a_node2"><a xlink:href="../../d8/da5/classview_1_1_create_design.html#a4552eff83910a3510b98f123945ce0da" target="_top" xlink:title="view.CreateDesign.saveFile">
<polygon fill="white" stroke="black" points="200.5,-19.5 200.5,-38.5 345.5,-38.5 345.5,-19.5 200.5,-19.5"/>
<text text-anchor="middle" x="273" y="-26.5" font-family="Helvetica,sans-Serif" font-size="10.00">view.CreateDesign.saveFile</text>
</a>
</g>
</g>
<!-- Node1&#45;&gt;Node2 -->
<g id="edge1" class="edge"><title>Node1&#45;&gt;Node2</title>
<path fill="none" stroke="midnightblue" d="M164.25,-29C172.879,-29 181.659,-29 190.293,-29"/>
<polygon fill="midnightblue" stroke="midnightblue" points="190.345,-32.5001 200.345,-29 190.345,-25.5001 190.345,-32.5001"/>
</g>
<!-- Node3 -->
<g id="node3" class="node"><title>Node3</title>
<g id="a_node3"><a xlink:href="../../d3/dfc/classview_1_1_enter_commands.html#accac5331932cfb53b59d1ba5b2027184" target="_top" xlink:title="view.EnterCommands.getHistory">
<polygon fill="white" stroke="black" points="382.5,-38.5 382.5,-57.5 555.5,-57.5 555.5,-38.5 382.5,-38.5"/>
<text text-anchor="middle" x="469" y="-45.5" font-family="Helvetica,sans-Serif" font-size="10.00">view.EnterCommands.getHistory</text>
</a>
</g>
</g>
<!-- Node2&#45;&gt;Node3 -->
<g id="edge2" class="edge"><title>Node2&#45;&gt;Node3</title>
<path fill="none" stroke="midnightblue" d="M345.687,-36.0209C354.392,-36.8735 363.389,-37.7546 372.371,-38.6343"/>
<polygon fill="midnightblue" stroke="midnightblue" points="372.195,-42.1337 382.489,-39.6252 372.877,-35.167 372.195,-42.1337"/>
</g>
<!-- Node4 -->
<g id="node4" class="node"><title>Node4</title>
<g id="a_node4"><a xlink:href="../../d7/d64/classview_1_1_error_display.html#a6c3f2eacf1ed428f546b8df535aea14d" target="_top" xlink:title="view.ErrorDisplay.QuitError">
<polygon fill="white" stroke="black" points="398.5,-0.5 398.5,-19.5 539.5,-19.5 539.5,-0.5 398.5,-0.5"/>
<text text-anchor="middle" x="469" y="-7.5" font-family="Helvetica,sans-Serif" font-size="10.00">view.ErrorDisplay.QuitError</text>
</a>
</g>
</g>
<!-- Node2&#45;&gt;Node4 -->
<g id="edge3" class="edge"><title>Node2&#45;&gt;Node4</title>
<path fill="none" stroke="midnightblue" d="M345.687,-21.9791C359.497,-20.6266 374.043,-19.202 388.095,-17.8258"/>
<polygon fill="midnightblue" stroke="midnightblue" points="388.611,-21.2921 398.222,-16.834 387.928,-14.3254 388.611,-21.2921"/>
</g>
<!-- Node5 -->
<g id="node5" class="node"><title>Node5</title>
<g id="a_node5"><a xlink:href="../../d7/d64/classview_1_1_error_display.html#a0c73067dcb42d542520886861c13953f" target="_top" xlink:title="view.ErrorDisplay.message">
<polygon fill="white" stroke="black" points="592.5,-0.5 592.5,-19.5 735.5,-19.5 735.5,-0.5 592.5,-0.5"/>
<text text-anchor="middle" x="664" y="-7.5" font-family="Helvetica,sans-Serif" font-size="10.00">view.ErrorDisplay.message</text>
</a>
</g>
</g>
<!-- Node4&#45;&gt;Node5 -->
<g id="edge4" class="edge"><title>Node4&#45;&gt;Node5</title>
<path fill="none" stroke="midnightblue" d="M539.677,-10C553.492,-10 568.104,-10 582.251,-10"/>
<polygon fill="midnightblue" stroke="midnightblue" points="582.452,-13.5001 592.452,-10 582.452,-6.5001 582.452,-13.5001"/>
</g>
</g>
</svg>
