<?xml version="1.0" encoding="UTF-8" standalone="no"?>
<!DOCTYPE svg PUBLIC "-//W3C//DTD SVG 1.1//EN"
 "http://www.w3.org/Graphics/SVG/1.1/DTD/svg11.dtd">
<!-- Generated by graphviz version 2.36.0 (20140111.2315)
 -->
<!-- Title: view.ImageChooser.start Pages: 1 -->
<svg width="498pt" height="38pt"
 viewBox="0.00 0.00 498.00 38.00" xmlns="http://www.w3.org/2000/svg" xmlns:xlink="http://www.w3.org/1999/xlink">
<g id="graph0" class="graph" transform="scale(1 1) rotate(0) translate(4 34)">
<title>view.ImageChooser.start</title>
<polygon fill="white" stroke="none" points="-4,4 -4,-34 494,-34 494,4 -4,4"/>
<!-- Node1 -->
<g id="node1" class="node"><title>Node1</title>
<polygon fill="#bfbfbf" stroke="black" points="0,-5.5 0,-24.5 134,-24.5 134,-5.5 0,-5.5"/>
<text text-anchor="middle" x="67" y="-12.5" font-family="Helvetica,sans-Serif" font-size="10.00">view.ImageChooser.start</text>
</g>
<!-- Node2 -->
<g id="node2" class="node"><title>Node2</title>
<g id="a_node2"><a xlink:href="../../dd/d5e/classview_1_1_image_chooser.html#a6d668cc328dfded5d66f3311c8a5637d" target="_top" xlink:title="view.ImageChooser.openFile">
<polygon fill="white" stroke="black" points="170,-5.5 170,-24.5 320,-24.5 320,-5.5 170,-5.5"/>
<text text-anchor="middle" x="245" y="-12.5" font-family="Helvetica,sans-Serif" font-size="10.00">view.ImageChooser.openFile</text>
</a>
</g>
</g>
<!-- Node1&#45;&gt;Node2 -->
<g id="edge1" class="edge"><title>Node1&#45;&gt;Node2</title>
<path fill="none" stroke="midnightblue" d="M134.037,-15C142.45,-15 151.148,-15 159.798,-15"/>
<polygon fill="midnightblue" stroke="midnightblue" points="159.91,-18.5001 169.91,-15 159.91,-11.5001 159.91,-18.5001"/>
</g>
<!-- Node3 -->
<g id="node3" class="node"><title>Node3</title>
<g id="a_node3"><a xlink:href="../../d1/d1a/classview_1_1_display.html#a09cd42ab0296796c2c321ba6cb02a8b8" target="_top" xlink:title="view.Display.updateTurtle\lImage">
<polygon fill="white" stroke="black" points="356,-0 356,-30 490,-30 490,-0 356,-0"/>
<text text-anchor="start" x="364" y="-18" font-family="Helvetica,sans-Serif" font-size="10.00">view.Display.updateTurtle</text>
<text text-anchor="middle" x="423" y="-7" font-family="Helvetica,sans-Serif" font-size="10.00">Image</text>
</a>
</g>
</g>
<!-- Node2&#45;&gt;Node3 -->
<g id="edge2" class="edge"><title>Node2&#45;&gt;Node3</title>
<path fill="none" stroke="midnightblue" d="M320.13,-15C328.545,-15 337.134,-15 345.578,-15"/>
<polygon fill="midnightblue" stroke="midnightblue" points="345.785,-18.5001 355.785,-15 345.785,-11.5001 345.785,-18.5001"/>
</g>
</g>
</svg>
