<?xml version="1.0" encoding="UTF-8" standalone="no"?>
<!DOCTYPE svg PUBLIC "-//W3C//DTD SVG 1.1//EN"
 "http://www.w3.org/Graphics/SVG/1.1/DTD/svg11.dtd">
<!-- Generated by graphviz version 2.36.0 (20140111.2315)
 -->
<!-- Title: view.ImageChooser.openFile Pages: 1 -->
<svg width="984pt" height="38pt"
 viewBox="0.00 0.00 984.00 38.00" xmlns="http://www.w3.org/2000/svg" xmlns:xlink="http://www.w3.org/1999/xlink">
<g id="graph0" class="graph" transform="scale(1 1) rotate(0) translate(4 34)">
<title>view.ImageChooser.openFile</title>
<polygon fill="white" stroke="none" points="-4,4 -4,-34 980,-34 980,4 -4,4"/>
<!-- Node1 -->
<g id="node1" class="node"><title>Node1</title>
<polygon fill="#bfbfbf" stroke="black" points="0,-5.5 0,-24.5 150,-24.5 150,-5.5 0,-5.5"/>
<text text-anchor="middle" x="75" y="-12.5" font-family="Helvetica,sans-Serif" font-size="10.00">view.ImageChooser.openFile</text>
</g>
<!-- Node2 -->
<g id="node2" class="node"><title>Node2</title>
<g id="a_node2"><a xlink:href="../../dd/d5e/classview_1_1_image_chooser.html#acce8e5e36cde606043547a64c1f44223" target="_top" xlink:title="view.ImageChooser.start">
<polygon fill="white" stroke="black" points="186,-5.5 186,-24.5 320,-24.5 320,-5.5 186,-5.5"/>
<text text-anchor="middle" x="253" y="-12.5" font-family="Helvetica,sans-Serif" font-size="10.00">view.ImageChooser.start</text>
</a>
</g>
</g>
<!-- Node1&#45;&gt;Node2 -->
<g id="edge1" class="edge"><title>Node1&#45;&gt;Node2</title>
<path fill="none" stroke="midnightblue" d="M160.179,-15C168.775,-15 177.42,-15 185.785,-15"/>
<polygon fill="midnightblue" stroke="midnightblue" points="160.13,-11.5001 150.13,-15 160.13,-18.5001 160.13,-11.5001"/>
</g>
<!-- Node3 -->
<g id="node3" class="node"><title>Node3</title>
<g id="a_node3"><a xlink:href="../../d3/d1e/classview_1_1_button_bar.html#a9663e7fffc7f3559097b76313739e507" target="_top" xlink:title="view.ButtonBar.makeButtonBar">
<polygon fill="white" stroke="black" points="356,-5.5 356,-24.5 522,-24.5 522,-5.5 356,-5.5"/>
<text text-anchor="middle" x="439" y="-12.5" font-family="Helvetica,sans-Serif" font-size="10.00">view.ButtonBar.makeButtonBar</text>
</a>
</g>
</g>
<!-- Node2&#45;&gt;Node3 -->
<g id="edge2" class="edge"><title>Node2&#45;&gt;Node3</title>
<path fill="none" stroke="midnightblue" d="M330.303,-15C338.701,-15 347.279,-15 355.746,-15"/>
<polygon fill="midnightblue" stroke="midnightblue" points="330.168,-11.5001 320.168,-15 330.168,-18.5001 330.168,-11.5001"/>
</g>
<!-- Node4 -->
<g id="node4" class="node"><title>Node4</title>
<g id="a_node4"><a xlink:href="../../d3/dbe/classview_1_1_view.html#aef3f2dd859a6a5c719987365a9afb905" target="_top" xlink:title="view.View.start">
<polygon fill="white" stroke="black" points="558,-5.5 558,-24.5 644,-24.5 644,-5.5 558,-5.5"/>
<text text-anchor="middle" x="601" y="-12.5" font-family="Helvetica,sans-Serif" font-size="10.00">view.View.start</text>
</a>
</g>
</g>
<!-- Node3&#45;&gt;Node4 -->
<g id="edge3" class="edge"><title>Node3&#45;&gt;Node4</title>
<path fill="none" stroke="midnightblue" d="M532.353,-15C541.163,-15 549.768,-15 557.726,-15"/>
<polygon fill="midnightblue" stroke="midnightblue" points="532.343,-11.5001 522.343,-15 532.343,-18.5001 532.343,-11.5001"/>
</g>
<!-- Node5 -->
<g id="node5" class="node"><title>Node5</title>
<g id="a_node5"><a xlink:href="../../d4/d9d/classapplication_1_1_wrapper.html#a4be5486a54f6d10d816c3ff49e82ecb9" target="_top" xlink:title="application.Wrapper.make\lNewWindow">
<polygon fill="white" stroke="black" points="680,-0 680,-30 820,-30 820,-0 680,-0"/>
<text text-anchor="start" x="688" y="-18" font-family="Helvetica,sans-Serif" font-size="10.00">application.Wrapper.make</text>
<text text-anchor="middle" x="750" y="-7" font-family="Helvetica,sans-Serif" font-size="10.00">NewWindow</text>
</a>
</g>
</g>
<!-- Node4&#45;&gt;Node5 -->
<g id="edge4" class="edge"><title>Node4&#45;&gt;Node5</title>
<path fill="none" stroke="midnightblue" d="M654.379,-15C662.668,-15 671.349,-15 679.949,-15"/>
<polygon fill="midnightblue" stroke="midnightblue" points="654.124,-11.5001 644.124,-15 654.124,-18.5001 654.124,-11.5001"/>
</g>
<!-- Node6 -->
<g id="node6" class="node"><title>Node6</title>
<g id="a_node6"><a xlink:href="../../d9/d96/classapplication_1_1_main.html#a4e5ad4e3de8bbd8654120180a94e870d" target="_top" xlink:title="application.Main.start">
<polygon fill="white" stroke="black" points="856.5,-5.5 856.5,-24.5 975.5,-24.5 975.5,-5.5 856.5,-5.5"/>
<text text-anchor="middle" x="916" y="-12.5" font-family="Helvetica,sans-Serif" font-size="10.00">application.Main.start</text>
</a>
</g>
</g>
<!-- Node5&#45;&gt;Node6 -->
<g id="edge5" class="edge"><title>Node5&#45;&gt;Node6</title>
<path fill="none" stroke="midnightblue" d="M830.335,-15C839.112,-15 847.929,-15 856.384,-15"/>
<polygon fill="midnightblue" stroke="midnightblue" points="830.075,-11.5001 820.075,-15 830.075,-18.5001 830.075,-11.5001"/>
</g>
</g>
</svg>
