<?xml version="1.0" encoding="UTF-8" standalone="no"?>
<!DOCTYPE svg PUBLIC "-//W3C//DTD SVG 1.1//EN"
 "http://www.w3.org/Graphics/SVG/1.1/DTD/svg11.dtd">
<!-- Generated by graphviz version 2.36.0 (20140111.2315)
 -->
<!-- Title: view.ImageChooser.start Pages: 1 -->
<svg width="798pt" height="38pt"
 viewBox="0.00 0.00 798.00 38.00" xmlns="http://www.w3.org/2000/svg" xmlns:xlink="http://www.w3.org/1999/xlink">
<g id="graph0" class="graph" transform="scale(1 1) rotate(0) translate(4 34)">
<title>view.ImageChooser.start</title>
<polygon fill="white" stroke="none" points="-4,4 -4,-34 794,-34 794,4 -4,4"/>
<!-- Node1 -->
<g id="node1" class="node"><title>Node1</title>
<polygon fill="#bfbfbf" stroke="black" points="0,-5.5 0,-24.5 134,-24.5 134,-5.5 0,-5.5"/>
<text text-anchor="middle" x="67" y="-12.5" font-family="Helvetica,sans-Serif" font-size="10.00">view.ImageChooser.start</text>
</g>
<!-- Node2 -->
<g id="node2" class="node"><title>Node2</title>
<g id="a_node2"><a xlink:href="../../d3/d1e/classview_1_1_button_bar.html#a9663e7fffc7f3559097b76313739e507" target="_top" xlink:title="view.ButtonBar.makeButtonBar">
<polygon fill="white" stroke="black" points="170,-5.5 170,-24.5 336,-24.5 336,-5.5 170,-5.5"/>
<text text-anchor="middle" x="253" y="-12.5" font-family="Helvetica,sans-Serif" font-size="10.00">view.ButtonBar.makeButtonBar</text>
</a>
</g>
</g>
<!-- Node1&#45;&gt;Node2 -->
<g id="edge1" class="edge"><title>Node1&#45;&gt;Node2</title>
<path fill="none" stroke="midnightblue" d="M144.303,-15C152.701,-15 161.279,-15 169.746,-15"/>
<polygon fill="midnightblue" stroke="midnightblue" points="144.168,-11.5001 134.168,-15 144.168,-18.5001 144.168,-11.5001"/>
</g>
<!-- Node3 -->
<g id="node3" class="node"><title>Node3</title>
<g id="a_node3"><a xlink:href="../../d3/dbe/classview_1_1_view.html#aef3f2dd859a6a5c719987365a9afb905" target="_top" xlink:title="view.View.start">
<polygon fill="white" stroke="black" points="372,-5.5 372,-24.5 458,-24.5 458,-5.5 372,-5.5"/>
<text text-anchor="middle" x="415" y="-12.5" font-family="Helvetica,sans-Serif" font-size="10.00">view.View.start</text>
</a>
</g>
</g>
<!-- Node2&#45;&gt;Node3 -->
<g id="edge2" class="edge"><title>Node2&#45;&gt;Node3</title>
<path fill="none" stroke="midnightblue" d="M346.353,-15C355.163,-15 363.768,-15 371.726,-15"/>
<polygon fill="midnightblue" stroke="midnightblue" points="346.343,-11.5001 336.343,-15 346.343,-18.5001 346.343,-11.5001"/>
</g>
<!-- Node4 -->
<g id="node4" class="node"><title>Node4</title>
<g id="a_node4"><a xlink:href="../../d4/d9d/classapplication_1_1_wrapper.html#a4be5486a54f6d10d816c3ff49e82ecb9" target="_top" xlink:title="application.Wrapper.make\lNewWindow">
<polygon fill="white" stroke="black" points="494,-0 494,-30 634,-30 634,-0 494,-0"/>
<text text-anchor="start" x="502" y="-18" font-family="Helvetica,sans-Serif" font-size="10.00">application.Wrapper.make</text>
<text text-anchor="middle" x="564" y="-7" font-family="Helvetica,sans-Serif" font-size="10.00">NewWindow</text>
</a>
</g>
</g>
<!-- Node3&#45;&gt;Node4 -->
<g id="edge3" class="edge"><title>Node3&#45;&gt;Node4</title>
<path fill="none" stroke="midnightblue" d="M468.379,-15C476.668,-15 485.349,-15 493.949,-15"/>
<polygon fill="midnightblue" stroke="midnightblue" points="468.124,-11.5001 458.124,-15 468.124,-18.5001 468.124,-11.5001"/>
</g>
<!-- Node5 -->
<g id="node5" class="node"><title>Node5</title>
<g id="a_node5"><a xlink:href="../../d9/d96/classapplication_1_1_main.html#a4e5ad4e3de8bbd8654120180a94e870d" target="_top" xlink:title="application.Main.start">
<polygon fill="white" stroke="black" points="670.5,-5.5 670.5,-24.5 789.5,-24.5 789.5,-5.5 670.5,-5.5"/>
<text text-anchor="middle" x="730" y="-12.5" font-family="Helvetica,sans-Serif" font-size="10.00">application.Main.start</text>
</a>
</g>
</g>
<!-- Node4&#45;&gt;Node5 -->
<g id="edge4" class="edge"><title>Node4&#45;&gt;Node5</title>
<path fill="none" stroke="midnightblue" d="M644.335,-15C653.112,-15 661.929,-15 670.384,-15"/>
<polygon fill="midnightblue" stroke="midnightblue" points="644.075,-11.5001 634.075,-15 644.075,-18.5001 644.075,-11.5001"/>
</g>
</g>
</svg>
