<?xml version="1.0" encoding="UTF-8" standalone="no"?>
<!DOCTYPE svg PUBLIC "-//W3C//DTD SVG 1.1//EN"
 "http://www.w3.org/Graphics/SVG/1.1/DTD/svg11.dtd">
<!-- Generated by graphviz version 2.36.0 (20140111.2315)
 -->
<!-- Title: view.CreateDesign Pages: 1 -->
<svg width="323pt" height="164pt"
 viewBox="0.00 0.00 323.00 164.00" xmlns="http://www.w3.org/2000/svg" xmlns:xlink="http://www.w3.org/1999/xlink">
<g id="graph0" class="graph" transform="scale(1 1) rotate(0) translate(4 160)">
<title>view.CreateDesign</title>
<polygon fill="white" stroke="none" points="-4,4 -4,-160 319,-160 319,4 -4,4"/>
<!-- Node1 -->
<g id="node1" class="node"><title>Node1</title>
<polygon fill="#bfbfbf" stroke="black" points="153,-0.5 153,-19.5 257,-19.5 257,-0.5 153,-0.5"/>
<text text-anchor="middle" x="205" y="-7.5" font-family="Helvetica,sans-Serif" font-size="10.00">view.CreateDesign</text>
</g>
<!-- Node2 -->
<g id="node2" class="node"><title>Node2</title>
<g id="a_node2"><a xlink:href="../../d3/dfc/classview_1_1_enter_commands.html" target="_top" xlink:title="view.EnterCommands">
<polygon fill="white" stroke="black" points="102,-68.5 102,-87.5 222,-87.5 222,-68.5 102,-68.5"/>
<text text-anchor="middle" x="162" y="-75.5" font-family="Helvetica,sans-Serif" font-size="10.00">view.EnterCommands</text>
</a>
</g>
</g>
<!-- Node2&#45;&gt;Node1 -->
<g id="edge1" class="edge"><title>Node2&#45;&gt;Node1</title>
<path fill="none" stroke="#9a32cd" stroke-dasharray="5,2" d="M175.722,-60.1416C178.232,-56.8421 180.762,-53.3614 183,-50 189.72,-39.905 196.42,-27.6311 200.628,-19.5825"/>
<polygon fill="#9a32cd" stroke="#9a32cd" points="172.777,-58.2235 169.341,-68.2456 178.277,-62.5538 172.777,-58.2235"/>
<text text-anchor="middle" x="213" y="-41.5" font-family="Helvetica,sans-Serif" font-size="10.00"> myEnter</text>
</g>
<!-- Node5 -->
<g id="node5" class="node"><title>Node5</title>
<g id="a_node5"><a xlink:href="../../d2/d22/classview_1_1_previous_commands.html" target="_top" xlink:title="view.PreviousCommands">
<polygon fill="white" stroke="black" points="-0.5,-0.5 -0.5,-19.5 134.5,-19.5 134.5,-0.5 -0.5,-0.5"/>
<text text-anchor="middle" x="67" y="-7.5" font-family="Helvetica,sans-Serif" font-size="10.00">view.PreviousCommands</text>
</a>
</g>
</g>
<!-- Node2&#45;&gt;Node5 -->
<g id="edge6" class="edge"><title>Node2&#45;&gt;Node5</title>
<path fill="none" stroke="#9a32cd" stroke-dasharray="5,2" d="M126.674,-64.4864C117.866,-60.5454 108.736,-55.7027 101,-50 89.4315,-41.4719 79.0423,-28.3696 72.8773,-19.7421"/>
<polygon fill="#9a32cd" stroke="#9a32cd" points="125.448,-67.7675 136.024,-68.4069 128.155,-61.3121 125.448,-67.7675"/>
<text text-anchor="middle" x="115.5" y="-41.5" font-family="Helvetica,sans-Serif" font-size="10.00"> enter</text>
</g>
<!-- Node3 -->
<g id="node3" class="node"><title>Node3</title>
<polygon fill="white" stroke="#bfbfbf" points="121.5,-136.5 121.5,-155.5 192.5,-155.5 192.5,-136.5 121.5,-136.5"/>
<text text-anchor="middle" x="157" y="-143.5" font-family="Helvetica,sans-Serif" font-size="10.00">Observable</text>
</g>
<!-- Node3&#45;&gt;Node2 -->
<g id="edge2" class="edge"><title>Node3&#45;&gt;Node2</title>
<path fill="none" stroke="midnightblue" d="M158.436,-126.041C159.388,-113.472 160.594,-97.5631 161.33,-87.8411"/>
<polygon fill="midnightblue" stroke="midnightblue" points="154.919,-126.136 157.654,-136.372 161.899,-126.665 154.919,-126.136"/>
</g>
<!-- Node4 -->
<g id="node4" class="node"><title>Node4</title>
<g id="a_node4"><a xlink:href="../../de/d83/classview_1_1_import_design.html" target="_top" xlink:title="view.ImportDesign">
<polygon fill="white" stroke="black" points="211,-136.5 211,-155.5 315,-155.5 315,-136.5 211,-136.5"/>
<text text-anchor="middle" x="263" y="-143.5" font-family="Helvetica,sans-Serif" font-size="10.00">view.ImportDesign</text>
</a>
</g>
</g>
<!-- Node4&#45;&gt;Node2 -->
<g id="edge3" class="edge"><title>Node4&#45;&gt;Node2</title>
<path fill="none" stroke="#9a32cd" stroke-dasharray="5,2" d="M241.287,-130.811C221.202,-117.686 191.995,-98.6004 175.207,-87.6305"/>
<polygon fill="#9a32cd" stroke="#9a32cd" points="239.51,-133.831 249.796,-136.372 243.339,-127.971 239.51,-133.831"/>
<text text-anchor="middle" x="240" y="-109.5" font-family="Helvetica,sans-Serif" font-size="10.00"> upload</text>
</g>
<!-- Node5&#45;&gt;Node2 -->
<g id="edge4" class="edge"><title>Node5&#45;&gt;Node2</title>
<path fill="none" stroke="#9a32cd" stroke-dasharray="5,2" d="M107.996,-23.257C117.097,-27.102 126.313,-31.9648 134,-38 144.621,-46.3385 153.012,-59.7412 157.743,-68.4596"/>
<polygon fill="#9a32cd" stroke="#9a32cd" points="109.21,-19.974 98.6218,-19.6121 106.674,-26.4982 109.21,-19.974"/>
<text text-anchor="middle" x="158.5" y="-41.5" font-family="Helvetica,sans-Serif" font-size="10.00"> prev</text>
</g>
<!-- Node6 -->
<g id="node6" class="node"><title>Node6</title>
<polygon fill="white" stroke="#bfbfbf" points="41,-136.5 41,-155.5 99,-155.5 99,-136.5 41,-136.5"/>
<text text-anchor="middle" x="70" y="-143.5" font-family="Helvetica,sans-Serif" font-size="10.00">TextArea</text>
</g>
<!-- Node6&#45;&gt;Node2 -->
<g id="edge7" class="edge"><title>Node6&#45;&gt;Node2</title>
<path fill="none" stroke="#9a32cd" stroke-dasharray="5,2" d="M90.2747,-130.455C108.552,-117.343 134.816,-98.5016 149.97,-87.6305"/>
<polygon fill="#9a32cd" stroke="#9a32cd" points="88.1126,-127.699 82.0274,-136.372 92.193,-133.386 88.1126,-127.699"/>
<text text-anchor="middle" x="136" y="-109.5" font-family="Helvetica,sans-Serif" font-size="10.00"> text</text>
</g>
<!-- Node6&#45;&gt;Node5 -->
<g id="edge5" class="edge"><title>Node6&#45;&gt;Node5</title>
<path fill="none" stroke="#9a32cd" stroke-dasharray="5,2" d="M69.5744,-125.992C68.9147,-96.5227 67.6713,-40.9856 67.1937,-19.6503"/>
<polygon fill="#9a32cd" stroke="#9a32cd" points="66.0801,-126.289 69.8032,-136.208 73.0784,-126.132 66.0801,-126.289"/>
<text text-anchor="middle" x="80" y="-75.5" font-family="Helvetica,sans-Serif" font-size="10.00"> text</text>
</g>
</g>
</svg>
