<?xml version="1.0" encoding="UTF-8" standalone="no"?>
<!DOCTYPE svg PUBLIC "-//W3C//DTD SVG 1.1//EN"
 "http://www.w3.org/Graphics/SVG/1.1/DTD/svg11.dtd">
<!-- Generated by graphviz version 2.36.0 (20140111.2315)
 -->
<!-- Title: view.CreateDesign Pages: 1 -->
<svg width="429pt" height="164pt"
 viewBox="0.00 0.00 429.00 164.00" xmlns="http://www.w3.org/2000/svg" xmlns:xlink="http://www.w3.org/1999/xlink">
<g id="graph0" class="graph" transform="scale(1 1) rotate(0) translate(4 160)">
<title>view.CreateDesign</title>
<polygon fill="white" stroke="none" points="-4,4 -4,-160 425,-160 425,4 -4,4"/>
<!-- Node1 -->
<g id="node1" class="node"><title>Node1</title>
<polygon fill="#bfbfbf" stroke="black" points="0,-0.5 0,-19.5 104,-19.5 104,-0.5 0,-0.5"/>
<text text-anchor="middle" x="52" y="-7.5" font-family="Helvetica,sans-Serif" font-size="10.00">view.CreateDesign</text>
</g>
<!-- Node2 -->
<g id="node2" class="node"><title>Node2</title>
<g id="a_node2"><a xlink:href="../../d3/dfc/classview_1_1_enter_commands.html" target="_top" xlink:title="view.EnterCommands">
<polygon fill="white" stroke="black" points="199,-68.5 199,-87.5 319,-87.5 319,-68.5 199,-68.5"/>
<text text-anchor="middle" x="259" y="-75.5" font-family="Helvetica,sans-Serif" font-size="10.00">view.EnterCommands</text>
</a>
</g>
</g>
<!-- Node2&#45;&gt;Node1 -->
<g id="edge1" class="edge"><title>Node2&#45;&gt;Node1</title>
<path fill="none" stroke="#9a32cd" stroke-dasharray="5,2" d="M188.499,-74.469C141.677,-71.428 85.534,-64.734 67,-50 57.6871,-42.5965 54.1503,-28.6731 52.8111,-19.6219"/>
<polygon fill="#9a32cd" stroke="#9a32cd" points="188.444,-77.9719 198.637,-75.0811 188.866,-70.9847 188.444,-77.9719"/>
<text text-anchor="middle" x="89" y="-41.5" font-family="Helvetica,sans-Serif" font-size="10.00"> myEnter</text>
</g>
<!-- Node4 -->
<g id="node4" class="node"><title>Node4</title>
<g id="a_node4"><a xlink:href="../../de/d83/classview_1_1_import_design.html" target="_top" xlink:title="view.ImportDesign">
<polygon fill="white" stroke="black" points="143,-0.5 143,-19.5 247,-19.5 247,-0.5 143,-0.5"/>
<text text-anchor="middle" x="195" y="-7.5" font-family="Helvetica,sans-Serif" font-size="10.00">view.ImportDesign</text>
</a>
</g>
</g>
<!-- Node2&#45;&gt;Node4 -->
<g id="edge4" class="edge"><title>Node2&#45;&gt;Node4</title>
<path fill="none" stroke="#9a32cd" stroke-dasharray="5,2" d="M188.535,-71.8157C158.134,-67.972 127.381,-61.3477 118,-50 105.874,-35.3322 124.73,-25.6193 146.812,-19.5551"/>
<polygon fill="#9a32cd" stroke="#9a32cd" points="188.461,-75.3308 198.799,-73.0154 189.273,-68.3781 188.461,-75.3308"/>
<text text-anchor="middle" x="168" y="-41.5" font-family="Helvetica,sans-Serif" font-size="10.00"> myEnterCommands</text>
</g>
<!-- Node5 -->
<g id="node5" class="node"><title>Node5</title>
<g id="a_node5"><a xlink:href="../../d2/d22/classview_1_1_previous_commands.html" target="_top" xlink:title="view.PreviousCommands">
<polygon fill="white" stroke="black" points="285.5,-0.5 285.5,-19.5 420.5,-19.5 420.5,-0.5 285.5,-0.5"/>
<text text-anchor="middle" x="353" y="-7.5" font-family="Helvetica,sans-Serif" font-size="10.00">view.PreviousCommands</text>
</a>
</g>
</g>
<!-- Node2&#45;&gt;Node5 -->
<g id="edge7" class="edge"><title>Node2&#45;&gt;Node5</title>
<path fill="none" stroke="#9a32cd" stroke-dasharray="5,2" d="M272.858,-60.8533C279.882,-53.2982 288.849,-44.5453 298,-38 308.296,-30.6362 320.904,-24.2842 331.45,-19.5946"/>
<polygon fill="#9a32cd" stroke="#9a32cd" points="270.146,-58.6355 266.083,-68.4202 275.361,-63.3051 270.146,-58.6355"/>
<text text-anchor="middle" x="312.5" y="-41.5" font-family="Helvetica,sans-Serif" font-size="10.00"> enter</text>
</g>
<!-- Node3 -->
<g id="node3" class="node"><title>Node3</title>
<polygon fill="white" stroke="#bfbfbf" points="223.5,-136.5 223.5,-155.5 294.5,-155.5 294.5,-136.5 223.5,-136.5"/>
<text text-anchor="middle" x="259" y="-143.5" font-family="Helvetica,sans-Serif" font-size="10.00">Observable</text>
</g>
<!-- Node3&#45;&gt;Node2 -->
<g id="edge2" class="edge"><title>Node3&#45;&gt;Node2</title>
<path fill="none" stroke="midnightblue" d="M259,-126.041C259,-113.472 259,-97.5631 259,-87.8411"/>
<polygon fill="midnightblue" stroke="midnightblue" points="255.5,-126.372 259,-136.372 262.5,-126.372 255.5,-126.372"/>
</g>
<!-- Node4&#45;&gt;Node2 -->
<g id="edge3" class="edge"><title>Node4&#45;&gt;Node2</title>
<path fill="none" stroke="#9a32cd" stroke-dasharray="5,2" d="M210.725,-27.2162C223.332,-40.2173 240.532,-57.9547 250.633,-68.3717"/>
<polygon fill="#9a32cd" stroke="#9a32cd" points="213.047,-24.5836 203.573,-19.8411 208.022,-29.4567 213.047,-24.5836"/>
<text text-anchor="middle" x="251" y="-41.5" font-family="Helvetica,sans-Serif" font-size="10.00"> upload</text>
</g>
<!-- Node5&#45;&gt;Node2 -->
<g id="edge5" class="edge"><title>Node5&#45;&gt;Node2</title>
<path fill="none" stroke="#9a32cd" stroke-dasharray="5,2" d="M346.167,-28.8868C342.596,-36.2566 337.577,-44.3696 331,-50 321.163,-58.4211 308.443,-64.3369 296.438,-68.4371"/>
<polygon fill="#9a32cd" stroke="#9a32cd" points="349.424,-30.1707 350.149,-19.6007 342.991,-27.4114 349.424,-30.1707"/>
<text text-anchor="middle" x="353.5" y="-41.5" font-family="Helvetica,sans-Serif" font-size="10.00"> prev</text>
</g>
<!-- Node6 -->
<g id="node6" class="node"><title>Node6</title>
<polygon fill="white" stroke="#bfbfbf" points="330,-136.5 330,-155.5 388,-155.5 388,-136.5 330,-136.5"/>
<text text-anchor="middle" x="359" y="-143.5" font-family="Helvetica,sans-Serif" font-size="10.00">TextArea</text>
</g>
<!-- Node6&#45;&gt;Node2 -->
<g id="edge8" class="edge"><title>Node6&#45;&gt;Node2</title>
<path fill="none" stroke="#9a32cd" stroke-dasharray="5,2" d="M337.502,-130.811C317.616,-117.686 288.698,-98.6004 272.076,-87.6305"/>
<polygon fill="#9a32cd" stroke="#9a32cd" points="335.653,-133.784 345.927,-136.372 339.509,-127.942 335.653,-133.784"/>
<text text-anchor="middle" x="329" y="-109.5" font-family="Helvetica,sans-Serif" font-size="10.00"> text</text>
</g>
<!-- Node6&#45;&gt;Node5 -->
<g id="edge6" class="edge"><title>Node6&#45;&gt;Node5</title>
<path fill="none" stroke="#9a32cd" stroke-dasharray="5,2" d="M365.023,-126.682C371.189,-105.07 378.731,-68.252 370,-38 368.095,-31.4006 364.047,-24.8597 360.379,-19.8689"/>
<polygon fill="#9a32cd" stroke="#9a32cd" points="361.603,-125.895 362.017,-136.482 368.295,-127.948 361.603,-125.895"/>
<text text-anchor="middle" x="385" y="-75.5" font-family="Helvetica,sans-Serif" font-size="10.00"> text</text>
</g>
</g>
</svg>
