<?xml version="1.0" encoding="UTF-8" standalone="no"?>
<!DOCTYPE svg PUBLIC "-//W3C//DTD SVG 1.1//EN"
 "http://www.w3.org/Graphics/SVG/1.1/DTD/svg11.dtd">
<!-- Generated by graphviz version 2.36.0 (20140111.2315)
 -->
<!-- Title: commands.ClearScreen.function Pages: 1 -->
<svg width="382pt" height="126pt"
 viewBox="0.00 0.00 382.00 126.00" xmlns="http://www.w3.org/2000/svg" xmlns:xlink="http://www.w3.org/1999/xlink">
<g id="graph0" class="graph" transform="scale(1 1) rotate(0) translate(4 122)">
<title>commands.ClearScreen.function</title>
<polygon fill="white" stroke="none" points="-4,4 -4,-122 378,-122 378,4 -4,4"/>
<!-- Node1 -->
<g id="node1" class="node"><title>Node1</title>
<polygon fill="#bfbfbf" stroke="black" points="0.5,-49.5 0.5,-68.5 173.5,-68.5 173.5,-49.5 0.5,-49.5"/>
<text text-anchor="middle" x="87" y="-56.5" font-family="Helvetica,sans-Serif" font-size="10.00">commands.ClearScreen.function</text>
</g>
<!-- Node2 -->
<g id="node2" class="node"><title>Node2</title>
<g id="a_node2"><a xlink:href="../../dd/d17/classapplication_1_1_model.html#a720c4d7864cbc6057f611cd2a33c3d8c" target="_top" xlink:title="application.Model.clearScreen\lProperty">
<polygon fill="white" stroke="black" points="212,-88 212,-118 372,-118 372,-88 212,-88"/>
<text text-anchor="start" x="220" y="-106" font-family="Helvetica,sans-Serif" font-size="10.00">application.Model.clearScreen</text>
<text text-anchor="middle" x="292" y="-95" font-family="Helvetica,sans-Serif" font-size="10.00">Property</text>
</a>
</g>
</g>
<!-- Node1&#45;&gt;Node2 -->
<g id="edge1" class="edge"><title>Node1&#45;&gt;Node2</title>
<path fill="none" stroke="midnightblue" d="M132.048,-68.5473C155.312,-73.5897 184.579,-79.9334 211.639,-85.7987"/>
<polygon fill="midnightblue" stroke="midnightblue" points="210.979,-89.2368 221.494,-87.9346 212.462,-82.3957 210.979,-89.2368"/>
</g>
<!-- Node3 -->
<g id="node3" class="node"><title>Node3</title>
<g id="a_node3"><a xlink:href="../../d7/d99/classtree_1_1_command_node.html#ae60b1b2f861235627eb90a0d1fa25814" target="_top" xlink:title="tree.CommandNode.getModel">
<polygon fill="white" stroke="black" points="211,-49.5 211,-68.5 373,-68.5 373,-49.5 211,-49.5"/>
<text text-anchor="middle" x="292" y="-56.5" font-family="Helvetica,sans-Serif" font-size="10.00">tree.CommandNode.getModel</text>
</a>
</g>
</g>
<!-- Node1&#45;&gt;Node3 -->
<g id="edge2" class="edge"><title>Node1&#45;&gt;Node3</title>
<path fill="none" stroke="midnightblue" d="M173.502,-59C182.477,-59 191.623,-59 200.65,-59"/>
<polygon fill="midnightblue" stroke="midnightblue" points="200.776,-62.5001 210.776,-59 200.776,-55.5001 200.776,-62.5001"/>
</g>
<!-- Node4 -->
<g id="node4" class="node"><title>Node4</title>
<g id="a_node4"><a xlink:href="../../d7/d99/classtree_1_1_command_node.html#a9f3dd4c2d2489cbbbc7e09e252a8c9a3" target="_top" xlink:title="tree.CommandNode.putObject\lInList">
<polygon fill="white" stroke="black" points="210,-0 210,-30 374,-30 374,-0 210,-0"/>
<text text-anchor="start" x="218" y="-18" font-family="Helvetica,sans-Serif" font-size="10.00">tree.CommandNode.putObject</text>
<text text-anchor="middle" x="292" y="-7" font-family="Helvetica,sans-Serif" font-size="10.00">InList</text>
</a>
</g>
</g>
<!-- Node1&#45;&gt;Node4 -->
<g id="edge3" class="edge"><title>Node1&#45;&gt;Node4</title>
<path fill="none" stroke="midnightblue" d="M132.048,-49.4527C155.312,-44.4103 184.579,-38.0666 211.639,-32.2013"/>
<polygon fill="midnightblue" stroke="midnightblue" points="212.462,-35.6043 221.494,-30.0654 210.979,-28.7632 212.462,-35.6043"/>
</g>
</g>
</svg>
