<?xml version="1.0" encoding="UTF-8" standalone="no"?>
<!DOCTYPE svg PUBLIC "-//W3C//DTD SVG 1.1//EN"
 "http://www.w3.org/Graphics/SVG/1.1/DTD/svg11.dtd">
<!-- Generated by graphviz version 2.36.0 (20140111.2315)
 -->
<!-- Title: application.Wrapper Pages: 1 -->
<svg width="189pt" height="108pt"
 viewBox="0.00 0.00 189.00 108.00" xmlns="http://www.w3.org/2000/svg" xmlns:xlink="http://www.w3.org/1999/xlink">
<g id="graph0" class="graph" transform="scale(1 1) rotate(0) translate(4 104)">
<title>application.Wrapper</title>
<polygon fill="white" stroke="none" points="-4,4 -4,-104 185,-104 185,4 -4,4"/>
<!-- Node1 -->
<g id="node1" class="node"><title>Node1</title>
<polygon fill="#bfbfbf" stroke="black" points="9,-0.5 9,-19.5 119,-19.5 119,-0.5 9,-0.5"/>
<text text-anchor="middle" x="64" y="-7.5" font-family="Helvetica,sans-Serif" font-size="10.00">application.Wrapper</text>
</g>
<!-- Node1&#45;&gt;Node1 -->
<g id="edge1" class="edge"><title>Node1&#45;&gt;Node1</title>
<path fill="none" stroke="#9a32cd" stroke-dasharray="5,2" d="M129.001,-14.7844C133.952,-13.7219 137,-12.1271 137,-10 137,-6.67969 129.574,-4.65637 119.073,-3.93005"/>
<polygon fill="#9a32cd" stroke="#9a32cd" points="128.541,-11.3146 119.073,-16.0699 129.44,-18.2567 128.541,-11.3146"/>
<text text-anchor="middle" x="159" y="-7.5" font-family="Helvetica,sans-Serif" font-size="10.00"> instance</text>
</g>
<!-- Node2 -->
<g id="node2" class="node"><title>Node2</title>
<polygon fill="white" stroke="#bfbfbf" points="0,-69 0,-99 128,-99 128,-69 0,-69"/>
<text text-anchor="start" x="8" y="-87" font-family="Helvetica,sans-Serif" font-size="10.00">List&lt; Pair&lt; application.</text>
<text text-anchor="middle" x="64" y="-76" font-family="Helvetica,sans-Serif" font-size="10.00">Model, view.View &gt; &gt;</text>
</g>
<!-- Node2&#45;&gt;Node1 -->
<g id="edge2" class="edge"><title>Node2&#45;&gt;Node1</title>
<path fill="none" stroke="#9a32cd" stroke-dasharray="5,2" d="M64,-58.6883C64,-45.2526 64,-29.3805 64,-19.7589"/>
<polygon fill="#9a32cd" stroke="#9a32cd" points="60.5001,-58.7751 64,-68.7751 67.5001,-58.7752 60.5001,-58.7751"/>
<text text-anchor="middle" x="98" y="-41.5" font-family="Helvetica,sans-Serif" font-size="10.00"> listOfWindows</text>
</g>
</g>
</svg>
