<?xml version="1.0" encoding="UTF-8" standalone="no"?>
<!DOCTYPE svg PUBLIC "-//W3C//DTD SVG 1.1//EN"
 "http://www.w3.org/Graphics/SVG/1.1/DTD/svg11.dtd">
<!-- Generated by graphviz version 2.36.0 (20140111.2315)
 -->
<!-- Title: view.ColorChooser.makeColorChooserPopUp Pages: 1 -->
<svg width="340pt" height="38pt"
 viewBox="0.00 0.00 340.00 38.00" xmlns="http://www.w3.org/2000/svg" xmlns:xlink="http://www.w3.org/1999/xlink">
<g id="graph0" class="graph" transform="scale(1 1) rotate(0) translate(4 34)">
<title>view.ColorChooser.makeColorChooserPopUp</title>
<polygon fill="white" stroke="none" points="-4,4 -4,-34 336,-34 336,4 -4,4"/>
<!-- Node1 -->
<g id="node1" class="node"><title>Node1</title>
<polygon fill="#bfbfbf" stroke="black" points="0,-0 0,-30 158,-30 158,-0 0,-0"/>
<text text-anchor="start" x="8" y="-18" font-family="Helvetica,sans-Serif" font-size="10.00">view.ColorChooser.makeColor</text>
<text text-anchor="middle" x="79" y="-7" font-family="Helvetica,sans-Serif" font-size="10.00">ChooserPopUp</text>
</g>
<!-- Node2 -->
<g id="node2" class="node"><title>Node2</title>
<g id="a_node2"><a xlink:href="../../d6/d05/classview_1_1_color_chooser.html#a66232fdbcddc16c0550b7094a0807028" target="_top" xlink:title="view.ColorChooser.format\lColorSelector">
<polygon fill="white" stroke="black" points="194,-0 194,-30 332,-30 332,-0 194,-0"/>
<text text-anchor="start" x="202" y="-18" font-family="Helvetica,sans-Serif" font-size="10.00">view.ColorChooser.format</text>
<text text-anchor="middle" x="263" y="-7" font-family="Helvetica,sans-Serif" font-size="10.00">ColorSelector</text>
</a>
</g>
</g>
<!-- Node1&#45;&gt;Node2 -->
<g id="edge1" class="edge"><title>Node1&#45;&gt;Node2</title>
<path fill="none" stroke="midnightblue" d="M158.241,-15C166.665,-15 175.239,-15 183.665,-15"/>
<polygon fill="midnightblue" stroke="midnightblue" points="183.85,-18.5001 193.85,-15 183.85,-11.5001 183.85,-18.5001"/>
</g>
</g>
</svg>
