<?xml version="1.0" encoding="UTF-8" standalone="no"?>
<!DOCTYPE svg PUBLIC "-//W3C//DTD SVG 1.1//EN"
 "http://www.w3.org/Graphics/SVG/1.1/DTD/svg11.dtd">
<!-- Generated by graphviz version 2.36.0 (20140111.2315)
 -->
<!-- Title: view.ColorChooser.getDisplay Pages: 1 -->
<svg width="340pt" height="66pt"
 viewBox="0.00 0.00 340.00 66.00" xmlns="http://www.w3.org/2000/svg" xmlns:xlink="http://www.w3.org/1999/xlink">
<g id="graph0" class="graph" transform="scale(1 1) rotate(0) translate(4 62)">
<title>view.ColorChooser.getDisplay</title>
<polygon fill="white" stroke="none" points="-4,4 -4,-62 336,-62 336,4 -4,4"/>
<!-- Node1 -->
<g id="node1" class="node"><title>Node1</title>
<polygon fill="#bfbfbf" stroke="black" points="0,-19.5 0,-38.5 156,-38.5 156,-19.5 0,-19.5"/>
<text text-anchor="middle" x="78" y="-26.5" font-family="Helvetica,sans-Serif" font-size="10.00">view.ColorChooser.getDisplay</text>
</g>
<!-- Node2 -->
<g id="node2" class="node"><title>Node2</title>
<g id="a_node2"><a xlink:href="../../d3/d1e/classview_1_1_button_bar.html#aa8a289cc71a7371eb1db46d4b4414f90" target="_top" xlink:title="view.ButtonBar.ButtonBar">
<polygon fill="white" stroke="black" points="192.5,-38.5 192.5,-57.5 331.5,-57.5 331.5,-38.5 192.5,-38.5"/>
<text text-anchor="middle" x="262" y="-45.5" font-family="Helvetica,sans-Serif" font-size="10.00">view.ButtonBar.ButtonBar</text>
</a>
</g>
</g>
<!-- Node1&#45;&gt;Node2 -->
<g id="edge1" class="edge"><title>Node1&#45;&gt;Node2</title>
<path fill="none" stroke="midnightblue" d="M166.38,-38.122C175.098,-39.0322 183.861,-39.947 192.348,-40.833"/>
<polygon fill="midnightblue" stroke="midnightblue" points="166.494,-34.615 156.184,-37.0577 165.767,-41.5772 166.494,-34.615"/>
</g>
<!-- Node3 -->
<g id="node3" class="node"><title>Node3</title>
<g id="a_node3"><a xlink:href="../../d3/dbe/classview_1_1_view.html#a1e751c597678b1122d0d5e898f67c872" target="_top" xlink:title="view.View.View">
<polygon fill="white" stroke="black" points="219.5,-0.5 219.5,-19.5 304.5,-19.5 304.5,-0.5 219.5,-0.5"/>
<text text-anchor="middle" x="262" y="-7.5" font-family="Helvetica,sans-Serif" font-size="10.00">view.View.View</text>
</a>
</g>
</g>
<!-- Node1&#45;&gt;Node3 -->
<g id="edge2" class="edge"><title>Node1&#45;&gt;Node3</title>
<path fill="none" stroke="midnightblue" d="M166.16,-19.9009C184.732,-17.962 203.519,-16.0008 219.417,-14.3411"/>
<polygon fill="midnightblue" stroke="midnightblue" points="165.767,-16.4228 156.184,-20.9423 166.494,-23.385 165.767,-16.4228"/>
</g>
</g>
</svg>
