<?xml version="1.0" encoding="UTF-8" standalone="no"?>
<!DOCTYPE svg PUBLIC "-//W3C//DTD SVG 1.1//EN"
 "http://www.w3.org/Graphics/SVG/1.1/DTD/svg11.dtd">
<!-- Generated by graphviz version 2.36.0 (20140111.2315)
 -->
<!-- Title: view.ColorChooser.makeColorChooserPopUp Pages: 1 -->
<svg width="822pt" height="38pt"
 viewBox="0.00 0.00 822.00 38.00" xmlns="http://www.w3.org/2000/svg" xmlns:xlink="http://www.w3.org/1999/xlink">
<g id="graph0" class="graph" transform="scale(1 1) rotate(0) translate(4 34)">
<title>view.ColorChooser.makeColorChooserPopUp</title>
<polygon fill="white" stroke="none" points="-4,4 -4,-34 818,-34 818,4 -4,4"/>
<!-- Node1 -->
<g id="node1" class="node"><title>Node1</title>
<polygon fill="#bfbfbf" stroke="black" points="0,-0 0,-30 158,-30 158,-0 0,-0"/>
<text text-anchor="start" x="8" y="-18" font-family="Helvetica,sans-Serif" font-size="10.00">view.ColorChooser.makeColor</text>
<text text-anchor="middle" x="79" y="-7" font-family="Helvetica,sans-Serif" font-size="10.00">ChooserPopUp</text>
</g>
<!-- Node2 -->
<g id="node2" class="node"><title>Node2</title>
<g id="a_node2"><a xlink:href="../../d3/d1e/classview_1_1_button_bar.html#a9663e7fffc7f3559097b76313739e507" target="_top" xlink:title="view.ButtonBar.makeButtonBar">
<polygon fill="white" stroke="black" points="194,-5.5 194,-24.5 360,-24.5 360,-5.5 194,-5.5"/>
<text text-anchor="middle" x="277" y="-12.5" font-family="Helvetica,sans-Serif" font-size="10.00">view.ButtonBar.makeButtonBar</text>
</a>
</g>
</g>
<!-- Node1&#45;&gt;Node2 -->
<g id="edge1" class="edge"><title>Node1&#45;&gt;Node2</title>
<path fill="none" stroke="midnightblue" d="M168.294,-15C176.764,-15 185.332,-15 193.741,-15"/>
<polygon fill="midnightblue" stroke="midnightblue" points="168.028,-11.5001 158.028,-15 168.028,-18.5001 168.028,-11.5001"/>
</g>
<!-- Node3 -->
<g id="node3" class="node"><title>Node3</title>
<g id="a_node3"><a xlink:href="../../d3/dbe/classview_1_1_view.html#aef3f2dd859a6a5c719987365a9afb905" target="_top" xlink:title="view.View.start">
<polygon fill="white" stroke="black" points="396,-5.5 396,-24.5 482,-24.5 482,-5.5 396,-5.5"/>
<text text-anchor="middle" x="439" y="-12.5" font-family="Helvetica,sans-Serif" font-size="10.00">view.View.start</text>
</a>
</g>
</g>
<!-- Node2&#45;&gt;Node3 -->
<g id="edge2" class="edge"><title>Node2&#45;&gt;Node3</title>
<path fill="none" stroke="midnightblue" d="M370.353,-15C379.163,-15 387.768,-15 395.726,-15"/>
<polygon fill="midnightblue" stroke="midnightblue" points="370.343,-11.5001 360.343,-15 370.343,-18.5001 370.343,-11.5001"/>
</g>
<!-- Node4 -->
<g id="node4" class="node"><title>Node4</title>
<g id="a_node4"><a xlink:href="../../d4/d9d/classapplication_1_1_wrapper.html#a4be5486a54f6d10d816c3ff49e82ecb9" target="_top" xlink:title="application.Wrapper.make\lNewWindow">
<polygon fill="white" stroke="black" points="518,-0 518,-30 658,-30 658,-0 518,-0"/>
<text text-anchor="start" x="526" y="-18" font-family="Helvetica,sans-Serif" font-size="10.00">application.Wrapper.make</text>
<text text-anchor="middle" x="588" y="-7" font-family="Helvetica,sans-Serif" font-size="10.00">NewWindow</text>
</a>
</g>
</g>
<!-- Node3&#45;&gt;Node4 -->
<g id="edge3" class="edge"><title>Node3&#45;&gt;Node4</title>
<path fill="none" stroke="midnightblue" d="M492.379,-15C500.668,-15 509.349,-15 517.949,-15"/>
<polygon fill="midnightblue" stroke="midnightblue" points="492.124,-11.5001 482.124,-15 492.124,-18.5001 492.124,-11.5001"/>
</g>
<!-- Node5 -->
<g id="node5" class="node"><title>Node5</title>
<g id="a_node5"><a xlink:href="../../d9/d96/classapplication_1_1_main.html#a4e5ad4e3de8bbd8654120180a94e870d" target="_top" xlink:title="application.Main.start">
<polygon fill="white" stroke="black" points="694.5,-5.5 694.5,-24.5 813.5,-24.5 813.5,-5.5 694.5,-5.5"/>
<text text-anchor="middle" x="754" y="-12.5" font-family="Helvetica,sans-Serif" font-size="10.00">application.Main.start</text>
</a>
</g>
</g>
<!-- Node4&#45;&gt;Node5 -->
<g id="edge4" class="edge"><title>Node4&#45;&gt;Node5</title>
<path fill="none" stroke="midnightblue" d="M668.335,-15C677.112,-15 685.929,-15 694.384,-15"/>
<polygon fill="midnightblue" stroke="midnightblue" points="668.075,-11.5001 658.075,-15 668.075,-18.5001 668.075,-11.5001"/>
</g>
</g>
</svg>
