<?xml version="1.0" encoding="UTF-8" standalone="no"?>
<!DOCTYPE svg PUBLIC "-//W3C//DTD SVG 1.1//EN"
 "http://www.w3.org/Graphics/SVG/1.1/DTD/svg11.dtd">
<!-- Generated by graphviz version 2.36.0 (20140111.2315)
 -->
<!-- Title: view.ColorChooser.formatColorSelector Pages: 1 -->
<svg width="996pt" height="38pt"
 viewBox="0.00 0.00 996.00 38.00" xmlns="http://www.w3.org/2000/svg" xmlns:xlink="http://www.w3.org/1999/xlink">
<g id="graph0" class="graph" transform="scale(1 1) rotate(0) translate(4 34)">
<title>view.ColorChooser.formatColorSelector</title>
<polygon fill="white" stroke="none" points="-4,4 -4,-34 992,-34 992,4 -4,4"/>
<!-- Node1 -->
<g id="node1" class="node"><title>Node1</title>
<polygon fill="#bfbfbf" stroke="black" points="0,-0 0,-30 138,-30 138,-0 0,-0"/>
<text text-anchor="start" x="8" y="-18" font-family="Helvetica,sans-Serif" font-size="10.00">view.ColorChooser.format</text>
<text text-anchor="middle" x="69" y="-7" font-family="Helvetica,sans-Serif" font-size="10.00">ColorSelector</text>
</g>
<!-- Node2 -->
<g id="node2" class="node"><title>Node2</title>
<g id="a_node2"><a xlink:href="../../d6/d05/classview_1_1_color_chooser.html#aeff346e71fef58d80a7e9e2ee22e8232" target="_top" xlink:title="view.ColorChooser.makeColor\lChooserPopUp">
<polygon fill="white" stroke="black" points="174,-0 174,-30 332,-30 332,-0 174,-0"/>
<text text-anchor="start" x="182" y="-18" font-family="Helvetica,sans-Serif" font-size="10.00">view.ColorChooser.makeColor</text>
<text text-anchor="middle" x="253" y="-7" font-family="Helvetica,sans-Serif" font-size="10.00">ChooserPopUp</text>
</a>
</g>
</g>
<!-- Node1&#45;&gt;Node2 -->
<g id="edge1" class="edge"><title>Node1&#45;&gt;Node2</title>
<path fill="none" stroke="midnightblue" d="M148.301,-15C156.801,-15 165.451,-15 173.947,-15"/>
<polygon fill="midnightblue" stroke="midnightblue" points="148.029,-11.5001 138.029,-15 148.029,-18.5001 148.029,-11.5001"/>
</g>
<!-- Node3 -->
<g id="node3" class="node"><title>Node3</title>
<g id="a_node3"><a xlink:href="../../d3/d1e/classview_1_1_button_bar.html#a9663e7fffc7f3559097b76313739e507" target="_top" xlink:title="view.ButtonBar.makeButtonBar">
<polygon fill="white" stroke="black" points="368,-5.5 368,-24.5 534,-24.5 534,-5.5 368,-5.5"/>
<text text-anchor="middle" x="451" y="-12.5" font-family="Helvetica,sans-Serif" font-size="10.00">view.ButtonBar.makeButtonBar</text>
</a>
</g>
</g>
<!-- Node2&#45;&gt;Node3 -->
<g id="edge2" class="edge"><title>Node2&#45;&gt;Node3</title>
<path fill="none" stroke="midnightblue" d="M342.294,-15C350.764,-15 359.332,-15 367.741,-15"/>
<polygon fill="midnightblue" stroke="midnightblue" points="342.028,-11.5001 332.028,-15 342.028,-18.5001 342.028,-11.5001"/>
</g>
<!-- Node4 -->
<g id="node4" class="node"><title>Node4</title>
<g id="a_node4"><a xlink:href="../../d3/dbe/classview_1_1_view.html#aef3f2dd859a6a5c719987365a9afb905" target="_top" xlink:title="view.View.start">
<polygon fill="white" stroke="black" points="570,-5.5 570,-24.5 656,-24.5 656,-5.5 570,-5.5"/>
<text text-anchor="middle" x="613" y="-12.5" font-family="Helvetica,sans-Serif" font-size="10.00">view.View.start</text>
</a>
</g>
</g>
<!-- Node3&#45;&gt;Node4 -->
<g id="edge3" class="edge"><title>Node3&#45;&gt;Node4</title>
<path fill="none" stroke="midnightblue" d="M544.353,-15C553.163,-15 561.768,-15 569.726,-15"/>
<polygon fill="midnightblue" stroke="midnightblue" points="544.343,-11.5001 534.343,-15 544.343,-18.5001 544.343,-11.5001"/>
</g>
<!-- Node5 -->
<g id="node5" class="node"><title>Node5</title>
<g id="a_node5"><a xlink:href="../../d4/d9d/classapplication_1_1_wrapper.html#a4be5486a54f6d10d816c3ff49e82ecb9" target="_top" xlink:title="application.Wrapper.make\lNewWindow">
<polygon fill="white" stroke="black" points="692,-0 692,-30 832,-30 832,-0 692,-0"/>
<text text-anchor="start" x="700" y="-18" font-family="Helvetica,sans-Serif" font-size="10.00">application.Wrapper.make</text>
<text text-anchor="middle" x="762" y="-7" font-family="Helvetica,sans-Serif" font-size="10.00">NewWindow</text>
</a>
</g>
</g>
<!-- Node4&#45;&gt;Node5 -->
<g id="edge4" class="edge"><title>Node4&#45;&gt;Node5</title>
<path fill="none" stroke="midnightblue" d="M666.379,-15C674.668,-15 683.349,-15 691.949,-15"/>
<polygon fill="midnightblue" stroke="midnightblue" points="666.124,-11.5001 656.124,-15 666.124,-18.5001 666.124,-11.5001"/>
</g>
<!-- Node6 -->
<g id="node6" class="node"><title>Node6</title>
<g id="a_node6"><a xlink:href="../../d9/d96/classapplication_1_1_main.html#a4e5ad4e3de8bbd8654120180a94e870d" target="_top" xlink:title="application.Main.start">
<polygon fill="white" stroke="black" points="868.5,-5.5 868.5,-24.5 987.5,-24.5 987.5,-5.5 868.5,-5.5"/>
<text text-anchor="middle" x="928" y="-12.5" font-family="Helvetica,sans-Serif" font-size="10.00">application.Main.start</text>
</a>
</g>
</g>
<!-- Node5&#45;&gt;Node6 -->
<g id="edge5" class="edge"><title>Node5&#45;&gt;Node6</title>
<path fill="none" stroke="midnightblue" d="M842.335,-15C851.112,-15 859.929,-15 868.384,-15"/>
<polygon fill="midnightblue" stroke="midnightblue" points="842.075,-11.5001 832.075,-15 842.075,-18.5001 842.075,-11.5001"/>
</g>
</g>
</svg>
