<?xml version="1.0" encoding="UTF-8" standalone="no"?>
<!DOCTYPE svg PUBLIC "-//W3C//DTD SVG 1.1//EN"
 "http://www.w3.org/Graphics/SVG/1.1/DTD/svg11.dtd">
<!-- Generated by graphviz version 2.36.0 (20140111.2315)
 -->
<!-- Title: syntax.GroupHandler.setGroupDepthCount Pages: 1 -->
<svg width="384pt" height="66pt"
 viewBox="0.00 0.00 384.00 66.00" xmlns="http://www.w3.org/2000/svg" xmlns:xlink="http://www.w3.org/1999/xlink">
<g id="graph0" class="graph" transform="scale(1 1) rotate(0) translate(4 62)">
<title>syntax.GroupHandler.setGroupDepthCount</title>
<polygon fill="white" stroke="none" points="-4,4 -4,-62 380,-62 380,4 -4,4"/>
<!-- Node1 -->
<g id="node1" class="node"><title>Node1</title>
<polygon fill="#bfbfbf" stroke="black" points="0,-14 0,-44 164,-44 164,-14 0,-14"/>
<text text-anchor="start" x="8" y="-32" font-family="Helvetica,sans-Serif" font-size="10.00">syntax.GroupHandler.setGroup</text>
<text text-anchor="middle" x="82" y="-21" font-family="Helvetica,sans-Serif" font-size="10.00">DepthCount</text>
</g>
<!-- Node2 -->
<g id="node2" class="node"><title>Node2</title>
<g id="a_node2"><a xlink:href="../../dc/d06/classsyntax_1_1_group_end_handler.html#a990191944b4016ff7cb32786f13c11b3" target="_top" xlink:title="syntax.GroupEndHandler.handle">
<polygon fill="white" stroke="black" points="203,-38.5 203,-57.5 373,-57.5 373,-38.5 203,-38.5"/>
<text text-anchor="middle" x="288" y="-45.5" font-family="Helvetica,sans-Serif" font-size="10.00">syntax.GroupEndHandler.handle</text>
</a>
</g>
</g>
<!-- Node1&#45;&gt;Node2 -->
<g id="edge1" class="edge"><title>Node1&#45;&gt;Node2</title>
<path fill="none" stroke="midnightblue" d="M174.385,-37.5114C183.819,-38.39 193.375,-39.28 202.726,-40.1509"/>
<polygon fill="midnightblue" stroke="midnightblue" points="174.494,-34.0064 164.212,-36.5639 173.845,-40.9763 174.494,-34.0064"/>
</g>
<!-- Node3 -->
<g id="node3" class="node"><title>Node3</title>
<g id="a_node3"><a xlink:href="../../d9/df4/classsyntax_1_1_group_start_handler.html#a5e6a1bacb757f6223060b048db106211" target="_top" xlink:title="syntax.GroupStartHandler.handle">
<polygon fill="white" stroke="black" points="200,-0.5 200,-19.5 376,-19.5 376,-0.5 200,-0.5"/>
<text text-anchor="middle" x="288" y="-7.5" font-family="Helvetica,sans-Serif" font-size="10.00">syntax.GroupStartHandler.handle</text>
</a>
</g>
</g>
<!-- Node1&#45;&gt;Node3 -->
<g id="edge2" class="edge"><title>Node1&#45;&gt;Node3</title>
<path fill="none" stroke="midnightblue" d="M174.409,-20.4864C182.821,-19.703 191.329,-18.9105 199.703,-18.1306"/>
<polygon fill="midnightblue" stroke="midnightblue" points="173.845,-17.0237 164.212,-21.4361 174.494,-23.9936 173.845,-17.0237"/>
</g>
</g>
</svg>
