<?xml version="1.0" encoding="UTF-8" standalone="no"?>
<!DOCTYPE svg PUBLIC "-//W3C//DTD SVG 1.1//EN"
 "http://www.w3.org/Graphics/SVG/1.1/DTD/svg11.dtd">
<!-- Generated by graphviz version 2.36.0 (20140111.2315)
 -->
<!-- Title: syntax.GroupHandler.getGroupDepthCount Pages: 1 -->
<svg width="386pt" height="66pt"
 viewBox="0.00 0.00 386.00 66.00" xmlns="http://www.w3.org/2000/svg" xmlns:xlink="http://www.w3.org/1999/xlink">
<g id="graph0" class="graph" transform="scale(1 1) rotate(0) translate(4 62)">
<title>syntax.GroupHandler.getGroupDepthCount</title>
<polygon fill="white" stroke="none" points="-4,4 -4,-62 382,-62 382,4 -4,4"/>
<!-- Node1 -->
<g id="node1" class="node"><title>Node1</title>
<polygon fill="#bfbfbf" stroke="black" points="0.5,-14 0.5,-44 165.5,-44 165.5,-14 0.5,-14"/>
<text text-anchor="start" x="8.5" y="-32" font-family="Helvetica,sans-Serif" font-size="10.00">syntax.GroupHandler.getGroup</text>
<text text-anchor="middle" x="83" y="-21" font-family="Helvetica,sans-Serif" font-size="10.00">DepthCount</text>
</g>
<!-- Node2 -->
<g id="node2" class="node"><title>Node2</title>
<g id="a_node2"><a xlink:href="../../dc/d06/classsyntax_1_1_group_end_handler.html#a990191944b4016ff7cb32786f13c11b3" target="_top" xlink:title="syntax.GroupEndHandler.handle">
<polygon fill="white" stroke="black" points="205,-38.5 205,-57.5 375,-57.5 375,-38.5 205,-38.5"/>
<text text-anchor="middle" x="290" y="-45.5" font-family="Helvetica,sans-Serif" font-size="10.00">syntax.GroupEndHandler.handle</text>
</a>
</g>
</g>
<!-- Node1&#45;&gt;Node2 -->
<g id="edge1" class="edge"><title>Node1&#45;&gt;Node2</title>
<path fill="none" stroke="midnightblue" d="M175.706,-37.4996C185.453,-38.403 195.333,-39.3186 204.986,-40.2133"/>
<polygon fill="midnightblue" stroke="midnightblue" points="175.891,-34.0018 165.61,-36.5639 175.245,-40.9719 175.891,-34.0018"/>
</g>
<!-- Node3 -->
<g id="node3" class="node"><title>Node3</title>
<g id="a_node3"><a xlink:href="../../d9/df4/classsyntax_1_1_group_start_handler.html#a5e6a1bacb757f6223060b048db106211" target="_top" xlink:title="syntax.GroupStartHandler.handle">
<polygon fill="white" stroke="black" points="202,-0.5 202,-19.5 378,-19.5 378,-0.5 202,-0.5"/>
<text text-anchor="middle" x="290" y="-7.5" font-family="Helvetica,sans-Serif" font-size="10.00">syntax.GroupStartHandler.handle</text>
</a>
</g>
</g>
<!-- Node1&#45;&gt;Node3 -->
<g id="edge2" class="edge"><title>Node1&#45;&gt;Node3</title>
<path fill="none" stroke="midnightblue" d="M175.769,-20.4945C184.477,-19.6875 193.29,-18.8707 201.951,-18.0679"/>
<polygon fill="midnightblue" stroke="midnightblue" points="175.245,-17.0281 165.61,-21.4361 175.891,-23.9982 175.245,-17.0281"/>
</g>
</g>
</svg>
