<?xml version="1.0" encoding="UTF-8" standalone="no"?>
<!DOCTYPE svg PUBLIC "-//W3C//DTD SVG 1.1//EN"
 "http://www.w3.org/Graphics/SVG/1.1/DTD/svg11.dtd">
<!-- Generated by graphviz version 2.36.0 (20140111.2315)
 -->
<!-- Title: view.EnterCommands.clearHistory Pages: 1 -->
<svg width="344pt" height="38pt"
 viewBox="0.00 0.00 344.00 38.00" xmlns="http://www.w3.org/2000/svg" xmlns:xlink="http://www.w3.org/1999/xlink">
<g id="graph0" class="graph" transform="scale(1 1) rotate(0) translate(4 34)">
<title>view.EnterCommands.clearHistory</title>
<polygon fill="white" stroke="none" points="-4,4 -4,-34 340,-34 340,4 -4,4"/>
<!-- Node1 -->
<g id="node1" class="node"><title>Node1</title>
<polygon fill="#bfbfbf" stroke="black" points="0,-0 0,-30 146,-30 146,-0 0,-0"/>
<text text-anchor="start" x="8" y="-18" font-family="Helvetica,sans-Serif" font-size="10.00">view.EnterCommands.clear</text>
<text text-anchor="middle" x="73" y="-7" font-family="Helvetica,sans-Serif" font-size="10.00">History</text>
</g>
<!-- Node2 -->
<g id="node2" class="node"><title>Node2</title>
<g id="a_node2"><a xlink:href="../../d2/d22/classview_1_1_previous_commands.html#ac81954fc7397e066d454cfd63fc9e2e0" target="_top" xlink:title="view.PreviousCommands.get\lTextArea">
<polygon fill="white" stroke="black" points="182,-0 182,-30 336,-30 336,-0 182,-0"/>
<text text-anchor="start" x="190" y="-18" font-family="Helvetica,sans-Serif" font-size="10.00">view.PreviousCommands.get</text>
<text text-anchor="middle" x="259" y="-7" font-family="Helvetica,sans-Serif" font-size="10.00">TextArea</text>
</a>
</g>
</g>
<!-- Node1&#45;&gt;Node2 -->
<g id="edge1" class="edge"><title>Node1&#45;&gt;Node2</title>
<path fill="none" stroke="midnightblue" d="M146.194,-15C154.497,-15 163.026,-15 171.492,-15"/>
<polygon fill="midnightblue" stroke="midnightblue" points="171.77,-18.5001 181.77,-15 171.77,-11.5001 171.77,-18.5001"/>
</g>
</g>
</svg>
