<?xml version="1.0" encoding="UTF-8" standalone="no"?>
<!DOCTYPE svg PUBLIC "-//W3C//DTD SVG 1.1//EN"
 "http://www.w3.org/Graphics/SVG/1.1/DTD/svg11.dtd">
<!-- Generated by graphviz version 2.36.0 (20140111.2315)
 -->
<!-- Title: view.EnterCommands.init Pages: 1 -->
<svg width="1030pt" height="38pt"
 viewBox="0.00 0.00 1030.00 38.00" xmlns="http://www.w3.org/2000/svg" xmlns:xlink="http://www.w3.org/1999/xlink">
<g id="graph0" class="graph" transform="scale(1 1) rotate(0) translate(4 34)">
<title>view.EnterCommands.init</title>
<polygon fill="white" stroke="none" points="-4,4 -4,-34 1026,-34 1026,4 -4,4"/>
<!-- Node1 -->
<g id="node1" class="node"><title>Node1</title>
<polygon fill="#bfbfbf" stroke="black" points="0.5,-5.5 0.5,-24.5 137.5,-24.5 137.5,-5.5 0.5,-5.5"/>
<text text-anchor="middle" x="69" y="-12.5" font-family="Helvetica,sans-Serif" font-size="10.00">view.EnterCommands.init</text>
</g>
<!-- Node2 -->
<g id="node2" class="node"><title>Node2</title>
<g id="a_node2"><a xlink:href="../../d3/dfc/classview_1_1_enter_commands.html#a4ae967866de547c659252867cdc41ce5" target="_top" xlink:title="view.EnterCommands.runCommand">
<polygon fill="white" stroke="black" points="174.5,-5.5 174.5,-24.5 363.5,-24.5 363.5,-5.5 174.5,-5.5"/>
<text text-anchor="middle" x="269" y="-12.5" font-family="Helvetica,sans-Serif" font-size="10.00">view.EnterCommands.runCommand</text>
</a>
</g>
</g>
<!-- Node1&#45;&gt;Node2 -->
<g id="edge1" class="edge"><title>Node1&#45;&gt;Node2</title>
<path fill="none" stroke="midnightblue" d="M147.748,-15C156.511,-15 165.506,-15 174.443,-15"/>
<polygon fill="midnightblue" stroke="midnightblue" points="147.587,-11.5001 137.587,-15 147.587,-18.5001 147.587,-11.5001"/>
</g>
<!-- Node3 -->
<g id="node3" class="node"><title>Node3</title>
<g id="a_node3"><a xlink:href="../../d3/dfc/classview_1_1_enter_commands.html#aeb289f93b5ba654a92cbdd49fd97a125" target="_top" xlink:title="view.EnterCommands.makeBox">
<polygon fill="white" stroke="black" points="400,-5.5 400,-24.5 568,-24.5 568,-5.5 400,-5.5"/>
<text text-anchor="middle" x="484" y="-12.5" font-family="Helvetica,sans-Serif" font-size="10.00">view.EnterCommands.makeBox</text>
</a>
</g>
</g>
<!-- Node2&#45;&gt;Node3 -->
<g id="edge2" class="edge"><title>Node2&#45;&gt;Node3</title>
<path fill="none" stroke="midnightblue" d="M373.944,-15C382.662,-15 391.402,-15 399.931,-15"/>
<polygon fill="midnightblue" stroke="midnightblue" points="373.735,-11.5001 363.735,-15 373.735,-18.5001 373.735,-11.5001"/>
</g>
<!-- Node4 -->
<g id="node4" class="node"><title>Node4</title>
<g id="a_node4"><a xlink:href="../../d3/dbe/classview_1_1_view.html#aef3f2dd859a6a5c719987365a9afb905" target="_top" xlink:title="view.View.start">
<polygon fill="white" stroke="black" points="604,-5.5 604,-24.5 690,-24.5 690,-5.5 604,-5.5"/>
<text text-anchor="middle" x="647" y="-12.5" font-family="Helvetica,sans-Serif" font-size="10.00">view.View.start</text>
</a>
</g>
</g>
<!-- Node3&#45;&gt;Node4 -->
<g id="edge3" class="edge"><title>Node3&#45;&gt;Node4</title>
<path fill="none" stroke="midnightblue" d="M578.357,-15C587.18,-15 595.791,-15 603.752,-15"/>
<polygon fill="midnightblue" stroke="midnightblue" points="578.33,-11.5001 568.33,-15 578.33,-18.5001 578.33,-11.5001"/>
</g>
<!-- Node5 -->
<g id="node5" class="node"><title>Node5</title>
<g id="a_node5"><a xlink:href="../../d4/d9d/classapplication_1_1_wrapper.html#a4be5486a54f6d10d816c3ff49e82ecb9" target="_top" xlink:title="application.Wrapper.make\lNewWindow">
<polygon fill="white" stroke="black" points="726,-0 726,-30 866,-30 866,-0 726,-0"/>
<text text-anchor="start" x="734" y="-18" font-family="Helvetica,sans-Serif" font-size="10.00">application.Wrapper.make</text>
<text text-anchor="middle" x="796" y="-7" font-family="Helvetica,sans-Serif" font-size="10.00">NewWindow</text>
</a>
</g>
</g>
<!-- Node4&#45;&gt;Node5 -->
<g id="edge4" class="edge"><title>Node4&#45;&gt;Node5</title>
<path fill="none" stroke="midnightblue" d="M700.379,-15C708.668,-15 717.349,-15 725.949,-15"/>
<polygon fill="midnightblue" stroke="midnightblue" points="700.124,-11.5001 690.124,-15 700.124,-18.5001 700.124,-11.5001"/>
</g>
<!-- Node6 -->
<g id="node6" class="node"><title>Node6</title>
<g id="a_node6"><a xlink:href="../../d9/d96/classapplication_1_1_main.html#a4e5ad4e3de8bbd8654120180a94e870d" target="_top" xlink:title="application.Main.start">
<polygon fill="white" stroke="black" points="902.5,-5.5 902.5,-24.5 1021.5,-24.5 1021.5,-5.5 902.5,-5.5"/>
<text text-anchor="middle" x="962" y="-12.5" font-family="Helvetica,sans-Serif" font-size="10.00">application.Main.start</text>
</a>
</g>
</g>
<!-- Node5&#45;&gt;Node6 -->
<g id="edge5" class="edge"><title>Node5&#45;&gt;Node6</title>
<path fill="none" stroke="midnightblue" d="M876.335,-15C885.112,-15 893.929,-15 902.384,-15"/>
<polygon fill="midnightblue" stroke="midnightblue" points="876.075,-11.5001 866.075,-15 876.075,-18.5001 876.075,-11.5001"/>
</g>
</g>
</svg>
