<?xml version="1.0" encoding="UTF-8" standalone="no"?>
<!DOCTYPE svg PUBLIC "-//W3C//DTD SVG 1.1//EN"
 "http://www.w3.org/Graphics/SVG/1.1/DTD/svg11.dtd">
<!-- Generated by graphviz version 2.36.0 (20140111.2315)
 -->
<!-- Title: view.EnterCommands.uploadCommand Pages: 1 -->
<svg width="996pt" height="38pt"
 viewBox="0.00 0.00 996.00 38.00" xmlns="http://www.w3.org/2000/svg" xmlns:xlink="http://www.w3.org/1999/xlink">
<g id="graph0" class="graph" transform="scale(1 1) rotate(0) translate(4 34)">
<title>view.EnterCommands.uploadCommand</title>
<polygon fill="white" stroke="none" points="-4,4 -4,-34 992,-34 992,4 -4,4"/>
<!-- Node1 -->
<g id="node1" class="node"><title>Node1</title>
<polygon fill="#bfbfbf" stroke="black" points="0.5,-0 0.5,-30 155.5,-30 155.5,-0 0.5,-0"/>
<text text-anchor="start" x="8.5" y="-18" font-family="Helvetica,sans-Serif" font-size="10.00">view.EnterCommands.upload</text>
<text text-anchor="middle" x="78" y="-7" font-family="Helvetica,sans-Serif" font-size="10.00">Command</text>
</g>
<!-- Node2 -->
<g id="node2" class="node"><title>Node2</title>
<g id="a_node2"><a xlink:href="../../de/d83/classview_1_1_import_design.html#a28c331a446c4c74cfc94149e5ceb0977" target="_top" xlink:title="view.ImportDesign.choose\lDesign">
<polygon fill="white" stroke="black" points="192.5,-0 192.5,-30 333.5,-30 333.5,-0 192.5,-0"/>
<text text-anchor="start" x="200.5" y="-18" font-family="Helvetica,sans-Serif" font-size="10.00">view.ImportDesign.choose</text>
<text text-anchor="middle" x="263" y="-7" font-family="Helvetica,sans-Serif" font-size="10.00">Design</text>
</a>
</g>
</g>
<!-- Node1&#45;&gt;Node2 -->
<g id="edge1" class="edge"><title>Node1&#45;&gt;Node2</title>
<path fill="none" stroke="midnightblue" d="M165.655,-15C174.647,-15 183.701,-15 192.469,-15"/>
<polygon fill="midnightblue" stroke="midnightblue" points="165.548,-11.5001 155.548,-15 165.548,-18.5001 165.548,-11.5001"/>
</g>
<!-- Node3 -->
<g id="node3" class="node"><title>Node3</title>
<g id="a_node3"><a xlink:href="../../de/d83/classview_1_1_import_design.html#abbb01e02f74d5d3492cdc9befa9acd11" target="_top" xlink:title="view.ImportDesign.openDesign">
<polygon fill="white" stroke="black" points="370,-5.5 370,-24.5 534,-24.5 534,-5.5 370,-5.5"/>
<text text-anchor="middle" x="452" y="-12.5" font-family="Helvetica,sans-Serif" font-size="10.00">view.ImportDesign.openDesign</text>
</a>
</g>
</g>
<!-- Node2&#45;&gt;Node3 -->
<g id="edge2" class="edge"><title>Node2&#45;&gt;Node3</title>
<path fill="none" stroke="midnightblue" d="M343.731,-15C352.414,-15 361.258,-15 369.956,-15"/>
<polygon fill="midnightblue" stroke="midnightblue" points="343.632,-11.5001 333.632,-15 343.632,-18.5001 343.632,-11.5001"/>
</g>
<!-- Node4 -->
<g id="node4" class="node"><title>Node4</title>
<g id="a_node4"><a xlink:href="../../d3/dbe/classview_1_1_view.html#aef3f2dd859a6a5c719987365a9afb905" target="_top" xlink:title="view.View.start">
<polygon fill="white" stroke="black" points="570,-5.5 570,-24.5 656,-24.5 656,-5.5 570,-5.5"/>
<text text-anchor="middle" x="613" y="-12.5" font-family="Helvetica,sans-Serif" font-size="10.00">view.View.start</text>
</a>
</g>
</g>
<!-- Node3&#45;&gt;Node4 -->
<g id="edge3" class="edge"><title>Node3&#45;&gt;Node4</title>
<path fill="none" stroke="midnightblue" d="M544.638,-15C553.335,-15 561.834,-15 569.704,-15"/>
<polygon fill="midnightblue" stroke="midnightblue" points="544.363,-11.5001 534.363,-15 544.363,-18.5001 544.363,-11.5001"/>
</g>
<!-- Node5 -->
<g id="node5" class="node"><title>Node5</title>
<g id="a_node5"><a xlink:href="../../d4/d9d/classapplication_1_1_wrapper.html#a4be5486a54f6d10d816c3ff49e82ecb9" target="_top" xlink:title="application.Wrapper.make\lNewWindow">
<polygon fill="white" stroke="black" points="692,-0 692,-30 832,-30 832,-0 692,-0"/>
<text text-anchor="start" x="700" y="-18" font-family="Helvetica,sans-Serif" font-size="10.00">application.Wrapper.make</text>
<text text-anchor="middle" x="762" y="-7" font-family="Helvetica,sans-Serif" font-size="10.00">NewWindow</text>
</a>
</g>
</g>
<!-- Node4&#45;&gt;Node5 -->
<g id="edge4" class="edge"><title>Node4&#45;&gt;Node5</title>
<path fill="none" stroke="midnightblue" d="M666.379,-15C674.668,-15 683.349,-15 691.949,-15"/>
<polygon fill="midnightblue" stroke="midnightblue" points="666.124,-11.5001 656.124,-15 666.124,-18.5001 666.124,-11.5001"/>
</g>
<!-- Node6 -->
<g id="node6" class="node"><title>Node6</title>
<g id="a_node6"><a xlink:href="../../d9/d96/classapplication_1_1_main.html#a4e5ad4e3de8bbd8654120180a94e870d" target="_top" xlink:title="application.Main.start">
<polygon fill="white" stroke="black" points="868.5,-5.5 868.5,-24.5 987.5,-24.5 987.5,-5.5 868.5,-5.5"/>
<text text-anchor="middle" x="928" y="-12.5" font-family="Helvetica,sans-Serif" font-size="10.00">application.Main.start</text>
</a>
</g>
</g>
<!-- Node5&#45;&gt;Node6 -->
<g id="edge5" class="edge"><title>Node5&#45;&gt;Node6</title>
<path fill="none" stroke="midnightblue" d="M842.335,-15C851.112,-15 859.929,-15 868.384,-15"/>
<polygon fill="midnightblue" stroke="midnightblue" points="842.075,-11.5001 832.075,-15 842.075,-18.5001 842.075,-11.5001"/>
</g>
</g>
</svg>
