<?xml version="1.0" encoding="UTF-8" standalone="no"?>
<!DOCTYPE svg PUBLIC "-//W3C//DTD SVG 1.1//EN"
 "http://www.w3.org/Graphics/SVG/1.1/DTD/svg11.dtd">
<!-- Generated by graphviz version 2.36.0 (20140111.2315)
 -->
<!-- Title: view.EnterCommands.makeBox Pages: 1 -->
<svg width="610pt" height="77pt"
 viewBox="0.00 0.00 610.00 77.00" xmlns="http://www.w3.org/2000/svg" xmlns:xlink="http://www.w3.org/1999/xlink">
<g id="graph0" class="graph" transform="scale(1 1) rotate(0) translate(4 73)">
<title>view.EnterCommands.makeBox</title>
<polygon fill="white" stroke="none" points="-4,4 -4,-73 606,-73 606,4 -4,4"/>
<!-- Node1 -->
<g id="node1" class="node"><title>Node1</title>
<polygon fill="#bfbfbf" stroke="black" points="0,-27.5 0,-46.5 168,-46.5 168,-27.5 0,-27.5"/>
<text text-anchor="middle" x="84" y="-34.5" font-family="Helvetica,sans-Serif" font-size="10.00">view.EnterCommands.makeBox</text>
</g>
<!-- Node2 -->
<g id="node2" class="node"><title>Node2</title>
<g id="a_node2"><a xlink:href="../../d3/dfc/classview_1_1_enter_commands.html#a4ae967866de547c659252867cdc41ce5" target="_top" xlink:title="view.EnterCommands.runCommand">
<polygon fill="white" stroke="black" points="204.5,-27.5 204.5,-46.5 393.5,-46.5 393.5,-27.5 204.5,-27.5"/>
<text text-anchor="middle" x="299" y="-34.5" font-family="Helvetica,sans-Serif" font-size="10.00">view.EnterCommands.runCommand</text>
</a>
</g>
</g>
<!-- Node1&#45;&gt;Node2 -->
<g id="edge1" class="edge"><title>Node1&#45;&gt;Node2</title>
<path fill="none" stroke="midnightblue" d="M168.266,-37C176.737,-37 185.413,-37 194.067,-37"/>
<polygon fill="midnightblue" stroke="midnightblue" points="194.202,-40.5001 204.202,-37 194.202,-33.5001 194.202,-40.5001"/>
</g>
<!-- Node3 -->
<g id="node3" class="node"><title>Node3</title>
<g id="a_node3"><a xlink:href="../../d3/dfc/classview_1_1_enter_commands.html#a27689d1e232eda1d9e0fe966becb8167" target="_top" xlink:title="view.EnterCommands.init">
<polygon fill="white" stroke="black" points="447.5,-49.5 447.5,-68.5 584.5,-68.5 584.5,-49.5 447.5,-49.5"/>
<text text-anchor="middle" x="516" y="-56.5" font-family="Helvetica,sans-Serif" font-size="10.00">view.EnterCommands.init</text>
</a>
</g>
</g>
<!-- Node2&#45;&gt;Node3 -->
<g id="edge2" class="edge"><title>Node2&#45;&gt;Node3</title>
<path fill="none" stroke="midnightblue" d="M393.052,-46.5216C407.755,-48.0261 422.825,-49.5681 437.135,-51.0324"/>
<polygon fill="midnightblue" stroke="midnightblue" points="437.1,-54.5471 447.405,-52.0833 437.813,-47.5834 437.1,-54.5471"/>
</g>
<!-- Node4 -->
<g id="node4" class="node"><title>Node4</title>
<g id="a_node4"><a xlink:href="../../d2/d22/classview_1_1_previous_commands.html#a8a4fd1bef3b409528deebf149b9417e6" target="_top" xlink:title="view.PreviousCommands.update\lTextArea">
<polygon fill="white" stroke="black" points="430,-0 430,-30 602,-30 602,-0 430,-0"/>
<text text-anchor="start" x="438" y="-18" font-family="Helvetica,sans-Serif" font-size="10.00">view.PreviousCommands.update</text>
<text text-anchor="middle" x="516" y="-7" font-family="Helvetica,sans-Serif" font-size="10.00">TextArea</text>
</a>
</g>
</g>
<!-- Node2&#45;&gt;Node4 -->
<g id="edge3" class="edge"><title>Node2&#45;&gt;Node4</title>
<path fill="none" stroke="midnightblue" d="M393.052,-27.4784C401.957,-26.5672 410.997,-25.6422 419.921,-24.729"/>
<polygon fill="midnightblue" stroke="midnightblue" points="420.343,-28.2042 429.935,-23.7044 419.63,-21.2406 420.343,-28.2042"/>
</g>
</g>
</svg>
