<?xml version="1.0" encoding="UTF-8" standalone="no"?>
<!DOCTYPE svg PUBLIC "-//W3C//DTD SVG 1.1//EN"
 "http://www.w3.org/Graphics/SVG/1.1/DTD/svg11.dtd">
<!-- Generated by graphviz version 2.36.0 (20140111.2315)
 -->
<!-- Title: view.EnterCommands.runCommand Pages: 1 -->
<svg width="406pt" height="77pt"
 viewBox="0.00 0.00 406.00 77.00" xmlns="http://www.w3.org/2000/svg" xmlns:xlink="http://www.w3.org/1999/xlink">
<g id="graph0" class="graph" transform="scale(1 1) rotate(0) translate(4 73)">
<title>view.EnterCommands.runCommand</title>
<polygon fill="white" stroke="none" points="-4,4 -4,-73 402,-73 402,4 -4,4"/>
<!-- Node1 -->
<g id="node1" class="node"><title>Node1</title>
<polygon fill="#bfbfbf" stroke="black" points="0.5,-27.5 0.5,-46.5 189.5,-46.5 189.5,-27.5 0.5,-27.5"/>
<text text-anchor="middle" x="95" y="-34.5" font-family="Helvetica,sans-Serif" font-size="10.00">view.EnterCommands.runCommand</text>
</g>
<!-- Node2 -->
<g id="node2" class="node"><title>Node2</title>
<g id="a_node2"><a xlink:href="../../d3/dfc/classview_1_1_enter_commands.html#a27689d1e232eda1d9e0fe966becb8167" target="_top" xlink:title="view.EnterCommands.init">
<polygon fill="white" stroke="black" points="243.5,-49.5 243.5,-68.5 380.5,-68.5 380.5,-49.5 243.5,-49.5"/>
<text text-anchor="middle" x="312" y="-56.5" font-family="Helvetica,sans-Serif" font-size="10.00">view.EnterCommands.init</text>
</a>
</g>
</g>
<!-- Node1&#45;&gt;Node2 -->
<g id="edge1" class="edge"><title>Node1&#45;&gt;Node2</title>
<path fill="none" stroke="midnightblue" d="M189.052,-46.5216C203.755,-48.0261 218.825,-49.5681 233.135,-51.0324"/>
<polygon fill="midnightblue" stroke="midnightblue" points="233.1,-54.5471 243.405,-52.0833 233.813,-47.5834 233.1,-54.5471"/>
</g>
<!-- Node3 -->
<g id="node3" class="node"><title>Node3</title>
<g id="a_node3"><a xlink:href="../../d2/d22/classview_1_1_previous_commands.html#a8a4fd1bef3b409528deebf149b9417e6" target="_top" xlink:title="view.PreviousCommands.update\lTextArea">
<polygon fill="white" stroke="black" points="226,-0 226,-30 398,-30 398,-0 226,-0"/>
<text text-anchor="start" x="234" y="-18" font-family="Helvetica,sans-Serif" font-size="10.00">view.PreviousCommands.update</text>
<text text-anchor="middle" x="312" y="-7" font-family="Helvetica,sans-Serif" font-size="10.00">TextArea</text>
</a>
</g>
</g>
<!-- Node1&#45;&gt;Node3 -->
<g id="edge2" class="edge"><title>Node1&#45;&gt;Node3</title>
<path fill="none" stroke="midnightblue" d="M189.052,-27.4784C197.957,-26.5672 206.997,-25.6422 215.921,-24.729"/>
<polygon fill="midnightblue" stroke="midnightblue" points="216.343,-28.2042 225.935,-23.7044 215.63,-21.2406 216.343,-28.2042"/>
</g>
</g>
</svg>
