<?xml version="1.0" encoding="UTF-8" standalone="no"?>
<!DOCTYPE svg PUBLIC "-//W3C//DTD SVG 1.1//EN"
 "http://www.w3.org/Graphics/SVG/1.1/DTD/svg11.dtd">
<!-- Generated by graphviz version 2.36.0 (20140111.2315)
 -->
<!-- Title: application.TurtleList Pages: 1 -->
<svg width="366pt" height="165pt"
 viewBox="0.00 0.00 366.00 165.00" xmlns="http://www.w3.org/2000/svg" xmlns:xlink="http://www.w3.org/1999/xlink">
<g id="graph0" class="graph" transform="scale(1 1) rotate(0) translate(4 161)">
<title>application.TurtleList</title>
<polygon fill="white" stroke="none" points="-4,4 -4,-161 362,-161 362,4 -4,4"/>
<!-- Node1 -->
<g id="node1" class="node"><title>Node1</title>
<polygon fill="#bfbfbf" stroke="black" points="244.5,-68.5 244.5,-87.5 357.5,-87.5 357.5,-68.5 244.5,-68.5"/>
<text text-anchor="middle" x="301" y="-75.5" font-family="Helvetica,sans-Serif" font-size="10.00">application.TurtleList</text>
</g>
<!-- Node2 -->
<g id="node2" class="node"><title>Node2</title>
<polygon fill="white" stroke="#bfbfbf" points="26.5,-137.5 26.5,-156.5 117.5,-156.5 117.5,-137.5 26.5,-137.5"/>
<text text-anchor="middle" x="72" y="-144.5" font-family="Helvetica,sans-Serif" font-size="10.00">DoubleProperty</text>
</g>
<!-- Node2&#45;&gt;Node1 -->
<g id="edge1" class="edge"><title>Node2&#45;&gt;Node1</title>
<path fill="none" stroke="#9a32cd" stroke-dasharray="5,2" d="M127.085,-135.104C156.599,-128.141 193.618,-118.637 226,-108 244.044,-102.073 263.968,-93.8981 278.592,-87.5785"/>
<polygon fill="#9a32cd" stroke="#9a32cd" points="125.924,-131.781 116.979,-137.459 127.512,-138.598 125.924,-131.781"/>
<text text-anchor="middle" x="194" y="-129" font-family="Helvetica,sans-Serif" font-size="10.00"> newID</text>
</g>
<!-- Node3 -->
<g id="node3" class="node"><title>Node3</title>
<polygon fill="white" stroke="#bfbfbf" points="6.5,-88 6.5,-118 137.5,-118 137.5,-88 6.5,-88"/>
<text text-anchor="start" x="14.5" y="-106" font-family="Helvetica,sans-Serif" font-size="10.00">Map&lt; application.Turtle,</text>
<text text-anchor="middle" x="72" y="-95" font-family="Helvetica,sans-Serif" font-size="10.00"> Double &gt;</text>
</g>
<!-- Node3&#45;&gt;Node1 -->
<g id="edge2" class="edge"><title>Node3&#45;&gt;Node1</title>
<path fill="none" stroke="#9a32cd" stroke-dasharray="5,2" d="M147.8,-94.7621C179.302,-91.2928 215.322,-87.3258 244.41,-84.1223"/>
<polygon fill="#9a32cd" stroke="#9a32cd" points="147.302,-91.2957 137.745,-95.8695 148.068,-98.2536 147.302,-91.2957"/>
<text text-anchor="middle" x="194" y="-96" font-family="Helvetica,sans-Serif" font-size="10.00"> IDMap</text>
</g>
<!-- Node4 -->
<g id="node4" class="node"><title>Node4</title>
<polygon fill="white" stroke="#bfbfbf" points="0.5,-39 0.5,-69 143.5,-69 143.5,-39 0.5,-39"/>
<text text-anchor="start" x="8.5" y="-57" font-family="Helvetica,sans-Serif" font-size="10.00">Map&lt; Double, application.</text>
<text text-anchor="middle" x="72" y="-46" font-family="Helvetica,sans-Serif" font-size="10.00">Turtle &gt;</text>
</g>
<!-- Node4&#45;&gt;Node1 -->
<g id="edge3" class="edge"><title>Node4&#45;&gt;Node1</title>
<path fill="none" stroke="#9a32cd" stroke-dasharray="5,2" d="M154.013,-62.4186C177.258,-64.8486 202.634,-67.5153 226,-70 231.911,-70.6286 238.087,-71.2895 244.242,-71.951"/>
<polygon fill="#9a32cd" stroke="#9a32cd" points="154.156,-58.9146 143.847,-61.3567 153.429,-65.8767 154.156,-58.9146"/>
<text text-anchor="middle" x="194" y="-73" font-family="Helvetica,sans-Serif" font-size="10.00"> TurtleMap</text>
</g>
<!-- Node5 -->
<g id="node5" class="node"><title>Node5</title>
<polygon fill="white" stroke="#bfbfbf" points="4,-0.5 4,-19.5 140,-19.5 140,-0.5 4,-0.5"/>
<text text-anchor="middle" x="72" y="-7.5" font-family="Helvetica,sans-Serif" font-size="10.00">List&lt; application.Turtle &gt;</text>
</g>
<!-- Node5&#45;&gt;Node1 -->
<g id="edge4" class="edge"><title>Node5&#45;&gt;Node1</title>
<path fill="none" stroke="#9a32cd" stroke-dasharray="5,2" d="M126.014,-21.8032C155.676,-28.8331 193.181,-38.4313 226,-49 243.6,-54.6677 263.05,-62.3476 277.591,-68.3804"/>
<polygon fill="#9a32cd" stroke="#9a32cd" points="126.808,-18.3946 116.273,-19.5199 125.21,-25.2098 126.808,-18.3946"/>
<text text-anchor="middle" x="194" y="-52" font-family="Helvetica,sans-Serif" font-size="10.00"> myActiveList</text>
</g>
</g>
</svg>
