<?xml version="1.0" encoding="UTF-8" standalone="no"?>
<!DOCTYPE svg PUBLIC "-//W3C//DTD SVG 1.1//EN"
 "http://www.w3.org/Graphics/SVG/1.1/DTD/svg11.dtd">
<!-- Generated by graphviz version 2.36.0 (20140111.2315)
 -->
<!-- Title: view.ImportDesign.openDesign Pages: 1 -->
<svg width="722pt" height="115pt"
 viewBox="0.00 0.00 722.00 115.00" xmlns="http://www.w3.org/2000/svg" xmlns:xlink="http://www.w3.org/1999/xlink">
<g id="graph0" class="graph" transform="scale(1 1) rotate(0) translate(4 111)">
<title>view.ImportDesign.openDesign</title>
<polygon fill="white" stroke="none" points="-4,4 -4,-111 718,-111 718,4 -4,4"/>
<!-- Node1 -->
<g id="node1" class="node"><title>Node1</title>
<polygon fill="#bfbfbf" stroke="black" points="0,-49.5 0,-68.5 164,-68.5 164,-49.5 0,-49.5"/>
<text text-anchor="middle" x="82" y="-56.5" font-family="Helvetica,sans-Serif" font-size="10.00">view.ImportDesign.openDesign</text>
</g>
<!-- Node2 -->
<g id="node2" class="node"><title>Node2</title>
<g id="a_node2"><a xlink:href="../../de/d83/classview_1_1_import_design.html#a28c331a446c4c74cfc94149e5ceb0977" target="_top" xlink:title="view.ImportDesign.choose\lDesign">
<polygon fill="white" stroke="black" points="200.5,-44 200.5,-74 341.5,-74 341.5,-44 200.5,-44"/>
<text text-anchor="start" x="208.5" y="-62" font-family="Helvetica,sans-Serif" font-size="10.00">view.ImportDesign.choose</text>
<text text-anchor="middle" x="271" y="-51" font-family="Helvetica,sans-Serif" font-size="10.00">Design</text>
</a>
</g>
</g>
<!-- Node1&#45;&gt;Node2 -->
<g id="edge1" class="edge"><title>Node1&#45;&gt;Node2</title>
<path fill="none" stroke="midnightblue" d="M164.205,-59C172.848,-59 181.634,-59 190.26,-59"/>
<polygon fill="midnightblue" stroke="midnightblue" points="190.294,-62.5001 200.294,-59 190.294,-55.5001 190.294,-62.5001"/>
</g>
<!-- Node3 -->
<g id="node3" class="node"><title>Node3</title>
<g id="a_node3"><a xlink:href="../../d7/d64/classview_1_1_error_display.html#a6c3f2eacf1ed428f546b8df535aea14d" target="_top" xlink:title="view.ErrorDisplay.QuitError">
<polygon fill="white" stroke="black" points="385.5,-87.5 385.5,-106.5 526.5,-106.5 526.5,-87.5 385.5,-87.5"/>
<text text-anchor="middle" x="456" y="-94.5" font-family="Helvetica,sans-Serif" font-size="10.00">view.ErrorDisplay.QuitError</text>
</a>
</g>
</g>
<!-- Node2&#45;&gt;Node3 -->
<g id="edge2" class="edge"><title>Node2&#45;&gt;Node3</title>
<path fill="none" stroke="midnightblue" d="M341.706,-73.4746C360.712,-77.421 381.049,-81.644 399.172,-85.4073"/>
<polygon fill="midnightblue" stroke="midnightblue" points="398.487,-88.8398 408.99,-87.4461 399.911,-81.986 398.487,-88.8398"/>
</g>
<!-- Node5 -->
<g id="node5" class="node"><title>Node5</title>
<g id="a_node5"><a xlink:href="../../de/d83/classview_1_1_import_design.html#af8cc1739fba8473b1983acb24fd9d47c" target="_top" xlink:title="view.ImportDesign.readFile">
<polygon fill="white" stroke="black" points="384.5,-49.5 384.5,-68.5 527.5,-68.5 527.5,-49.5 384.5,-49.5"/>
<text text-anchor="middle" x="456" y="-56.5" font-family="Helvetica,sans-Serif" font-size="10.00">view.ImportDesign.readFile</text>
</a>
</g>
</g>
<!-- Node2&#45;&gt;Node5 -->
<g id="edge4" class="edge"><title>Node2&#45;&gt;Node5</title>
<path fill="none" stroke="midnightblue" d="M341.706,-59C352.27,-59 363.244,-59 374.022,-59"/>
<polygon fill="midnightblue" stroke="midnightblue" points="374.274,-62.5001 384.274,-59 374.274,-55.5001 374.274,-62.5001"/>
</g>
<!-- Node6 -->
<g id="node6" class="node"><title>Node6</title>
<g id="a_node6"><a xlink:href="../../d3/dfc/classview_1_1_enter_commands.html#a17b5999a795f8675493768d88b06481c" target="_top" xlink:title="view.EnterCommands.upload\lCommand">
<polygon fill="white" stroke="black" points="378.5,-0 378.5,-30 533.5,-30 533.5,-0 378.5,-0"/>
<text text-anchor="start" x="386.5" y="-18" font-family="Helvetica,sans-Serif" font-size="10.00">view.EnterCommands.upload</text>
<text text-anchor="middle" x="456" y="-7" font-family="Helvetica,sans-Serif" font-size="10.00">Command</text>
</a>
</g>
</g>
<!-- Node2&#45;&gt;Node6 -->
<g id="edge5" class="edge"><title>Node2&#45;&gt;Node6</title>
<path fill="none" stroke="midnightblue" d="M334.466,-43.9808C349.986,-40.2492 366.75,-36.2186 382.698,-32.384"/>
<polygon fill="midnightblue" stroke="midnightblue" points="383.6,-35.767 392.505,-30.0262 381.963,-28.961 383.6,-35.767"/>
</g>
<!-- Node4 -->
<g id="node4" class="node"><title>Node4</title>
<g id="a_node4"><a xlink:href="../../d7/d64/classview_1_1_error_display.html#a0c73067dcb42d542520886861c13953f" target="_top" xlink:title="view.ErrorDisplay.message">
<polygon fill="white" stroke="black" points="570.5,-87.5 570.5,-106.5 713.5,-106.5 713.5,-87.5 570.5,-87.5"/>
<text text-anchor="middle" x="642" y="-94.5" font-family="Helvetica,sans-Serif" font-size="10.00">view.ErrorDisplay.message</text>
</a>
</g>
</g>
<!-- Node3&#45;&gt;Node4 -->
<g id="edge3" class="edge"><title>Node3&#45;&gt;Node4</title>
<path fill="none" stroke="midnightblue" d="M526.563,-97C537.549,-97 548.99,-97 560.205,-97"/>
<polygon fill="midnightblue" stroke="midnightblue" points="560.422,-100.5 570.422,-97 560.422,-93.5001 560.422,-100.5"/>
</g>
</g>
</svg>
