<?xml version="1.0" encoding="UTF-8" standalone="no"?>
<!DOCTYPE svg PUBLIC "-//W3C//DTD SVG 1.1//EN"
 "http://www.w3.org/Graphics/SVG/1.1/DTD/svg11.dtd">
<!-- Generated by graphviz version 2.36.0 (20140111.2315)
 -->
<!-- Title: view.ImportDesign.chooseDesign Pages: 1 -->
<svg width="558pt" height="104pt"
 viewBox="0.00 0.00 558.00 104.00" xmlns="http://www.w3.org/2000/svg" xmlns:xlink="http://www.w3.org/1999/xlink">
<g id="graph0" class="graph" transform="scale(1 1) rotate(0) translate(4 100)">
<title>view.ImportDesign.chooseDesign</title>
<polygon fill="white" stroke="none" points="-4,4 -4,-100 554,-100 554,4 -4,4"/>
<!-- Node1 -->
<g id="node1" class="node"><title>Node1</title>
<polygon fill="#bfbfbf" stroke="black" points="0.5,-33 0.5,-63 141.5,-63 141.5,-33 0.5,-33"/>
<text text-anchor="start" x="8.5" y="-51" font-family="Helvetica,sans-Serif" font-size="10.00">view.ImportDesign.choose</text>
<text text-anchor="middle" x="71" y="-40" font-family="Helvetica,sans-Serif" font-size="10.00">Design</text>
</g>
<!-- Node2 -->
<g id="node2" class="node"><title>Node2</title>
<g id="a_node2"><a xlink:href="../../d3/dfc/classview_1_1_enter_commands.html#a1d0bf48565d2681b213f2c735c896ee0" target="_top" xlink:title="view.EnterCommands.addCommand">
<polygon fill="white" stroke="black" points="178.5,-76.5 178.5,-95.5 369.5,-95.5 369.5,-76.5 178.5,-76.5"/>
<text text-anchor="middle" x="274" y="-83.5" font-family="Helvetica,sans-Serif" font-size="10.00">view.EnterCommands.addCommand</text>
</a>
</g>
</g>
<!-- Node1&#45;&gt;Node2 -->
<g id="edge1" class="edge"><title>Node1&#45;&gt;Node2</title>
<path fill="none" stroke="midnightblue" d="M141.736,-61.1839C164.843,-65.5524 190.351,-70.3748 212.688,-74.5977"/>
<polygon fill="midnightblue" stroke="midnightblue" points="212.232,-78.0734 222.708,-76.492 213.532,-71.1952 212.232,-78.0734"/>
</g>
<!-- Node3 -->
<g id="node3" class="node"><title>Node3</title>
<g id="a_node3"><a xlink:href="../../d7/d64/classview_1_1_error_display.html#a6c3f2eacf1ed428f546b8df535aea14d" target="_top" xlink:title="view.ErrorDisplay.QuitError">
<polygon fill="white" stroke="black" points="203.5,-38.5 203.5,-57.5 344.5,-57.5 344.5,-38.5 203.5,-38.5"/>
<text text-anchor="middle" x="274" y="-45.5" font-family="Helvetica,sans-Serif" font-size="10.00">view.ErrorDisplay.QuitError</text>
</a>
</g>
</g>
<!-- Node1&#45;&gt;Node3 -->
<g id="edge2" class="edge"><title>Node1&#45;&gt;Node3</title>
<path fill="none" stroke="midnightblue" d="M141.736,-48C158.262,-48 176.016,-48 192.96,-48"/>
<polygon fill="midnightblue" stroke="midnightblue" points="193.387,-51.5001 203.387,-48 193.387,-44.5001 193.387,-51.5001"/>
</g>
<!-- Node5 -->
<g id="node5" class="node"><title>Node5</title>
<g id="a_node5"><a xlink:href="../../de/d83/classview_1_1_import_design.html#af8cc1739fba8473b1983acb24fd9d47c" target="_top" xlink:title="view.ImportDesign.readFile">
<polygon fill="white" stroke="black" points="202.5,-0.5 202.5,-19.5 345.5,-19.5 345.5,-0.5 202.5,-0.5"/>
<text text-anchor="middle" x="274" y="-7.5" font-family="Helvetica,sans-Serif" font-size="10.00">view.ImportDesign.readFile</text>
</a>
</g>
</g>
<!-- Node1&#45;&gt;Node5 -->
<g id="edge4" class="edge"><title>Node1&#45;&gt;Node5</title>
<path fill="none" stroke="midnightblue" d="M141.736,-34.8161C164.843,-30.4476 190.351,-25.6252 212.688,-21.4023"/>
<polygon fill="midnightblue" stroke="midnightblue" points="213.532,-24.8048 222.708,-19.508 212.232,-17.9266 213.532,-24.8048"/>
</g>
<!-- Node4 -->
<g id="node4" class="node"><title>Node4</title>
<g id="a_node4"><a xlink:href="../../d7/d64/classview_1_1_error_display.html#a0c73067dcb42d542520886861c13953f" target="_top" xlink:title="view.ErrorDisplay.message">
<polygon fill="white" stroke="black" points="406.5,-38.5 406.5,-57.5 549.5,-57.5 549.5,-38.5 406.5,-38.5"/>
<text text-anchor="middle" x="478" y="-45.5" font-family="Helvetica,sans-Serif" font-size="10.00">view.ErrorDisplay.message</text>
</a>
</g>
</g>
<!-- Node3&#45;&gt;Node4 -->
<g id="edge3" class="edge"><title>Node3&#45;&gt;Node4</title>
<path fill="none" stroke="midnightblue" d="M344.517,-48C361.056,-48 378.846,-48 395.855,-48"/>
<polygon fill="midnightblue" stroke="midnightblue" points="396.326,-51.5001 406.326,-48 396.326,-44.5001 396.326,-51.5001"/>
</g>
</g>
</svg>
