<?xml version="1.0" encoding="UTF-8" standalone="no"?>
<!DOCTYPE svg PUBLIC "-//W3C//DTD SVG 1.1//EN"
 "http://www.w3.org/Graphics/SVG/1.1/DTD/svg11.dtd">
<!-- Generated by graphviz version 2.36.0 (20140111.2315)
 -->
<!-- Title: view.ImportDesign.chooseDesign Pages: 1 -->
<svg width="522pt" height="115pt"
 viewBox="0.00 0.00 522.00 115.00" xmlns="http://www.w3.org/2000/svg" xmlns:xlink="http://www.w3.org/1999/xlink">
<g id="graph0" class="graph" transform="scale(1 1) rotate(0) translate(4 111)">
<title>view.ImportDesign.chooseDesign</title>
<polygon fill="white" stroke="none" points="-4,4 -4,-111 518,-111 518,4 -4,4"/>
<!-- Node1 -->
<g id="node1" class="node"><title>Node1</title>
<polygon fill="#bfbfbf" stroke="black" points="0.5,-44 0.5,-74 141.5,-74 141.5,-44 0.5,-44"/>
<text text-anchor="start" x="8.5" y="-62" font-family="Helvetica,sans-Serif" font-size="10.00">view.ImportDesign.choose</text>
<text text-anchor="middle" x="71" y="-51" font-family="Helvetica,sans-Serif" font-size="10.00">Design</text>
</g>
<!-- Node2 -->
<g id="node2" class="node"><title>Node2</title>
<g id="a_node2"><a xlink:href="../../d7/d64/classview_1_1_error_display.html#a6c3f2eacf1ed428f546b8df535aea14d" target="_top" xlink:title="view.ErrorDisplay.QuitError">
<polygon fill="white" stroke="black" points="185.5,-87.5 185.5,-106.5 326.5,-106.5 326.5,-87.5 185.5,-87.5"/>
<text text-anchor="middle" x="256" y="-94.5" font-family="Helvetica,sans-Serif" font-size="10.00">view.ErrorDisplay.QuitError</text>
</a>
</g>
</g>
<!-- Node1&#45;&gt;Node2 -->
<g id="edge1" class="edge"><title>Node1&#45;&gt;Node2</title>
<path fill="none" stroke="midnightblue" d="M141.706,-73.4746C160.712,-77.421 181.049,-81.644 199.172,-85.4073"/>
<polygon fill="midnightblue" stroke="midnightblue" points="198.487,-88.8398 208.99,-87.4461 199.911,-81.986 198.487,-88.8398"/>
</g>
<!-- Node4 -->
<g id="node4" class="node"><title>Node4</title>
<g id="a_node4"><a xlink:href="../../de/d83/classview_1_1_import_design.html#af8cc1739fba8473b1983acb24fd9d47c" target="_top" xlink:title="view.ImportDesign.readFile">
<polygon fill="white" stroke="black" points="184.5,-49.5 184.5,-68.5 327.5,-68.5 327.5,-49.5 184.5,-49.5"/>
<text text-anchor="middle" x="256" y="-56.5" font-family="Helvetica,sans-Serif" font-size="10.00">view.ImportDesign.readFile</text>
</a>
</g>
</g>
<!-- Node1&#45;&gt;Node4 -->
<g id="edge3" class="edge"><title>Node1&#45;&gt;Node4</title>
<path fill="none" stroke="midnightblue" d="M141.706,-59C152.27,-59 163.244,-59 174.022,-59"/>
<polygon fill="midnightblue" stroke="midnightblue" points="174.274,-62.5001 184.274,-59 174.274,-55.5001 174.274,-62.5001"/>
</g>
<!-- Node5 -->
<g id="node5" class="node"><title>Node5</title>
<g id="a_node5"><a xlink:href="../../d3/dfc/classview_1_1_enter_commands.html#a17b5999a795f8675493768d88b06481c" target="_top" xlink:title="view.EnterCommands.upload\lCommand">
<polygon fill="white" stroke="black" points="178.5,-0 178.5,-30 333.5,-30 333.5,-0 178.5,-0"/>
<text text-anchor="start" x="186.5" y="-18" font-family="Helvetica,sans-Serif" font-size="10.00">view.EnterCommands.upload</text>
<text text-anchor="middle" x="256" y="-7" font-family="Helvetica,sans-Serif" font-size="10.00">Command</text>
</a>
</g>
</g>
<!-- Node1&#45;&gt;Node5 -->
<g id="edge4" class="edge"><title>Node1&#45;&gt;Node5</title>
<path fill="none" stroke="midnightblue" d="M134.466,-43.9808C149.986,-40.2492 166.75,-36.2186 182.698,-32.384"/>
<polygon fill="midnightblue" stroke="midnightblue" points="183.6,-35.767 192.505,-30.0262 181.963,-28.961 183.6,-35.767"/>
</g>
<!-- Node3 -->
<g id="node3" class="node"><title>Node3</title>
<g id="a_node3"><a xlink:href="../../d7/d64/classview_1_1_error_display.html#a0c73067dcb42d542520886861c13953f" target="_top" xlink:title="view.ErrorDisplay.message">
<polygon fill="white" stroke="black" points="370.5,-87.5 370.5,-106.5 513.5,-106.5 513.5,-87.5 370.5,-87.5"/>
<text text-anchor="middle" x="442" y="-94.5" font-family="Helvetica,sans-Serif" font-size="10.00">view.ErrorDisplay.message</text>
</a>
</g>
</g>
<!-- Node2&#45;&gt;Node3 -->
<g id="edge2" class="edge"><title>Node2&#45;&gt;Node3</title>
<path fill="none" stroke="midnightblue" d="M326.563,-97C337.549,-97 348.99,-97 360.205,-97"/>
<polygon fill="midnightblue" stroke="midnightblue" points="360.422,-100.5 370.422,-97 360.422,-93.5001 360.422,-100.5"/>
</g>
</g>
</svg>
