<?xml version="1.0" encoding="UTF-8" standalone="no"?>
<!DOCTYPE svg PUBLIC "-//W3C//DTD SVG 1.1//EN"
 "http://www.w3.org/Graphics/SVG/1.1/DTD/svg11.dtd">
<!-- Generated by graphviz version 2.36.0 (20140111.2315)
 -->
<!-- Title: syntax.GroupEndHandler.handle Pages: 1 -->
<svg width="380pt" height="87pt"
 viewBox="0.00 0.00 380.00 87.00" xmlns="http://www.w3.org/2000/svg" xmlns:xlink="http://www.w3.org/1999/xlink">
<g id="graph0" class="graph" transform="scale(1 1) rotate(0) translate(4 83)">
<title>syntax.GroupEndHandler.handle</title>
<polygon fill="white" stroke="none" points="-4,4 -4,-83 376,-83 376,4 -4,4"/>
<!-- Node1 -->
<g id="node1" class="node"><title>Node1</title>
<polygon fill="#bfbfbf" stroke="black" points="0,-29.5 0,-48.5 170,-48.5 170,-29.5 0,-29.5"/>
<text text-anchor="middle" x="85" y="-36.5" font-family="Helvetica,sans-Serif" font-size="10.00">syntax.GroupEndHandler.handle</text>
</g>
<!-- Node2 -->
<g id="node2" class="node"><title>Node2</title>
<g id="a_node2"><a xlink:href="../../da/df2/classsyntax_1_1_group_handler.html#a8a5b8a6b2df4c18aff7d222334ad0b5c" target="_top" xlink:title="syntax.GroupHandler.getGroup\lDepthCount">
<polygon fill="white" stroke="black" points="206.5,-49 206.5,-79 371.5,-79 371.5,-49 206.5,-49"/>
<text text-anchor="start" x="214.5" y="-67" font-family="Helvetica,sans-Serif" font-size="10.00">syntax.GroupHandler.getGroup</text>
<text text-anchor="middle" x="289" y="-56" font-family="Helvetica,sans-Serif" font-size="10.00">DepthCount</text>
</a>
</g>
</g>
<!-- Node1&#45;&gt;Node2 -->
<g id="edge1" class="edge"><title>Node1&#45;&gt;Node2</title>
<path fill="none" stroke="midnightblue" d="M162.944,-48.5227C173.785,-49.8645 185.019,-51.2548 196.105,-52.6268"/>
<polygon fill="midnightblue" stroke="midnightblue" points="195.875,-56.125 206.229,-53.8798 196.735,-49.178 195.875,-56.125"/>
</g>
<!-- Node3 -->
<g id="node3" class="node"><title>Node3</title>
<g id="a_node3"><a xlink:href="../../da/df2/classsyntax_1_1_group_handler.html#a9262f3453b529443248a308628316173" target="_top" xlink:title="syntax.GroupHandler.setGroup\lDepthCount">
<polygon fill="white" stroke="black" points="207,-0 207,-30 371,-30 371,-0 207,-0"/>
<text text-anchor="start" x="215" y="-18" font-family="Helvetica,sans-Serif" font-size="10.00">syntax.GroupHandler.setGroup</text>
<text text-anchor="middle" x="289" y="-7" font-family="Helvetica,sans-Serif" font-size="10.00">DepthCount</text>
</a>
</g>
</g>
<!-- Node1&#45;&gt;Node3 -->
<g id="edge2" class="edge"><title>Node1&#45;&gt;Node3</title>
<path fill="none" stroke="midnightblue" d="M166.126,-29.4801C176.205,-28.2826 186.573,-27.0507 196.807,-25.8349"/>
<polygon fill="midnightblue" stroke="midnightblue" points="197.462,-29.2817 206.979,-24.6263 196.636,-22.3306 197.462,-29.2817"/>
</g>
</g>
</svg>
