<?xml version="1.0" encoding="UTF-8" standalone="no"?>
<!DOCTYPE svg PUBLIC "-//W3C//DTD SVG 1.1//EN"
 "http://www.w3.org/Graphics/SVG/1.1/DTD/svg11.dtd">
<!-- Generated by graphviz version 2.36.0 (20140111.2315)
 -->
<!-- Title: commands.DoTimes.runForLoop Pages: 1 -->
<svg width="376pt" height="104pt"
 viewBox="0.00 0.00 376.00 104.00" xmlns="http://www.w3.org/2000/svg" xmlns:xlink="http://www.w3.org/1999/xlink">
<g id="graph0" class="graph" transform="scale(1 1) rotate(0) translate(4 100)">
<title>commands.DoTimes.runForLoop</title>
<polygon fill="white" stroke="none" points="-4,4 -4,-100 372,-100 372,4 -4,4"/>
<!-- Node1 -->
<g id="node1" class="node"><title>Node1</title>
<polygon fill="#bfbfbf" stroke="black" points="0.5,-38.5 0.5,-57.5 173.5,-57.5 173.5,-38.5 0.5,-38.5"/>
<text text-anchor="middle" x="87" y="-45.5" font-family="Helvetica,sans-Serif" font-size="10.00">commands.DoTimes.runForLoop</text>
</g>
<!-- Node2 -->
<g id="node2" class="node"><title>Node2</title>
<g id="a_node2"><a xlink:href="../../d1/d02/classcommands_1_1_for.html#a8da419ba7440611f91c927f59a444697" target="_top" xlink:title="commands.For.function">
<polygon fill="white" stroke="black" points="224.5,-76.5 224.5,-95.5 353.5,-95.5 353.5,-76.5 224.5,-76.5"/>
<text text-anchor="middle" x="289" y="-83.5" font-family="Helvetica,sans-Serif" font-size="10.00">commands.For.function</text>
</a>
</g>
</g>
<!-- Node1&#45;&gt;Node2 -->
<g id="edge1" class="edge"><title>Node1&#45;&gt;Node2</title>
<path fill="none" stroke="midnightblue" d="M148.095,-59.4181C176.712,-64.8552 210.543,-71.2832 237.769,-76.4561"/>
<polygon fill="midnightblue" stroke="midnightblue" points="148.688,-55.9682 138.21,-57.54 147.381,-62.8451 148.688,-55.9682"/>
</g>
<!-- Node3 -->
<g id="node3" class="node"><title>Node3</title>
<g id="a_node3"><a xlink:href="../../d2/d1d/classcommands_1_1_repeat.html#aba5a119451c0906c425c1d7001f4afa6" target="_top" xlink:title="commands.Repeat.function">
<polygon fill="white" stroke="black" points="215,-38.5 215,-57.5 363,-57.5 363,-38.5 215,-38.5"/>
<text text-anchor="middle" x="289" y="-45.5" font-family="Helvetica,sans-Serif" font-size="10.00">commands.Repeat.function</text>
</a>
</g>
</g>
<!-- Node1&#45;&gt;Node3 -->
<g id="edge2" class="edge"><title>Node1&#45;&gt;Node3</title>
<path fill="none" stroke="midnightblue" d="M183.998,-48C194.343,-48 204.745,-48 214.761,-48"/>
<polygon fill="midnightblue" stroke="midnightblue" points="183.688,-44.5001 173.688,-48 183.688,-51.5001 183.688,-44.5001"/>
</g>
<!-- Node4 -->
<g id="node4" class="node"><title>Node4</title>
<g id="a_node4"><a xlink:href="../../db/d3c/classcommands_1_1_do_times.html#a1ceaf103ac42aec6746670fb09e7f47e" target="_top" xlink:title="commands.DoTimes.function">
<polygon fill="white" stroke="black" points="210.5,-0.5 210.5,-19.5 367.5,-19.5 367.5,-0.5 210.5,-0.5"/>
<text text-anchor="middle" x="289" y="-7.5" font-family="Helvetica,sans-Serif" font-size="10.00">commands.DoTimes.function</text>
</a>
</g>
</g>
<!-- Node1&#45;&gt;Node4 -->
<g id="edge3" class="edge"><title>Node1&#45;&gt;Node4</title>
<path fill="none" stroke="midnightblue" d="M148.095,-36.5819C176.712,-31.1448 210.543,-24.7168 237.769,-19.5439"/>
<polygon fill="midnightblue" stroke="midnightblue" points="147.381,-33.1549 138.21,-38.46 148.688,-40.0318 147.381,-33.1549"/>
</g>
</g>
</svg>
