<?xml version="1.0" encoding="UTF-8" standalone="no"?>
<!DOCTYPE svg PUBLIC "-//W3C//DTD SVG 1.1//EN"
 "http://www.w3.org/Graphics/SVG/1.1/DTD/svg11.dtd">
<!-- Generated by graphviz version 2.36.0 (20140111.2315)
 -->
<!-- Title: commands.DoTimes.runForLoop Pages: 1 -->
<svg width="580pt" height="213pt"
 viewBox="0.00 0.00 580.00 213.00" xmlns="http://www.w3.org/2000/svg" xmlns:xlink="http://www.w3.org/1999/xlink">
<g id="graph0" class="graph" transform="scale(1 1) rotate(0) translate(4 209)">
<title>commands.DoTimes.runForLoop</title>
<polygon fill="white" stroke="none" points="-4,4 -4,-209 576,-209 576,4 -4,4"/>
<!-- Node1 -->
<g id="node1" class="node"><title>Node1</title>
<polygon fill="#bfbfbf" stroke="black" points="0.5,-103.5 0.5,-122.5 173.5,-122.5 173.5,-103.5 0.5,-103.5"/>
<text text-anchor="middle" x="87" y="-110.5" font-family="Helvetica,sans-Serif" font-size="10.00">commands.DoTimes.runForLoop</text>
</g>
<!-- Node2 -->
<g id="node2" class="node"><title>Node2</title>
<g id="a_node2"><a xlink:href="../../d7/d99/classtree_1_1_command_node.html#ae60b1b2f861235627eb90a0d1fa25814" target="_top" xlink:title="tree.CommandNode.getModel">
<polygon fill="white" stroke="black" points="210,-185.5 210,-204.5 372,-204.5 372,-185.5 210,-185.5"/>
<text text-anchor="middle" x="291" y="-192.5" font-family="Helvetica,sans-Serif" font-size="10.00">tree.CommandNode.getModel</text>
</a>
</g>
</g>
<!-- Node1&#45;&gt;Node2 -->
<g id="edge1" class="edge"><title>Node1&#45;&gt;Node2</title>
<path fill="none" stroke="midnightblue" d="M105.812,-122.526C129.244,-134.81 171.92,-156.334 210,-171 220.884,-175.192 232.827,-179.119 244.088,-182.534"/>
<polygon fill="midnightblue" stroke="midnightblue" points="243.183,-185.916 253.766,-185.397 245.169,-179.204 243.183,-185.916"/>
</g>
<!-- Node3 -->
<g id="node3" class="node"><title>Node3</title>
<g id="a_node3"><a xlink:href="../../d7/d99/classtree_1_1_command_node.html#a7812a5927c35af83e5f65508fc0a0236" target="_top" xlink:title="tree.CommandNode.getRoot\lNodes">
<polygon fill="white" stroke="black" points="213.5,-98 213.5,-128 368.5,-128 368.5,-98 213.5,-98"/>
<text text-anchor="start" x="221.5" y="-116" font-family="Helvetica,sans-Serif" font-size="10.00">tree.CommandNode.getRoot</text>
<text text-anchor="middle" x="291" y="-105" font-family="Helvetica,sans-Serif" font-size="10.00">Nodes</text>
</a>
</g>
</g>
<!-- Node1&#45;&gt;Node3 -->
<g id="edge2" class="edge"><title>Node1&#45;&gt;Node3</title>
<path fill="none" stroke="midnightblue" d="M173.666,-113C183.482,-113 193.497,-113 203.326,-113"/>
<polygon fill="midnightblue" stroke="midnightblue" points="203.486,-116.5 213.486,-113 203.486,-109.5 203.486,-116.5"/>
</g>
<!-- Node4 -->
<g id="node4" class="node"><title>Node4</title>
<g id="a_node4"><a xlink:href="../../d7/d99/classtree_1_1_command_node.html#a9f3dd4c2d2489cbbbc7e09e252a8c9a3" target="_top" xlink:title="tree.CommandNode.putObject\lInList">
<polygon fill="white" stroke="black" points="408,-142 408,-172 572,-172 572,-142 408,-142"/>
<text text-anchor="start" x="416" y="-160" font-family="Helvetica,sans-Serif" font-size="10.00">tree.CommandNode.putObject</text>
<text text-anchor="middle" x="490" y="-149" font-family="Helvetica,sans-Serif" font-size="10.00">InList</text>
</a>
</g>
</g>
<!-- Node1&#45;&gt;Node4 -->
<g id="edge5" class="edge"><title>Node1&#45;&gt;Node4</title>
<path fill="none" stroke="midnightblue" d="M129.853,-122.553C153.303,-127.572 183.148,-133.41 210,-137 272.419,-145.345 343.192,-150.367 397.838,-153.292"/>
<polygon fill="midnightblue" stroke="midnightblue" points="397.68,-156.789 407.849,-153.814 398.045,-149.798 397.68,-156.789"/>
</g>
<!-- Node6 -->
<g id="node6" class="node"><title>Node6</title>
<g id="a_node6"><a xlink:href="../../dd/d17/classapplication_1_1_model.html#a5459c190cf4afebbdbc1b35cd191d6da" target="_top" xlink:title="application.Model.remove\lVariableValue">
<polygon fill="white" stroke="black" points="221,-49 221,-79 361,-79 361,-49 221,-49"/>
<text text-anchor="start" x="229" y="-67" font-family="Helvetica,sans-Serif" font-size="10.00">application.Model.remove</text>
<text text-anchor="middle" x="291" y="-56" font-family="Helvetica,sans-Serif" font-size="10.00">VariableValue</text>
</a>
</g>
</g>
<!-- Node1&#45;&gt;Node6 -->
<g id="edge6" class="edge"><title>Node1&#45;&gt;Node6</title>
<path fill="none" stroke="midnightblue" d="M127.427,-103.436C153.224,-97.1782 187.688,-88.8183 218.243,-81.4063"/>
<polygon fill="midnightblue" stroke="midnightblue" points="219.118,-84.7958 228.011,-79.037 217.468,-77.9931 219.118,-84.7958"/>
</g>
<!-- Node7 -->
<g id="node7" class="node"><title>Node7</title>
<g id="a_node7"><a xlink:href="../../dd/d17/classapplication_1_1_model.html#a148bca8470c723e82cb3150af8b62eae" target="_top" xlink:title="application.Model.setVariable\lValue">
<polygon fill="white" stroke="black" points="213,-0 213,-30 369,-30 369,-0 213,-0"/>
<text text-anchor="start" x="221" y="-18" font-family="Helvetica,sans-Serif" font-size="10.00">application.Model.setVariable</text>
<text text-anchor="middle" x="291" y="-7" font-family="Helvetica,sans-Serif" font-size="10.00">Value</text>
</a>
</g>
</g>
<!-- Node1&#45;&gt;Node7 -->
<g id="edge7" class="edge"><title>Node1&#45;&gt;Node7</title>
<path fill="none" stroke="midnightblue" d="M101.284,-103.377C123.059,-87.9722 168.123,-57.6178 210,-39 214.406,-37.0413 219.016,-35.1866 223.705,-33.4418"/>
<polygon fill="midnightblue" stroke="midnightblue" points="225.134,-36.649 233.396,-30.0168 222.801,-30.049 225.134,-36.649"/>
</g>
<!-- Node3&#45;&gt;Node4 -->
<g id="edge3" class="edge"><title>Node3&#45;&gt;Node4</title>
<path fill="none" stroke="midnightblue" d="M359.245,-128.019C376.11,-131.786 394.339,-135.857 411.653,-139.724"/>
<polygon fill="midnightblue" stroke="midnightblue" points="411.201,-143.21 421.724,-141.974 412.727,-136.378 411.201,-143.21"/>
</g>
<!-- Node5 -->
<g id="node5" class="node"><title>Node5</title>
<g id="a_node5"><a xlink:href="../../da/d49/classtree_1_1_tree_node.html#ae2e063fcfef13edf72b6b513c5369a4f" target="_top" xlink:title="tree.TreeNode.evaluate">
<polygon fill="white" stroke="black" points="426,-103.5 426,-122.5 554,-122.5 554,-103.5 426,-103.5"/>
<text text-anchor="middle" x="490" y="-110.5" font-family="Helvetica,sans-Serif" font-size="10.00">tree.TreeNode.evaluate</text>
</a>
</g>
</g>
<!-- Node3&#45;&gt;Node5 -->
<g id="edge4" class="edge"><title>Node3&#45;&gt;Node5</title>
<path fill="none" stroke="midnightblue" d="M368.729,-113C384.091,-113 400.196,-113 415.447,-113"/>
<polygon fill="midnightblue" stroke="midnightblue" points="415.849,-116.5 425.849,-113 415.849,-109.5 415.849,-116.5"/>
</g>
</g>
</svg>
