<?xml version="1.0" encoding="UTF-8" standalone="no"?>
<!DOCTYPE svg PUBLIC "-//W3C//DTD SVG 1.1//EN"
 "http://www.w3.org/Graphics/SVG/1.1/DTD/svg11.dtd">
<!-- Generated by graphviz version 2.36.0 (20140111.2315)
 -->
<!-- Title: syntax.GroupStartHandler.handle Pages: 1 -->
<svg width="1022pt" height="145pt"
 viewBox="0.00 0.00 1022.00 145.00" xmlns="http://www.w3.org/2000/svg" xmlns:xlink="http://www.w3.org/1999/xlink">
<g id="graph0" class="graph" transform="scale(1 1) rotate(0) translate(4 141)">
<title>syntax.GroupStartHandler.handle</title>
<polygon fill="white" stroke="none" points="-4,4 -4,-141 1018,-141 1018,4 -4,4"/>
<!-- Node1 -->
<g id="node1" class="node"><title>Node1</title>
<polygon fill="#bfbfbf" stroke="black" points="0,-54.5 0,-73.5 176,-73.5 176,-54.5 0,-54.5"/>
<text text-anchor="middle" x="88" y="-61.5" font-family="Helvetica,sans-Serif" font-size="10.00">syntax.GroupStartHandler.handle</text>
</g>
<!-- Node2 -->
<g id="node2" class="node"><title>Node2</title>
<g id="a_node2"><a xlink:href="../../da/df2/classsyntax_1_1_group_handler.html#a8a5b8a6b2df4c18aff7d222334ad0b5c" target="_top" xlink:title="syntax.GroupHandler.getGroup\lDepthCount">
<polygon fill="white" stroke="black" points="212.5,-98 212.5,-128 377.5,-128 377.5,-98 212.5,-98"/>
<text text-anchor="start" x="220.5" y="-116" font-family="Helvetica,sans-Serif" font-size="10.00">syntax.GroupHandler.getGroup</text>
<text text-anchor="middle" x="295" y="-105" font-family="Helvetica,sans-Serif" font-size="10.00">DepthCount</text>
</a>
</g>
</g>
<!-- Node1&#45;&gt;Node2 -->
<g id="edge1" class="edge"><title>Node1&#45;&gt;Node2</title>
<path fill="none" stroke="midnightblue" d="M129.013,-73.564C155.193,-79.8218 190.168,-88.1817 221.178,-95.5937"/>
<polygon fill="midnightblue" stroke="midnightblue" points="220.551,-99.0423 231.09,-97.963 222.178,-92.2341 220.551,-99.0423"/>
</g>
<!-- Node3 -->
<g id="node3" class="node"><title>Node3</title>
<g id="a_node3"><a xlink:href="../../dc/d9e/classapplication_1_1_parser.html#a74e9be1b3f5d45542735791cf13baa90" target="_top" xlink:title="application.Parser.parse\lIterator">
<polygon fill="white" stroke="black" points="229.5,-49 229.5,-79 360.5,-79 360.5,-49 229.5,-49"/>
<text text-anchor="start" x="237.5" y="-67" font-family="Helvetica,sans-Serif" font-size="10.00">application.Parser.parse</text>
<text text-anchor="middle" x="295" y="-56" font-family="Helvetica,sans-Serif" font-size="10.00">Iterator</text>
</a>
</g>
</g>
<!-- Node1&#45;&gt;Node3 -->
<g id="edge2" class="edge"><title>Node1&#45;&gt;Node3</title>
<path fill="none" stroke="midnightblue" d="M176.236,-64C190.529,-64 205.228,-64 219.187,-64"/>
<polygon fill="midnightblue" stroke="midnightblue" points="219.203,-67.5001 229.203,-64 219.203,-60.5001 219.203,-67.5001"/>
</g>
<!-- Node11 -->
<g id="node11" class="node"><title>Node11</title>
<g id="a_node11"><a xlink:href="../../da/df2/classsyntax_1_1_group_handler.html#a9262f3453b529443248a308628316173" target="_top" xlink:title="syntax.GroupHandler.setGroup\lDepthCount">
<polygon fill="white" stroke="black" points="213,-0 213,-30 377,-30 377,-0 213,-0"/>
<text text-anchor="start" x="221" y="-18" font-family="Helvetica,sans-Serif" font-size="10.00">syntax.GroupHandler.setGroup</text>
<text text-anchor="middle" x="295" y="-7" font-family="Helvetica,sans-Serif" font-size="10.00">DepthCount</text>
</a>
</g>
</g>
<!-- Node1&#45;&gt;Node11 -->
<g id="edge10" class="edge"><title>Node1&#45;&gt;Node11</title>
<path fill="none" stroke="midnightblue" d="M129.013,-54.436C155.193,-48.1782 190.168,-39.8183 221.178,-32.4063"/>
<polygon fill="midnightblue" stroke="midnightblue" points="222.178,-35.7659 231.09,-30.037 220.551,-28.9577 222.178,-35.7659"/>
</g>
<!-- Node4 -->
<g id="node4" class="node"><title>Node4</title>
<g id="a_node4"><a xlink:href="../../d5/d4b/classtree_1_1_tree_builder.html#a1e29a66ff647bc0ef8933f412cc16359" target="_top" xlink:title="tree.TreeBuilder.build">
<polygon fill="white" stroke="black" points="444,-98.5 444,-117.5 560,-117.5 560,-98.5 444,-98.5"/>
<text text-anchor="middle" x="502" y="-105.5" font-family="Helvetica,sans-Serif" font-size="10.00">tree.TreeBuilder.build</text>
</a>
</g>
</g>
<!-- Node3&#45;&gt;Node4 -->
<g id="edge3" class="edge"><title>Node3&#45;&gt;Node4</title>
<path fill="none" stroke="midnightblue" d="M360.582,-77.8615C388.264,-83.803 420.241,-90.6664 446.681,-96.3413"/>
<polygon fill="midnightblue" stroke="midnightblue" points="446.011,-99.7772 456.523,-98.4537 447.48,-92.933 446.011,-99.7772"/>
</g>
<!-- Node8 -->
<g id="node8" class="node"><title>Node8</title>
<g id="a_node8"><a xlink:href="../../de/d31/classapplication_1_1_pattern_matcher.html#a2db70f4edd389c1f149acdebd3da0b7f" target="_top" xlink:title="application.PatternMatcher.check\lForMatch">
<polygon fill="white" stroke="black" points="414.5,-49 414.5,-79 589.5,-79 589.5,-49 414.5,-49"/>
<text text-anchor="start" x="422.5" y="-67" font-family="Helvetica,sans-Serif" font-size="10.00">application.PatternMatcher.check</text>
<text text-anchor="middle" x="502" y="-56" font-family="Helvetica,sans-Serif" font-size="10.00">ForMatch</text>
</a>
</g>
</g>
<!-- Node3&#45;&gt;Node8 -->
<g id="edge7" class="edge"><title>Node3&#45;&gt;Node8</title>
<path fill="none" stroke="midnightblue" d="M360.582,-64C374.409,-64 389.307,-64 404.052,-64"/>
<polygon fill="midnightblue" stroke="midnightblue" points="404.22,-67.5001 414.22,-64 404.22,-60.5001 404.22,-67.5001"/>
</g>
<!-- Node10 -->
<g id="node10" class="node"><title>Node10</title>
<g id="a_node10"><a xlink:href="../../d0/d2d/classsyntax_1_1_syntax_handler.html#a5068c7316f7b220bb6a8ce045e5ebd47" target="_top" xlink:title="syntax.SyntaxHandler.handle">
<polygon fill="white" stroke="black" points="424,-10.5 424,-29.5 580,-29.5 580,-10.5 424,-10.5"/>
<text text-anchor="middle" x="502" y="-17.5" font-family="Helvetica,sans-Serif" font-size="10.00">syntax.SyntaxHandler.handle</text>
</a>
</g>
</g>
<!-- Node3&#45;&gt;Node10 -->
<g id="edge9" class="edge"><title>Node3&#45;&gt;Node10</title>
<path fill="none" stroke="midnightblue" d="M360.582,-50.1385C388.264,-44.197 420.241,-37.3336 446.681,-31.6587"/>
<polygon fill="midnightblue" stroke="midnightblue" points="447.48,-35.067 456.523,-29.5463 446.011,-28.2228 447.48,-35.067"/>
</g>
<!-- Node5 -->
<g id="node5" class="node"><title>Node5</title>
<g id="a_node5"><a xlink:href="../../d5/d4b/classtree_1_1_tree_builder.html#a4032cc1efc7fb77f4414d1bd58713d4b" target="_top" xlink:title="tree.TreeBuilder.addChildren">
<polygon fill="white" stroke="black" points="639.5,-98.5 639.5,-117.5 790.5,-117.5 790.5,-98.5 639.5,-98.5"/>
<text text-anchor="middle" x="715" y="-105.5" font-family="Helvetica,sans-Serif" font-size="10.00">tree.TreeBuilder.addChildren</text>
</a>
</g>
</g>
<!-- Node4&#45;&gt;Node5 -->
<g id="edge4" class="edge"><title>Node4&#45;&gt;Node5</title>
<path fill="none" stroke="midnightblue" d="M560.1,-108C581.363,-108 605.975,-108 629.194,-108"/>
<polygon fill="midnightblue" stroke="midnightblue" points="629.396,-111.5 639.396,-108 629.396,-104.5 629.396,-111.5"/>
</g>
<!-- Node6 -->
<g id="node6" class="node"><title>Node6</title>
<g id="a_node6"><a xlink:href="../../d7/d99/classtree_1_1_command_node.html#a7a383438fa8edd362dddfc785615edd2" target="_top" xlink:title="tree.CommandNode.getArgNum">
<polygon fill="white" stroke="black" points="840.5,-117.5 840.5,-136.5 1013.5,-136.5 1013.5,-117.5 840.5,-117.5"/>
<text text-anchor="middle" x="927" y="-124.5" font-family="Helvetica,sans-Serif" font-size="10.00">tree.CommandNode.getArgNum</text>
</a>
</g>
</g>
<!-- Node5&#45;&gt;Node6 -->
<g id="edge5" class="edge"><title>Node5&#45;&gt;Node6</title>
<path fill="none" stroke="midnightblue" d="M790.629,-114.752C803.406,-115.908 816.839,-117.123 830.078,-118.321"/>
<polygon fill="midnightblue" stroke="midnightblue" points="829.875,-121.817 840.15,-119.233 830.506,-114.846 829.875,-121.817"/>
</g>
<!-- Node7 -->
<g id="node7" class="node"><title>Node7</title>
<g id="a_node7"><a xlink:href="../../d7/d99/classtree_1_1_command_node.html#ae5d7b13f887006572eb9bbaa3f0e9d4e" target="_top" xlink:title="tree.CommandNode.addChild">
<polygon fill="white" stroke="black" points="847.5,-79.5 847.5,-98.5 1006.5,-98.5 1006.5,-79.5 847.5,-79.5"/>
<text text-anchor="middle" x="927" y="-86.5" font-family="Helvetica,sans-Serif" font-size="10.00">tree.CommandNode.addChild</text>
</a>
</g>
</g>
<!-- Node5&#45;&gt;Node7 -->
<g id="edge6" class="edge"><title>Node5&#45;&gt;Node7</title>
<path fill="none" stroke="midnightblue" d="M790.629,-101.248C805.716,-99.8829 821.717,-98.4351 837.234,-97.0312"/>
<polygon fill="midnightblue" stroke="midnightblue" points="837.702,-100.503 847.346,-96.1163 837.072,-93.5317 837.702,-100.503"/>
</g>
<!-- Node9 -->
<g id="node9" class="node"><title>Node9</title>
<g id="a_node9"><a xlink:href="../../de/d31/classapplication_1_1_pattern_matcher.html#a463a0d665a268cd83796230ffb17ebdc" target="_top" xlink:title="application.PatternMatcher.match">
<polygon fill="white" stroke="black" points="626,-54.5 626,-73.5 804,-73.5 804,-54.5 626,-54.5"/>
<text text-anchor="middle" x="715" y="-61.5" font-family="Helvetica,sans-Serif" font-size="10.00">application.PatternMatcher.match</text>
</a>
</g>
</g>
<!-- Node8&#45;&gt;Node9 -->
<g id="edge8" class="edge"><title>Node8&#45;&gt;Node9</title>
<path fill="none" stroke="midnightblue" d="M589.735,-64C598.313,-64 607.063,-64 615.746,-64"/>
<polygon fill="midnightblue" stroke="midnightblue" points="615.895,-67.5001 625.895,-64 615.895,-60.5001 615.895,-67.5001"/>
</g>
</g>
</svg>
