<?xml version="1.0" encoding="UTF-8" standalone="no"?>
<!DOCTYPE svg PUBLIC "-//W3C//DTD SVG 1.1//EN"
 "http://www.w3.org/Graphics/SVG/1.1/DTD/svg11.dtd">
<!-- Generated by graphviz version 2.36.0 (20140111.2315)
 -->
<!-- Title: commands.MakeUserInstruction.getVariableList Pages: 1 -->
<svg width="674pt" height="82pt"
 viewBox="0.00 0.00 674.00 82.00" xmlns="http://www.w3.org/2000/svg" xmlns:xlink="http://www.w3.org/1999/xlink">
<g id="graph0" class="graph" transform="scale(1 1) rotate(0) translate(4 78)">
<title>commands.MakeUserInstruction.getVariableList</title>
<polygon fill="white" stroke="none" points="-4,4 -4,-78 670,-78 670,4 -4,4"/>
<!-- Node1 -->
<g id="node1" class="node"><title>Node1</title>
<polygon fill="#bfbfbf" stroke="black" points="0.5,-22 0.5,-52 191.5,-52 191.5,-22 0.5,-22"/>
<text text-anchor="start" x="8.5" y="-40" font-family="Helvetica,sans-Serif" font-size="10.00">commands.MakeUserInstruction.get</text>
<text text-anchor="middle" x="96" y="-29" font-family="Helvetica,sans-Serif" font-size="10.00">VariableList</text>
</g>
<!-- Node2 -->
<g id="node2" class="node"><title>Node2</title>
<g id="a_node2"><a xlink:href="../../d7/d99/classtree_1_1_command_node.html#a69bfa124214fd3236c99901925a5f055" target="_top" xlink:title="tree.CommandNode.checkParameters">
<polygon fill="white" stroke="black" points="228.5,-49.5 228.5,-68.5 429.5,-68.5 429.5,-49.5 228.5,-49.5"/>
<text text-anchor="middle" x="329" y="-56.5" font-family="Helvetica,sans-Serif" font-size="10.00">tree.CommandNode.checkParameters</text>
</a>
</g>
</g>
<!-- Node1&#45;&gt;Node2 -->
<g id="edge1" class="edge"><title>Node1&#45;&gt;Node2</title>
<path fill="none" stroke="midnightblue" d="M191.623,-46.0117C200.404,-46.848 209.352,-47.7002 218.254,-48.548"/>
<polygon fill="midnightblue" stroke="midnightblue" points="217.987,-52.0383 228.274,-49.5023 218.651,-45.0699 217.987,-52.0383"/>
</g>
<!-- Node4 -->
<g id="node4" class="node"><title>Node4</title>
<g id="a_node4"><a xlink:href="../../d7/d99/classtree_1_1_command_node.html#a604e1461177da85e6a8af1100f399215" target="_top" xlink:title="tree.CommandNode.generate\lClassArray">
<polygon fill="white" stroke="black" points="248.5,-0 248.5,-30 409.5,-30 409.5,-0 248.5,-0"/>
<text text-anchor="start" x="256.5" y="-18" font-family="Helvetica,sans-Serif" font-size="10.00">tree.CommandNode.generate</text>
<text text-anchor="middle" x="329" y="-7" font-family="Helvetica,sans-Serif" font-size="10.00">ClassArray</text>
</a>
</g>
</g>
<!-- Node1&#45;&gt;Node4 -->
<g id="edge3" class="edge"><title>Node1&#45;&gt;Node4</title>
<path fill="none" stroke="midnightblue" d="M191.623,-27.9883C207.057,-26.5184 223.005,-24.9996 238.315,-23.5415"/>
<polygon fill="midnightblue" stroke="midnightblue" points="238.649,-27.0256 248.272,-22.5932 237.985,-20.0571 238.649,-27.0256"/>
</g>
<!-- Node3 -->
<g id="node3" class="node"><title>Node3</title>
<g id="a_node3"><a xlink:href="../../d7/d99/classtree_1_1_command_node.html#a217a1626d7815f8121a2224ddf7af40f" target="_top" xlink:title="tree.CommandNode.throwParameters\lException">
<polygon fill="white" stroke="black" points="466,-44 466,-74 666,-74 666,-44 466,-44"/>
<text text-anchor="start" x="474" y="-62" font-family="Helvetica,sans-Serif" font-size="10.00">tree.CommandNode.throwParameters</text>
<text text-anchor="middle" x="566" y="-51" font-family="Helvetica,sans-Serif" font-size="10.00">Exception</text>
</a>
</g>
</g>
<!-- Node2&#45;&gt;Node3 -->
<g id="edge2" class="edge"><title>Node2&#45;&gt;Node3</title>
<path fill="none" stroke="midnightblue" d="M429.661,-59C438.293,-59 447.056,-59 455.758,-59"/>
<polygon fill="midnightblue" stroke="midnightblue" points="455.935,-62.5001 465.935,-59 455.935,-55.5001 455.935,-62.5001"/>
</g>
</g>
</svg>
