<?xml version="1.0" encoding="UTF-8" standalone="no"?>
<!DOCTYPE svg PUBLIC "-//W3C//DTD SVG 1.1//EN"
 "http://www.w3.org/Graphics/SVG/1.1/DTD/svg11.dtd">
<!-- Generated by graphviz version 2.36.0 (20140111.2315)
 -->
<!-- Title: commands.MakeUserInstruction.function Pages: 1 -->
<svg width="924pt" height="290pt"
 viewBox="0.00 0.00 924.00 290.00" xmlns="http://www.w3.org/2000/svg" xmlns:xlink="http://www.w3.org/1999/xlink">
<g id="graph0" class="graph" transform="scale(1 1) rotate(0) translate(4 286)">
<title>commands.MakeUserInstruction.function</title>
<polygon fill="white" stroke="none" points="-4,4 -4,-286 920,-286 920,4 -4,4"/>
<!-- Node1 -->
<g id="node1" class="node"><title>Node1</title>
<polygon fill="#bfbfbf" stroke="black" points="0.5,-137.5 0.5,-156.5 213.5,-156.5 213.5,-137.5 0.5,-137.5"/>
<text text-anchor="middle" x="107" y="-144.5" font-family="Helvetica,sans-Serif" font-size="10.00">commands.MakeUserInstruction.function</text>
</g>
<!-- Node2 -->
<g id="node2" class="node"><title>Node2</title>
<g id="a_node2"><a xlink:href="../../dd/d17/classapplication_1_1_model.html#ac296de3f6011d0ef6bb7ce8cbc7765fb" target="_top" xlink:title="application.Model.addUser\lCommand">
<polygon fill="white" stroke="black" points="274.5,-252 274.5,-282 417.5,-282 417.5,-252 274.5,-252"/>
<text text-anchor="start" x="282.5" y="-270" font-family="Helvetica,sans-Serif" font-size="10.00">application.Model.addUser</text>
<text text-anchor="middle" x="346" y="-259" font-family="Helvetica,sans-Serif" font-size="10.00">Command</text>
</a>
</g>
</g>
<!-- Node1&#45;&gt;Node2 -->
<g id="edge1" class="edge"><title>Node1&#45;&gt;Node2</title>
<path fill="none" stroke="midnightblue" d="M119.363,-156.563C142.48,-175.553 197.27,-218.232 250,-242 255.379,-244.424 261.038,-246.65 266.805,-248.687"/>
<polygon fill="midnightblue" stroke="midnightblue" points="265.987,-252.103 276.58,-251.937 268.195,-245.46 265.987,-252.103"/>
</g>
<!-- Node3 -->
<g id="node3" class="node"><title>Node3</title>
<g id="a_node3"><a xlink:href="../../d1/da4/classtree_1_1_variable_node.html#a7fbc548f055d7b646c09931fd61a7771" target="_top" xlink:title="tree.VariableNode.evaluate">
<polygon fill="white" stroke="black" points="272.5,-213.5 272.5,-232.5 419.5,-232.5 419.5,-213.5 272.5,-213.5"/>
<text text-anchor="middle" x="346" y="-220.5" font-family="Helvetica,sans-Serif" font-size="10.00">tree.VariableNode.evaluate</text>
</a>
</g>
</g>
<!-- Node1&#45;&gt;Node3 -->
<g id="edge2" class="edge"><title>Node1&#45;&gt;Node3</title>
<path fill="none" stroke="midnightblue" d="M128.271,-156.522C155.45,-168.964 205.447,-190.726 250,-204 259.152,-206.727 268.918,-209.179 278.574,-211.343"/>
<polygon fill="midnightblue" stroke="midnightblue" points="278.055,-214.812 288.568,-213.495 279.528,-207.968 278.055,-214.812"/>
</g>
<!-- Node5 -->
<g id="node5" class="node"><title>Node5</title>
<g id="a_node5"><a xlink:href="../../d7/d99/classtree_1_1_command_node.html#ae60b1b2f861235627eb90a0d1fa25814" target="_top" xlink:title="tree.CommandNode.getModel">
<polygon fill="white" stroke="black" points="265,-175.5 265,-194.5 427,-194.5 427,-175.5 265,-175.5"/>
<text text-anchor="middle" x="346" y="-182.5" font-family="Helvetica,sans-Serif" font-size="10.00">tree.CommandNode.getModel</text>
</a>
</g>
</g>
<!-- Node1&#45;&gt;Node5 -->
<g id="edge4" class="edge"><title>Node1&#45;&gt;Node5</title>
<path fill="none" stroke="midnightblue" d="M167.499,-156.54C200.321,-161.803 241.251,-168.365 275.533,-173.862"/>
<polygon fill="midnightblue" stroke="midnightblue" points="275.048,-177.329 285.476,-175.456 276.157,-170.417 275.048,-177.329"/>
</g>
<!-- Node6 -->
<g id="node6" class="node"><title>Node6</title>
<g id="a_node6"><a xlink:href="../../d7/d99/classtree_1_1_command_node.html#a7812a5927c35af83e5f65508fc0a0236" target="_top" xlink:title="tree.CommandNode.getRoot\lNodes">
<polygon fill="white" stroke="black" points="268.5,-88 268.5,-118 423.5,-118 423.5,-88 268.5,-88"/>
<text text-anchor="start" x="276.5" y="-106" font-family="Helvetica,sans-Serif" font-size="10.00">tree.CommandNode.getRoot</text>
<text text-anchor="middle" x="346" y="-95" font-family="Helvetica,sans-Serif" font-size="10.00">Nodes</text>
</a>
</g>
</g>
<!-- Node1&#45;&gt;Node6 -->
<g id="edge5" class="edge"><title>Node1&#45;&gt;Node6</title>
<path fill="none" stroke="midnightblue" d="M159.425,-137.453C188.296,-132.093 225.086,-125.263 258.283,-119.099"/>
<polygon fill="midnightblue" stroke="midnightblue" points="259.264,-122.477 268.457,-117.211 257.986,-115.595 259.264,-122.477"/>
</g>
<!-- Node7 -->
<g id="node7" class="node"><title>Node7</title>
<g id="a_node7"><a xlink:href="../../d7/d99/classtree_1_1_command_node.html#a9f3dd4c2d2489cbbbc7e09e252a8c9a3" target="_top" xlink:title="tree.CommandNode.putObject\lInList">
<polygon fill="white" stroke="black" points="497,-132 497,-162 661,-162 661,-132 497,-132"/>
<text text-anchor="start" x="505" y="-150" font-family="Helvetica,sans-Serif" font-size="10.00">tree.CommandNode.putObject</text>
<text text-anchor="middle" x="579" y="-139" font-family="Helvetica,sans-Serif" font-size="10.00">InList</text>
</a>
</g>
</g>
<!-- Node1&#45;&gt;Node7 -->
<g id="edge12" class="edge"><title>Node1&#45;&gt;Node7</title>
<path fill="none" stroke="midnightblue" d="M213.77,-147C295.764,-147 408.221,-147 486.399,-147"/>
<polygon fill="midnightblue" stroke="midnightblue" points="486.716,-150.5 496.716,-147 486.716,-143.5 486.716,-150.5"/>
</g>
<!-- Node9 -->
<g id="node9" class="node"><title>Node9</title>
<g id="a_node9"><a xlink:href="../../de/d4a/classcommands_1_1_make_user_instruction.html#a75ffc5da473d74341095f1221d00247e" target="_top" xlink:title="commands.MakeUserInstruction.get\lVariableList">
<polygon fill="white" stroke="black" points="250.5,-39 250.5,-69 441.5,-69 441.5,-39 250.5,-39"/>
<text text-anchor="start" x="258.5" y="-57" font-family="Helvetica,sans-Serif" font-size="10.00">commands.MakeUserInstruction.get</text>
<text text-anchor="middle" x="346" y="-46" font-family="Helvetica,sans-Serif" font-size="10.00">VariableList</text>
</a>
</g>
</g>
<!-- Node1&#45;&gt;Node9 -->
<g id="edge8" class="edge"><title>Node1&#45;&gt;Node9</title>
<path fill="none" stroke="midnightblue" d="M124.989,-137.323C151.136,-122.761 203.138,-95.0999 250,-78 255.925,-75.8379 262.127,-73.7986 268.401,-71.8919"/>
<polygon fill="midnightblue" stroke="midnightblue" points="269.671,-75.1675 278.29,-69.0063 267.71,-68.4477 269.671,-75.1675"/>
</g>
<!-- Node13 -->
<g id="node13" class="node"><title>Node13</title>
<g id="a_node13"><a xlink:href="../../d1/da4/classtree_1_1_variable_node.html#a75e76a021e142982a55452884f66454e" target="_top" xlink:title="tree.VariableNode.setIndex">
<polygon fill="white" stroke="black" points="273,-0.5 273,-19.5 419,-19.5 419,-0.5 273,-0.5"/>
<text text-anchor="middle" x="346" y="-7.5" font-family="Helvetica,sans-Serif" font-size="10.00">tree.VariableNode.setIndex</text>
</a>
</g>
</g>
<!-- Node1&#45;&gt;Node13 -->
<g id="edge13" class="edge"><title>Node1&#45;&gt;Node13</title>
<path fill="none" stroke="midnightblue" d="M116.489,-137.187C136.937,-114.237 191.568,-56.8933 250,-29 255.251,-26.4934 260.818,-24.3173 266.519,-22.4281"/>
<polygon fill="midnightblue" stroke="midnightblue" points="267.641,-25.7455 276.208,-19.512 265.623,-19.0425 267.641,-25.7455"/>
</g>
<!-- Node4 -->
<g id="node4" class="node"><title>Node4</title>
<g id="a_node4"><a xlink:href="../../dd/d17/classapplication_1_1_model.html#a6cac7ea9f9182625479387d3dd603f44" target="_top" xlink:title="application.Model.getVariable\lValue">
<polygon fill="white" stroke="black" points="500.5,-208 500.5,-238 657.5,-238 657.5,-208 500.5,-208"/>
<text text-anchor="start" x="508.5" y="-226" font-family="Helvetica,sans-Serif" font-size="10.00">application.Model.getVariable</text>
<text text-anchor="middle" x="579" y="-215" font-family="Helvetica,sans-Serif" font-size="10.00">Value</text>
</a>
</g>
</g>
<!-- Node3&#45;&gt;Node4 -->
<g id="edge3" class="edge"><title>Node3&#45;&gt;Node4</title>
<path fill="none" stroke="midnightblue" d="M419.773,-223C442.122,-223 466.955,-223 490.198,-223"/>
<polygon fill="midnightblue" stroke="midnightblue" points="490.399,-226.5 500.399,-223 490.399,-219.5 490.399,-226.5"/>
</g>
<!-- Node6&#45;&gt;Node7 -->
<g id="edge6" class="edge"><title>Node6&#45;&gt;Node7</title>
<path fill="none" stroke="midnightblue" d="M423.599,-117.59C444.668,-121.603 467.693,-125.989 489.38,-130.12"/>
<polygon fill="midnightblue" stroke="midnightblue" points="488.76,-133.565 499.238,-131.998 490.069,-126.688 488.76,-133.565"/>
</g>
<!-- Node8 -->
<g id="node8" class="node"><title>Node8</title>
<g id="a_node8"><a xlink:href="../../da/d49/classtree_1_1_tree_node.html#ae2e063fcfef13edf72b6b513c5369a4f" target="_top" xlink:title="tree.TreeNode.evaluate">
<polygon fill="white" stroke="black" points="515,-93.5 515,-112.5 643,-112.5 643,-93.5 515,-93.5"/>
<text text-anchor="middle" x="579" y="-100.5" font-family="Helvetica,sans-Serif" font-size="10.00">tree.TreeNode.evaluate</text>
</a>
</g>
</g>
<!-- Node6&#45;&gt;Node8 -->
<g id="edge7" class="edge"><title>Node6&#45;&gt;Node8</title>
<path fill="none" stroke="midnightblue" d="M423.599,-103C449.686,-103 478.77,-103 504.6,-103"/>
<polygon fill="midnightblue" stroke="midnightblue" points="504.7,-106.5 514.7,-103 504.7,-99.5001 504.7,-106.5"/>
</g>
<!-- Node10 -->
<g id="node10" class="node"><title>Node10</title>
<g id="a_node10"><a xlink:href="../../d7/d99/classtree_1_1_command_node.html#a69bfa124214fd3236c99901925a5f055" target="_top" xlink:title="tree.CommandNode.checkParameters">
<polygon fill="white" stroke="black" points="478.5,-50.5 478.5,-69.5 679.5,-69.5 679.5,-50.5 478.5,-50.5"/>
<text text-anchor="middle" x="579" y="-57.5" font-family="Helvetica,sans-Serif" font-size="10.00">tree.CommandNode.checkParameters</text>
</a>
</g>
</g>
<!-- Node9&#45;&gt;Node10 -->
<g id="edge9" class="edge"><title>Node9&#45;&gt;Node10</title>
<path fill="none" stroke="midnightblue" d="M441.623,-56.4577C450.404,-56.6858 459.352,-56.9182 468.254,-57.1495"/>
<polygon fill="midnightblue" stroke="midnightblue" points="468.186,-60.6488 478.274,-57.4097 468.368,-53.6511 468.186,-60.6488"/>
</g>
<!-- Node12 -->
<g id="node12" class="node"><title>Node12</title>
<g id="a_node12"><a xlink:href="../../d7/d99/classtree_1_1_command_node.html#a604e1461177da85e6a8af1100f399215" target="_top" xlink:title="tree.CommandNode.generate\lClassArray">
<polygon fill="white" stroke="black" points="498.5,-1 498.5,-31 659.5,-31 659.5,-1 498.5,-1"/>
<text text-anchor="start" x="506.5" y="-19" font-family="Helvetica,sans-Serif" font-size="10.00">tree.CommandNode.generate</text>
<text text-anchor="middle" x="579" y="-8" font-family="Helvetica,sans-Serif" font-size="10.00">ClassArray</text>
</a>
</g>
</g>
<!-- Node9&#45;&gt;Node12 -->
<g id="edge11" class="edge"><title>Node9&#45;&gt;Node12</title>
<path fill="none" stroke="midnightblue" d="M438.297,-38.9814C454.694,-36.2842 471.771,-33.4749 488.127,-30.7843"/>
<polygon fill="midnightblue" stroke="midnightblue" points="488.905,-34.2034 498.205,-29.1265 487.769,-27.2962 488.905,-34.2034"/>
</g>
<!-- Node11 -->
<g id="node11" class="node"><title>Node11</title>
<g id="a_node11"><a xlink:href="../../d7/d99/classtree_1_1_command_node.html#a217a1626d7815f8121a2224ddf7af40f" target="_top" xlink:title="tree.CommandNode.throwParameters\lException">
<polygon fill="white" stroke="black" points="716,-45 716,-75 916,-75 916,-45 716,-45"/>
<text text-anchor="start" x="724" y="-63" font-family="Helvetica,sans-Serif" font-size="10.00">tree.CommandNode.throwParameters</text>
<text text-anchor="middle" x="816" y="-52" font-family="Helvetica,sans-Serif" font-size="10.00">Exception</text>
</a>
</g>
</g>
<!-- Node10&#45;&gt;Node11 -->
<g id="edge10" class="edge"><title>Node10&#45;&gt;Node11</title>
<path fill="none" stroke="midnightblue" d="M679.661,-60C688.293,-60 697.056,-60 705.758,-60"/>
<polygon fill="midnightblue" stroke="midnightblue" points="705.935,-63.5001 715.935,-60 705.935,-56.5001 705.935,-63.5001"/>
</g>
</g>
</svg>
