<?xml version="1.0" encoding="UTF-8" standalone="no"?>
<!DOCTYPE svg PUBLIC "-//W3C//DTD SVG 1.1//EN"
 "http://www.w3.org/Graphics/SVG/1.1/DTD/svg11.dtd">
<!-- Generated by graphviz version 2.36.0 (20140111.2315)
 -->
<!-- Title: commands.Right.function Pages: 1 -->
<svg width="348pt" height="87pt"
 viewBox="0.00 0.00 348.00 87.00" xmlns="http://www.w3.org/2000/svg" xmlns:xlink="http://www.w3.org/1999/xlink">
<g id="graph0" class="graph" transform="scale(1 1) rotate(0) translate(4 83)">
<title>commands.Right.function</title>
<polygon fill="white" stroke="none" points="-4,4 -4,-83 344,-83 344,4 -4,4"/>
<!-- Node1 -->
<g id="node1" class="node"><title>Node1</title>
<polygon fill="#bfbfbf" stroke="black" points="0.5,-29.5 0.5,-48.5 139.5,-48.5 139.5,-29.5 0.5,-29.5"/>
<text text-anchor="middle" x="70" y="-36.5" font-family="Helvetica,sans-Serif" font-size="10.00">commands.Right.function</text>
</g>
<!-- Node2 -->
<g id="node2" class="node"><title>Node2</title>
<g id="a_node2"><a xlink:href="../../d1/d31/classapplication_1_1_turtle.html#a861246d5dab4fa8162c433ab8fcd7193" target="_top" xlink:title="application.Turtle.getFull\lRotation">
<polygon fill="white" stroke="black" points="192.5,-49 192.5,-79 323.5,-79 323.5,-49 192.5,-49"/>
<text text-anchor="start" x="200.5" y="-67" font-family="Helvetica,sans-Serif" font-size="10.00">application.Turtle.getFull</text>
<text text-anchor="middle" x="258" y="-56" font-family="Helvetica,sans-Serif" font-size="10.00">Rotation</text>
</a>
</g>
</g>
<!-- Node1&#45;&gt;Node2 -->
<g id="edge1" class="edge"><title>Node1&#45;&gt;Node2</title>
<path fill="none" stroke="midnightblue" d="M139.731,-48.238C153.554,-50.096 168.147,-52.0574 182.166,-53.9417"/>
<polygon fill="midnightblue" stroke="midnightblue" points="181.877,-57.4342 192.254,-55.2976 182.81,-50.4966 181.877,-57.4342"/>
</g>
<!-- Node3 -->
<g id="node3" class="node"><title>Node3</title>
<g id="a_node3"><a xlink:href="../../d7/d99/classtree_1_1_command_node.html#a9f3dd4c2d2489cbbbc7e09e252a8c9a3" target="_top" xlink:title="tree.CommandNode.putObject\lInList">
<polygon fill="white" stroke="black" points="176,-0 176,-30 340,-30 340,-0 176,-0"/>
<text text-anchor="start" x="184" y="-18" font-family="Helvetica,sans-Serif" font-size="10.00">tree.CommandNode.putObject</text>
<text text-anchor="middle" x="258" y="-7" font-family="Helvetica,sans-Serif" font-size="10.00">InList</text>
</a>
</g>
</g>
<!-- Node1&#45;&gt;Node3 -->
<g id="edge2" class="edge"><title>Node1&#45;&gt;Node3</title>
<path fill="none" stroke="midnightblue" d="M139.731,-30.1315C148.303,-29.0255 157.17,-27.8813 166.013,-26.7403"/>
<polygon fill="midnightblue" stroke="midnightblue" points="166.499,-30.2066 175.969,-25.4556 165.604,-23.2641 166.499,-30.2066"/>
</g>
</g>
</svg>
