<?xml version="1.0" encoding="UTF-8" standalone="no"?>
<!DOCTYPE svg PUBLIC "-//W3C//DTD SVG 1.1//EN"
 "http://www.w3.org/Graphics/SVG/1.1/DTD/svg11.dtd">
<!-- Generated by graphviz version 2.36.0 (20140111.2315)
 -->
<!-- Title: commands.SetPenSize.function Pages: 1 -->
<svg width="378pt" height="126pt"
 viewBox="0.00 0.00 378.00 126.00" xmlns="http://www.w3.org/2000/svg" xmlns:xlink="http://www.w3.org/1999/xlink">
<g id="graph0" class="graph" transform="scale(1 1) rotate(0) translate(4 122)">
<title>commands.SetPenSize.function</title>
<polygon fill="white" stroke="none" points="-4,4 -4,-122 374,-122 374,4 -4,4"/>
<!-- Node1 -->
<g id="node1" class="node"><title>Node1</title>
<polygon fill="#bfbfbf" stroke="black" points="0,-54.5 0,-73.5 170,-73.5 170,-54.5 0,-54.5"/>
<text text-anchor="middle" x="85" y="-61.5" font-family="Helvetica,sans-Serif" font-size="10.00">commands.SetPenSize.function</text>
</g>
<!-- Node2 -->
<g id="node2" class="node"><title>Node2</title>
<g id="a_node2"><a xlink:href="../../d7/d99/classtree_1_1_command_node.html#ae60b1b2f861235627eb90a0d1fa25814" target="_top" xlink:title="tree.CommandNode.getModel">
<polygon fill="white" stroke="black" points="207,-98.5 207,-117.5 369,-117.5 369,-98.5 207,-98.5"/>
<text text-anchor="middle" x="288" y="-105.5" font-family="Helvetica,sans-Serif" font-size="10.00">tree.CommandNode.getModel</text>
</a>
</g>
</g>
<!-- Node1&#45;&gt;Node2 -->
<g id="edge1" class="edge"><title>Node1&#45;&gt;Node2</title>
<path fill="none" stroke="midnightblue" d="M129.614,-73.5473C160.168,-80.2357 201.181,-89.2137 233.68,-96.3279"/>
<polygon fill="midnightblue" stroke="midnightblue" points="232.954,-99.7518 243.471,-98.4713 234.451,-92.9138 232.954,-99.7518"/>
</g>
<!-- Node3 -->
<g id="node3" class="node"><title>Node3</title>
<g id="a_node3"><a xlink:href="../../dd/d17/classapplication_1_1_model.html#a63d02440007e1584ac2877ceaed55d1f" target="_top" xlink:title="application.Model.penSize\lProperty">
<polygon fill="white" stroke="black" points="217.5,-49 217.5,-79 358.5,-79 358.5,-49 217.5,-49"/>
<text text-anchor="start" x="225.5" y="-67" font-family="Helvetica,sans-Serif" font-size="10.00">application.Model.penSize</text>
<text text-anchor="middle" x="288" y="-56" font-family="Helvetica,sans-Serif" font-size="10.00">Property</text>
</a>
</g>
</g>
<!-- Node1&#45;&gt;Node3 -->
<g id="edge2" class="edge"><title>Node1&#45;&gt;Node3</title>
<path fill="none" stroke="midnightblue" d="M170.077,-64C182.348,-64 194.954,-64 207.137,-64"/>
<polygon fill="midnightblue" stroke="midnightblue" points="207.255,-67.5001 217.255,-64 207.255,-60.5001 207.255,-67.5001"/>
</g>
<!-- Node4 -->
<g id="node4" class="node"><title>Node4</title>
<g id="a_node4"><a xlink:href="../../d7/d99/classtree_1_1_command_node.html#a9f3dd4c2d2489cbbbc7e09e252a8c9a3" target="_top" xlink:title="tree.CommandNode.putObject\lInList">
<polygon fill="white" stroke="black" points="206,-0 206,-30 370,-30 370,-0 206,-0"/>
<text text-anchor="start" x="214" y="-18" font-family="Helvetica,sans-Serif" font-size="10.00">tree.CommandNode.putObject</text>
<text text-anchor="middle" x="288" y="-7" font-family="Helvetica,sans-Serif" font-size="10.00">InList</text>
</a>
</g>
</g>
<!-- Node1&#45;&gt;Node4 -->
<g id="edge3" class="edge"><title>Node1&#45;&gt;Node4</title>
<path fill="none" stroke="midnightblue" d="M125.232,-54.436C150.901,-48.1782 185.194,-39.8183 215.599,-32.4063"/>
<polygon fill="midnightblue" stroke="midnightblue" points="216.431,-35.8059 225.318,-30.037 214.773,-29.0051 216.431,-35.8059"/>
</g>
</g>
</svg>
