<?xml version="1.0" encoding="UTF-8" standalone="no"?>
<!DOCTYPE svg PUBLIC "-//W3C//DTD SVG 1.1//EN"
 "http://www.w3.org/Graphics/SVG/1.1/DTD/svg11.dtd">
<!-- Generated by graphviz version 2.36.0 (20140111.2315)
 -->
<!-- Title: tree.BlockNode Pages: 1 -->
<svg width="233pt" height="96pt"
 viewBox="0.00 0.00 233.00 96.00" xmlns="http://www.w3.org/2000/svg" xmlns:xlink="http://www.w3.org/1999/xlink">
<g id="graph0" class="graph" transform="scale(1 1) rotate(0) translate(4 92)">
<title>tree.BlockNode</title>
<polygon fill="white" stroke="none" points="-4,4 -4,-92 229,-92 229,4 -4,4"/>
<!-- Node1 -->
<g id="node1" class="node"><title>Node1</title>
<polygon fill="#bfbfbf" stroke="black" points="58,-0.5 58,-19.5 148,-19.5 148,-0.5 58,-0.5"/>
<text text-anchor="middle" x="103" y="-7.5" font-family="Helvetica,sans-Serif" font-size="10.00">tree.BlockNode</text>
</g>
<!-- Node2 -->
<g id="node2" class="node"><title>Node2</title>
<g id="a_node2"><a xlink:href="../../da/d49/classtree_1_1_tree_node.html" target="_top" xlink:title="tree.TreeNode">
<polygon fill="white" stroke="black" points="0,-68.5 0,-87.5 84,-87.5 84,-68.5 0,-68.5"/>
<text text-anchor="middle" x="42" y="-75.5" font-family="Helvetica,sans-Serif" font-size="10.00">tree.TreeNode</text>
</a>
</g>
</g>
<!-- Node2&#45;&gt;Node1 -->
<g id="edge1" class="edge"><title>Node2&#45;&gt;Node1</title>
<path fill="none" stroke="midnightblue" d="M57.0836,-60.68C69.0093,-47.7768 85.2014,-30.2575 94.8287,-19.8411"/>
<polygon fill="midnightblue" stroke="midnightblue" points="54.1918,-58.6523 49.9747,-68.3717 59.3325,-63.4035 54.1918,-58.6523"/>
</g>
<!-- Node3 -->
<g id="node3" class="node"><title>Node3</title>
<polygon fill="white" stroke="#bfbfbf" points="102.5,-68.5 102.5,-87.5 225.5,-87.5 225.5,-68.5 102.5,-68.5"/>
<text text-anchor="middle" x="164" y="-75.5" font-family="Helvetica,sans-Serif" font-size="10.00">List&lt; tree.TreeNode &gt;</text>
</g>
<!-- Node3&#45;&gt;Node1 -->
<g id="edge2" class="edge"><title>Node3&#45;&gt;Node1</title>
<path fill="none" stroke="#9a32cd" stroke-dasharray="5,2" d="M148.916,-60.68C136.991,-47.7768 120.799,-30.2575 111.171,-19.8411"/>
<polygon fill="#9a32cd" stroke="#9a32cd" points="146.668,-63.4035 156.025,-68.3717 151.808,-58.6523 146.668,-63.4035"/>
<text text-anchor="middle" x="161" y="-41.5" font-family="Helvetica,sans-Serif" font-size="10.00"> nodeList</text>
</g>
</g>
</svg>
