<?xml version="1.0" encoding="UTF-8" standalone="no"?>
<!DOCTYPE svg PUBLIC "-//W3C//DTD SVG 1.1//EN"
 "http://www.w3.org/Graphics/SVG/1.1/DTD/svg11.dtd">
<!-- Generated by graphviz version 2.36.0 (20140111.2315)
 -->
<!-- Title: view.EnterCommands Pages: 1 -->
<svg width="282pt" height="164pt"
 viewBox="0.00 0.00 282.00 164.00" xmlns="http://www.w3.org/2000/svg" xmlns:xlink="http://www.w3.org/1999/xlink">
<g id="graph0" class="graph" transform="scale(1 1) rotate(0) translate(4 160)">
<title>view.EnterCommands</title>
<polygon fill="white" stroke="none" points="-4,4 -4,-160 278,-160 278,4 -4,4"/>
<!-- Node1 -->
<g id="node1" class="node"><title>Node1</title>
<polygon fill="#bfbfbf" stroke="black" points="61,-68.5 61,-87.5 181,-87.5 181,-68.5 61,-68.5"/>
<text text-anchor="middle" x="121" y="-75.5" font-family="Helvetica,sans-Serif" font-size="10.00">view.EnterCommands</text>
</g>
<!-- Node4 -->
<g id="node4" class="node"><title>Node4</title>
<g id="a_node4"><a xlink:href="../../d2/d22/classview_1_1_previous_commands.html" target="_top" xlink:title="view.PreviousCommands">
<polygon fill="white" stroke="black" points="5.5,-0.5 5.5,-19.5 140.5,-19.5 140.5,-0.5 5.5,-0.5"/>
<text text-anchor="middle" x="73" y="-7.5" font-family="Helvetica,sans-Serif" font-size="10.00">view.PreviousCommands</text>
</a>
</g>
</g>
<!-- Node1&#45;&gt;Node4 -->
<g id="edge5" class="edge"><title>Node1&#45;&gt;Node4</title>
<path fill="none" stroke="#9a32cd" stroke-dasharray="5,2" d="M112.136,-59.0972C108.436,-52.2564 103.866,-44.5351 99,-38 94.1029,-31.4236 87.7279,-24.7801 82.5161,-19.7287"/>
<polygon fill="#9a32cd" stroke="#9a32cd" points="109.165,-60.9735 116.867,-68.2489 115.384,-57.7585 109.165,-60.9735"/>
<text text-anchor="middle" x="121.5" y="-41.5" font-family="Helvetica,sans-Serif" font-size="10.00"> enter</text>
</g>
<!-- Node2 -->
<g id="node2" class="node"><title>Node2</title>
<polygon fill="white" stroke="#bfbfbf" points="80.5,-136.5 80.5,-155.5 151.5,-155.5 151.5,-136.5 80.5,-136.5"/>
<text text-anchor="middle" x="116" y="-143.5" font-family="Helvetica,sans-Serif" font-size="10.00">Observable</text>
</g>
<!-- Node2&#45;&gt;Node1 -->
<g id="edge1" class="edge"><title>Node2&#45;&gt;Node1</title>
<path fill="none" stroke="midnightblue" d="M117.436,-126.041C118.388,-113.472 119.594,-97.5631 120.33,-87.8411"/>
<polygon fill="midnightblue" stroke="midnightblue" points="113.919,-126.136 116.654,-136.372 120.899,-126.665 113.919,-126.136"/>
</g>
<!-- Node3 -->
<g id="node3" class="node"><title>Node3</title>
<g id="a_node3"><a xlink:href="../../de/d83/classview_1_1_import_design.html" target="_top" xlink:title="view.ImportDesign">
<polygon fill="white" stroke="black" points="170,-136.5 170,-155.5 274,-155.5 274,-136.5 170,-136.5"/>
<text text-anchor="middle" x="222" y="-143.5" font-family="Helvetica,sans-Serif" font-size="10.00">view.ImportDesign</text>
</a>
</g>
</g>
<!-- Node3&#45;&gt;Node1 -->
<g id="edge2" class="edge"><title>Node3&#45;&gt;Node1</title>
<path fill="none" stroke="#9a32cd" stroke-dasharray="5,2" d="M200.287,-130.811C180.202,-117.686 150.995,-98.6004 134.207,-87.6305"/>
<polygon fill="#9a32cd" stroke="#9a32cd" points="198.51,-133.831 208.796,-136.372 202.339,-127.971 198.51,-133.831"/>
<text text-anchor="middle" x="199" y="-109.5" font-family="Helvetica,sans-Serif" font-size="10.00"> upload</text>
</g>
<!-- Node4&#45;&gt;Node1 -->
<g id="edge3" class="edge"><title>Node4&#45;&gt;Node1</title>
<path fill="none" stroke="#9a32cd" stroke-dasharray="5,2" d="M69.8053,-30.0724C69.5993,-36.7821 70.49,-44.1111 74,-50 78.9143,-58.245 87.3739,-64.2061 95.7735,-68.3944"/>
<polygon fill="#9a32cd" stroke="#9a32cd" points="73.3283,-30.0459 70.9187,-19.7287 66.3685,-29.2967 73.3283,-30.0459"/>
<text text-anchor="middle" x="86.5" y="-41.5" font-family="Helvetica,sans-Serif" font-size="10.00"> prev</text>
</g>
<!-- Node5 -->
<g id="node5" class="node"><title>Node5</title>
<polygon fill="white" stroke="#bfbfbf" points="0,-136.5 0,-155.5 58,-155.5 58,-136.5 0,-136.5"/>
<text text-anchor="middle" x="29" y="-143.5" font-family="Helvetica,sans-Serif" font-size="10.00">TextArea</text>
</g>
<!-- Node5&#45;&gt;Node1 -->
<g id="edge6" class="edge"><title>Node5&#45;&gt;Node1</title>
<path fill="none" stroke="#9a32cd" stroke-dasharray="5,2" d="M49.2747,-130.455C67.5521,-117.343 93.8159,-98.5016 108.97,-87.6305"/>
<polygon fill="#9a32cd" stroke="#9a32cd" points="47.1126,-127.699 41.0274,-136.372 51.193,-133.386 47.1126,-127.699"/>
<text text-anchor="middle" x="95" y="-109.5" font-family="Helvetica,sans-Serif" font-size="10.00"> text</text>
</g>
<!-- Node5&#45;&gt;Node4 -->
<g id="edge4" class="edge"><title>Node5&#45;&gt;Node4</title>
<path fill="none" stroke="#9a32cd" stroke-dasharray="5,2" d="M26.022,-125.983C24.2775,-110.047 23.5227,-86.9325 30,-68 36.7412,-48.2962 53.1531,-29.9058 63.6398,-19.5907"/>
<polygon fill="#9a32cd" stroke="#9a32cd" points="22.5872,-126.705 27.3779,-136.154 29.5258,-125.78 22.5872,-126.705"/>
<text text-anchor="middle" x="41" y="-75.5" font-family="Helvetica,sans-Serif" font-size="10.00"> text</text>
</g>
</g>
</svg>
