<?xml version="1.0" encoding="UTF-8" standalone="no"?>
<!DOCTYPE svg PUBLIC "-//W3C//DTD SVG 1.1//EN"
 "http://www.w3.org/Graphics/SVG/1.1/DTD/svg11.dtd">
<!-- Generated by graphviz version 2.36.0 (20140111.2315)
 -->
<!-- Title: view.EnterCommands Pages: 1 -->
<svg width="318pt" height="164pt"
 viewBox="0.00 0.00 318.00 164.00" xmlns="http://www.w3.org/2000/svg" xmlns:xlink="http://www.w3.org/1999/xlink">
<g id="graph0" class="graph" transform="scale(1 1) rotate(0) translate(4 160)">
<title>view.EnterCommands</title>
<polygon fill="white" stroke="none" points="-4,4 -4,-160 314,-160 314,4 -4,4"/>
<!-- Node1 -->
<g id="node1" class="node"><title>Node1</title>
<polygon fill="#bfbfbf" stroke="black" points="74,-68.5 74,-87.5 194,-87.5 194,-68.5 74,-68.5"/>
<text text-anchor="middle" x="134" y="-75.5" font-family="Helvetica,sans-Serif" font-size="10.00">view.EnterCommands</text>
</g>
<!-- Node3 -->
<g id="node3" class="node"><title>Node3</title>
<g id="a_node3"><a xlink:href="../../de/d83/classview_1_1_import_design.html" target="_top" xlink:title="view.ImportDesign">
<polygon fill="white" stroke="black" points="163,-0.5 163,-19.5 267,-19.5 267,-0.5 163,-0.5"/>
<text text-anchor="middle" x="215" y="-7.5" font-family="Helvetica,sans-Serif" font-size="10.00">view.ImportDesign</text>
</a>
</g>
</g>
<!-- Node1&#45;&gt;Node3 -->
<g id="edge3" class="edge"><title>Node1&#45;&gt;Node3</title>
<path fill="none" stroke="#9a32cd" stroke-dasharray="5,2" d="M184.096,-64.3713C191.523,-60.7193 198.511,-56.026 204,-50 211.674,-41.5746 214.041,-28.195 214.744,-19.5053"/>
<polygon fill="#9a32cd" stroke="#9a32cd" points="182.352,-61.3107 174.535,-68.4623 185.106,-67.7464 182.352,-61.3107"/>
<text text-anchor="middle" x="260" y="-41.5" font-family="Helvetica,sans-Serif" font-size="10.00"> myEnterCommands</text>
</g>
<!-- Node4 -->
<g id="node4" class="node"><title>Node4</title>
<g id="a_node4"><a xlink:href="../../d2/d22/classview_1_1_previous_commands.html" target="_top" xlink:title="view.PreviousCommands">
<polygon fill="white" stroke="black" points="-0.5,-0.5 -0.5,-19.5 134.5,-19.5 134.5,-0.5 -0.5,-0.5"/>
<text text-anchor="middle" x="67" y="-7.5" font-family="Helvetica,sans-Serif" font-size="10.00">view.PreviousCommands</text>
</a>
</g>
</g>
<!-- Node1&#45;&gt;Node4 -->
<g id="edge6" class="edge"><title>Node1&#45;&gt;Node4</title>
<path fill="none" stroke="#9a32cd" stroke-dasharray="5,2" d="M79.3784,-63.8809C73.3443,-60.3121 67.9609,-55.7731 64,-50 57.853,-41.0406 60.5616,-28.0461 63.4575,-19.5601"/>
<polygon fill="#9a32cd" stroke="#9a32cd" points="78.0801,-67.1436 88.5946,-68.446 81.1872,-60.871 78.0801,-67.1436"/>
<text text-anchor="middle" x="78.5" y="-41.5" font-family="Helvetica,sans-Serif" font-size="10.00"> enter</text>
</g>
<!-- Node2 -->
<g id="node2" class="node"><title>Node2</title>
<polygon fill="white" stroke="#bfbfbf" points="98.5,-136.5 98.5,-155.5 169.5,-155.5 169.5,-136.5 98.5,-136.5"/>
<text text-anchor="middle" x="134" y="-143.5" font-family="Helvetica,sans-Serif" font-size="10.00">Observable</text>
</g>
<!-- Node2&#45;&gt;Node1 -->
<g id="edge1" class="edge"><title>Node2&#45;&gt;Node1</title>
<path fill="none" stroke="midnightblue" d="M134,-126.041C134,-113.472 134,-97.5631 134,-87.8411"/>
<polygon fill="midnightblue" stroke="midnightblue" points="130.5,-126.372 134,-136.372 137.5,-126.372 130.5,-126.372"/>
</g>
<!-- Node3&#45;&gt;Node1 -->
<g id="edge2" class="edge"><title>Node3&#45;&gt;Node1</title>
<path fill="none" stroke="#9a32cd" stroke-dasharray="5,2" d="M187.764,-24.6052C181.013,-28.5169 173.999,-33.0726 168,-38 157.033,-47.0079 146.652,-59.7525 140.311,-68.1901"/>
<polygon fill="#9a32cd" stroke="#9a32cd" points="189.614,-27.5826 196.688,-19.6957 186.239,-21.4495 189.614,-27.5826"/>
<text text-anchor="middle" x="186" y="-41.5" font-family="Helvetica,sans-Serif" font-size="10.00"> upload</text>
</g>
<!-- Node4&#45;&gt;Node1 -->
<g id="edge4" class="edge"><title>Node4&#45;&gt;Node1</title>
<path fill="none" stroke="#9a32cd" stroke-dasharray="5,2" d="M84.4712,-26.3028C88.6355,-30.0652 93.0237,-34.1268 97,-38 107.43,-48.1591 118.888,-60.419 126.248,-68.4468"/>
<polygon fill="#9a32cd" stroke="#9a32cd" points="86.7015,-23.6022 76.9063,-19.5644 82.0456,-28.8293 86.7015,-23.6022"/>
<text text-anchor="middle" x="121.5" y="-41.5" font-family="Helvetica,sans-Serif" font-size="10.00"> prev</text>
</g>
<!-- Node5 -->
<g id="node5" class="node"><title>Node5</title>
<polygon fill="white" stroke="#bfbfbf" points="14,-136.5 14,-155.5 72,-155.5 72,-136.5 14,-136.5"/>
<text text-anchor="middle" x="43" y="-143.5" font-family="Helvetica,sans-Serif" font-size="10.00">TextArea</text>
</g>
<!-- Node5&#45;&gt;Node1 -->
<g id="edge7" class="edge"><title>Node5&#45;&gt;Node1</title>
<path fill="none" stroke="#9a32cd" stroke-dasharray="5,2" d="M63.0543,-130.455C81.133,-117.343 107.111,-98.5016 122.1,-87.6305"/>
<polygon fill="#9a32cd" stroke="#9a32cd" points="60.9368,-127.667 54.8967,-136.372 65.0466,-133.334 60.9368,-127.667"/>
<text text-anchor="middle" x="108" y="-109.5" font-family="Helvetica,sans-Serif" font-size="10.00"> text</text>
</g>
<!-- Node5&#45;&gt;Node4 -->
<g id="edge5" class="edge"><title>Node5&#45;&gt;Node4</title>
<path fill="none" stroke="#9a32cd" stroke-dasharray="5,2" d="M40.9503,-126.334C39.71,-110.612 39.0395,-87.6123 43,-68 46.6557,-49.8973 56.233,-30.3894 62.1246,-19.5364"/>
<polygon fill="#9a32cd" stroke="#9a32cd" points="37.4708,-126.717 41.896,-136.344 44.4398,-126.059 37.4708,-126.717"/>
<text text-anchor="middle" x="54" y="-75.5" font-family="Helvetica,sans-Serif" font-size="10.00"> text</text>
</g>
</g>
</svg>
