<?xml version="1.0" encoding="UTF-8" standalone="no"?>
<!DOCTYPE svg PUBLIC "-//W3C//DTD SVG 1.1//EN"
 "http://www.w3.org/Graphics/SVG/1.1/DTD/svg11.dtd">
<!-- Generated by graphviz version 2.36.0 (20140111.2315)
 -->
<!-- Title: view.LanguageChooser.setLanguage Pages: 1 -->
<svg width="354pt" height="66pt"
 viewBox="0.00 0.00 354.00 66.00" xmlns="http://www.w3.org/2000/svg" xmlns:xlink="http://www.w3.org/1999/xlink">
<g id="graph0" class="graph" transform="scale(1 1) rotate(0) translate(4 62)">
<title>view.LanguageChooser.setLanguage</title>
<polygon fill="white" stroke="none" points="-4,4 -4,-62 350,-62 350,4 -4,4"/>
<!-- Node1 -->
<g id="node1" class="node"><title>Node1</title>
<polygon fill="#bfbfbf" stroke="black" points="0.5,-14 0.5,-44 143.5,-44 143.5,-14 0.5,-14"/>
<text text-anchor="start" x="8.5" y="-32" font-family="Helvetica,sans-Serif" font-size="10.00">view.LanguageChooser.set</text>
<text text-anchor="middle" x="72" y="-21" font-family="Helvetica,sans-Serif" font-size="10.00">Language</text>
</g>
<!-- Node2 -->
<g id="node2" class="node"><title>Node2</title>
<g id="a_node2"><a xlink:href="../../d3/dbe/classview_1_1_view.html#a318198fbcd4b1cac52bff73680ca8730" target="_top" xlink:title="view.View.getModel">
<polygon fill="white" stroke="black" points="209.5,-38.5 209.5,-57.5 316.5,-57.5 316.5,-38.5 209.5,-38.5"/>
<text text-anchor="middle" x="263" y="-45.5" font-family="Helvetica,sans-Serif" font-size="10.00">view.View.getModel</text>
</a>
</g>
</g>
<!-- Node1&#45;&gt;Node2 -->
<g id="edge1" class="edge"><title>Node1&#45;&gt;Node2</title>
<path fill="none" stroke="midnightblue" d="M143.645,-36.1019C161.876,-37.9346 181.374,-39.8947 199.176,-41.6844"/>
<polygon fill="midnightblue" stroke="midnightblue" points="199.139,-45.1982 209.439,-42.7161 199.84,-38.2333 199.139,-45.1982"/>
</g>
<!-- Node3 -->
<g id="node3" class="node"><title>Node3</title>
<g id="a_node3"><a xlink:href="../../dd/d17/classapplication_1_1_model.html#a31a6a7f1c136e4fccef5f51525c9ade0" target="_top" xlink:title="application.Model.setLanguage">
<polygon fill="white" stroke="black" points="180.5,-0.5 180.5,-19.5 345.5,-19.5 345.5,-0.5 180.5,-0.5"/>
<text text-anchor="middle" x="263" y="-7.5" font-family="Helvetica,sans-Serif" font-size="10.00">application.Model.setLanguage</text>
</a>
</g>
</g>
<!-- Node1&#45;&gt;Node3 -->
<g id="edge2" class="edge"><title>Node1&#45;&gt;Node3</title>
<path fill="none" stroke="midnightblue" d="M143.645,-21.8981C152.33,-21.025 161.302,-20.1231 170.241,-19.2244"/>
<polygon fill="midnightblue" stroke="midnightblue" points="170.703,-22.6957 180.303,-18.2129 170.003,-15.7308 170.703,-22.6957"/>
</g>
</g>
</svg>
