<?xml version="1.0" encoding="UTF-8" standalone="no"?>
<!DOCTYPE svg PUBLIC "-//W3C//DTD SVG 1.1//EN"
 "http://www.w3.org/Graphics/SVG/1.1/DTD/svg11.dtd">
<!-- Generated by graphviz version 2.36.0 (20140111.2315)
 -->
<!-- Title: commands.ID.function Pages: 1 -->
<svg width="334pt" height="77pt"
 viewBox="0.00 0.00 334.00 77.00" xmlns="http://www.w3.org/2000/svg" xmlns:xlink="http://www.w3.org/1999/xlink">
<g id="graph0" class="graph" transform="scale(1 1) rotate(0) translate(4 73)">
<title>commands.ID.function</title>
<polygon fill="white" stroke="none" points="-4,4 -4,-73 330,-73 330,4 -4,4"/>
<!-- Node1 -->
<g id="node1" class="node"><title>Node1</title>
<polygon fill="#bfbfbf" stroke="black" points="0.5,-27.5 0.5,-46.5 125.5,-46.5 125.5,-27.5 0.5,-27.5"/>
<text text-anchor="middle" x="63" y="-34.5" font-family="Helvetica,sans-Serif" font-size="10.00">commands.ID.function</text>
</g>
<!-- Node2 -->
<g id="node2" class="node"><title>Node2</title>
<g id="a_node2"><a xlink:href="../../d7/d99/classtree_1_1_command_node.html#ae60b1b2f861235627eb90a0d1fa25814" target="_top" xlink:title="tree.CommandNode.getModel">
<polygon fill="white" stroke="black" points="163,-49.5 163,-68.5 325,-68.5 325,-49.5 163,-49.5"/>
<text text-anchor="middle" x="244" y="-56.5" font-family="Helvetica,sans-Serif" font-size="10.00">tree.CommandNode.getModel</text>
</a>
</g>
</g>
<!-- Node1&#45;&gt;Node2 -->
<g id="edge1" class="edge"><title>Node1&#45;&gt;Node2</title>
<path fill="none" stroke="midnightblue" d="M125.602,-44.5712C135.234,-45.755 145.346,-46.9978 155.425,-48.2366"/>
<polygon fill="midnightblue" stroke="midnightblue" points="155.122,-51.7256 165.474,-49.4717 155.976,-44.7779 155.122,-51.7256"/>
</g>
<!-- Node3 -->
<g id="node3" class="node"><title>Node3</title>
<g id="a_node3"><a xlink:href="../../d7/d99/classtree_1_1_command_node.html#a9f3dd4c2d2489cbbbc7e09e252a8c9a3" target="_top" xlink:title="tree.CommandNode.putObject\lInList">
<polygon fill="white" stroke="black" points="162,-0 162,-30 326,-30 326,-0 162,-0"/>
<text text-anchor="start" x="170" y="-18" font-family="Helvetica,sans-Serif" font-size="10.00">tree.CommandNode.putObject</text>
<text text-anchor="middle" x="244" y="-7" font-family="Helvetica,sans-Serif" font-size="10.00">InList</text>
</a>
</g>
</g>
<!-- Node1&#45;&gt;Node3 -->
<g id="edge2" class="edge"><title>Node1&#45;&gt;Node3</title>
<path fill="none" stroke="midnightblue" d="M125.602,-29.4288C134.051,-28.3903 142.87,-27.3065 151.712,-26.2198"/>
<polygon fill="midnightblue" stroke="midnightblue" points="152.188,-29.6877 161.686,-24.9939 151.334,-22.74 152.188,-29.6877"/>
</g>
</g>
</svg>
