<?xml version="1.0" encoding="UTF-8" standalone="no"?>
<!DOCTYPE svg PUBLIC "-//W3C//DTD SVG 1.1//EN"
 "http://www.w3.org/Graphics/SVG/1.1/DTD/svg11.dtd">
<!-- Generated by graphviz version 2.36.0 (20140111.2315)
 -->
<!-- Title: tree.CommandNode.getRootNodes Pages: 1 -->
<svg width="590pt" height="268pt"
 viewBox="0.00 0.00 590.00 268.38" xmlns="http://www.w3.org/2000/svg" xmlns:xlink="http://www.w3.org/1999/xlink">
<g id="graph0" class="graph" transform="scale(1 1) rotate(0) translate(4 264.378)">
<title>tree.CommandNode.getRootNodes</title>
<polygon fill="white" stroke="none" points="-4,4 -4,-264.378 586,-264.378 586,4 -4,4"/>
<!-- Node1 -->
<g id="node1" class="node"><title>Node1</title>
<polygon fill="#bfbfbf" stroke="black" points="0.5,-109 0.5,-139 155.5,-139 155.5,-109 0.5,-109"/>
<text text-anchor="start" x="8.5" y="-127" font-family="Helvetica,sans-Serif" font-size="10.00">tree.CommandNode.getRoot</text>
<text text-anchor="middle" x="78" y="-116" font-family="Helvetica,sans-Serif" font-size="10.00">Nodes</text>
</g>
<!-- Node2 -->
<g id="node2" class="node"><title>Node2</title>
<g id="a_node2"><a xlink:href="../../d7/d99/classtree_1_1_command_node.html#a0d6206db5d6903518833d81b5ca922da" target="_top" xlink:title="tree.CommandNode.blockTo\lDoubleList">
<polygon fill="white" stroke="black" points="223,-191 223,-221 375,-221 375,-191 223,-191"/>
<text text-anchor="start" x="231" y="-209" font-family="Helvetica,sans-Serif" font-size="10.00">tree.CommandNode.blockTo</text>
<text text-anchor="middle" x="299" y="-198" font-family="Helvetica,sans-Serif" font-size="10.00">DoubleList</text>
</a>
</g>
</g>
<!-- Node1&#45;&gt;Node2 -->
<g id="edge1" class="edge"><title>Node1&#45;&gt;Node2</title>
<path fill="none" stroke="midnightblue" d="M113.609,-144.142C135.502,-156.199 164.723,-171.062 192,-181 202.215,-184.722 213.189,-188.033 224.065,-190.93"/>
<polygon fill="midnightblue" stroke="midnightblue" points="115.14,-140.988 104.702,-139.169 111.727,-147.1 115.14,-140.988"/>
</g>
<!-- Node3 -->
<g id="node3" class="node"><title>Node3</title>
<g id="a_node3"><a xlink:href="../../de/d74/classcommands_1_1_ask.html#a9d61a23c4bf1adad72ae5f73bc820b92" target="_top" xlink:title="commands.Ask.function">
<polygon fill="white" stroke="black" points="446,-237.5 446,-256.5 578,-256.5 578,-237.5 446,-237.5"/>
<text text-anchor="middle" x="512" y="-244.5" font-family="Helvetica,sans-Serif" font-size="10.00">commands.Ask.function</text>
</a>
</g>
</g>
<!-- Node1&#45;&gt;Node3 -->
<g id="edge8" class="edge"><title>Node1&#45;&gt;Node3</title>
<path fill="none" stroke="midnightblue" d="M95.4572,-147.084C115.139,-172.58 150.657,-212.357 192,-230 274.126,-265.047 379.125,-262.735 445.744,-256.193"/>
<polygon fill="midnightblue" stroke="midnightblue" points="98.2128,-144.925 89.4043,-139.037 92.6188,-149.133 98.2128,-144.925"/>
</g>
<!-- Node5 -->
<g id="node5" class="node"><title>Node5</title>
<g id="a_node5"><a xlink:href="../../dd/dec/classcommands_1_1_if.html#af4992935265deb1e4759cd6579da4680" target="_top" xlink:title="commands.If.evaluateCommand">
<polygon fill="white" stroke="black" points="212.5,-152.5 212.5,-171.5 385.5,-171.5 385.5,-152.5 212.5,-152.5"/>
<text text-anchor="middle" x="299" y="-159.5" font-family="Helvetica,sans-Serif" font-size="10.00">commands.If.evaluateCommand</text>
</a>
</g>
</g>
<!-- Node1&#45;&gt;Node5 -->
<g id="edge4" class="edge"><title>Node1&#45;&gt;Node5</title>
<path fill="none" stroke="midnightblue" d="M165.521,-139.013C191.686,-143.553 219.684,-148.411 243.17,-152.486"/>
<polygon fill="midnightblue" stroke="midnightblue" points="166.047,-135.552 155.596,-137.291 164.85,-142.449 166.047,-135.552"/>
</g>
<!-- Node8 -->
<g id="node8" class="node"><title>Node8</title>
<g id="a_node8"><a xlink:href="../../d1/d02/classcommands_1_1_for.html#a8da419ba7440611f91c927f59a444697" target="_top" xlink:title="commands.For.function">
<polygon fill="white" stroke="black" points="234.5,-114.5 234.5,-133.5 363.5,-133.5 363.5,-114.5 234.5,-114.5"/>
<text text-anchor="middle" x="299" y="-121.5" font-family="Helvetica,sans-Serif" font-size="10.00">commands.For.function</text>
</a>
</g>
</g>
<!-- Node1&#45;&gt;Node8 -->
<g id="edge7" class="edge"><title>Node1&#45;&gt;Node8</title>
<path fill="none" stroke="midnightblue" d="M165.685,-124C188.65,-124 213.015,-124 234.495,-124"/>
<polygon fill="midnightblue" stroke="midnightblue" points="165.596,-120.5 155.596,-124 165.596,-127.5 165.596,-120.5"/>
</g>
<!-- Node9 -->
<g id="node9" class="node"><title>Node9</title>
<g id="a_node9"><a xlink:href="../../db/d3c/classcommands_1_1_do_times.html#a1ceaf103ac42aec6746670fb09e7f47e" target="_top" xlink:title="commands.DoTimes.function">
<polygon fill="white" stroke="black" points="220.5,-76.5 220.5,-95.5 377.5,-95.5 377.5,-76.5 220.5,-76.5"/>
<text text-anchor="middle" x="299" y="-83.5" font-family="Helvetica,sans-Serif" font-size="10.00">commands.DoTimes.function</text>
</a>
</g>
</g>
<!-- Node1&#45;&gt;Node9 -->
<g id="edge9" class="edge"><title>Node1&#45;&gt;Node9</title>
<path fill="none" stroke="midnightblue" d="M165.521,-108.987C191.686,-104.447 219.684,-99.589 243.17,-95.5139"/>
<polygon fill="midnightblue" stroke="midnightblue" points="164.85,-105.551 155.596,-110.709 166.047,-112.448 164.85,-105.551"/>
</g>
<!-- Node10 -->
<g id="node10" class="node"><title>Node10</title>
<g id="a_node10"><a xlink:href="../../de/d4a/classcommands_1_1_make_user_instruction.html#a838bf1cdeaa97909512ef4c1378bd706" target="_top" xlink:title="commands.MakeUserInstruction.function">
<polygon fill="white" stroke="black" points="192.5,-38.5 192.5,-57.5 405.5,-57.5 405.5,-38.5 192.5,-38.5"/>
<text text-anchor="middle" x="299" y="-45.5" font-family="Helvetica,sans-Serif" font-size="10.00">commands.MakeUserInstruction.function</text>
</a>
</g>
</g>
<!-- Node1&#45;&gt;Node10 -->
<g id="edge10" class="edge"><title>Node1&#45;&gt;Node10</title>
<path fill="none" stroke="midnightblue" d="M112.564,-103.822C134.476,-91.4771 164.099,-76.3166 192,-67 203.527,-63.1511 216.034,-60.0318 228.28,-57.5197"/>
<polygon fill="midnightblue" stroke="midnightblue" points="110.61,-100.907 103.672,-108.914 114.089,-106.981 110.61,-100.907"/>
</g>
<!-- Node11 -->
<g id="node11" class="node"><title>Node11</title>
<g id="a_node11"><a xlink:href="../../db/d3c/classcommands_1_1_do_times.html#ab41d74dfb8204d3a48187415d6269c6a" target="_top" xlink:title="commands.DoTimes.runForLoop">
<polygon fill="white" stroke="black" points="212.5,-0.5 212.5,-19.5 385.5,-19.5 385.5,-0.5 212.5,-0.5"/>
<text text-anchor="middle" x="299" y="-7.5" font-family="Helvetica,sans-Serif" font-size="10.00">commands.DoTimes.runForLoop</text>
</a>
</g>
</g>
<!-- Node1&#45;&gt;Node11 -->
<g id="edge11" class="edge"><title>Node1&#45;&gt;Node11</title>
<path fill="none" stroke="midnightblue" d="M99.041,-101.333C119.957,-79.2095 154.839,-46.4139 192,-29 200.295,-25.1127 209.299,-22.0174 218.435,-19.5534"/>
<polygon fill="midnightblue" stroke="midnightblue" points="96.4723,-98.9552 92.2444,-108.67 101.608,-103.712 96.4723,-98.9552"/>
</g>
<!-- Node2&#45;&gt;Node3 -->
<g id="edge2" class="edge"><title>Node2&#45;&gt;Node3</title>
<path fill="none" stroke="midnightblue" d="M385.209,-222.557C411.368,-227.64 439.256,-233.059 462.11,-237.5"/>
<polygon fill="midnightblue" stroke="midnightblue" points="385.766,-219.1 375.282,-220.628 384.431,-225.972 385.766,-219.1"/>
</g>
<!-- Node4 -->
<g id="node4" class="node"><title>Node4</title>
<g id="a_node4"><a xlink:href="../../df/d6d/classcommands_1_1_tell.html#ae9a130ae492df45b33f1e45d4aafd255" target="_top" xlink:title="commands.Tell.function">
<polygon fill="white" stroke="black" points="447.5,-196.5 447.5,-215.5 576.5,-215.5 576.5,-196.5 447.5,-196.5"/>
<text text-anchor="middle" x="512" y="-203.5" font-family="Helvetica,sans-Serif" font-size="10.00">commands.Tell.function</text>
</a>
</g>
</g>
<!-- Node2&#45;&gt;Node4 -->
<g id="edge3" class="edge"><title>Node2&#45;&gt;Node4</title>
<path fill="none" stroke="midnightblue" d="M385.334,-206C406.015,-206 427.77,-206 447.258,-206"/>
<polygon fill="midnightblue" stroke="midnightblue" points="385.282,-202.5 375.282,-206 385.282,-209.5 385.282,-202.5"/>
</g>
<!-- Node6 -->
<g id="node6" class="node"><title>Node6</title>
<g id="a_node6"><a xlink:href="../../d8/dc1/classcommands_1_1_if_else.html#a8a6526a96655b8c3f5b5d933c1aacc64" target="_top" xlink:title="commands.IfElse.function">
<polygon fill="white" stroke="black" points="442,-155.5 442,-174.5 582,-174.5 582,-155.5 442,-155.5"/>
<text text-anchor="middle" x="512" y="-162.5" font-family="Helvetica,sans-Serif" font-size="10.00">commands.IfElse.function</text>
</a>
</g>
</g>
<!-- Node5&#45;&gt;Node6 -->
<g id="edge5" class="edge"><title>Node5&#45;&gt;Node6</title>
<path fill="none" stroke="midnightblue" d="M395.687,-163.36C411.247,-163.582 427.094,-163.807 441.858,-164.017"/>
<polygon fill="midnightblue" stroke="midnightblue" points="395.566,-159.859 385.518,-163.216 395.467,-166.858 395.566,-159.859"/>
</g>
<!-- Node7 -->
<g id="node7" class="node"><title>Node7</title>
<g id="a_node7"><a xlink:href="../../dd/dec/classcommands_1_1_if.html#a2a8e2fd04325679983dae1be727b5772" target="_top" xlink:title="commands.If.function">
<polygon fill="white" stroke="black" points="452.5,-117.5 452.5,-136.5 571.5,-136.5 571.5,-117.5 452.5,-117.5"/>
<text text-anchor="middle" x="512" y="-124.5" font-family="Helvetica,sans-Serif" font-size="10.00">commands.If.function</text>
</a>
</g>
</g>
<!-- Node5&#45;&gt;Node7 -->
<g id="edge6" class="edge"><title>Node5&#45;&gt;Node7</title>
<path fill="none" stroke="midnightblue" d="M367.407,-150.819C395.173,-146.213 427.007,-140.933 453.633,-136.516"/>
<polygon fill="midnightblue" stroke="midnightblue" points="366.67,-147.393 357.378,-152.482 367.816,-154.299 366.67,-147.393"/>
</g>
</g>
</svg>
