<?xml version="1.0" encoding="UTF-8" standalone="no"?>
<!DOCTYPE svg PUBLIC "-//W3C//DTD SVG 1.1//EN"
 "http://www.w3.org/Graphics/SVG/1.1/DTD/svg11.dtd">
<!-- Generated by graphviz version 2.36.0 (20140111.2315)
 -->
<!-- Title: tree.CommandNode.evaluate Pages: 1 -->
<svg width="840pt" height="126pt"
 viewBox="0.00 0.00 840.00 126.00" xmlns="http://www.w3.org/2000/svg" xmlns:xlink="http://www.w3.org/1999/xlink">
<g id="graph0" class="graph" transform="scale(1 1) rotate(0) translate(4 122)">
<title>tree.CommandNode.evaluate</title>
<polygon fill="white" stroke="none" points="-4,4 -4,-122 836,-122 836,4 -4,4"/>
<!-- Node1 -->
<g id="node1" class="node"><title>Node1</title>
<polygon fill="#bfbfbf" stroke="black" points="0.5,-44.5 0.5,-63.5 159.5,-63.5 159.5,-44.5 0.5,-44.5"/>
<text text-anchor="middle" x="80" y="-51.5" font-family="Helvetica,sans-Serif" font-size="10.00">tree.CommandNode.evaluate</text>
</g>
<!-- Node2 -->
<g id="node2" class="node"><title>Node2</title>
<g id="a_node2"><a xlink:href="../../d7/d99/classtree_1_1_command_node.html#a4bf51af9a3fc4eecf4e2b0e2dceb1a2e" target="_top" xlink:title="tree.CommandNode.evaluate\lTurtles">
<polygon fill="white" stroke="black" points="197.5,-88 197.5,-118 356.5,-118 356.5,-88 197.5,-88"/>
<text text-anchor="start" x="205.5" y="-106" font-family="Helvetica,sans-Serif" font-size="10.00">tree.CommandNode.evaluate</text>
<text text-anchor="middle" x="277" y="-95" font-family="Helvetica,sans-Serif" font-size="10.00">Turtles</text>
</a>
</g>
</g>
<!-- Node1&#45;&gt;Node2 -->
<g id="edge1" class="edge"><title>Node1&#45;&gt;Node2</title>
<path fill="none" stroke="midnightblue" d="M119.061,-63.564C143.856,-69.7947 176.945,-78.1094 206.347,-85.4974"/>
<polygon fill="midnightblue" stroke="midnightblue" points="205.608,-88.9204 216.159,-87.963 207.314,-82.1314 205.608,-88.9204"/>
</g>
<!-- Node5 -->
<g id="node5" class="node"><title>Node5</title>
<g id="a_node5"><a xlink:href="../../d1/deb/classapplication_1_1_turtle_list.html#a87d2c5ddc9378480e8b4bfa5e95b5629" target="_top" xlink:title="application.TurtleList.get\lActiveTurtles">
<polygon fill="white" stroke="black" points="211,-39 211,-69 343,-69 343,-39 211,-39"/>
<text text-anchor="start" x="219" y="-57" font-family="Helvetica,sans-Serif" font-size="10.00">application.TurtleList.get</text>
<text text-anchor="middle" x="277" y="-46" font-family="Helvetica,sans-Serif" font-size="10.00">ActiveTurtles</text>
</a>
</g>
</g>
<!-- Node1&#45;&gt;Node5 -->
<g id="edge4" class="edge"><title>Node1&#45;&gt;Node5</title>
<path fill="none" stroke="midnightblue" d="M159.752,-54C173.229,-54 187.203,-54 200.59,-54"/>
<polygon fill="midnightblue" stroke="midnightblue" points="200.695,-57.5001 210.695,-54 200.695,-50.5001 200.695,-57.5001"/>
</g>
<!-- Node6 -->
<g id="node6" class="node"><title>Node6</title>
<g id="a_node6"><a xlink:href="../../dd/d17/classapplication_1_1_model.html#aa7ed87b9bf32630ff3c5b771feb6a67a" target="_top" xlink:title="application.Model.getTurtleList">
<polygon fill="white" stroke="black" points="196.5,-0.5 196.5,-19.5 357.5,-19.5 357.5,-0.5 196.5,-0.5"/>
<text text-anchor="middle" x="277" y="-7.5" font-family="Helvetica,sans-Serif" font-size="10.00">application.Model.getTurtleList</text>
</a>
</g>
</g>
<!-- Node1&#45;&gt;Node6 -->
<g id="edge5" class="edge"><title>Node1&#45;&gt;Node6</title>
<path fill="none" stroke="midnightblue" d="M123.312,-44.4527C152.826,-37.7931 192.4,-28.8637 223.863,-21.7642"/>
<polygon fill="midnightblue" stroke="midnightblue" points="224.786,-25.144 233.77,-19.5287 223.245,-18.3157 224.786,-25.144"/>
</g>
<!-- Node3 -->
<g id="node3" class="node"><title>Node3</title>
<g id="a_node3"><a xlink:href="../../d7/d99/classtree_1_1_command_node.html#a69bfa124214fd3236c99901925a5f055" target="_top" xlink:title="tree.CommandNode.checkParameters">
<polygon fill="white" stroke="black" points="394.5,-93.5 394.5,-112.5 595.5,-112.5 595.5,-93.5 394.5,-93.5"/>
<text text-anchor="middle" x="495" y="-100.5" font-family="Helvetica,sans-Serif" font-size="10.00">tree.CommandNode.checkParameters</text>
</a>
</g>
</g>
<!-- Node2&#45;&gt;Node3 -->
<g id="edge2" class="edge"><title>Node2&#45;&gt;Node3</title>
<path fill="none" stroke="midnightblue" d="M356.592,-103C365.628,-103 374.96,-103 384.31,-103"/>
<polygon fill="midnightblue" stroke="midnightblue" points="384.449,-106.5 394.449,-103 384.449,-99.5001 384.449,-106.5"/>
</g>
<!-- Node4 -->
<g id="node4" class="node"><title>Node4</title>
<g id="a_node4"><a xlink:href="../../d7/d99/classtree_1_1_command_node.html#a217a1626d7815f8121a2224ddf7af40f" target="_top" xlink:title="tree.CommandNode.throwParameters\lException">
<polygon fill="white" stroke="black" points="632,-88 632,-118 832,-118 832,-88 632,-88"/>
<text text-anchor="start" x="640" y="-106" font-family="Helvetica,sans-Serif" font-size="10.00">tree.CommandNode.throwParameters</text>
<text text-anchor="middle" x="732" y="-95" font-family="Helvetica,sans-Serif" font-size="10.00">Exception</text>
</a>
</g>
</g>
<!-- Node3&#45;&gt;Node4 -->
<g id="edge3" class="edge"><title>Node3&#45;&gt;Node4</title>
<path fill="none" stroke="midnightblue" d="M595.661,-103C604.293,-103 613.056,-103 621.758,-103"/>
<polygon fill="midnightblue" stroke="midnightblue" points="621.935,-106.5 631.935,-103 621.935,-99.5001 621.935,-106.5"/>
</g>
</g>
</svg>
