<?xml version="1.0" encoding="UTF-8" standalone="no"?>
<!DOCTYPE svg PUBLIC "-//W3C//DTD SVG 1.1//EN"
 "http://www.w3.org/Graphics/SVG/1.1/DTD/svg11.dtd">
<!-- Generated by graphviz version 2.36.0 (20140111.2315)
 -->
<!-- Title: tree.CommandNode.evaluateTurtles Pages: 1 -->
<svg width="642pt" height="38pt"
 viewBox="0.00 0.00 642.00 38.00" xmlns="http://www.w3.org/2000/svg" xmlns:xlink="http://www.w3.org/1999/xlink">
<g id="graph0" class="graph" transform="scale(1 1) rotate(0) translate(4 34)">
<title>tree.CommandNode.evaluateTurtles</title>
<polygon fill="white" stroke="none" points="-4,4 -4,-34 638,-34 638,4 -4,4"/>
<!-- Node1 -->
<g id="node1" class="node"><title>Node1</title>
<polygon fill="#bfbfbf" stroke="black" points="0.5,-0 0.5,-30 159.5,-30 159.5,-0 0.5,-0"/>
<text text-anchor="start" x="8.5" y="-18" font-family="Helvetica,sans-Serif" font-size="10.00">tree.CommandNode.evaluate</text>
<text text-anchor="middle" x="80" y="-7" font-family="Helvetica,sans-Serif" font-size="10.00">Turtles</text>
</g>
<!-- Node2 -->
<g id="node2" class="node"><title>Node2</title>
<g id="a_node2"><a xlink:href="../../d7/d99/classtree_1_1_command_node.html#a69bfa124214fd3236c99901925a5f055" target="_top" xlink:title="tree.CommandNode.checkParameters">
<polygon fill="white" stroke="black" points="196.5,-5.5 196.5,-24.5 397.5,-24.5 397.5,-5.5 196.5,-5.5"/>
<text text-anchor="middle" x="297" y="-12.5" font-family="Helvetica,sans-Serif" font-size="10.00">tree.CommandNode.checkParameters</text>
</a>
</g>
</g>
<!-- Node1&#45;&gt;Node2 -->
<g id="edge1" class="edge"><title>Node1&#45;&gt;Node2</title>
<path fill="none" stroke="midnightblue" d="M159.533,-15C168.248,-15 177.238,-15 186.249,-15"/>
<polygon fill="midnightblue" stroke="midnightblue" points="186.419,-18.5001 196.419,-15 186.419,-11.5001 186.419,-18.5001"/>
</g>
<!-- Node3 -->
<g id="node3" class="node"><title>Node3</title>
<g id="a_node3"><a xlink:href="../../d7/d99/classtree_1_1_command_node.html#a217a1626d7815f8121a2224ddf7af40f" target="_top" xlink:title="tree.CommandNode.throwParameters\lException">
<polygon fill="white" stroke="black" points="434,-0 434,-30 634,-30 634,-0 434,-0"/>
<text text-anchor="start" x="442" y="-18" font-family="Helvetica,sans-Serif" font-size="10.00">tree.CommandNode.throwParameters</text>
<text text-anchor="middle" x="534" y="-7" font-family="Helvetica,sans-Serif" font-size="10.00">Exception</text>
</a>
</g>
</g>
<!-- Node2&#45;&gt;Node3 -->
<g id="edge2" class="edge"><title>Node2&#45;&gt;Node3</title>
<path fill="none" stroke="midnightblue" d="M397.661,-15C406.293,-15 415.056,-15 423.758,-15"/>
<polygon fill="midnightblue" stroke="midnightblue" points="423.935,-18.5001 433.935,-15 423.935,-11.5001 423.935,-18.5001"/>
</g>
</g>
</svg>
