<?xml version="1.0" encoding="UTF-8" standalone="no"?>
<!DOCTYPE svg PUBLIC "-//W3C//DTD SVG 1.1//EN"
 "http://www.w3.org/Graphics/SVG/1.1/DTD/svg11.dtd">
<!-- Generated by graphviz version 2.36.0 (20140111.2315)
 -->
<!-- Title: tree.CommandNode.checkParameters Pages: 1 -->
<!--zoomable 216 -->
<svg id="main" version="1.1" xmlns="http://www.w3.org/2000/svg" xmlns:xlink="http://www.w3.org/1999/xlink" xml:space="preserve" onload="init(evt)">
<style type="text/css"><![CDATA[
.edge:hover path { stroke: red; }
.edge:hover polygon { stroke: red; fill: red; }
]]></style>
<script type="text/javascript"><![CDATA[
var edges = document.getElementsByTagName('g');
if (edges && edges.length) {
  for (var i=0;i<edges.length;i++) {
    if (edges[i].id.substr(0,4)=='edge') {
      edges[i].setAttribute('class','edge');
    }
  }
}
]]></script>
        <defs>
                <circle id="rim" cx="0" cy="0" r="7"/>
                <circle id="rim2" cx="0" cy="0" r="3.5"/>
                <g id="zoomPlus">
                        <use xlink:href="#rim" fill="#404040">
                                <set attributeName="fill" to="#808080" begin="zoomplus.mouseover" end="zoomplus.mouseout"/>
                        </use>
                        <path d="M-4,0h8M0,-4v8" fill="none" stroke="white" stroke-width="1.5" pointer-events="none"/>
                </g>
                <g id="zoomMin">
                        <use xlink:href="#rim" fill="#404040">
                                <set attributeName="fill" to="#808080" begin="zoomminus.mouseover" end="zoomminus.mouseout"/>
                        </use>
                        <path d="M-4,0h8" fill="none" stroke="white" stroke-width="1.5" pointer-events="none"/>
                </g>
                <g id="dirArrow">
                        <path fill="none" stroke="white" stroke-width="1.5" d="M0,-3.0v7 M-2.5,-0.5L0,-3.0L2.5,-0.5"/>
                </g>
               <g id="resetDef">
                       <use xlink:href="#rim2" fill="#404040">
                               <set attributeName="fill" to="#808080" begin="reset.mouseover" end="reset.mouseout"/>
                       </use>
               </g>
        </defs>

<script type="text/javascript">
var viewWidth = 1074;
var viewHeight = 216;
var sectionId = 'dynsection-6';
</script>
<script xlink:href="../../svgpan.js"/>
<svg id="graph" class="graph">
<g id="viewport">
<title>tree.CommandNode.checkParameters</title>
<polygon fill="white" stroke="none" points="-4,4 -4,-212 1070,-212 1070,4 -4,4"/>
<!-- Node1 -->
<g id="node1" class="node"><title>Node1</title>
<polygon fill="#bfbfbf" stroke="black" points="0.5,-87.5 0.5,-106.5 201.5,-106.5 201.5,-87.5 0.5,-87.5"/>
<text text-anchor="middle" x="101" y="-94.5" font-family="Helvetica,sans-Serif" font-size="10.00">tree.CommandNode.checkParameters</text>
</g>
<!-- Node2 -->
<g id="node2" class="node"><title>Node2</title>
<g id="a_node2"><a xlink:href="../../d7/d99/classtree_1_1_command_node.html#a0d6206db5d6903518833d81b5ca922da" target="_top" xlink:title="tree.CommandNode.blockTo\lDoubleList">
<polygon fill="white" stroke="black" points="258,-175 258,-205 410,-205 410,-175 258,-175"/>
<text text-anchor="start" x="266" y="-193" font-family="Helvetica,sans-Serif" font-size="10.00">tree.CommandNode.blockTo</text>
<text text-anchor="middle" x="334" y="-182" font-family="Helvetica,sans-Serif" font-size="10.00">DoubleList</text>
</a>
</g>
</g>
<!-- Node1&#45;&gt;Node2 -->
<g id="edge1" class="edge"><title>Node1&#45;&gt;Node2</title>
<path fill="none" stroke="midnightblue" d="M126.96,-111.447C153.716,-126.461 197.785,-149.841 238,-165 247.735,-168.67 258.224,-172.01 268.556,-174.969"/>
<polygon fill="midnightblue" stroke="midnightblue" points="128.678,-108.398 118.252,-106.513 125.227,-114.488 128.678,-108.398"/>
</g>
<!-- Node5 -->
<g id="node5" class="node"><title>Node5</title>
<g id="a_node5"><a xlink:href="../../d7/d99/classtree_1_1_command_node.html#a4bf51af9a3fc4eecf4e2b0e2dceb1a2e" target="_top" xlink:title="tree.CommandNode.evaluate\lTurtles">
<polygon fill="white" stroke="black" points="254.5,-126 254.5,-156 413.5,-156 413.5,-126 254.5,-126"/>
<text text-anchor="start" x="262.5" y="-144" font-family="Helvetica,sans-Serif" font-size="10.00">tree.CommandNode.evaluate</text>
<text text-anchor="middle" x="334" y="-133" font-family="Helvetica,sans-Serif" font-size="10.00">Turtles</text>
</a>
</g>
</g>
<!-- Node1&#45;&gt;Node5 -->
<g id="edge4" class="edge"><title>Node1&#45;&gt;Node5</title>
<path fill="none" stroke="midnightblue" d="M162.214,-108.469C190.355,-113.83 224.226,-120.281 254.358,-126.021"/>
<polygon fill="midnightblue" stroke="midnightblue" points="162.602,-104.98 152.124,-106.547 161.292,-111.857 162.602,-104.98"/>
</g>
<!-- Node11 -->
<g id="node11" class="node"><title>Node11</title>
<g id="a_node11"><a xlink:href="../../d1/d02/classcommands_1_1_for.html#a8da419ba7440611f91c927f59a444697" target="_top" xlink:title="commands.For.function">
<polygon fill="white" stroke="black" points="269.5,-87.5 269.5,-106.5 398.5,-106.5 398.5,-87.5 269.5,-87.5"/>
<text text-anchor="middle" x="334" y="-94.5" font-family="Helvetica,sans-Serif" font-size="10.00">commands.For.function</text>
</a>
</g>
</g>
<!-- Node1&#45;&gt;Node11 -->
<g id="edge11" class="edge"><title>Node1&#45;&gt;Node11</title>
<path fill="none" stroke="midnightblue" d="M211.908,-97C231.602,-97 251.514,-97 269.346,-97"/>
<polygon fill="midnightblue" stroke="midnightblue" points="211.641,-93.5001 201.641,-97 211.641,-100.5 211.641,-93.5001"/>
</g>
<!-- Node12 -->
<g id="node12" class="node"><title>Node12</title>
<g id="a_node12"><a xlink:href="../../db/d3c/classcommands_1_1_do_times.html#a1ceaf103ac42aec6746670fb09e7f47e" target="_top" xlink:title="commands.DoTimes.function">
<polygon fill="white" stroke="black" points="255.5,-49.5 255.5,-68.5 412.5,-68.5 412.5,-49.5 255.5,-49.5"/>
<text text-anchor="middle" x="334" y="-56.5" font-family="Helvetica,sans-Serif" font-size="10.00">commands.DoTimes.function</text>
</a>
</g>
</g>
<!-- Node1&#45;&gt;Node12 -->
<g id="edge12" class="edge"><title>Node1&#45;&gt;Node12</title>
<path fill="none" stroke="midnightblue" d="M170.114,-85.795C203.437,-80.3134 243.126,-73.7845 274.983,-68.5439"/>
<polygon fill="midnightblue" stroke="midnightblue" points="169.292,-82.3832 159.993,-87.46 170.428,-89.2903 169.292,-82.3832"/>
</g>
<!-- Node13 -->
<g id="node13" class="node"><title>Node13</title>
<g id="a_node13"><a xlink:href="../../de/d4a/classcommands_1_1_make_user_instruction.html#a75ffc5da473d74341095f1221d00247e" target="_top" xlink:title="commands.MakeUserInstruction.get\lVariableList">
<polygon fill="white" stroke="black" points="238.5,-0 238.5,-30 429.5,-30 429.5,-0 238.5,-0"/>
<text text-anchor="start" x="246.5" y="-18" font-family="Helvetica,sans-Serif" font-size="10.00">commands.MakeUserInstruction.get</text>
<text text-anchor="middle" x="334" y="-7" font-family="Helvetica,sans-Serif" font-size="10.00">VariableList</text>
</a>
</g>
</g>
<!-- Node1&#45;&gt;Node13 -->
<g id="edge13" class="edge"><title>Node1&#45;&gt;Node13</title>
<path fill="none" stroke="midnightblue" d="M131.744,-83.1159C158.991,-70.7397 200.646,-52.6738 238,-40 248.498,-36.4382 259.789,-33.0735 270.794,-30.0353"/>
<polygon fill="midnightblue" stroke="midnightblue" points="130.027,-80.0524 122.392,-87.3977 132.941,-86.4171 130.027,-80.0524"/>
</g>
<!-- Node3 -->
<g id="node3" class="node"><title>Node3</title>
<g id="a_node3"><a xlink:href="../../de/d74/classcommands_1_1_ask.html#a9d61a23c4bf1adad72ae5f73bc820b92" target="_top" xlink:title="commands.Ask.function">
<polygon fill="white" stroke="black" points="737,-188.5 737,-207.5 869,-207.5 869,-188.5 737,-188.5"/>
<text text-anchor="middle" x="803" y="-195.5" font-family="Helvetica,sans-Serif" font-size="10.00">commands.Ask.function</text>
</a>
</g>
</g>
<!-- Node2&#45;&gt;Node3 -->
<g id="edge2" class="edge"><title>Node2&#45;&gt;Node3</title>
<path fill="none" stroke="midnightblue" d="M420.517,-195.976C435.661,-196.82 451.289,-197.551 466,-198 560.165,-200.873 669.242,-200.121 736.941,-199.174"/>
<polygon fill="midnightblue" stroke="midnightblue" points="420.311,-192.459 410.126,-195.377 419.908,-199.447 420.311,-192.459"/>
</g>
<!-- Node4 -->
<g id="node4" class="node"><title>Node4</title>
<g id="a_node4"><a xlink:href="../../df/d6d/classcommands_1_1_tell.html#ae9a130ae492df45b33f1e45d4aafd255" target="_top" xlink:title="commands.Tell.function">
<polygon fill="white" stroke="black" points="508.5,-169.5 508.5,-188.5 637.5,-188.5 637.5,-169.5 508.5,-169.5"/>
<text text-anchor="middle" x="573" y="-176.5" font-family="Helvetica,sans-Serif" font-size="10.00">commands.Tell.function</text>
</a>
</g>
</g>
<!-- Node2&#45;&gt;Node4 -->
<g id="edge3" class="edge"><title>Node2&#45;&gt;Node4</title>
<path fill="none" stroke="midnightblue" d="M420.452,-186.034C449.489,-184.686 481.403,-183.205 508.424,-181.951"/>
<polygon fill="midnightblue" stroke="midnightblue" points="420.141,-182.544 410.314,-186.504 420.465,-189.537 420.141,-182.544"/>
</g>
<!-- Node6 -->
<g id="node6" class="node"><title>Node6</title>
<g id="a_node6"><a xlink:href="../../d7/d99/classtree_1_1_command_node.html#a5bebc2f70e6e3486c403b9cdb0ce04cb" target="_top" xlink:title="tree.CommandNode.evaluate">
<polygon fill="white" stroke="black" points="493.5,-131.5 493.5,-150.5 652.5,-150.5 652.5,-131.5 493.5,-131.5"/>
<text text-anchor="middle" x="573" y="-138.5" font-family="Helvetica,sans-Serif" font-size="10.00">tree.CommandNode.evaluate</text>
</a>
</g>
</g>
<!-- Node5&#45;&gt;Node6 -->
<g id="edge5" class="edge"><title>Node5&#45;&gt;Node6</title>
<path fill="none" stroke="midnightblue" d="M423.617,-141C446.469,-141 470.907,-141 493.22,-141"/>
<polygon fill="midnightblue" stroke="midnightblue" points="423.588,-137.5 413.588,-141 423.588,-144.5 423.588,-137.5"/>
</g>
<!-- Node6&#45;&gt;Node3 -->
<g id="edge7" class="edge"><title>Node6&#45;&gt;Node3</title>
<path fill="none" stroke="midnightblue" d="M644.453,-152.359C656.371,-154.643 668.578,-157.209 680,-160 697.671,-164.318 742.77,-178.699 772.903,-188.477"/>
<polygon fill="midnightblue" stroke="midnightblue" points="645.007,-148.902 634.534,-150.508 643.723,-155.783 645.007,-148.902"/>
</g>
<!-- Node7 -->
<g id="node7" class="node"><title>Node7</title>
<g id="a_node7"><a xlink:href="../../dd/d17/classapplication_1_1_model.html#a9457364de27b16e384b02f2d679cb327" target="_top" xlink:title="application.Model.update">
<polygon fill="white" stroke="black" points="734.5,-141.5 734.5,-160.5 871.5,-160.5 871.5,-141.5 734.5,-141.5"/>
<text text-anchor="middle" x="803" y="-148.5" font-family="Helvetica,sans-Serif" font-size="10.00">application.Model.update</text>
</a>
</g>
</g>
<!-- Node6&#45;&gt;Node7 -->
<g id="edge6" class="edge"><title>Node6&#45;&gt;Node7</title>
<path fill="none" stroke="midnightblue" d="M662.847,-144.897C686.574,-145.937 711.832,-147.045 734.225,-148.027"/>
<polygon fill="midnightblue" stroke="midnightblue" points="662.928,-141.397 652.784,-144.455 662.621,-148.39 662.928,-141.397"/>
</g>
<!-- Node8 -->
<g id="node8" class="node"><title>Node8</title>
<g id="a_node8"><a xlink:href="../../dd/dec/classcommands_1_1_if.html#af4992935265deb1e4759cd6579da4680" target="_top" xlink:title="commands.If.evaluateCommand">
<polygon fill="white" stroke="black" points="716.5,-103.5 716.5,-122.5 889.5,-122.5 889.5,-103.5 716.5,-103.5"/>
<text text-anchor="middle" x="803" y="-110.5" font-family="Helvetica,sans-Serif" font-size="10.00">commands.If.evaluateCommand</text>
</a>
</g>
</g>
<!-- Node6&#45;&gt;Node8 -->
<g id="edge8" class="edge"><title>Node6&#45;&gt;Node8</title>
<path fill="none" stroke="midnightblue" d="M661.545,-130.249C682.217,-127.71 704.117,-125.021 724.319,-122.54"/>
<polygon fill="midnightblue" stroke="midnightblue" points="661.007,-126.789 651.509,-131.481 661.861,-133.736 661.007,-126.789"/>
</g>
<!-- Node9 -->
<g id="node9" class="node"><title>Node9</title>
<g id="a_node9"><a xlink:href="../../d8/dc1/classcommands_1_1_if_else.html#a8a6526a96655b8c3f5b5d933c1aacc64" target="_top" xlink:title="commands.IfElse.function">
<polygon fill="white" stroke="black" points="926,-122.5 926,-141.5 1066,-141.5 1066,-122.5 926,-122.5"/>
<text text-anchor="middle" x="996" y="-129.5" font-family="Helvetica,sans-Serif" font-size="10.00">commands.IfElse.function</text>
</a>
</g>
</g>
<!-- Node8&#45;&gt;Node9 -->
<g id="edge9" class="edge"><title>Node8&#45;&gt;Node9</title>
<path fill="none" stroke="midnightblue" d="M899.679,-122.518C908.511,-123.396 917.341,-124.275 925.866,-125.123"/>
<polygon fill="midnightblue" stroke="midnightblue" points="900.02,-119.035 889.723,-121.527 899.327,-126 900.02,-119.035"/>
</g>
<!-- Node10 -->
<g id="node10" class="node"><title>Node10</title>
<g id="a_node10"><a xlink:href="../../dd/dec/classcommands_1_1_if.html#a2a8e2fd04325679983dae1be727b5772" target="_top" xlink:title="commands.If.function">
<polygon fill="white" stroke="black" points="936.5,-84.5 936.5,-103.5 1055.5,-103.5 1055.5,-84.5 936.5,-84.5"/>
<text text-anchor="middle" x="996" y="-91.5" font-family="Helvetica,sans-Serif" font-size="10.00">commands.If.function</text>
</a>
</g>
</g>
<!-- Node8&#45;&gt;Node10 -->
<g id="edge10" class="edge"><title>Node8&#45;&gt;Node10</title>
<path fill="none" stroke="midnightblue" d="M899.733,-103.477C912.233,-102.233 924.728,-100.99 936.362,-99.8331"/>
<polygon fill="midnightblue" stroke="midnightblue" points="899.327,-99.9998 889.723,-104.473 900.02,-106.965 899.327,-99.9998"/>
</g>
<!-- Node14 -->
<g id="node14" class="node"><title>Node14</title>
<g id="a_node14"><a xlink:href="../../de/d4a/classcommands_1_1_make_user_instruction.html#a838bf1cdeaa97909512ef4c1378bd706" target="_top" xlink:title="commands.MakeUserInstruction.function">
<polygon fill="white" stroke="black" points="466.5,-5.5 466.5,-24.5 679.5,-24.5 679.5,-5.5 466.5,-5.5"/>
<text text-anchor="middle" x="573" y="-12.5" font-family="Helvetica,sans-Serif" font-size="10.00">commands.MakeUserInstruction.function</text>
</a>
</g>
</g>
<!-- Node13&#45;&gt;Node14 -->
<g id="edge14" class="edge"><title>Node13&#45;&gt;Node14</title>
<path fill="none" stroke="midnightblue" d="M439.877,-15C448.603,-15 457.429,-15 466.162,-15"/>
<polygon fill="midnightblue" stroke="midnightblue" points="439.69,-11.5001 429.69,-15 439.69,-18.5001 439.69,-11.5001"/>
</g>
</g>
</svg>
        <g id="navigator" transform="translate(0 0)" fill="#404254">
                <rect fill="#f2f5e9" fill-opacity="0.5" stroke="#606060" stroke-width=".5" x="0" y="0" width="60" height="60"/>
                <use id="zoomplus" xlink:href="#zoomPlus" x="17" y="9" onmousedown="handleZoom(evt,'in')"/>
                <use id="zoomminus" xlink:href="#zoomMin" x="42" y="9" onmousedown="handleZoom(evt,'out')"/>
                <use id="reset" xlink:href="#resetDef" x="30" y="36" onmousedown="handleReset()"/>
                <g id="arrowUp" xlink:href="#dirArrow" transform="translate(30 24)" onmousedown="handlePan(0,-1)">
                  <use xlink:href="#rim" fill="#404040">
                        <set attributeName="fill" to="#808080" begin="arrowUp.mouseover" end="arrowUp.mouseout"/>
                  </use>
                  <path fill="none" stroke="white" stroke-width="1.5" d="M0,-3.0v7 M-2.5,-0.5L0,-3.0L2.5,-0.5"/>
                </g>
                <g id="arrowRight" xlink:href="#dirArrow" transform="rotate(90) translate(36 -43)" onmousedown="handlePan(1,0)">
                  <use xlink:href="#rim" fill="#404040">
                        <set attributeName="fill" to="#808080" begin="arrowRight.mouseover" end="arrowRight.mouseout"/>
                  </use>
                  <path fill="none" stroke="white" stroke-width="1.5" d="M0,-3.0v7 M-2.5,-0.5L0,-3.0L2.5,-0.5"/>
                </g>
                <g id="arrowDown" xlink:href="#dirArrow" transform="rotate(180) translate(-30 -48)" onmousedown="handlePan(0,1)">
                  <use xlink:href="#rim" fill="#404040">
                        <set attributeName="fill" to="#808080" begin="arrowDown.mouseover" end="arrowDown.mouseout"/>
                  </use>
                  <path fill="none" stroke="white" stroke-width="1.5" d="M0,-3.0v7 M-2.5,-0.5L0,-3.0L2.5,-0.5"/>
                </g>
                <g id="arrowLeft" xlink:href="#dirArrow" transform="rotate(270) translate(-36 17)" onmousedown="handlePan(-1,0)">
                  <use xlink:href="#rim" fill="#404040">
                        <set attributeName="fill" to="#808080" begin="arrowLeft.mouseover" end="arrowLeft.mouseout"/>
                  </use>
                  <path fill="none" stroke="white" stroke-width="1.5" d="M0,-3.0v7 M-2.5,-0.5L0,-3.0L2.5,-0.5"/>
                </g>
        </g>
        <svg viewBox="0 0 15 15" width="100%" height="30px" preserveAspectRatio="xMaxYMin meet">
         <g id="arrow_out" transform="scale(0.3 0.3)">
          <a xlink:href="classtree_1_1_command_node_a69bfa124214fd3236c99901925a5f055_icgraph_org.svg" target="_base">
           <rect id="button" ry="5" rx="5" y="6" x="6" height="38" width="38"
                fill="#f2f5e9" fill-opacity="0.5" stroke="#606060" stroke-width="1.0"/>
           <path id="arrow"
             d="M 11.500037,31.436501 C 11.940474,20.09759 22.043105,11.32322 32.158766,21.979434 L 37.068811,17.246167 C 37.068811,17.246167 37.088388,32 37.088388,32 L 22.160133,31.978069 C 22.160133,31.978069 26.997745,27.140456 26.997745,27.140456 C 18.528582,18.264221 13.291696,25.230495 11.500037,31.436501 z"
             style="fill:#404040;"/>
          </a>
         </g>
        </svg>
</svg>
