<?xml version="1.0" encoding="UTF-8" standalone="no"?>
<!DOCTYPE svg PUBLIC "-//W3C//DTD SVG 1.1//EN"
 "http://www.w3.org/Graphics/SVG/1.1/DTD/svg11.dtd">
<!-- Generated by graphviz version 2.36.0 (20140111.2315)
 -->
<!-- Title: tree.CommandNode.getModel Pages: 1 -->
<svg width="806pt" height="647pt"
 viewBox="0.00 0.00 806.00 647.00" xmlns="http://www.w3.org/2000/svg" xmlns:xlink="http://www.w3.org/1999/xlink">
<g id="graph0" class="graph" transform="scale(1 1) rotate(0) translate(4 643)">
<title>tree.CommandNode.getModel</title>
<polygon fill="white" stroke="none" points="-4,4 -4,-643 802,-643 802,4 -4,4"/>
<!-- Node1 -->
<g id="node1" class="node"><title>Node1</title>
<polygon fill="#bfbfbf" stroke="black" points="0,-304.5 0,-323.5 162,-323.5 162,-304.5 0,-304.5"/>
<text text-anchor="middle" x="81" y="-311.5" font-family="Helvetica,sans-Serif" font-size="10.00">tree.CommandNode.getModel</text>
</g>
<!-- Node2 -->
<g id="node2" class="node"><title>Node2</title>
<g id="a_node2"><a xlink:href="../../d2/dc9/classcommands_1_1_forward.html#a847dfb7681940af22b76944f2ece7342" target="_top" xlink:title="commands.Forward.advance\lTurtle">
<polygon fill="white" stroke="black" points="227.5,-609 227.5,-639 382.5,-639 382.5,-609 227.5,-609"/>
<text text-anchor="start" x="235.5" y="-627" font-family="Helvetica,sans-Serif" font-size="10.00">commands.Forward.advance</text>
<text text-anchor="middle" x="305" y="-616" font-family="Helvetica,sans-Serif" font-size="10.00">Turtle</text>
</a>
</g>
</g>
<!-- Node1&#45;&gt;Node2 -->
<g id="edge1" class="edge"><title>Node1&#45;&gt;Node2</title>
<path fill="none" stroke="midnightblue" d="M84.2852,-333.683C91.268,-384.654 117.036,-521.991 198,-594 206.432,-601.499 216.607,-607.135 227.275,-611.368"/>
<polygon fill="midnightblue" stroke="midnightblue" points="87.7447,-333.142 83.0075,-323.665 80.8009,-334.028 87.7447,-333.142"/>
</g>
<!-- Node4 -->
<g id="node4" class="node"><title>Node4</title>
<g id="a_node4"><a xlink:href="../../dc/de9/classcommands_1_1_backward.html#a3d024167c1b0b72f5c526e6fae458fa2" target="_top" xlink:title="commands.Backward.function">
<polygon fill="white" stroke="black" points="636.5,-590.5 636.5,-609.5 797.5,-609.5 797.5,-590.5 636.5,-590.5"/>
<text text-anchor="middle" x="717" y="-597.5" font-family="Helvetica,sans-Serif" font-size="10.00">commands.Backward.function</text>
</a>
</g>
</g>
<!-- Node1&#45;&gt;Node4 -->
<g id="edge15" class="edge"><title>Node1&#45;&gt;Node4</title>
<path fill="none" stroke="midnightblue" d="M84.5493,-333.549C91.9758,-381.708 118.37,-506.119 198,-561 233.179,-585.246 500.113,-594.966 636.42,-598.38"/>
<polygon fill="midnightblue" stroke="midnightblue" points="87.9942,-332.915 83.1112,-323.512 81.065,-333.907 87.9942,-332.915"/>
</g>
<!-- Node5 -->
<g id="node5" class="node"><title>Node5</title>
<g id="a_node5"><a xlink:href="../../dd/dec/classcommands_1_1_if.html#af4992935265deb1e4759cd6579da4680" target="_top" xlink:title="commands.If.evaluateCommand">
<polygon fill="white" stroke="black" points="218.5,-532.5 218.5,-551.5 391.5,-551.5 391.5,-532.5 218.5,-532.5"/>
<text text-anchor="middle" x="305" y="-539.5" font-family="Helvetica,sans-Serif" font-size="10.00">commands.If.evaluateCommand</text>
</a>
</g>
</g>
<!-- Node1&#45;&gt;Node5 -->
<g id="edge4" class="edge"><title>Node1&#45;&gt;Node5</title>
<path fill="none" stroke="midnightblue" d="M86.8236,-333.783C98.2283,-376.039 131.066,-475.141 198,-523 204.235,-527.458 211.192,-530.976 218.48,-533.74"/>
<polygon fill="midnightblue" stroke="midnightblue" points="90.1592,-332.702 84.2706,-323.895 83.3815,-334.452 90.1592,-332.702"/>
</g>
<!-- Node8 -->
<g id="node8" class="node"><title>Node8</title>
<g id="a_node8"><a xlink:href="../../d6/dd9/classcommands_1_1_clear_stamp.html#a94e21b0f5273c51734f7e56e2cab6171" target="_top" xlink:title="commands.ClearStamp.function">
<polygon fill="white" stroke="black" points="219,-494.5 219,-513.5 391,-513.5 391,-494.5 219,-494.5"/>
<text text-anchor="middle" x="305" y="-501.5" font-family="Helvetica,sans-Serif" font-size="10.00">commands.ClearStamp.function</text>
</a>
</g>
</g>
<!-- Node1&#45;&gt;Node8 -->
<g id="edge7" class="edge"><title>Node1&#45;&gt;Node8</title>
<path fill="none" stroke="midnightblue" d="M89.0792,-333.145C103.508,-369.283 139.951,-447.295 198,-485 204.428,-489.175 211.517,-492.501 218.888,-495.141"/>
<polygon fill="midnightblue" stroke="midnightblue" points="92.3173,-331.815 85.45,-323.747 85.7872,-334.336 92.3173,-331.815"/>
</g>
<!-- Node9 -->
<g id="node9" class="node"><title>Node9</title>
<g id="a_node9"><a xlink:href="../../d3/de4/classcommands_1_1_set_pen_size.html#aaf550efa2331c7079921a71b257f2807" target="_top" xlink:title="commands.SetPenSize.function">
<polygon fill="white" stroke="black" points="220,-456.5 220,-475.5 390,-475.5 390,-456.5 220,-456.5"/>
<text text-anchor="middle" x="305" y="-463.5" font-family="Helvetica,sans-Serif" font-size="10.00">commands.SetPenSize.function</text>
</a>
</g>
</g>
<!-- Node1&#45;&gt;Node9 -->
<g id="edge8" class="edge"><title>Node1&#45;&gt;Node9</title>
<path fill="none" stroke="midnightblue" d="M92.4161,-332.531C110.033,-361.997 148.662,-419.048 198,-447 204.832,-450.871 212.275,-453.983 219.946,-456.481"/>
<polygon fill="midnightblue" stroke="midnightblue" points="95.3181,-330.56 87.2621,-323.678 89.2686,-334.081 95.3181,-330.56"/>
</g>
<!-- Node10 -->
<g id="node10" class="node"><title>Node10</title>
<g id="a_node10"><a xlink:href="../../dc/d0f/classcommands_1_1_set_pen_color.html#a164176f9d1a0b78612e194ba28a23e48" target="_top" xlink:title="commands.SetPenColor.function">
<polygon fill="white" stroke="black" points="218.5,-418.5 218.5,-437.5 391.5,-437.5 391.5,-418.5 218.5,-418.5"/>
<text text-anchor="middle" x="305" y="-425.5" font-family="Helvetica,sans-Serif" font-size="10.00">commands.SetPenColor.function</text>
</a>
</g>
</g>
<!-- Node1&#45;&gt;Node10 -->
<g id="edge9" class="edge"><title>Node1&#45;&gt;Node10</title>
<path fill="none" stroke="midnightblue" d="M97.4909,-331.239C118.148,-353.056 156.912,-390.067 198,-409 206.49,-412.912 215.707,-416.021 225.044,-418.491"/>
<polygon fill="midnightblue" stroke="midnightblue" points="99.8585,-328.645 90.4931,-323.691 94.7251,-333.404 99.8585,-328.645"/>
</g>
<!-- Node11 -->
<g id="node11" class="node"><title>Node11</title>
<g id="a_node11"><a xlink:href="../../d0/ddf/classcommands_1_1_set_pallet.html#a78380e95b4ef6decd828ba69d72d4ac7" target="_top" xlink:title="commands.SetPallet.function">
<polygon fill="white" stroke="black" points="226.5,-380.5 226.5,-399.5 383.5,-399.5 383.5,-380.5 226.5,-380.5"/>
<text text-anchor="middle" x="305" y="-387.5" font-family="Helvetica,sans-Serif" font-size="10.00">commands.SetPallet.function</text>
</a>
</g>
</g>
<!-- Node1&#45;&gt;Node11 -->
<g id="edge10" class="edge"><title>Node1&#45;&gt;Node11</title>
<path fill="none" stroke="midnightblue" d="M106.628,-328.632C129.543,-341.623 165.02,-360.179 198,-371 209.724,-374.847 222.449,-377.973 234.879,-380.495"/>
<polygon fill="midnightblue" stroke="midnightblue" points="108.324,-325.569 97.9109,-323.613 104.831,-331.636 108.324,-325.569"/>
</g>
<!-- Node12 -->
<g id="node12" class="node"><title>Node12</title>
<g id="a_node12"><a xlink:href="../../d5/ddb/classcommands_1_1_set_background.html#adc89c631b71f6814a5988b9bcb9c82ff" target="_top" xlink:title="commands.SetBackground.function">
<polygon fill="white" stroke="black" points="211,-342.5 211,-361.5 399,-361.5 399,-342.5 211,-342.5"/>
<text text-anchor="middle" x="305" y="-349.5" font-family="Helvetica,sans-Serif" font-size="10.00">commands.SetBackground.function</text>
</a>
</g>
</g>
<!-- Node1&#45;&gt;Node12 -->
<g id="edge11" class="edge"><title>Node1&#45;&gt;Node12</title>
<path fill="none" stroke="midnightblue" d="M147.875,-325.276C179.814,-330.743 217.759,-337.238 248.244,-342.456"/>
<polygon fill="midnightblue" stroke="midnightblue" points="148.181,-321.777 137.733,-323.54 147,-328.677 148.181,-321.777"/>
</g>
<!-- Node13 -->
<g id="node13" class="node"><title>Node13</title>
<g id="a_node13"><a xlink:href="../../d2/d77/classcommands_1_1_pen_color.html#aa9e079dfac11f4b1d6da3b73d9a1ca4e" target="_top" xlink:title="commands.PenColor.function">
<polygon fill="white" stroke="black" points="226.5,-304.5 226.5,-323.5 383.5,-323.5 383.5,-304.5 226.5,-304.5"/>
<text text-anchor="middle" x="305" y="-311.5" font-family="Helvetica,sans-Serif" font-size="10.00">commands.PenColor.function</text>
</a>
</g>
</g>
<!-- Node1&#45;&gt;Node13 -->
<g id="edge12" class="edge"><title>Node1&#45;&gt;Node13</title>
<path fill="none" stroke="midnightblue" d="M172.53,-314C190.331,-314 208.86,-314 226.199,-314"/>
<polygon fill="midnightblue" stroke="midnightblue" points="172.147,-310.5 162.147,-314 172.147,-317.5 172.147,-310.5"/>
</g>
<!-- Node14 -->
<g id="node14" class="node"><title>Node14</title>
<g id="a_node14"><a xlink:href="../../df/d0e/classcommands_1_1_turtles.html#ad8dec986f1295b3bbfd547d73a11b7b1" target="_top" xlink:title="commands.Turtles.function">
<polygon fill="white" stroke="black" points="232,-266.5 232,-285.5 378,-285.5 378,-266.5 232,-266.5"/>
<text text-anchor="middle" x="305" y="-273.5" font-family="Helvetica,sans-Serif" font-size="10.00">commands.Turtles.function</text>
</a>
</g>
</g>
<!-- Node1&#45;&gt;Node14 -->
<g id="edge13" class="edge"><title>Node1&#45;&gt;Node14</title>
<path fill="none" stroke="midnightblue" d="M147.875,-302.724C179.814,-297.257 217.759,-290.762 248.244,-285.544"/>
<polygon fill="midnightblue" stroke="midnightblue" points="147,-299.323 137.733,-304.46 148.181,-306.223 147,-299.323"/>
</g>
<!-- Node15 -->
<g id="node15" class="node"><title>Node15</title>
<g id="a_node15"><a xlink:href="../../d1/d25/classcommands_1_1_make_variable.html#a2ce4565365023ca6d062ff89c47aa355" target="_top" xlink:title="commands.MakeVariable.function">
<polygon fill="white" stroke="black" points="215.5,-228.5 215.5,-247.5 394.5,-247.5 394.5,-228.5 215.5,-228.5"/>
<text text-anchor="middle" x="305" y="-235.5" font-family="Helvetica,sans-Serif" font-size="10.00">commands.MakeVariable.function</text>
</a>
</g>
</g>
<!-- Node1&#45;&gt;Node15 -->
<g id="edge14" class="edge"><title>Node1&#45;&gt;Node15</title>
<path fill="none" stroke="midnightblue" d="M106.628,-299.368C129.543,-286.377 165.02,-267.821 198,-257 209.724,-253.153 222.449,-250.027 234.879,-247.505"/>
<polygon fill="midnightblue" stroke="midnightblue" points="104.831,-296.364 97.9109,-304.387 108.324,-302.431 104.831,-296.364"/>
</g>
<!-- Node16 -->
<g id="node16" class="node"><title>Node16</title>
<g id="a_node16"><a xlink:href="../../da/d92/classcommands_1_1_i_d.html#a4f3f3806922f28819663617ea74346a1" target="_top" xlink:title="commands.ID.function">
<polygon fill="white" stroke="black" points="242.5,-190.5 242.5,-209.5 367.5,-209.5 367.5,-190.5 242.5,-190.5"/>
<text text-anchor="middle" x="305" y="-197.5" font-family="Helvetica,sans-Serif" font-size="10.00">commands.ID.function</text>
</a>
</g>
</g>
<!-- Node1&#45;&gt;Node16 -->
<g id="edge16" class="edge"><title>Node1&#45;&gt;Node16</title>
<path fill="none" stroke="midnightblue" d="M97.4909,-296.761C118.148,-274.944 156.912,-237.933 198,-219 211.754,-212.662 227.416,-208.433 242.402,-205.613"/>
<polygon fill="midnightblue" stroke="midnightblue" points="94.7251,-294.596 90.4931,-304.309 99.8585,-299.355 94.7251,-294.596"/>
</g>
<!-- Node17 -->
<g id="node17" class="node"><title>Node17</title>
<g id="a_node17"><a xlink:href="../../d1/d7f/classcommands_1_1_clear_screen.html#aee6fc75e575435caceaeefb00fbe6029" target="_top" xlink:title="commands.ClearScreen.function">
<polygon fill="white" stroke="black" points="218.5,-152.5 218.5,-171.5 391.5,-171.5 391.5,-152.5 218.5,-152.5"/>
<text text-anchor="middle" x="305" y="-159.5" font-family="Helvetica,sans-Serif" font-size="10.00">commands.ClearScreen.function</text>
</a>
</g>
</g>
<!-- Node1&#45;&gt;Node17 -->
<g id="edge17" class="edge"><title>Node1&#45;&gt;Node17</title>
<path fill="none" stroke="midnightblue" d="M92.4161,-295.469C110.033,-266.003 148.662,-208.952 198,-181 204.832,-177.129 212.275,-174.017 219.946,-171.519"/>
<polygon fill="midnightblue" stroke="midnightblue" points="89.2686,-293.919 87.2621,-304.322 95.3181,-297.44 89.2686,-293.919"/>
</g>
<!-- Node18 -->
<g id="node18" class="node"><title>Node18</title>
<g id="a_node18"><a xlink:href="../../df/d6d/classcommands_1_1_tell.html#ae9a130ae492df45b33f1e45d4aafd255" target="_top" xlink:title="commands.Tell.function">
<polygon fill="white" stroke="black" points="240.5,-114.5 240.5,-133.5 369.5,-133.5 369.5,-114.5 240.5,-114.5"/>
<text text-anchor="middle" x="305" y="-121.5" font-family="Helvetica,sans-Serif" font-size="10.00">commands.Tell.function</text>
</a>
</g>
</g>
<!-- Node1&#45;&gt;Node18 -->
<g id="edge18" class="edge"><title>Node1&#45;&gt;Node18</title>
<path fill="none" stroke="midnightblue" d="M89.0792,-294.855C103.508,-258.717 139.951,-180.705 198,-143 210.543,-134.853 225.598,-129.942 240.371,-127.041"/>
<polygon fill="midnightblue" stroke="midnightblue" points="85.7872,-293.664 85.45,-304.253 92.3173,-296.185 85.7872,-293.664"/>
</g>
<!-- Node19 -->
<g id="node19" class="node"><title>Node19</title>
<g id="a_node19"><a xlink:href="../../de/d74/classcommands_1_1_ask.html#a9d61a23c4bf1adad72ae5f73bc820b92" target="_top" xlink:title="commands.Ask.function">
<polygon fill="white" stroke="black" points="239,-76.5 239,-95.5 371,-95.5 371,-76.5 239,-76.5"/>
<text text-anchor="middle" x="305" y="-83.5" font-family="Helvetica,sans-Serif" font-size="10.00">commands.Ask.function</text>
</a>
</g>
</g>
<!-- Node1&#45;&gt;Node19 -->
<g id="edge19" class="edge"><title>Node1&#45;&gt;Node19</title>
<path fill="none" stroke="midnightblue" d="M86.8236,-294.217C98.2283,-251.961 131.066,-152.859 198,-105 209.863,-96.5181 224.337,-91.441 238.73,-88.4813"/>
<polygon fill="midnightblue" stroke="midnightblue" points="83.3815,-293.548 84.2706,-304.105 90.1592,-295.298 83.3815,-293.548"/>
</g>
<!-- Node20 -->
<g id="node20" class="node"><title>Node20</title>
<g id="a_node20"><a xlink:href="../../de/d4a/classcommands_1_1_make_user_instruction.html#a838bf1cdeaa97909512ef4c1378bd706" target="_top" xlink:title="commands.MakeUserInstruction.function">
<polygon fill="white" stroke="black" points="198.5,-38.5 198.5,-57.5 411.5,-57.5 411.5,-38.5 198.5,-38.5"/>
<text text-anchor="middle" x="305" y="-45.5" font-family="Helvetica,sans-Serif" font-size="10.00">commands.MakeUserInstruction.function</text>
</a>
</g>
</g>
<!-- Node1&#45;&gt;Node20 -->
<g id="edge20" class="edge"><title>Node1&#45;&gt;Node20</title>
<path fill="none" stroke="midnightblue" d="M85.0166,-294.322C93.4008,-246.846 121.613,-125.62 198,-67 202.895,-63.2439 208.289,-60.1404 213.972,-57.5838"/>
<polygon fill="midnightblue" stroke="midnightblue" points="81.5145,-294.047 83.3313,-304.485 88.4202,-295.192 81.5145,-294.047"/>
</g>
<!-- Node21 -->
<g id="node21" class="node"><title>Node21</title>
<g id="a_node21"><a xlink:href="../../db/d3c/classcommands_1_1_do_times.html#ab41d74dfb8204d3a48187415d6269c6a" target="_top" xlink:title="commands.DoTimes.runForLoop">
<polygon fill="white" stroke="black" points="218.5,-0.5 218.5,-19.5 391.5,-19.5 391.5,-0.5 218.5,-0.5"/>
<text text-anchor="middle" x="305" y="-7.5" font-family="Helvetica,sans-Serif" font-size="10.00">commands.DoTimes.runForLoop</text>
</a>
</g>
</g>
<!-- Node1&#45;&gt;Node21 -->
<g id="edge21" class="edge"><title>Node1&#45;&gt;Node21</title>
<path fill="none" stroke="midnightblue" d="M83.69,-294.213C89.2939,-241.784 112.132,-98.5533 198,-29 204.102,-24.0576 211.055,-20.2254 218.415,-17.2724"/>
<polygon fill="midnightblue" stroke="midnightblue" points="80.1761,-294.188 82.6944,-304.479 87.1434,-294.864 80.1761,-294.188"/>
</g>
<!-- Node3 -->
<g id="node3" class="node"><title>Node3</title>
<g id="a_node3"><a xlink:href="../../d2/dc9/classcommands_1_1_forward.html#ad6aede47835c759954a874b7793cff06" target="_top" xlink:title="commands.Forward.function">
<polygon fill="white" stroke="black" points="448,-611.5 448,-630.5 600,-630.5 600,-611.5 448,-611.5"/>
<text text-anchor="middle" x="524" y="-618.5" font-family="Helvetica,sans-Serif" font-size="10.00">commands.Forward.function</text>
</a>
</g>
</g>
<!-- Node2&#45;&gt;Node3 -->
<g id="edge2" class="edge"><title>Node2&#45;&gt;Node3</title>
<path fill="none" stroke="midnightblue" d="M392.576,-622.803C410.888,-622.55 430.07,-622.285 447.915,-622.038"/>
<polygon fill="midnightblue" stroke="midnightblue" points="392.457,-619.304 382.506,-622.942 392.554,-626.304 392.457,-619.304"/>
</g>
<!-- Node3&#45;&gt;Node4 -->
<g id="edge3" class="edge"><title>Node3&#45;&gt;Node4</title>
<path fill="none" stroke="midnightblue" d="M610.342,-611.617C619.03,-610.662 627.83,-609.694 636.452,-608.746"/>
<polygon fill="midnightblue" stroke="midnightblue" points="609.772,-608.158 600.214,-612.73 610.537,-615.116 609.772,-608.158"/>
</g>
<!-- Node6 -->
<g id="node6" class="node"><title>Node6</title>
<g id="a_node6"><a xlink:href="../../d8/dc1/classcommands_1_1_if_else.html#a8a6526a96655b8c3f5b5d933c1aacc64" target="_top" xlink:title="commands.IfElse.function">
<polygon fill="white" stroke="black" points="454,-532.5 454,-551.5 594,-551.5 594,-532.5 454,-532.5"/>
<text text-anchor="middle" x="524" y="-539.5" font-family="Helvetica,sans-Serif" font-size="10.00">commands.IfElse.function</text>
</a>
</g>
</g>
<!-- Node5&#45;&gt;Node6 -->
<g id="edge5" class="edge"><title>Node5&#45;&gt;Node6</title>
<path fill="none" stroke="midnightblue" d="M401.988,-542C419.463,-542 437.377,-542 453.883,-542"/>
<polygon fill="midnightblue" stroke="midnightblue" points="401.764,-538.5 391.764,-542 401.764,-545.5 401.764,-538.5"/>
</g>
<!-- Node7 -->
<g id="node7" class="node"><title>Node7</title>
<g id="a_node7"><a xlink:href="../../dd/dec/classcommands_1_1_if.html#a2a8e2fd04325679983dae1be727b5772" target="_top" xlink:title="commands.If.function">
<polygon fill="white" stroke="black" points="464.5,-494.5 464.5,-513.5 583.5,-513.5 583.5,-494.5 464.5,-494.5"/>
<text text-anchor="middle" x="524" y="-501.5" font-family="Helvetica,sans-Serif" font-size="10.00">commands.If.function</text>
</a>
</g>
</g>
<!-- Node5&#45;&gt;Node7 -->
<g id="edge6" class="edge"><title>Node5&#45;&gt;Node7</title>
<path fill="none" stroke="midnightblue" d="M370.391,-530.724C401.611,-525.257 438.702,-518.762 468.499,-513.544"/>
<polygon fill="midnightblue" stroke="midnightblue" points="369.725,-527.288 360.478,-532.46 370.932,-534.183 369.725,-527.288"/>
</g>
</g>
</svg>
