<?xml version="1.0" encoding="UTF-8" standalone="no"?>
<!DOCTYPE svg PUBLIC "-//W3C//DTD SVG 1.1//EN"
 "http://www.w3.org/Graphics/SVG/1.1/DTD/svg11.dtd">
<!-- Generated by graphviz version 2.36.0 (20140111.2315)
 -->
<!-- Title: tree.CommandNode.setParameterArray Pages: 1 -->
<svg width="604pt" height="115pt"
 viewBox="0.00 0.00 604.00 115.00" xmlns="http://www.w3.org/2000/svg" xmlns:xlink="http://www.w3.org/1999/xlink">
<g id="graph0" class="graph" transform="scale(1 1) rotate(0) translate(4 111)">
<title>tree.CommandNode.setParameterArray</title>
<polygon fill="white" stroke="none" points="-4,4 -4,-111 600,-111 600,4 -4,4"/>
<!-- Node1 -->
<g id="node1" class="node"><title>Node1</title>
<polygon fill="#bfbfbf" stroke="black" points="0.5,-33 0.5,-63 183.5,-63 183.5,-33 0.5,-33"/>
<text text-anchor="start" x="8.5" y="-51" font-family="Helvetica,sans-Serif" font-size="10.00">tree.CommandNode.setParameter</text>
<text text-anchor="middle" x="92" y="-40" font-family="Helvetica,sans-Serif" font-size="10.00">Array</text>
</g>
<!-- Node2 -->
<g id="node2" class="node"><title>Node2</title>
<g id="a_node2"><a xlink:href="../../dd/dbf/classtree_1_1_evaluator_node.html#af30d930126908158d1e8938ba961b403" target="_top" xlink:title="tree.EvaluatorNode.generate\lParameterArray">
<polygon fill="white" stroke="black" points="220,-77 220,-107 376,-107 376,-77 220,-77"/>
<text text-anchor="start" x="228" y="-95" font-family="Helvetica,sans-Serif" font-size="10.00">tree.EvaluatorNode.generate</text>
<text text-anchor="middle" x="298" y="-84" font-family="Helvetica,sans-Serif" font-size="10.00">ParameterArray</text>
</a>
</g>
</g>
<!-- Node1&#45;&gt;Node2 -->
<g id="edge1" class="edge"><title>Node1&#45;&gt;Node2</title>
<path fill="none" stroke="midnightblue" d="M172.56,-65.1601C190.637,-69.059 209.704,-73.1714 227.333,-76.9738"/>
<polygon fill="midnightblue" stroke="midnightblue" points="173.148,-61.7064 162.635,-63.0192 171.672,-68.549 173.148,-61.7064"/>
</g>
<!-- Node4 -->
<g id="node4" class="node"><title>Node4</title>
<g id="a_node4"><a xlink:href="../../d8/dc1/classcommands_1_1_if_else.html#a5c5bfcd2058c8d341ff3240eb035cf18" target="_top" xlink:title="commands.IfElse.IfElse">
<polygon fill="white" stroke="black" points="235,-38.5 235,-57.5 361,-57.5 361,-38.5 235,-38.5"/>
<text text-anchor="middle" x="298" y="-45.5" font-family="Helvetica,sans-Serif" font-size="10.00">commands.IfElse.IfElse</text>
</a>
</g>
</g>
<!-- Node1&#45;&gt;Node4 -->
<g id="edge3" class="edge"><title>Node1&#45;&gt;Node4</title>
<path fill="none" stroke="midnightblue" d="M193.864,-48C207.898,-48 221.961,-48 234.989,-48"/>
<polygon fill="midnightblue" stroke="midnightblue" points="193.665,-44.5001 183.665,-48 193.665,-51.5001 193.665,-44.5001"/>
</g>
<!-- Node5 -->
<g id="node5" class="node"><title>Node5</title>
<g id="a_node5"><a xlink:href="../../d2/d1d/classcommands_1_1_repeat.html#a1c628298f0f44d93fbc3ea8209f43b4f" target="_top" xlink:title="commands.Repeat.Repeat">
<polygon fill="white" stroke="black" points="226.5,-0.5 226.5,-19.5 369.5,-19.5 369.5,-0.5 226.5,-0.5"/>
<text text-anchor="middle" x="298" y="-7.5" font-family="Helvetica,sans-Serif" font-size="10.00">commands.Repeat.Repeat</text>
</a>
</g>
</g>
<!-- Node1&#45;&gt;Node5 -->
<g id="edge4" class="edge"><title>Node1&#45;&gt;Node5</title>
<path fill="none" stroke="midnightblue" d="M183.711,-31.1029C205.073,-27.1236 227.105,-23.0196 245.995,-19.5009"/>
<polygon fill="midnightblue" stroke="midnightblue" points="182.816,-27.7093 173.626,-32.9814 184.098,-34.5909 182.816,-27.7093"/>
</g>
<!-- Node3 -->
<g id="node3" class="node"><title>Node3</title>
<g id="a_node3"><a xlink:href="../../dd/dbf/classtree_1_1_evaluator_node.html#af692378a5ef3fa88e3bf46b56a238c16" target="_top" xlink:title="tree.EvaluatorNode.EvaluatorNode">
<polygon fill="white" stroke="black" points="412.5,-82.5 412.5,-101.5 595.5,-101.5 595.5,-82.5 412.5,-82.5"/>
<text text-anchor="middle" x="504" y="-89.5" font-family="Helvetica,sans-Serif" font-size="10.00">tree.EvaluatorNode.EvaluatorNode</text>
</a>
</g>
</g>
<!-- Node2&#45;&gt;Node3 -->
<g id="edge2" class="edge"><title>Node2&#45;&gt;Node3</title>
<path fill="none" stroke="midnightblue" d="M386.217,-92C394.886,-92 403.7,-92 412.402,-92"/>
<polygon fill="midnightblue" stroke="midnightblue" points="386.124,-88.5001 376.124,-92 386.124,-95.5001 386.124,-88.5001"/>
</g>
</g>
</svg>
