<?xml version="1.0" encoding="UTF-8" standalone="no"?>
<!DOCTYPE svg PUBLIC "-//W3C//DTD SVG 1.1//EN"
 "http://www.w3.org/Graphics/SVG/1.1/DTD/svg11.dtd">
<!-- Generated by graphviz version 2.36.0 (20140111.2315)
 -->
<!-- Title: tree.CommandNode.getArgNum Pages: 1 -->
<!--zoomable 115 -->
<svg id="main" version="1.1" xmlns="http://www.w3.org/2000/svg" xmlns:xlink="http://www.w3.org/1999/xlink" xml:space="preserve" onload="init(evt)">
<style type="text/css"><![CDATA[
.edge:hover path { stroke: red; }
.edge:hover polygon { stroke: red; fill: red; }
]]></style>
<script type="text/javascript"><![CDATA[
var edges = document.getElementsByTagName('g');
if (edges && edges.length) {
  for (var i=0;i<edges.length;i++) {
    if (edges[i].id.substr(0,4)=='edge') {
      edges[i].setAttribute('class','edge');
    }
  }
}
]]></script>
        <defs>
                <circle id="rim" cx="0" cy="0" r="7"/>
                <circle id="rim2" cx="0" cy="0" r="3.5"/>
                <g id="zoomPlus">
                        <use xlink:href="#rim" fill="#404040">
                                <set attributeName="fill" to="#808080" begin="zoomplus.mouseover" end="zoomplus.mouseout"/>
                        </use>
                        <path d="M-4,0h8M0,-4v8" fill="none" stroke="white" stroke-width="1.5" pointer-events="none"/>
                </g>
                <g id="zoomMin">
                        <use xlink:href="#rim" fill="#404040">
                                <set attributeName="fill" to="#808080" begin="zoomminus.mouseover" end="zoomminus.mouseout"/>
                        </use>
                        <path d="M-4,0h8" fill="none" stroke="white" stroke-width="1.5" pointer-events="none"/>
                </g>
                <g id="dirArrow">
                        <path fill="none" stroke="white" stroke-width="1.5" d="M0,-3.0v7 M-2.5,-0.5L0,-3.0L2.5,-0.5"/>
                </g>
               <g id="resetDef">
                       <use xlink:href="#rim2" fill="#404040">
                               <set attributeName="fill" to="#808080" begin="reset.mouseover" end="reset.mouseout"/>
                       </use>
               </g>
        </defs>

<script type="text/javascript">
var viewWidth = 1148;
var viewHeight = 115;
var sectionId = 'dynsection-12';
</script>
<script xlink:href="../../svgpan.js"/>
<svg id="graph" class="graph">
<g id="viewport">
<title>tree.CommandNode.getArgNum</title>
<polygon fill="white" stroke="none" points="-4,4 -4,-111 1144,-111 1144,4 -4,4"/>
<!-- Node1 -->
<g id="node1" class="node"><title>Node1</title>
<polygon fill="#bfbfbf" stroke="black" points="0.5,-27.5 0.5,-46.5 173.5,-46.5 173.5,-27.5 0.5,-27.5"/>
<text text-anchor="middle" x="87" y="-34.5" font-family="Helvetica,sans-Serif" font-size="10.00">tree.CommandNode.getArgNum</text>
</g>
<!-- Node2 -->
<g id="node2" class="node"><title>Node2</title>
<g id="a_node2"><a xlink:href="../../d5/d4b/classtree_1_1_tree_builder.html#a4032cc1efc7fb77f4414d1bd58713d4b" target="_top" xlink:title="tree.TreeBuilder.addChildren">
<polygon fill="white" stroke="black" points="212.5,-49.5 212.5,-68.5 363.5,-68.5 363.5,-49.5 212.5,-49.5"/>
<text text-anchor="middle" x="288" y="-56.5" font-family="Helvetica,sans-Serif" font-size="10.00">tree.TreeBuilder.addChildren</text>
</a>
</g>
</g>
<!-- Node1&#45;&gt;Node2 -->
<g id="edge1" class="edge"><title>Node1&#45;&gt;Node2</title>
<path fill="none" stroke="midnightblue" d="M183.619,-47.571C193.315,-48.6428 203.059,-49.7201 212.484,-50.7621"/>
<polygon fill="midnightblue" stroke="midnightblue" points="183.873,-44.0778 173.549,-46.4577 183.104,-51.0354 183.873,-44.0778"/>
</g>
<!-- Node9 -->
<g id="node9" class="node"><title>Node9</title>
<g id="a_node9"><a xlink:href="../../dd/dbf/classtree_1_1_evaluator_node.html#af30d930126908158d1e8938ba961b403" target="_top" xlink:title="tree.EvaluatorNode.generate\lParameterArray">
<polygon fill="white" stroke="black" points="210,-0 210,-30 366,-30 366,-0 210,-0"/>
<text text-anchor="start" x="218" y="-18" font-family="Helvetica,sans-Serif" font-size="10.00">tree.EvaluatorNode.generate</text>
<text text-anchor="middle" x="288" y="-7" font-family="Helvetica,sans-Serif" font-size="10.00">ParameterArray</text>
</a>
</g>
</g>
<!-- Node1&#45;&gt;Node9 -->
<g id="edge8" class="edge"><title>Node1&#45;&gt;Node9</title>
<path fill="none" stroke="midnightblue" d="M183.535,-26.4384C192.408,-25.4574 201.324,-24.4717 209.999,-23.5127"/>
<polygon fill="midnightblue" stroke="midnightblue" points="183.104,-22.9646 173.549,-27.5423 183.873,-29.9222 183.104,-22.9646"/>
</g>
<!-- Node3 -->
<g id="node3" class="node"><title>Node3</title>
<g id="a_node3"><a xlink:href="../../d5/d4b/classtree_1_1_tree_builder.html#a1e29a66ff647bc0ef8933f412cc16359" target="_top" xlink:title="tree.TreeBuilder.build">
<polygon fill="white" stroke="black" points="436,-49.5 436,-68.5 552,-68.5 552,-49.5 436,-49.5"/>
<text text-anchor="middle" x="494" y="-56.5" font-family="Helvetica,sans-Serif" font-size="10.00">tree.TreeBuilder.build</text>
</a>
</g>
</g>
<!-- Node2&#45;&gt;Node3 -->
<g id="edge2" class="edge"><title>Node2&#45;&gt;Node3</title>
<path fill="none" stroke="midnightblue" d="M373.711,-59C394.679,-59 416.651,-59 435.943,-59"/>
<polygon fill="midnightblue" stroke="midnightblue" points="373.515,-55.5001 363.515,-59 373.515,-62.5001 373.515,-55.5001"/>
</g>
<!-- Node4 -->
<g id="node4" class="node"><title>Node4</title>
<g id="a_node4"><a xlink:href="../../dc/d9e/classapplication_1_1_parser.html#a74e9be1b3f5d45542735791cf13baa90" target="_top" xlink:title="application.Parser.parse\lIterator">
<polygon fill="white" stroke="black" points="622.5,-44 622.5,-74 753.5,-74 753.5,-44 622.5,-44"/>
<text text-anchor="start" x="630.5" y="-62" font-family="Helvetica,sans-Serif" font-size="10.00">application.Parser.parse</text>
<text text-anchor="middle" x="688" y="-51" font-family="Helvetica,sans-Serif" font-size="10.00">Iterator</text>
</a>
</g>
</g>
<!-- Node3&#45;&gt;Node4 -->
<g id="edge3" class="edge"><title>Node3&#45;&gt;Node4</title>
<path fill="none" stroke="midnightblue" d="M562.131,-59C581.683,-59 602.997,-59 622.391,-59"/>
<polygon fill="midnightblue" stroke="midnightblue" points="562.087,-55.5001 552.086,-59 562.086,-62.5001 562.087,-55.5001"/>
</g>
<!-- Node5 -->
<g id="node5" class="node"><title>Node5</title>
<g id="a_node5"><a xlink:href="../../d9/df4/classsyntax_1_1_group_start_handler.html#a5e6a1bacb757f6223060b048db106211" target="_top" xlink:title="syntax.GroupStartHandler.handle">
<polygon fill="white" stroke="black" points="790,-87.5 790,-106.5 966,-106.5 966,-87.5 790,-87.5"/>
<text text-anchor="middle" x="878" y="-94.5" font-family="Helvetica,sans-Serif" font-size="10.00">syntax.GroupStartHandler.handle</text>
</a>
</g>
</g>
<!-- Node4&#45;&gt;Node5 -->
<g id="edge4" class="edge"><title>Node4&#45;&gt;Node5</title>
<path fill="none" stroke="midnightblue" d="M763.529,-74.0644C785.94,-78.5942 809.895,-83.4362 829.992,-87.4983"/>
<polygon fill="midnightblue" stroke="midnightblue" points="764.194,-70.6281 753.699,-72.0774 762.807,-77.4894 764.194,-70.6281"/>
</g>
<!-- Node6 -->
<g id="node6" class="node"><title>Node6</title>
<g id="a_node6"><a xlink:href="../../da/def/classsyntax_1_1_list_start_handler.html#a14545d9bbe97756316205b4953b6ee96" target="_top" xlink:title="syntax.ListStartHandler.handle">
<polygon fill="white" stroke="black" points="796,-49.5 796,-68.5 960,-68.5 960,-49.5 796,-49.5"/>
<text text-anchor="middle" x="878" y="-56.5" font-family="Helvetica,sans-Serif" font-size="10.00">syntax.ListStartHandler.handle</text>
</a>
</g>
</g>
<!-- Node4&#45;&gt;Node6 -->
<g id="edge5" class="edge"><title>Node4&#45;&gt;Node6</title>
<path fill="none" stroke="midnightblue" d="M763.718,-59C774.297,-59 785.215,-59 795.907,-59"/>
<polygon fill="midnightblue" stroke="midnightblue" points="763.699,-55.5001 753.699,-59 763.699,-62.5001 763.699,-55.5001"/>
</g>
<!-- Node7 -->
<g id="node7" class="node"><title>Node7</title>
<g id="a_node7"><a xlink:href="../../dc/d9e/classapplication_1_1_parser.html#a135ca81f754c89fe4bf36783b9884861" target="_top" xlink:title="application.Parser.parse">
<polygon fill="white" stroke="black" points="812.5,-11.5 812.5,-30.5 943.5,-30.5 943.5,-11.5 812.5,-11.5"/>
<text text-anchor="middle" x="878" y="-18.5" font-family="Helvetica,sans-Serif" font-size="10.00">application.Parser.parse</text>
</a>
</g>
</g>
<!-- Node4&#45;&gt;Node7 -->
<g id="edge6" class="edge"><title>Node4&#45;&gt;Node7</title>
<path fill="none" stroke="midnightblue" d="M763.529,-43.9356C785.94,-39.4058 809.895,-34.5638 829.992,-30.5017"/>
<polygon fill="midnightblue" stroke="midnightblue" points="762.807,-40.5106 753.699,-45.9226 764.194,-47.3719 762.807,-40.5106"/>
</g>
<!-- Node8 -->
<g id="node8" class="node"><title>Node8</title>
<g id="a_node8"><a xlink:href="../../dd/d17/classapplication_1_1_model.html#a9457364de27b16e384b02f2d679cb327" target="_top" xlink:title="application.Model.update">
<polygon fill="white" stroke="black" points="1002.5,-11.5 1002.5,-30.5 1139.5,-30.5 1139.5,-11.5 1002.5,-11.5"/>
<text text-anchor="middle" x="1071" y="-18.5" font-family="Helvetica,sans-Serif" font-size="10.00">application.Model.update</text>
</a>
</g>
</g>
<!-- Node7&#45;&gt;Node8 -->
<g id="edge7" class="edge"><title>Node7&#45;&gt;Node8</title>
<path fill="none" stroke="midnightblue" d="M954.029,-21C970.008,-21 986.789,-21 1002.47,-21"/>
<polygon fill="midnightblue" stroke="midnightblue" points="953.664,-17.5001 943.664,-21 953.664,-24.5001 953.664,-17.5001"/>
</g>
<!-- Node10 -->
<g id="node10" class="node"><title>Node10</title>
<g id="a_node10"><a xlink:href="../../dd/dbf/classtree_1_1_evaluator_node.html#af692378a5ef3fa88e3bf46b56a238c16" target="_top" xlink:title="tree.EvaluatorNode.EvaluatorNode">
<polygon fill="white" stroke="black" points="402.5,-5.5 402.5,-24.5 585.5,-24.5 585.5,-5.5 402.5,-5.5"/>
<text text-anchor="middle" x="494" y="-12.5" font-family="Helvetica,sans-Serif" font-size="10.00">tree.EvaluatorNode.EvaluatorNode</text>
</a>
</g>
</g>
<!-- Node9&#45;&gt;Node10 -->
<g id="edge9" class="edge"><title>Node9&#45;&gt;Node10</title>
<path fill="none" stroke="midnightblue" d="M376.217,-15C384.886,-15 393.7,-15 402.402,-15"/>
<polygon fill="midnightblue" stroke="midnightblue" points="376.124,-11.5001 366.124,-15 376.124,-18.5001 376.124,-11.5001"/>
</g>
</g>
</svg>
        <g id="navigator" transform="translate(0 0)" fill="#404254">
                <rect fill="#f2f5e9" fill-opacity="0.5" stroke="#606060" stroke-width=".5" x="0" y="0" width="60" height="60"/>
                <use id="zoomplus" xlink:href="#zoomPlus" x="17" y="9" onmousedown="handleZoom(evt,'in')"/>
                <use id="zoomminus" xlink:href="#zoomMin" x="42" y="9" onmousedown="handleZoom(evt,'out')"/>
                <use id="reset" xlink:href="#resetDef" x="30" y="36" onmousedown="handleReset()"/>
                <g id="arrowUp" xlink:href="#dirArrow" transform="translate(30 24)" onmousedown="handlePan(0,-1)">
                  <use xlink:href="#rim" fill="#404040">
                        <set attributeName="fill" to="#808080" begin="arrowUp.mouseover" end="arrowUp.mouseout"/>
                  </use>
                  <path fill="none" stroke="white" stroke-width="1.5" d="M0,-3.0v7 M-2.5,-0.5L0,-3.0L2.5,-0.5"/>
                </g>
                <g id="arrowRight" xlink:href="#dirArrow" transform="rotate(90) translate(36 -43)" onmousedown="handlePan(1,0)">
                  <use xlink:href="#rim" fill="#404040">
                        <set attributeName="fill" to="#808080" begin="arrowRight.mouseover" end="arrowRight.mouseout"/>
                  </use>
                  <path fill="none" stroke="white" stroke-width="1.5" d="M0,-3.0v7 M-2.5,-0.5L0,-3.0L2.5,-0.5"/>
                </g>
                <g id="arrowDown" xlink:href="#dirArrow" transform="rotate(180) translate(-30 -48)" onmousedown="handlePan(0,1)">
                  <use xlink:href="#rim" fill="#404040">
                        <set attributeName="fill" to="#808080" begin="arrowDown.mouseover" end="arrowDown.mouseout"/>
                  </use>
                  <path fill="none" stroke="white" stroke-width="1.5" d="M0,-3.0v7 M-2.5,-0.5L0,-3.0L2.5,-0.5"/>
                </g>
                <g id="arrowLeft" xlink:href="#dirArrow" transform="rotate(270) translate(-36 17)" onmousedown="handlePan(-1,0)">
                  <use xlink:href="#rim" fill="#404040">
                        <set attributeName="fill" to="#808080" begin="arrowLeft.mouseover" end="arrowLeft.mouseout"/>
                  </use>
                  <path fill="none" stroke="white" stroke-width="1.5" d="M0,-3.0v7 M-2.5,-0.5L0,-3.0L2.5,-0.5"/>
                </g>
        </g>
        <svg viewBox="0 0 15 15" width="100%" height="30px" preserveAspectRatio="xMaxYMin meet">
         <g id="arrow_out" transform="scale(0.3 0.3)">
          <a xlink:href="classtree_1_1_command_node_a7a383438fa8edd362dddfc785615edd2_icgraph_org.svg" target="_base">
           <rect id="button" ry="5" rx="5" y="6" x="6" height="38" width="38"
                fill="#f2f5e9" fill-opacity="0.5" stroke="#606060" stroke-width="1.0"/>
           <path id="arrow"
             d="M 11.500037,31.436501 C 11.940474,20.09759 22.043105,11.32322 32.158766,21.979434 L 37.068811,17.246167 C 37.068811,17.246167 37.088388,32 37.088388,32 L 22.160133,31.978069 C 22.160133,31.978069 26.997745,27.140456 26.997745,27.140456 C 18.528582,18.264221 13.291696,25.230495 11.500037,31.436501 z"
             style="fill:#404040;"/>
          </a>
         </g>
        </svg>
</svg>
