<?xml version="1.0" encoding="UTF-8" standalone="no"?>
<!DOCTYPE svg PUBLIC "-//W3C//DTD SVG 1.1//EN"
 "http://www.w3.org/Graphics/SVG/1.1/DTD/svg11.dtd">
<!-- Generated by graphviz version 2.36.0 (20140111.2315)
 -->
<!-- Title: tree.CommandNode.addChild Pages: 1 -->
<svg width="1062pt" height="104pt"
 viewBox="0.00 0.00 1062.00 104.00" xmlns="http://www.w3.org/2000/svg" xmlns:xlink="http://www.w3.org/1999/xlink">
<g id="graph0" class="graph" transform="scale(1 1) rotate(0) translate(4 100)">
<title>tree.CommandNode.addChild</title>
<polygon fill="white" stroke="none" points="-4,4 -4,-100 1058,-100 1058,4 -4,4"/>
<!-- Node1 -->
<g id="node1" class="node"><title>Node1</title>
<polygon fill="#bfbfbf" stroke="black" points="0.5,-38.5 0.5,-57.5 159.5,-57.5 159.5,-38.5 0.5,-38.5"/>
<text text-anchor="middle" x="80" y="-45.5" font-family="Helvetica,sans-Serif" font-size="10.00">tree.CommandNode.addChild</text>
</g>
<!-- Node2 -->
<g id="node2" class="node"><title>Node2</title>
<g id="a_node2"><a xlink:href="../../d5/d4b/classtree_1_1_tree_builder.html#a4032cc1efc7fb77f4414d1bd58713d4b" target="_top" xlink:title="tree.TreeBuilder.addChildren">
<polygon fill="white" stroke="black" points="196.5,-38.5 196.5,-57.5 347.5,-57.5 347.5,-38.5 196.5,-38.5"/>
<text text-anchor="middle" x="272" y="-45.5" font-family="Helvetica,sans-Serif" font-size="10.00">tree.TreeBuilder.addChildren</text>
</a>
</g>
</g>
<!-- Node1&#45;&gt;Node2 -->
<g id="edge1" class="edge"><title>Node1&#45;&gt;Node2</title>
<path fill="none" stroke="midnightblue" d="M169.683,-48C178.611,-48 187.614,-48 196.374,-48"/>
<polygon fill="midnightblue" stroke="midnightblue" points="169.652,-44.5001 159.652,-48 169.652,-51.5001 169.652,-44.5001"/>
</g>
<!-- Node3 -->
<g id="node3" class="node"><title>Node3</title>
<g id="a_node3"><a xlink:href="../../d5/d4b/classtree_1_1_tree_builder.html#a1e29a66ff647bc0ef8933f412cc16359" target="_top" xlink:title="tree.TreeBuilder.build">
<polygon fill="white" stroke="black" points="384,-38.5 384,-57.5 500,-57.5 500,-38.5 384,-38.5"/>
<text text-anchor="middle" x="442" y="-45.5" font-family="Helvetica,sans-Serif" font-size="10.00">tree.TreeBuilder.build</text>
</a>
</g>
</g>
<!-- Node2&#45;&gt;Node3 -->
<g id="edge2" class="edge"><title>Node2&#45;&gt;Node3</title>
<path fill="none" stroke="midnightblue" d="M357.696,-48C366.595,-48 375.484,-48 383.963,-48"/>
<polygon fill="midnightblue" stroke="midnightblue" points="357.666,-44.5001 347.666,-48 357.666,-51.5001 357.666,-44.5001"/>
</g>
<!-- Node4 -->
<g id="node4" class="node"><title>Node4</title>
<g id="a_node4"><a xlink:href="../../dc/d9e/classapplication_1_1_parser.html#a74e9be1b3f5d45542735791cf13baa90" target="_top" xlink:title="application.Parser.parse\lIterator">
<polygon fill="white" stroke="black" points="536.5,-33 536.5,-63 667.5,-63 667.5,-33 536.5,-33"/>
<text text-anchor="start" x="544.5" y="-51" font-family="Helvetica,sans-Serif" font-size="10.00">application.Parser.parse</text>
<text text-anchor="middle" x="602" y="-40" font-family="Helvetica,sans-Serif" font-size="10.00">Iterator</text>
</a>
</g>
</g>
<!-- Node3&#45;&gt;Node4 -->
<g id="edge3" class="edge"><title>Node3&#45;&gt;Node4</title>
<path fill="none" stroke="midnightblue" d="M510.102,-48C518.771,-48 527.636,-48 536.265,-48"/>
<polygon fill="midnightblue" stroke="midnightblue" points="510.042,-44.5001 500.042,-48 510.042,-51.5001 510.042,-44.5001"/>
</g>
<!-- Node5 -->
<g id="node5" class="node"><title>Node5</title>
<g id="a_node5"><a xlink:href="../../d9/df4/classsyntax_1_1_group_start_handler.html#a5e6a1bacb757f6223060b048db106211" target="_top" xlink:title="syntax.GroupStartHandler.handle">
<polygon fill="white" stroke="black" points="704,-76.5 704,-95.5 880,-95.5 880,-76.5 704,-76.5"/>
<text text-anchor="middle" x="792" y="-83.5" font-family="Helvetica,sans-Serif" font-size="10.00">syntax.GroupStartHandler.handle</text>
</a>
</g>
</g>
<!-- Node4&#45;&gt;Node5 -->
<g id="edge4" class="edge"><title>Node4&#45;&gt;Node5</title>
<path fill="none" stroke="midnightblue" d="M677.529,-63.0644C699.94,-67.5942 723.895,-72.4362 743.992,-76.4983"/>
<polygon fill="midnightblue" stroke="midnightblue" points="678.194,-59.6281 667.699,-61.0774 676.807,-66.4894 678.194,-59.6281"/>
</g>
<!-- Node6 -->
<g id="node6" class="node"><title>Node6</title>
<g id="a_node6"><a xlink:href="../../da/def/classsyntax_1_1_list_start_handler.html#a14545d9bbe97756316205b4953b6ee96" target="_top" xlink:title="syntax.ListStartHandler.handle">
<polygon fill="white" stroke="black" points="710,-38.5 710,-57.5 874,-57.5 874,-38.5 710,-38.5"/>
<text text-anchor="middle" x="792" y="-45.5" font-family="Helvetica,sans-Serif" font-size="10.00">syntax.ListStartHandler.handle</text>
</a>
</g>
</g>
<!-- Node4&#45;&gt;Node6 -->
<g id="edge5" class="edge"><title>Node4&#45;&gt;Node6</title>
<path fill="none" stroke="midnightblue" d="M677.718,-48C688.297,-48 699.215,-48 709.907,-48"/>
<polygon fill="midnightblue" stroke="midnightblue" points="677.699,-44.5001 667.699,-48 677.699,-51.5001 677.699,-44.5001"/>
</g>
<!-- Node7 -->
<g id="node7" class="node"><title>Node7</title>
<g id="a_node7"><a xlink:href="../../dc/d9e/classapplication_1_1_parser.html#a135ca81f754c89fe4bf36783b9884861" target="_top" xlink:title="application.Parser.parse">
<polygon fill="white" stroke="black" points="726.5,-0.5 726.5,-19.5 857.5,-19.5 857.5,-0.5 726.5,-0.5"/>
<text text-anchor="middle" x="792" y="-7.5" font-family="Helvetica,sans-Serif" font-size="10.00">application.Parser.parse</text>
</a>
</g>
</g>
<!-- Node4&#45;&gt;Node7 -->
<g id="edge6" class="edge"><title>Node4&#45;&gt;Node7</title>
<path fill="none" stroke="midnightblue" d="M677.529,-32.9356C699.94,-28.4058 723.895,-23.5638 743.992,-19.5017"/>
<polygon fill="midnightblue" stroke="midnightblue" points="676.807,-29.5106 667.699,-34.9226 678.194,-36.3719 676.807,-29.5106"/>
</g>
<!-- Node8 -->
<g id="node8" class="node"><title>Node8</title>
<g id="a_node8"><a xlink:href="../../dd/d17/classapplication_1_1_model.html#a9457364de27b16e384b02f2d679cb327" target="_top" xlink:title="application.Model.update">
<polygon fill="white" stroke="black" points="916.5,-0.5 916.5,-19.5 1053.5,-19.5 1053.5,-0.5 916.5,-0.5"/>
<text text-anchor="middle" x="985" y="-7.5" font-family="Helvetica,sans-Serif" font-size="10.00">application.Model.update</text>
</a>
</g>
</g>
<!-- Node7&#45;&gt;Node8 -->
<g id="edge7" class="edge"><title>Node7&#45;&gt;Node8</title>
<path fill="none" stroke="midnightblue" d="M868.029,-10C884.008,-10 900.789,-10 916.467,-10"/>
<polygon fill="midnightblue" stroke="midnightblue" points="867.664,-6.5001 857.664,-10 867.664,-13.5001 867.664,-6.5001"/>
</g>
</g>
</svg>
