<?xml version="1.0" encoding="UTF-8" standalone="no"?>
<!DOCTYPE svg PUBLIC "-//W3C//DTD SVG 1.1//EN"
 "http://www.w3.org/Graphics/SVG/1.1/DTD/svg11.dtd">
<!-- Generated by graphviz version 2.36.0 (20140111.2315)
 -->
<!-- Title: tree.CommandNode.evaluateTurtles Pages: 1 -->
<svg width="750pt" height="123pt"
 viewBox="0.00 0.00 750.00 123.00" xmlns="http://www.w3.org/2000/svg" xmlns:xlink="http://www.w3.org/1999/xlink">
<g id="graph0" class="graph" transform="scale(1 1) rotate(0) translate(4 119)">
<title>tree.CommandNode.evaluateTurtles</title>
<polygon fill="white" stroke="none" points="-4,4 -4,-119 746,-119 746,4 -4,4"/>
<!-- Node1 -->
<g id="node1" class="node"><title>Node1</title>
<polygon fill="#bfbfbf" stroke="black" points="0.5,-33 0.5,-63 159.5,-63 159.5,-33 0.5,-33"/>
<text text-anchor="start" x="8.5" y="-51" font-family="Helvetica,sans-Serif" font-size="10.00">tree.CommandNode.evaluate</text>
<text text-anchor="middle" x="80" y="-40" font-family="Helvetica,sans-Serif" font-size="10.00">Turtles</text>
</g>
<!-- Node2 -->
<g id="node2" class="node"><title>Node2</title>
<g id="a_node2"><a xlink:href="../../d7/d99/classtree_1_1_command_node.html#a5bebc2f70e6e3486c403b9cdb0ce04cb" target="_top" xlink:title="tree.CommandNode.evaluate">
<polygon fill="white" stroke="black" points="196.5,-38.5 196.5,-57.5 355.5,-57.5 355.5,-38.5 196.5,-38.5"/>
<text text-anchor="middle" x="276" y="-45.5" font-family="Helvetica,sans-Serif" font-size="10.00">tree.CommandNode.evaluate</text>
</a>
</g>
</g>
<!-- Node1&#45;&gt;Node2 -->
<g id="edge1" class="edge"><title>Node1&#45;&gt;Node2</title>
<path fill="none" stroke="midnightblue" d="M169.895,-48C178.691,-48 187.577,-48 196.26,-48"/>
<polygon fill="midnightblue" stroke="midnightblue" points="169.628,-44.5001 159.628,-48 169.628,-51.5001 169.628,-44.5001"/>
</g>
<!-- Node3 -->
<g id="node3" class="node"><title>Node3</title>
<g id="a_node3"><a xlink:href="../../dd/dec/classcommands_1_1_if.html#af4992935265deb1e4759cd6579da4680" target="_top" xlink:title="commands.If.evaluateCommand">
<polygon fill="white" stroke="black" points="392.5,-76.5 392.5,-95.5 565.5,-95.5 565.5,-76.5 392.5,-76.5"/>
<text text-anchor="middle" x="479" y="-83.5" font-family="Helvetica,sans-Serif" font-size="10.00">commands.If.evaluateCommand</text>
</a>
</g>
</g>
<!-- Node2&#45;&gt;Node3 -->
<g id="edge2" class="edge"><title>Node2&#45;&gt;Node3</title>
<path fill="none" stroke="midnightblue" d="M337.396,-59.4181C366.155,-64.8552 400.156,-71.2832 427.518,-76.4561"/>
<polygon fill="midnightblue" stroke="midnightblue" points="337.937,-55.9586 327.461,-57.54 336.637,-62.8368 337.937,-55.9586"/>
</g>
<!-- Node6 -->
<g id="node6" class="node"><title>Node6</title>
<g id="a_node6"><a xlink:href="../../de/d74/classcommands_1_1_ask.html#a9d61a23c4bf1adad72ae5f73bc820b92" target="_top" xlink:title="commands.Ask.function">
<polygon fill="white" stroke="black" points="413,-38.5 413,-57.5 545,-57.5 545,-38.5 413,-38.5"/>
<text text-anchor="middle" x="479" y="-45.5" font-family="Helvetica,sans-Serif" font-size="10.00">commands.Ask.function</text>
</a>
</g>
</g>
<!-- Node2&#45;&gt;Node6 -->
<g id="edge5" class="edge"><title>Node2&#45;&gt;Node6</title>
<path fill="none" stroke="midnightblue" d="M365.873,-48C381.655,-48 397.824,-48 412.795,-48"/>
<polygon fill="midnightblue" stroke="midnightblue" points="365.575,-44.5001 355.575,-48 365.575,-51.5001 365.575,-44.5001"/>
</g>
<!-- Node7 -->
<g id="node7" class="node"><title>Node7</title>
<g id="a_node7"><a xlink:href="../../dd/d17/classapplication_1_1_model.html#a9457364de27b16e384b02f2d679cb327" target="_top" xlink:title="application.Model.update">
<polygon fill="white" stroke="black" points="410.5,-0.5 410.5,-19.5 547.5,-19.5 547.5,-0.5 410.5,-0.5"/>
<text text-anchor="middle" x="479" y="-7.5" font-family="Helvetica,sans-Serif" font-size="10.00">application.Model.update</text>
</a>
</g>
</g>
<!-- Node2&#45;&gt;Node7 -->
<g id="edge6" class="edge"><title>Node2&#45;&gt;Node7</title>
<path fill="none" stroke="midnightblue" d="M337.396,-36.5819C366.155,-31.1448 400.156,-24.7168 427.518,-19.5439"/>
<polygon fill="midnightblue" stroke="midnightblue" points="336.637,-33.1632 327.461,-38.46 337.937,-40.0414 336.637,-33.1632"/>
</g>
<!-- Node4 -->
<g id="node4" class="node"><title>Node4</title>
<g id="a_node4"><a xlink:href="../../d8/dc1/classcommands_1_1_if_else.html#a8a6526a96655b8c3f5b5d933c1aacc64" target="_top" xlink:title="commands.IfElse.function">
<polygon fill="white" stroke="black" points="602,-95.5 602,-114.5 742,-114.5 742,-95.5 602,-95.5"/>
<text text-anchor="middle" x="672" y="-102.5" font-family="Helvetica,sans-Serif" font-size="10.00">commands.IfElse.function</text>
</a>
</g>
</g>
<!-- Node3&#45;&gt;Node4 -->
<g id="edge3" class="edge"><title>Node3&#45;&gt;Node4</title>
<path fill="none" stroke="midnightblue" d="M575.679,-95.5178C584.511,-96.3964 593.341,-97.2747 601.866,-98.1228"/>
<polygon fill="midnightblue" stroke="midnightblue" points="576.02,-92.0346 565.723,-94.5274 575.327,-99.0002 576.02,-92.0346"/>
</g>
<!-- Node5 -->
<g id="node5" class="node"><title>Node5</title>
<g id="a_node5"><a xlink:href="../../dd/dec/classcommands_1_1_if.html#a2a8e2fd04325679983dae1be727b5772" target="_top" xlink:title="commands.If.function">
<polygon fill="white" stroke="black" points="612.5,-57.5 612.5,-76.5 731.5,-76.5 731.5,-57.5 612.5,-57.5"/>
<text text-anchor="middle" x="672" y="-64.5" font-family="Helvetica,sans-Serif" font-size="10.00">commands.If.function</text>
</a>
</g>
</g>
<!-- Node3&#45;&gt;Node5 -->
<g id="edge4" class="edge"><title>Node3&#45;&gt;Node5</title>
<path fill="none" stroke="midnightblue" d="M575.733,-76.4769C588.233,-75.2333 600.728,-73.9904 612.362,-72.8331"/>
<polygon fill="midnightblue" stroke="midnightblue" points="575.327,-72.9998 565.723,-77.4726 576.02,-79.9654 575.327,-72.9998"/>
</g>
</g>
</svg>
