<?xml version="1.0" encoding="UTF-8" standalone="no"?>
<!DOCTYPE svg PUBLIC "-//W3C//DTD SVG 1.1//EN"
 "http://www.w3.org/Graphics/SVG/1.1/DTD/svg11.dtd">
<!-- Generated by graphviz version 2.36.0 (20140111.2315)
 -->
<!-- Title: tree.CommandNode.generateClassArray Pages: 1 -->
<svg width="648pt" height="114pt"
 viewBox="0.00 0.00 648.00 114.00" xmlns="http://www.w3.org/2000/svg" xmlns:xlink="http://www.w3.org/1999/xlink">
<g id="graph0" class="graph" transform="scale(1 1) rotate(0) translate(4 110)">
<title>tree.CommandNode.generateClassArray</title>
<polygon fill="white" stroke="none" points="-4,4 -4,-110 644,-110 644,4 -4,4"/>
<!-- Node1 -->
<g id="node1" class="node"><title>Node1</title>
<polygon fill="#bfbfbf" stroke="black" points="0.5,-24 0.5,-54 161.5,-54 161.5,-24 0.5,-24"/>
<text text-anchor="start" x="8.5" y="-42" font-family="Helvetica,sans-Serif" font-size="10.00">tree.CommandNode.generate</text>
<text text-anchor="middle" x="81" y="-31" font-family="Helvetica,sans-Serif" font-size="10.00">ClassArray</text>
</g>
<!-- Node2 -->
<g id="node2" class="node"><title>Node2</title>
<g id="a_node2"><a xlink:href="../../d7/d99/classtree_1_1_command_node.html#a0d6206db5d6903518833d81b5ca922da" target="_top" xlink:title="tree.CommandNode.blockTo\lDoubleList">
<polygon fill="white" stroke="black" points="218,-49 218,-79 370,-79 370,-49 218,-49"/>
<text text-anchor="start" x="226" y="-67" font-family="Helvetica,sans-Serif" font-size="10.00">tree.CommandNode.blockTo</text>
<text text-anchor="middle" x="294" y="-56" font-family="Helvetica,sans-Serif" font-size="10.00">DoubleList</text>
</a>
</g>
</g>
<!-- Node1&#45;&gt;Node2 -->
<g id="edge1" class="edge"><title>Node1&#45;&gt;Node2</title>
<path fill="none" stroke="midnightblue" d="M171.804,-49.6403C187.194,-51.4637 203.04,-53.3412 217.992,-55.1128"/>
<polygon fill="midnightblue" stroke="midnightblue" points="172.112,-46.1524 161.77,-48.4514 171.289,-53.1038 172.112,-46.1524"/>
</g>
<!-- Node5 -->
<g id="node5" class="node"><title>Node5</title>
<g id="a_node5"><a xlink:href="../../de/d4a/classcommands_1_1_make_user_instruction.html#a75ffc5da473d74341095f1221d00247e" target="_top" xlink:title="commands.MakeUserInstruction.get\lVariableList">
<polygon fill="white" stroke="black" points="198.5,-0 198.5,-30 389.5,-30 389.5,-0 198.5,-0"/>
<text text-anchor="start" x="206.5" y="-18" font-family="Helvetica,sans-Serif" font-size="10.00">commands.MakeUserInstruction.get</text>
<text text-anchor="middle" x="294" y="-7" font-family="Helvetica,sans-Serif" font-size="10.00">VariableList</text>
</a>
</g>
</g>
<!-- Node1&#45;&gt;Node5 -->
<g id="edge4" class="edge"><title>Node1&#45;&gt;Node5</title>
<path fill="none" stroke="midnightblue" d="M171.91,-28.7733C180.616,-27.783 189.467,-26.7762 198.219,-25.7807"/>
<polygon fill="midnightblue" stroke="midnightblue" points="171.31,-25.3188 161.77,-29.9266 172.102,-32.274 171.31,-25.3188"/>
</g>
<!-- Node3 -->
<g id="node3" class="node"><title>Node3</title>
<g id="a_node3"><a xlink:href="../../de/d74/classcommands_1_1_ask.html#a9d61a23c4bf1adad72ae5f73bc820b92" target="_top" xlink:title="commands.Ask.function">
<polygon fill="white" stroke="black" points="467,-86.5 467,-105.5 599,-105.5 599,-86.5 467,-86.5"/>
<text text-anchor="middle" x="533" y="-93.5" font-family="Helvetica,sans-Serif" font-size="10.00">commands.Ask.function</text>
</a>
</g>
</g>
<!-- Node2&#45;&gt;Node3 -->
<g id="edge2" class="edge"><title>Node2&#45;&gt;Node3</title>
<path fill="none" stroke="midnightblue" d="M380.276,-75.514C408.802,-79.3657 440.124,-83.5948 466.863,-87.2052"/>
<polygon fill="midnightblue" stroke="midnightblue" points="380.692,-72.0386 370.314,-74.169 379.756,-78.9756 380.692,-72.0386"/>
</g>
<!-- Node4 -->
<g id="node4" class="node"><title>Node4</title>
<g id="a_node4"><a xlink:href="../../df/d6d/classcommands_1_1_tell.html#ae9a130ae492df45b33f1e45d4aafd255" target="_top" xlink:title="commands.Tell.function">
<polygon fill="white" stroke="black" points="468.5,-48.5 468.5,-67.5 597.5,-67.5 597.5,-48.5 468.5,-48.5"/>
<text text-anchor="middle" x="533" y="-55.5" font-family="Helvetica,sans-Serif" font-size="10.00">commands.Tell.function</text>
</a>
</g>
</g>
<!-- Node2&#45;&gt;Node4 -->
<g id="edge3" class="edge"><title>Node2&#45;&gt;Node4</title>
<path fill="none" stroke="midnightblue" d="M380.452,-61.8367C409.489,-61.1016 441.403,-60.2936 468.424,-59.6095"/>
<polygon fill="midnightblue" stroke="midnightblue" points="380.222,-58.3413 370.314,-62.0933 380.399,-65.339 380.222,-58.3413"/>
</g>
<!-- Node6 -->
<g id="node6" class="node"><title>Node6</title>
<g id="a_node6"><a xlink:href="../../de/d4a/classcommands_1_1_make_user_instruction.html#a838bf1cdeaa97909512ef4c1378bd706" target="_top" xlink:title="commands.MakeUserInstruction.function">
<polygon fill="white" stroke="black" points="426.5,-5.5 426.5,-24.5 639.5,-24.5 639.5,-5.5 426.5,-5.5"/>
<text text-anchor="middle" x="533" y="-12.5" font-family="Helvetica,sans-Serif" font-size="10.00">commands.MakeUserInstruction.function</text>
</a>
</g>
</g>
<!-- Node5&#45;&gt;Node6 -->
<g id="edge5" class="edge"><title>Node5&#45;&gt;Node6</title>
<path fill="none" stroke="midnightblue" d="M399.877,-15C408.603,-15 417.429,-15 426.162,-15"/>
<polygon fill="midnightblue" stroke="midnightblue" points="399.69,-11.5001 389.69,-15 399.69,-18.5001 399.69,-11.5001"/>
</g>
</g>
</svg>
