<?xml version="1.0" encoding="UTF-8" standalone="no"?>
<!DOCTYPE svg PUBLIC "-//W3C//DTD SVG 1.1//EN"
 "http://www.w3.org/Graphics/SVG/1.1/DTD/svg11.dtd">
<!-- Generated by graphviz version 2.36.0 (20140111.2315)
 -->
<!-- Title: application.Turtle Pages: 1 -->
<svg width="533pt" height="118pt"
 viewBox="0.00 0.00 533.00 118.00" xmlns="http://www.w3.org/2000/svg" xmlns:xlink="http://www.w3.org/1999/xlink">
<g id="graph0" class="graph" transform="scale(1 1) rotate(0) translate(4 114)">
<title>application.Turtle</title>
<polygon fill="white" stroke="none" points="-4,4 -4,-114 529,-114 529,4 -4,4"/>
<!-- Node1 -->
<g id="node1" class="node"><title>Node1</title>
<polygon fill="#bfbfbf" stroke="black" points="178.5,-0.5 178.5,-19.5 275.5,-19.5 275.5,-0.5 178.5,-0.5"/>
<text text-anchor="middle" x="227" y="-7.5" font-family="Helvetica,sans-Serif" font-size="10.00">application.Turtle</text>
</g>
<!-- Node2 -->
<g id="node2" class="node"><title>Node2</title>
<polygon fill="white" stroke="#bfbfbf" points="-0.5,-90.5 -0.5,-109.5 90.5,-109.5 90.5,-90.5 -0.5,-90.5"/>
<text text-anchor="middle" x="45" y="-97.5" font-family="Helvetica,sans-Serif" font-size="10.00">DoubleProperty</text>
</g>
<!-- Node2&#45;&gt;Node1 -->
<g id="edge1" class="edge"><title>Node2&#45;&gt;Node1</title>
<path fill="none" stroke="#9a32cd" stroke-dasharray="5,2" d="M63.3769,-83.7991C80.6671,-70.152 107.754,-50.4107 134,-38 150.719,-30.0943 170.241,-23.9975 187.07,-19.6147"/>
<polygon fill="#9a32cd" stroke="#9a32cd" points="60.8825,-81.3138 55.2846,-90.309 65.2702,-86.768 60.8825,-81.3138"/>
<text text-anchor="middle" x="155" y="-58" font-family="Helvetica,sans-Serif" font-size="10.00"> heading</text>
<text text-anchor="middle" x="155" y="-47" font-family="Helvetica,sans-Serif" font-size="10.00">shape</text>
</g>
<!-- Node3 -->
<g id="node3" class="node"><title>Node3</title>
<polygon fill="white" stroke="#bfbfbf" points="109,-90.5 109,-109.5 205,-109.5 205,-90.5 109,-90.5"/>
<text text-anchor="middle" x="157" y="-97.5" font-family="Helvetica,sans-Serif" font-size="10.00">BooleanProperty</text>
</g>
<!-- Node3&#45;&gt;Node1 -->
<g id="edge2" class="edge"><title>Node3&#45;&gt;Node1</title>
<path fill="none" stroke="#9a32cd" stroke-dasharray="5,2" d="M170.279,-82.3058C185.095,-63.681 208.496,-34.2616 220.06,-19.7241"/>
<polygon fill="#9a32cd" stroke="#9a32cd" points="167.454,-80.2356 163.968,-90.2405 172.932,-84.5933 167.454,-80.2356"/>
<text text-anchor="middle" x="227.5" y="-63.5" font-family="Helvetica,sans-Serif" font-size="10.00"> showing</text>
<text text-anchor="middle" x="227.5" y="-52.5" font-family="Helvetica,sans-Serif" font-size="10.00">penDown</text>
<text text-anchor="middle" x="227.5" y="-41.5" font-family="Helvetica,sans-Serif" font-size="10.00">stamp</text>
</g>
<!-- Node4 -->
<g id="node4" class="node"><title>Node4</title>
<polygon fill="white" stroke="#bfbfbf" points="223.5,-90.5 223.5,-109.5 370.5,-109.5 370.5,-90.5 223.5,-90.5"/>
<text text-anchor="middle" x="297" y="-97.5" font-family="Helvetica,sans-Serif" font-size="10.00">ObjectProperty&lt; double[]&gt;</text>
</g>
<!-- Node4&#45;&gt;Node1 -->
<g id="edge3" class="edge"><title>Node4&#45;&gt;Node1</title>
<path fill="none" stroke="#9a32cd" stroke-dasharray="5,2" d="M286.035,-81.8163C277.757,-69.2667 265.836,-52.0603 254,-38 248.536,-31.5085 241.786,-24.7585 236.402,-19.6314"/>
<polygon fill="#9a32cd" stroke="#9a32cd" points="283.212,-83.8955 291.593,-90.3761 289.083,-80.0831 283.212,-83.8955"/>
<text text-anchor="middle" x="300.5" y="-52.5" font-family="Helvetica,sans-Serif" font-size="10.00"> location</text>
</g>
<!-- Node5 -->
<g id="node5" class="node"><title>Node5</title>
<polygon fill="white" stroke="#bfbfbf" points="389,-90.5 389,-109.5 525,-109.5 525,-90.5 389,-90.5"/>
<text text-anchor="middle" x="457" y="-97.5" font-family="Helvetica,sans-Serif" font-size="10.00">ObjectProperty&lt; Node &gt;</text>
</g>
<!-- Node5&#45;&gt;Node1 -->
<g id="edge4" class="edge"><title>Node5&#45;&gt;Node1</title>
<path fill="none" stroke="#9a32cd" stroke-dasharray="5,2" d="M431.48,-85.6799C405.272,-72.3669 363.049,-51.9264 325,-38 305.113,-30.7211 282.337,-24.3336 263.75,-19.6011"/>
<polygon fill="#9a32cd" stroke="#9a32cd" points="430.203,-88.9581 440.699,-90.4048 433.396,-82.7287 430.203,-88.9581"/>
<text text-anchor="middle" x="416" y="-52.5" font-family="Helvetica,sans-Serif" font-size="10.00"> node</text>
</g>
</g>
</svg>
