<?xml version="1.0" encoding="UTF-8" standalone="no"?>
<!DOCTYPE svg PUBLIC "-//W3C//DTD SVG 1.1//EN"
 "http://www.w3.org/Graphics/SVG/1.1/DTD/svg11.dtd">
<!-- Generated by graphviz version 2.36.0 (20140111.2315)
 -->
<!-- Title: commands.For.function Pages: 1 -->
<svg width="612pt" height="126pt"
 viewBox="0.00 0.00 612.00 126.00" xmlns="http://www.w3.org/2000/svg" xmlns:xlink="http://www.w3.org/1999/xlink">
<g id="graph0" class="graph" transform="scale(1 1) rotate(0) translate(4 122)">
<title>commands.For.function</title>
<polygon fill="white" stroke="none" points="-4,4 -4,-122 608,-122 608,4 -4,4"/>
<!-- Node1 -->
<g id="node1" class="node"><title>Node1</title>
<polygon fill="#bfbfbf" stroke="black" points="0.5,-44.5 0.5,-63.5 129.5,-63.5 129.5,-44.5 0.5,-44.5"/>
<text text-anchor="middle" x="65" y="-51.5" font-family="Helvetica,sans-Serif" font-size="10.00">commands.For.function</text>
</g>
<!-- Node2 -->
<g id="node2" class="node"><title>Node2</title>
<g id="a_node2"><a xlink:href="../../d7/d99/classtree_1_1_command_node.html#a69bfa124214fd3236c99901925a5f055" target="_top" xlink:title="tree.CommandNode.checkParameters">
<polygon fill="white" stroke="black" points="166.5,-90.5 166.5,-109.5 367.5,-109.5 367.5,-90.5 166.5,-90.5"/>
<text text-anchor="middle" x="267" y="-97.5" font-family="Helvetica,sans-Serif" font-size="10.00">tree.CommandNode.checkParameters</text>
</a>
</g>
</g>
<!-- Node1&#45;&gt;Node2 -->
<g id="edge1" class="edge"><title>Node1&#45;&gt;Node2</title>
<path fill="none" stroke="midnightblue" d="M104.901,-63.5178C123.392,-67.9952 145.816,-73.3581 166,-78 180.78,-81.399 196.814,-84.9758 211.626,-88.2344"/>
<polygon fill="midnightblue" stroke="midnightblue" points="211.137,-91.7102 221.655,-90.4334 212.636,-84.8727 211.137,-91.7102"/>
</g>
<!-- Node4 -->
<g id="node4" class="node"><title>Node4</title>
<g id="a_node4"><a xlink:href="../../d7/d99/classtree_1_1_command_node.html#a7812a5927c35af83e5f65508fc0a0236" target="_top" xlink:title="tree.CommandNode.getRoot\lNodes">
<polygon fill="white" stroke="black" points="189.5,-39 189.5,-69 344.5,-69 344.5,-39 189.5,-39"/>
<text text-anchor="start" x="197.5" y="-57" font-family="Helvetica,sans-Serif" font-size="10.00">tree.CommandNode.getRoot</text>
<text text-anchor="middle" x="267" y="-46" font-family="Helvetica,sans-Serif" font-size="10.00">Nodes</text>
</a>
</g>
</g>
<!-- Node1&#45;&gt;Node4 -->
<g id="edge3" class="edge"><title>Node1&#45;&gt;Node4</title>
<path fill="none" stroke="midnightblue" d="M129.556,-54C145.28,-54 162.396,-54 179.024,-54"/>
<polygon fill="midnightblue" stroke="midnightblue" points="179.297,-57.5001 189.297,-54 179.297,-50.5001 179.297,-57.5001"/>
</g>
<!-- Node7 -->
<g id="node7" class="node"><title>Node7</title>
<g id="a_node7"><a xlink:href="../../db/d3c/classcommands_1_1_do_times.html#a6b715d2a5cb073a97d2b45ebe61a0475" target="_top" xlink:title="commands.DoTimes.runForLoop">
<polygon fill="white" stroke="black" points="180.5,-0.5 180.5,-19.5 353.5,-19.5 353.5,-0.5 180.5,-0.5"/>
<text text-anchor="middle" x="267" y="-7.5" font-family="Helvetica,sans-Serif" font-size="10.00">commands.DoTimes.runForLoop</text>
</a>
</g>
</g>
<!-- Node1&#45;&gt;Node7 -->
<g id="edge6" class="edge"><title>Node1&#45;&gt;Node7</title>
<path fill="none" stroke="midnightblue" d="M101.986,-44.4744C120.966,-39.5846 144.677,-33.6871 166,-29 177.799,-26.4065 190.426,-23.8433 202.6,-21.4792"/>
<polygon fill="midnightblue" stroke="midnightblue" points="203.528,-24.865 212.69,-19.5438 202.209,-17.9903 203.528,-24.865"/>
</g>
<!-- Node3 -->
<g id="node3" class="node"><title>Node3</title>
<g id="a_node3"><a xlink:href="../../d7/d99/classtree_1_1_command_node.html#a217a1626d7815f8121a2224ddf7af40f" target="_top" xlink:title="tree.CommandNode.throwParameters\lException">
<polygon fill="white" stroke="black" points="404,-88 404,-118 604,-118 604,-88 404,-88"/>
<text text-anchor="start" x="412" y="-106" font-family="Helvetica,sans-Serif" font-size="10.00">tree.CommandNode.throwParameters</text>
<text text-anchor="middle" x="504" y="-95" font-family="Helvetica,sans-Serif" font-size="10.00">Exception</text>
</a>
</g>
</g>
<!-- Node2&#45;&gt;Node3 -->
<g id="edge2" class="edge"><title>Node2&#45;&gt;Node3</title>
<path fill="none" stroke="midnightblue" d="M367.661,-101.272C376.293,-101.382 385.056,-101.494 393.758,-101.605"/>
<polygon fill="midnightblue" stroke="midnightblue" points="393.891,-105.107 403.935,-101.735 393.98,-98.1079 393.891,-105.107"/>
</g>
<!-- Node5 -->
<g id="node5" class="node"><title>Node5</title>
<g id="a_node5"><a xlink:href="../../d7/d99/classtree_1_1_command_node.html#a9f3dd4c2d2489cbbbc7e09e252a8c9a3" target="_top" xlink:title="tree.CommandNode.putObject\lInList">
<polygon fill="white" stroke="black" points="422,-39 422,-69 586,-69 586,-39 422,-39"/>
<text text-anchor="start" x="430" y="-57" font-family="Helvetica,sans-Serif" font-size="10.00">tree.CommandNode.putObject</text>
<text text-anchor="middle" x="504" y="-46" font-family="Helvetica,sans-Serif" font-size="10.00">InList</text>
</a>
</g>
</g>
<!-- Node4&#45;&gt;Node5 -->
<g id="edge4" class="edge"><title>Node4&#45;&gt;Node5</title>
<path fill="none" stroke="midnightblue" d="M344.623,-54C365.995,-54 389.428,-54 411.561,-54"/>
<polygon fill="midnightblue" stroke="midnightblue" points="411.628,-57.5001 421.627,-54 411.627,-50.5001 411.628,-57.5001"/>
</g>
<!-- Node6 -->
<g id="node6" class="node"><title>Node6</title>
<g id="a_node6"><a xlink:href="../../da/d49/classtree_1_1_tree_node.html#ae2e063fcfef13edf72b6b513c5369a4f" target="_top" xlink:title="tree.TreeNode.evaluate">
<polygon fill="white" stroke="black" points="440,-0.5 440,-19.5 568,-19.5 568,-0.5 440,-0.5"/>
<text text-anchor="middle" x="504" y="-7.5" font-family="Helvetica,sans-Serif" font-size="10.00">tree.TreeNode.evaluate</text>
</a>
</g>
</g>
<!-- Node4&#45;&gt;Node6 -->
<g id="edge5" class="edge"><title>Node4&#45;&gt;Node6</title>
<path fill="none" stroke="midnightblue" d="M344.623,-39.6536C376.271,-33.7279 412.44,-26.9559 442.216,-21.3808"/>
<polygon fill="midnightblue" stroke="midnightblue" points="442.868,-24.8196 452.053,-19.539 441.58,-17.9392 442.868,-24.8196"/>
</g>
</g>
</svg>
