<?xml version="1.0" encoding="UTF-8" standalone="no"?>
<!DOCTYPE svg PUBLIC "-//W3C//DTD SVG 1.1//EN"
 "http://www.w3.org/Graphics/SVG/1.1/DTD/svg11.dtd">
<!-- Generated by graphviz version 2.36.0 (20140111.2315)
 -->
<!-- Title: syntax.ListStartHandler.handle Pages: 1 -->
<svg width="984pt" height="145pt"
 viewBox="0.00 0.00 984.00 145.00" xmlns="http://www.w3.org/2000/svg" xmlns:xlink="http://www.w3.org/1999/xlink">
<g id="graph0" class="graph" transform="scale(1 1) rotate(0) translate(4 141)">
<title>syntax.ListStartHandler.handle</title>
<polygon fill="white" stroke="none" points="-4,4 -4,-141 980,-141 980,4 -4,4"/>
<!-- Node1 -->
<g id="node1" class="node"><title>Node1</title>
<polygon fill="#bfbfbf" stroke="black" points="0,-54.5 0,-73.5 164,-73.5 164,-54.5 0,-54.5"/>
<text text-anchor="middle" x="82" y="-61.5" font-family="Helvetica,sans-Serif" font-size="10.00">syntax.ListStartHandler.handle</text>
</g>
<!-- Node2 -->
<g id="node2" class="node"><title>Node2</title>
<g id="a_node2"><a xlink:href="../../d1/de6/classsyntax_1_1_list_handler.html#accf3ac0447c7f0561113a3c8b0deb919" target="_top" xlink:title="syntax.ListHandler.getList\lDepthCount">
<polygon fill="white" stroke="black" points="200,-98 200,-128 340,-128 340,-98 200,-98"/>
<text text-anchor="start" x="208" y="-116" font-family="Helvetica,sans-Serif" font-size="10.00">syntax.ListHandler.getList</text>
<text text-anchor="middle" x="270" y="-105" font-family="Helvetica,sans-Serif" font-size="10.00">DepthCount</text>
</a>
</g>
</g>
<!-- Node1&#45;&gt;Node2 -->
<g id="edge1" class="edge"><title>Node1&#45;&gt;Node2</title>
<path fill="none" stroke="midnightblue" d="M119.304,-73.564C142.852,-79.7676 174.243,-88.0371 202.196,-95.401"/>
<polygon fill="midnightblue" stroke="midnightblue" points="201.359,-98.8 211.921,-97.963 203.142,-92.0309 201.359,-98.8"/>
</g>
<!-- Node3 -->
<g id="node3" class="node"><title>Node3</title>
<g id="a_node3"><a xlink:href="../../dc/d9e/classapplication_1_1_parser.html#a74e9be1b3f5d45542735791cf13baa90" target="_top" xlink:title="application.Parser.parse\lIterator">
<polygon fill="white" stroke="black" points="204.5,-49 204.5,-79 335.5,-79 335.5,-49 204.5,-49"/>
<text text-anchor="start" x="212.5" y="-67" font-family="Helvetica,sans-Serif" font-size="10.00">application.Parser.parse</text>
<text text-anchor="middle" x="270" y="-56" font-family="Helvetica,sans-Serif" font-size="10.00">Iterator</text>
</a>
</g>
</g>
<!-- Node1&#45;&gt;Node3 -->
<g id="edge2" class="edge"><title>Node1&#45;&gt;Node3</title>
<path fill="none" stroke="midnightblue" d="M164.041,-64C174.068,-64 184.283,-64 194.211,-64"/>
<polygon fill="midnightblue" stroke="midnightblue" points="194.432,-67.5001 204.432,-64 194.432,-60.5001 194.432,-67.5001"/>
</g>
<!-- Node11 -->
<g id="node11" class="node"><title>Node11</title>
<g id="a_node11"><a xlink:href="../../d1/de6/classsyntax_1_1_list_handler.html#a3017e49f48d22937cd27dd4d8dfd2bbc" target="_top" xlink:title="syntax.ListHandler.setList\lDepthCount">
<polygon fill="white" stroke="black" points="200.5,-0 200.5,-30 339.5,-30 339.5,-0 200.5,-0"/>
<text text-anchor="start" x="208.5" y="-18" font-family="Helvetica,sans-Serif" font-size="10.00">syntax.ListHandler.setList</text>
<text text-anchor="middle" x="270" y="-7" font-family="Helvetica,sans-Serif" font-size="10.00">DepthCount</text>
</a>
</g>
</g>
<!-- Node1&#45;&gt;Node11 -->
<g id="edge10" class="edge"><title>Node1&#45;&gt;Node11</title>
<path fill="none" stroke="midnightblue" d="M119.304,-54.436C142.852,-48.2324 174.243,-39.9629 202.196,-32.599"/>
<polygon fill="midnightblue" stroke="midnightblue" points="203.142,-35.9691 211.921,-30.037 201.359,-29.2 203.142,-35.9691"/>
</g>
<!-- Node4 -->
<g id="node4" class="node"><title>Node4</title>
<g id="a_node4"><a xlink:href="../../d5/d4b/classtree_1_1_tree_builder.html#a1e29a66ff647bc0ef8933f412cc16359" target="_top" xlink:title="tree.TreeBuilder.build">
<polygon fill="white" stroke="black" points="406,-98.5 406,-117.5 522,-117.5 522,-98.5 406,-98.5"/>
<text text-anchor="middle" x="464" y="-105.5" font-family="Helvetica,sans-Serif" font-size="10.00">tree.TreeBuilder.build</text>
</a>
</g>
</g>
<!-- Node3&#45;&gt;Node4 -->
<g id="edge3" class="edge"><title>Node3&#45;&gt;Node4</title>
<path fill="none" stroke="midnightblue" d="M335.735,-78.8351C360.391,-84.4855 388.137,-90.8439 411.414,-96.1782"/>
<polygon fill="midnightblue" stroke="midnightblue" points="410.9,-99.6511 421.429,-98.4734 412.464,-92.828 410.9,-99.6511"/>
</g>
<!-- Node8 -->
<g id="node8" class="node"><title>Node8</title>
<g id="a_node8"><a xlink:href="../../de/d31/classapplication_1_1_pattern_matcher.html#a2db70f4edd389c1f149acdebd3da0b7f" target="_top" xlink:title="application.PatternMatcher.check\lForMatch">
<polygon fill="white" stroke="black" points="376.5,-49 376.5,-79 551.5,-79 551.5,-49 376.5,-49"/>
<text text-anchor="start" x="384.5" y="-67" font-family="Helvetica,sans-Serif" font-size="10.00">application.PatternMatcher.check</text>
<text text-anchor="middle" x="464" y="-56" font-family="Helvetica,sans-Serif" font-size="10.00">ForMatch</text>
</a>
</g>
</g>
<!-- Node3&#45;&gt;Node8 -->
<g id="edge7" class="edge"><title>Node3&#45;&gt;Node8</title>
<path fill="none" stroke="midnightblue" d="M335.735,-64C345.533,-64 355.819,-64 366.118,-64"/>
<polygon fill="midnightblue" stroke="midnightblue" points="366.404,-67.5001 376.404,-64 366.404,-60.5001 366.404,-67.5001"/>
</g>
<!-- Node10 -->
<g id="node10" class="node"><title>Node10</title>
<g id="a_node10"><a xlink:href="../../d0/d2d/classsyntax_1_1_syntax_handler.html#a5068c7316f7b220bb6a8ce045e5ebd47" target="_top" xlink:title="syntax.SyntaxHandler.handle">
<polygon fill="white" stroke="black" points="386,-10.5 386,-29.5 542,-29.5 542,-10.5 386,-10.5"/>
<text text-anchor="middle" x="464" y="-17.5" font-family="Helvetica,sans-Serif" font-size="10.00">syntax.SyntaxHandler.handle</text>
</a>
</g>
</g>
<!-- Node3&#45;&gt;Node10 -->
<g id="edge9" class="edge"><title>Node3&#45;&gt;Node10</title>
<path fill="none" stroke="midnightblue" d="M333.417,-48.9356C347.417,-45.6135 362.207,-42.1479 376,-39 386.617,-36.577 397.978,-34.049 408.869,-31.6571"/>
<polygon fill="midnightblue" stroke="midnightblue" points="409.684,-35.0618 418.705,-29.5057 408.188,-28.2234 409.684,-35.0618"/>
</g>
<!-- Node5 -->
<g id="node5" class="node"><title>Node5</title>
<g id="a_node5"><a xlink:href="../../d5/d4b/classtree_1_1_tree_builder.html#a4032cc1efc7fb77f4414d1bd58713d4b" target="_top" xlink:title="tree.TreeBuilder.addChildren">
<polygon fill="white" stroke="black" points="601.5,-98.5 601.5,-117.5 752.5,-117.5 752.5,-98.5 601.5,-98.5"/>
<text text-anchor="middle" x="677" y="-105.5" font-family="Helvetica,sans-Serif" font-size="10.00">tree.TreeBuilder.addChildren</text>
</a>
</g>
</g>
<!-- Node4&#45;&gt;Node5 -->
<g id="edge4" class="edge"><title>Node4&#45;&gt;Node5</title>
<path fill="none" stroke="midnightblue" d="M522.1,-108C543.363,-108 567.975,-108 591.194,-108"/>
<polygon fill="midnightblue" stroke="midnightblue" points="591.396,-111.5 601.396,-108 591.396,-104.5 591.396,-111.5"/>
</g>
<!-- Node6 -->
<g id="node6" class="node"><title>Node6</title>
<g id="a_node6"><a xlink:href="../../d7/d99/classtree_1_1_command_node.html#a7a383438fa8edd362dddfc785615edd2" target="_top" xlink:title="tree.CommandNode.getArgNum">
<polygon fill="white" stroke="black" points="802.5,-117.5 802.5,-136.5 975.5,-136.5 975.5,-117.5 802.5,-117.5"/>
<text text-anchor="middle" x="889" y="-124.5" font-family="Helvetica,sans-Serif" font-size="10.00">tree.CommandNode.getArgNum</text>
</a>
</g>
</g>
<!-- Node5&#45;&gt;Node6 -->
<g id="edge5" class="edge"><title>Node5&#45;&gt;Node6</title>
<path fill="none" stroke="midnightblue" d="M752.629,-114.752C765.406,-115.908 778.839,-117.123 792.078,-118.321"/>
<polygon fill="midnightblue" stroke="midnightblue" points="791.875,-121.817 802.15,-119.233 792.506,-114.846 791.875,-121.817"/>
</g>
<!-- Node7 -->
<g id="node7" class="node"><title>Node7</title>
<g id="a_node7"><a xlink:href="../../d7/d99/classtree_1_1_command_node.html#ae5d7b13f887006572eb9bbaa3f0e9d4e" target="_top" xlink:title="tree.CommandNode.addChild">
<polygon fill="white" stroke="black" points="809.5,-79.5 809.5,-98.5 968.5,-98.5 968.5,-79.5 809.5,-79.5"/>
<text text-anchor="middle" x="889" y="-86.5" font-family="Helvetica,sans-Serif" font-size="10.00">tree.CommandNode.addChild</text>
</a>
</g>
</g>
<!-- Node5&#45;&gt;Node7 -->
<g id="edge6" class="edge"><title>Node5&#45;&gt;Node7</title>
<path fill="none" stroke="midnightblue" d="M752.629,-101.248C767.716,-99.8829 783.717,-98.4351 799.234,-97.0312"/>
<polygon fill="midnightblue" stroke="midnightblue" points="799.702,-100.503 809.346,-96.1163 799.072,-93.5317 799.702,-100.503"/>
</g>
<!-- Node9 -->
<g id="node9" class="node"><title>Node9</title>
<g id="a_node9"><a xlink:href="../../de/d31/classapplication_1_1_pattern_matcher.html#a463a0d665a268cd83796230ffb17ebdc" target="_top" xlink:title="application.PatternMatcher.match">
<polygon fill="white" stroke="black" points="588,-54.5 588,-73.5 766,-73.5 766,-54.5 588,-54.5"/>
<text text-anchor="middle" x="677" y="-61.5" font-family="Helvetica,sans-Serif" font-size="10.00">application.PatternMatcher.match</text>
</a>
</g>
</g>
<!-- Node8&#45;&gt;Node9 -->
<g id="edge8" class="edge"><title>Node8&#45;&gt;Node9</title>
<path fill="none" stroke="midnightblue" d="M551.735,-64C560.313,-64 569.063,-64 577.746,-64"/>
<polygon fill="midnightblue" stroke="midnightblue" points="577.895,-67.5001 587.895,-64 577.895,-60.5001 577.895,-67.5001"/>
</g>
</g>
</svg>
