<?xml version="1.0" encoding="UTF-8" standalone="no"?>
<!DOCTYPE svg PUBLIC "-//W3C//DTD SVG 1.1//EN"
 "http://www.w3.org/Graphics/SVG/1.1/DTD/svg11.dtd">
<!-- Generated by graphviz version 2.36.0 (20140111.2315)
 -->
<!-- Title: application.Parser Pages: 1 -->
<svg width="690pt" height="408pt"
 viewBox="0.00 0.00 690.00 408.00" xmlns="http://www.w3.org/2000/svg" xmlns:xlink="http://www.w3.org/1999/xlink">
<g id="graph0" class="graph" transform="scale(1 1) rotate(0) translate(4 404)">
<title>application.Parser</title>
<polygon fill="white" stroke="none" points="-4,4 -4,-404 686,-404 686,4 -4,4"/>
<!-- Node1 -->
<g id="node1" class="node"><title>Node1</title>
<polygon fill="#bfbfbf" stroke="black" points="313.5,-22.5 313.5,-41.5 414.5,-41.5 414.5,-22.5 313.5,-22.5"/>
<text text-anchor="middle" x="364" y="-29.5" font-family="Helvetica,sans-Serif" font-size="10.00">application.Parser</text>
</g>
<!-- Node4 -->
<g id="node4" class="node"><title>Node4</title>
<g id="a_node4"><a xlink:href="../../dd/d17/classapplication_1_1_model.html" target="_top" xlink:title="application.Model">
<polygon fill="white" stroke="black" points="582,-168.5 582,-187.5 682,-187.5 682,-168.5 582,-168.5"/>
<text text-anchor="middle" x="632" y="-175.5" font-family="Helvetica,sans-Serif" font-size="10.00">application.Model</text>
</a>
</g>
</g>
<!-- Node1&#45;&gt;Node4 -->
<g id="edge16" class="edge"><title>Node1&#45;&gt;Node4</title>
<path fill="none" stroke="#9a32cd" stroke-dasharray="5,2" d="M425.024,-36.0408C475.167,-40.421 541.904,-48.9009 564,-64 602.287,-90.1628 621.868,-146.016 628.425,-168.415"/>
<polygon fill="#9a32cd" stroke="#9a32cd" points="425.175,-32.5412 414.917,-35.1931 424.589,-39.5167 425.175,-32.5412"/>
<text text-anchor="middle" x="512" y="-67" font-family="Helvetica,sans-Serif" font-size="10.00"> myParser</text>
</g>
<!-- Node2 -->
<g id="node2" class="node"><title>Node2</title>
<polygon fill="white" stroke="#bfbfbf" points="4.5,-39 4.5,-69 139.5,-69 139.5,-39 4.5,-39"/>
<text text-anchor="start" x="12.5" y="-57" font-family="Helvetica,sans-Serif" font-size="10.00">List&lt; Map.Entry&lt; String,</text>
<text text-anchor="middle" x="72" y="-46" font-family="Helvetica,sans-Serif" font-size="10.00"> Pattern &gt; &gt;</text>
</g>
<!-- Node2&#45;&gt;Node1 -->
<g id="edge1" class="edge"><title>Node2&#45;&gt;Node1</title>
<path fill="none" stroke="#9a32cd" stroke-dasharray="5,2" d="M149.662,-48.1843C201.37,-44.2616 268.109,-39.1986 313.06,-35.7886"/>
<polygon fill="#9a32cd" stroke="#9a32cd" points="149.238,-44.7062 139.532,-48.9528 149.768,-51.6862 149.238,-44.7062"/>
<text text-anchor="middle" x="215" y="-61" font-family="Helvetica,sans-Serif" font-size="10.00"> mySyntaxPatterns</text>
<text text-anchor="middle" x="215" y="-50" font-family="Helvetica,sans-Serif" font-size="10.00">myCommandPatterns</text>
</g>
<!-- Node3 -->
<g id="node3" class="node"><title>Node3</title>
<g id="a_node3"><a xlink:href="../../d5/d4b/classtree_1_1_tree_builder.html" target="_top" xlink:title="tree.TreeBuilder">
<polygon fill="white" stroke="black" points="26,-0.5 26,-19.5 118,-19.5 118,-0.5 26,-0.5"/>
<text text-anchor="middle" x="72" y="-7.5" font-family="Helvetica,sans-Serif" font-size="10.00">tree.TreeBuilder</text>
</a>
</g>
</g>
<!-- Node3&#45;&gt;Node1 -->
<g id="edge2" class="edge"><title>Node3&#45;&gt;Node1</title>
<path fill="none" stroke="#9a32cd" stroke-dasharray="5,2" d="M128.615,-14.219C181.972,-18.2668 261.806,-24.3232 313.147,-28.2181"/>
<polygon fill="#9a32cd" stroke="#9a32cd" points="128.549,-10.7041 118.312,-13.4375 128.019,-17.684 128.549,-10.7041"/>
<text text-anchor="middle" x="215" y="-28" font-family="Helvetica,sans-Serif" font-size="10.00"> myTreeBuilder</text>
</g>
<!-- Node4&#45;&gt;Node1 -->
<g id="edge3" class="edge"><title>Node4&#45;&gt;Node1</title>
<path fill="none" stroke="#9a32cd" stroke-dasharray="5,2" d="M629.32,-157.904C625.181,-122.823 611.094,-51.1832 564,-20 509.602,16.0195 427.42,-7.5115 387.864,-22.4246"/>
<polygon fill="#9a32cd" stroke="#9a32cd" points="625.882,-158.693 630.376,-168.288 632.846,-157.985 625.882,-158.693"/>
<text text-anchor="middle" x="512" y="-23" font-family="Helvetica,sans-Serif" font-size="10.00"> myModel</text>
</g>
<!-- Node5 -->
<g id="node5" class="node"><title>Node5</title>
<polygon fill="white" stroke="#bfbfbf" points="334,-380.5 334,-399.5 394,-399.5 394,-380.5 334,-380.5"/>
<text text-anchor="middle" x="364" y="-387.5" font-family="Helvetica,sans-Serif" font-size="10.00">Observer</text>
</g>
<!-- Node5&#45;&gt;Node4 -->
<g id="edge4" class="edge"><title>Node5&#45;&gt;Node4</title>
<path fill="none" stroke="midnightblue" d="M404.316,-395.031C448.172,-398.391 518.869,-396.784 564,-360 619.592,-314.69 629.058,-218.785 630.669,-187.845"/>
<polygon fill="midnightblue" stroke="midnightblue" points="404.584,-391.542 394.313,-394.143 403.964,-398.514 404.584,-391.542"/>
</g>
<!-- Node6 -->
<g id="node6" class="node"><title>Node6</title>
<polygon fill="white" stroke="#bfbfbf" points="321,-342.5 321,-361.5 407,-361.5 407,-342.5 321,-342.5"/>
<text text-anchor="middle" x="364" y="-349.5" font-family="Helvetica,sans-Serif" font-size="10.00">StringProperty</text>
</g>
<!-- Node6&#45;&gt;Node4 -->
<g id="edge5" class="edge"><title>Node6&#45;&gt;Node4</title>
<path fill="none" stroke="#9a32cd" stroke-dasharray="5,2" d="M417.461,-351.26C460.825,-348.122 521.896,-337.585 564,-305 604.217,-273.875 622.884,-211.709 628.808,-187.739"/>
<polygon fill="#9a32cd" stroke="#9a32cd" points="417.158,-347.772 407.392,-351.88 417.589,-354.759 417.158,-347.772"/>
<text text-anchor="middle" x="512" y="-348" font-family="Helvetica,sans-Serif" font-size="10.00"> errorMsg</text>
</g>
<!-- Node7 -->
<g id="node7" class="node"><title>Node7</title>
<polygon fill="white" stroke="#bfbfbf" points="26.5,-277.5 26.5,-296.5 117.5,-296.5 117.5,-277.5 26.5,-277.5"/>
<text text-anchor="middle" x="72" y="-284.5" font-family="Helvetica,sans-Serif" font-size="10.00">DoubleProperty</text>
</g>
<!-- Node7&#45;&gt;Node4 -->
<g id="edge6" class="edge"><title>Node7&#45;&gt;Node4</title>
<path fill="none" stroke="#9a32cd" stroke-dasharray="5,2" d="M127.901,-288.86C239.58,-291.789 488.986,-293.725 564,-256 594.461,-240.681 616.765,-204.802 626.127,-187.569"/>
<polygon fill="#9a32cd" stroke="#9a32cd" points="127.946,-285.36 117.854,-288.584 127.754,-292.357 127.946,-285.36"/>
<text text-anchor="middle" x="364" y="-315" font-family="Helvetica,sans-Serif" font-size="10.00"> penSize</text>
<text text-anchor="middle" x="364" y="-304" font-family="Helvetica,sans-Serif" font-size="10.00">penColor</text>
<text text-anchor="middle" x="364" y="-293" font-family="Helvetica,sans-Serif" font-size="10.00">background</text>
</g>
<!-- Node9 -->
<g id="node9" class="node"><title>Node9</title>
<g id="a_node9"><a xlink:href="../../d1/deb/classapplication_1_1_turtle_list.html" target="_top" xlink:title="application.TurtleList">
<polygon fill="white" stroke="black" points="307.5,-235.5 307.5,-254.5 420.5,-254.5 420.5,-235.5 307.5,-235.5"/>
<text text-anchor="middle" x="364" y="-242.5" font-family="Helvetica,sans-Serif" font-size="10.00">application.TurtleList</text>
</a>
</g>
</g>
<!-- Node7&#45;&gt;Node9 -->
<g id="edge9" class="edge"><title>Node7&#45;&gt;Node9</title>
<path fill="none" stroke="#9a32cd" stroke-dasharray="5,2" d="M118.538,-275.075C132.417,-271.761 147.767,-268.413 162,-266 210.775,-257.732 266.797,-252.202 307.286,-248.901"/>
<polygon fill="#9a32cd" stroke="#9a32cd" points="117.615,-271.698 108.73,-277.469 119.275,-278.498 117.615,-271.698"/>
<text text-anchor="middle" x="215" y="-269" font-family="Helvetica,sans-Serif" font-size="10.00"> newID</text>
</g>
<!-- Node8 -->
<g id="node8" class="node"><title>Node8</title>
<polygon fill="white" stroke="#bfbfbf" points="286.5,-186 286.5,-216 441.5,-216 441.5,-186 286.5,-186"/>
<text text-anchor="start" x="294.5" y="-204" font-family="Helvetica,sans-Serif" font-size="10.00">Map&lt; String, tree.Command</text>
<text text-anchor="middle" x="364" y="-193" font-family="Helvetica,sans-Serif" font-size="10.00">Node &gt;</text>
</g>
<!-- Node8&#45;&gt;Node4 -->
<g id="edge7" class="edge"><title>Node8&#45;&gt;Node4</title>
<path fill="none" stroke="#9a32cd" stroke-dasharray="5,2" d="M451.793,-193.495C494.89,-189.769 545.38,-185.403 581.764,-182.257"/>
<polygon fill="#9a32cd" stroke="#9a32cd" points="451.243,-190.03 441.581,-194.378 451.846,-197.004 451.243,-190.03"/>
<text text-anchor="middle" x="512" y="-207" font-family="Helvetica,sans-Serif" font-size="10.00"> myCommandHistory</text>
<text text-anchor="middle" x="512" y="-196" font-family="Helvetica,sans-Serif" font-size="10.00">myUserCommands</text>
</g>
<!-- Node9&#45;&gt;Node4 -->
<g id="edge8" class="edge"><title>Node9&#45;&gt;Node4</title>
<path fill="none" stroke="#9a32cd" stroke-dasharray="5,2" d="M430.976,-243.278C470.51,-240.571 521.235,-234.105 564,-219 584.831,-211.642 606.128,-197.178 618.959,-187.548"/>
<polygon fill="#9a32cd" stroke="#9a32cd" points="430.682,-239.79 420.918,-243.903 431.116,-246.776 430.682,-239.79"/>
<text text-anchor="middle" x="512" y="-244" font-family="Helvetica,sans-Serif" font-size="10.00"> myTurtleList</text>
</g>
<!-- Node10 -->
<g id="node10" class="node"><title>Node10</title>
<polygon fill="white" stroke="#bfbfbf" points="6.5,-224 6.5,-254 137.5,-254 137.5,-224 6.5,-224"/>
<text text-anchor="start" x="14.5" y="-242" font-family="Helvetica,sans-Serif" font-size="10.00">Map&lt; application.Turtle,</text>
<text text-anchor="middle" x="72" y="-231" font-family="Helvetica,sans-Serif" font-size="10.00"> Double &gt;</text>
</g>
<!-- Node10&#45;&gt;Node9 -->
<g id="edge10" class="edge"><title>Node10&#45;&gt;Node9</title>
<path fill="none" stroke="#9a32cd" stroke-dasharray="5,2" d="M147.621,-232.7C152.485,-232.423 157.31,-232.184 162,-232 209.075,-230.152 220.998,-228.799 268,-232 280.788,-232.871 294.478,-234.394 307.371,-236.098"/>
<polygon fill="#9a32cd" stroke="#9a32cd" points="147.381,-229.208 137.616,-233.319 147.813,-236.195 147.381,-229.208"/>
<text text-anchor="middle" x="215" y="-235" font-family="Helvetica,sans-Serif" font-size="10.00"> IDMap</text>
</g>
<!-- Node11 -->
<g id="node11" class="node"><title>Node11</title>
<polygon fill="white" stroke="#bfbfbf" points="0.5,-175 0.5,-205 143.5,-205 143.5,-175 0.5,-175"/>
<text text-anchor="start" x="8.5" y="-193" font-family="Helvetica,sans-Serif" font-size="10.00">Map&lt; Double, application.</text>
<text text-anchor="middle" x="72" y="-182" font-family="Helvetica,sans-Serif" font-size="10.00">Turtle &gt;</text>
</g>
<!-- Node11&#45;&gt;Node9 -->
<g id="edge11" class="edge"><title>Node11&#45;&gt;Node9</title>
<path fill="none" stroke="#9a32cd" stroke-dasharray="5,2" d="M154.026,-194.765C189.578,-198.39 231.451,-204.77 268,-216 276.55,-218.627 277.626,-221.858 286,-225 296.733,-229.026 308.601,-232.544 319.739,-235.46"/>
<polygon fill="#9a32cd" stroke="#9a32cd" points="153.983,-191.245 143.694,-193.771 153.312,-198.213 153.983,-191.245"/>
<text text-anchor="middle" x="215" y="-219" font-family="Helvetica,sans-Serif" font-size="10.00"> TurtleMap</text>
</g>
<!-- Node12 -->
<g id="node12" class="node"><title>Node12</title>
<polygon fill="white" stroke="#bfbfbf" points="4,-136.5 4,-155.5 140,-155.5 140,-136.5 4,-136.5"/>
<text text-anchor="middle" x="72" y="-143.5" font-family="Helvetica,sans-Serif" font-size="10.00">List&lt; application.Turtle &gt;</text>
</g>
<!-- Node12&#45;&gt;Node9 -->
<g id="edge12" class="edge"><title>Node12&#45;&gt;Node9</title>
<path fill="none" stroke="#9a32cd" stroke-dasharray="5,2" d="M150.446,-143.036C189.489,-145.414 235.348,-154.594 268,-181 284.429,-194.286 270.092,-211.095 286,-225 292.135,-230.363 299.533,-234.316 307.284,-237.225"/>
<polygon fill="#9a32cd" stroke="#9a32cd" points="150.309,-139.525 140.156,-142.553 149.982,-146.518 150.309,-139.525"/>
<text text-anchor="middle" x="215" y="-184" font-family="Helvetica,sans-Serif" font-size="10.00"> myActiveList</text>
</g>
<!-- Node13 -->
<g id="node13" class="node"><title>Node13</title>
<polygon fill="white" stroke="#bfbfbf" points="316,-147.5 316,-166.5 412,-166.5 412,-147.5 316,-147.5"/>
<text text-anchor="middle" x="364" y="-154.5" font-family="Helvetica,sans-Serif" font-size="10.00">BooleanProperty</text>
</g>
<!-- Node13&#45;&gt;Node4 -->
<g id="edge13" class="edge"><title>Node13&#45;&gt;Node4</title>
<path fill="none" stroke="#9a32cd" stroke-dasharray="5,2" d="M422.436,-152.423C462.375,-150.354 516.719,-149.764 564,-157 578.46,-159.213 594.085,-163.966 606.606,-168.391"/>
<polygon fill="#9a32cd" stroke="#9a32cd" points="422.135,-148.934 412.348,-152.992 422.529,-155.923 422.135,-148.934"/>
<text text-anchor="middle" x="512" y="-171" font-family="Helvetica,sans-Serif" font-size="10.00"> clearStamp</text>
<text text-anchor="middle" x="512" y="-160" font-family="Helvetica,sans-Serif" font-size="10.00">clearScreen</text>
</g>
<!-- Node14 -->
<g id="node14" class="node"><title>Node14</title>
<polygon fill="white" stroke="#bfbfbf" points="290.5,-109.5 290.5,-128.5 437.5,-128.5 437.5,-109.5 290.5,-109.5"/>
<text text-anchor="middle" x="364" y="-116.5" font-family="Helvetica,sans-Serif" font-size="10.00">ObjectProperty&lt; double[]&gt;</text>
</g>
<!-- Node14&#45;&gt;Node4 -->
<g id="edge14" class="edge"><title>Node14&#45;&gt;Node4</title>
<path fill="none" stroke="#9a32cd" stroke-dasharray="5,2" d="M447.63,-118.069C484.088,-119.781 526.974,-124.743 564,-137 584.973,-143.943 606.232,-158.517 619.017,-168.284"/>
<polygon fill="#9a32cd" stroke="#9a32cd" points="447.658,-114.568 437.527,-117.669 447.381,-121.562 447.658,-114.568"/>
<text text-anchor="middle" x="512" y="-140" font-family="Helvetica,sans-Serif" font-size="10.00"> pallet</text>
</g>
<!-- Node15 -->
<g id="node15" class="node"><title>Node15</title>
<polygon fill="white" stroke="#bfbfbf" points="300,-71.5 300,-90.5 428,-90.5 428,-71.5 300,-71.5"/>
<text text-anchor="middle" x="364" y="-78.5" font-family="Helvetica,sans-Serif" font-size="10.00">Map&lt; String, Double &gt;</text>
</g>
<!-- Node15&#45;&gt;Node4 -->
<g id="edge15" class="edge"><title>Node15&#45;&gt;Node4</title>
<path fill="none" stroke="#9a32cd" stroke-dasharray="5,2" d="M438.394,-77.3023C477.616,-78.2448 525.591,-84.2456 564,-104 592.974,-118.902 615.526,-151.825 625.462,-168.264"/>
<polygon fill="#9a32cd" stroke="#9a32cd" points="438.41,-73.8023 428.363,-77.1654 438.314,-80.8016 438.41,-73.8023"/>
<text text-anchor="middle" x="512" y="-107" font-family="Helvetica,sans-Serif" font-size="10.00"> variableMap</text>
</g>
</g>
</svg>
