<?xml version="1.0" encoding="UTF-8" standalone="no"?>
<!DOCTYPE svg PUBLIC "-//W3C//DTD SVG 1.1//EN"
 "http://www.w3.org/Graphics/SVG/1.1/DTD/svg11.dtd">
<!-- Generated by graphviz version 2.36.0 (20140111.2315)
 -->
<!-- Title: application.TurtleList.addTurtle Pages: 1 -->
<svg width="502pt" height="77pt"
 viewBox="0.00 0.00 502.00 77.00" xmlns="http://www.w3.org/2000/svg" xmlns:xlink="http://www.w3.org/1999/xlink">
<g id="graph0" class="graph" transform="scale(1 1) rotate(0) translate(4 73)">
<title>application.TurtleList.addTurtle</title>
<polygon fill="white" stroke="none" points="-4,4 -4,-73 498,-73 498,4 -4,4"/>
<!-- Node1 -->
<g id="node1" class="node"><title>Node1</title>
<polygon fill="#bfbfbf" stroke="black" points="0,-17 0,-47 134,-47 134,-17 0,-17"/>
<text text-anchor="start" x="8" y="-35" font-family="Helvetica,sans-Serif" font-size="10.00">application.TurtleList.add</text>
<text text-anchor="middle" x="67" y="-24" font-family="Helvetica,sans-Serif" font-size="10.00">Turtle</text>
</g>
<!-- Node2 -->
<g id="node2" class="node"><title>Node2</title>
<g id="a_node2"><a xlink:href="../../d1/deb/classapplication_1_1_turtle_list.html#a7985cb672866768c57a62a7bcc0bf982" target="_top" xlink:title="application.TurtleList.set\lActiveTurtles">
<polygon fill="white" stroke="black" points="183.5,-39 183.5,-69 314.5,-69 314.5,-39 183.5,-39"/>
<text text-anchor="start" x="191.5" y="-57" font-family="Helvetica,sans-Serif" font-size="10.00">application.TurtleList.set</text>
<text text-anchor="middle" x="249" y="-46" font-family="Helvetica,sans-Serif" font-size="10.00">ActiveTurtles</text>
</a>
</g>
</g>
<!-- Node1&#45;&gt;Node2 -->
<g id="edge1" class="edge"><title>Node1&#45;&gt;Node2</title>
<path fill="none" stroke="midnightblue" d="M144.288,-41.3241C157.242,-42.9073 170.584,-44.538 183.207,-46.0808"/>
<polygon fill="midnightblue" stroke="midnightblue" points="144.354,-37.8062 134.003,-40.0671 143.505,-44.7545 144.354,-37.8062"/>
</g>
<!-- Node4 -->
<g id="node4" class="node"><title>Node4</title>
<g id="a_node4"><a xlink:href="../../d1/deb/classapplication_1_1_turtle_list.html#ad96dfb699d6977e177f98ac137af0dfe" target="_top" xlink:title="application.TurtleList.TurtleList">
<polygon fill="white" stroke="black" points="170,-0.5 170,-19.5 328,-19.5 328,-0.5 170,-0.5"/>
<text text-anchor="middle" x="249" y="-7.5" font-family="Helvetica,sans-Serif" font-size="10.00">application.TurtleList.TurtleList</text>
</a>
</g>
</g>
<!-- Node1&#45;&gt;Node4 -->
<g id="edge3" class="edge"><title>Node1&#45;&gt;Node4</title>
<path fill="none" stroke="midnightblue" d="M144.028,-22.7077C152.653,-21.6535 161.454,-20.5779 170.102,-19.5208"/>
<polygon fill="midnightblue" stroke="midnightblue" points="143.505,-19.2455 134.003,-23.9329 144.354,-26.1938 143.505,-19.2455"/>
</g>
<!-- Node3 -->
<g id="node3" class="node"><title>Node3</title>
<g id="a_node3"><a xlink:href="../../df/d6d/classcommands_1_1_tell.html#ae9a130ae492df45b33f1e45d4aafd255" target="_top" xlink:title="commands.Tell.function">
<polygon fill="white" stroke="black" points="364.5,-44.5 364.5,-63.5 493.5,-63.5 493.5,-44.5 364.5,-44.5"/>
<text text-anchor="middle" x="429" y="-51.5" font-family="Helvetica,sans-Serif" font-size="10.00">commands.Tell.function</text>
</a>
</g>
</g>
<!-- Node2&#45;&gt;Node3 -->
<g id="edge2" class="edge"><title>Node2&#45;&gt;Node3</title>
<path fill="none" stroke="midnightblue" d="M324.522,-54C337.747,-54 351.411,-54 364.302,-54"/>
<polygon fill="midnightblue" stroke="midnightblue" points="324.514,-50.5001 314.514,-54 324.514,-57.5001 324.514,-50.5001"/>
</g>
</g>
</svg>
