<?xml version="1.0" encoding="UTF-8" standalone="no"?>
<!DOCTYPE svg PUBLIC "-//W3C//DTD SVG 1.1//EN"
 "http://www.w3.org/Graphics/SVG/1.1/DTD/svg11.dtd">
<!-- Generated by graphviz version 2.36.0 (20140111.2315)
 -->
<!-- Title: application.TurtleList.getActiveTurtles Pages: 1 -->
<!--zoomable 166 -->
<svg id="main" version="1.1" xmlns="http://www.w3.org/2000/svg" xmlns:xlink="http://www.w3.org/1999/xlink" xml:space="preserve" onload="init(evt)">
<style type="text/css"><![CDATA[
.edge:hover path { stroke: red; }
.edge:hover polygon { stroke: red; fill: red; }
]]></style>
<script type="text/javascript"><![CDATA[
var edges = document.getElementsByTagName('g');
if (edges && edges.length) {
  for (var i=0;i<edges.length;i++) {
    if (edges[i].id.substr(0,4)=='edge') {
      edges[i].setAttribute('class','edge');
    }
  }
}
]]></script>
        <defs>
                <circle id="rim" cx="0" cy="0" r="7"/>
                <circle id="rim2" cx="0" cy="0" r="3.5"/>
                <g id="zoomPlus">
                        <use xlink:href="#rim" fill="#404040">
                                <set attributeName="fill" to="#808080" begin="zoomplus.mouseover" end="zoomplus.mouseout"/>
                        </use>
                        <path d="M-4,0h8M0,-4v8" fill="none" stroke="white" stroke-width="1.5" pointer-events="none"/>
                </g>
                <g id="zoomMin">
                        <use xlink:href="#rim" fill="#404040">
                                <set attributeName="fill" to="#808080" begin="zoomminus.mouseover" end="zoomminus.mouseout"/>
                        </use>
                        <path d="M-4,0h8" fill="none" stroke="white" stroke-width="1.5" pointer-events="none"/>
                </g>
                <g id="dirArrow">
                        <path fill="none" stroke="white" stroke-width="1.5" d="M0,-3.0v7 M-2.5,-0.5L0,-3.0L2.5,-0.5"/>
                </g>
               <g id="resetDef">
                       <use xlink:href="#rim2" fill="#404040">
                               <set attributeName="fill" to="#808080" begin="reset.mouseover" end="reset.mouseout"/>
                       </use>
               </g>
        </defs>

<script type="text/javascript">
var viewWidth = 1054;
var viewHeight = 166;
var sectionId = 'dynsection-4';
</script>
<script xlink:href="../../svgpan.js"/>
<svg id="graph" class="graph">
<g id="viewport">
<title>application.TurtleList.getActiveTurtles</title>
<polygon fill="white" stroke="none" points="-4,4 -4,-162 1050,-162 1050,4 -4,4"/>
<!-- Node1 -->
<g id="node1" class="node"><title>Node1</title>
<polygon fill="#bfbfbf" stroke="black" points="0,-89 0,-119 132,-119 132,-89 0,-89"/>
<text text-anchor="start" x="8" y="-107" font-family="Helvetica,sans-Serif" font-size="10.00">application.TurtleList.get</text>
<text text-anchor="middle" x="66" y="-96" font-family="Helvetica,sans-Serif" font-size="10.00">ActiveTurtles</text>
</g>
<!-- Node2 -->
<g id="node2" class="node"><title>Node2</title>
<g id="a_node2"><a xlink:href="../../d4/d54/classview_1_1_turtle_state.html#a3e4441bdb52aa2698734b68d1c2f851a" target="_top" xlink:title="view.TurtleState.attrib">
<polygon fill="white" stroke="black" points="188.5,-123.5 188.5,-142.5 307.5,-142.5 307.5,-123.5 188.5,-123.5"/>
<text text-anchor="middle" x="248" y="-130.5" font-family="Helvetica,sans-Serif" font-size="10.00">view.TurtleState.attrib</text>
</a>
</g>
</g>
<!-- Node1&#45;&gt;Node2 -->
<g id="edge1" class="edge"><title>Node1&#45;&gt;Node2</title>
<path fill="none" stroke="midnightblue" d="M142.234,-116.121C157.603,-118.597 173.562,-121.168 188.253,-123.535"/>
<polygon fill="midnightblue" stroke="midnightblue" points="142.668,-112.646 132.239,-114.511 141.555,-119.557 142.668,-112.646"/>
</g>
<!-- Node7 -->
<g id="node7" class="node"><title>Node7</title>
<g id="a_node7"><a xlink:href="../../d7/d99/classtree_1_1_command_node.html#a5bebc2f70e6e3486c403b9cdb0ce04cb" target="_top" xlink:title="tree.CommandNode.evaluate">
<polygon fill="white" stroke="black" points="168.5,-66.5 168.5,-85.5 327.5,-85.5 327.5,-66.5 168.5,-66.5"/>
<text text-anchor="middle" x="248" y="-73.5" font-family="Helvetica,sans-Serif" font-size="10.00">tree.CommandNode.evaluate</text>
</a>
</g>
</g>
<!-- Node1&#45;&gt;Node7 -->
<g id="edge6" class="edge"><title>Node1&#45;&gt;Node7</title>
<path fill="none" stroke="midnightblue" d="M142.209,-92.3007C156.762,-90.037 171.846,-87.6907 185.881,-85.5074"/>
<polygon fill="midnightblue" stroke="midnightblue" points="141.582,-88.8562 132.239,-93.8518 142.658,-95.773 141.582,-88.8562"/>
</g>
<!-- Node3 -->
<g id="node3" class="node"><title>Node3</title>
<g id="a_node3"><a xlink:href="../../d4/d54/classview_1_1_turtle_state.html#adddc3ba0815784df7bd506a962bd20c6" target="_top" xlink:title="view.TurtleState.state">
<polygon fill="white" stroke="black" points="391.5,-133.5 391.5,-152.5 510.5,-152.5 510.5,-133.5 391.5,-133.5"/>
<text text-anchor="middle" x="451" y="-140.5" font-family="Helvetica,sans-Serif" font-size="10.00">view.TurtleState.state</text>
</a>
</g>
</g>
<!-- Node2&#45;&gt;Node3 -->
<g id="edge2" class="edge"><title>Node2&#45;&gt;Node3</title>
<path fill="none" stroke="midnightblue" d="M317.742,-136.42C341.648,-137.609 368.226,-138.932 391.249,-140.077"/>
<polygon fill="midnightblue" stroke="midnightblue" points="317.839,-132.921 307.678,-135.919 317.492,-139.912 317.839,-132.921"/>
</g>
<!-- Node4 -->
<g id="node4" class="node"><title>Node4</title>
<g id="a_node4"><a xlink:href="../../d3/dbe/classview_1_1_view.html#aef3f2dd859a6a5c719987365a9afb905" target="_top" xlink:title="view.View.start">
<polygon fill="white" stroke="black" points="601,-133.5 601,-152.5 687,-152.5 687,-133.5 601,-133.5"/>
<text text-anchor="middle" x="644" y="-140.5" font-family="Helvetica,sans-Serif" font-size="10.00">view.View.start</text>
</a>
</g>
</g>
<!-- Node3&#45;&gt;Node4 -->
<g id="edge3" class="edge"><title>Node3&#45;&gt;Node4</title>
<path fill="none" stroke="midnightblue" d="M520.707,-143C547.508,-143 577.373,-143 600.88,-143"/>
<polygon fill="midnightblue" stroke="midnightblue" points="520.604,-139.5 510.604,-143 520.604,-146.5 520.604,-139.5"/>
</g>
<!-- Node5 -->
<g id="node5" class="node"><title>Node5</title>
<g id="a_node5"><a xlink:href="../../d4/d9d/classapplication_1_1_wrapper.html#a4be5486a54f6d10d816c3ff49e82ecb9" target="_top" xlink:title="application.Wrapper.make\lNewWindow">
<polygon fill="white" stroke="black" points="750,-128 750,-158 890,-158 890,-128 750,-128"/>
<text text-anchor="start" x="758" y="-146" font-family="Helvetica,sans-Serif" font-size="10.00">application.Wrapper.make</text>
<text text-anchor="middle" x="820" y="-135" font-family="Helvetica,sans-Serif" font-size="10.00">NewWindow</text>
</a>
</g>
</g>
<!-- Node4&#45;&gt;Node5 -->
<g id="edge4" class="edge"><title>Node4&#45;&gt;Node5</title>
<path fill="none" stroke="midnightblue" d="M697.133,-143C713.675,-143 732.232,-143 749.781,-143"/>
<polygon fill="midnightblue" stroke="midnightblue" points="697.121,-139.5 687.121,-143 697.121,-146.5 697.121,-139.5"/>
</g>
<!-- Node6 -->
<g id="node6" class="node"><title>Node6</title>
<g id="a_node6"><a xlink:href="../../d9/d96/classapplication_1_1_main.html#a4e5ad4e3de8bbd8654120180a94e870d" target="_top" xlink:title="application.Main.start">
<polygon fill="white" stroke="black" points="926.5,-133.5 926.5,-152.5 1045.5,-152.5 1045.5,-133.5 926.5,-133.5"/>
<text text-anchor="middle" x="986" y="-140.5" font-family="Helvetica,sans-Serif" font-size="10.00">application.Main.start</text>
</a>
</g>
</g>
<!-- Node5&#45;&gt;Node6 -->
<g id="edge5" class="edge"><title>Node5&#45;&gt;Node6</title>
<path fill="none" stroke="midnightblue" d="M900.335,-143C909.112,-143 917.929,-143 926.384,-143"/>
<polygon fill="midnightblue" stroke="midnightblue" points="900.075,-139.5 890.075,-143 900.075,-146.5 900.075,-139.5"/>
</g>
<!-- Node8 -->
<g id="node8" class="node"><title>Node8</title>
<g id="a_node8"><a xlink:href="../../dd/d17/classapplication_1_1_model.html#a9457364de27b16e384b02f2d679cb327" target="_top" xlink:title="application.Model.update">
<polygon fill="white" stroke="black" points="382.5,-95.5 382.5,-114.5 519.5,-114.5 519.5,-95.5 382.5,-95.5"/>
<text text-anchor="middle" x="451" y="-102.5" font-family="Helvetica,sans-Serif" font-size="10.00">application.Model.update</text>
</a>
</g>
</g>
<!-- Node7&#45;&gt;Node8 -->
<g id="edge7" class="edge"><title>Node7&#45;&gt;Node8</title>
<path fill="none" stroke="midnightblue" d="M325.077,-86.9763C344.425,-89.7679 365.059,-92.7448 383.867,-95.4584"/>
<polygon fill="midnightblue" stroke="midnightblue" points="325.491,-83.4998 315.093,-85.5359 324.491,-90.4281 325.491,-83.4998"/>
</g>
<!-- Node9 -->
<g id="node9" class="node"><title>Node9</title>
<g id="a_node9"><a xlink:href="../../de/d74/classcommands_1_1_ask.html#a9d61a23c4bf1adad72ae5f73bc820b92" target="_top" xlink:title="commands.Ask.function">
<polygon fill="white" stroke="black" points="385,-57.5 385,-76.5 517,-76.5 517,-57.5 385,-57.5"/>
<text text-anchor="middle" x="451" y="-64.5" font-family="Helvetica,sans-Serif" font-size="10.00">commands.Ask.function</text>
</a>
</g>
</g>
<!-- Node7&#45;&gt;Node9 -->
<g id="edge8" class="edge"><title>Node7&#45;&gt;Node9</title>
<path fill="none" stroke="midnightblue" d="M337.873,-72.0206C353.655,-71.314 369.824,-70.59 384.795,-69.9196"/>
<polygon fill="midnightblue" stroke="midnightblue" points="337.409,-68.5378 327.575,-72.4817 337.722,-75.5308 337.409,-68.5378"/>
</g>
<!-- Node10 -->
<g id="node10" class="node"><title>Node10</title>
<g id="a_node10"><a xlink:href="../../dd/dec/classcommands_1_1_if.html#af4992935265deb1e4759cd6579da4680" target="_top" xlink:title="commands.If.evaluateCommand">
<polygon fill="white" stroke="black" points="364.5,-19.5 364.5,-38.5 537.5,-38.5 537.5,-19.5 364.5,-19.5"/>
<text text-anchor="middle" x="451" y="-26.5" font-family="Helvetica,sans-Serif" font-size="10.00">commands.If.evaluateCommand</text>
</a>
</g>
</g>
<!-- Node7&#45;&gt;Node10 -->
<g id="edge9" class="edge"><title>Node7&#45;&gt;Node10</title>
<path fill="none" stroke="midnightblue" d="M297.065,-64.0545C317.653,-59.0006 341.982,-53.112 364,-48 377.554,-44.8531 392.339,-41.5426 405.766,-38.5826"/>
<polygon fill="midnightblue" stroke="midnightblue" points="296.158,-60.673 287.285,-66.4614 297.831,-67.4702 296.158,-60.673"/>
</g>
<!-- Node11 -->
<g id="node11" class="node"><title>Node11</title>
<g id="a_node11"><a xlink:href="../../dd/dec/classcommands_1_1_if.html#a2a8e2fd04325679983dae1be727b5772" target="_top" xlink:title="commands.If.function">
<polygon fill="white" stroke="black" points="584.5,-38.5 584.5,-57.5 703.5,-57.5 703.5,-38.5 584.5,-38.5"/>
<text text-anchor="middle" x="644" y="-45.5" font-family="Helvetica,sans-Serif" font-size="10.00">commands.If.function</text>
</a>
</g>
</g>
<!-- Node10&#45;&gt;Node11 -->
<g id="edge10" class="edge"><title>Node10&#45;&gt;Node11</title>
<path fill="none" stroke="midnightblue" d="M547.733,-38.5231C560.233,-39.7667 572.728,-41.0096 584.362,-42.1669"/>
<polygon fill="midnightblue" stroke="midnightblue" points="548.02,-35.0346 537.723,-37.5274 547.327,-42.0002 548.02,-35.0346"/>
</g>
<!-- Node12 -->
<g id="node12" class="node"><title>Node12</title>
<g id="a_node12"><a xlink:href="../../d8/dc1/classcommands_1_1_if_else.html#a8a6526a96655b8c3f5b5d933c1aacc64" target="_top" xlink:title="commands.IfElse.function">
<polygon fill="white" stroke="black" points="574,-0.5 574,-19.5 714,-19.5 714,-0.5 574,-0.5"/>
<text text-anchor="middle" x="644" y="-7.5" font-family="Helvetica,sans-Serif" font-size="10.00">commands.IfElse.function</text>
</a>
</g>
</g>
<!-- Node10&#45;&gt;Node12 -->
<g id="edge11" class="edge"><title>Node10&#45;&gt;Node12</title>
<path fill="none" stroke="midnightblue" d="M547.679,-19.4822C556.511,-18.6036 565.341,-17.7253 573.866,-16.8772"/>
<polygon fill="midnightblue" stroke="midnightblue" points="547.327,-15.9998 537.723,-20.4726 548.02,-22.9654 547.327,-15.9998"/>
</g>
</g>
</svg>
        <g id="navigator" transform="translate(0 0)" fill="#404254">
                <rect fill="#f2f5e9" fill-opacity="0.5" stroke="#606060" stroke-width=".5" x="0" y="0" width="60" height="60"/>
                <use id="zoomplus" xlink:href="#zoomPlus" x="17" y="9" onmousedown="handleZoom(evt,'in')"/>
                <use id="zoomminus" xlink:href="#zoomMin" x="42" y="9" onmousedown="handleZoom(evt,'out')"/>
                <use id="reset" xlink:href="#resetDef" x="30" y="36" onmousedown="handleReset()"/>
                <g id="arrowUp" xlink:href="#dirArrow" transform="translate(30 24)" onmousedown="handlePan(0,-1)">
                  <use xlink:href="#rim" fill="#404040">
                        <set attributeName="fill" to="#808080" begin="arrowUp.mouseover" end="arrowUp.mouseout"/>
                  </use>
                  <path fill="none" stroke="white" stroke-width="1.5" d="M0,-3.0v7 M-2.5,-0.5L0,-3.0L2.5,-0.5"/>
                </g>
                <g id="arrowRight" xlink:href="#dirArrow" transform="rotate(90) translate(36 -43)" onmousedown="handlePan(1,0)">
                  <use xlink:href="#rim" fill="#404040">
                        <set attributeName="fill" to="#808080" begin="arrowRight.mouseover" end="arrowRight.mouseout"/>
                  </use>
                  <path fill="none" stroke="white" stroke-width="1.5" d="M0,-3.0v7 M-2.5,-0.5L0,-3.0L2.5,-0.5"/>
                </g>
                <g id="arrowDown" xlink:href="#dirArrow" transform="rotate(180) translate(-30 -48)" onmousedown="handlePan(0,1)">
                  <use xlink:href="#rim" fill="#404040">
                        <set attributeName="fill" to="#808080" begin="arrowDown.mouseover" end="arrowDown.mouseout"/>
                  </use>
                  <path fill="none" stroke="white" stroke-width="1.5" d="M0,-3.0v7 M-2.5,-0.5L0,-3.0L2.5,-0.5"/>
                </g>
                <g id="arrowLeft" xlink:href="#dirArrow" transform="rotate(270) translate(-36 17)" onmousedown="handlePan(-1,0)">
                  <use xlink:href="#rim" fill="#404040">
                        <set attributeName="fill" to="#808080" begin="arrowLeft.mouseover" end="arrowLeft.mouseout"/>
                  </use>
                  <path fill="none" stroke="white" stroke-width="1.5" d="M0,-3.0v7 M-2.5,-0.5L0,-3.0L2.5,-0.5"/>
                </g>
        </g>
        <svg viewBox="0 0 15 15" width="100%" height="30px" preserveAspectRatio="xMaxYMin meet">
         <g id="arrow_out" transform="scale(0.3 0.3)">
          <a xlink:href="classapplication_1_1_turtle_list_a87d2c5ddc9378480e8b4bfa5e95b5629_icgraph_org.svg" target="_base">
           <rect id="button" ry="5" rx="5" y="6" x="6" height="38" width="38"
                fill="#f2f5e9" fill-opacity="0.5" stroke="#606060" stroke-width="1.0"/>
           <path id="arrow"
             d="M 11.500037,31.436501 C 11.940474,20.09759 22.043105,11.32322 32.158766,21.979434 L 37.068811,17.246167 C 37.068811,17.246167 37.088388,32 37.088388,32 L 22.160133,31.978069 C 22.160133,31.978069 26.997745,27.140456 26.997745,27.140456 C 18.528582,18.264221 13.291696,25.230495 11.500037,31.436501 z"
             style="fill:#404040;"/>
          </a>
         </g>
        </svg>
</svg>
