<?xml version="1.0" encoding="UTF-8" standalone="no"?>
<!DOCTYPE svg PUBLIC "-//W3C//DTD SVG 1.1//EN"
 "http://www.w3.org/Graphics/SVG/1.1/DTD/svg11.dtd">
<!-- Generated by graphviz version 2.36.0 (20140111.2315)
 -->
<!-- Title: application.TurtleList.getActiveTurtles Pages: 1 -->
<svg width="1054pt" height="172pt"
 viewBox="0.00 0.00 1054.00 172.00" xmlns="http://www.w3.org/2000/svg" xmlns:xlink="http://www.w3.org/1999/xlink">
<g id="graph0" class="graph" transform="scale(1 1) rotate(0) translate(4 168)">
<title>application.TurtleList.getActiveTurtles</title>
<polygon fill="white" stroke="none" points="-4,4 -4,-168 1050,-168 1050,4 -4,4"/>
<!-- Node1 -->
<g id="node1" class="node"><title>Node1</title>
<polygon fill="#bfbfbf" stroke="black" points="0,-93 0,-123 132,-123 132,-93 0,-93"/>
<text text-anchor="start" x="8" y="-111" font-family="Helvetica,sans-Serif" font-size="10.00">application.TurtleList.get</text>
<text text-anchor="middle" x="66" y="-100" font-family="Helvetica,sans-Serif" font-size="10.00">ActiveTurtles</text>
</g>
<!-- Node2 -->
<g id="node2" class="node"><title>Node2</title>
<g id="a_node2"><a xlink:href="../../d4/d54/classview_1_1_turtle_state.html#a3e4441bdb52aa2698734b68d1c2f851a" target="_top" xlink:title="view.TurtleState.attrib">
<polygon fill="white" stroke="black" points="188.5,-128.5 188.5,-147.5 307.5,-147.5 307.5,-128.5 188.5,-128.5"/>
<text text-anchor="middle" x="248" y="-135.5" font-family="Helvetica,sans-Serif" font-size="10.00">view.TurtleState.attrib</text>
</a>
</g>
</g>
<!-- Node1&#45;&gt;Node2 -->
<g id="edge1" class="edge"><title>Node1&#45;&gt;Node2</title>
<path fill="none" stroke="midnightblue" d="M142.511,-120.585C158.309,-123.218 174.72,-125.953 189.725,-128.454"/>
<polygon fill="midnightblue" stroke="midnightblue" points="142.678,-117.065 132.239,-118.873 141.527,-123.97 142.678,-117.065"/>
</g>
<!-- Node7 -->
<g id="node7" class="node"><title>Node7</title>
<g id="a_node7"><a xlink:href="../../d7/d99/classtree_1_1_command_node.html#a5bebc2f70e6e3486c403b9cdb0ce04cb" target="_top" xlink:title="tree.CommandNode.evaluate">
<polygon fill="white" stroke="black" points="168.5,-68.5 168.5,-87.5 327.5,-87.5 327.5,-68.5 168.5,-68.5"/>
<text text-anchor="middle" x="248" y="-75.5" font-family="Helvetica,sans-Serif" font-size="10.00">tree.CommandNode.evaluate</text>
</a>
</g>
</g>
<!-- Node1&#45;&gt;Node7 -->
<g id="edge6" class="edge"><title>Node1&#45;&gt;Node7</title>
<path fill="none" stroke="midnightblue" d="M142.511,-95.4148C158.309,-92.7818 174.72,-90.0467 189.725,-87.5459"/>
<polygon fill="midnightblue" stroke="midnightblue" points="141.527,-92.0304 132.239,-97.1269 142.678,-98.9352 141.527,-92.0304"/>
</g>
<!-- Node3 -->
<g id="node3" class="node"><title>Node3</title>
<g id="a_node3"><a xlink:href="../../d4/d54/classview_1_1_turtle_state.html#a79db2ab9487e3436d6672f1de33b5605" target="_top" xlink:title="view.TurtleState.initiate\lState">
<polygon fill="white" stroke="black" points="388,-134 388,-164 514,-164 514,-134 388,-134"/>
<text text-anchor="start" x="396" y="-152" font-family="Helvetica,sans-Serif" font-size="10.00">view.TurtleState.initiate</text>
<text text-anchor="middle" x="451" y="-141" font-family="Helvetica,sans-Serif" font-size="10.00">State</text>
</a>
</g>
</g>
<!-- Node2&#45;&gt;Node3 -->
<g id="edge2" class="edge"><title>Node2&#45;&gt;Node3</title>
<path fill="none" stroke="midnightblue" d="M317.902,-141.771C340.563,-143.011 365.609,-144.382 387.746,-145.593"/>
<polygon fill="midnightblue" stroke="midnightblue" points="317.854,-138.263 307.678,-141.211 317.472,-145.253 317.854,-138.263"/>
</g>
<!-- Node4 -->
<g id="node4" class="node"><title>Node4</title>
<g id="a_node4"><a xlink:href="../../d3/dbe/classview_1_1_view.html#aef3f2dd859a6a5c719987365a9afb905" target="_top" xlink:title="view.View.start">
<polygon fill="white" stroke="black" points="601,-139.5 601,-158.5 687,-158.5 687,-139.5 601,-139.5"/>
<text text-anchor="middle" x="644" y="-146.5" font-family="Helvetica,sans-Serif" font-size="10.00">view.View.start</text>
</a>
</g>
</g>
<!-- Node3&#45;&gt;Node4 -->
<g id="edge3" class="edge"><title>Node3&#45;&gt;Node4</title>
<path fill="none" stroke="midnightblue" d="M524.175,-149C550.065,-149 578.393,-149 600.893,-149"/>
<polygon fill="midnightblue" stroke="midnightblue" points="524.012,-145.5 514.012,-149 524.012,-152.5 524.012,-145.5"/>
</g>
<!-- Node5 -->
<g id="node5" class="node"><title>Node5</title>
<g id="a_node5"><a xlink:href="../../d4/d9d/classapplication_1_1_wrapper.html#a4be5486a54f6d10d816c3ff49e82ecb9" target="_top" xlink:title="application.Wrapper.make\lNewWindow">
<polygon fill="white" stroke="black" points="750,-134 750,-164 890,-164 890,-134 750,-134"/>
<text text-anchor="start" x="758" y="-152" font-family="Helvetica,sans-Serif" font-size="10.00">application.Wrapper.make</text>
<text text-anchor="middle" x="820" y="-141" font-family="Helvetica,sans-Serif" font-size="10.00">NewWindow</text>
</a>
</g>
</g>
<!-- Node4&#45;&gt;Node5 -->
<g id="edge4" class="edge"><title>Node4&#45;&gt;Node5</title>
<path fill="none" stroke="midnightblue" d="M697.133,-149C713.675,-149 732.232,-149 749.781,-149"/>
<polygon fill="midnightblue" stroke="midnightblue" points="697.121,-145.5 687.121,-149 697.121,-152.5 697.121,-145.5"/>
</g>
<!-- Node6 -->
<g id="node6" class="node"><title>Node6</title>
<g id="a_node6"><a xlink:href="../../d9/d96/classapplication_1_1_main.html#a4e5ad4e3de8bbd8654120180a94e870d" target="_top" xlink:title="application.Main.start">
<polygon fill="white" stroke="black" points="926.5,-139.5 926.5,-158.5 1045.5,-158.5 1045.5,-139.5 926.5,-139.5"/>
<text text-anchor="middle" x="986" y="-146.5" font-family="Helvetica,sans-Serif" font-size="10.00">application.Main.start</text>
</a>
</g>
</g>
<!-- Node5&#45;&gt;Node6 -->
<g id="edge5" class="edge"><title>Node5&#45;&gt;Node6</title>
<path fill="none" stroke="midnightblue" d="M900.335,-149C909.112,-149 917.929,-149 926.384,-149"/>
<polygon fill="midnightblue" stroke="midnightblue" points="900.075,-145.5 890.075,-149 900.075,-152.5 900.075,-145.5"/>
</g>
<!-- Node8 -->
<g id="node8" class="node"><title>Node8</title>
<g id="a_node8"><a xlink:href="../../dd/d17/classapplication_1_1_model.html#a9457364de27b16e384b02f2d679cb327" target="_top" xlink:title="application.Model.update">
<polygon fill="white" stroke="black" points="382.5,-95.5 382.5,-114.5 519.5,-114.5 519.5,-95.5 382.5,-95.5"/>
<text text-anchor="middle" x="451" y="-102.5" font-family="Helvetica,sans-Serif" font-size="10.00">application.Model.update</text>
</a>
</g>
</g>
<!-- Node7&#45;&gt;Node8 -->
<g id="edge7" class="edge"><title>Node7&#45;&gt;Node8</title>
<path fill="none" stroke="midnightblue" d="M330.005,-88.8813C347.416,-91.22 365.638,-93.6677 382.471,-95.929"/>
<polygon fill="midnightblue" stroke="midnightblue" points="330.242,-85.3818 319.865,-87.5192 329.31,-92.3194 330.242,-85.3818"/>
</g>
<!-- Node9 -->
<g id="node9" class="node"><title>Node9</title>
<g id="a_node9"><a xlink:href="../../de/d74/classcommands_1_1_ask.html#a9d61a23c4bf1adad72ae5f73bc820b92" target="_top" xlink:title="commands.Ask.function">
<polygon fill="white" stroke="black" points="385,-57.5 385,-76.5 517,-76.5 517,-57.5 385,-57.5"/>
<text text-anchor="middle" x="451" y="-64.5" font-family="Helvetica,sans-Serif" font-size="10.00">commands.Ask.function</text>
</a>
</g>
</g>
<!-- Node7&#45;&gt;Node9 -->
<g id="edge8" class="edge"><title>Node7&#45;&gt;Node9</title>
<path fill="none" stroke="midnightblue" d="M337.873,-73.1363C353.655,-72.2726 369.824,-71.3878 384.795,-70.5684"/>
<polygon fill="midnightblue" stroke="midnightblue" points="337.369,-69.6585 327.575,-73.6999 337.752,-76.6481 337.369,-69.6585"/>
</g>
<!-- Node10 -->
<g id="node10" class="node"><title>Node10</title>
<g id="a_node10"><a xlink:href="../../dd/dec/classcommands_1_1_if.html#af4992935265deb1e4759cd6579da4680" target="_top" xlink:title="commands.If.evaluateCommand">
<polygon fill="white" stroke="black" points="364.5,-19.5 364.5,-38.5 537.5,-38.5 537.5,-19.5 364.5,-19.5"/>
<text text-anchor="middle" x="451" y="-26.5" font-family="Helvetica,sans-Serif" font-size="10.00">commands.If.evaluateCommand</text>
</a>
</g>
</g>
<!-- Node7&#45;&gt;Node10 -->
<g id="edge9" class="edge"><title>Node7&#45;&gt;Node10</title>
<path fill="none" stroke="midnightblue" d="M293.861,-65.8777C315.079,-60.2516 340.795,-53.5881 364,-48 377.379,-44.7782 391.98,-41.4734 405.291,-38.5422"/>
<polygon fill="midnightblue" stroke="midnightblue" points="292.908,-62.5092 284.145,-68.4642 294.709,-69.2736 292.908,-62.5092"/>
</g>
<!-- Node11 -->
<g id="node11" class="node"><title>Node11</title>
<g id="a_node11"><a xlink:href="../../dd/dec/classcommands_1_1_if.html#a2a8e2fd04325679983dae1be727b5772" target="_top" xlink:title="commands.If.function">
<polygon fill="white" stroke="black" points="584.5,-38.5 584.5,-57.5 703.5,-57.5 703.5,-38.5 584.5,-38.5"/>
<text text-anchor="middle" x="644" y="-45.5" font-family="Helvetica,sans-Serif" font-size="10.00">commands.If.function</text>
</a>
</g>
</g>
<!-- Node10&#45;&gt;Node11 -->
<g id="edge10" class="edge"><title>Node10&#45;&gt;Node11</title>
<path fill="none" stroke="midnightblue" d="M547.733,-38.5231C560.233,-39.7667 572.728,-41.0096 584.362,-42.1669"/>
<polygon fill="midnightblue" stroke="midnightblue" points="548.02,-35.0346 537.723,-37.5274 547.327,-42.0002 548.02,-35.0346"/>
</g>
<!-- Node12 -->
<g id="node12" class="node"><title>Node12</title>
<g id="a_node12"><a xlink:href="../../d8/dc1/classcommands_1_1_if_else.html#a8a6526a96655b8c3f5b5d933c1aacc64" target="_top" xlink:title="commands.IfElse.function">
<polygon fill="white" stroke="black" points="574,-0.5 574,-19.5 714,-19.5 714,-0.5 574,-0.5"/>
<text text-anchor="middle" x="644" y="-7.5" font-family="Helvetica,sans-Serif" font-size="10.00">commands.IfElse.function</text>
</a>
</g>
</g>
<!-- Node10&#45;&gt;Node12 -->
<g id="edge11" class="edge"><title>Node10&#45;&gt;Node12</title>
<path fill="none" stroke="midnightblue" d="M547.679,-19.4822C556.511,-18.6036 565.341,-17.7253 573.866,-16.8772"/>
<polygon fill="midnightblue" stroke="midnightblue" points="547.327,-15.9998 537.723,-20.4726 548.02,-22.9654 547.327,-15.9998"/>
</g>
</g>
</svg>
