<?xml version="1.0" encoding="UTF-8" standalone="no"?>
<!DOCTYPE svg PUBLIC "-//W3C//DTD SVG 1.1//EN"
 "http://www.w3.org/Graphics/SVG/1.1/DTD/svg11.dtd">
<!-- Generated by graphviz version 2.36.0 (20140111.2315)
 -->
<!-- Title: application.TurtleList.setActiveTurtles Pages: 1 -->
<svg width="310pt" height="38pt"
 viewBox="0.00 0.00 310.00 38.00" xmlns="http://www.w3.org/2000/svg" xmlns:xlink="http://www.w3.org/1999/xlink">
<g id="graph0" class="graph" transform="scale(1 1) rotate(0) translate(4 34)">
<title>application.TurtleList.setActiveTurtles</title>
<polygon fill="white" stroke="none" points="-4,4 -4,-34 306,-34 306,4 -4,4"/>
<!-- Node1 -->
<g id="node1" class="node"><title>Node1</title>
<polygon fill="#bfbfbf" stroke="black" points="0.5,-0 0.5,-30 131.5,-30 131.5,-0 0.5,-0"/>
<text text-anchor="start" x="8.5" y="-18" font-family="Helvetica,sans-Serif" font-size="10.00">application.TurtleList.set</text>
<text text-anchor="middle" x="66" y="-7" font-family="Helvetica,sans-Serif" font-size="10.00">ActiveTurtles</text>
</g>
<!-- Node2 -->
<g id="node2" class="node"><title>Node2</title>
<g id="a_node2"><a xlink:href="../../d1/deb/classapplication_1_1_turtle_list.html#af27f8b0841584fce770bdcb77a2c092c" target="_top" xlink:title="application.TurtleList.add\lTurtle">
<polygon fill="white" stroke="black" points="168,-0 168,-30 302,-30 302,-0 168,-0"/>
<text text-anchor="start" x="176" y="-18" font-family="Helvetica,sans-Serif" font-size="10.00">application.TurtleList.add</text>
<text text-anchor="middle" x="235" y="-7" font-family="Helvetica,sans-Serif" font-size="10.00">Turtle</text>
</a>
</g>
</g>
<!-- Node1&#45;&gt;Node2 -->
<g id="edge1" class="edge"><title>Node1&#45;&gt;Node2</title>
<path fill="none" stroke="midnightblue" d="M131.567,-15C140.143,-15 149,-15 157.751,-15"/>
<polygon fill="midnightblue" stroke="midnightblue" points="157.95,-18.5001 167.95,-15 157.95,-11.5001 157.95,-18.5001"/>
</g>
</g>
</svg>
