<?xml version="1.0" encoding="UTF-8" standalone="no"?>
<!DOCTYPE svg PUBLIC "-//W3C//DTD SVG 1.1//EN"
 "http://www.w3.org/Graphics/SVG/1.1/DTD/svg11.dtd">
<!-- Generated by graphviz version 2.36.0 (20140111.2315)
 -->
<!-- Title: application.TurtleList.getTurtle Pages: 1 -->
<svg width="662pt" height="66pt"
 viewBox="0.00 0.00 662.00 66.00" xmlns="http://www.w3.org/2000/svg" xmlns:xlink="http://www.w3.org/1999/xlink">
<g id="graph0" class="graph" transform="scale(1 1) rotate(0) translate(4 62)">
<title>application.TurtleList.getTurtle</title>
<polygon fill="white" stroke="none" points="-4,4 -4,-62 658,-62 658,4 -4,4"/>
<!-- Node1 -->
<g id="node1" class="node"><title>Node1</title>
<polygon fill="#bfbfbf" stroke="black" points="0,-14 0,-44 132,-44 132,-14 0,-14"/>
<text text-anchor="start" x="8" y="-32" font-family="Helvetica,sans-Serif" font-size="10.00">application.TurtleList.get</text>
<text text-anchor="middle" x="66" y="-21" font-family="Helvetica,sans-Serif" font-size="10.00">Turtle</text>
</g>
<!-- Node2 -->
<g id="node2" class="node"><title>Node2</title>
<g id="a_node2"><a xlink:href="../../d3/dbe/classview_1_1_view.html#a6c2525fe1f26dc400c48823ce4f0d057" target="_top" xlink:title="view.View.addModelListeners">
<polygon fill="white" stroke="black" points="168.5,-38.5 168.5,-57.5 321.5,-57.5 321.5,-38.5 168.5,-38.5"/>
<text text-anchor="middle" x="245" y="-45.5" font-family="Helvetica,sans-Serif" font-size="10.00">view.View.addModelListeners</text>
</a>
</g>
</g>
<!-- Node1&#45;&gt;Node2 -->
<g id="edge1" class="edge"><title>Node1&#45;&gt;Node2</title>
<path fill="none" stroke="midnightblue" d="M142.171,-37.0692C150.789,-37.9943 159.579,-38.9378 168.204,-39.8638"/>
<polygon fill="midnightblue" stroke="midnightblue" points="142.471,-33.5813 132.154,-35.994 141.723,-40.5414 142.471,-33.5813"/>
</g>
<!-- Node5 -->
<g id="node5" class="node"><title>Node5</title>
<g id="a_node5"><a xlink:href="../../d3/dbe/classview_1_1_view.html#aef3f2dd859a6a5c719987365a9afb905" target="_top" xlink:title="view.View.start">
<polygon fill="white" stroke="black" points="202,-0.5 202,-19.5 288,-19.5 288,-0.5 202,-0.5"/>
<text text-anchor="middle" x="245" y="-7.5" font-family="Helvetica,sans-Serif" font-size="10.00">view.View.start</text>
</a>
</g>
</g>
<!-- Node1&#45;&gt;Node5 -->
<g id="edge4" class="edge"><title>Node1&#45;&gt;Node5</title>
<path fill="none" stroke="midnightblue" d="M142.365,-20.91C162.712,-18.7258 184.007,-16.44 201.817,-14.5282"/>
<polygon fill="midnightblue" stroke="midnightblue" points="141.723,-17.4586 132.154,-22.006 142.471,-24.4187 141.723,-17.4586"/>
</g>
<!-- Node3 -->
<g id="node3" class="node"><title>Node3</title>
<g id="a_node3"><a xlink:href="../../d4/d9d/classapplication_1_1_wrapper.html#a4be5486a54f6d10d816c3ff49e82ecb9" target="_top" xlink:title="application.Wrapper.make\lNewWindow">
<polygon fill="white" stroke="black" points="358,-14 358,-44 498,-44 498,-14 358,-14"/>
<text text-anchor="start" x="366" y="-32" font-family="Helvetica,sans-Serif" font-size="10.00">application.Wrapper.make</text>
<text text-anchor="middle" x="428" y="-21" font-family="Helvetica,sans-Serif" font-size="10.00">NewWindow</text>
</a>
</g>
</g>
<!-- Node2&#45;&gt;Node3 -->
<g id="edge2" class="edge"><title>Node2&#45;&gt;Node3</title>
<path fill="none" stroke="midnightblue" d="M331.912,-38.9816C340.64,-38.0654 349.426,-37.1432 357.942,-36.2492"/>
<polygon fill="midnightblue" stroke="midnightblue" points="331.291,-35.5274 321.712,-40.0524 332.022,-42.4892 331.291,-35.5274"/>
</g>
<!-- Node4 -->
<g id="node4" class="node"><title>Node4</title>
<g id="a_node4"><a xlink:href="../../d9/d96/classapplication_1_1_main.html#a4e5ad4e3de8bbd8654120180a94e870d" target="_top" xlink:title="application.Main.start">
<polygon fill="white" stroke="black" points="534.5,-19.5 534.5,-38.5 653.5,-38.5 653.5,-19.5 534.5,-19.5"/>
<text text-anchor="middle" x="594" y="-26.5" font-family="Helvetica,sans-Serif" font-size="10.00">application.Main.start</text>
</a>
</g>
</g>
<!-- Node3&#45;&gt;Node4 -->
<g id="edge3" class="edge"><title>Node3&#45;&gt;Node4</title>
<path fill="none" stroke="midnightblue" d="M508.335,-29C517.112,-29 525.929,-29 534.384,-29"/>
<polygon fill="midnightblue" stroke="midnightblue" points="508.075,-25.5001 498.075,-29 508.075,-32.5001 508.075,-25.5001"/>
</g>
<!-- Node5&#45;&gt;Node3 -->
<g id="edge5" class="edge"><title>Node5&#45;&gt;Node3</title>
<path fill="none" stroke="midnightblue" d="M298.454,-15.5063C317.016,-17.4547 338.189,-19.6773 357.92,-21.7485"/>
<polygon fill="midnightblue" stroke="midnightblue" points="298.747,-12.0179 288.436,-14.4547 298.016,-18.9796 298.747,-12.0179"/>
</g>
</g>
</svg>
