<?xml version="1.0" encoding="UTF-8" standalone="no"?>
<!DOCTYPE svg PUBLIC "-//W3C//DTD SVG 1.1//EN"
 "http://www.w3.org/Graphics/SVG/1.1/DTD/svg11.dtd">
<!-- Generated by graphviz version 2.36.0 (20140111.2315)
 -->
<!-- Title: /tmp/git/duke&#45;compsci308&#45;spring2015/slogo_team08/repository/src Pages: 1 -->
<svg width="588pt" height="111pt"
 viewBox="0.00 0.00 588.00 111.00" xmlns="http://www.w3.org/2000/svg" xmlns:xlink="http://www.w3.org/1999/xlink">
<g id="graph0" class="graph" transform="scale(1 1) rotate(0) translate(4 107)">
<title>/tmp/git/duke&#45;compsci308&#45;spring2015/slogo_team08/repository/src</title>
<polygon fill="white" stroke="none" points="-4,4 -4,-107 584,-107 584,4 -4,4"/>
<g id="clust1" class="cluster"><title>clusterdir_25dc7e3ddb5747926a1df8f74a0aaa93</title>
<g id="a_clust1"><a xlink:href="dir_25dc7e3ddb5747926a1df8f74a0aaa93.html" target="_top" xlink:title="repository">
<polygon fill="#ddddee" stroke="black" points="8,-8 8,-95 572,-95 572,-8 8,-8"/>
<text text-anchor="middle" x="290" y="-83" font-family="Helvetica,sans-Serif" font-size="10.00">repository</text>
</a>
</g>
</g>
<g id="clust2" class="cluster"><title>clusterdir_52248fb7cecee5fc800c99af7fa4ebb8</title>
<g id="a_clust2"><a xlink:href="dir_52248fb7cecee5fc800c99af7fa4ebb8.html" target="_top">
<polygon fill="#eeeeff" stroke="black" points="16,-16 16,-68 564,-68 564,-16 16,-16"/>
</a>
</g>
</g>
<!-- dir_52248fb7cecee5fc800c99af7fa4ebb8 -->
<g id="node1" class="node"><title>dir_52248fb7cecee5fc800c99af7fa4ebb8</title>
<text text-anchor="middle" x="529" y="-39.5" font-family="Helvetica,sans-Serif" font-size="10.00">src</text>
</g>
<!-- dir_c879019f7655265d64025cd83dd46faa -->
<g id="node2" class="node"><title>dir_c879019f7655265d64025cd83dd46faa</title>
<g id="a_node2"><a xlink:href="dir_c879019f7655265d64025cd83dd46faa.html" target="_top" xlink:title="application">
<polygon fill="white" stroke="black" points="484,-60 416,-60 416,-24 484,-24 484,-60"/>
<text text-anchor="middle" x="450" y="-39.5" font-family="Helvetica,sans-Serif" font-size="10.00">application</text>
</a>
</g>
</g>
<!-- dir_c979aabcc1894d668d9d429b6c09b0c8 -->
<g id="node3" class="node"><title>dir_c979aabcc1894d668d9d429b6c09b0c8</title>
<g id="a_node3"><a xlink:href="dir_c979aabcc1894d668d9d429b6c09b0c8.html" target="_top" xlink:title="commands">
<polygon fill="white" stroke="black" points="397.25,-60 326.75,-60 326.75,-24 397.25,-24 397.25,-60"/>
<text text-anchor="middle" x="362" y="-39.5" font-family="Helvetica,sans-Serif" font-size="10.00">commands</text>
</a>
</g>
</g>
<!-- dir_ed5cb7841fa5c13fa61c57ef8b008682 -->
<g id="node4" class="node"><title>dir_ed5cb7841fa5c13fa61c57ef8b008682</title>
<g id="a_node4"><a xlink:href="dir_ed5cb7841fa5c13fa61c57ef8b008682.html" target="_top" xlink:title="exceptions">
<polygon fill="white" stroke="black" points="308,-60 240,-60 240,-24 308,-24 308,-60"/>
<text text-anchor="middle" x="274" y="-39.5" font-family="Helvetica,sans-Serif" font-size="10.00">exceptions</text>
</a>
</g>
</g>
<!-- dir_2d9a63f33457b75c8c3703504a94eb5e -->
<g id="node5" class="node"><title>dir_2d9a63f33457b75c8c3703504a94eb5e</title>
<g id="a_node5"><a xlink:href="dir_2d9a63f33457b75c8c3703504a94eb5e.html" target="_top" xlink:title="syntax">
<polygon fill="white" stroke="black" points="222,-60 168,-60 168,-24 222,-24 222,-60"/>
<text text-anchor="middle" x="195" y="-39.5" font-family="Helvetica,sans-Serif" font-size="10.00">syntax</text>
</a>
</g>
</g>
<!-- dir_e9012ab5deb7895e1452e2e448e1c2b5 -->
<g id="node6" class="node"><title>dir_e9012ab5deb7895e1452e2e448e1c2b5</title>
<g id="a_node6"><a xlink:href="dir_e9012ab5deb7895e1452e2e448e1c2b5.html" target="_top" xlink:title="tree">
<polygon fill="white" stroke="black" points="150,-60 96,-60 96,-24 150,-24 150,-60"/>
<text text-anchor="middle" x="123" y="-39.5" font-family="Helvetica,sans-Serif" font-size="10.00">tree</text>
</a>
</g>
</g>
<!-- dir_d0029a837a100953456165c30655e9f9 -->
<g id="node7" class="node"><title>dir_d0029a837a100953456165c30655e9f9</title>
<g id="a_node7"><a xlink:href="dir_d0029a837a100953456165c30655e9f9.html" target="_top" xlink:title="view">
<polygon fill="white" stroke="black" points="78,-60 24,-60 24,-24 78,-24 78,-60"/>
<text text-anchor="middle" x="51" y="-39.5" font-family="Helvetica,sans-Serif" font-size="10.00">view</text>
</a>
</g>
</g>
</g>
</svg>
