<?xml version="1.0" encoding="UTF-8" standalone="no"?>
<!DOCTYPE svg PUBLIC "-//W3C//DTD SVG 1.1//EN"
 "http://www.w3.org/Graphics/SVG/1.1/DTD/svg11.dtd">
<!-- Generated by graphviz version 2.36.0 (20140111.2315)
 -->
<!-- Title: /tmp/git/duke&#45;compsci308&#45;spring2015/slogo_team08/repository Pages: 1 -->
<svg width="266pt" height="111pt"
 viewBox="0.00 0.00 266.00 111.00" xmlns="http://www.w3.org/2000/svg" xmlns:xlink="http://www.w3.org/1999/xlink">
<g id="graph0" class="graph" transform="scale(1 1) rotate(0) translate(4 107)">
<title>/tmp/git/duke&#45;compsci308&#45;spring2015/slogo_team08/repository</title>
<polygon fill="white" stroke="none" points="-4,4 -4,-107 262,-107 262,4 -4,4"/>
<g id="clust1" class="cluster"><title>clusterdir_a86912d57914aa175d36d398dbe34895</title>
<g id="a_clust1"><a xlink:href="dir_a86912d57914aa175d36d398dbe34895.html" target="_top" xlink:title="slogo_team08">
<polygon fill="#ddddee" stroke="black" points="8,-8 8,-95 250,-95 250,-8 8,-8"/>
<text text-anchor="middle" x="129" y="-83" font-family="Helvetica,sans-Serif" font-size="10.00">slogo_team08</text>
</a>
</g>
</g>
<g id="clust2" class="cluster"><title>clusterdir_25dc7e3ddb5747926a1df8f74a0aaa93</title>
<g id="a_clust2"><a xlink:href="dir_25dc7e3ddb5747926a1df8f74a0aaa93.html" target="_top">
<polygon fill="#eeeeff" stroke="black" points="16,-16 16,-68 242,-68 242,-16 16,-16"/>
</a>
</g>
</g>
<!-- dir_25dc7e3ddb5747926a1df8f74a0aaa93 -->
<g id="node1" class="node"><title>dir_25dc7e3ddb5747926a1df8f74a0aaa93</title>
<text text-anchor="middle" x="201" y="-39.5" font-family="Helvetica,sans-Serif" font-size="10.00">repository</text>
</g>
<!-- dir_859bafe519809f23872454a0dd4912d9 -->
<g id="node2" class="node"><title>dir_859bafe519809f23872454a0dd4912d9</title>
<g id="a_node2"><a xlink:href="dir_859bafe519809f23872454a0dd4912d9.html" target="_top" xlink:title="doc">
<polygon fill="white" stroke="black" points="150,-60 96,-60 96,-24 150,-24 150,-60"/>
<text text-anchor="middle" x="123" y="-39.5" font-family="Helvetica,sans-Serif" font-size="10.00">doc</text>
</a>
</g>
</g>
<!-- dir_52248fb7cecee5fc800c99af7fa4ebb8 -->
<g id="node3" class="node"><title>dir_52248fb7cecee5fc800c99af7fa4ebb8</title>
<g id="a_node3"><a xlink:href="dir_52248fb7cecee5fc800c99af7fa4ebb8.html" target="_top" xlink:title="src">
<polygon fill="white" stroke="red" points="78,-60 24,-60 24,-24 78,-24 78,-60"/>
<text text-anchor="middle" x="51" y="-39.5" font-family="Helvetica,sans-Serif" font-size="10.00">src</text>
</a>
</g>
</g>
</g>
</svg>
