<?xml version="1.0" encoding="UTF-8" standalone="no"?>
<!DOCTYPE svg PUBLIC "-//W3C//DTD SVG 1.1//EN"
 "http://www.w3.org/Graphics/SVG/1.1/DTD/svg11.dtd">
<!-- Generated by graphviz version 2.36.0 (20140111.2315)
 -->
<!-- Title: Graphical Class Hierarchy Pages: 1 -->
<svg width="484pt" height="218pt"
 viewBox="0.00 0.00 484.00 218.00" xmlns="http://www.w3.org/2000/svg" xmlns:xlink="http://www.w3.org/1999/xlink">
<g id="graph0" class="graph" transform="scale(1 1) rotate(0) translate(4 214)">
<title>Graphical Class Hierarchy</title>
<polygon fill="white" stroke="none" points="-4,4 -4,-214 480,-214 480,4 -4,4"/>
<!-- Node1 -->
<g id="node1" class="node"><title>Node1</title>
<g id="a_node1"><a xlink:href="d0/d2d/classsyntax_1_1_syntax_handler.html" target="_top" xlink:title="syntax.SyntaxHandler">
<polygon fill="white" stroke="black" points="0,-95.5 0,-114.5 122,-114.5 122,-95.5 0,-95.5"/>
<text text-anchor="middle" x="61" y="-102.5" font-family="Helvetica,sans-Serif" font-size="10.00">syntax.SyntaxHandler</text>
</a>
</g>
</g>
<!-- Node2 -->
<g id="node2" class="node"><title>Node2</title>
<g id="a_node2"><a xlink:href="d0/d2f/classsyntax_1_1_command_handler.html" target="_top" xlink:title="syntax.CommandHandler">
<polygon fill="white" stroke="black" points="158.5,-190.5 158.5,-209.5 297.5,-209.5 297.5,-190.5 158.5,-190.5"/>
<text text-anchor="middle" x="228" y="-197.5" font-family="Helvetica,sans-Serif" font-size="10.00">syntax.CommandHandler</text>
</a>
</g>
</g>
<!-- Node1&#45;&gt;Node2 -->
<g id="edge1" class="edge"><title>Node1&#45;&gt;Node2</title>
<path fill="none" stroke="midnightblue" d="M78.846,-121.865C96.9385,-139.078 127.253,-165.414 158,-181 165.536,-184.82 173.937,-187.951 182.212,-190.49"/>
<polygon fill="midnightblue" stroke="midnightblue" points="81.0483,-119.125 71.4356,-114.67 76.172,-124.147 81.0483,-119.125"/>
</g>
<!-- Node3 -->
<g id="node3" class="node"><title>Node3</title>
<g id="a_node3"><a xlink:href="df/dda/classsyntax_1_1_comment_handler.html" target="_top" xlink:title="syntax.CommentHandler">
<polygon fill="white" stroke="black" points="159.5,-152.5 159.5,-171.5 296.5,-171.5 296.5,-152.5 159.5,-152.5"/>
<text text-anchor="middle" x="228" y="-159.5" font-family="Helvetica,sans-Serif" font-size="10.00">syntax.CommentHandler</text>
</a>
</g>
</g>
<!-- Node1&#45;&gt;Node3 -->
<g id="edge2" class="edge"><title>Node1&#45;&gt;Node3</title>
<path fill="none" stroke="midnightblue" d="M93.6826,-118.542C112.243,-126.222 136.242,-135.722 158,-143 168.134,-146.39 179.246,-149.646 189.535,-152.476"/>
<polygon fill="midnightblue" stroke="midnightblue" points="94.8236,-115.225 84.2472,-114.601 92.1256,-121.685 94.8236,-115.225"/>
</g>
<!-- Node4 -->
<g id="node4" class="node"><title>Node4</title>
<g id="a_node4"><a xlink:href="da/d96/classsyntax_1_1_constant_handler.html" target="_top" xlink:title="syntax.ConstantHandler">
<polygon fill="white" stroke="black" points="162,-114.5 162,-133.5 294,-133.5 294,-114.5 162,-114.5"/>
<text text-anchor="middle" x="228" y="-121.5" font-family="Helvetica,sans-Serif" font-size="10.00">syntax.ConstantHandler</text>
</a>
</g>
</g>
<!-- Node1&#45;&gt;Node4 -->
<g id="edge3" class="edge"><title>Node1&#45;&gt;Node4</title>
<path fill="none" stroke="midnightblue" d="M132.22,-113.086C142.1,-114.224 152.221,-115.389 161.998,-116.515"/>
<polygon fill="midnightblue" stroke="midnightblue" points="132.37,-109.58 122.036,-111.913 131.569,-116.534 132.37,-109.58"/>
</g>
<!-- Node5 -->
<g id="node5" class="node"><title>Node5</title>
<g id="a_node5"><a xlink:href="da/df2/classsyntax_1_1_group_handler.html" target="_top" xlink:title="syntax.GroupHandler">
<polygon fill="white" stroke="black" points="169,-76.5 169,-95.5 287,-95.5 287,-76.5 169,-76.5"/>
<text text-anchor="middle" x="228" y="-83.5" font-family="Helvetica,sans-Serif" font-size="10.00">syntax.GroupHandler</text>
</a>
</g>
</g>
<!-- Node1&#45;&gt;Node5 -->
<g id="edge4" class="edge"><title>Node1&#45;&gt;Node5</title>
<path fill="none" stroke="midnightblue" d="M132.209,-96.9153C144.453,-95.5054 157.066,-94.053 168.938,-92.686"/>
<polygon fill="midnightblue" stroke="midnightblue" points="131.569,-93.4658 122.036,-98.0868 132.37,-100.42 131.569,-93.4658"/>
</g>
<!-- Node8 -->
<g id="node8" class="node"><title>Node8</title>
<g id="a_node8"><a xlink:href="d1/de6/classsyntax_1_1_list_handler.html" target="_top" xlink:title="syntax.ListHandler">
<polygon fill="white" stroke="black" points="175.5,-38.5 175.5,-57.5 280.5,-57.5 280.5,-38.5 175.5,-38.5"/>
<text text-anchor="middle" x="228" y="-45.5" font-family="Helvetica,sans-Serif" font-size="10.00">syntax.ListHandler</text>
</a>
</g>
</g>
<!-- Node1&#45;&gt;Node8 -->
<g id="edge7" class="edge"><title>Node1&#45;&gt;Node8</title>
<path fill="none" stroke="midnightblue" d="M93.6826,-91.4581C112.243,-83.7779 136.242,-74.2782 158,-67 168.134,-63.6102 179.246,-60.3538 189.535,-57.5235"/>
<polygon fill="midnightblue" stroke="midnightblue" points="92.1256,-88.3154 84.2472,-95.3993 94.8236,-94.7746 92.1256,-88.3154"/>
</g>
<!-- Node11 -->
<g id="node11" class="node"><title>Node11</title>
<g id="a_node11"><a xlink:href="dd/ded/classsyntax_1_1_variable_handler.html" target="_top" xlink:title="syntax.VariableHandler">
<polygon fill="white" stroke="black" points="164.5,-0.5 164.5,-19.5 291.5,-19.5 291.5,-0.5 164.5,-0.5"/>
<text text-anchor="middle" x="228" y="-7.5" font-family="Helvetica,sans-Serif" font-size="10.00">syntax.VariableHandler</text>
</a>
</g>
</g>
<!-- Node1&#45;&gt;Node11 -->
<g id="edge10" class="edge"><title>Node1&#45;&gt;Node11</title>
<path fill="none" stroke="midnightblue" d="M78.846,-88.1348C96.9385,-70.9222 127.253,-44.5862 158,-29 165.536,-25.1798 173.937,-22.0485 182.212,-19.5097"/>
<polygon fill="midnightblue" stroke="midnightblue" points="76.172,-85.8526 71.4356,-95.3299 81.0483,-90.8748 76.172,-85.8526"/>
</g>
<!-- Node6 -->
<g id="node6" class="node"><title>Node6</title>
<g id="a_node6"><a xlink:href="dc/d06/classsyntax_1_1_group_end_handler.html" target="_top" xlink:title="syntax.GroupEndHandler">
<polygon fill="white" stroke="black" points="337,-114.5 337,-133.5 473,-133.5 473,-114.5 337,-114.5"/>
<text text-anchor="middle" x="405" y="-121.5" font-family="Helvetica,sans-Serif" font-size="10.00">syntax.GroupEndHandler</text>
</a>
</g>
</g>
<!-- Node5&#45;&gt;Node6 -->
<g id="edge5" class="edge"><title>Node5&#45;&gt;Node6</title>
<path fill="none" stroke="midnightblue" d="M283.124,-97.7526C307.869,-103.126 336.803,-109.409 360.158,-114.48"/>
<polygon fill="midnightblue" stroke="midnightblue" points="283.675,-94.2908 273.16,-95.589 282.189,-101.131 283.675,-94.2908"/>
</g>
<!-- Node7 -->
<g id="node7" class="node"><title>Node7</title>
<g id="a_node7"><a xlink:href="d9/df4/classsyntax_1_1_group_start_handler.html" target="_top" xlink:title="syntax.GroupStartHandler">
<polygon fill="white" stroke="black" points="334,-76.5 334,-95.5 476,-95.5 476,-76.5 334,-76.5"/>
<text text-anchor="middle" x="405" y="-83.5" font-family="Helvetica,sans-Serif" font-size="10.00">syntax.GroupStartHandler</text>
</a>
</g>
</g>
<!-- Node5&#45;&gt;Node7 -->
<g id="edge6" class="edge"><title>Node5&#45;&gt;Node7</title>
<path fill="none" stroke="midnightblue" d="M297.583,-86C309.486,-86 321.88,-86 333.825,-86"/>
<polygon fill="midnightblue" stroke="midnightblue" points="297.273,-82.5001 287.272,-86 297.272,-89.5001 297.273,-82.5001"/>
</g>
<!-- Node9 -->
<g id="node9" class="node"><title>Node9</title>
<g id="a_node9"><a xlink:href="dd/d88/classsyntax_1_1_list_end_handler.html" target="_top" xlink:title="syntax.ListEndHandler">
<polygon fill="white" stroke="black" points="343.5,-38.5 343.5,-57.5 466.5,-57.5 466.5,-38.5 343.5,-38.5"/>
<text text-anchor="middle" x="405" y="-45.5" font-family="Helvetica,sans-Serif" font-size="10.00">syntax.ListEndHandler</text>
</a>
</g>
</g>
<!-- Node8&#45;&gt;Node9 -->
<g id="edge8" class="edge"><title>Node8&#45;&gt;Node9</title>
<path fill="none" stroke="midnightblue" d="M290.93,-48C307.921,-48 326.322,-48 343.246,-48"/>
<polygon fill="midnightblue" stroke="midnightblue" points="290.559,-44.5001 280.559,-48 290.559,-51.5001 290.559,-44.5001"/>
</g>
<!-- Node10 -->
<g id="node10" class="node"><title>Node10</title>
<g id="a_node10"><a xlink:href="da/def/classsyntax_1_1_list_start_handler.html" target="_top" xlink:title="syntax.ListStartHandler">
<polygon fill="white" stroke="black" points="340.5,-0.5 340.5,-19.5 469.5,-19.5 469.5,-0.5 340.5,-0.5"/>
<text text-anchor="middle" x="405" y="-7.5" font-family="Helvetica,sans-Serif" font-size="10.00">syntax.ListStartHandler</text>
</a>
</g>
</g>
<!-- Node8&#45;&gt;Node10 -->
<g id="edge9" class="edge"><title>Node8&#45;&gt;Node10</title>
<path fill="none" stroke="midnightblue" d="M283.124,-36.2474C307.869,-30.8742 336.803,-24.5914 360.158,-19.5201"/>
<polygon fill="midnightblue" stroke="midnightblue" points="282.189,-32.8686 273.16,-38.411 283.675,-39.7092 282.189,-32.8686"/>
</g>
</g>
</svg>
