<?xml version="1.0" encoding="UTF-8" standalone="no"?>
<!DOCTYPE svg PUBLIC "-//W3C//DTD SVG 1.1//EN"
 "http://www.w3.org/Graphics/SVG/1.1/DTD/svg11.dtd">
<!-- Generated by graphviz version 2.36.0 (20140111.2315)
 -->
<!-- Title: Graphical Class Hierarchy Pages: 1 -->
<svg width="316pt" height="185pt"
 viewBox="0.00 0.00 316.00 185.00" xmlns="http://www.w3.org/2000/svg" xmlns:xlink="http://www.w3.org/1999/xlink">
<g id="graph0" class="graph" transform="scale(1 1) rotate(0) translate(4 181)">
<title>Graphical Class Hierarchy</title>
<polygon fill="white" stroke="none" points="-4,4 -4,-181 312,-181 312,4 -4,4"/>
<!-- Node1 -->
<g id="node1" class="node"><title>Node1</title>
<polygon fill="white" stroke="#bfbfbf" points="0,-78.5 0,-97.5 102,-97.5 102,-78.5 0,-78.5"/>
<text text-anchor="middle" x="51" y="-85.5" font-family="Helvetica,sans-Serif" font-size="10.00">RuntimeException</text>
</g>
<!-- Node2 -->
<g id="node2" class="node"><title>Node2</title>
<g id="a_node2"><a xlink:href="d4/d45/classexceptions_1_1_incorrect_parameters_exception.html" target="_top" xlink:title="exceptions.IncorrectParameters\lException">
<polygon fill="white" stroke="black" points="138.5,-147 138.5,-177 307.5,-177 307.5,-147 138.5,-147"/>
<text text-anchor="start" x="146.5" y="-165" font-family="Helvetica,sans-Serif" font-size="10.00">exceptions.IncorrectParameters</text>
<text text-anchor="middle" x="223" y="-154" font-family="Helvetica,sans-Serif" font-size="10.00">Exception</text>
</a>
</g>
</g>
<!-- Node1&#45;&gt;Node2 -->
<g id="edge1" class="edge"><title>Node1&#45;&gt;Node2</title>
<path fill="none" stroke="midnightblue" d="M75.0156,-103.041C91.923,-113.605 115.732,-127.491 138,-137 146.536,-140.645 155.773,-143.972 164.893,-146.926"/>
<polygon fill="midnightblue" stroke="midnightblue" points="76.7046,-99.9676 66.3863,-97.5628 72.9529,-105.877 76.7046,-99.9676"/>
</g>
<!-- Node3 -->
<g id="node3" class="node"><title>Node3</title>
<g id="a_node3"><a xlink:href="d4/d92/classexceptions_1_1_invalid_command_exception.html" target="_top" xlink:title="exceptions.InvalidCommand\lException">
<polygon fill="white" stroke="black" points="147,-98 147,-128 299,-128 299,-98 147,-98"/>
<text text-anchor="start" x="155" y="-116" font-family="Helvetica,sans-Serif" font-size="10.00">exceptions.InvalidCommand</text>
<text text-anchor="middle" x="223" y="-105" font-family="Helvetica,sans-Serif" font-size="10.00">Exception</text>
</a>
</g>
</g>
<!-- Node1&#45;&gt;Node3 -->
<g id="edge2" class="edge"><title>Node1&#45;&gt;Node3</title>
<path fill="none" stroke="midnightblue" d="M112.161,-96.8472C123.351,-98.4929 135.172,-100.231 146.747,-101.933"/>
<polygon fill="midnightblue" stroke="midnightblue" points="112.489,-93.3579 102.086,-95.3656 111.47,-100.283 112.489,-93.3579"/>
</g>
<!-- Node4 -->
<g id="node4" class="node"><title>Node4</title>
<g id="a_node4"><a xlink:href="d5/d64/classexceptions_1_1_nonexistant_turtle_exception.html" target="_top" xlink:title="exceptions.NonexistantTurtle\lException">
<polygon fill="white" stroke="black" points="145.5,-49 145.5,-79 300.5,-79 300.5,-49 145.5,-49"/>
<text text-anchor="start" x="153.5" y="-67" font-family="Helvetica,sans-Serif" font-size="10.00">exceptions.NonexistantTurtle</text>
<text text-anchor="middle" x="223" y="-56" font-family="Helvetica,sans-Serif" font-size="10.00">Exception</text>
</a>
</g>
</g>
<!-- Node1&#45;&gt;Node4 -->
<g id="edge3" class="edge"><title>Node1&#45;&gt;Node4</title>
<path fill="none" stroke="midnightblue" d="M112.206,-79.5003C122.975,-77.9801 134.324,-76.3777 145.478,-74.8032"/>
<polygon fill="midnightblue" stroke="midnightblue" points="111.499,-76.0654 102.086,-80.929 112.477,-82.9967 111.499,-76.0654"/>
</g>
<!-- Node5 -->
<g id="node5" class="node"><title>Node5</title>
<g id="a_node5"><a xlink:href="d6/d22/classexceptions_1_1_unbalanced_brackets_exception.html" target="_top" xlink:title="exceptions.UnbalancedBrackets\lException">
<polygon fill="white" stroke="black" points="138,-0 138,-30 308,-30 308,-0 138,-0"/>
<text text-anchor="start" x="146" y="-18" font-family="Helvetica,sans-Serif" font-size="10.00">exceptions.UnbalancedBrackets</text>
<text text-anchor="middle" x="223" y="-7" font-family="Helvetica,sans-Serif" font-size="10.00">Exception</text>
</a>
</g>
</g>
<!-- Node1&#45;&gt;Node5 -->
<g id="edge4" class="edge"><title>Node1&#45;&gt;Node5</title>
<path fill="none" stroke="midnightblue" d="M75.3623,-73.1097C92.2702,-62.799 115.934,-49.3078 138,-40 146.552,-36.3927 155.797,-33.0851 164.921,-30.1391"/>
<polygon fill="midnightblue" stroke="midnightblue" points="73.3758,-70.223 66.7171,-78.4639 77.0616,-76.1741 73.3758,-70.223"/>
</g>
</g>
</svg>
