<?xml version="1.0" encoding="UTF-8" standalone="no"?>
<!DOCTYPE svg PUBLIC "-//W3C//DTD SVG 1.1//EN"
 "http://www.w3.org/Graphics/SVG/1.1/DTD/svg11.dtd">
<!-- Generated by graphviz version 2.36.0 (20140111.2315)
 -->
<!-- Title: commands.Tell.function Pages: 1 -->
<svg width="810pt" height="295pt"
 viewBox="0.00 0.00 810.00 295.00" xmlns="http://www.w3.org/2000/svg" xmlns:xlink="http://www.w3.org/1999/xlink">
<g id="graph0" class="graph" transform="scale(1 1) rotate(0) translate(4 291)">
<title>commands.Tell.function</title>
<polygon fill="white" stroke="none" points="-4,4 -4,-291 806,-291 806,4 -4,4"/>
<!-- Node1 -->
<g id="node1" class="node"><title>Node1</title>
<polygon fill="#bfbfbf" stroke="black" points="0.5,-87.5 0.5,-106.5 129.5,-106.5 129.5,-87.5 0.5,-87.5"/>
<text text-anchor="middle" x="65" y="-94.5" font-family="Helvetica,sans-Serif" font-size="10.00">commands.Tell.function</text>
</g>
<!-- Node2 -->
<g id="node2" class="node"><title>Node2</title>
<g id="a_node2"><a xlink:href="../../d7/d99/classtree_1_1_command_node.html#a0d6206db5d6903518833d81b5ca922da" target="_top" xlink:title="tree.CommandNode.blockTo\lDoubleList">
<polygon fill="white" stroke="black" points="171,-189 171,-219 323,-219 323,-189 171,-189"/>
<text text-anchor="start" x="179" y="-207" font-family="Helvetica,sans-Serif" font-size="10.00">tree.CommandNode.blockTo</text>
<text text-anchor="middle" x="247" y="-196" font-family="Helvetica,sans-Serif" font-size="10.00">DoubleList</text>
</a>
</g>
</g>
<!-- Node1&#45;&gt;Node2 -->
<g id="edge1" class="edge"><title>Node1&#45;&gt;Node2</title>
<path fill="none" stroke="midnightblue" d="M82.2913,-106.684C111.374,-123.972 172.807,-160.491 211.594,-183.547"/>
<polygon fill="midnightblue" stroke="midnightblue" points="210.073,-186.715 220.457,-188.816 213.65,-180.698 210.073,-186.715"/>
</g>
<!-- Node4 -->
<g id="node4" class="node"><title>Node4</title>
<g id="a_node4"><a xlink:href="../../d7/d99/classtree_1_1_command_node.html#a9f3dd4c2d2489cbbbc7e09e252a8c9a3" target="_top" xlink:title="tree.CommandNode.putObject\lInList">
<polygon fill="white" stroke="black" points="620,-120 620,-150 784,-150 784,-120 620,-120"/>
<text text-anchor="start" x="628" y="-138" font-family="Helvetica,sans-Serif" font-size="10.00">tree.CommandNode.putObject</text>
<text text-anchor="middle" x="702" y="-127" font-family="Helvetica,sans-Serif" font-size="10.00">InList</text>
</a>
</g>
</g>
<!-- Node1&#45;&gt;Node4 -->
<g id="edge10" class="edge"><title>Node1&#45;&gt;Node4</title>
<path fill="none" stroke="midnightblue" d="M108.606,-106.577C126.272,-110.16 147.033,-113.874 166,-116 321.017,-133.377 502.728,-136.135 609.502,-135.975"/>
<polygon fill="midnightblue" stroke="midnightblue" points="609.606,-139.474 619.598,-135.95 609.589,-132.474 609.606,-139.474"/>
</g>
<!-- Node9 -->
<g id="node9" class="node"><title>Node9</title>
<g id="a_node9"><a xlink:href="../../d7/d99/classtree_1_1_command_node.html#ae60b1b2f861235627eb90a0d1fa25814" target="_top" xlink:title="tree.CommandNode.getModel">
<polygon fill="white" stroke="black" points="166,-87.5 166,-106.5 328,-106.5 328,-87.5 166,-87.5"/>
<text text-anchor="middle" x="247" y="-94.5" font-family="Helvetica,sans-Serif" font-size="10.00">tree.CommandNode.getModel</text>
</a>
</g>
</g>
<!-- Node1&#45;&gt;Node9 -->
<g id="edge8" class="edge"><title>Node1&#45;&gt;Node9</title>
<path fill="none" stroke="midnightblue" d="M129.715,-97C138.147,-97 146.916,-97 155.689,-97"/>
<polygon fill="midnightblue" stroke="midnightblue" points="155.97,-100.5 165.97,-97 155.97,-93.5001 155.97,-100.5"/>
</g>
<!-- Node10 -->
<g id="node10" class="node"><title>Node10</title>
<g id="a_node10"><a xlink:href="../../dd/d17/classapplication_1_1_model.html#aa7ed87b9bf32630ff3c5b771feb6a67a" target="_top" xlink:title="application.Model.getTurtleList">
<polygon fill="white" stroke="black" points="166.5,-49.5 166.5,-68.5 327.5,-68.5 327.5,-49.5 166.5,-49.5"/>
<text text-anchor="middle" x="247" y="-56.5" font-family="Helvetica,sans-Serif" font-size="10.00">application.Model.getTurtleList</text>
</a>
</g>
</g>
<!-- Node1&#45;&gt;Node10 -->
<g id="edge9" class="edge"><title>Node1&#45;&gt;Node10</title>
<path fill="none" stroke="midnightblue" d="M111.422,-87.411C135.603,-82.3061 165.527,-75.9887 191.014,-70.6082"/>
<polygon fill="midnightblue" stroke="midnightblue" points="191.844,-74.0102 200.905,-68.5201 190.398,-67.1612 191.844,-74.0102"/>
</g>
<!-- Node11 -->
<g id="node11" class="node"><title>Node11</title>
<g id="a_node11"><a xlink:href="../../d1/deb/classapplication_1_1_turtle_list.html#a7985cb672866768c57a62a7bcc0bf982" target="_top" xlink:title="application.TurtleList.set\lActiveTurtles">
<polygon fill="white" stroke="black" points="181.5,-0 181.5,-30 312.5,-30 312.5,-0 181.5,-0"/>
<text text-anchor="start" x="189.5" y="-18" font-family="Helvetica,sans-Serif" font-size="10.00">application.TurtleList.set</text>
<text text-anchor="middle" x="247" y="-7" font-family="Helvetica,sans-Serif" font-size="10.00">ActiveTurtles</text>
</a>
</g>
</g>
<!-- Node1&#45;&gt;Node11 -->
<g id="edge11" class="edge"><title>Node1&#45;&gt;Node11</title>
<path fill="none" stroke="midnightblue" d="M80.3937,-87.4727C99.3776,-75.2214 134.117,-53.8753 166,-40 171.299,-37.6937 176.88,-35.5012 182.528,-33.4428"/>
<polygon fill="midnightblue" stroke="midnightblue" points="183.773,-36.7151 192.056,-30.1088 181.461,-30.1078 183.773,-36.7151"/>
</g>
<!-- Node3 -->
<g id="node3" class="node"><title>Node3</title>
<g id="a_node3"><a xlink:href="../../d7/d99/classtree_1_1_command_node.html#a7812a5927c35af83e5f65508fc0a0236" target="_top" xlink:title="tree.CommandNode.getRoot\lNodes">
<polygon fill="white" stroke="black" points="387.5,-164 387.5,-194 542.5,-194 542.5,-164 387.5,-164"/>
<text text-anchor="start" x="395.5" y="-182" font-family="Helvetica,sans-Serif" font-size="10.00">tree.CommandNode.getRoot</text>
<text text-anchor="middle" x="465" y="-171" font-family="Helvetica,sans-Serif" font-size="10.00">Nodes</text>
</a>
</g>
</g>
<!-- Node2&#45;&gt;Node3 -->
<g id="edge2" class="edge"><title>Node2&#45;&gt;Node3</title>
<path fill="none" stroke="midnightblue" d="M323.243,-195.291C340.545,-193.289 359.086,-191.143 376.846,-189.087"/>
<polygon fill="midnightblue" stroke="midnightblue" points="377.665,-192.516 387.197,-187.889 376.861,-185.562 377.665,-192.516"/>
</g>
<!-- Node6 -->
<g id="node6" class="node"><title>Node6</title>
<g id="a_node6"><a xlink:href="../../d7/d99/classtree_1_1_command_node.html#a69bfa124214fd3236c99901925a5f055" target="_top" xlink:title="tree.CommandNode.checkParameters">
<polygon fill="white" stroke="black" points="364.5,-262.5 364.5,-281.5 565.5,-281.5 565.5,-262.5 364.5,-262.5"/>
<text text-anchor="middle" x="465" y="-269.5" font-family="Helvetica,sans-Serif" font-size="10.00">tree.CommandNode.checkParameters</text>
</a>
</g>
</g>
<!-- Node2&#45;&gt;Node6 -->
<g id="edge5" class="edge"><title>Node2&#45;&gt;Node6</title>
<path fill="none" stroke="midnightblue" d="M279.884,-219.173C302.849,-229.608 334.804,-243.133 364,-252 374.376,-255.151 385.512,-257.94 396.449,-260.358"/>
<polygon fill="midnightblue" stroke="midnightblue" points="395.901,-263.82 406.411,-262.475 397.357,-256.973 395.901,-263.82"/>
</g>
<!-- Node8 -->
<g id="node8" class="node"><title>Node8</title>
<g id="a_node8"><a xlink:href="../../d7/d99/classtree_1_1_command_node.html#a604e1461177da85e6a8af1100f399215" target="_top" xlink:title="tree.CommandNode.generate\lClassArray">
<polygon fill="white" stroke="black" points="384.5,-213 384.5,-243 545.5,-243 545.5,-213 384.5,-213"/>
<text text-anchor="start" x="392.5" y="-231" font-family="Helvetica,sans-Serif" font-size="10.00">tree.CommandNode.generate</text>
<text text-anchor="middle" x="465" y="-220" font-family="Helvetica,sans-Serif" font-size="10.00">ClassArray</text>
</a>
</g>
</g>
<!-- Node2&#45;&gt;Node8 -->
<g id="edge7" class="edge"><title>Node2&#45;&gt;Node8</title>
<path fill="none" stroke="midnightblue" d="M323.243,-212.36C339.577,-214.175 357.015,-216.113 373.857,-217.984"/>
<polygon fill="midnightblue" stroke="midnightblue" points="373.926,-221.513 384.252,-219.139 374.699,-214.556 373.926,-221.513"/>
</g>
<!-- Node3&#45;&gt;Node4 -->
<g id="edge3" class="edge"><title>Node3&#45;&gt;Node4</title>
<path fill="none" stroke="midnightblue" d="M542.623,-164.654C564.441,-160.569 588.407,-156.081 610.946,-151.861"/>
<polygon fill="midnightblue" stroke="midnightblue" points="611.662,-155.288 620.847,-150.007 610.374,-148.408 611.662,-155.288"/>
</g>
<!-- Node5 -->
<g id="node5" class="node"><title>Node5</title>
<g id="a_node5"><a xlink:href="../../da/d49/classtree_1_1_tree_node.html#ae2e063fcfef13edf72b6b513c5369a4f" target="_top" xlink:title="tree.TreeNode.evaluate">
<polygon fill="white" stroke="black" points="638,-169.5 638,-188.5 766,-188.5 766,-169.5 638,-169.5"/>
<text text-anchor="middle" x="702" y="-176.5" font-family="Helvetica,sans-Serif" font-size="10.00">tree.TreeNode.evaluate</text>
</a>
</g>
</g>
<!-- Node3&#45;&gt;Node5 -->
<g id="edge4" class="edge"><title>Node3&#45;&gt;Node5</title>
<path fill="none" stroke="midnightblue" d="M542.623,-179C569.939,-179 600.623,-179 627.657,-179"/>
<polygon fill="midnightblue" stroke="midnightblue" points="627.825,-182.5 637.825,-179 627.825,-175.5 627.825,-182.5"/>
</g>
<!-- Node7 -->
<g id="node7" class="node"><title>Node7</title>
<g id="a_node7"><a xlink:href="../../d7/d99/classtree_1_1_command_node.html#a217a1626d7815f8121a2224ddf7af40f" target="_top" xlink:title="tree.CommandNode.throwParameters\lException">
<polygon fill="white" stroke="black" points="602,-257 602,-287 802,-287 802,-257 602,-257"/>
<text text-anchor="start" x="610" y="-275" font-family="Helvetica,sans-Serif" font-size="10.00">tree.CommandNode.throwParameters</text>
<text text-anchor="middle" x="702" y="-264" font-family="Helvetica,sans-Serif" font-size="10.00">Exception</text>
</a>
</g>
</g>
<!-- Node6&#45;&gt;Node7 -->
<g id="edge6" class="edge"><title>Node6&#45;&gt;Node7</title>
<path fill="none" stroke="midnightblue" d="M565.661,-272C574.293,-272 583.056,-272 591.758,-272"/>
<polygon fill="midnightblue" stroke="midnightblue" points="591.935,-275.5 601.935,-272 591.935,-268.5 591.935,-275.5"/>
</g>
<!-- Node12 -->
<g id="node12" class="node"><title>Node12</title>
<g id="a_node12"><a xlink:href="../../d1/deb/classapplication_1_1_turtle_list.html#af27f8b0841584fce770bdcb77a2c092c" target="_top" xlink:title="application.TurtleList.add\lTurtle">
<polygon fill="white" stroke="black" points="398,-0 398,-30 532,-30 532,-0 398,-0"/>
<text text-anchor="start" x="406" y="-18" font-family="Helvetica,sans-Serif" font-size="10.00">application.TurtleList.add</text>
<text text-anchor="middle" x="465" y="-7" font-family="Helvetica,sans-Serif" font-size="10.00">Turtle</text>
</a>
</g>
</g>
<!-- Node11&#45;&gt;Node12 -->
<g id="edge12" class="edge"><title>Node11&#45;&gt;Node12</title>
<path fill="none" stroke="midnightblue" d="M312.515,-15C336.224,-15 363.289,-15 387.921,-15"/>
<polygon fill="midnightblue" stroke="midnightblue" points="387.949,-18.5001 397.949,-15 387.949,-11.5001 387.949,-18.5001"/>
</g>
</g>
</svg>
