<?xml version="1.0" encoding="UTF-8" standalone="no"?>
<!DOCTYPE svg PUBLIC "-//W3C//DTD SVG 1.1//EN"
 "http://www.w3.org/Graphics/SVG/1.1/DTD/svg11.dtd">
<!-- Generated by graphviz version 2.36.0 (20140111.2315)
 -->
<!-- Title: syntax.ListHandler Pages: 1 -->
<svg width="277pt" height="140pt"
 viewBox="0.00 0.00 277.00 140.00" xmlns="http://www.w3.org/2000/svg" xmlns:xlink="http://www.w3.org/1999/xlink">
<g id="graph0" class="graph" transform="scale(1 1) rotate(0) translate(4 136)">
<title>syntax.ListHandler</title>
<polygon fill="white" stroke="none" points="-4,4 -4,-136 273,-136 273,4 -4,4"/>
<!-- Node1 -->
<g id="node1" class="node"><title>Node1</title>
<polygon fill="#bfbfbf" stroke="black" points="80.5,-56.5 80.5,-75.5 185.5,-75.5 185.5,-56.5 80.5,-56.5"/>
<text text-anchor="middle" x="133" y="-63.5" font-family="Helvetica,sans-Serif" font-size="10.00">syntax.ListHandler</text>
</g>
<!-- Node3 -->
<g id="node3" class="node"><title>Node3</title>
<g id="a_node3"><a xlink:href="../../dd/d88/classsyntax_1_1_list_end_handler.html" target="_top" xlink:title="syntax.ListEndHandler">
<polygon fill="white" stroke="black" points="-0.5,-0.5 -0.5,-19.5 122.5,-19.5 122.5,-0.5 -0.5,-0.5"/>
<text text-anchor="middle" x="61" y="-7.5" font-family="Helvetica,sans-Serif" font-size="10.00">syntax.ListEndHandler</text>
</a>
</g>
</g>
<!-- Node1&#45;&gt;Node3 -->
<g id="edge2" class="edge"><title>Node1&#45;&gt;Node3</title>
<path fill="none" stroke="midnightblue" d="M113.134,-50.1008C100.177,-40.3824 83.7026,-28.0269 72.7785,-19.8339"/>
<polygon fill="midnightblue" stroke="midnightblue" points="111.332,-53.1239 121.432,-56.324 115.532,-47.5239 111.332,-53.1239"/>
</g>
<!-- Node4 -->
<g id="node4" class="node"><title>Node4</title>
<g id="a_node4"><a xlink:href="../../da/def/classsyntax_1_1_list_start_handler.html" target="_top" xlink:title="syntax.ListStartHandler">
<polygon fill="white" stroke="black" points="140.5,-0.5 140.5,-19.5 269.5,-19.5 269.5,-0.5 140.5,-0.5"/>
<text text-anchor="middle" x="205" y="-7.5" font-family="Helvetica,sans-Serif" font-size="10.00">syntax.ListStartHandler</text>
</a>
</g>
</g>
<!-- Node1&#45;&gt;Node4 -->
<g id="edge3" class="edge"><title>Node1&#45;&gt;Node4</title>
<path fill="none" stroke="midnightblue" d="M152.866,-50.1008C165.823,-40.3824 182.297,-28.0269 193.221,-19.8339"/>
<polygon fill="midnightblue" stroke="midnightblue" points="150.468,-47.5239 144.568,-56.324 154.668,-53.1239 150.468,-47.5239"/>
</g>
<!-- Node2 -->
<g id="node2" class="node"><title>Node2</title>
<g id="a_node2"><a xlink:href="../../d0/d2d/classsyntax_1_1_syntax_handler.html" target="_top" xlink:title="syntax.SyntaxHandler">
<polygon fill="white" stroke="black" points="72,-112.5 72,-131.5 194,-131.5 194,-112.5 72,-112.5"/>
<text text-anchor="middle" x="133" y="-119.5" font-family="Helvetica,sans-Serif" font-size="10.00">syntax.SyntaxHandler</text>
</a>
</g>
</g>
<!-- Node2&#45;&gt;Node1 -->
<g id="edge1" class="edge"><title>Node2&#45;&gt;Node1</title>
<path fill="none" stroke="midnightblue" d="M133,-101.805C133,-92.9102 133,-82.7798 133,-75.7511"/>
<polygon fill="midnightblue" stroke="midnightblue" points="129.5,-102.083 133,-112.083 136.5,-102.083 129.5,-102.083"/>
</g>
</g>
</svg>
