<?xml version="1.0" encoding="UTF-8" standalone="no"?>
<!DOCTYPE svg PUBLIC "-//W3C//DTD SVG 1.1//EN"
 "http://www.w3.org/Graphics/SVG/1.1/DTD/svg11.dtd">
<!-- Generated by graphviz version 2.36.0 (20140111.2315)
 -->
<!-- Title: syntax.ListEndHandler.handle Pages: 1 -->
<svg width="342pt" height="87pt"
 viewBox="0.00 0.00 342.00 87.00" xmlns="http://www.w3.org/2000/svg" xmlns:xlink="http://www.w3.org/1999/xlink">
<g id="graph0" class="graph" transform="scale(1 1) rotate(0) translate(4 83)">
<title>syntax.ListEndHandler.handle</title>
<polygon fill="white" stroke="none" points="-4,4 -4,-83 338,-83 338,4 -4,4"/>
<!-- Node1 -->
<g id="node1" class="node"><title>Node1</title>
<polygon fill="#bfbfbf" stroke="black" points="0,-29.5 0,-48.5 158,-48.5 158,-29.5 0,-29.5"/>
<text text-anchor="middle" x="79" y="-36.5" font-family="Helvetica,sans-Serif" font-size="10.00">syntax.ListEndHandler.handle</text>
</g>
<!-- Node2 -->
<g id="node2" class="node"><title>Node2</title>
<g id="a_node2"><a xlink:href="../../d1/de6/classsyntax_1_1_list_handler.html#accf3ac0447c7f0561113a3c8b0deb919" target="_top" xlink:title="syntax.ListHandler.getList\lDepthCount">
<polygon fill="white" stroke="black" points="194,-49 194,-79 334,-79 334,-49 194,-49"/>
<text text-anchor="start" x="202" y="-67" font-family="Helvetica,sans-Serif" font-size="10.00">syntax.ListHandler.getList</text>
<text text-anchor="middle" x="264" y="-56" font-family="Helvetica,sans-Serif" font-size="10.00">DepthCount</text>
</a>
</g>
</g>
<!-- Node1&#45;&gt;Node2 -->
<g id="edge1" class="edge"><title>Node1&#45;&gt;Node2</title>
<path fill="none" stroke="midnightblue" d="M149.706,-48.5227C160.878,-50.0489 172.51,-51.638 183.882,-53.1915"/>
<polygon fill="midnightblue" stroke="midnightblue" points="183.408,-56.6592 193.79,-54.5451 184.356,-49.7237 183.408,-56.6592"/>
</g>
<!-- Node3 -->
<g id="node3" class="node"><title>Node3</title>
<g id="a_node3"><a xlink:href="../../d1/de6/classsyntax_1_1_list_handler.html#a3017e49f48d22937cd27dd4d8dfd2bbc" target="_top" xlink:title="syntax.ListHandler.setList\lDepthCount">
<polygon fill="white" stroke="black" points="194.5,-0 194.5,-30 333.5,-30 333.5,-0 194.5,-0"/>
<text text-anchor="start" x="202.5" y="-18" font-family="Helvetica,sans-Serif" font-size="10.00">syntax.ListHandler.setList</text>
<text text-anchor="middle" x="264" y="-7" font-family="Helvetica,sans-Serif" font-size="10.00">DepthCount</text>
</a>
</g>
</g>
<!-- Node1&#45;&gt;Node3 -->
<g id="edge2" class="edge"><title>Node1&#45;&gt;Node3</title>
<path fill="none" stroke="midnightblue" d="M152.589,-29.4801C163.025,-28.1115 173.804,-26.6978 184.351,-25.3147"/>
<polygon fill="midnightblue" stroke="midnightblue" points="184.913,-28.771 194.373,-24.0003 184.002,-21.8305 184.913,-28.771"/>
</g>
</g>
</svg>
