<?xml version="1.0" encoding="UTF-8" standalone="no"?>
<!DOCTYPE svg PUBLIC "-//W3C//DTD SVG 1.1//EN"
 "http://www.w3.org/Graphics/SVG/1.1/DTD/svg11.dtd">
<!-- Generated by graphviz version 2.36.0 (20140111.2315)
 -->
<!-- Title: view.ColorChooser Pages: 1 -->
<!--zoomable 268 -->
<svg id="main" version="1.1" xmlns="http://www.w3.org/2000/svg" xmlns:xlink="http://www.w3.org/1999/xlink" xml:space="preserve" onload="init(evt)">
<style type="text/css"><![CDATA[
.edge:hover path { stroke: red; }
.edge:hover polygon { stroke: red; fill: red; }
]]></style>
<script type="text/javascript"><![CDATA[
var edges = document.getElementsByTagName('g');
if (edges && edges.length) {
  for (var i=0;i<edges.length;i++) {
    if (edges[i].id.substr(0,4)=='edge') {
      edges[i].setAttribute('class','edge');
    }
  }
}
]]></script>
        <defs>
                <circle id="rim" cx="0" cy="0" r="7"/>
                <circle id="rim2" cx="0" cy="0" r="3.5"/>
                <g id="zoomPlus">
                        <use xlink:href="#rim" fill="#404040">
                                <set attributeName="fill" to="#808080" begin="zoomplus.mouseover" end="zoomplus.mouseout"/>
                        </use>
                        <path d="M-4,0h8M0,-4v8" fill="none" stroke="white" stroke-width="1.5" pointer-events="none"/>
                </g>
                <g id="zoomMin">
                        <use xlink:href="#rim" fill="#404040">
                                <set attributeName="fill" to="#808080" begin="zoomminus.mouseover" end="zoomminus.mouseout"/>
                        </use>
                        <path d="M-4,0h8" fill="none" stroke="white" stroke-width="1.5" pointer-events="none"/>
                </g>
                <g id="dirArrow">
                        <path fill="none" stroke="white" stroke-width="1.5" d="M0,-3.0v7 M-2.5,-0.5L0,-3.0L2.5,-0.5"/>
                </g>
               <g id="resetDef">
                       <use xlink:href="#rim2" fill="#404040">
                               <set attributeName="fill" to="#808080" begin="reset.mouseover" end="reset.mouseout"/>
                       </use>
               </g>
        </defs>

<script type="text/javascript">
var viewWidth = 788;
var viewHeight = 268;
var sectionId = 'dynsection-0';
</script>
<script xlink:href="../../svgpan.js"/>
<svg id="graph" class="graph">
<g id="viewport">
<title>view.ColorChooser</title>
<polygon fill="white" stroke="none" points="-4,4 -4,-264 784,-264 784,4 -4,4"/>
<!-- Node1 -->
<g id="node1" class="node"><title>Node1</title>
<polygon fill="#bfbfbf" stroke="black" points="627,-0.5 627,-19.5 731,-19.5 731,-0.5 627,-0.5"/>
<text text-anchor="middle" x="679" y="-7.5" font-family="Helvetica,sans-Serif" font-size="10.00">view.ColorChooser</text>
</g>
<!-- Node2 -->
<g id="node2" class="node"><title>Node2</title>
<g id="a_node2"><a xlink:href="../../d1/d1a/classview_1_1_display.html" target="_top" xlink:title="view.Display">
<polygon fill="white" stroke="black" points="524,-69.5 524,-88.5 598,-88.5 598,-69.5 524,-69.5"/>
<text text-anchor="middle" x="561" y="-76.5" font-family="Helvetica,sans-Serif" font-size="10.00">view.Display</text>
</a>
</g>
</g>
<!-- Node2&#45;&gt;Node1 -->
<g id="edge1" class="edge"><title>Node2&#45;&gt;Node1</title>
<path fill="none" stroke="#9a32cd" stroke-dasharray="5,2" d="M585.162,-64.2812C608.798,-50.8607 644.056,-30.8408 663.943,-19.5494"/>
<polygon fill="#9a32cd" stroke="#9a32cd" points="583.394,-61.2597 576.426,-69.2409 586.851,-67.3469 583.394,-61.2597"/>
<text text-anchor="middle" x="642.5" y="-41.5" font-family="Helvetica,sans-Serif" font-size="10.00"> disp</text>
</g>
<!-- Node3 -->
<g id="node3" class="node"><title>Node3</title>
<g id="a_node3"><a xlink:href="../../d1/d31/classapplication_1_1_turtle.html" target="_top" xlink:title="application.Turtle">
<polygon fill="white" stroke="black" points="178.5,-144.5 178.5,-163.5 275.5,-163.5 275.5,-144.5 178.5,-144.5"/>
<text text-anchor="middle" x="227" y="-151.5" font-family="Helvetica,sans-Serif" font-size="10.00">application.Turtle</text>
</a>
</g>
</g>
<!-- Node3&#45;&gt;Node2 -->
<g id="edge2" class="edge"><title>Node3&#45;&gt;Node2</title>
<path fill="none" stroke="#9a32cd" stroke-dasharray="5,2" d="M254.887,-140.458C278.845,-130.193 314.554,-116.093 347,-108 407.896,-92.8112 480.718,-85.5114 523.79,-82.2796"/>
<polygon fill="#9a32cd" stroke="#9a32cd" points="253.468,-137.259 245.693,-144.457 256.26,-143.678 253.468,-137.259"/>
<text text-anchor="middle" x="369" y="-111.5" font-family="Helvetica,sans-Serif" font-size="10.00"> myTurtle</text>
</g>
<!-- Node4 -->
<g id="node4" class="node"><title>Node4</title>
<polygon fill="white" stroke="#bfbfbf" points="-0.5,-240.5 -0.5,-259.5 90.5,-259.5 90.5,-240.5 -0.5,-240.5"/>
<text text-anchor="middle" x="45" y="-247.5" font-family="Helvetica,sans-Serif" font-size="10.00">DoubleProperty</text>
</g>
<!-- Node4&#45;&gt;Node3 -->
<g id="edge3" class="edge"><title>Node4&#45;&gt;Node3</title>
<path fill="none" stroke="#9a32cd" stroke-dasharray="5,2" d="M63.0592,-234.085C80.0266,-220.635 106.548,-201.022 132,-188 152.207,-177.662 176.389,-169.313 195.298,-163.6"/>
<polygon fill="#9a32cd" stroke="#9a32cd" points="60.7029,-231.488 55.1135,-240.489 65.0958,-236.939 60.7029,-231.488"/>
<text text-anchor="middle" x="153" y="-208" font-family="Helvetica,sans-Serif" font-size="10.00"> heading</text>
<text text-anchor="middle" x="153" y="-197" font-family="Helvetica,sans-Serif" font-size="10.00">shape</text>
</g>
<!-- Node5 -->
<g id="node5" class="node"><title>Node5</title>
<polygon fill="white" stroke="#bfbfbf" points="109,-240.5 109,-259.5 205,-259.5 205,-240.5 109,-240.5"/>
<text text-anchor="middle" x="157" y="-247.5" font-family="Helvetica,sans-Serif" font-size="10.00">BooleanProperty</text>
</g>
<!-- Node5&#45;&gt;Node3 -->
<g id="edge4" class="edge"><title>Node5&#45;&gt;Node3</title>
<path fill="none" stroke="#9a32cd" stroke-dasharray="5,2" d="M169.598,-232.083C184.579,-211.966 209.003,-179.167 220.556,-163.654"/>
<polygon fill="#9a32cd" stroke="#9a32cd" points="166.626,-230.214 163.46,-240.325 172.24,-234.395 166.626,-230.214"/>
<text text-anchor="middle" x="225.5" y="-213.5" font-family="Helvetica,sans-Serif" font-size="10.00"> showing</text>
<text text-anchor="middle" x="225.5" y="-202.5" font-family="Helvetica,sans-Serif" font-size="10.00">penDown</text>
<text text-anchor="middle" x="225.5" y="-191.5" font-family="Helvetica,sans-Serif" font-size="10.00">stamp</text>
</g>
<!-- Node6 -->
<g id="node6" class="node"><title>Node6</title>
<polygon fill="white" stroke="#bfbfbf" points="223.5,-240.5 223.5,-259.5 370.5,-259.5 370.5,-240.5 223.5,-240.5"/>
<text text-anchor="middle" x="297" y="-247.5" font-family="Helvetica,sans-Serif" font-size="10.00">ObjectProperty&lt; double[]&gt;</text>
</g>
<!-- Node6&#45;&gt;Node3 -->
<g id="edge5" class="edge"><title>Node6&#45;&gt;Node3</title>
<path fill="none" stroke="#9a32cd" stroke-dasharray="5,2" d="M284.498,-231.932C275.5,-219.677 263.051,-202.783 252,-188 245.803,-179.71 238.667,-170.305 233.61,-163.662"/>
<polygon fill="#9a32cd" stroke="#9a32cd" points="281.89,-234.293 290.626,-240.287 287.534,-230.153 281.89,-234.293"/>
<text text-anchor="middle" x="297.5" y="-202.5" font-family="Helvetica,sans-Serif" font-size="10.00"> location</text>
</g>
<!-- Node7 -->
<g id="node7" class="node"><title>Node7</title>
<polygon fill="white" stroke="#bfbfbf" points="389,-240.5 389,-259.5 525,-259.5 525,-240.5 389,-240.5"/>
<text text-anchor="middle" x="457" y="-247.5" font-family="Helvetica,sans-Serif" font-size="10.00">ObjectProperty&lt; Node &gt;</text>
</g>
<!-- Node7&#45;&gt;Node3 -->
<g id="edge6" class="edge"><title>Node7&#45;&gt;Node3</title>
<path fill="none" stroke="#9a32cd" stroke-dasharray="5,2" d="M430.118,-235.988C403.091,-223.113 360.087,-203.184 322,-188 299.294,-178.948 273.011,-169.927 253.854,-163.611"/>
<polygon fill="#9a32cd" stroke="#9a32cd" points="428.783,-239.23 439.313,-240.391 431.805,-232.916 428.783,-239.23"/>
<text text-anchor="middle" x="414" y="-202.5" font-family="Helvetica,sans-Serif" font-size="10.00"> node</text>
</g>
<!-- Node8 -->
<g id="node8" class="node"><title>Node8</title>
<polygon fill="white" stroke="#bfbfbf" points="294,-144.5 294,-163.5 362,-163.5 362,-144.5 294,-144.5"/>
<text text-anchor="middle" x="328" y="-151.5" font-family="Helvetica,sans-Serif" font-size="10.00">ImageView</text>
</g>
<!-- Node8&#45;&gt;Node2 -->
<g id="edge7" class="edge"><title>Node8&#45;&gt;Node2</title>
<path fill="none" stroke="#9a32cd" stroke-dasharray="5,2" d="M352.372,-139.603C371.392,-129.639 398.739,-116.37 424,-108 456.953,-97.0807 495.839,-89.6236 523.748,-85.1678"/>
<polygon fill="#9a32cd" stroke="#9a32cd" points="350.676,-136.541 343.495,-144.331 353.967,-142.719 350.676,-136.541"/>
<text text-anchor="middle" x="453.5" y="-111.5" font-family="Helvetica,sans-Serif" font-size="10.00"> turtleImage</text>
</g>
<!-- Node9 -->
<g id="node9" class="node"><title>Node9</title>
<polygon fill="white" stroke="#bfbfbf" points="380.5,-139 380.5,-169 511.5,-169 511.5,-139 380.5,-139"/>
<text text-anchor="start" x="388.5" y="-157" font-family="Helvetica,sans-Serif" font-size="10.00">Map&lt; application.Turtle,</text>
<text text-anchor="middle" x="446" y="-146" font-family="Helvetica,sans-Serif" font-size="10.00"> ImageView &gt;</text>
</g>
<!-- Node9&#45;&gt;Node2 -->
<g id="edge8" class="edge"><title>Node9&#45;&gt;Node2</title>
<path fill="none" stroke="#9a32cd" stroke-dasharray="5,2" d="M470.036,-132.114C479.895,-124.064 491.643,-115.105 503,-108 514.944,-100.528 529.181,-93.6283 540.56,-88.5476"/>
<polygon fill="#9a32cd" stroke="#9a32cd" points="467.692,-129.511 462.249,-138.601 472.173,-134.889 467.692,-129.511"/>
<text text-anchor="middle" x="530" y="-111.5" font-family="Helvetica,sans-Serif" font-size="10.00"> imageMap</text>
</g>
<!-- Node10 -->
<g id="node10" class="node"><title>Node10</title>
<polygon fill="white" stroke="#bfbfbf" points="529.5,-144.5 529.5,-163.5 592.5,-163.5 592.5,-144.5 529.5,-144.5"/>
<text text-anchor="middle" x="561" y="-151.5" font-family="Helvetica,sans-Serif" font-size="10.00">Rectangle</text>
</g>
<!-- Node10&#45;&gt;Node2 -->
<g id="edge9" class="edge"><title>Node10&#45;&gt;Node2</title>
<path fill="none" stroke="#9a32cd" stroke-dasharray="5,2" d="M561,-134.328C561,-119.637 561,-99.8394 561,-88.6495"/>
<polygon fill="#9a32cd" stroke="#9a32cd" points="557.5,-134.339 561,-144.339 564.5,-134.339 557.5,-134.339"/>
<text text-anchor="middle" x="575" y="-111.5" font-family="Helvetica,sans-Serif" font-size="10.00"> initial</text>
</g>
<!-- Node11 -->
<g id="node11" class="node"><title>Node11</title>
<polygon fill="white" stroke="#bfbfbf" points="611,-144.5 611,-163.5 657,-163.5 657,-144.5 611,-144.5"/>
<text text-anchor="middle" x="634" y="-151.5" font-family="Helvetica,sans-Serif" font-size="10.00">Group</text>
</g>
<!-- Node11&#45;&gt;Node2 -->
<g id="edge10" class="edge"><title>Node11&#45;&gt;Node2</title>
<path fill="none" stroke="#9a32cd" stroke-dasharray="5,2" d="M618.641,-137.07C610.24,-128.412 599.613,-117.553 590,-108 583.348,-101.39 575.714,-94.0279 569.949,-88.5125"/>
<polygon fill="#9a32cd" stroke="#9a32cd" points="616.169,-139.548 625.638,-144.301 621.199,-134.68 616.169,-139.548"/>
<text text-anchor="middle" x="612.5" y="-111.5" font-family="Helvetica,sans-Serif" font-size="10.00"> root</text>
</g>
<!-- Node12 -->
<g id="node12" class="node"><title>Node12</title>
<polygon fill="white" stroke="#bfbfbf" points="686.5,-144.5 686.5,-163.5 727.5,-163.5 727.5,-144.5 686.5,-144.5"/>
<text text-anchor="middle" x="707" y="-151.5" font-family="Helvetica,sans-Serif" font-size="10.00">Color</text>
</g>
<!-- Node12&#45;&gt;Node1 -->
<g id="edge12" class="edge"><title>Node12&#45;&gt;Node1</title>
<path fill="none" stroke="#9a32cd" stroke-dasharray="5,2" d="M704.871,-134.136C703.859,-126.06 702.535,-116.542 701,-108 695.075,-75.0282 685.496,-36.3241 681.204,-19.5108"/>
<polygon fill="#9a32cd" stroke="#9a32cd" points="701.427,-134.819 706.081,-144.337 708.378,-133.994 701.427,-134.819"/>
<text text-anchor="middle" x="739" y="-82" font-family="Helvetica,sans-Serif" font-size="10.00"> penColor</text>
<text text-anchor="middle" x="739" y="-71" font-family="Helvetica,sans-Serif" font-size="10.00">backgroundColor</text>
</g>
<!-- Node12&#45;&gt;Node2 -->
<g id="edge11" class="edge"><title>Node12&#45;&gt;Node2</title>
<path fill="none" stroke="#9a32cd" stroke-dasharray="5,2" d="M684.117,-138.979C668.556,-129.691 647.356,-117.513 628,-108 613.405,-100.827 596.506,-93.7728 583.331,-88.5396"/>
<polygon fill="#9a32cd" stroke="#9a32cd" points="682.639,-142.175 693.01,-144.339 686.252,-136.179 682.639,-142.175"/>
<text text-anchor="middle" x="674" y="-111.5" font-family="Helvetica,sans-Serif" font-size="10.00"> penColor</text>
</g>
</g>
</svg>
        <g id="navigator" transform="translate(0 0)" fill="#404254">
                <rect fill="#f2f5e9" fill-opacity="0.5" stroke="#606060" stroke-width=".5" x="0" y="0" width="60" height="60"/>
                <use id="zoomplus" xlink:href="#zoomPlus" x="17" y="9" onmousedown="handleZoom(evt,'in')"/>
                <use id="zoomminus" xlink:href="#zoomMin" x="42" y="9" onmousedown="handleZoom(evt,'out')"/>
                <use id="reset" xlink:href="#resetDef" x="30" y="36" onmousedown="handleReset()"/>
                <g id="arrowUp" xlink:href="#dirArrow" transform="translate(30 24)" onmousedown="handlePan(0,-1)">
                  <use xlink:href="#rim" fill="#404040">
                        <set attributeName="fill" to="#808080" begin="arrowUp.mouseover" end="arrowUp.mouseout"/>
                  </use>
                  <path fill="none" stroke="white" stroke-width="1.5" d="M0,-3.0v7 M-2.5,-0.5L0,-3.0L2.5,-0.5"/>
                </g>
                <g id="arrowRight" xlink:href="#dirArrow" transform="rotate(90) translate(36 -43)" onmousedown="handlePan(1,0)">
                  <use xlink:href="#rim" fill="#404040">
                        <set attributeName="fill" to="#808080" begin="arrowRight.mouseover" end="arrowRight.mouseout"/>
                  </use>
                  <path fill="none" stroke="white" stroke-width="1.5" d="M0,-3.0v7 M-2.5,-0.5L0,-3.0L2.5,-0.5"/>
                </g>
                <g id="arrowDown" xlink:href="#dirArrow" transform="rotate(180) translate(-30 -48)" onmousedown="handlePan(0,1)">
                  <use xlink:href="#rim" fill="#404040">
                        <set attributeName="fill" to="#808080" begin="arrowDown.mouseover" end="arrowDown.mouseout"/>
                  </use>
                  <path fill="none" stroke="white" stroke-width="1.5" d="M0,-3.0v7 M-2.5,-0.5L0,-3.0L2.5,-0.5"/>
                </g>
                <g id="arrowLeft" xlink:href="#dirArrow" transform="rotate(270) translate(-36 17)" onmousedown="handlePan(-1,0)">
                  <use xlink:href="#rim" fill="#404040">
                        <set attributeName="fill" to="#808080" begin="arrowLeft.mouseover" end="arrowLeft.mouseout"/>
                  </use>
                  <path fill="none" stroke="white" stroke-width="1.5" d="M0,-3.0v7 M-2.5,-0.5L0,-3.0L2.5,-0.5"/>
                </g>
        </g>
        <svg viewBox="0 0 15 15" width="100%" height="30px" preserveAspectRatio="xMaxYMin meet">
         <g id="arrow_out" transform="scale(0.3 0.3)">
          <a xlink:href="classview_1_1_color_chooser__coll__graph_org.svg" target="_base">
           <rect id="button" ry="5" rx="5" y="6" x="6" height="38" width="38"
                fill="#f2f5e9" fill-opacity="0.5" stroke="#606060" stroke-width="1.0"/>
           <path id="arrow"
             d="M 11.500037,31.436501 C 11.940474,20.09759 22.043105,11.32322 32.158766,21.979434 L 37.068811,17.246167 C 37.068811,17.246167 37.088388,32 37.088388,32 L 22.160133,31.978069 C 22.160133,31.978069 26.997745,27.140456 26.997745,27.140456 C 18.528582,18.264221 13.291696,25.230495 11.500037,31.436501 z"
             style="fill:#404040;"/>
          </a>
         </g>
        </svg>
</svg>
