<?xml version="1.0" encoding="UTF-8" standalone="no"?>
<!DOCTYPE svg PUBLIC "-//W3C//DTD SVG 1.1//EN"
 "http://www.w3.org/Graphics/SVG/1.1/DTD/svg11.dtd">
<!-- Generated by graphviz version 2.36.0 (20140111.2315)
 -->
<!-- Title: commands.SetBackground.function Pages: 1 -->
<svg width="396pt" height="126pt"
 viewBox="0.00 0.00 396.00 126.00" xmlns="http://www.w3.org/2000/svg" xmlns:xlink="http://www.w3.org/1999/xlink">
<g id="graph0" class="graph" transform="scale(1 1) rotate(0) translate(4 122)">
<title>commands.SetBackground.function</title>
<polygon fill="white" stroke="none" points="-4,4 -4,-122 392,-122 392,4 -4,4"/>
<!-- Node1 -->
<g id="node1" class="node"><title>Node1</title>
<polygon fill="#bfbfbf" stroke="black" points="0,-49.5 0,-68.5 188,-68.5 188,-49.5 0,-49.5"/>
<text text-anchor="middle" x="94" y="-56.5" font-family="Helvetica,sans-Serif" font-size="10.00">commands.SetBackground.function</text>
</g>
<!-- Node2 -->
<g id="node2" class="node"><title>Node2</title>
<g id="a_node2"><a xlink:href="../../dd/d17/classapplication_1_1_model.html#aa8b0b73eaf7a90d7cf114b7f72fa12ec" target="_top" xlink:title="application.Model.background\lProperty">
<polygon fill="white" stroke="black" points="226.5,-88 226.5,-118 385.5,-118 385.5,-88 226.5,-88"/>
<text text-anchor="start" x="234.5" y="-106" font-family="Helvetica,sans-Serif" font-size="10.00">application.Model.background</text>
<text text-anchor="middle" x="306" y="-95" font-family="Helvetica,sans-Serif" font-size="10.00">Property</text>
</a>
</g>
</g>
<!-- Node1&#45;&gt;Node2 -->
<g id="edge1" class="edge"><title>Node1&#45;&gt;Node2</title>
<path fill="none" stroke="midnightblue" d="M140.567,-68.5473C164.738,-73.6118 195.175,-79.989 223.271,-85.8758"/>
<polygon fill="midnightblue" stroke="midnightblue" points="222.592,-89.3095 233.097,-87.9346 224.027,-82.4582 222.592,-89.3095"/>
</g>
<!-- Node3 -->
<g id="node3" class="node"><title>Node3</title>
<g id="a_node3"><a xlink:href="../../d7/d99/classtree_1_1_command_node.html#ae60b1b2f861235627eb90a0d1fa25814" target="_top" xlink:title="tree.CommandNode.getModel">
<polygon fill="white" stroke="black" points="225,-49.5 225,-68.5 387,-68.5 387,-49.5 225,-49.5"/>
<text text-anchor="middle" x="306" y="-56.5" font-family="Helvetica,sans-Serif" font-size="10.00">tree.CommandNode.getModel</text>
</a>
</g>
</g>
<!-- Node1&#45;&gt;Node3 -->
<g id="edge2" class="edge"><title>Node1&#45;&gt;Node3</title>
<path fill="none" stroke="midnightblue" d="M188.026,-59C196.858,-59 205.804,-59 214.61,-59"/>
<polygon fill="midnightblue" stroke="midnightblue" points="214.868,-62.5001 224.868,-59 214.868,-55.5001 214.868,-62.5001"/>
</g>
<!-- Node4 -->
<g id="node4" class="node"><title>Node4</title>
<g id="a_node4"><a xlink:href="../../d7/d99/classtree_1_1_command_node.html#a9f3dd4c2d2489cbbbc7e09e252a8c9a3" target="_top" xlink:title="tree.CommandNode.putObject\lInList">
<polygon fill="white" stroke="black" points="224,-0 224,-30 388,-30 388,-0 224,-0"/>
<text text-anchor="start" x="232" y="-18" font-family="Helvetica,sans-Serif" font-size="10.00">tree.CommandNode.putObject</text>
<text text-anchor="middle" x="306" y="-7" font-family="Helvetica,sans-Serif" font-size="10.00">InList</text>
</a>
</g>
</g>
<!-- Node1&#45;&gt;Node4 -->
<g id="edge3" class="edge"><title>Node1&#45;&gt;Node4</title>
<path fill="none" stroke="midnightblue" d="M140.567,-49.4527C164.738,-44.3882 195.175,-38.011 223.271,-32.1242"/>
<polygon fill="midnightblue" stroke="midnightblue" points="224.027,-35.5418 233.097,-30.0654 222.592,-28.6905 224.027,-35.5418"/>
</g>
</g>
</svg>
