<?xml version="1.0" encoding="UTF-8" standalone="no"?>
<!DOCTYPE svg PUBLIC "-//W3C//DTD SVG 1.1//EN"
 "http://www.w3.org/Graphics/SVG/1.1/DTD/svg11.dtd">
<!-- Generated by graphviz version 2.36.0 (20140111.2315)
 -->
<!-- Title: syntax.CommandHandler.handle Pages: 1 -->
<svg width="608pt" height="87pt"
 viewBox="0.00 0.00 608.00 87.00" xmlns="http://www.w3.org/2000/svg" xmlns:xlink="http://www.w3.org/1999/xlink">
<g id="graph0" class="graph" transform="scale(1 1) rotate(0) translate(4 83)">
<title>syntax.CommandHandler.handle</title>
<polygon fill="white" stroke="none" points="-4,4 -4,-83 604,-83 604,4 -4,4"/>
<!-- Node1 -->
<g id="node1" class="node"><title>Node1</title>
<polygon fill="#bfbfbf" stroke="black" points="0.5,-29.5 0.5,-48.5 173.5,-48.5 173.5,-29.5 0.5,-29.5"/>
<text text-anchor="middle" x="87" y="-36.5" font-family="Helvetica,sans-Serif" font-size="10.00">syntax.CommandHandler.handle</text>
</g>
<!-- Node2 -->
<g id="node2" class="node"><title>Node2</title>
<g id="a_node2"><a xlink:href="../../de/d31/classapplication_1_1_pattern_matcher.html#a2db70f4edd389c1f149acdebd3da0b7f" target="_top" xlink:title="application.PatternMatcher.check\lForMatch">
<polygon fill="white" stroke="black" points="210.5,-49 210.5,-79 385.5,-79 385.5,-49 210.5,-49"/>
<text text-anchor="start" x="218.5" y="-67" font-family="Helvetica,sans-Serif" font-size="10.00">application.PatternMatcher.check</text>
<text text-anchor="middle" x="298" y="-56" font-family="Helvetica,sans-Serif" font-size="10.00">ForMatch</text>
</a>
</g>
</g>
<!-- Node1&#45;&gt;Node2 -->
<g id="edge1" class="edge"><title>Node1&#45;&gt;Node2</title>
<path fill="none" stroke="midnightblue" d="M167.61,-48.5227C178.297,-49.8011 189.353,-51.1235 200.294,-52.4322"/>
<polygon fill="midnightblue" stroke="midnightblue" points="199.95,-55.9161 210.295,-53.6286 200.782,-48.9656 199.95,-55.9161"/>
</g>
<!-- Node4 -->
<g id="node4" class="node"><title>Node4</title>
<g id="a_node4"><a xlink:href="../../dd/d17/classapplication_1_1_model.html#a3624fe13f919660a970f26a70b45d224" target="_top" xlink:title="application.Model.getUser\lCommand">
<polygon fill="white" stroke="black" points="227.5,-0 227.5,-30 368.5,-30 368.5,-0 227.5,-0"/>
<text text-anchor="start" x="235.5" y="-18" font-family="Helvetica,sans-Serif" font-size="10.00">application.Model.getUser</text>
<text text-anchor="middle" x="298" y="-7" font-family="Helvetica,sans-Serif" font-size="10.00">Command</text>
</a>
</g>
</g>
<!-- Node1&#45;&gt;Node4 -->
<g id="edge3" class="edge"><title>Node1&#45;&gt;Node4</title>
<path fill="none" stroke="midnightblue" d="M170.903,-29.4801C186.089,-27.7362 201.911,-25.9193 217.01,-24.1854"/>
<polygon fill="midnightblue" stroke="midnightblue" points="217.796,-27.6183 227.331,-23.0003 216.997,-20.664 217.796,-27.6183"/>
</g>
<!-- Node3 -->
<g id="node3" class="node"><title>Node3</title>
<g id="a_node3"><a xlink:href="../../de/d31/classapplication_1_1_pattern_matcher.html#a463a0d665a268cd83796230ffb17ebdc" target="_top" xlink:title="application.PatternMatcher.match">
<polygon fill="white" stroke="black" points="422,-54.5 422,-73.5 600,-73.5 600,-54.5 422,-54.5"/>
<text text-anchor="middle" x="511" y="-61.5" font-family="Helvetica,sans-Serif" font-size="10.00">application.PatternMatcher.match</text>
</a>
</g>
</g>
<!-- Node2&#45;&gt;Node3 -->
<g id="edge2" class="edge"><title>Node2&#45;&gt;Node3</title>
<path fill="none" stroke="midnightblue" d="M385.735,-64C394.313,-64 403.063,-64 411.746,-64"/>
<polygon fill="midnightblue" stroke="midnightblue" points="411.895,-67.5001 421.895,-64 411.895,-60.5001 411.895,-67.5001"/>
</g>
</g>
</svg>
