<?xml version="1.0" encoding="UTF-8" standalone="no"?>
<!DOCTYPE svg PUBLIC "-//W3C//DTD SVG 1.1//EN"
 "http://www.w3.org/Graphics/SVG/1.1/DTD/svg11.dtd">
<!-- Generated by graphviz version 2.36.0 (20140111.2315)
 -->
<!-- Title: view.PreviousCommands Pages: 1 -->
<svg width="413pt" height="164pt"
 viewBox="0.00 0.00 413.00 164.00" xmlns="http://www.w3.org/2000/svg" xmlns:xlink="http://www.w3.org/1999/xlink">
<g id="graph0" class="graph" transform="scale(1 1) rotate(0) translate(4 160)">
<title>view.PreviousCommands</title>
<polygon fill="white" stroke="none" points="-4,4 -4,-160 409,-160 409,4 -4,4"/>
<!-- Node1 -->
<g id="node1" class="node"><title>Node1</title>
<polygon fill="#bfbfbf" stroke="black" points="-0.5,-68.5 -0.5,-87.5 134.5,-87.5 134.5,-68.5 -0.5,-68.5"/>
<text text-anchor="middle" x="67" y="-75.5" font-family="Helvetica,sans-Serif" font-size="10.00">view.PreviousCommands</text>
</g>
<!-- Node3 -->
<g id="node3" class="node"><title>Node3</title>
<g id="a_node3"><a xlink:href="../../d3/dfc/classview_1_1_enter_commands.html" target="_top" xlink:title="view.EnterCommands">
<polygon fill="white" stroke="black" points="111,-0.5 111,-19.5 231,-19.5 231,-0.5 111,-0.5"/>
<text text-anchor="middle" x="171" y="-7.5" font-family="Helvetica,sans-Serif" font-size="10.00">view.EnterCommands</text>
</a>
</g>
</g>
<!-- Node1&#45;&gt;Node3 -->
<g id="edge5" class="edge"><title>Node1&#45;&gt;Node3</title>
<path fill="none" stroke="#9a32cd" stroke-dasharray="5,2" d="M69.9272,-58.4957C71.9369,-51.2438 75.318,-43.3875 81,-38 89.9966,-29.4696 101.584,-23.6245 113.43,-19.6221"/>
<polygon fill="#9a32cd" stroke="#9a32cd" points="66.4921,-57.8235 67.8559,-68.3302 73.3418,-59.2662 66.4921,-57.8235"/>
<text text-anchor="middle" x="93.5" y="-41.5" font-family="Helvetica,sans-Serif" font-size="10.00"> prev</text>
</g>
<!-- Node2 -->
<g id="node2" class="node"><title>Node2</title>
<polygon fill="white" stroke="#bfbfbf" points="107,-136.5 107,-155.5 165,-155.5 165,-136.5 107,-136.5"/>
<text text-anchor="middle" x="136" y="-143.5" font-family="Helvetica,sans-Serif" font-size="10.00">TextArea</text>
</g>
<!-- Node2&#45;&gt;Node1 -->
<g id="edge1" class="edge"><title>Node2&#45;&gt;Node1</title>
<path fill="none" stroke="#9a32cd" stroke-dasharray="5,2" d="M119.704,-129.412C106.149,-116.447 87.3403,-98.4559 76.243,-87.8411"/>
<polygon fill="#9a32cd" stroke="#9a32cd" points="117.334,-131.989 126.979,-136.372 122.172,-126.93 117.334,-131.989"/>
<text text-anchor="middle" x="119" y="-109.5" font-family="Helvetica,sans-Serif" font-size="10.00"> text</text>
</g>
<!-- Node2&#45;&gt;Node3 -->
<g id="edge6" class="edge"><title>Node2&#45;&gt;Node3</title>
<path fill="none" stroke="#9a32cd" stroke-dasharray="5,2" d="M140.863,-126.381C148.533,-97.0148 163.143,-41.08 168.741,-19.6503"/>
<polygon fill="#9a32cd" stroke="#9a32cd" points="137.437,-125.648 138.296,-136.208 144.21,-127.417 137.437,-125.648"/>
<text text-anchor="middle" x="167" y="-75.5" font-family="Helvetica,sans-Serif" font-size="10.00"> text</text>
</g>
<!-- Node3&#45;&gt;Node1 -->
<g id="edge2" class="edge"><title>Node3&#45;&gt;Node1</title>
<path fill="none" stroke="#9a32cd" stroke-dasharray="5,2" d="M148.522,-25.0661C141.904,-29.22 134.655,-33.7834 128,-38 111.649,-48.3604 92.8954,-60.3692 80.5473,-68.2939"/>
<polygon fill="#9a32cd" stroke="#9a32cd" points="150.425,-28.0036 157.039,-19.7263 146.707,-22.0728 150.425,-28.0036"/>
<text text-anchor="middle" x="142.5" y="-41.5" font-family="Helvetica,sans-Serif" font-size="10.00"> enter</text>
</g>
<!-- Node4 -->
<g id="node4" class="node"><title>Node4</title>
<polygon fill="white" stroke="#bfbfbf" points="211.5,-68.5 211.5,-87.5 282.5,-87.5 282.5,-68.5 211.5,-68.5"/>
<text text-anchor="middle" x="247" y="-75.5" font-family="Helvetica,sans-Serif" font-size="10.00">Observable</text>
</g>
<!-- Node4&#45;&gt;Node3 -->
<g id="edge3" class="edge"><title>Node4&#45;&gt;Node3</title>
<path fill="none" stroke="midnightblue" d="M229.468,-61.7744C214.508,-48.7837 193.518,-30.5551 181.181,-19.8411"/>
<polygon fill="midnightblue" stroke="midnightblue" points="227.219,-64.4574 237.064,-68.3717 231.809,-59.1721 227.219,-64.4574"/>
</g>
<!-- Node5 -->
<g id="node5" class="node"><title>Node5</title>
<g id="a_node5"><a xlink:href="../../de/d83/classview_1_1_import_design.html" target="_top" xlink:title="view.ImportDesign">
<polygon fill="white" stroke="black" points="301,-68.5 301,-87.5 405,-87.5 405,-68.5 301,-68.5"/>
<text text-anchor="middle" x="353" y="-75.5" font-family="Helvetica,sans-Serif" font-size="10.00">view.ImportDesign</text>
</a>
</g>
</g>
<!-- Node5&#45;&gt;Node3 -->
<g id="edge4" class="edge"><title>Node5&#45;&gt;Node3</title>
<path fill="none" stroke="#9a32cd" stroke-dasharray="5,2" d="M319.564,-64.875C283.297,-51.723 226.333,-31.066 194.511,-19.5259"/>
<polygon fill="#9a32cd" stroke="#9a32cd" points="318.613,-68.2528 329.207,-68.3717 320.999,-61.6721 318.613,-68.2528"/>
<text text-anchor="middle" x="297" y="-41.5" font-family="Helvetica,sans-Serif" font-size="10.00"> upload</text>
</g>
</g>
</svg>
