<?xml version="1.0" encoding="UTF-8" standalone="no"?>
<!DOCTYPE svg PUBLIC "-//W3C//DTD SVG 1.1//EN"
 "http://www.w3.org/Graphics/SVG/1.1/DTD/svg11.dtd">
<!-- Generated by graphviz version 2.36.0 (20140111.2315)
 -->
<!-- Title: view.PreviousCommands Pages: 1 -->
<svg width="290pt" height="232pt"
 viewBox="0.00 0.00 290.00 232.00" xmlns="http://www.w3.org/2000/svg" xmlns:xlink="http://www.w3.org/1999/xlink">
<g id="graph0" class="graph" transform="scale(1 1) rotate(0) translate(4 228)">
<title>view.PreviousCommands</title>
<polygon fill="white" stroke="none" points="-4,4 -4,-228 286,-228 286,4 -4,4"/>
<!-- Node1 -->
<g id="node1" class="node"><title>Node1</title>
<polygon fill="#bfbfbf" stroke="black" points="-0.5,-136.5 -0.5,-155.5 134.5,-155.5 134.5,-136.5 -0.5,-136.5"/>
<text text-anchor="middle" x="67" y="-143.5" font-family="Helvetica,sans-Serif" font-size="10.00">view.PreviousCommands</text>
</g>
<!-- Node3 -->
<g id="node3" class="node"><title>Node3</title>
<g id="a_node3"><a xlink:href="../../d3/dfc/classview_1_1_enter_commands.html" target="_top" xlink:title="view.EnterCommands">
<polygon fill="white" stroke="black" points="87,-68.5 87,-87.5 207,-87.5 207,-68.5 87,-68.5"/>
<text text-anchor="middle" x="147" y="-75.5" font-family="Helvetica,sans-Serif" font-size="10.00">view.EnterCommands</text>
</a>
</g>
</g>
<!-- Node1&#45;&gt;Node3 -->
<g id="edge6" class="edge"><title>Node1&#45;&gt;Node3</title>
<path fill="none" stroke="#9a32cd" stroke-dasharray="5,2" d="M64.9256,-126.167C65.1193,-119.191 66.5855,-111.62 71,-106 77.7465,-97.411 87.4373,-91.5494 97.6518,-87.5505"/>
<polygon fill="#9a32cd" stroke="#9a32cd" points="61.4357,-126.459 65.4277,-136.273 68.4271,-126.112 61.4357,-126.459"/>
<text text-anchor="middle" x="83.5" y="-109.5" font-family="Helvetica,sans-Serif" font-size="10.00"> prev</text>
</g>
<!-- Node2 -->
<g id="node2" class="node"><title>Node2</title>
<polygon fill="white" stroke="#bfbfbf" points="107,-204.5 107,-223.5 165,-223.5 165,-204.5 107,-204.5"/>
<text text-anchor="middle" x="136" y="-211.5" font-family="Helvetica,sans-Serif" font-size="10.00">TextArea</text>
</g>
<!-- Node2&#45;&gt;Node1 -->
<g id="edge1" class="edge"><title>Node2&#45;&gt;Node1</title>
<path fill="none" stroke="#9a32cd" stroke-dasharray="5,2" d="M119.704,-197.412C106.149,-184.447 87.3403,-166.456 76.243,-155.841"/>
<polygon fill="#9a32cd" stroke="#9a32cd" points="117.334,-199.989 126.979,-204.372 122.172,-194.93 117.334,-199.989"/>
<text text-anchor="middle" x="119" y="-177.5" font-family="Helvetica,sans-Serif" font-size="10.00"> text</text>
</g>
<!-- Node2&#45;&gt;Node3 -->
<g id="edge7" class="edge"><title>Node2&#45;&gt;Node3</title>
<path fill="none" stroke="#9a32cd" stroke-dasharray="5,2" d="M139.06,-194.349C142.029,-175.241 146.324,-144.643 148,-118 148.335,-112.677 148.099,-111.332 148,-106 147.885,-99.8093 147.623,-92.8243 147.396,-87.51"/>
<polygon fill="#9a32cd" stroke="#9a32cd" points="135.577,-193.963 137.457,-204.389 142.49,-195.066 135.577,-193.963"/>
<text text-anchor="middle" x="158" y="-143.5" font-family="Helvetica,sans-Serif" font-size="10.00"> text</text>
</g>
<!-- Node3&#45;&gt;Node1 -->
<g id="edge2" class="edge"><title>Node3&#45;&gt;Node1</title>
<path fill="none" stroke="#9a32cd" stroke-dasharray="5,2" d="M128.493,-94.2683C112.645,-107.343 90.3949,-125.699 77.4586,-136.372"/>
<polygon fill="#9a32cd" stroke="#9a32cd" points="131.052,-96.6941 136.539,-87.6305 126.598,-91.2945 131.052,-96.6941"/>
<text text-anchor="middle" x="129.5" y="-109.5" font-family="Helvetica,sans-Serif" font-size="10.00"> enter</text>
</g>
<!-- Node5 -->
<g id="node5" class="node"><title>Node5</title>
<g id="a_node5"><a xlink:href="../../de/d83/classview_1_1_import_design.html" target="_top" xlink:title="view.ImportDesign">
<polygon fill="white" stroke="black" points="95,-0.5 95,-19.5 199,-19.5 199,-0.5 95,-0.5"/>
<text text-anchor="middle" x="147" y="-7.5" font-family="Helvetica,sans-Serif" font-size="10.00">view.ImportDesign</text>
</a>
</g>
</g>
<!-- Node3&#45;&gt;Node5 -->
<g id="edge5" class="edge"><title>Node3&#45;&gt;Node5</title>
<path fill="none" stroke="#9a32cd" stroke-dasharray="5,2" d="M98.0288,-63.8234C92.1013,-60.2609 86.8075,-55.7388 83,-50 73.5045,-35.6882 90.8169,-25.7666 109.816,-19.5128"/>
<polygon fill="#9a32cd" stroke="#9a32cd" points="96.5629,-67.0041 107.067,-68.3864 99.7176,-60.7552 96.5629,-67.0041"/>
<text text-anchor="middle" x="133" y="-41.5" font-family="Helvetica,sans-Serif" font-size="10.00"> myEnterCommands</text>
</g>
<!-- Node4 -->
<g id="node4" class="node"><title>Node4</title>
<polygon fill="white" stroke="#bfbfbf" points="211.5,-136.5 211.5,-155.5 282.5,-155.5 282.5,-136.5 211.5,-136.5"/>
<text text-anchor="middle" x="247" y="-143.5" font-family="Helvetica,sans-Serif" font-size="10.00">Observable</text>
</g>
<!-- Node4&#45;&gt;Node3 -->
<g id="edge3" class="edge"><title>Node4&#45;&gt;Node3</title>
<path fill="none" stroke="midnightblue" d="M225.502,-130.811C205.616,-117.686 176.698,-98.6004 160.076,-87.6305"/>
<polygon fill="midnightblue" stroke="midnightblue" points="223.653,-133.784 233.927,-136.372 227.509,-127.942 223.653,-133.784"/>
</g>
<!-- Node5&#45;&gt;Node3 -->
<g id="edge4" class="edge"><title>Node5&#45;&gt;Node3</title>
<path fill="none" stroke="#9a32cd" stroke-dasharray="5,2" d="M175.532,-25.0055C185.061,-31.721 192.105,-40.3951 187,-50 182.753,-57.9902 174.971,-64.0441 167.391,-68.3734"/>
<polygon fill="#9a32cd" stroke="#9a32cd" points="177.117,-21.8723 166.762,-19.634 173.461,-27.8416 177.117,-21.8723"/>
<text text-anchor="middle" x="207" y="-41.5" font-family="Helvetica,sans-Serif" font-size="10.00"> upload</text>
</g>
</g>
</svg>
