<?xml version="1.0" encoding="UTF-8" standalone="no"?>
<!DOCTYPE svg PUBLIC "-//W3C//DTD SVG 1.1//EN"
 "http://www.w3.org/Graphics/SVG/1.1/DTD/svg11.dtd">
<!-- Generated by graphviz version 2.36.0 (20140111.2315)
 -->
<!-- Title: commands.MakeVariable.function Pages: 1 -->
<svg width="388pt" height="126pt"
 viewBox="0.00 0.00 388.00 126.00" xmlns="http://www.w3.org/2000/svg" xmlns:xlink="http://www.w3.org/1999/xlink">
<g id="graph0" class="graph" transform="scale(1 1) rotate(0) translate(4 122)">
<title>commands.MakeVariable.function</title>
<polygon fill="white" stroke="none" points="-4,4 -4,-122 384,-122 384,4 -4,4"/>
<!-- Node1 -->
<g id="node1" class="node"><title>Node1</title>
<polygon fill="#bfbfbf" stroke="black" points="0.5,-54.5 0.5,-73.5 179.5,-73.5 179.5,-54.5 0.5,-54.5"/>
<text text-anchor="middle" x="90" y="-61.5" font-family="Helvetica,sans-Serif" font-size="10.00">commands.MakeVariable.function</text>
</g>
<!-- Node2 -->
<g id="node2" class="node"><title>Node2</title>
<g id="a_node2"><a xlink:href="../../d7/d99/classtree_1_1_command_node.html#ae60b1b2f861235627eb90a0d1fa25814" target="_top" xlink:title="tree.CommandNode.getModel">
<polygon fill="white" stroke="black" points="217,-98.5 217,-117.5 379,-117.5 379,-98.5 217,-98.5"/>
<text text-anchor="middle" x="298" y="-105.5" font-family="Helvetica,sans-Serif" font-size="10.00">tree.CommandNode.getModel</text>
</a>
</g>
</g>
<!-- Node1&#45;&gt;Node2 -->
<g id="edge1" class="edge"><title>Node1&#45;&gt;Node2</title>
<path fill="none" stroke="midnightblue" d="M135.699,-73.5473C167.013,-80.2357 209.046,-89.2137 242.353,-96.3279"/>
<polygon fill="midnightblue" stroke="midnightblue" points="241.878,-99.8052 252.388,-98.4713 243.34,-92.9596 241.878,-99.8052"/>
</g>
<!-- Node3 -->
<g id="node3" class="node"><title>Node3</title>
<g id="a_node3"><a xlink:href="../../d7/d99/classtree_1_1_command_node.html#a9f3dd4c2d2489cbbbc7e09e252a8c9a3" target="_top" xlink:title="tree.CommandNode.putObject\lInList">
<polygon fill="white" stroke="black" points="216,-49 216,-79 380,-79 380,-49 216,-49"/>
<text text-anchor="start" x="224" y="-67" font-family="Helvetica,sans-Serif" font-size="10.00">tree.CommandNode.putObject</text>
<text text-anchor="middle" x="298" y="-56" font-family="Helvetica,sans-Serif" font-size="10.00">InList</text>
</a>
</g>
</g>
<!-- Node1&#45;&gt;Node3 -->
<g id="edge2" class="edge"><title>Node1&#45;&gt;Node3</title>
<path fill="none" stroke="midnightblue" d="M179.558,-64C188.258,-64 197.098,-64 205.824,-64"/>
<polygon fill="midnightblue" stroke="midnightblue" points="205.999,-67.5001 215.999,-64 205.999,-60.5001 205.999,-67.5001"/>
</g>
<!-- Node4 -->
<g id="node4" class="node"><title>Node4</title>
<g id="a_node4"><a xlink:href="../../dd/d17/classapplication_1_1_model.html#a148bca8470c723e82cb3150af8b62eae" target="_top" xlink:title="application.Model.setVariable\lValue">
<polygon fill="white" stroke="black" points="220,-0 220,-30 376,-30 376,-0 220,-0"/>
<text text-anchor="start" x="228" y="-18" font-family="Helvetica,sans-Serif" font-size="10.00">application.Model.setVariable</text>
<text text-anchor="middle" x="298" y="-7" font-family="Helvetica,sans-Serif" font-size="10.00">Value</text>
</a>
</g>
</g>
<!-- Node1&#45;&gt;Node4 -->
<g id="edge3" class="edge"><title>Node1&#45;&gt;Node4</title>
<path fill="none" stroke="midnightblue" d="M131.208,-54.436C157.516,-48.1782 192.662,-39.8183 223.823,-32.4063"/>
<polygon fill="midnightblue" stroke="midnightblue" points="224.865,-35.7561 233.783,-30.037 223.245,-28.9461 224.865,-35.7561"/>
</g>
</g>
</svg>
