<?xml version="1.0" encoding="UTF-8" standalone="no"?>
<!DOCTYPE svg PUBLIC "-//W3C//DTD SVG 1.1//EN"
 "http://www.w3.org/Graphics/SVG/1.1/DTD/svg11.dtd">
<!-- Generated by graphviz version 2.36.0 (20140111.2315)
 -->
<!-- Title: view.Display.addTurtle Pages: 1 -->
<svg width="824pt" height="66pt"
 viewBox="0.00 0.00 824.00 66.00" xmlns="http://www.w3.org/2000/svg" xmlns:xlink="http://www.w3.org/1999/xlink">
<g id="graph0" class="graph" transform="scale(1 1) rotate(0) translate(4 62)">
<title>view.Display.addTurtle</title>
<polygon fill="white" stroke="none" points="-4,4 -4,-62 820,-62 820,4 -4,4"/>
<!-- Node1 -->
<g id="node1" class="node"><title>Node1</title>
<polygon fill="#bfbfbf" stroke="black" points="0.5,-19.5 0.5,-38.5 119.5,-38.5 119.5,-19.5 0.5,-19.5"/>
<text text-anchor="middle" x="60" y="-26.5" font-family="Helvetica,sans-Serif" font-size="10.00">view.Display.addTurtle</text>
</g>
<!-- Node2 -->
<g id="node2" class="node"><title>Node2</title>
<g id="a_node2"><a xlink:href="../../d3/dbe/classview_1_1_view.html#a6c2525fe1f26dc400c48823ce4f0d057" target="_top" xlink:title="view.View.addModelListeners">
<polygon fill="white" stroke="black" points="330.5,-38.5 330.5,-57.5 483.5,-57.5 483.5,-38.5 330.5,-38.5"/>
<text text-anchor="middle" x="407" y="-45.5" font-family="Helvetica,sans-Serif" font-size="10.00">view.View.addModelListeners</text>
</a>
</g>
</g>
<!-- Node1&#45;&gt;Node2 -->
<g id="edge1" class="edge"><title>Node1&#45;&gt;Node2</title>
<path fill="none" stroke="midnightblue" d="M129.68,-32.7824C187.609,-35.9727 270.413,-40.5329 330.255,-43.8285"/>
<polygon fill="midnightblue" stroke="midnightblue" points="129.702,-29.2784 119.525,-32.2231 129.317,-36.2678 129.702,-29.2784"/>
</g>
<!-- Node5 -->
<g id="node5" class="node"><title>Node5</title>
<g id="a_node5"><a xlink:href="../../d1/d1a/classview_1_1_display.html#a5a90faf6bdd48db75a4a68793c171b7c" target="_top" xlink:title="view.Display.makeDisplay">
<polygon fill="white" stroke="black" points="156.5,-0.5 156.5,-19.5 293.5,-19.5 293.5,-0.5 156.5,-0.5"/>
<text text-anchor="middle" x="225" y="-7.5" font-family="Helvetica,sans-Serif" font-size="10.00">view.Display.makeDisplay</text>
</a>
</g>
</g>
<!-- Node1&#45;&gt;Node5 -->
<g id="edge4" class="edge"><title>Node1&#45;&gt;Node5</title>
<path fill="none" stroke="midnightblue" d="M129.989,-20.9583C138.727,-19.9398 147.662,-18.8984 156.378,-17.8823"/>
<polygon fill="midnightblue" stroke="midnightblue" points="129.374,-17.5062 119.847,-22.1406 130.185,-24.4591 129.374,-17.5062"/>
</g>
<!-- Node3 -->
<g id="node3" class="node"><title>Node3</title>
<g id="a_node3"><a xlink:href="../../d4/d9d/classapplication_1_1_wrapper.html#a4be5486a54f6d10d816c3ff49e82ecb9" target="_top" xlink:title="application.Wrapper.make\lNewWindow">
<polygon fill="white" stroke="black" points="520,-14 520,-44 660,-44 660,-14 520,-14"/>
<text text-anchor="start" x="528" y="-32" font-family="Helvetica,sans-Serif" font-size="10.00">application.Wrapper.make</text>
<text text-anchor="middle" x="590" y="-21" font-family="Helvetica,sans-Serif" font-size="10.00">NewWindow</text>
</a>
</g>
</g>
<!-- Node2&#45;&gt;Node3 -->
<g id="edge2" class="edge"><title>Node2&#45;&gt;Node3</title>
<path fill="none" stroke="midnightblue" d="M493.912,-38.9816C502.64,-38.0654 511.426,-37.1432 519.942,-36.2492"/>
<polygon fill="midnightblue" stroke="midnightblue" points="493.291,-35.5274 483.712,-40.0524 494.022,-42.4892 493.291,-35.5274"/>
</g>
<!-- Node4 -->
<g id="node4" class="node"><title>Node4</title>
<g id="a_node4"><a xlink:href="../../d9/d96/classapplication_1_1_main.html#a4e5ad4e3de8bbd8654120180a94e870d" target="_top" xlink:title="application.Main.start">
<polygon fill="white" stroke="black" points="696.5,-19.5 696.5,-38.5 815.5,-38.5 815.5,-19.5 696.5,-19.5"/>
<text text-anchor="middle" x="756" y="-26.5" font-family="Helvetica,sans-Serif" font-size="10.00">application.Main.start</text>
</a>
</g>
</g>
<!-- Node3&#45;&gt;Node4 -->
<g id="edge3" class="edge"><title>Node3&#45;&gt;Node4</title>
<path fill="none" stroke="midnightblue" d="M670.335,-29C679.112,-29 687.929,-29 696.384,-29"/>
<polygon fill="midnightblue" stroke="midnightblue" points="670.075,-25.5001 660.075,-29 670.075,-32.5001 670.075,-25.5001"/>
</g>
<!-- Node5&#45;&gt;Node2 -->
<g id="edge7" class="edge"><title>Node5&#45;&gt;Node2</title>
<path fill="none" stroke="midnightblue" d="M281.331,-21.681C306.857,-27.0699 336.776,-33.3861 360.905,-38.4799"/>
<polygon fill="midnightblue" stroke="midnightblue" points="281.929,-18.2301 271.422,-19.589 280.483,-25.0792 281.929,-18.2301"/>
</g>
<!-- Node6 -->
<g id="node6" class="node"><title>Node6</title>
<g id="a_node6"><a xlink:href="../../d3/dbe/classview_1_1_view.html#aef3f2dd859a6a5c719987365a9afb905" target="_top" xlink:title="view.View.start">
<polygon fill="white" stroke="black" points="364,-0.5 364,-19.5 450,-19.5 450,-0.5 364,-0.5"/>
<text text-anchor="middle" x="407" y="-7.5" font-family="Helvetica,sans-Serif" font-size="10.00">view.View.start</text>
</a>
</g>
</g>
<!-- Node5&#45;&gt;Node6 -->
<g id="edge5" class="edge"><title>Node5&#45;&gt;Node6</title>
<path fill="none" stroke="midnightblue" d="M303.623,-10C324.354,-10 345.978,-10 363.982,-10"/>
<polygon fill="midnightblue" stroke="midnightblue" points="303.538,-6.5001 293.537,-10 303.537,-13.5001 303.538,-6.5001"/>
</g>
<!-- Node6&#45;&gt;Node3 -->
<g id="edge6" class="edge"><title>Node6&#45;&gt;Node3</title>
<path fill="none" stroke="midnightblue" d="M460.454,-15.5063C479.016,-17.4547 500.189,-19.6773 519.92,-21.7485"/>
<polygon fill="midnightblue" stroke="midnightblue" points="460.747,-12.0179 450.436,-14.4547 460.016,-18.9796 460.747,-12.0179"/>
</g>
</g>
</svg>
