<?xml version="1.0" encoding="UTF-8" standalone="no"?>
<!DOCTYPE svg PUBLIC "-//W3C//DTD SVG 1.1//EN"
 "http://www.w3.org/Graphics/SVG/1.1/DTD/svg11.dtd">
<!-- Generated by graphviz version 2.36.0 (20140111.2315)
 -->
<!-- Title: view.Display.setVisibility Pages: 1 -->
<svg width="844pt" height="38pt"
 viewBox="0.00 0.00 844.00 38.00" xmlns="http://www.w3.org/2000/svg" xmlns:xlink="http://www.w3.org/1999/xlink">
<g id="graph0" class="graph" transform="scale(1 1) rotate(0) translate(4 34)">
<title>view.Display.setVisibility</title>
<polygon fill="white" stroke="none" points="-4,4 -4,-34 840,-34 840,4 -4,4"/>
<!-- Node1 -->
<g id="node1" class="node"><title>Node1</title>
<polygon fill="#bfbfbf" stroke="black" points="0,-5.5 0,-24.5 128,-24.5 128,-5.5 0,-5.5"/>
<text text-anchor="middle" x="64" y="-12.5" font-family="Helvetica,sans-Serif" font-size="10.00">view.Display.setVisibility</text>
</g>
<!-- Node2 -->
<g id="node2" class="node"><title>Node2</title>
<g id="a_node2"><a xlink:href="../../d3/dbe/classview_1_1_view.html#a808f20def9060b723dd4974bc7553155" target="_top" xlink:title="view.View.addTurtleListeners">
<polygon fill="white" stroke="black" points="164,-5.5 164,-24.5 314,-24.5 314,-5.5 164,-5.5"/>
<text text-anchor="middle" x="239" y="-12.5" font-family="Helvetica,sans-Serif" font-size="10.00">view.View.addTurtleListeners</text>
</a>
</g>
</g>
<!-- Node1&#45;&gt;Node2 -->
<g id="edge1" class="edge"><title>Node1&#45;&gt;Node2</title>
<path fill="none" stroke="midnightblue" d="M138.513,-15C146.859,-15 155.369,-15 163.725,-15"/>
<polygon fill="midnightblue" stroke="midnightblue" points="138.437,-11.5001 128.436,-15 138.436,-18.5001 138.437,-11.5001"/>
</g>
<!-- Node3 -->
<g id="node3" class="node"><title>Node3</title>
<g id="a_node3"><a xlink:href="../../d3/dbe/classview_1_1_view.html#a6c2525fe1f26dc400c48823ce4f0d057" target="_top" xlink:title="view.View.addModelListeners">
<polygon fill="white" stroke="black" points="350.5,-5.5 350.5,-24.5 503.5,-24.5 503.5,-5.5 350.5,-5.5"/>
<text text-anchor="middle" x="427" y="-12.5" font-family="Helvetica,sans-Serif" font-size="10.00">view.View.addModelListeners</text>
</a>
</g>
</g>
<!-- Node2&#45;&gt;Node3 -->
<g id="edge2" class="edge"><title>Node2&#45;&gt;Node3</title>
<path fill="none" stroke="midnightblue" d="M324.218,-15C332.939,-15 341.764,-15 350.382,-15"/>
<polygon fill="midnightblue" stroke="midnightblue" points="324.047,-11.5001 314.047,-15 324.047,-18.5001 324.047,-11.5001"/>
</g>
<!-- Node4 -->
<g id="node4" class="node"><title>Node4</title>
<g id="a_node4"><a xlink:href="../../d4/d9d/classapplication_1_1_wrapper.html#a4be5486a54f6d10d816c3ff49e82ecb9" target="_top" xlink:title="application.Wrapper.make\lNewWindow">
<polygon fill="white" stroke="black" points="540,-0 540,-30 680,-30 680,-0 540,-0"/>
<text text-anchor="start" x="548" y="-18" font-family="Helvetica,sans-Serif" font-size="10.00">application.Wrapper.make</text>
<text text-anchor="middle" x="610" y="-7" font-family="Helvetica,sans-Serif" font-size="10.00">NewWindow</text>
</a>
</g>
</g>
<!-- Node3&#45;&gt;Node4 -->
<g id="edge3" class="edge"><title>Node3&#45;&gt;Node4</title>
<path fill="none" stroke="midnightblue" d="M513.912,-15C522.64,-15 531.426,-15 539.942,-15"/>
<polygon fill="midnightblue" stroke="midnightblue" points="513.712,-11.5001 503.712,-15 513.712,-18.5001 513.712,-11.5001"/>
</g>
<!-- Node5 -->
<g id="node5" class="node"><title>Node5</title>
<g id="a_node5"><a xlink:href="../../d9/d96/classapplication_1_1_main.html#a4e5ad4e3de8bbd8654120180a94e870d" target="_top" xlink:title="application.Main.start">
<polygon fill="white" stroke="black" points="716.5,-5.5 716.5,-24.5 835.5,-24.5 835.5,-5.5 716.5,-5.5"/>
<text text-anchor="middle" x="776" y="-12.5" font-family="Helvetica,sans-Serif" font-size="10.00">application.Main.start</text>
</a>
</g>
</g>
<!-- Node4&#45;&gt;Node5 -->
<g id="edge4" class="edge"><title>Node4&#45;&gt;Node5</title>
<path fill="none" stroke="midnightblue" d="M690.335,-15C699.112,-15 707.929,-15 716.384,-15"/>
<polygon fill="midnightblue" stroke="midnightblue" points="690.075,-11.5001 680.075,-15 690.075,-18.5001 690.075,-11.5001"/>
</g>
</g>
</svg>
