<?xml version="1.0" encoding="UTF-8" standalone="no"?>
<!DOCTYPE svg PUBLIC "-//W3C//DTD SVG 1.1//EN"
 "http://www.w3.org/Graphics/SVG/1.1/DTD/svg11.dtd">
<!-- Generated by graphviz version 2.36.0 (20140111.2315)
 -->
<!-- Title: view.Display.updateTurtleLocation Pages: 1 -->
<svg width="850pt" height="38pt"
 viewBox="0.00 0.00 850.00 38.00" xmlns="http://www.w3.org/2000/svg" xmlns:xlink="http://www.w3.org/1999/xlink">
<g id="graph0" class="graph" transform="scale(1 1) rotate(0) translate(4 34)">
<title>view.Display.updateTurtleLocation</title>
<polygon fill="white" stroke="none" points="-4,4 -4,-34 846,-34 846,4 -4,4"/>
<!-- Node1 -->
<g id="node1" class="node"><title>Node1</title>
<polygon fill="#bfbfbf" stroke="black" points="0,-0 0,-30 134,-30 134,-0 0,-0"/>
<text text-anchor="start" x="8" y="-18" font-family="Helvetica,sans-Serif" font-size="10.00">view.Display.updateTurtle</text>
<text text-anchor="middle" x="67" y="-7" font-family="Helvetica,sans-Serif" font-size="10.00">Location</text>
</g>
<!-- Node2 -->
<g id="node2" class="node"><title>Node2</title>
<g id="a_node2"><a xlink:href="../../d3/dbe/classview_1_1_view.html#a808f20def9060b723dd4974bc7553155" target="_top" xlink:title="view.View.addTurtleListeners">
<polygon fill="white" stroke="black" points="170,-5.5 170,-24.5 320,-24.5 320,-5.5 170,-5.5"/>
<text text-anchor="middle" x="245" y="-12.5" font-family="Helvetica,sans-Serif" font-size="10.00">view.View.addTurtleListeners</text>
</a>
</g>
</g>
<!-- Node1&#45;&gt;Node2 -->
<g id="edge1" class="edge"><title>Node1&#45;&gt;Node2</title>
<path fill="none" stroke="midnightblue" d="M144.304,-15C152.799,-15 161.443,-15 169.91,-15"/>
<polygon fill="midnightblue" stroke="midnightblue" points="144.037,-11.5001 134.037,-15 144.037,-18.5001 144.037,-11.5001"/>
</g>
<!-- Node3 -->
<g id="node3" class="node"><title>Node3</title>
<g id="a_node3"><a xlink:href="../../d3/dbe/classview_1_1_view.html#a6c2525fe1f26dc400c48823ce4f0d057" target="_top" xlink:title="view.View.addModelListeners">
<polygon fill="white" stroke="black" points="356.5,-5.5 356.5,-24.5 509.5,-24.5 509.5,-5.5 356.5,-5.5"/>
<text text-anchor="middle" x="433" y="-12.5" font-family="Helvetica,sans-Serif" font-size="10.00">view.View.addModelListeners</text>
</a>
</g>
</g>
<!-- Node2&#45;&gt;Node3 -->
<g id="edge2" class="edge"><title>Node2&#45;&gt;Node3</title>
<path fill="none" stroke="midnightblue" d="M330.218,-15C338.939,-15 347.764,-15 356.382,-15"/>
<polygon fill="midnightblue" stroke="midnightblue" points="330.047,-11.5001 320.047,-15 330.047,-18.5001 330.047,-11.5001"/>
</g>
<!-- Node4 -->
<g id="node4" class="node"><title>Node4</title>
<g id="a_node4"><a xlink:href="../../d4/d9d/classapplication_1_1_wrapper.html#a4be5486a54f6d10d816c3ff49e82ecb9" target="_top" xlink:title="application.Wrapper.make\lNewWindow">
<polygon fill="white" stroke="black" points="546,-0 546,-30 686,-30 686,-0 546,-0"/>
<text text-anchor="start" x="554" y="-18" font-family="Helvetica,sans-Serif" font-size="10.00">application.Wrapper.make</text>
<text text-anchor="middle" x="616" y="-7" font-family="Helvetica,sans-Serif" font-size="10.00">NewWindow</text>
</a>
</g>
</g>
<!-- Node3&#45;&gt;Node4 -->
<g id="edge3" class="edge"><title>Node3&#45;&gt;Node4</title>
<path fill="none" stroke="midnightblue" d="M519.912,-15C528.64,-15 537.426,-15 545.942,-15"/>
<polygon fill="midnightblue" stroke="midnightblue" points="519.712,-11.5001 509.712,-15 519.712,-18.5001 519.712,-11.5001"/>
</g>
<!-- Node5 -->
<g id="node5" class="node"><title>Node5</title>
<g id="a_node5"><a xlink:href="../../d9/d96/classapplication_1_1_main.html#a4e5ad4e3de8bbd8654120180a94e870d" target="_top" xlink:title="application.Main.start">
<polygon fill="white" stroke="black" points="722.5,-5.5 722.5,-24.5 841.5,-24.5 841.5,-5.5 722.5,-5.5"/>
<text text-anchor="middle" x="782" y="-12.5" font-family="Helvetica,sans-Serif" font-size="10.00">application.Main.start</text>
</a>
</g>
</g>
<!-- Node4&#45;&gt;Node5 -->
<g id="edge4" class="edge"><title>Node4&#45;&gt;Node5</title>
<path fill="none" stroke="midnightblue" d="M696.335,-15C705.112,-15 713.929,-15 722.384,-15"/>
<polygon fill="midnightblue" stroke="midnightblue" points="696.075,-11.5001 686.075,-15 696.075,-18.5001 696.075,-11.5001"/>
</g>
</g>
</svg>
