<?xml version="1.0" encoding="UTF-8" standalone="no"?>
<!DOCTYPE svg PUBLIC "-//W3C//DTD SVG 1.1//EN"
 "http://www.w3.org/Graphics/SVG/1.1/DTD/svg11.dtd">
<!-- Generated by graphviz version 2.36.0 (20140111.2315)
 -->
<!-- Title: view.Display.updateTurtleImage Pages: 1 -->
<svg width="1154pt" height="38pt"
 viewBox="0.00 0.00 1154.00 38.00" xmlns="http://www.w3.org/2000/svg" xmlns:xlink="http://www.w3.org/1999/xlink">
<g id="graph0" class="graph" transform="scale(1 1) rotate(0) translate(4 34)">
<title>view.Display.updateTurtleImage</title>
<polygon fill="white" stroke="none" points="-4,4 -4,-34 1150,-34 1150,4 -4,4"/>
<!-- Node1 -->
<g id="node1" class="node"><title>Node1</title>
<polygon fill="#bfbfbf" stroke="black" points="0,-0 0,-30 134,-30 134,-0 0,-0"/>
<text text-anchor="start" x="8" y="-18" font-family="Helvetica,sans-Serif" font-size="10.00">view.Display.updateTurtle</text>
<text text-anchor="middle" x="67" y="-7" font-family="Helvetica,sans-Serif" font-size="10.00">Image</text>
</g>
<!-- Node2 -->
<g id="node2" class="node"><title>Node2</title>
<g id="a_node2"><a xlink:href="../../dd/d5e/classview_1_1_image_chooser.html#a6d668cc328dfded5d66f3311c8a5637d" target="_top" xlink:title="view.ImageChooser.openFile">
<polygon fill="white" stroke="black" points="170,-5.5 170,-24.5 320,-24.5 320,-5.5 170,-5.5"/>
<text text-anchor="middle" x="245" y="-12.5" font-family="Helvetica,sans-Serif" font-size="10.00">view.ImageChooser.openFile</text>
</a>
</g>
</g>
<!-- Node1&#45;&gt;Node2 -->
<g id="edge1" class="edge"><title>Node1&#45;&gt;Node2</title>
<path fill="none" stroke="midnightblue" d="M144.304,-15C152.799,-15 161.443,-15 169.91,-15"/>
<polygon fill="midnightblue" stroke="midnightblue" points="144.037,-11.5001 134.037,-15 144.037,-18.5001 144.037,-11.5001"/>
</g>
<!-- Node3 -->
<g id="node3" class="node"><title>Node3</title>
<g id="a_node3"><a xlink:href="../../dd/d5e/classview_1_1_image_chooser.html#acce8e5e36cde606043547a64c1f44223" target="_top" xlink:title="view.ImageChooser.start">
<polygon fill="white" stroke="black" points="356,-5.5 356,-24.5 490,-24.5 490,-5.5 356,-5.5"/>
<text text-anchor="middle" x="423" y="-12.5" font-family="Helvetica,sans-Serif" font-size="10.00">view.ImageChooser.start</text>
</a>
</g>
</g>
<!-- Node2&#45;&gt;Node3 -->
<g id="edge2" class="edge"><title>Node2&#45;&gt;Node3</title>
<path fill="none" stroke="midnightblue" d="M330.179,-15C338.775,-15 347.42,-15 355.785,-15"/>
<polygon fill="midnightblue" stroke="midnightblue" points="330.13,-11.5001 320.13,-15 330.13,-18.5001 330.13,-11.5001"/>
</g>
<!-- Node4 -->
<g id="node4" class="node"><title>Node4</title>
<g id="a_node4"><a xlink:href="../../d3/d1e/classview_1_1_button_bar.html#a9663e7fffc7f3559097b76313739e507" target="_top" xlink:title="view.ButtonBar.makeButtonBar">
<polygon fill="white" stroke="black" points="526,-5.5 526,-24.5 692,-24.5 692,-5.5 526,-5.5"/>
<text text-anchor="middle" x="609" y="-12.5" font-family="Helvetica,sans-Serif" font-size="10.00">view.ButtonBar.makeButtonBar</text>
</a>
</g>
</g>
<!-- Node3&#45;&gt;Node4 -->
<g id="edge3" class="edge"><title>Node3&#45;&gt;Node4</title>
<path fill="none" stroke="midnightblue" d="M500.303,-15C508.701,-15 517.279,-15 525.746,-15"/>
<polygon fill="midnightblue" stroke="midnightblue" points="500.168,-11.5001 490.168,-15 500.168,-18.5001 500.168,-11.5001"/>
</g>
<!-- Node5 -->
<g id="node5" class="node"><title>Node5</title>
<g id="a_node5"><a xlink:href="../../d3/dbe/classview_1_1_view.html#aef3f2dd859a6a5c719987365a9afb905" target="_top" xlink:title="view.View.start">
<polygon fill="white" stroke="black" points="728,-5.5 728,-24.5 814,-24.5 814,-5.5 728,-5.5"/>
<text text-anchor="middle" x="771" y="-12.5" font-family="Helvetica,sans-Serif" font-size="10.00">view.View.start</text>
</a>
</g>
</g>
<!-- Node4&#45;&gt;Node5 -->
<g id="edge4" class="edge"><title>Node4&#45;&gt;Node5</title>
<path fill="none" stroke="midnightblue" d="M702.353,-15C711.163,-15 719.768,-15 727.726,-15"/>
<polygon fill="midnightblue" stroke="midnightblue" points="702.343,-11.5001 692.343,-15 702.343,-18.5001 702.343,-11.5001"/>
</g>
<!-- Node6 -->
<g id="node6" class="node"><title>Node6</title>
<g id="a_node6"><a xlink:href="../../d4/d9d/classapplication_1_1_wrapper.html#a4be5486a54f6d10d816c3ff49e82ecb9" target="_top" xlink:title="application.Wrapper.make\lNewWindow">
<polygon fill="white" stroke="black" points="850,-0 850,-30 990,-30 990,-0 850,-0"/>
<text text-anchor="start" x="858" y="-18" font-family="Helvetica,sans-Serif" font-size="10.00">application.Wrapper.make</text>
<text text-anchor="middle" x="920" y="-7" font-family="Helvetica,sans-Serif" font-size="10.00">NewWindow</text>
</a>
</g>
</g>
<!-- Node5&#45;&gt;Node6 -->
<g id="edge5" class="edge"><title>Node5&#45;&gt;Node6</title>
<path fill="none" stroke="midnightblue" d="M824.379,-15C832.668,-15 841.349,-15 849.949,-15"/>
<polygon fill="midnightblue" stroke="midnightblue" points="824.124,-11.5001 814.124,-15 824.124,-18.5001 824.124,-11.5001"/>
</g>
<!-- Node7 -->
<g id="node7" class="node"><title>Node7</title>
<g id="a_node7"><a xlink:href="../../d9/d96/classapplication_1_1_main.html#a4e5ad4e3de8bbd8654120180a94e870d" target="_top" xlink:title="application.Main.start">
<polygon fill="white" stroke="black" points="1026.5,-5.5 1026.5,-24.5 1145.5,-24.5 1145.5,-5.5 1026.5,-5.5"/>
<text text-anchor="middle" x="1086" y="-12.5" font-family="Helvetica,sans-Serif" font-size="10.00">application.Main.start</text>
</a>
</g>
</g>
<!-- Node6&#45;&gt;Node7 -->
<g id="edge6" class="edge"><title>Node6&#45;&gt;Node7</title>
<path fill="none" stroke="midnightblue" d="M1000.34,-15C1009.11,-15 1017.93,-15 1026.38,-15"/>
<polygon fill="midnightblue" stroke="midnightblue" points="1000.08,-11.5001 990.075,-15 1000.08,-18.5001 1000.08,-11.5001"/>
</g>
</g>
</svg>
