<?xml version="1.0" encoding="UTF-8" standalone="no"?>
<!DOCTYPE svg PUBLIC "-//W3C//DTD SVG 1.1//EN"
 "http://www.w3.org/Graphics/SVG/1.1/DTD/svg11.dtd">
<!-- Generated by graphviz version 2.36.0 (20140111.2315)
 -->
<!-- Title: commands.If.function Pages: 1 -->
<svg width="1210pt" height="214pt"
 viewBox="0.00 0.00 1210.00 214.00" xmlns="http://www.w3.org/2000/svg" xmlns:xlink="http://www.w3.org/1999/xlink">
<g id="graph0" class="graph" transform="scale(1 1) rotate(0) translate(4 210)">
<title>commands.If.function</title>
<polygon fill="white" stroke="none" points="-4,4 -4,-210 1206,-210 1206,4 -4,4"/>
<!-- Node1 -->
<g id="node1" class="node"><title>Node1</title>
<polygon fill="#bfbfbf" stroke="black" points="0.5,-38.5 0.5,-57.5 119.5,-57.5 119.5,-38.5 0.5,-38.5"/>
<text text-anchor="middle" x="60" y="-45.5" font-family="Helvetica,sans-Serif" font-size="10.00">commands.If.function</text>
</g>
<!-- Node2 -->
<g id="node2" class="node"><title>Node2</title>
<g id="a_node2"><a xlink:href="../../dd/dec/classcommands_1_1_if.html#af4992935265deb1e4759cd6579da4680" target="_top" xlink:title="commands.If.evaluateCommand">
<polygon fill="white" stroke="black" points="156.5,-71.5 156.5,-90.5 329.5,-90.5 329.5,-71.5 156.5,-71.5"/>
<text text-anchor="middle" x="243" y="-78.5" font-family="Helvetica,sans-Serif" font-size="10.00">commands.If.evaluateCommand</text>
</a>
</g>
</g>
<!-- Node1&#45;&gt;Node2 -->
<g id="edge1" class="edge"><title>Node1&#45;&gt;Node2</title>
<path fill="none" stroke="midnightblue" d="M113.353,-57.545C134.083,-61.3245 158.082,-65.7001 179.697,-69.6409"/>
<polygon fill="midnightblue" stroke="midnightblue" points="179.299,-73.126 189.765,-71.4765 180.555,-66.2395 179.299,-73.126"/>
</g>
<!-- Node11 -->
<g id="node11" class="node"><title>Node11</title>
<g id="a_node11"><a xlink:href="../../d7/d99/classtree_1_1_command_node.html#a9f3dd4c2d2489cbbbc7e09e252a8c9a3" target="_top" xlink:title="tree.CommandNode.putObject\lInList">
<polygon fill="white" stroke="black" points="564,-0 564,-30 728,-30 728,-0 564,-0"/>
<text text-anchor="start" x="572" y="-18" font-family="Helvetica,sans-Serif" font-size="10.00">tree.CommandNode.putObject</text>
<text text-anchor="middle" x="646" y="-7" font-family="Helvetica,sans-Serif" font-size="10.00">InList</text>
</a>
</g>
</g>
<!-- Node1&#45;&gt;Node11 -->
<g id="edge12" class="edge"><title>Node1&#45;&gt;Node11</title>
<path fill="none" stroke="midnightblue" d="M119.67,-44.6847C221.655,-38.9219 432.307,-27.0186 553.594,-20.165"/>
<polygon fill="midnightblue" stroke="midnightblue" points="553.821,-23.6579 563.607,-19.5993 553.426,-16.6691 553.821,-23.6579"/>
</g>
<!-- Node3 -->
<g id="node3" class="node"><title>Node3</title>
<g id="a_node3"><a xlink:href="../../d7/d99/classtree_1_1_command_node.html#a5bebc2f70e6e3486c403b9cdb0ce04cb" target="_top" xlink:title="tree.CommandNode.evaluate">
<polygon fill="white" stroke="black" points="367.5,-136.5 367.5,-155.5 526.5,-155.5 526.5,-136.5 367.5,-136.5"/>
<text text-anchor="middle" x="447" y="-143.5" font-family="Helvetica,sans-Serif" font-size="10.00">tree.CommandNode.evaluate</text>
</a>
</g>
</g>
<!-- Node2&#45;&gt;Node3 -->
<g id="edge2" class="edge"><title>Node2&#45;&gt;Node3</title>
<path fill="none" stroke="midnightblue" d="M271.534,-90.54C296.206,-99.0197 333.42,-111.641 366,-122 378.091,-125.844 391.263,-129.865 403.364,-133.491"/>
<polygon fill="midnightblue" stroke="midnightblue" points="402.647,-136.93 413.23,-136.433 404.647,-130.221 402.647,-136.93"/>
</g>
<!-- Node9 -->
<g id="node9" class="node"><title>Node9</title>
<g id="a_node9"><a xlink:href="../../d7/d99/classtree_1_1_command_node.html#ae60b1b2f861235627eb90a0d1fa25814" target="_top" xlink:title="tree.CommandNode.getModel">
<polygon fill="white" stroke="black" points="366,-93.5 366,-112.5 528,-112.5 528,-93.5 366,-93.5"/>
<text text-anchor="middle" x="447" y="-100.5" font-family="Helvetica,sans-Serif" font-size="10.00">tree.CommandNode.getModel</text>
</a>
</g>
</g>
<!-- Node2&#45;&gt;Node9 -->
<g id="edge8" class="edge"><title>Node2&#45;&gt;Node9</title>
<path fill="none" stroke="midnightblue" d="M329.666,-90.33C338.322,-91.2727 347.132,-92.2322 355.834,-93.1799"/>
<polygon fill="midnightblue" stroke="midnightblue" points="355.663,-96.6819 365.983,-94.2853 356.421,-89.7231 355.663,-96.6819"/>
</g>
<!-- Node10 -->
<g id="node10" class="node"><title>Node10</title>
<g id="a_node10"><a xlink:href="../../d7/d99/classtree_1_1_command_node.html#a7812a5927c35af83e5f65508fc0a0236" target="_top" xlink:title="tree.CommandNode.getRoot\lNodes">
<polygon fill="white" stroke="black" points="369.5,-44 369.5,-74 524.5,-74 524.5,-44 369.5,-44"/>
<text text-anchor="start" x="377.5" y="-62" font-family="Helvetica,sans-Serif" font-size="10.00">tree.CommandNode.getRoot</text>
<text text-anchor="middle" x="447" y="-51" font-family="Helvetica,sans-Serif" font-size="10.00">Nodes</text>
</a>
</g>
</g>
<!-- Node2&#45;&gt;Node10 -->
<g id="edge9" class="edge"><title>Node2&#45;&gt;Node10</title>
<path fill="none" stroke="midnightblue" d="M329.666,-71.67C339.482,-70.6009 349.497,-69.5103 359.326,-68.4398"/>
<polygon fill="midnightblue" stroke="midnightblue" points="359.924,-71.8954 369.486,-67.3332 359.166,-64.9366 359.924,-71.8954"/>
</g>
<!-- Node4 -->
<g id="node4" class="node"><title>Node4</title>
<g id="a_node4"><a xlink:href="../../dd/d17/classapplication_1_1_model.html#aa7ed87b9bf32630ff3c5b771feb6a67a" target="_top" xlink:title="application.Model.getTurtleList">
<polygon fill="white" stroke="black" points="565.5,-186.5 565.5,-205.5 726.5,-205.5 726.5,-186.5 565.5,-186.5"/>
<text text-anchor="middle" x="646" y="-193.5" font-family="Helvetica,sans-Serif" font-size="10.00">application.Model.getTurtleList</text>
</a>
</g>
</g>
<!-- Node3&#45;&gt;Node4 -->
<g id="edge3" class="edge"><title>Node3&#45;&gt;Node4</title>
<path fill="none" stroke="midnightblue" d="M484.545,-155.561C507.37,-161.506 537.379,-169.271 564,-176 574.323,-178.609 585.396,-181.369 595.937,-183.978"/>
<polygon fill="midnightblue" stroke="midnightblue" points="595.292,-187.423 605.839,-186.423 596.97,-180.627 595.292,-187.423"/>
</g>
<!-- Node5 -->
<g id="node5" class="node"><title>Node5</title>
<g id="a_node5"><a xlink:href="../../d1/deb/classapplication_1_1_turtle_list.html#a87d2c5ddc9378480e8b4bfa5e95b5629" target="_top" xlink:title="application.TurtleList.get\lActiveTurtles">
<polygon fill="white" stroke="black" points="580,-137 580,-167 712,-167 712,-137 580,-137"/>
<text text-anchor="start" x="588" y="-155" font-family="Helvetica,sans-Serif" font-size="10.00">application.TurtleList.get</text>
<text text-anchor="middle" x="646" y="-144" font-family="Helvetica,sans-Serif" font-size="10.00">ActiveTurtles</text>
</a>
</g>
</g>
<!-- Node3&#45;&gt;Node5 -->
<g id="edge4" class="edge"><title>Node3&#45;&gt;Node5</title>
<path fill="none" stroke="midnightblue" d="M526.709,-148.397C540.852,-148.828 555.564,-149.276 569.61,-149.704"/>
<polygon fill="midnightblue" stroke="midnightblue" points="569.601,-153.205 579.703,-150.011 569.814,-146.208 569.601,-153.205"/>
</g>
<!-- Node6 -->
<g id="node6" class="node"><title>Node6</title>
<g id="a_node6"><a xlink:href="../../d7/d99/classtree_1_1_command_node.html#a4bf51af9a3fc4eecf4e2b0e2dceb1a2e" target="_top" xlink:title="tree.CommandNode.evaluate\lTurtles">
<polygon fill="white" stroke="black" points="566.5,-88 566.5,-118 725.5,-118 725.5,-88 566.5,-88"/>
<text text-anchor="start" x="574.5" y="-106" font-family="Helvetica,sans-Serif" font-size="10.00">tree.CommandNode.evaluate</text>
<text text-anchor="middle" x="646" y="-95" font-family="Helvetica,sans-Serif" font-size="10.00">Turtles</text>
</a>
</g>
</g>
<!-- Node3&#45;&gt;Node6 -->
<g id="edge5" class="edge"><title>Node3&#45;&gt;Node6</title>
<path fill="none" stroke="midnightblue" d="M491.721,-136.457C513.636,-131.673 540.857,-125.732 566.251,-120.189"/>
<polygon fill="midnightblue" stroke="midnightblue" points="567.227,-123.558 576.25,-118.006 565.734,-116.719 567.227,-123.558"/>
</g>
<!-- Node7 -->
<g id="node7" class="node"><title>Node7</title>
<g id="a_node7"><a xlink:href="../../d7/d99/classtree_1_1_command_node.html#a69bfa124214fd3236c99901925a5f055" target="_top" xlink:title="tree.CommandNode.checkParameters">
<polygon fill="white" stroke="black" points="764.5,-93.5 764.5,-112.5 965.5,-112.5 965.5,-93.5 764.5,-93.5"/>
<text text-anchor="middle" x="865" y="-100.5" font-family="Helvetica,sans-Serif" font-size="10.00">tree.CommandNode.checkParameters</text>
</a>
</g>
</g>
<!-- Node6&#45;&gt;Node7 -->
<g id="edge6" class="edge"><title>Node6&#45;&gt;Node7</title>
<path fill="none" stroke="midnightblue" d="M725.649,-103C735.011,-103 744.695,-103 754.39,-103"/>
<polygon fill="midnightblue" stroke="midnightblue" points="754.486,-106.5 764.486,-103 754.486,-99.5001 754.486,-106.5"/>
</g>
<!-- Node8 -->
<g id="node8" class="node"><title>Node8</title>
<g id="a_node8"><a xlink:href="../../d7/d99/classtree_1_1_command_node.html#a217a1626d7815f8121a2224ddf7af40f" target="_top" xlink:title="tree.CommandNode.throwParameters\lException">
<polygon fill="white" stroke="black" points="1002,-88 1002,-118 1202,-118 1202,-88 1002,-88"/>
<text text-anchor="start" x="1010" y="-106" font-family="Helvetica,sans-Serif" font-size="10.00">tree.CommandNode.throwParameters</text>
<text text-anchor="middle" x="1102" y="-95" font-family="Helvetica,sans-Serif" font-size="10.00">Exception</text>
</a>
</g>
</g>
<!-- Node7&#45;&gt;Node8 -->
<g id="edge7" class="edge"><title>Node7&#45;&gt;Node8</title>
<path fill="none" stroke="midnightblue" d="M965.661,-103C974.293,-103 983.056,-103 991.758,-103"/>
<polygon fill="midnightblue" stroke="midnightblue" points="991.935,-106.5 1001.93,-103 991.935,-99.5001 991.935,-106.5"/>
</g>
<!-- Node10&#45;&gt;Node11 -->
<g id="edge10" class="edge"><title>Node10&#45;&gt;Node11</title>
<path fill="none" stroke="midnightblue" d="M515.245,-43.9808C532.11,-40.214 550.339,-36.1426 567.653,-32.2756"/>
<polygon fill="midnightblue" stroke="midnightblue" points="568.727,-35.6219 577.724,-30.0262 567.201,-28.7902 568.727,-35.6219"/>
</g>
<!-- Node12 -->
<g id="node12" class="node"><title>Node12</title>
<g id="a_node12"><a xlink:href="../../da/d49/classtree_1_1_tree_node.html#ae2e063fcfef13edf72b6b513c5369a4f" target="_top" xlink:title="tree.TreeNode.evaluate">
<polygon fill="white" stroke="black" points="582,-49.5 582,-68.5 710,-68.5 710,-49.5 582,-49.5"/>
<text text-anchor="middle" x="646" y="-56.5" font-family="Helvetica,sans-Serif" font-size="10.00">tree.TreeNode.evaluate</text>
</a>
</g>
</g>
<!-- Node10&#45;&gt;Node12 -->
<g id="edge11" class="edge"><title>Node10&#45;&gt;Node12</title>
<path fill="none" stroke="midnightblue" d="M524.729,-59C540.091,-59 556.196,-59 571.447,-59"/>
<polygon fill="midnightblue" stroke="midnightblue" points="571.849,-62.5001 581.849,-59 571.849,-55.5001 571.849,-62.5001"/>
</g>
</g>
</svg>
