<?xml version="1.0" encoding="UTF-8" standalone="no"?>
<!DOCTYPE svg PUBLIC "-//W3C//DTD SVG 1.1//EN"
 "http://www.w3.org/Graphics/SVG/1.1/DTD/svg11.dtd">
<!-- Generated by graphviz version 2.36.0 (20140111.2315)
 -->
<!-- Title: commands.If.evaluateCommand Pages: 1 -->
<svg width="1054pt" height="214pt"
 viewBox="0.00 0.00 1054.00 214.00" xmlns="http://www.w3.org/2000/svg" xmlns:xlink="http://www.w3.org/1999/xlink">
<g id="graph0" class="graph" transform="scale(1 1) rotate(0) translate(4 210)">
<title>commands.If.evaluateCommand</title>
<polygon fill="white" stroke="none" points="-4,4 -4,-210 1050,-210 1050,4 -4,4"/>
<!-- Node1 -->
<g id="node1" class="node"><title>Node1</title>
<polygon fill="#bfbfbf" stroke="black" points="0.5,-96.5 0.5,-115.5 173.5,-115.5 173.5,-96.5 0.5,-96.5"/>
<text text-anchor="middle" x="87" y="-103.5" font-family="Helvetica,sans-Serif" font-size="10.00">commands.If.evaluateCommand</text>
</g>
<!-- Node2 -->
<g id="node2" class="node"><title>Node2</title>
<g id="a_node2"><a xlink:href="../../d7/d99/classtree_1_1_command_node.html#a5bebc2f70e6e3486c403b9cdb0ce04cb" target="_top" xlink:title="tree.CommandNode.evaluate">
<polygon fill="white" stroke="black" points="211.5,-138.5 211.5,-157.5 370.5,-157.5 370.5,-138.5 211.5,-138.5"/>
<text text-anchor="middle" x="291" y="-145.5" font-family="Helvetica,sans-Serif" font-size="10.00">tree.CommandNode.evaluate</text>
</a>
</g>
</g>
<!-- Node1&#45;&gt;Node2 -->
<g id="edge1" class="edge"><title>Node1&#45;&gt;Node2</title>
<path fill="none" stroke="midnightblue" d="M133.837,-115.53C163.562,-121.711 202.483,-129.803 234.032,-136.363"/>
<polygon fill="midnightblue" stroke="midnightblue" points="233.492,-139.826 243.995,-138.435 234.917,-132.972 233.492,-139.826"/>
</g>
<!-- Node8 -->
<g id="node8" class="node"><title>Node8</title>
<g id="a_node8"><a xlink:href="../../d7/d99/classtree_1_1_command_node.html#ae60b1b2f861235627eb90a0d1fa25814" target="_top" xlink:title="tree.CommandNode.getModel">
<polygon fill="white" stroke="black" points="210,-96.5 210,-115.5 372,-115.5 372,-96.5 210,-96.5"/>
<text text-anchor="middle" x="291" y="-103.5" font-family="Helvetica,sans-Serif" font-size="10.00">tree.CommandNode.getModel</text>
</a>
</g>
</g>
<!-- Node1&#45;&gt;Node8 -->
<g id="edge7" class="edge"><title>Node1&#45;&gt;Node8</title>
<path fill="none" stroke="midnightblue" d="M173.666,-106C182.322,-106 191.132,-106 199.834,-106"/>
<polygon fill="midnightblue" stroke="midnightblue" points="199.983,-109.5 209.983,-106 199.983,-102.5 199.983,-109.5"/>
</g>
<!-- Node9 -->
<g id="node9" class="node"><title>Node9</title>
<g id="a_node9"><a xlink:href="../../d7/d99/classtree_1_1_command_node.html#a7812a5927c35af83e5f65508fc0a0236" target="_top" xlink:title="tree.CommandNode.getRoot\lNodes">
<polygon fill="white" stroke="black" points="213.5,-39 213.5,-69 368.5,-69 368.5,-39 213.5,-39"/>
<text text-anchor="start" x="221.5" y="-57" font-family="Helvetica,sans-Serif" font-size="10.00">tree.CommandNode.getRoot</text>
<text text-anchor="middle" x="291" y="-46" font-family="Helvetica,sans-Serif" font-size="10.00">Nodes</text>
</a>
</g>
</g>
<!-- Node1&#45;&gt;Node9 -->
<g id="edge8" class="edge"><title>Node1&#45;&gt;Node9</title>
<path fill="none" stroke="midnightblue" d="M125.05,-96.4624C151.99,-89.5272 189.243,-79.9375 221.53,-71.6259"/>
<polygon fill="midnightblue" stroke="midnightblue" points="222.562,-74.9744 231.374,-69.0918 220.817,-68.1954 222.562,-74.9744"/>
</g>
<!-- Node3 -->
<g id="node3" class="node"><title>Node3</title>
<g id="a_node3"><a xlink:href="../../dd/d17/classapplication_1_1_model.html#aa7ed87b9bf32630ff3c5b771feb6a67a" target="_top" xlink:title="application.Model.getTurtleList">
<polygon fill="white" stroke="black" points="409.5,-186.5 409.5,-205.5 570.5,-205.5 570.5,-186.5 409.5,-186.5"/>
<text text-anchor="middle" x="490" y="-193.5" font-family="Helvetica,sans-Serif" font-size="10.00">application.Model.getTurtleList</text>
</a>
</g>
</g>
<!-- Node2&#45;&gt;Node3 -->
<g id="edge2" class="edge"><title>Node2&#45;&gt;Node3</title>
<path fill="none" stroke="midnightblue" d="M331.392,-157.598C362.53,-165.185 406.174,-175.819 439.641,-183.973"/>
<polygon fill="midnightblue" stroke="midnightblue" points="439.132,-187.452 449.676,-186.418 440.789,-180.651 439.132,-187.452"/>
</g>
<!-- Node4 -->
<g id="node4" class="node"><title>Node4</title>
<g id="a_node4"><a xlink:href="../../d1/deb/classapplication_1_1_turtle_list.html#a87d2c5ddc9378480e8b4bfa5e95b5629" target="_top" xlink:title="application.TurtleList.get\lActiveTurtles">
<polygon fill="white" stroke="black" points="424,-137 424,-167 556,-167 556,-137 424,-137"/>
<text text-anchor="start" x="432" y="-155" font-family="Helvetica,sans-Serif" font-size="10.00">application.TurtleList.get</text>
<text text-anchor="middle" x="490" y="-144" font-family="Helvetica,sans-Serif" font-size="10.00">ActiveTurtles</text>
</a>
</g>
</g>
<!-- Node2&#45;&gt;Node4 -->
<g id="edge3" class="edge"><title>Node2&#45;&gt;Node4</title>
<path fill="none" stroke="midnightblue" d="M370.709,-149.598C384.852,-149.885 399.564,-150.184 413.61,-150.469"/>
<polygon fill="midnightblue" stroke="midnightblue" points="413.634,-153.97 423.703,-150.674 413.776,-146.972 413.634,-153.97"/>
</g>
<!-- Node5 -->
<g id="node5" class="node"><title>Node5</title>
<g id="a_node5"><a xlink:href="../../d7/d99/classtree_1_1_command_node.html#a4bf51af9a3fc4eecf4e2b0e2dceb1a2e" target="_top" xlink:title="tree.CommandNode.evaluate\lTurtles">
<polygon fill="white" stroke="black" points="410.5,-88 410.5,-118 569.5,-118 569.5,-88 410.5,-88"/>
<text text-anchor="start" x="418.5" y="-106" font-family="Helvetica,sans-Serif" font-size="10.00">tree.CommandNode.evaluate</text>
<text text-anchor="middle" x="490" y="-95" font-family="Helvetica,sans-Serif" font-size="10.00">Turtles</text>
</a>
</g>
</g>
<!-- Node2&#45;&gt;Node5 -->
<g id="edge4" class="edge"><title>Node2&#45;&gt;Node5</title>
<path fill="none" stroke="midnightblue" d="M333.779,-138.457C356.915,-133.172 386.384,-126.44 413.415,-120.266"/>
<polygon fill="midnightblue" stroke="midnightblue" points="414.278,-123.659 423.248,-118.02 412.719,-116.834 414.278,-123.659"/>
</g>
<!-- Node6 -->
<g id="node6" class="node"><title>Node6</title>
<g id="a_node6"><a xlink:href="../../d7/d99/classtree_1_1_command_node.html#a69bfa124214fd3236c99901925a5f055" target="_top" xlink:title="tree.CommandNode.checkParameters">
<polygon fill="white" stroke="black" points="608.5,-93.5 608.5,-112.5 809.5,-112.5 809.5,-93.5 608.5,-93.5"/>
<text text-anchor="middle" x="709" y="-100.5" font-family="Helvetica,sans-Serif" font-size="10.00">tree.CommandNode.checkParameters</text>
</a>
</g>
</g>
<!-- Node5&#45;&gt;Node6 -->
<g id="edge5" class="edge"><title>Node5&#45;&gt;Node6</title>
<path fill="none" stroke="midnightblue" d="M569.649,-103C579.011,-103 588.695,-103 598.39,-103"/>
<polygon fill="midnightblue" stroke="midnightblue" points="598.486,-106.5 608.486,-103 598.486,-99.5001 598.486,-106.5"/>
</g>
<!-- Node7 -->
<g id="node7" class="node"><title>Node7</title>
<g id="a_node7"><a xlink:href="../../d7/d99/classtree_1_1_command_node.html#a217a1626d7815f8121a2224ddf7af40f" target="_top" xlink:title="tree.CommandNode.throwParameters\lException">
<polygon fill="white" stroke="black" points="846,-88 846,-118 1046,-118 1046,-88 846,-88"/>
<text text-anchor="start" x="854" y="-106" font-family="Helvetica,sans-Serif" font-size="10.00">tree.CommandNode.throwParameters</text>
<text text-anchor="middle" x="946" y="-95" font-family="Helvetica,sans-Serif" font-size="10.00">Exception</text>
</a>
</g>
</g>
<!-- Node6&#45;&gt;Node7 -->
<g id="edge6" class="edge"><title>Node6&#45;&gt;Node7</title>
<path fill="none" stroke="midnightblue" d="M809.661,-103C818.293,-103 827.056,-103 835.758,-103"/>
<polygon fill="midnightblue" stroke="midnightblue" points="835.935,-106.5 845.935,-103 835.935,-99.5001 835.935,-106.5"/>
</g>
<!-- Node10 -->
<g id="node10" class="node"><title>Node10</title>
<g id="a_node10"><a xlink:href="../../d7/d99/classtree_1_1_command_node.html#a9f3dd4c2d2489cbbbc7e09e252a8c9a3" target="_top" xlink:title="tree.CommandNode.putObject\lInList">
<polygon fill="white" stroke="black" points="408,-39 408,-69 572,-69 572,-39 408,-39"/>
<text text-anchor="start" x="416" y="-57" font-family="Helvetica,sans-Serif" font-size="10.00">tree.CommandNode.putObject</text>
<text text-anchor="middle" x="490" y="-46" font-family="Helvetica,sans-Serif" font-size="10.00">InList</text>
</a>
</g>
</g>
<!-- Node9&#45;&gt;Node10 -->
<g id="edge9" class="edge"><title>Node9&#45;&gt;Node10</title>
<path fill="none" stroke="midnightblue" d="M368.729,-54C378.271,-54 388.1,-54 397.833,-54"/>
<polygon fill="midnightblue" stroke="midnightblue" points="397.924,-57.5001 407.924,-54 397.924,-50.5001 397.924,-57.5001"/>
</g>
<!-- Node11 -->
<g id="node11" class="node"><title>Node11</title>
<g id="a_node11"><a xlink:href="../../da/d49/classtree_1_1_tree_node.html#ae2e063fcfef13edf72b6b513c5369a4f" target="_top" xlink:title="tree.TreeNode.evaluate">
<polygon fill="white" stroke="black" points="426,-0.5 426,-19.5 554,-19.5 554,-0.5 426,-0.5"/>
<text text-anchor="middle" x="490" y="-7.5" font-family="Helvetica,sans-Serif" font-size="10.00">tree.TreeNode.evaluate</text>
</a>
</g>
</g>
<!-- Node9&#45;&gt;Node11 -->
<g id="edge10" class="edge"><title>Node9&#45;&gt;Node11</title>
<path fill="none" stroke="midnightblue" d="M359.245,-38.9808C384.506,-33.3388 412.826,-27.0136 436.548,-21.7153"/>
<polygon fill="midnightblue" stroke="midnightblue" points="437.414,-25.1081 446.41,-19.5124 435.888,-18.2765 437.414,-25.1081"/>
</g>
</g>
</svg>
