<?xml version="1.0" encoding="UTF-8" standalone="no"?>
<!DOCTYPE svg PUBLIC "-//W3C//DTD SVG 1.1//EN"
 "http://www.w3.org/Graphics/SVG/1.1/DTD/svg11.dtd">
<!-- Generated by graphviz version 2.36.0 (20140111.2315)
 -->
<!-- Title: tree.VariableNode Pages: 1 -->
<svg width="930pt" height="340pt"
 viewBox="0.00 0.00 930.00 340.42" xmlns="http://www.w3.org/2000/svg" xmlns:xlink="http://www.w3.org/1999/xlink">
<g id="graph0" class="graph" transform="scale(1 1) rotate(0) translate(4 336.424)">
<title>tree.VariableNode</title>
<polygon fill="white" stroke="none" points="-4,4 -4,-336.424 926,-336.424 926,4 -4,4"/>
<!-- Node1 -->
<g id="node1" class="node"><title>Node1</title>
<polygon fill="#bfbfbf" stroke="black" points="818.5,-194.924 818.5,-213.924 921.5,-213.924 921.5,-194.924 818.5,-194.924"/>
<text text-anchor="middle" x="870" y="-201.924" font-family="Helvetica,sans-Serif" font-size="10.00">tree.VariableNode</text>
</g>
<!-- Node2 -->
<g id="node2" class="node"><title>Node2</title>
<g id="a_node2"><a xlink:href="../../da/d49/classtree_1_1_tree_node.html" target="_top" xlink:title="tree.TreeNode">
<polygon fill="white" stroke="black" points="566,-207.924 566,-226.924 650,-226.924 650,-207.924 566,-207.924"/>
<text text-anchor="middle" x="608" y="-214.924" font-family="Helvetica,sans-Serif" font-size="10.00">tree.TreeNode</text>
</a>
</g>
</g>
<!-- Node2&#45;&gt;Node1 -->
<g id="edge1" class="edge"><title>Node2&#45;&gt;Node1</title>
<path fill="none" stroke="midnightblue" d="M660.197,-214.864C705.93,-212.577 772.559,-209.246 818.177,-206.965"/>
<polygon fill="midnightblue" stroke="midnightblue" points="660.01,-211.369 650.198,-215.364 660.36,-218.36 660.01,-211.369"/>
</g>
<!-- Node3 -->
<g id="node3" class="node"><title>Node3</title>
<g id="a_node3"><a xlink:href="../../dd/d17/classapplication_1_1_model.html" target="_top" xlink:title="application.Model">
<polygon fill="white" stroke="black" points="558,-147.924 558,-166.924 658,-166.924 658,-147.924 558,-147.924"/>
<text text-anchor="middle" x="608" y="-154.924" font-family="Helvetica,sans-Serif" font-size="10.00">application.Model</text>
</a>
</g>
</g>
<!-- Node3&#45;&gt;Node1 -->
<g id="edge2" class="edge"><title>Node3&#45;&gt;Node1</title>
<path fill="none" stroke="#9a32cd" stroke-dasharray="5,2" d="M668.181,-168.122C713.442,-176.304 775.186,-187.465 818.217,-195.244"/>
<polygon fill="#9a32cd" stroke="#9a32cd" points="668.673,-164.654 658.21,-166.319 667.428,-171.542 668.673,-164.654"/>
<text text-anchor="middle" x="747" y="-195.424" font-family="Helvetica,sans-Serif" font-size="10.00"> myModel</text>
</g>
<!-- Node15 -->
<g id="node15" class="node"><title>Node15</title>
<g id="a_node15"><a xlink:href="../../dc/d9e/classapplication_1_1_parser.html" target="_top" xlink:title="application.Parser">
<polygon fill="white" stroke="black" points="819.5,-90.9237 819.5,-109.924 920.5,-109.924 920.5,-90.9237 819.5,-90.9237"/>
<text text-anchor="middle" x="870" y="-97.9237" font-family="Helvetica,sans-Serif" font-size="10.00">application.Parser</text>
</a>
</g>
</g>
<!-- Node3&#45;&gt;Node15 -->
<g id="edge18" class="edge"><title>Node3&#45;&gt;Node15</title>
<path fill="none" stroke="#9a32cd" stroke-dasharray="5,2" d="M668.683,-155.966C706.91,-153.718 757.195,-148.293 800,-135.424 819.681,-129.507 840.483,-118.161 854.037,-109.988"/>
<polygon fill="#9a32cd" stroke="#9a32cd" points="668.038,-152.495 658.237,-156.52 668.408,-159.486 668.038,-152.495"/>
<text text-anchor="middle" x="747" y="-157.424" font-family="Helvetica,sans-Serif" font-size="10.00"> myModel</text>
</g>
<!-- Node4 -->
<g id="node4" class="node"><title>Node4</title>
<polygon fill="white" stroke="#bfbfbf" points="292,-312.924 292,-331.924 352,-331.924 352,-312.924 292,-312.924"/>
<text text-anchor="middle" x="322" y="-319.924" font-family="Helvetica,sans-Serif" font-size="10.00">Observer</text>
</g>
<!-- Node4&#45;&gt;Node3 -->
<g id="edge3" class="edge"><title>Node4&#45;&gt;Node3</title>
<path fill="none" stroke="midnightblue" d="M362.048,-329.091C406.831,-334.317 479.524,-335.007 522,-294.424 553.387,-264.435 515.364,-234.166 540,-198.424 549.984,-183.939 566.919,-173.642 581.264,-166.989"/>
<polygon fill="midnightblue" stroke="midnightblue" points="362.485,-325.618 352.118,-327.804 361.586,-332.56 362.485,-325.618"/>
</g>
<!-- Node5 -->
<g id="node5" class="node"><title>Node5</title>
<polygon fill="white" stroke="#bfbfbf" points="279,-274.924 279,-293.924 365,-293.924 365,-274.924 279,-274.924"/>
<text text-anchor="middle" x="322" y="-281.924" font-family="Helvetica,sans-Serif" font-size="10.00">StringProperty</text>
</g>
<!-- Node5&#45;&gt;Node3 -->
<g id="edge4" class="edge"><title>Node5&#45;&gt;Node3</title>
<path fill="none" stroke="#9a32cd" stroke-dasharray="5,2" d="M375.51,-284.278C419.175,-281.524 480.648,-271.218 522,-237.424 536.782,-225.343 527.312,-212.687 540,-198.424 552.236,-184.669 570.199,-174.019 584.446,-167.025"/>
<polygon fill="#9a32cd" stroke="#9a32cd" points="375.177,-280.79 365.371,-284.803 375.539,-287.781 375.177,-280.79"/>
<text text-anchor="middle" x="470" y="-282.424" font-family="Helvetica,sans-Serif" font-size="10.00"> errorMsg</text>
</g>
<!-- Node6 -->
<g id="node6" class="node"><title>Node6</title>
<polygon fill="white" stroke="#bfbfbf" points="26.5,-204.924 26.5,-223.924 117.5,-223.924 117.5,-204.924 26.5,-204.924"/>
<text text-anchor="middle" x="72" y="-211.924" font-family="Helvetica,sans-Serif" font-size="10.00">DoubleProperty</text>
</g>
<!-- Node6&#45;&gt;Node3 -->
<g id="edge5" class="edge"><title>Node6&#45;&gt;Node3</title>
<path fill="none" stroke="#9a32cd" stroke-dasharray="5,2" d="M127.738,-215.763C212.963,-216.761 382.115,-214.373 522,-185.424 542.996,-181.079 566.056,-173.282 582.853,-167.017"/>
<polygon fill="#9a32cd" stroke="#9a32cd" points="127.568,-212.261 117.521,-215.622 127.472,-219.26 127.568,-212.261"/>
<text text-anchor="middle" x="322" y="-239.424" font-family="Helvetica,sans-Serif" font-size="10.00"> penSize</text>
<text text-anchor="middle" x="322" y="-228.424" font-family="Helvetica,sans-Serif" font-size="10.00">penColor</text>
<text text-anchor="middle" x="322" y="-217.424" font-family="Helvetica,sans-Serif" font-size="10.00">background</text>
</g>
<!-- Node8 -->
<g id="node8" class="node"><title>Node8</title>
<g id="a_node8"><a xlink:href="../../d1/deb/classapplication_1_1_turtle_list.html" target="_top" xlink:title="application.TurtleList">
<polygon fill="white" stroke="black" points="265.5,-167.924 265.5,-186.924 378.5,-186.924 378.5,-167.924 265.5,-167.924"/>
<text text-anchor="middle" x="322" y="-174.924" font-family="Helvetica,sans-Serif" font-size="10.00">application.TurtleList</text>
</a>
</g>
</g>
<!-- Node6&#45;&gt;Node8 -->
<g id="edge8" class="edge"><title>Node6&#45;&gt;Node8</title>
<path fill="none" stroke="#9a32cd" stroke-dasharray="5,2" d="M127.909,-204.139C139.169,-202.146 150.955,-200.145 162,-198.424 196.252,-193.086 234.795,-187.973 265.353,-184.129"/>
<polygon fill="#9a32cd" stroke="#9a32cd" points="126.978,-200.75 117.752,-205.958 128.212,-207.64 126.978,-200.75"/>
<text text-anchor="middle" x="194" y="-201.424" font-family="Helvetica,sans-Serif" font-size="10.00"> newID</text>
</g>
<!-- Node7 -->
<g id="node7" class="node"><title>Node7</title>
<polygon fill="white" stroke="#bfbfbf" points="244.5,-118.424 244.5,-148.424 399.5,-148.424 399.5,-118.424 244.5,-118.424"/>
<text text-anchor="start" x="252.5" y="-136.424" font-family="Helvetica,sans-Serif" font-size="10.00">Map&lt; String, tree.Command</text>
<text text-anchor="middle" x="322" y="-125.424" font-family="Helvetica,sans-Serif" font-size="10.00">Node &gt;</text>
</g>
<!-- Node7&#45;&gt;Node3 -->
<g id="edge6" class="edge"><title>Node7&#45;&gt;Node3</title>
<path fill="none" stroke="#9a32cd" stroke-dasharray="5,2" d="M409.971,-131.946C444.902,-132.305 485.474,-133.926 522,-138.424 538.509,-140.456 556.524,-144.25 571.703,-147.916"/>
<polygon fill="#9a32cd" stroke="#9a32cd" points="409.825,-128.445 399.8,-131.875 409.776,-135.445 409.825,-128.445"/>
<text text-anchor="middle" x="470" y="-152.424" font-family="Helvetica,sans-Serif" font-size="10.00"> myCommandHistory</text>
<text text-anchor="middle" x="470" y="-141.424" font-family="Helvetica,sans-Serif" font-size="10.00">myUserCommands</text>
</g>
<!-- Node8&#45;&gt;Node3 -->
<g id="edge7" class="edge"><title>Node8&#45;&gt;Node3</title>
<path fill="none" stroke="#9a32cd" stroke-dasharray="5,2" d="M388.834,-172.787C440.488,-169.15 511.24,-164.167 557.991,-160.875"/>
<polygon fill="#9a32cd" stroke="#9a32cd" points="388.5,-169.302 378.77,-173.496 388.992,-176.285 388.5,-169.302"/>
<text text-anchor="middle" x="470" y="-173.424" font-family="Helvetica,sans-Serif" font-size="10.00"> myTurtleList</text>
</g>
<!-- Node9 -->
<g id="node9" class="node"><title>Node9</title>
<polygon fill="white" stroke="#bfbfbf" points="6.5,-109.424 6.5,-139.424 137.5,-139.424 137.5,-109.424 6.5,-109.424"/>
<text text-anchor="start" x="14.5" y="-127.424" font-family="Helvetica,sans-Serif" font-size="10.00">Map&lt; application.Turtle,</text>
<text text-anchor="middle" x="72" y="-116.424" font-family="Helvetica,sans-Serif" font-size="10.00"> Double &gt;</text>
</g>
<!-- Node9&#45;&gt;Node8 -->
<g id="edge9" class="edge"><title>Node9&#45;&gt;Node8</title>
<path fill="none" stroke="#9a32cd" stroke-dasharray="5,2" d="M147.908,-131.488C173.108,-135.093 201.129,-140.467 226,-148.424 234.519,-151.149 235.626,-154.282 244,-157.424 254.733,-161.45 266.601,-164.968 277.739,-167.884"/>
<polygon fill="#9a32cd" stroke="#9a32cd" points="148.048,-127.975 137.667,-130.096 147.105,-134.911 148.048,-127.975"/>
<text text-anchor="middle" x="194" y="-151.424" font-family="Helvetica,sans-Serif" font-size="10.00"> IDMap</text>
</g>
<!-- Node10 -->
<g id="node10" class="node"><title>Node10</title>
<polygon fill="white" stroke="#bfbfbf" points="0.5,-60.4237 0.5,-90.4237 143.5,-90.4237 143.5,-60.4237 0.5,-60.4237"/>
<text text-anchor="start" x="8.5" y="-78.4237" font-family="Helvetica,sans-Serif" font-size="10.00">Map&lt; Double, application.</text>
<text text-anchor="middle" x="72" y="-67.4237" font-family="Helvetica,sans-Serif" font-size="10.00">Turtle &gt;</text>
</g>
<!-- Node10&#45;&gt;Node8 -->
<g id="edge10" class="edge"><title>Node10&#45;&gt;Node8</title>
<path fill="none" stroke="#9a32cd" stroke-dasharray="5,2" d="M153.713,-85.325C179.082,-91.7131 205.731,-102.204 226,-119.424 240.242,-131.523 229.602,-145.51 244,-157.424 250.172,-162.531 257.499,-166.35 265.142,-169.203"/>
<polygon fill="#9a32cd" stroke="#9a32cd" points="154.23,-81.8517 143.697,-82.9919 152.642,-88.6692 154.23,-81.8517"/>
<text text-anchor="middle" x="194" y="-122.424" font-family="Helvetica,sans-Serif" font-size="10.00"> TurtleMap</text>
</g>
<!-- Node11 -->
<g id="node11" class="node"><title>Node11</title>
<polygon fill="white" stroke="#bfbfbf" points="4,-158.924 4,-177.924 140,-177.924 140,-158.924 4,-158.924"/>
<text text-anchor="middle" x="72" y="-165.924" font-family="Helvetica,sans-Serif" font-size="10.00">List&lt; application.Turtle &gt;</text>
</g>
<!-- Node11&#45;&gt;Node8 -->
<g id="edge11" class="edge"><title>Node11&#45;&gt;Node8</title>
<path fill="none" stroke="#9a32cd" stroke-dasharray="5,2" d="M150.102,-164.745C154.125,-164.62 158.11,-164.511 162,-164.424 190.437,-163.785 197.621,-162.491 226,-164.424 238.788,-165.295 252.478,-166.818 265.371,-168.522"/>
<polygon fill="#9a32cd" stroke="#9a32cd" points="149.928,-161.249 140.053,-165.087 150.166,-168.245 149.928,-161.249"/>
<text text-anchor="middle" x="194" y="-167.424" font-family="Helvetica,sans-Serif" font-size="10.00"> myActiveList</text>
</g>
<!-- Node12 -->
<g id="node12" class="node"><title>Node12</title>
<polygon fill="white" stroke="#bfbfbf" points="274,-79.9237 274,-98.9237 370,-98.9237 370,-79.9237 274,-79.9237"/>
<text text-anchor="middle" x="322" y="-86.9237" font-family="Helvetica,sans-Serif" font-size="10.00">BooleanProperty</text>
</g>
<!-- Node12&#45;&gt;Node3 -->
<g id="edge12" class="edge"><title>Node12&#45;&gt;Node3</title>
<path fill="none" stroke="#9a32cd" stroke-dasharray="5,2" d="M380.248,-87.5309C420.762,-87.8099 475.868,-91.5029 522,-106.424 550.491,-115.639 579.52,-135.888 595.193,-147.914"/>
<polygon fill="#9a32cd" stroke="#9a32cd" points="380.015,-84.0309 370.015,-87.5304 380.015,-91.0309 380.015,-84.0309"/>
<text text-anchor="middle" x="470" y="-120.424" font-family="Helvetica,sans-Serif" font-size="10.00"> clearStamp</text>
<text text-anchor="middle" x="470" y="-109.424" font-family="Helvetica,sans-Serif" font-size="10.00">clearScreen</text>
</g>
<!-- Node13 -->
<g id="node13" class="node"><title>Node13</title>
<polygon fill="white" stroke="#bfbfbf" points="248.5,-41.9237 248.5,-60.9237 395.5,-60.9237 395.5,-41.9237 248.5,-41.9237"/>
<text text-anchor="middle" x="322" y="-48.9237" font-family="Helvetica,sans-Serif" font-size="10.00">ObjectProperty&lt; double[]&gt;</text>
</g>
<!-- Node13&#45;&gt;Node3 -->
<g id="edge13" class="edge"><title>Node13&#45;&gt;Node3</title>
<path fill="none" stroke="#9a32cd" stroke-dasharray="5,2" d="M405.61,-45.3899C443.598,-46.3506 487.724,-53.0649 522,-74.4237 534.556,-82.2477 530.163,-91.3738 540,-102.424 556.111,-120.521 578.457,-137.609 592.824,-147.799"/>
<polygon fill="#9a32cd" stroke="#9a32cd" points="405.628,-41.89 395.585,-45.2639 405.54,-48.8894 405.628,-41.89"/>
<text text-anchor="middle" x="470" y="-77.4237" font-family="Helvetica,sans-Serif" font-size="10.00"> pallet</text>
</g>
<!-- Node14 -->
<g id="node14" class="node"><title>Node14</title>
<polygon fill="white" stroke="#bfbfbf" points="258,-3.92366 258,-22.9237 386,-22.9237 386,-3.92366 258,-3.92366"/>
<text text-anchor="middle" x="322" y="-10.9237" font-family="Helvetica,sans-Serif" font-size="10.00">Map&lt; String, Double &gt;</text>
</g>
<!-- Node14&#45;&gt;Node3 -->
<g id="edge14" class="edge"><title>Node14&#45;&gt;Node3</title>
<path fill="none" stroke="#9a32cd" stroke-dasharray="5,2" d="M378.126,-2.58554C422.177,2.71367 482.828,1.99836 522,-31.4237 546.765,-52.5533 522.546,-74.9442 540,-102.424 552.587,-122.241 574.713,-138.329 590.079,-147.875"/>
<polygon fill="#9a32cd" stroke="#9a32cd" points="377.599,0.875246 368.152,-3.92075 378.528,-6.06286 377.599,0.875246"/>
<text text-anchor="middle" x="470" y="-34.4237" font-family="Helvetica,sans-Serif" font-size="10.00"> variableMap</text>
</g>
<!-- Node15&#45;&gt;Node3 -->
<g id="edge15" class="edge"><title>Node15&#45;&gt;Node3</title>
<path fill="none" stroke="#9a32cd" stroke-dasharray="5,2" d="M809.095,-105.14C774.982,-108.692 731.666,-114.673 694,-124.424 671.319,-130.295 646.454,-140.407 629.51,-147.894"/>
<polygon fill="#9a32cd" stroke="#9a32cd" points="809.767,-108.59 819.37,-104.114 809.072,-101.625 809.767,-108.59"/>
<text text-anchor="middle" x="747" y="-127.424" font-family="Helvetica,sans-Serif" font-size="10.00"> myParser</text>
</g>
<!-- Node16 -->
<g id="node16" class="node"><title>Node16</title>
<polygon fill="white" stroke="#bfbfbf" points="540.5,-63.4237 540.5,-93.4237 675.5,-93.4237 675.5,-63.4237 540.5,-63.4237"/>
<text text-anchor="start" x="548.5" y="-81.4237" font-family="Helvetica,sans-Serif" font-size="10.00">List&lt; Map.Entry&lt; String,</text>
<text text-anchor="middle" x="608" y="-70.4237" font-family="Helvetica,sans-Serif" font-size="10.00"> Pattern &gt; &gt;</text>
</g>
<!-- Node16&#45;&gt;Node15 -->
<g id="edge16" class="edge"><title>Node16&#45;&gt;Node15</title>
<path fill="none" stroke="#9a32cd" stroke-dasharray="5,2" d="M685.819,-73.7743C720.83,-72.9476 762.699,-73.7733 800,-79.4237 814.857,-81.6741 830.946,-86.4291 843.849,-90.846"/>
<polygon fill="#9a32cd" stroke="#9a32cd" points="685.558,-70.2802 675.662,-74.0643 685.758,-77.2774 685.558,-70.2802"/>
<text text-anchor="middle" x="747" y="-93.4237" font-family="Helvetica,sans-Serif" font-size="10.00"> mySyntaxPatterns</text>
<text text-anchor="middle" x="747" y="-82.4237" font-family="Helvetica,sans-Serif" font-size="10.00">myCommandPatterns</text>
</g>
<!-- Node17 -->
<g id="node17" class="node"><title>Node17</title>
<g id="a_node17"><a xlink:href="../../d5/d4b/classtree_1_1_tree_builder.html" target="_top" xlink:title="tree.TreeBuilder">
<polygon fill="white" stroke="black" points="562,-24.9237 562,-43.9237 654,-43.9237 654,-24.9237 562,-24.9237"/>
<text text-anchor="middle" x="608" y="-31.9237" font-family="Helvetica,sans-Serif" font-size="10.00">tree.TreeBuilder</text>
</a>
</g>
</g>
<!-- Node17&#45;&gt;Node15 -->
<g id="edge17" class="edge"><title>Node17&#45;&gt;Node15</title>
<path fill="none" stroke="#9a32cd" stroke-dasharray="5,2" d="M664.247,-35.7635C703.135,-38.1119 755.903,-44.164 800,-59.4237 821.333,-66.8057 843.297,-81.2634 856.551,-90.8854"/>
<polygon fill="#9a32cd" stroke="#9a32cd" points="664.345,-32.2638 654.171,-35.2188 663.967,-39.2536 664.345,-32.2638"/>
<text text-anchor="middle" x="747" y="-62.4237" font-family="Helvetica,sans-Serif" font-size="10.00"> myTreeBuilder</text>
</g>
</g>
</svg>
