<?xml version="1.0" encoding="UTF-8" standalone="no"?>
<!DOCTYPE svg PUBLIC "-//W3C//DTD SVG 1.1//EN"
 "http://www.w3.org/Graphics/SVG/1.1/DTD/svg11.dtd">
<!-- Generated by graphviz version 2.36.0 (20140111.2315)
 -->
<!-- Title: commands.IfElse.function Pages: 1 -->
<!--zoomable 214 -->
<svg id="main" version="1.1" xmlns="http://www.w3.org/2000/svg" xmlns:xlink="http://www.w3.org/1999/xlink" xml:space="preserve" onload="init(evt)">
<style type="text/css"><![CDATA[
.edge:hover path { stroke: red; }
.edge:hover polygon { stroke: red; fill: red; }
]]></style>
<script type="text/javascript"><![CDATA[
var edges = document.getElementsByTagName('g');
if (edges && edges.length) {
  for (var i=0;i<edges.length;i++) {
    if (edges[i].id.substr(0,4)=='edge') {
      edges[i].setAttribute('class','edge');
    }
  }
}
]]></script>
        <defs>
                <circle id="rim" cx="0" cy="0" r="7"/>
                <circle id="rim2" cx="0" cy="0" r="3.5"/>
                <g id="zoomPlus">
                        <use xlink:href="#rim" fill="#404040">
                                <set attributeName="fill" to="#808080" begin="zoomplus.mouseover" end="zoomplus.mouseout"/>
                        </use>
                        <path d="M-4,0h8M0,-4v8" fill="none" stroke="white" stroke-width="1.5" pointer-events="none"/>
                </g>
                <g id="zoomMin">
                        <use xlink:href="#rim" fill="#404040">
                                <set attributeName="fill" to="#808080" begin="zoomminus.mouseover" end="zoomminus.mouseout"/>
                        </use>
                        <path d="M-4,0h8" fill="none" stroke="white" stroke-width="1.5" pointer-events="none"/>
                </g>
                <g id="dirArrow">
                        <path fill="none" stroke="white" stroke-width="1.5" d="M0,-3.0v7 M-2.5,-0.5L0,-3.0L2.5,-0.5"/>
                </g>
               <g id="resetDef">
                       <use xlink:href="#rim2" fill="#404040">
                               <set attributeName="fill" to="#808080" begin="reset.mouseover" end="reset.mouseout"/>
                       </use>
               </g>
        </defs>

<script type="text/javascript">
var viewWidth = 1230;
var viewHeight = 214;
var sectionId = 'dynsection-3';
</script>
<script xlink:href="../../svgpan.js"/>
<svg id="graph" class="graph">
<g id="viewport">
<title>commands.IfElse.function</title>
<polygon fill="white" stroke="none" points="-4,4 -4,-210 1226,-210 1226,4 -4,4"/>
<!-- Node1 -->
<g id="node1" class="node"><title>Node1</title>
<polygon fill="#bfbfbf" stroke="black" points="0,-38.5 0,-57.5 140,-57.5 140,-38.5 0,-38.5"/>
<text text-anchor="middle" x="70" y="-45.5" font-family="Helvetica,sans-Serif" font-size="10.00">commands.IfElse.function</text>
</g>
<!-- Node2 -->
<g id="node2" class="node"><title>Node2</title>
<g id="a_node2"><a xlink:href="../../dd/dec/classcommands_1_1_if.html#af4992935265deb1e4759cd6579da4680" target="_top" xlink:title="commands.If.evaluateCommand">
<polygon fill="white" stroke="black" points="176.5,-71.5 176.5,-90.5 349.5,-90.5 349.5,-71.5 176.5,-71.5"/>
<text text-anchor="middle" x="263" y="-78.5" font-family="Helvetica,sans-Serif" font-size="10.00">commands.If.evaluateCommand</text>
</a>
</g>
</g>
<!-- Node1&#45;&gt;Node2 -->
<g id="edge1" class="edge"><title>Node1&#45;&gt;Node2</title>
<path fill="none" stroke="midnightblue" d="M125.989,-57.5007C148.069,-61.3155 173.695,-65.7431 196.711,-69.7198"/>
<polygon fill="midnightblue" stroke="midnightblue" points="196.288,-73.1984 206.738,-71.4521 197.48,-66.3006 196.288,-73.1984"/>
</g>
<!-- Node11 -->
<g id="node11" class="node"><title>Node11</title>
<g id="a_node11"><a xlink:href="../../d7/d99/classtree_1_1_command_node.html#a9f3dd4c2d2489cbbbc7e09e252a8c9a3" target="_top" xlink:title="tree.CommandNode.putObject\lInList">
<polygon fill="white" stroke="black" points="584,-0 584,-30 748,-30 748,-0 584,-0"/>
<text text-anchor="start" x="592" y="-18" font-family="Helvetica,sans-Serif" font-size="10.00">tree.CommandNode.putObject</text>
<text text-anchor="middle" x="666" y="-7" font-family="Helvetica,sans-Serif" font-size="10.00">InList</text>
</a>
</g>
</g>
<!-- Node1&#45;&gt;Node11 -->
<g id="edge12" class="edge"><title>Node1&#45;&gt;Node11</title>
<path fill="none" stroke="midnightblue" d="M140.011,-44.1661C247.248,-38.2085 453.964,-26.7242 573.516,-20.0824"/>
<polygon fill="midnightblue" stroke="midnightblue" points="573.952,-23.5637 583.743,-19.5143 573.564,-16.5745 573.952,-23.5637"/>
</g>
<!-- Node3 -->
<g id="node3" class="node"><title>Node3</title>
<g id="a_node3"><a xlink:href="../../d7/d99/classtree_1_1_command_node.html#a5bebc2f70e6e3486c403b9cdb0ce04cb" target="_top" xlink:title="tree.CommandNode.evaluate">
<polygon fill="white" stroke="black" points="387.5,-136.5 387.5,-155.5 546.5,-155.5 546.5,-136.5 387.5,-136.5"/>
<text text-anchor="middle" x="467" y="-143.5" font-family="Helvetica,sans-Serif" font-size="10.00">tree.CommandNode.evaluate</text>
</a>
</g>
</g>
<!-- Node2&#45;&gt;Node3 -->
<g id="edge2" class="edge"><title>Node2&#45;&gt;Node3</title>
<path fill="none" stroke="midnightblue" d="M291.534,-90.54C316.206,-99.0197 353.42,-111.641 386,-122 398.091,-125.844 411.263,-129.865 423.364,-133.491"/>
<polygon fill="midnightblue" stroke="midnightblue" points="422.647,-136.93 433.23,-136.433 424.647,-130.221 422.647,-136.93"/>
</g>
<!-- Node9 -->
<g id="node9" class="node"><title>Node9</title>
<g id="a_node9"><a xlink:href="../../d7/d99/classtree_1_1_command_node.html#ae60b1b2f861235627eb90a0d1fa25814" target="_top" xlink:title="tree.CommandNode.getModel">
<polygon fill="white" stroke="black" points="386,-93.5 386,-112.5 548,-112.5 548,-93.5 386,-93.5"/>
<text text-anchor="middle" x="467" y="-100.5" font-family="Helvetica,sans-Serif" font-size="10.00">tree.CommandNode.getModel</text>
</a>
</g>
</g>
<!-- Node2&#45;&gt;Node9 -->
<g id="edge8" class="edge"><title>Node2&#45;&gt;Node9</title>
<path fill="none" stroke="midnightblue" d="M349.666,-90.33C358.322,-91.2727 367.132,-92.2322 375.834,-93.1799"/>
<polygon fill="midnightblue" stroke="midnightblue" points="375.663,-96.6819 385.983,-94.2853 376.421,-89.7231 375.663,-96.6819"/>
</g>
<!-- Node10 -->
<g id="node10" class="node"><title>Node10</title>
<g id="a_node10"><a xlink:href="../../d7/d99/classtree_1_1_command_node.html#a7812a5927c35af83e5f65508fc0a0236" target="_top" xlink:title="tree.CommandNode.getRoot\lNodes">
<polygon fill="white" stroke="black" points="389.5,-44 389.5,-74 544.5,-74 544.5,-44 389.5,-44"/>
<text text-anchor="start" x="397.5" y="-62" font-family="Helvetica,sans-Serif" font-size="10.00">tree.CommandNode.getRoot</text>
<text text-anchor="middle" x="467" y="-51" font-family="Helvetica,sans-Serif" font-size="10.00">Nodes</text>
</a>
</g>
</g>
<!-- Node2&#45;&gt;Node10 -->
<g id="edge9" class="edge"><title>Node2&#45;&gt;Node10</title>
<path fill="none" stroke="midnightblue" d="M349.666,-71.67C359.482,-70.6009 369.497,-69.5103 379.326,-68.4398"/>
<polygon fill="midnightblue" stroke="midnightblue" points="379.924,-71.8954 389.486,-67.3332 379.166,-64.9366 379.924,-71.8954"/>
</g>
<!-- Node4 -->
<g id="node4" class="node"><title>Node4</title>
<g id="a_node4"><a xlink:href="../../dd/d17/classapplication_1_1_model.html#aa7ed87b9bf32630ff3c5b771feb6a67a" target="_top" xlink:title="application.Model.getTurtleList">
<polygon fill="white" stroke="black" points="585.5,-186.5 585.5,-205.5 746.5,-205.5 746.5,-186.5 585.5,-186.5"/>
<text text-anchor="middle" x="666" y="-193.5" font-family="Helvetica,sans-Serif" font-size="10.00">application.Model.getTurtleList</text>
</a>
</g>
</g>
<!-- Node3&#45;&gt;Node4 -->
<g id="edge3" class="edge"><title>Node3&#45;&gt;Node4</title>
<path fill="none" stroke="midnightblue" d="M504.545,-155.561C527.37,-161.506 557.379,-169.271 584,-176 594.323,-178.609 605.396,-181.369 615.937,-183.978"/>
<polygon fill="midnightblue" stroke="midnightblue" points="615.292,-187.423 625.839,-186.423 616.97,-180.627 615.292,-187.423"/>
</g>
<!-- Node5 -->
<g id="node5" class="node"><title>Node5</title>
<g id="a_node5"><a xlink:href="../../d1/deb/classapplication_1_1_turtle_list.html#a87d2c5ddc9378480e8b4bfa5e95b5629" target="_top" xlink:title="application.TurtleList.get\lActiveTurtles">
<polygon fill="white" stroke="black" points="600,-137 600,-167 732,-167 732,-137 600,-137"/>
<text text-anchor="start" x="608" y="-155" font-family="Helvetica,sans-Serif" font-size="10.00">application.TurtleList.get</text>
<text text-anchor="middle" x="666" y="-144" font-family="Helvetica,sans-Serif" font-size="10.00">ActiveTurtles</text>
</a>
</g>
</g>
<!-- Node3&#45;&gt;Node5 -->
<g id="edge4" class="edge"><title>Node3&#45;&gt;Node5</title>
<path fill="none" stroke="midnightblue" d="M546.709,-148.397C560.852,-148.828 575.564,-149.276 589.61,-149.704"/>
<polygon fill="midnightblue" stroke="midnightblue" points="589.601,-153.205 599.703,-150.011 589.814,-146.208 589.601,-153.205"/>
</g>
<!-- Node6 -->
<g id="node6" class="node"><title>Node6</title>
<g id="a_node6"><a xlink:href="../../d7/d99/classtree_1_1_command_node.html#a4bf51af9a3fc4eecf4e2b0e2dceb1a2e" target="_top" xlink:title="tree.CommandNode.evaluate\lTurtles">
<polygon fill="white" stroke="black" points="586.5,-88 586.5,-118 745.5,-118 745.5,-88 586.5,-88"/>
<text text-anchor="start" x="594.5" y="-106" font-family="Helvetica,sans-Serif" font-size="10.00">tree.CommandNode.evaluate</text>
<text text-anchor="middle" x="666" y="-95" font-family="Helvetica,sans-Serif" font-size="10.00">Turtles</text>
</a>
</g>
</g>
<!-- Node3&#45;&gt;Node6 -->
<g id="edge5" class="edge"><title>Node3&#45;&gt;Node6</title>
<path fill="none" stroke="midnightblue" d="M511.721,-136.457C533.636,-131.673 560.857,-125.732 586.251,-120.189"/>
<polygon fill="midnightblue" stroke="midnightblue" points="587.227,-123.558 596.25,-118.006 585.734,-116.719 587.227,-123.558"/>
</g>
<!-- Node7 -->
<g id="node7" class="node"><title>Node7</title>
<g id="a_node7"><a xlink:href="../../d7/d99/classtree_1_1_command_node.html#a69bfa124214fd3236c99901925a5f055" target="_top" xlink:title="tree.CommandNode.checkParameters">
<polygon fill="white" stroke="black" points="784.5,-93.5 784.5,-112.5 985.5,-112.5 985.5,-93.5 784.5,-93.5"/>
<text text-anchor="middle" x="885" y="-100.5" font-family="Helvetica,sans-Serif" font-size="10.00">tree.CommandNode.checkParameters</text>
</a>
</g>
</g>
<!-- Node6&#45;&gt;Node7 -->
<g id="edge6" class="edge"><title>Node6&#45;&gt;Node7</title>
<path fill="none" stroke="midnightblue" d="M745.649,-103C755.011,-103 764.695,-103 774.39,-103"/>
<polygon fill="midnightblue" stroke="midnightblue" points="774.486,-106.5 784.486,-103 774.486,-99.5001 774.486,-106.5"/>
</g>
<!-- Node8 -->
<g id="node8" class="node"><title>Node8</title>
<g id="a_node8"><a xlink:href="../../d7/d99/classtree_1_1_command_node.html#a217a1626d7815f8121a2224ddf7af40f" target="_top" xlink:title="tree.CommandNode.throwParameters\lException">
<polygon fill="white" stroke="black" points="1022,-88 1022,-118 1222,-118 1222,-88 1022,-88"/>
<text text-anchor="start" x="1030" y="-106" font-family="Helvetica,sans-Serif" font-size="10.00">tree.CommandNode.throwParameters</text>
<text text-anchor="middle" x="1122" y="-95" font-family="Helvetica,sans-Serif" font-size="10.00">Exception</text>
</a>
</g>
</g>
<!-- Node7&#45;&gt;Node8 -->
<g id="edge7" class="edge"><title>Node7&#45;&gt;Node8</title>
<path fill="none" stroke="midnightblue" d="M985.661,-103C994.293,-103 1003.06,-103 1011.76,-103"/>
<polygon fill="midnightblue" stroke="midnightblue" points="1011.93,-106.5 1021.93,-103 1011.93,-99.5001 1011.93,-106.5"/>
</g>
<!-- Node10&#45;&gt;Node11 -->
<g id="edge10" class="edge"><title>Node10&#45;&gt;Node11</title>
<path fill="none" stroke="midnightblue" d="M535.245,-43.9808C552.11,-40.214 570.339,-36.1426 587.653,-32.2756"/>
<polygon fill="midnightblue" stroke="midnightblue" points="588.727,-35.6219 597.724,-30.0262 587.201,-28.7902 588.727,-35.6219"/>
</g>
<!-- Node12 -->
<g id="node12" class="node"><title>Node12</title>
<g id="a_node12"><a xlink:href="../../da/d49/classtree_1_1_tree_node.html#ae2e063fcfef13edf72b6b513c5369a4f" target="_top" xlink:title="tree.TreeNode.evaluate">
<polygon fill="white" stroke="black" points="602,-49.5 602,-68.5 730,-68.5 730,-49.5 602,-49.5"/>
<text text-anchor="middle" x="666" y="-56.5" font-family="Helvetica,sans-Serif" font-size="10.00">tree.TreeNode.evaluate</text>
</a>
</g>
</g>
<!-- Node10&#45;&gt;Node12 -->
<g id="edge11" class="edge"><title>Node10&#45;&gt;Node12</title>
<path fill="none" stroke="midnightblue" d="M544.729,-59C560.091,-59 576.196,-59 591.447,-59"/>
<polygon fill="midnightblue" stroke="midnightblue" points="591.849,-62.5001 601.849,-59 591.849,-55.5001 591.849,-62.5001"/>
</g>
</g>
</svg>
        <g id="navigator" transform="translate(0 0)" fill="#404254">
                <rect fill="#f2f5e9" fill-opacity="0.5" stroke="#606060" stroke-width=".5" x="0" y="0" width="60" height="60"/>
                <use id="zoomplus" xlink:href="#zoomPlus" x="17" y="9" onmousedown="handleZoom(evt,'in')"/>
                <use id="zoomminus" xlink:href="#zoomMin" x="42" y="9" onmousedown="handleZoom(evt,'out')"/>
                <use id="reset" xlink:href="#resetDef" x="30" y="36" onmousedown="handleReset()"/>
                <g id="arrowUp" xlink:href="#dirArrow" transform="translate(30 24)" onmousedown="handlePan(0,-1)">
                  <use xlink:href="#rim" fill="#404040">
                        <set attributeName="fill" to="#808080" begin="arrowUp.mouseover" end="arrowUp.mouseout"/>
                  </use>
                  <path fill="none" stroke="white" stroke-width="1.5" d="M0,-3.0v7 M-2.5,-0.5L0,-3.0L2.5,-0.5"/>
                </g>
                <g id="arrowRight" xlink:href="#dirArrow" transform="rotate(90) translate(36 -43)" onmousedown="handlePan(1,0)">
                  <use xlink:href="#rim" fill="#404040">
                        <set attributeName="fill" to="#808080" begin="arrowRight.mouseover" end="arrowRight.mouseout"/>
                  </use>
                  <path fill="none" stroke="white" stroke-width="1.5" d="M0,-3.0v7 M-2.5,-0.5L0,-3.0L2.5,-0.5"/>
                </g>
                <g id="arrowDown" xlink:href="#dirArrow" transform="rotate(180) translate(-30 -48)" onmousedown="handlePan(0,1)">
                  <use xlink:href="#rim" fill="#404040">
                        <set attributeName="fill" to="#808080" begin="arrowDown.mouseover" end="arrowDown.mouseout"/>
                  </use>
                  <path fill="none" stroke="white" stroke-width="1.5" d="M0,-3.0v7 M-2.5,-0.5L0,-3.0L2.5,-0.5"/>
                </g>
                <g id="arrowLeft" xlink:href="#dirArrow" transform="rotate(270) translate(-36 17)" onmousedown="handlePan(-1,0)">
                  <use xlink:href="#rim" fill="#404040">
                        <set attributeName="fill" to="#808080" begin="arrowLeft.mouseover" end="arrowLeft.mouseout"/>
                  </use>
                  <path fill="none" stroke="white" stroke-width="1.5" d="M0,-3.0v7 M-2.5,-0.5L0,-3.0L2.5,-0.5"/>
                </g>
        </g>
        <svg viewBox="0 0 15 15" width="100%" height="30px" preserveAspectRatio="xMaxYMin meet">
         <g id="arrow_out" transform="scale(0.3 0.3)">
          <a xlink:href="classcommands_1_1_if_else_a8a6526a96655b8c3f5b5d933c1aacc64_cgraph_org.svg" target="_base">
           <rect id="button" ry="5" rx="5" y="6" x="6" height="38" width="38"
                fill="#f2f5e9" fill-opacity="0.5" stroke="#606060" stroke-width="1.0"/>
           <path id="arrow"
             d="M 11.500037,31.436501 C 11.940474,20.09759 22.043105,11.32322 32.158766,21.979434 L 37.068811,17.246167 C 37.068811,17.246167 37.088388,32 37.088388,32 L 22.160133,31.978069 C 22.160133,31.978069 26.997745,27.140456 26.997745,27.140456 C 18.528582,18.264221 13.291696,25.230495 11.500037,31.436501 z"
             style="fill:#404040;"/>
          </a>
         </g>
        </svg>
</svg>
