<?xml version="1.0" encoding="UTF-8" standalone="no"?>
<!DOCTYPE svg PUBLIC "-//W3C//DTD SVG 1.1//EN"
 "http://www.w3.org/Graphics/SVG/1.1/DTD/svg11.dtd">
<!-- Generated by graphviz version 2.36.0 (20140111.2315)
 -->
<!-- Title: application.PatternMatcher.match Pages: 1 -->
<svg width="994pt" height="110pt"
 viewBox="0.00 0.00 994.00 110.00" xmlns="http://www.w3.org/2000/svg" xmlns:xlink="http://www.w3.org/1999/xlink">
<g id="graph0" class="graph" transform="scale(1 1) rotate(0) translate(4 106)">
<title>application.PatternMatcher.match</title>
<polygon fill="white" stroke="none" points="-4,4 -4,-106 990,-106 990,4 -4,4"/>
<!-- Node1 -->
<g id="node1" class="node"><title>Node1</title>
<polygon fill="#bfbfbf" stroke="black" points="0,-60.5 0,-79.5 178,-79.5 178,-60.5 0,-60.5"/>
<text text-anchor="middle" x="89" y="-67.5" font-family="Helvetica,sans-Serif" font-size="10.00">application.PatternMatcher.match</text>
</g>
<!-- Node2 -->
<g id="node2" class="node"><title>Node2</title>
<g id="a_node2"><a xlink:href="../../de/d31/classapplication_1_1_pattern_matcher.html#a2db70f4edd389c1f149acdebd3da0b7f" target="_top" xlink:title="application.PatternMatcher.check\lForMatch">
<polygon fill="white" stroke="black" points="214.5,-55 214.5,-85 389.5,-85 389.5,-55 214.5,-55"/>
<text text-anchor="start" x="222.5" y="-73" font-family="Helvetica,sans-Serif" font-size="10.00">application.PatternMatcher.check</text>
<text text-anchor="middle" x="302" y="-62" font-family="Helvetica,sans-Serif" font-size="10.00">ForMatch</text>
</a>
</g>
</g>
<!-- Node1&#45;&gt;Node2 -->
<g id="edge1" class="edge"><title>Node1&#45;&gt;Node2</title>
<path fill="none" stroke="midnightblue" d="M188.418,-70C197.109,-70 205.864,-70 214.446,-70"/>
<polygon fill="midnightblue" stroke="midnightblue" points="188.26,-66.5001 178.26,-70 188.26,-73.5001 188.26,-66.5001"/>
</g>
<!-- Node3 -->
<g id="node3" class="node"><title>Node3</title>
<g id="a_node3"><a xlink:href="../../d0/d2f/classsyntax_1_1_command_handler.html#ab4eb812acd6d38e92d0fdf7f155eef14" target="_top" xlink:title="syntax.CommandHandler.handle">
<polygon fill="white" stroke="black" points="426.5,-82.5 426.5,-101.5 599.5,-101.5 599.5,-82.5 426.5,-82.5"/>
<text text-anchor="middle" x="513" y="-89.5" font-family="Helvetica,sans-Serif" font-size="10.00">syntax.CommandHandler.handle</text>
</a>
</g>
</g>
<!-- Node2&#45;&gt;Node3 -->
<g id="edge2" class="edge"><title>Node2&#45;&gt;Node3</title>
<path fill="none" stroke="midnightblue" d="M399.527,-80.1607C408.434,-81.0983 417.419,-82.0441 426.221,-82.9707"/>
<polygon fill="midnightblue" stroke="midnightblue" points="399.828,-76.6732 389.517,-79.107 399.096,-83.6348 399.828,-76.6732"/>
</g>
<!-- Node4 -->
<g id="node4" class="node"><title>Node4</title>
<g id="a_node4"><a xlink:href="../../dc/d9e/classapplication_1_1_parser.html#a74e9be1b3f5d45542735791cf13baa90" target="_top" xlink:title="application.Parser.parse\lIterator">
<polygon fill="white" stroke="black" points="447.5,-33 447.5,-63 578.5,-63 578.5,-33 447.5,-33"/>
<text text-anchor="start" x="455.5" y="-51" font-family="Helvetica,sans-Serif" font-size="10.00">application.Parser.parse</text>
<text text-anchor="middle" x="513" y="-40" font-family="Helvetica,sans-Serif" font-size="10.00">Iterator</text>
</a>
</g>
</g>
<!-- Node2&#45;&gt;Node4 -->
<g id="edge3" class="edge"><title>Node2&#45;&gt;Node4</title>
<path fill="none" stroke="midnightblue" d="M399.537,-59.8382C415.706,-58.1362 432.131,-56.4072 447.251,-54.8157"/>
<polygon fill="midnightblue" stroke="midnightblue" points="399.096,-56.3652 389.517,-60.893 399.828,-63.3268 399.096,-56.3652"/>
</g>
<!-- Node5 -->
<g id="node5" class="node"><title>Node5</title>
<g id="a_node5"><a xlink:href="../../d9/df4/classsyntax_1_1_group_start_handler.html#a5e6a1bacb757f6223060b048db106211" target="_top" xlink:title="syntax.GroupStartHandler.handle">
<polygon fill="white" stroke="black" points="636,-76.5 636,-95.5 812,-95.5 812,-76.5 636,-76.5"/>
<text text-anchor="middle" x="724" y="-83.5" font-family="Helvetica,sans-Serif" font-size="10.00">syntax.GroupStartHandler.handle</text>
</a>
</g>
</g>
<!-- Node4&#45;&gt;Node5 -->
<g id="edge4" class="edge"><title>Node4&#45;&gt;Node5</title>
<path fill="none" stroke="midnightblue" d="M588.538,-61.5523C615.649,-66.4817 645.7,-71.9454 670.504,-76.4553"/>
<polygon fill="midnightblue" stroke="midnightblue" points="589.162,-58.1086 578.698,-59.7632 587.91,-64.9957 589.162,-58.1086"/>
</g>
<!-- Node6 -->
<g id="node6" class="node"><title>Node6</title>
<g id="a_node6"><a xlink:href="../../da/def/classsyntax_1_1_list_start_handler.html#a14545d9bbe97756316205b4953b6ee96" target="_top" xlink:title="syntax.ListStartHandler.handle">
<polygon fill="white" stroke="black" points="642,-38.5 642,-57.5 806,-57.5 806,-38.5 642,-38.5"/>
<text text-anchor="middle" x="724" y="-45.5" font-family="Helvetica,sans-Serif" font-size="10.00">syntax.ListStartHandler.handle</text>
</a>
</g>
</g>
<!-- Node4&#45;&gt;Node6 -->
<g id="edge5" class="edge"><title>Node4&#45;&gt;Node6</title>
<path fill="none" stroke="midnightblue" d="M589.142,-48C606.18,-48 624.351,-48 641.633,-48"/>
<polygon fill="midnightblue" stroke="midnightblue" points="588.698,-44.5001 578.698,-48 588.698,-51.5001 588.698,-44.5001"/>
</g>
<!-- Node7 -->
<g id="node7" class="node"><title>Node7</title>
<g id="a_node7"><a xlink:href="../../dc/d9e/classapplication_1_1_parser.html#a135ca81f754c89fe4bf36783b9884861" target="_top" xlink:title="application.Parser.parse">
<polygon fill="white" stroke="black" points="658.5,-0.5 658.5,-19.5 789.5,-19.5 789.5,-0.5 658.5,-0.5"/>
<text text-anchor="middle" x="724" y="-7.5" font-family="Helvetica,sans-Serif" font-size="10.00">application.Parser.parse</text>
</a>
</g>
</g>
<!-- Node4&#45;&gt;Node7 -->
<g id="edge6" class="edge"><title>Node4&#45;&gt;Node7</title>
<path fill="none" stroke="midnightblue" d="M588.538,-34.4477C615.649,-29.5183 645.7,-24.0546 670.504,-19.5447"/>
<polygon fill="midnightblue" stroke="midnightblue" points="587.91,-31.0043 578.698,-36.2368 589.162,-37.8914 587.91,-31.0043"/>
</g>
<!-- Node8 -->
<g id="node8" class="node"><title>Node8</title>
<g id="a_node8"><a xlink:href="../../dd/d17/classapplication_1_1_model.html#a9457364de27b16e384b02f2d679cb327" target="_top" xlink:title="application.Model.update">
<polygon fill="white" stroke="black" points="848.5,-0.5 848.5,-19.5 985.5,-19.5 985.5,-0.5 848.5,-0.5"/>
<text text-anchor="middle" x="917" y="-7.5" font-family="Helvetica,sans-Serif" font-size="10.00">application.Model.update</text>
</a>
</g>
</g>
<!-- Node7&#45;&gt;Node8 -->
<g id="edge7" class="edge"><title>Node7&#45;&gt;Node8</title>
<path fill="none" stroke="midnightblue" d="M800.029,-10C816.008,-10 832.789,-10 848.467,-10"/>
<polygon fill="midnightblue" stroke="midnightblue" points="799.664,-6.5001 789.664,-10 799.664,-13.5001 799.664,-6.5001"/>
</g>
</g>
</svg>
