<?xml version="1.0" encoding="UTF-8" standalone="no"?>
<!DOCTYPE svg PUBLIC "-//W3C//DTD SVG 1.1//EN"
 "http://www.w3.org/Graphics/SVG/1.1/DTD/svg11.dtd">
<!-- Generated by graphviz version 2.36.0 (20140111.2315)
 -->
<!-- Title: application.PatternMatcher.checkForMatch Pages: 1 -->
<svg width="780pt" height="110pt"
 viewBox="0.00 0.00 780.00 110.00" xmlns="http://www.w3.org/2000/svg" xmlns:xlink="http://www.w3.org/1999/xlink">
<g id="graph0" class="graph" transform="scale(1 1) rotate(0) translate(4 106)">
<title>application.PatternMatcher.checkForMatch</title>
<polygon fill="white" stroke="none" points="-4,4 -4,-106 776,-106 776,4 -4,4"/>
<!-- Node1 -->
<g id="node1" class="node"><title>Node1</title>
<polygon fill="#bfbfbf" stroke="black" points="0.5,-55 0.5,-85 175.5,-85 175.5,-55 0.5,-55"/>
<text text-anchor="start" x="8.5" y="-73" font-family="Helvetica,sans-Serif" font-size="10.00">application.PatternMatcher.check</text>
<text text-anchor="middle" x="88" y="-62" font-family="Helvetica,sans-Serif" font-size="10.00">ForMatch</text>
</g>
<!-- Node2 -->
<g id="node2" class="node"><title>Node2</title>
<g id="a_node2"><a xlink:href="../../d0/d2f/classsyntax_1_1_command_handler.html#ab4eb812acd6d38e92d0fdf7f155eef14" target="_top" xlink:title="syntax.CommandHandler.handle">
<polygon fill="white" stroke="black" points="212.5,-82.5 212.5,-101.5 385.5,-101.5 385.5,-82.5 212.5,-82.5"/>
<text text-anchor="middle" x="299" y="-89.5" font-family="Helvetica,sans-Serif" font-size="10.00">syntax.CommandHandler.handle</text>
</a>
</g>
</g>
<!-- Node1&#45;&gt;Node2 -->
<g id="edge1" class="edge"><title>Node1&#45;&gt;Node2</title>
<path fill="none" stroke="midnightblue" d="M185.527,-80.1607C194.434,-81.0983 203.419,-82.0441 212.221,-82.9707"/>
<polygon fill="midnightblue" stroke="midnightblue" points="185.828,-76.6732 175.517,-79.107 185.096,-83.6348 185.828,-76.6732"/>
</g>
<!-- Node3 -->
<g id="node3" class="node"><title>Node3</title>
<g id="a_node3"><a xlink:href="../../dc/d9e/classapplication_1_1_parser.html#a74e9be1b3f5d45542735791cf13baa90" target="_top" xlink:title="application.Parser.parse\lIterator">
<polygon fill="white" stroke="black" points="233.5,-33 233.5,-63 364.5,-63 364.5,-33 233.5,-33"/>
<text text-anchor="start" x="241.5" y="-51" font-family="Helvetica,sans-Serif" font-size="10.00">application.Parser.parse</text>
<text text-anchor="middle" x="299" y="-40" font-family="Helvetica,sans-Serif" font-size="10.00">Iterator</text>
</a>
</g>
</g>
<!-- Node1&#45;&gt;Node3 -->
<g id="edge2" class="edge"><title>Node1&#45;&gt;Node3</title>
<path fill="none" stroke="midnightblue" d="M185.537,-59.8382C201.706,-58.1362 218.131,-56.4072 233.251,-54.8157"/>
<polygon fill="midnightblue" stroke="midnightblue" points="185.096,-56.3652 175.517,-60.893 185.828,-63.3268 185.096,-56.3652"/>
</g>
<!-- Node4 -->
<g id="node4" class="node"><title>Node4</title>
<g id="a_node4"><a xlink:href="../../d9/df4/classsyntax_1_1_group_start_handler.html#a5e6a1bacb757f6223060b048db106211" target="_top" xlink:title="syntax.GroupStartHandler.handle">
<polygon fill="white" stroke="black" points="422,-76.5 422,-95.5 598,-95.5 598,-76.5 422,-76.5"/>
<text text-anchor="middle" x="510" y="-83.5" font-family="Helvetica,sans-Serif" font-size="10.00">syntax.GroupStartHandler.handle</text>
</a>
</g>
</g>
<!-- Node3&#45;&gt;Node4 -->
<g id="edge3" class="edge"><title>Node3&#45;&gt;Node4</title>
<path fill="none" stroke="midnightblue" d="M374.538,-61.5523C401.649,-66.4817 431.7,-71.9454 456.504,-76.4553"/>
<polygon fill="midnightblue" stroke="midnightblue" points="375.162,-58.1086 364.698,-59.7632 373.91,-64.9957 375.162,-58.1086"/>
</g>
<!-- Node5 -->
<g id="node5" class="node"><title>Node5</title>
<g id="a_node5"><a xlink:href="../../da/def/classsyntax_1_1_list_start_handler.html#a14545d9bbe97756316205b4953b6ee96" target="_top" xlink:title="syntax.ListStartHandler.handle">
<polygon fill="white" stroke="black" points="428,-38.5 428,-57.5 592,-57.5 592,-38.5 428,-38.5"/>
<text text-anchor="middle" x="510" y="-45.5" font-family="Helvetica,sans-Serif" font-size="10.00">syntax.ListStartHandler.handle</text>
</a>
</g>
</g>
<!-- Node3&#45;&gt;Node5 -->
<g id="edge4" class="edge"><title>Node3&#45;&gt;Node5</title>
<path fill="none" stroke="midnightblue" d="M375.142,-48C392.18,-48 410.351,-48 427.633,-48"/>
<polygon fill="midnightblue" stroke="midnightblue" points="374.698,-44.5001 364.698,-48 374.698,-51.5001 374.698,-44.5001"/>
</g>
<!-- Node6 -->
<g id="node6" class="node"><title>Node6</title>
<g id="a_node6"><a xlink:href="../../dc/d9e/classapplication_1_1_parser.html#a135ca81f754c89fe4bf36783b9884861" target="_top" xlink:title="application.Parser.parse">
<polygon fill="white" stroke="black" points="444.5,-0.5 444.5,-19.5 575.5,-19.5 575.5,-0.5 444.5,-0.5"/>
<text text-anchor="middle" x="510" y="-7.5" font-family="Helvetica,sans-Serif" font-size="10.00">application.Parser.parse</text>
</a>
</g>
</g>
<!-- Node3&#45;&gt;Node6 -->
<g id="edge5" class="edge"><title>Node3&#45;&gt;Node6</title>
<path fill="none" stroke="midnightblue" d="M374.538,-34.4477C401.649,-29.5183 431.7,-24.0546 456.504,-19.5447"/>
<polygon fill="midnightblue" stroke="midnightblue" points="373.91,-31.0043 364.698,-36.2368 375.162,-37.8914 373.91,-31.0043"/>
</g>
<!-- Node7 -->
<g id="node7" class="node"><title>Node7</title>
<g id="a_node7"><a xlink:href="../../dd/d17/classapplication_1_1_model.html#a9457364de27b16e384b02f2d679cb327" target="_top" xlink:title="application.Model.update">
<polygon fill="white" stroke="black" points="634.5,-0.5 634.5,-19.5 771.5,-19.5 771.5,-0.5 634.5,-0.5"/>
<text text-anchor="middle" x="703" y="-7.5" font-family="Helvetica,sans-Serif" font-size="10.00">application.Model.update</text>
</a>
</g>
</g>
<!-- Node6&#45;&gt;Node7 -->
<g id="edge6" class="edge"><title>Node6&#45;&gt;Node7</title>
<path fill="none" stroke="midnightblue" d="M586.029,-10C602.008,-10 618.789,-10 634.467,-10"/>
<polygon fill="midnightblue" stroke="midnightblue" points="585.664,-6.5001 575.664,-10 585.664,-13.5001 585.664,-6.5001"/>
</g>
</g>
</svg>
