<?xml version="1.0" encoding="UTF-8" standalone="no"?>
<!DOCTYPE svg PUBLIC "-//W3C//DTD SVG 1.1//EN"
 "http://www.w3.org/Graphics/SVG/1.1/DTD/svg11.dtd">
<!-- Generated by graphviz version 2.36.0 (20140111.2315)
 -->
<!-- Title: application.PatternMatcher.makePatterns Pages: 1 -->
<svg width="1052pt" height="77pt"
 viewBox="0.00 0.00 1052.00 77.00" xmlns="http://www.w3.org/2000/svg" xmlns:xlink="http://www.w3.org/1999/xlink">
<g id="graph0" class="graph" transform="scale(1 1) rotate(0) translate(4 73)">
<title>application.PatternMatcher.makePatterns</title>
<polygon fill="white" stroke="none" points="-4,4 -4,-73 1048,-73 1048,4 -4,4"/>
<!-- Node1 -->
<g id="node1" class="node"><title>Node1</title>
<polygon fill="#bfbfbf" stroke="black" points="0,-22 0,-52 174,-52 174,-22 0,-22"/>
<text text-anchor="start" x="8" y="-40" font-family="Helvetica,sans-Serif" font-size="10.00">application.PatternMatcher.make</text>
<text text-anchor="middle" x="87" y="-29" font-family="Helvetica,sans-Serif" font-size="10.00">Patterns</text>
</g>
<!-- Node2 -->
<g id="node2" class="node"><title>Node2</title>
<g id="a_node2"><a xlink:href="../../dc/d9e/classapplication_1_1_parser.html#ac894147a6137c697c60ff94d98635bd1" target="_top" xlink:title="application.Parser.Parser">
<polygon fill="white" stroke="black" points="212,-49.5 212,-68.5 346,-68.5 346,-49.5 212,-49.5"/>
<text text-anchor="middle" x="279" y="-56.5" font-family="Helvetica,sans-Serif" font-size="10.00">application.Parser.Parser</text>
</a>
</g>
</g>
<!-- Node1&#45;&gt;Node2 -->
<g id="edge1" class="edge"><title>Node1&#45;&gt;Node2</title>
<path fill="none" stroke="midnightblue" d="M184.227,-48.142C193.564,-49.2232 202.886,-50.3026 211.831,-51.3383"/>
<polygon fill="midnightblue" stroke="midnightblue" points="184.442,-44.6436 174.105,-46.9701 183.636,-51.5972 184.442,-44.6436"/>
</g>
<!-- Node3 -->
<g id="node3" class="node"><title>Node3</title>
<g id="a_node3"><a xlink:href="../../dc/d9e/classapplication_1_1_parser.html#a62688af8185b6fc69d3253cce9b75b5a" target="_top" xlink:title="application.Parser.update\lCommandPatterns">
<polygon fill="white" stroke="black" points="210.5,-0 210.5,-30 347.5,-30 347.5,-0 210.5,-0"/>
<text text-anchor="start" x="218.5" y="-18" font-family="Helvetica,sans-Serif" font-size="10.00">application.Parser.update</text>
<text text-anchor="middle" x="279" y="-7" font-family="Helvetica,sans-Serif" font-size="10.00">CommandPatterns</text>
</a>
</g>
</g>
<!-- Node1&#45;&gt;Node3 -->
<g id="edge2" class="edge"><title>Node1&#45;&gt;Node3</title>
<path fill="none" stroke="midnightblue" d="M184.12,-25.8703C193,-24.8421 201.868,-23.8153 210.411,-22.8261"/>
<polygon fill="midnightblue" stroke="midnightblue" points="183.636,-22.4028 174.105,-27.0299 184.442,-29.3564 183.636,-22.4028"/>
</g>
<!-- Node4 -->
<g id="node4" class="node"><title>Node4</title>
<g id="a_node4"><a xlink:href="../../dd/d17/classapplication_1_1_model.html#aad99353c2f5f15a7b60a353b4d0fcae0" target="_top" xlink:title="application.Model.update\lCommandPatterns">
<polygon fill="white" stroke="black" points="384.5,-0 384.5,-30 521.5,-30 521.5,-0 384.5,-0"/>
<text text-anchor="start" x="392.5" y="-18" font-family="Helvetica,sans-Serif" font-size="10.00">application.Model.update</text>
<text text-anchor="middle" x="453" y="-7" font-family="Helvetica,sans-Serif" font-size="10.00">CommandPatterns</text>
</a>
</g>
</g>
<!-- Node3&#45;&gt;Node4 -->
<g id="edge3" class="edge"><title>Node3&#45;&gt;Node4</title>
<path fill="none" stroke="midnightblue" d="M358.134,-15C366.846,-15 375.666,-15 384.233,-15"/>
<polygon fill="midnightblue" stroke="midnightblue" points="357.979,-11.5001 347.979,-15 357.979,-18.5001 357.979,-11.5001"/>
</g>
<!-- Node5 -->
<g id="node5" class="node"><title>Node5</title>
<g id="a_node5"><a xlink:href="../../d3/dbe/classview_1_1_view.html#a6c2525fe1f26dc400c48823ce4f0d057" target="_top" xlink:title="view.View.addModelListeners">
<polygon fill="white" stroke="black" points="558.5,-5.5 558.5,-24.5 711.5,-24.5 711.5,-5.5 558.5,-5.5"/>
<text text-anchor="middle" x="635" y="-12.5" font-family="Helvetica,sans-Serif" font-size="10.00">view.View.addModelListeners</text>
</a>
</g>
</g>
<!-- Node4&#45;&gt;Node5 -->
<g id="edge4" class="edge"><title>Node4&#45;&gt;Node5</title>
<path fill="none" stroke="midnightblue" d="M531.752,-15C540.532,-15 549.471,-15 558.226,-15"/>
<polygon fill="midnightblue" stroke="midnightblue" points="531.538,-11.5001 521.537,-15 531.537,-18.5001 531.538,-11.5001"/>
</g>
<!-- Node6 -->
<g id="node6" class="node"><title>Node6</title>
<g id="a_node6"><a xlink:href="../../d4/d9d/classapplication_1_1_wrapper.html#a4be5486a54f6d10d816c3ff49e82ecb9" target="_top" xlink:title="application.Wrapper.make\lNewWindow">
<polygon fill="white" stroke="black" points="748,-0 748,-30 888,-30 888,-0 748,-0"/>
<text text-anchor="start" x="756" y="-18" font-family="Helvetica,sans-Serif" font-size="10.00">application.Wrapper.make</text>
<text text-anchor="middle" x="818" y="-7" font-family="Helvetica,sans-Serif" font-size="10.00">NewWindow</text>
</a>
</g>
</g>
<!-- Node5&#45;&gt;Node6 -->
<g id="edge5" class="edge"><title>Node5&#45;&gt;Node6</title>
<path fill="none" stroke="midnightblue" d="M721.912,-15C730.64,-15 739.426,-15 747.942,-15"/>
<polygon fill="midnightblue" stroke="midnightblue" points="721.712,-11.5001 711.712,-15 721.712,-18.5001 721.712,-11.5001"/>
</g>
<!-- Node7 -->
<g id="node7" class="node"><title>Node7</title>
<g id="a_node7"><a xlink:href="../../d9/d96/classapplication_1_1_main.html#a4e5ad4e3de8bbd8654120180a94e870d" target="_top" xlink:title="application.Main.start">
<polygon fill="white" stroke="black" points="924.5,-5.5 924.5,-24.5 1043.5,-24.5 1043.5,-5.5 924.5,-5.5"/>
<text text-anchor="middle" x="984" y="-12.5" font-family="Helvetica,sans-Serif" font-size="10.00">application.Main.start</text>
</a>
</g>
</g>
<!-- Node6&#45;&gt;Node7 -->
<g id="edge6" class="edge"><title>Node6&#45;&gt;Node7</title>
<path fill="none" stroke="midnightblue" d="M898.335,-15C907.112,-15 915.929,-15 924.384,-15"/>
<polygon fill="midnightblue" stroke="midnightblue" points="898.075,-11.5001 888.075,-15 898.075,-18.5001 898.075,-11.5001"/>
</g>
</g>
</svg>
