<?xml version="1.0" encoding="UTF-8" standalone="no"?>
<!DOCTYPE svg PUBLIC "-//W3C//DTD SVG 1.1//EN"
 "http://www.w3.org/Graphics/SVG/1.1/DTD/svg11.dtd">
<!-- Generated by graphviz version 2.36.0 (20140111.2315)
 -->
<!-- Title: commands.SetPenColor.function Pages: 1 -->
<svg width="382pt" height="126pt"
 viewBox="0.00 0.00 382.00 126.00" xmlns="http://www.w3.org/2000/svg" xmlns:xlink="http://www.w3.org/1999/xlink">
<g id="graph0" class="graph" transform="scale(1 1) rotate(0) translate(4 122)">
<title>commands.SetPenColor.function</title>
<polygon fill="white" stroke="none" points="-4,4 -4,-122 378,-122 378,4 -4,4"/>
<!-- Node1 -->
<g id="node1" class="node"><title>Node1</title>
<polygon fill="#bfbfbf" stroke="black" points="0.5,-54.5 0.5,-73.5 173.5,-73.5 173.5,-54.5 0.5,-54.5"/>
<text text-anchor="middle" x="87" y="-61.5" font-family="Helvetica,sans-Serif" font-size="10.00">commands.SetPenColor.function</text>
</g>
<!-- Node2 -->
<g id="node2" class="node"><title>Node2</title>
<g id="a_node2"><a xlink:href="../../d7/d99/classtree_1_1_command_node.html#ae60b1b2f861235627eb90a0d1fa25814" target="_top" xlink:title="tree.CommandNode.getModel">
<polygon fill="white" stroke="black" points="211,-98.5 211,-117.5 373,-117.5 373,-98.5 211,-98.5"/>
<text text-anchor="middle" x="292" y="-105.5" font-family="Helvetica,sans-Serif" font-size="10.00">tree.CommandNode.getModel</text>
</a>
</g>
</g>
<!-- Node1&#45;&gt;Node2 -->
<g id="edge1" class="edge"><title>Node1&#45;&gt;Node2</title>
<path fill="none" stroke="midnightblue" d="M132.048,-73.5473C162.906,-80.2357 204.327,-89.2137 237.149,-96.3279"/>
<polygon fill="midnightblue" stroke="midnightblue" points="236.523,-99.7735 247.038,-98.4713 238.006,-92.9323 236.523,-99.7735"/>
</g>
<!-- Node3 -->
<g id="node3" class="node"><title>Node3</title>
<g id="a_node3"><a xlink:href="../../dd/d17/classapplication_1_1_model.html#a36689862ee176033fe7f2cd205cc8cfb" target="_top" xlink:title="application.Model.penColor\lProperty">
<polygon fill="white" stroke="black" points="219,-49 219,-79 365,-79 365,-49 219,-49"/>
<text text-anchor="start" x="227" y="-67" font-family="Helvetica,sans-Serif" font-size="10.00">application.Model.penColor</text>
<text text-anchor="middle" x="292" y="-56" font-family="Helvetica,sans-Serif" font-size="10.00">Property</text>
</a>
</g>
</g>
<!-- Node1&#45;&gt;Node3 -->
<g id="edge2" class="edge"><title>Node1&#45;&gt;Node3</title>
<path fill="none" stroke="midnightblue" d="M173.502,-64C185.151,-64 197.089,-64 208.68,-64"/>
<polygon fill="midnightblue" stroke="midnightblue" points="208.761,-67.5001 218.761,-64 208.761,-60.5001 208.761,-67.5001"/>
</g>
<!-- Node4 -->
<g id="node4" class="node"><title>Node4</title>
<g id="a_node4"><a xlink:href="../../d7/d99/classtree_1_1_command_node.html#a9f3dd4c2d2489cbbbc7e09e252a8c9a3" target="_top" xlink:title="tree.CommandNode.putObject\lInList">
<polygon fill="white" stroke="black" points="210,-0 210,-30 374,-30 374,-0 210,-0"/>
<text text-anchor="start" x="218" y="-18" font-family="Helvetica,sans-Serif" font-size="10.00">tree.CommandNode.putObject</text>
<text text-anchor="middle" x="292" y="-7" font-family="Helvetica,sans-Serif" font-size="10.00">InList</text>
</a>
</g>
</g>
<!-- Node1&#45;&gt;Node4 -->
<g id="edge3" class="edge"><title>Node1&#45;&gt;Node4</title>
<path fill="none" stroke="midnightblue" d="M127.622,-54.436C153.547,-48.1782 188.181,-39.8183 218.888,-32.4063"/>
<polygon fill="midnightblue" stroke="midnightblue" points="219.804,-35.7857 228.704,-30.037 218.162,-28.9812 219.804,-35.7857"/>
</g>
</g>
</svg>
