<?xml version="1.0" encoding="UTF-8" standalone="no"?>
<!DOCTYPE svg PUBLIC "-//W3C//DTD SVG 1.1//EN"
 "http://www.w3.org/Graphics/SVG/1.1/DTD/svg11.dtd">
<!-- Generated by graphviz version 2.36.0 (20140111.2315)
 -->
<!-- Title: commands.ClearStamp.function Pages: 1 -->
<svg width="380pt" height="126pt"
 viewBox="0.00 0.00 380.00 126.00" xmlns="http://www.w3.org/2000/svg" xmlns:xlink="http://www.w3.org/1999/xlink">
<g id="graph0" class="graph" transform="scale(1 1) rotate(0) translate(4 122)">
<title>commands.ClearStamp.function</title>
<polygon fill="white" stroke="none" points="-4,4 -4,-122 376,-122 376,4 -4,4"/>
<!-- Node1 -->
<g id="node1" class="node"><title>Node1</title>
<polygon fill="#bfbfbf" stroke="black" points="0,-49.5 0,-68.5 172,-68.5 172,-49.5 0,-49.5"/>
<text text-anchor="middle" x="86" y="-56.5" font-family="Helvetica,sans-Serif" font-size="10.00">commands.ClearStamp.function</text>
</g>
<!-- Node2 -->
<g id="node2" class="node"><title>Node2</title>
<g id="a_node2"><a xlink:href="../../dd/d17/classapplication_1_1_model.html#aae61fd8906b6795789ec63cb7b969c8b" target="_top" xlink:title="application.Model.clearStamp\lProperty">
<polygon fill="white" stroke="black" points="211,-88 211,-118 369,-118 369,-88 211,-88"/>
<text text-anchor="start" x="219" y="-106" font-family="Helvetica,sans-Serif" font-size="10.00">application.Model.clearStamp</text>
<text text-anchor="middle" x="290" y="-95" font-family="Helvetica,sans-Serif" font-size="10.00">Property</text>
</a>
</g>
</g>
<!-- Node1&#45;&gt;Node2 -->
<g id="edge1" class="edge"><title>Node1&#45;&gt;Node2</title>
<path fill="none" stroke="midnightblue" d="M130.831,-68.5473C153.98,-73.5897 183.103,-79.9334 210.03,-85.7987"/>
<polygon fill="midnightblue" stroke="midnightblue" points="209.32,-89.2261 219.836,-87.9346 210.81,-82.3864 209.32,-89.2261"/>
</g>
<!-- Node3 -->
<g id="node3" class="node"><title>Node3</title>
<g id="a_node3"><a xlink:href="../../d7/d99/classtree_1_1_command_node.html#ae60b1b2f861235627eb90a0d1fa25814" target="_top" xlink:title="tree.CommandNode.getModel">
<polygon fill="white" stroke="black" points="209,-49.5 209,-68.5 371,-68.5 371,-49.5 209,-49.5"/>
<text text-anchor="middle" x="290" y="-56.5" font-family="Helvetica,sans-Serif" font-size="10.00">tree.CommandNode.getModel</text>
</a>
</g>
</g>
<!-- Node1&#45;&gt;Node3 -->
<g id="edge2" class="edge"><title>Node1&#45;&gt;Node3</title>
<path fill="none" stroke="midnightblue" d="M172.081,-59C180.838,-59 189.759,-59 198.571,-59"/>
<polygon fill="midnightblue" stroke="midnightblue" points="198.85,-62.5001 208.85,-59 198.85,-55.5001 198.85,-62.5001"/>
</g>
<!-- Node4 -->
<g id="node4" class="node"><title>Node4</title>
<g id="a_node4"><a xlink:href="../../d7/d99/classtree_1_1_command_node.html#a9f3dd4c2d2489cbbbc7e09e252a8c9a3" target="_top" xlink:title="tree.CommandNode.putObject\lInList">
<polygon fill="white" stroke="black" points="208,-0 208,-30 372,-30 372,-0 208,-0"/>
<text text-anchor="start" x="216" y="-18" font-family="Helvetica,sans-Serif" font-size="10.00">tree.CommandNode.putObject</text>
<text text-anchor="middle" x="290" y="-7" font-family="Helvetica,sans-Serif" font-size="10.00">InList</text>
</a>
</g>
</g>
<!-- Node1&#45;&gt;Node4 -->
<g id="edge3" class="edge"><title>Node1&#45;&gt;Node4</title>
<path fill="none" stroke="midnightblue" d="M130.831,-49.4527C153.98,-44.4103 183.103,-38.0666 210.03,-32.2013"/>
<polygon fill="midnightblue" stroke="midnightblue" points="210.81,-35.6136 219.836,-30.0654 209.32,-28.7739 210.81,-35.6136"/>
</g>
</g>
</svg>
