<?xml version="1.0" encoding="UTF-8" standalone="no"?>
<!DOCTYPE svg PUBLIC "-//W3C//DTD SVG 1.1//EN"
 "http://www.w3.org/Graphics/SVG/1.1/DTD/svg11.dtd">
<!-- Generated by graphviz version 2.36.0 (20140111.2315)
 -->
<!-- Title: commands.SetTowards.function Pages: 1 -->
<svg width="560pt" height="107pt"
 viewBox="0.00 0.00 560.00 107.00" xmlns="http://www.w3.org/2000/svg" xmlns:xlink="http://www.w3.org/1999/xlink">
<g id="graph0" class="graph" transform="scale(1 1) rotate(0) translate(4 103)">
<title>commands.SetTowards.function</title>
<polygon fill="white" stroke="none" points="-4,4 -4,-103 556,-103 556,4 -4,4"/>
<!-- Node1 -->
<g id="node1" class="node"><title>Node1</title>
<polygon fill="#bfbfbf" stroke="black" points="0.5,-27.5 0.5,-46.5 169.5,-46.5 169.5,-27.5 0.5,-27.5"/>
<text text-anchor="middle" x="85" y="-34.5" font-family="Helvetica,sans-Serif" font-size="10.00">commands.SetTowards.function</text>
</g>
<!-- Node2 -->
<g id="node2" class="node"><title>Node2</title>
<g id="a_node2"><a xlink:href="../../d0/db5/classcommands_1_1_set_towards.html#a7b88861ab88e225b07507676e126846b" target="_top" xlink:title="commands.SetTowards.getOffset">
<polygon fill="white" stroke="black" points="206.5,-49.5 206.5,-68.5 381.5,-68.5 381.5,-49.5 206.5,-49.5"/>
<text text-anchor="middle" x="294" y="-56.5" font-family="Helvetica,sans-Serif" font-size="10.00">commands.SetTowards.getOffset</text>
</a>
</g>
</g>
<!-- Node1&#45;&gt;Node2 -->
<g id="edge1" class="edge"><title>Node1&#45;&gt;Node2</title>
<path fill="none" stroke="midnightblue" d="M169.598,-45.8848C178.403,-46.8206 187.407,-47.7776 196.343,-48.7273"/>
<polygon fill="midnightblue" stroke="midnightblue" points="196.075,-52.2185 206.389,-49.795 196.815,-45.2577 196.075,-52.2185"/>
</g>
<!-- Node5 -->
<g id="node5" class="node"><title>Node5</title>
<g id="a_node5"><a xlink:href="../../d7/d99/classtree_1_1_command_node.html#a9f3dd4c2d2489cbbbc7e09e252a8c9a3" target="_top" xlink:title="tree.CommandNode.putObject\lInList">
<polygon fill="white" stroke="black" points="212,-0 212,-30 376,-30 376,-0 212,-0"/>
<text text-anchor="start" x="220" y="-18" font-family="Helvetica,sans-Serif" font-size="10.00">tree.CommandNode.putObject</text>
<text text-anchor="middle" x="294" y="-7" font-family="Helvetica,sans-Serif" font-size="10.00">InList</text>
</a>
</g>
</g>
<!-- Node1&#45;&gt;Node5 -->
<g id="edge4" class="edge"><title>Node1&#45;&gt;Node5</title>
<path fill="none" stroke="midnightblue" d="M169.598,-28.1152C180.142,-26.9946 190.972,-25.8435 201.629,-24.7109"/>
<polygon fill="midnightblue" stroke="midnightblue" points="202.204,-28.1697 211.778,-23.6323 201.464,-21.2089 202.204,-28.1697"/>
</g>
<!-- Node3 -->
<g id="node3" class="node"><title>Node3</title>
<g id="a_node3"><a xlink:href="../../d1/d31/classapplication_1_1_turtle.html#a61d5e1fe37a8eb2cd0ab85fe11906321" target="_top" xlink:title="application.Turtle.getHalf\lRotation">
<polygon fill="white" stroke="black" points="418,-69 418,-99 552,-99 552,-69 418,-69"/>
<text text-anchor="start" x="426" y="-87" font-family="Helvetica,sans-Serif" font-size="10.00">application.Turtle.getHalf</text>
<text text-anchor="middle" x="485" y="-76" font-family="Helvetica,sans-Serif" font-size="10.00">Rotation</text>
</a>
</g>
</g>
<!-- Node2&#45;&gt;Node3 -->
<g id="edge2" class="edge"><title>Node2&#45;&gt;Node3</title>
<path fill="none" stroke="midnightblue" d="M366.992,-68.5227C380.293,-70.2821 394.225,-72.125 407.649,-73.9007"/>
<polygon fill="midnightblue" stroke="midnightblue" points="407.425,-77.4014 417.797,-75.243 408.343,-70.4619 407.425,-77.4014"/>
</g>
<!-- Node4 -->
<g id="node4" class="node"><title>Node4</title>
<g id="a_node4"><a xlink:href="../../d1/d31/classapplication_1_1_turtle.html#a861246d5dab4fa8162c433ab8fcd7193" target="_top" xlink:title="application.Turtle.getFull\lRotation">
<polygon fill="white" stroke="black" points="419.5,-20 419.5,-50 550.5,-50 550.5,-20 419.5,-20"/>
<text text-anchor="start" x="427.5" y="-38" font-family="Helvetica,sans-Serif" font-size="10.00">application.Turtle.getFull</text>
<text text-anchor="middle" x="485" y="-27" font-family="Helvetica,sans-Serif" font-size="10.00">Rotation</text>
</a>
</g>
</g>
<!-- Node2&#45;&gt;Node4 -->
<g id="edge3" class="edge"><title>Node2&#45;&gt;Node4</title>
<path fill="none" stroke="midnightblue" d="M369.969,-49.4801C382.899,-47.8382 396.34,-46.1315 409.264,-44.4903"/>
<polygon fill="midnightblue" stroke="midnightblue" points="410.019,-47.9226 419.498,-43.1907 409.137,-40.9784 410.019,-47.9226"/>
</g>
</g>
</svg>
