<?xml version="1.0" encoding="UTF-8" standalone="no"?>
<!DOCTYPE svg PUBLIC "-//W3C//DTD SVG 1.1//EN"
 "http://www.w3.org/Graphics/SVG/1.1/DTD/svg11.dtd">
<!-- Generated by graphviz version 2.36.0 (20140111.2315)
 -->
<!-- Title: commands.SetTowards.getOffset Pages: 1 -->
<svg width="354pt" height="87pt"
 viewBox="0.00 0.00 354.00 87.00" xmlns="http://www.w3.org/2000/svg" xmlns:xlink="http://www.w3.org/1999/xlink">
<g id="graph0" class="graph" transform="scale(1 1) rotate(0) translate(4 83)">
<title>commands.SetTowards.getOffset</title>
<polygon fill="white" stroke="none" points="-4,4 -4,-83 350,-83 350,4 -4,4"/>
<!-- Node1 -->
<g id="node1" class="node"><title>Node1</title>
<polygon fill="#bfbfbf" stroke="black" points="0.5,-29.5 0.5,-48.5 175.5,-48.5 175.5,-29.5 0.5,-29.5"/>
<text text-anchor="middle" x="88" y="-36.5" font-family="Helvetica,sans-Serif" font-size="10.00">commands.SetTowards.getOffset</text>
</g>
<!-- Node2 -->
<g id="node2" class="node"><title>Node2</title>
<g id="a_node2"><a xlink:href="../../d1/d31/classapplication_1_1_turtle.html#a861246d5dab4fa8162c433ab8fcd7193" target="_top" xlink:title="application.Turtle.getFull\lRotation">
<polygon fill="white" stroke="black" points="213.5,-49 213.5,-79 344.5,-79 344.5,-49 213.5,-49"/>
<text text-anchor="start" x="221.5" y="-67" font-family="Helvetica,sans-Serif" font-size="10.00">application.Turtle.getFull</text>
<text text-anchor="middle" x="279" y="-56" font-family="Helvetica,sans-Serif" font-size="10.00">Rotation</text>
</a>
</g>
</g>
<!-- Node1&#45;&gt;Node2 -->
<g id="edge1" class="edge"><title>Node1&#45;&gt;Node2</title>
<path fill="none" stroke="midnightblue" d="M160.992,-48.5227C174.843,-50.3549 189.378,-52.2776 203.312,-54.1207"/>
<polygon fill="midnightblue" stroke="midnightblue" points="202.961,-57.6046 213.334,-55.4463 203.879,-50.6651 202.961,-57.6046"/>
</g>
<!-- Node3 -->
<g id="node3" class="node"><title>Node3</title>
<g id="a_node3"><a xlink:href="../../d1/d31/classapplication_1_1_turtle.html#a61d5e1fe37a8eb2cd0ab85fe11906321" target="_top" xlink:title="application.Turtle.getHalf\lRotation">
<polygon fill="white" stroke="black" points="212,-0 212,-30 346,-30 346,-0 212,-0"/>
<text text-anchor="start" x="220" y="-18" font-family="Helvetica,sans-Serif" font-size="10.00">application.Turtle.getHalf</text>
<text text-anchor="middle" x="279" y="-7" font-family="Helvetica,sans-Serif" font-size="10.00">Rotation</text>
</a>
</g>
</g>
<!-- Node1&#45;&gt;Node3 -->
<g id="edge2" class="edge"><title>Node1&#45;&gt;Node3</title>
<path fill="none" stroke="midnightblue" d="M163.969,-29.4801C176.493,-27.8898 189.495,-26.2387 202.043,-24.6453"/>
<polygon fill="midnightblue" stroke="midnightblue" points="202.512,-28.114 211.991,-23.3821 201.63,-21.1697 202.512,-28.114"/>
</g>
</g>
</svg>
