<?xml version="1.0" encoding="UTF-8" standalone="no"?>
<!DOCTYPE svg PUBLIC "-//W3C//DTD SVG 1.1//EN"
 "http://www.w3.org/Graphics/SVG/1.1/DTD/svg11.dtd">
<!-- Generated by graphviz version 2.36.0 (20140111.2315)
 -->
<!-- Title: XMLParser.setValue Pages: 1 -->
<svg width="408pt" height="47pt"
 viewBox="0.00 0.00 408.00 47.00" xmlns="http://www.w3.org/2000/svg" xmlns:xlink="http://www.w3.org/1999/xlink">
<g id="graph0" class="graph" transform="scale(1 1) rotate(0) translate(4 43)">
<title>XMLParser.setValue</title>
<polygon fill="white" stroke="none" points="-4,4 -4,-43 404,-43 404,4 -4,4"/>
<!-- Node1 -->
<g id="node1" class="node"><title>Node1</title>
<polygon fill="#bfbfbf" stroke="black" points="0,-0.5 0,-19.5 110,-19.5 110,-0.5 0,-0.5"/>
<text text-anchor="middle" x="55" y="-7.5" font-family="Helvetica,sans-Serif" font-size="10.00">XMLParser.setValue</text>
</g>
<!-- Node2 -->
<g id="node2" class="node"><title>Node2</title>
<g id="a_node2"><a xlink:href="../../d2/d95/class_x_m_l_parser.html#a2b1b97e58c91e6452342afd031c98258" target="_top" xlink:title="XMLParser.setSpec">
<polygon fill="white" stroke="black" points="146.5,-19.5 146.5,-38.5 253.5,-38.5 253.5,-19.5 146.5,-19.5"/>
<text text-anchor="middle" x="200" y="-26.5" font-family="Helvetica,sans-Serif" font-size="10.00">XMLParser.setSpec</text>
</a>
</g>
</g>
<!-- Node1&#45;&gt;Node2 -->
<g id="edge1" class="edge"><title>Node1&#45;&gt;Node2</title>
<path fill="none" stroke="midnightblue" d="M120.203,-18.5304C128.925,-19.6893 137.794,-20.8677 146.282,-21.9955"/>
<polygon fill="midnightblue" stroke="midnightblue" points="120.436,-15.0308 110.062,-17.1831 119.514,-21.9698 120.436,-15.0308"/>
</g>
<!-- Node3 -->
<g id="node3" class="node"><title>Node3</title>
<g id="a_node3"><a xlink:href="../../d2/d95/class_x_m_l_parser.html#a0e8c6a4de7fe25aaf55ec0ffc3ca3c6e" target="_top" xlink:title="XMLParser.writeXML">
<polygon fill="white" stroke="black" points="290,-0.5 290,-19.5 400,-19.5 400,-0.5 290,-0.5"/>
<text text-anchor="middle" x="345" y="-7.5" font-family="Helvetica,sans-Serif" font-size="10.00">XMLParser.writeXML</text>
</a>
</g>
</g>
<!-- Node1&#45;&gt;Node3 -->
<g id="edge3" class="edge"><title>Node1&#45;&gt;Node3</title>
<path fill="none" stroke="midnightblue" d="M120.398,-10C171.277,-10 241.489,-10 289.583,-10"/>
<polygon fill="midnightblue" stroke="midnightblue" points="120.171,-6.5001 110.171,-10 120.171,-13.5001 120.171,-6.5001"/>
</g>
<!-- Node2&#45;&gt;Node3 -->
<g id="edge2" class="edge"><title>Node2&#45;&gt;Node3</title>
<path fill="none" stroke="midnightblue" d="M263.918,-20.6403C272.595,-19.4874 281.443,-18.3118 289.941,-17.1827"/>
<polygon fill="midnightblue" stroke="midnightblue" points="263.294,-17.1924 253.842,-21.9791 264.216,-24.1314 263.294,-17.1924"/>
</g>
</g>
</svg>
