<?xml version="1.0" encoding="UTF-8" standalone="no"?>
<!DOCTYPE svg PUBLIC "-//W3C//DTD SVG 1.1//EN"
 "http://www.w3.org/Graphics/SVG/1.1/DTD/svg11.dtd">
<!-- Generated by graphviz version 2.36.0 (20140111.2315)
 -->
<!-- Title: XMLParser.writeXML Pages: 1 -->
<svg width="570pt" height="123pt"
 viewBox="0.00 0.00 570.00 123.00" xmlns="http://www.w3.org/2000/svg" xmlns:xlink="http://www.w3.org/1999/xlink">
<g id="graph0" class="graph" transform="scale(1 1) rotate(0) translate(4 119)">
<title>XMLParser.writeXML</title>
<polygon fill="white" stroke="none" points="-4,4 -4,-119 566,-119 566,4 -4,4"/>
<!-- Node1 -->
<g id="node1" class="node"><title>Node1</title>
<polygon fill="#bfbfbf" stroke="black" points="0,-38.5 0,-57.5 110,-57.5 110,-38.5 0,-38.5"/>
<text text-anchor="middle" x="55" y="-45.5" font-family="Helvetica,sans-Serif" font-size="10.00">XMLParser.writeXML</text>
</g>
<!-- Node2 -->
<g id="node2" class="node"><title>Node2</title>
<g id="a_node2"><a xlink:href="../../d2/d95/class_x_m_l_parser.html#aaf28e3838541b96011b1e04580fc462a" target="_top" xlink:title="XMLParser.getSimType">
<polygon fill="white" stroke="black" points="147,-95.5 147,-114.5 271,-114.5 271,-95.5 147,-95.5"/>
<text text-anchor="middle" x="209" y="-102.5" font-family="Helvetica,sans-Serif" font-size="10.00">XMLParser.getSimType</text>
</a>
</g>
</g>
<!-- Node1&#45;&gt;Node2 -->
<g id="edge1" class="edge"><title>Node1&#45;&gt;Node2</title>
<path fill="none" stroke="midnightblue" d="M76.8531,-57.5209C94.9414,-65.6062 121.928,-77.2557 146,-86 152.041,-88.1946 158.472,-90.3553 164.817,-92.3882"/>
<polygon fill="midnightblue" stroke="midnightblue" points="164.062,-95.8191 174.651,-95.4638 166.152,-89.1382 164.062,-95.8191"/>
</g>
<!-- Node5 -->
<g id="node5" class="node"><title>Node5</title>
<g id="a_node5"><a xlink:href="../../d2/d95/class_x_m_l_parser.html#aba1e17664c95afc08cdcd7e5bcc34235" target="_top" xlink:title="XMLParser.gridToString">
<polygon fill="white" stroke="black" points="146.5,-57.5 146.5,-76.5 271.5,-76.5 271.5,-57.5 146.5,-57.5"/>
<text text-anchor="middle" x="209" y="-64.5" font-family="Helvetica,sans-Serif" font-size="10.00">XMLParser.gridToString</text>
</a>
</g>
</g>
<!-- Node1&#45;&gt;Node5 -->
<g id="edge4" class="edge"><title>Node1&#45;&gt;Node5</title>
<path fill="none" stroke="midnightblue" d="M110.017,-54.7522C118.573,-55.8217 127.536,-56.9419 136.417,-58.0522"/>
<polygon fill="midnightblue" stroke="midnightblue" points="136.028,-61.5306 146.385,-59.2981 136.896,-54.5847 136.028,-61.5306"/>
</g>
<!-- Node6 -->
<g id="node6" class="node"><title>Node6</title>
<g id="a_node6"><a xlink:href="../../d2/d95/class_x_m_l_parser.html#a2b1b97e58c91e6452342afd031c98258" target="_top" xlink:title="XMLParser.setSpec">
<polygon fill="white" stroke="black" points="155.5,-19.5 155.5,-38.5 262.5,-38.5 262.5,-19.5 155.5,-19.5"/>
<text text-anchor="middle" x="209" y="-26.5" font-family="Helvetica,sans-Serif" font-size="10.00">XMLParser.setSpec</text>
</a>
</g>
</g>
<!-- Node1&#45;&gt;Node6 -->
<g id="edge5" class="edge"><title>Node1&#45;&gt;Node6</title>
<path fill="none" stroke="midnightblue" d="M110.017,-41.2478C121.435,-39.8206 133.577,-38.3029 145.285,-36.8394"/>
<polygon fill="midnightblue" stroke="midnightblue" points="145.944,-40.2843 155.432,-35.5709 145.076,-33.3384 145.944,-40.2843"/>
</g>
<!-- Node7 -->
<g id="node7" class="node"><title>Node7</title>
<g id="a_node7"><a xlink:href="../../d2/d95/class_x_m_l_parser.html#a8937dc9e14a7634fc1c773a57391e55a" target="_top" xlink:title="XMLParser.setValue">
<polygon fill="white" stroke="black" points="309,-0.5 309,-19.5 419,-19.5 419,-0.5 309,-0.5"/>
<text text-anchor="middle" x="364" y="-7.5" font-family="Helvetica,sans-Serif" font-size="10.00">XMLParser.setValue</text>
</a>
</g>
</g>
<!-- Node1&#45;&gt;Node7 -->
<g id="edge9" class="edge"><title>Node1&#45;&gt;Node7</title>
<path fill="none" stroke="midnightblue" d="M72.9263,-38.4234C90.5393,-29.0514 119.236,-15.4185 146,-10 196.592,0.242803 255.19,-0.478644 298.732,-3.36196"/>
<polygon fill="midnightblue" stroke="midnightblue" points="298.676,-6.86691 308.901,-4.09256 299.178,0.115091 298.676,-6.86691"/>
</g>
<!-- Node3 -->
<g id="node3" class="node"><title>Node3</title>
<g id="a_node3"><a xlink:href="../../d2/d95/class_x_m_l_parser.html#afbbeca369c1f7b61e0ea2ee6b48de167" target="_top" xlink:title="XMLParser.pullValue">
<polygon fill="white" stroke="black" points="308.5,-85.5 308.5,-104.5 419.5,-104.5 419.5,-85.5 308.5,-85.5"/>
<text text-anchor="middle" x="364" y="-92.5" font-family="Helvetica,sans-Serif" font-size="10.00">XMLParser.pullValue</text>
</a>
</g>
</g>
<!-- Node2&#45;&gt;Node3 -->
<g id="edge2" class="edge"><title>Node2&#45;&gt;Node3</title>
<path fill="none" stroke="midnightblue" d="M271.349,-100.99C280.073,-100.42 289.071,-99.8319 297.865,-99.2572"/>
<polygon fill="midnightblue" stroke="midnightblue" points="298.314,-102.735 308.064,-98.5906 297.857,-95.7503 298.314,-102.735"/>
</g>
<!-- Node4 -->
<g id="node4" class="node"><title>Node4</title>
<g id="a_node4"><a xlink:href="../../d2/d95/class_x_m_l_parser.html#a6f6f67a0bf11d4b31ea5cc7d60d32460" target="_top" xlink:title="XMLParser.pullField">
<polygon fill="white" stroke="black" points="456,-38.5 456,-57.5 562,-57.5 562,-38.5 456,-38.5"/>
<text text-anchor="middle" x="509" y="-45.5" font-family="Helvetica,sans-Serif" font-size="10.00">XMLParser.pullField</text>
</a>
</g>
</g>
<!-- Node3&#45;&gt;Node4 -->
<g id="edge3" class="edge"><title>Node3&#45;&gt;Node4</title>
<path fill="none" stroke="midnightblue" d="M393.938,-85.4888C415.504,-78.4008 445.192,-68.6432 468.874,-60.8597"/>
<polygon fill="midnightblue" stroke="midnightblue" points="470.207,-64.1058 478.614,-57.6583 468.021,-57.4558 470.207,-64.1058"/>
</g>
<!-- Node6&#45;&gt;Node4 -->
<g id="edge6" class="edge"><title>Node6&#45;&gt;Node4</title>
<path fill="none" stroke="midnightblue" d="M262.59,-32.3531C313.764,-35.6158 391.525,-40.5737 445.756,-44.0315"/>
<polygon fill="midnightblue" stroke="midnightblue" points="445.733,-47.537 455.935,-44.6804 446.178,-40.5511 445.733,-47.537"/>
</g>
<!-- Node6&#45;&gt;Node7 -->
<g id="edge7" class="edge"><title>Node6&#45;&gt;Node7</title>
<path fill="none" stroke="midnightblue" d="M262.654,-22.4613C274.337,-21.0105 286.844,-19.4572 298.927,-17.9568"/>
<polygon fill="midnightblue" stroke="midnightblue" points="299.456,-21.418 308.949,-16.7123 298.593,-14.4714 299.456,-21.418"/>
</g>
<!-- Node7&#45;&gt;Node4 -->
<g id="edge8" class="edge"><title>Node7&#45;&gt;Node4</title>
<path fill="none" stroke="midnightblue" d="M401.085,-19.589C419.63,-24.5169 442.426,-30.5749 462.199,-35.8291"/>
<polygon fill="midnightblue" stroke="midnightblue" points="461.363,-39.2284 471.927,-38.4141 463.161,-32.4632 461.363,-39.2284"/>
</g>
</g>
</svg>
