<?xml version="1.0" encoding="UTF-8" standalone="no"?>
<!DOCTYPE svg PUBLIC "-//W3C//DTD SVG 1.1//EN"
 "http://www.w3.org/Graphics/SVG/1.1/DTD/svg11.dtd">
<!-- Generated by graphviz version 2.36.0 (20140111.2315)
 -->
<!-- Title: XMLParser.getIntSpec Pages: 1 -->
<svg width="338pt" height="66pt"
 viewBox="0.00 0.00 338.00 66.00" xmlns="http://www.w3.org/2000/svg" xmlns:xlink="http://www.w3.org/1999/xlink">
<g id="graph0" class="graph" transform="scale(1 1) rotate(0) translate(4 62)">
<title>XMLParser.getIntSpec</title>
<polygon fill="white" stroke="none" points="-4,4 -4,-62 334,-62 334,4 -4,4"/>
<!-- Node1 -->
<g id="node1" class="node"><title>Node1</title>
<polygon fill="#bfbfbf" stroke="black" points="0,-19.5 0,-38.5 120,-38.5 120,-19.5 0,-19.5"/>
<text text-anchor="middle" x="60" y="-26.5" font-family="Helvetica,sans-Serif" font-size="10.00">XMLParser.getIntSpec</text>
</g>
<!-- Node2 -->
<g id="node2" class="node"><title>Node2</title>
<g id="a_node2"><a xlink:href="../../d2/d95/class_x_m_l_parser.html#af0ec34241378ddfda04d5e53662f5d2d" target="_top" xlink:title="XMLParser.getNeighborhoodSize">
<polygon fill="white" stroke="black" points="157,-38.5 157,-57.5 329,-57.5 329,-38.5 157,-38.5"/>
<text text-anchor="middle" x="243" y="-45.5" font-family="Helvetica,sans-Serif" font-size="10.00">XMLParser.getNeighborhoodSize</text>
</a>
</g>
</g>
<!-- Node1&#45;&gt;Node2 -->
<g id="edge1" class="edge"><title>Node1&#45;&gt;Node2</title>
<path fill="none" stroke="midnightblue" d="M130.352,-36.2801C139.071,-37.1953 148.066,-38.1395 156.99,-39.0763"/>
<polygon fill="midnightblue" stroke="midnightblue" points="130.577,-32.7845 120.266,-35.2213 129.846,-39.7463 130.577,-32.7845"/>
</g>
<!-- Node3 -->
<g id="node3" class="node"><title>Node3</title>
<g id="a_node3"><a xlink:href="../../d2/d95/class_x_m_l_parser.html#a630ba14d1542cbfbb1759efb3580bf5a" target="_top" xlink:title="XMLParser.getNumCellProperties">
<polygon fill="white" stroke="black" points="156.5,-0.5 156.5,-19.5 329.5,-19.5 329.5,-0.5 156.5,-0.5"/>
<text text-anchor="middle" x="243" y="-7.5" font-family="Helvetica,sans-Serif" font-size="10.00">XMLParser.getNumCellProperties</text>
</a>
</g>
</g>
<!-- Node1&#45;&gt;Node3 -->
<g id="edge2" class="edge"><title>Node1&#45;&gt;Node3</title>
<path fill="none" stroke="midnightblue" d="M130.452,-21.7095C138.926,-20.8199 147.661,-19.903 156.337,-18.9923"/>
<polygon fill="midnightblue" stroke="midnightblue" points="129.846,-18.2537 120.266,-22.7787 130.577,-25.2155 129.846,-18.2537"/>
</g>
</g>
</svg>
