<?xml version="1.0" encoding="UTF-8" standalone="no"?>
<!DOCTYPE svg PUBLIC "-//W3C//DTD SVG 1.1//EN"
 "http://www.w3.org/Graphics/SVG/1.1/DTD/svg11.dtd">
<!-- Generated by graphviz version 2.36.0 (20140111.2315)
 -->
<!-- Title: XMLParser.getSimSpec Pages: 1 -->
<svg width="426pt" height="47pt"
 viewBox="0.00 0.00 426.00 47.00" xmlns="http://www.w3.org/2000/svg" xmlns:xlink="http://www.w3.org/1999/xlink">
<g id="graph0" class="graph" transform="scale(1 1) rotate(0) translate(4 43)">
<title>XMLParser.getSimSpec</title>
<polygon fill="white" stroke="none" points="-4,4 -4,-43 422,-43 422,4 -4,4"/>
<!-- Node1 -->
<g id="node1" class="node"><title>Node1</title>
<polygon fill="#bfbfbf" stroke="black" points="0.5,-19.5 0.5,-38.5 127.5,-38.5 127.5,-19.5 0.5,-19.5"/>
<text text-anchor="middle" x="64" y="-26.5" font-family="Helvetica,sans-Serif" font-size="10.00">XMLParser.getSimSpec</text>
</g>
<!-- Node2 -->
<g id="node2" class="node"><title>Node2</title>
<g id="a_node2"><a xlink:href="../../d2/d95/class_x_m_l_parser.html#a6f6f67a0bf11d4b31ea5cc7d60d32460" target="_top" xlink:title="XMLParser.pullField">
<polygon fill="white" stroke="black" points="312,-19.5 312,-38.5 418,-38.5 418,-19.5 312,-19.5"/>
<text text-anchor="middle" x="365" y="-26.5" font-family="Helvetica,sans-Serif" font-size="10.00">XMLParser.pullField</text>
</a>
</g>
</g>
<!-- Node1&#45;&gt;Node2 -->
<g id="edge1" class="edge"><title>Node1&#45;&gt;Node2</title>
<path fill="none" stroke="midnightblue" d="M127.68,-29C178.786,-29 250.606,-29 301.628,-29"/>
<polygon fill="midnightblue" stroke="midnightblue" points="301.863,-32.5001 311.863,-29 301.863,-25.5001 301.863,-32.5001"/>
</g>
<!-- Node3 -->
<g id="node3" class="node"><title>Node3</title>
<g id="a_node3"><a xlink:href="../../d2/d95/class_x_m_l_parser.html#afbbeca369c1f7b61e0ea2ee6b48de167" target="_top" xlink:title="XMLParser.pullValue">
<polygon fill="white" stroke="black" points="164.5,-0.5 164.5,-19.5 275.5,-19.5 275.5,-0.5 164.5,-0.5"/>
<text text-anchor="middle" x="220" y="-7.5" font-family="Helvetica,sans-Serif" font-size="10.00">XMLParser.pullValue</text>
</a>
</g>
</g>
<!-- Node1&#45;&gt;Node3 -->
<g id="edge2" class="edge"><title>Node1&#45;&gt;Node3</title>
<path fill="none" stroke="midnightblue" d="M127.638,-21.272C136.376,-20.1939 145.37,-19.0842 154.149,-18.0011"/>
<polygon fill="midnightblue" stroke="midnightblue" points="154.83,-21.4437 164.326,-16.7455 153.973,-14.4964 154.83,-21.4437"/>
</g>
<!-- Node3&#45;&gt;Node2 -->
<g id="edge3" class="edge"><title>Node3&#45;&gt;Node2</title>
<path fill="none" stroke="midnightblue" d="M275.879,-17.2916C284.37,-18.4198 293.193,-19.5921 301.831,-20.7398"/>
<polygon fill="midnightblue" stroke="midnightblue" points="301.481,-24.224 311.855,-22.0717 302.403,-17.285 301.481,-24.224"/>
</g>
</g>
</svg>
