<?xml version="1.0" encoding="UTF-8" standalone="no"?>
<!DOCTYPE svg PUBLIC "-//W3C//DTD SVG 1.1//EN"
 "http://www.w3.org/Graphics/SVG/1.1/DTD/svg11.dtd">
<!-- Generated by graphviz version 2.36.0 (20140111.2315)
 -->
<!-- Title: XMLParser.pullValue Pages: 1 -->
<!--zoomable 189 -->
<svg id="main" version="1.1" xmlns="http://www.w3.org/2000/svg" xmlns:xlink="http://www.w3.org/1999/xlink" xml:space="preserve" onload="init(evt)">
<style type="text/css"><![CDATA[
.edge:hover path { stroke: red; }
.edge:hover polygon { stroke: red; fill: red; }
]]></style>
<script type="text/javascript"><![CDATA[
var edges = document.getElementsByTagName('g');
if (edges && edges.length) {
  for (var i=0;i<edges.length;i++) {
    if (edges[i].id.substr(0,4)=='edge') {
      edges[i].setAttribute('class','edge');
    }
  }
}
]]></script>
        <defs>
                <circle id="rim" cx="0" cy="0" r="7"/>
                <circle id="rim2" cx="0" cy="0" r="3.5"/>
                <g id="zoomPlus">
                        <use xlink:href="#rim" fill="#404040">
                                <set attributeName="fill" to="#808080" begin="zoomplus.mouseover" end="zoomplus.mouseout"/>
                        </use>
                        <path d="M-4,0h8M0,-4v8" fill="none" stroke="white" stroke-width="1.5" pointer-events="none"/>
                </g>
                <g id="zoomMin">
                        <use xlink:href="#rim" fill="#404040">
                                <set attributeName="fill" to="#808080" begin="zoomminus.mouseover" end="zoomminus.mouseout"/>
                        </use>
                        <path d="M-4,0h8" fill="none" stroke="white" stroke-width="1.5" pointer-events="none"/>
                </g>
                <g id="dirArrow">
                        <path fill="none" stroke="white" stroke-width="1.5" d="M0,-3.0v7 M-2.5,-0.5L0,-3.0L2.5,-0.5"/>
                </g>
               <g id="resetDef">
                       <use xlink:href="#rim2" fill="#404040">
                               <set attributeName="fill" to="#808080" begin="reset.mouseover" end="reset.mouseout"/>
                       </use>
               </g>
        </defs>

<script type="text/javascript">
var viewWidth = 686;
var viewHeight = 189;
var sectionId = 'dynsection-22';
</script>
<script xlink:href="../../svgpan.js"/>
<svg id="graph" class="graph">
<g id="viewport">
<title>XMLParser.pullValue</title>
<polygon fill="white" stroke="none" points="-4,4 -4,-185 682,-185 682,4 -4,4"/>
<!-- Node1 -->
<g id="node1" class="node"><title>Node1</title>
<polygon fill="#bfbfbf" stroke="black" points="0.5,-76.5 0.5,-95.5 111.5,-95.5 111.5,-76.5 0.5,-76.5"/>
<text text-anchor="middle" x="56" y="-83.5" font-family="Helvetica,sans-Serif" font-size="10.00">XMLParser.pullValue</text>
</g>
<!-- Node2 -->
<g id="node2" class="node"><title>Node2</title>
<g id="a_node2"><a xlink:href="../../d2/d95/class_x_m_l_parser.html#a7d94792297370f5a5e2d5d32aad86cbf" target="_top" xlink:title="XMLParser.getGrid">
<polygon fill="white" stroke="black" points="162,-152.5 162,-171.5 266,-171.5 266,-152.5 162,-152.5"/>
<text text-anchor="middle" x="214" y="-159.5" font-family="Helvetica,sans-Serif" font-size="10.00">XMLParser.getGrid</text>
</a>
</g>
</g>
<!-- Node1&#45;&gt;Node2 -->
<g id="edge1" class="edge"><title>Node1&#45;&gt;Node2</title>
<path fill="none" stroke="midnightblue" d="M78.4214,-101.797C96.2866,-114.374 122.801,-131.687 148,-143 156.151,-146.66 165.192,-149.821 173.875,-152.457"/>
<polygon fill="midnightblue" stroke="midnightblue" points="80.0882,-98.686 69.9203,-95.7089 76.0124,-104.377 80.0882,-98.686"/>
</g>
<!-- Node3 -->
<g id="node3" class="node"><title>Node3</title>
<g id="a_node3"><a xlink:href="../../d2/d95/class_x_m_l_parser.html#accbbb76e54cda65bc4cc9b7eec0d87fc" target="_top" xlink:title="XMLParser.getGridType">
<polygon fill="white" stroke="black" points="151.5,-114.5 151.5,-133.5 276.5,-133.5 276.5,-114.5 151.5,-114.5"/>
<text text-anchor="middle" x="214" y="-121.5" font-family="Helvetica,sans-Serif" font-size="10.00">XMLParser.getGridType</text>
</a>
</g>
</g>
<!-- Node1&#45;&gt;Node3 -->
<g id="edge2" class="edge"><title>Node1&#45;&gt;Node3</title>
<path fill="none" stroke="midnightblue" d="M106.132,-97.968C127.993,-103.293 153.376,-109.476 173.918,-114.48"/>
<polygon fill="midnightblue" stroke="midnightblue" points="106.91,-94.5552 96.3654,-95.589 105.253,-101.356 106.91,-94.5552"/>
</g>
<!-- Node4 -->
<g id="node4" class="node"><title>Node4</title>
<g id="a_node4"><a xlink:href="../../d2/d95/class_x_m_l_parser.html#aa07ac06ef863be8d35f723becb2a984f" target="_top" xlink:title="XMLParser.getSimSpec">
<polygon fill="white" stroke="black" points="150.5,-76.5 150.5,-95.5 277.5,-95.5 277.5,-76.5 150.5,-76.5"/>
<text text-anchor="middle" x="214" y="-83.5" font-family="Helvetica,sans-Serif" font-size="10.00">XMLParser.getSimSpec</text>
</a>
</g>
</g>
<!-- Node1&#45;&gt;Node4 -->
<g id="edge3" class="edge"><title>Node1&#45;&gt;Node4</title>
<path fill="none" stroke="midnightblue" d="M121.735,-86C131.234,-86 141.004,-86 150.458,-86"/>
<polygon fill="midnightblue" stroke="midnightblue" points="121.561,-82.5001 111.561,-86 121.561,-89.5001 121.561,-82.5001"/>
</g>
<!-- Node12 -->
<g id="node12" class="node"><title>Node12</title>
<g id="a_node12"><a xlink:href="../../d2/d95/class_x_m_l_parser.html#aaf28e3838541b96011b1e04580fc462a" target="_top" xlink:title="XMLParser.getSimType">
<polygon fill="white" stroke="black" points="152,-38.5 152,-57.5 276,-57.5 276,-38.5 152,-38.5"/>
<text text-anchor="middle" x="214" y="-45.5" font-family="Helvetica,sans-Serif" font-size="10.00">XMLParser.getSimType</text>
</a>
</g>
</g>
<!-- Node1&#45;&gt;Node12 -->
<g id="edge11" class="edge"><title>Node1&#45;&gt;Node12</title>
<path fill="none" stroke="midnightblue" d="M106.132,-74.032C127.993,-68.7069 153.376,-62.5238 173.918,-57.5201"/>
<polygon fill="midnightblue" stroke="midnightblue" points="105.253,-70.6437 96.3654,-76.411 106.91,-77.4448 105.253,-70.6437"/>
</g>
<!-- Node14 -->
<g id="node14" class="node"><title>Node14</title>
<g id="a_node14"><a xlink:href="../../d2/d95/class_x_m_l_parser.html#a82c0cec83917a4aed10c8d5f05797b34" target="_top" xlink:title="XMLParser.getStateMap">
<polygon fill="white" stroke="black" points="148.5,-0.5 148.5,-19.5 279.5,-19.5 279.5,-0.5 148.5,-0.5"/>
<text text-anchor="middle" x="214" y="-7.5" font-family="Helvetica,sans-Serif" font-size="10.00">XMLParser.getStateMap</text>
</a>
</g>
</g>
<!-- Node1&#45;&gt;Node14 -->
<g id="edge13" class="edge"><title>Node1&#45;&gt;Node14</title>
<path fill="none" stroke="midnightblue" d="M78.4214,-70.2027C96.2866,-57.6257 122.801,-40.3133 148,-29 156.151,-25.3404 165.192,-22.1791 173.875,-19.5428"/>
<polygon fill="midnightblue" stroke="midnightblue" points="76.0124,-67.6229 69.9203,-76.2911 80.0882,-73.314 76.0124,-67.6229"/>
</g>
<!-- Node5 -->
<g id="node5" class="node"><title>Node5</title>
<g id="a_node5"><a xlink:href="../../d2/d95/class_x_m_l_parser.html#a0c2191510d473b5df832969b345ddb7c" target="_top" xlink:title="XMLParser.getBoolSpec">
<polygon fill="white" stroke="black" points="327.5,-133.5 327.5,-152.5 456.5,-152.5 456.5,-133.5 327.5,-133.5"/>
<text text-anchor="middle" x="392" y="-140.5" font-family="Helvetica,sans-Serif" font-size="10.00">XMLParser.getBoolSpec</text>
</a>
</g>
</g>
<!-- Node4&#45;&gt;Node5 -->
<g id="edge4" class="edge"><title>Node4&#45;&gt;Node5</title>
<path fill="none" stroke="midnightblue" d="M262.511,-98.6777C268.462,-100.619 274.416,-102.737 280,-105 296.767,-111.795 299.112,-117.511 316,-124 325.529,-127.662 336.01,-130.824 346.039,-133.46"/>
<polygon fill="midnightblue" stroke="midnightblue" points="263.152,-95.2118 252.564,-95.5845 261.073,-101.896 263.152,-95.2118"/>
</g>
<!-- Node8 -->
<g id="node8" class="node"><title>Node8</title>
<g id="a_node8"><a xlink:href="../../d2/d95/class_x_m_l_parser.html#afae4e89d9bc740ba79798268632fa2d3" target="_top" xlink:title="XMLParser.getInteractStates">
<polygon fill="white" stroke="black" points="316,-95.5 316,-114.5 468,-114.5 468,-95.5 316,-95.5"/>
<text text-anchor="middle" x="392" y="-102.5" font-family="Helvetica,sans-Serif" font-size="10.00">XMLParser.getInteractStates</text>
</a>
</g>
</g>
<!-- Node4&#45;&gt;Node8 -->
<g id="edge7" class="edge"><title>Node4&#45;&gt;Node8</title>
<path fill="none" stroke="midnightblue" d="M287.523,-93.8292C296.821,-94.833 306.358,-95.8625 315.7,-96.871"/>
<polygon fill="midnightblue" stroke="midnightblue" points="287.864,-90.3458 277.547,-92.7522 287.113,-97.3054 287.864,-90.3458"/>
</g>
<!-- Node9 -->
<g id="node9" class="node"><title>Node9</title>
<g id="a_node9"><a xlink:href="../../d2/d95/class_x_m_l_parser.html#a9ce3d4a8cb751a52ea349269f1e7d713" target="_top" xlink:title="XMLParser.getIntSpec">
<polygon fill="white" stroke="black" points="332,-57.5 332,-76.5 452,-76.5 452,-57.5 332,-57.5"/>
<text text-anchor="middle" x="392" y="-64.5" font-family="Helvetica,sans-Serif" font-size="10.00">XMLParser.getIntSpec</text>
</a>
</g>
</g>
<!-- Node4&#45;&gt;Node9 -->
<g id="edge8" class="edge"><title>Node4&#45;&gt;Node9</title>
<path fill="none" stroke="midnightblue" d="M287.632,-78.159C302.367,-76.5683 317.696,-74.9135 331.895,-73.3806"/>
<polygon fill="midnightblue" stroke="midnightblue" points="287.113,-74.6946 277.547,-79.2478 287.864,-81.6542 287.113,-74.6946"/>
</g>
<!-- Node6 -->
<g id="node6" class="node"><title>Node6</title>
<g id="a_node6"><a xlink:href="../../d2/d95/class_x_m_l_parser.html#a11061ead64d7b0da6e0a034dcc42b455" target="_top" xlink:title="XMLParser.getCornerNeighbors">
<polygon fill="white" stroke="black" points="508.5,-161.5 508.5,-180.5 673.5,-180.5 673.5,-161.5 508.5,-161.5"/>
<text text-anchor="middle" x="591" y="-168.5" font-family="Helvetica,sans-Serif" font-size="10.00">XMLParser.getCornerNeighbors</text>
</a>
</g>
</g>
<!-- Node5&#45;&gt;Node6 -->
<g id="edge5" class="edge"><title>Node5&#45;&gt;Node6</title>
<path fill="none" stroke="midnightblue" d="M466.811,-153.491C485.294,-156.118 505.017,-158.921 523.141,-161.497"/>
<polygon fill="midnightblue" stroke="midnightblue" points="467.081,-149.994 456.688,-152.052 466.096,-156.925 467.081,-149.994"/>
</g>
<!-- Node7 -->
<g id="node7" class="node"><title>Node7</title>
<g id="a_node7"><a xlink:href="../../d2/d95/class_x_m_l_parser.html#a7661b8f6a7517ce93d5c9b726f273e95" target="_top" xlink:title="XMLParser.getWrapAround">
<polygon fill="white" stroke="black" points="520,-123.5 520,-142.5 662,-142.5 662,-123.5 520,-123.5"/>
<text text-anchor="middle" x="591" y="-130.5" font-family="Helvetica,sans-Serif" font-size="10.00">XMLParser.getWrapAround</text>
</a>
</g>
</g>
<!-- Node5&#45;&gt;Node7 -->
<g id="edge6" class="edge"><title>Node5&#45;&gt;Node7</title>
<path fill="none" stroke="midnightblue" d="M466.754,-139.256C484.095,-138.376 502.53,-137.44 519.713,-136.568"/>
<polygon fill="midnightblue" stroke="midnightblue" points="466.498,-135.765 456.688,-139.767 466.853,-142.756 466.498,-135.765"/>
</g>
<!-- Node10 -->
<g id="node10" class="node"><title>Node10</title>
<g id="a_node10"><a xlink:href="../../d2/d95/class_x_m_l_parser.html#af0ec34241378ddfda04d5e53662f5d2d" target="_top" xlink:title="XMLParser.getNeighborhoodSize">
<polygon fill="white" stroke="black" points="505,-66.5 505,-85.5 677,-85.5 677,-66.5 505,-66.5"/>
<text text-anchor="middle" x="591" y="-73.5" font-family="Helvetica,sans-Serif" font-size="10.00">XMLParser.getNeighborhoodSize</text>
</a>
</g>
</g>
<!-- Node9&#45;&gt;Node10 -->
<g id="edge9" class="edge"><title>Node9&#45;&gt;Node10</title>
<path fill="none" stroke="midnightblue" d="M462.39,-70.1701C476.073,-70.7952 490.58,-71.458 504.716,-72.1038"/>
<polygon fill="midnightblue" stroke="midnightblue" points="462.256,-66.6604 452.106,-69.7003 461.936,-73.6531 462.256,-66.6604"/>
</g>
<!-- Node11 -->
<g id="node11" class="node"><title>Node11</title>
<g id="a_node11"><a xlink:href="../../d2/d95/class_x_m_l_parser.html#a630ba14d1542cbfbb1759efb3580bf5a" target="_top" xlink:title="XMLParser.getNumCellProperties">
<polygon fill="white" stroke="black" points="504.5,-28.5 504.5,-47.5 677.5,-47.5 677.5,-28.5 504.5,-28.5"/>
<text text-anchor="middle" x="591" y="-35.5" font-family="Helvetica,sans-Serif" font-size="10.00">XMLParser.getNumCellProperties</text>
</a>
</g>
</g>
<!-- Node9&#45;&gt;Node11 -->
<g id="edge10" class="edge"><title>Node9&#45;&gt;Node11</title>
<path fill="none" stroke="midnightblue" d="M462.048,-56.8355C482.646,-53.8034 505.136,-50.4927 525.435,-47.5045"/>
<polygon fill="midnightblue" stroke="midnightblue" points="461.49,-53.3799 452.106,-58.299 462.51,-60.3053 461.49,-53.3799"/>
</g>
<!-- Node13 -->
<g id="node13" class="node"><title>Node13</title>
<g id="a_node13"><a xlink:href="../../d2/d95/class_x_m_l_parser.html#a0e8c6a4de7fe25aaf55ec0ffc3ca3c6e" target="_top" xlink:title="XMLParser.writeXML">
<polygon fill="white" stroke="black" points="337,-19.5 337,-38.5 447,-38.5 447,-19.5 337,-19.5"/>
<text text-anchor="middle" x="392" y="-26.5" font-family="Helvetica,sans-Serif" font-size="10.00">XMLParser.writeXML</text>
</a>
</g>
</g>
<!-- Node12&#45;&gt;Node13 -->
<g id="edge12" class="edge"><title>Node12&#45;&gt;Node13</title>
<path fill="none" stroke="midnightblue" d="M286.404,-40.2916C303.225,-38.4757 320.886,-36.5691 336.806,-34.8505"/>
<polygon fill="midnightblue" stroke="midnightblue" points="285.629,-36.8549 276.062,-41.408 286.38,-43.8144 285.629,-36.8549"/>
</g>
</g>
</svg>
        <g id="navigator" transform="translate(0 0)" fill="#404254">
                <rect fill="#f2f5e9" fill-opacity="0.5" stroke="#606060" stroke-width=".5" x="0" y="0" width="60" height="60"/>
                <use id="zoomplus" xlink:href="#zoomPlus" x="17" y="9" onmousedown="handleZoom(evt,'in')"/>
                <use id="zoomminus" xlink:href="#zoomMin" x="42" y="9" onmousedown="handleZoom(evt,'out')"/>
                <use id="reset" xlink:href="#resetDef" x="30" y="36" onmousedown="handleReset()"/>
                <g id="arrowUp" xlink:href="#dirArrow" transform="translate(30 24)" onmousedown="handlePan(0,-1)">
                  <use xlink:href="#rim" fill="#404040">
                        <set attributeName="fill" to="#808080" begin="arrowUp.mouseover" end="arrowUp.mouseout"/>
                  </use>
                  <path fill="none" stroke="white" stroke-width="1.5" d="M0,-3.0v7 M-2.5,-0.5L0,-3.0L2.5,-0.5"/>
                </g>
                <g id="arrowRight" xlink:href="#dirArrow" transform="rotate(90) translate(36 -43)" onmousedown="handlePan(1,0)">
                  <use xlink:href="#rim" fill="#404040">
                        <set attributeName="fill" to="#808080" begin="arrowRight.mouseover" end="arrowRight.mouseout"/>
                  </use>
                  <path fill="none" stroke="white" stroke-width="1.5" d="M0,-3.0v7 M-2.5,-0.5L0,-3.0L2.5,-0.5"/>
                </g>
                <g id="arrowDown" xlink:href="#dirArrow" transform="rotate(180) translate(-30 -48)" onmousedown="handlePan(0,1)">
                  <use xlink:href="#rim" fill="#404040">
                        <set attributeName="fill" to="#808080" begin="arrowDown.mouseover" end="arrowDown.mouseout"/>
                  </use>
                  <path fill="none" stroke="white" stroke-width="1.5" d="M0,-3.0v7 M-2.5,-0.5L0,-3.0L2.5,-0.5"/>
                </g>
                <g id="arrowLeft" xlink:href="#dirArrow" transform="rotate(270) translate(-36 17)" onmousedown="handlePan(-1,0)">
                  <use xlink:href="#rim" fill="#404040">
                        <set attributeName="fill" to="#808080" begin="arrowLeft.mouseover" end="arrowLeft.mouseout"/>
                  </use>
                  <path fill="none" stroke="white" stroke-width="1.5" d="M0,-3.0v7 M-2.5,-0.5L0,-3.0L2.5,-0.5"/>
                </g>
        </g>
        <svg viewBox="0 0 15 15" width="100%" height="30px" preserveAspectRatio="xMaxYMin meet">
         <g id="arrow_out" transform="scale(0.3 0.3)">
          <a xlink:href="class_x_m_l_parser_afbbeca369c1f7b61e0ea2ee6b48de167_icgraph_org.svg" target="_base">
           <rect id="button" ry="5" rx="5" y="6" x="6" height="38" width="38"
                fill="#f2f5e9" fill-opacity="0.5" stroke="#606060" stroke-width="1.0"/>
           <path id="arrow"
             d="M 11.500037,31.436501 C 11.940474,20.09759 22.043105,11.32322 32.158766,21.979434 L 37.068811,17.246167 C 37.068811,17.246167 37.088388,32 37.088388,32 L 22.160133,31.978069 C 22.160133,31.978069 26.997745,27.140456 26.997745,27.140456 C 18.528582,18.264221 13.291696,25.230495 11.500037,31.436501 z"
             style="fill:#404040;"/>
          </a>
         </g>
        </svg>
</svg>
