<?xml version="1.0" encoding="UTF-8" standalone="no"?>
<!DOCTYPE svg PUBLIC "-//W3C//DTD SVG 1.1//EN"
 "http://www.w3.org/Graphics/SVG/1.1/DTD/svg11.dtd">
<!-- Generated by graphviz version 2.36.0 (20140111.2315)
 -->
<!-- Title: XMLParser.getBoolSpec Pages: 1 -->
<svg width="340pt" height="66pt"
 viewBox="0.00 0.00 340.00 66.00" xmlns="http://www.w3.org/2000/svg" xmlns:xlink="http://www.w3.org/1999/xlink">
<g id="graph0" class="graph" transform="scale(1 1) rotate(0) translate(4 62)">
<title>XMLParser.getBoolSpec</title>
<polygon fill="white" stroke="none" points="-4,4 -4,-62 336,-62 336,4 -4,4"/>
<!-- Node1 -->
<g id="node1" class="node"><title>Node1</title>
<polygon fill="#bfbfbf" stroke="black" points="0.5,-19.5 0.5,-38.5 129.5,-38.5 129.5,-19.5 0.5,-19.5"/>
<text text-anchor="middle" x="65" y="-26.5" font-family="Helvetica,sans-Serif" font-size="10.00">XMLParser.getBoolSpec</text>
</g>
<!-- Node2 -->
<g id="node2" class="node"><title>Node2</title>
<g id="a_node2"><a xlink:href="../../d2/d95/class_x_m_l_parser.html#a11061ead64d7b0da6e0a034dcc42b455" target="_top" xlink:title="XMLParser.getCornerNeighbors">
<polygon fill="white" stroke="black" points="166.5,-38.5 166.5,-57.5 331.5,-57.5 331.5,-38.5 166.5,-38.5"/>
<text text-anchor="middle" x="249" y="-45.5" font-family="Helvetica,sans-Serif" font-size="10.00">XMLParser.getCornerNeighbors</text>
</a>
</g>
</g>
<!-- Node1&#45;&gt;Node2 -->
<g id="edge1" class="edge"><title>Node1&#45;&gt;Node2</title>
<path fill="none" stroke="midnightblue" d="M139.83,-36.7075C148.602,-37.6233 157.594,-38.5621 166.466,-39.4882"/>
<polygon fill="midnightblue" stroke="midnightblue" points="139.964,-33.2026 129.655,-35.6453 139.237,-40.1648 139.964,-33.2026"/>
</g>
<!-- Node3 -->
<g id="node3" class="node"><title>Node3</title>
<g id="a_node3"><a xlink:href="../../d2/d95/class_x_m_l_parser.html#a7661b8f6a7517ce93d5c9b726f273e95" target="_top" xlink:title="XMLParser.getWrapAround">
<polygon fill="white" stroke="black" points="178,-0.5 178,-19.5 320,-19.5 320,-0.5 178,-0.5"/>
<text text-anchor="middle" x="249" y="-7.5" font-family="Helvetica,sans-Serif" font-size="10.00">XMLParser.getWrapAround</text>
</a>
</g>
</g>
<!-- Node1&#45;&gt;Node3 -->
<g id="edge2" class="edge"><title>Node1&#45;&gt;Node3</title>
<path fill="none" stroke="midnightblue" d="M139.653,-21.311C152.267,-19.9941 165.343,-18.6291 177.862,-17.3221"/>
<polygon fill="midnightblue" stroke="midnightblue" points="139.237,-17.8352 129.655,-22.3547 139.964,-24.7974 139.237,-17.8352"/>
</g>
</g>
</svg>
