<?xml version="1.0" encoding="UTF-8" standalone="no"?>
<!DOCTYPE svg PUBLIC "-//W3C//DTD SVG 1.1//EN"
 "http://www.w3.org/Graphics/SVG/1.1/DTD/svg11.dtd">
<!-- Generated by graphviz version 2.36.0 (20140111.2315)
 -->
<!-- Title: XMLParser.getNeighborhoodSize Pages: 1 -->
<svg width="790pt" height="47pt"
 viewBox="0.00 0.00 790.00 47.00" xmlns="http://www.w3.org/2000/svg" xmlns:xlink="http://www.w3.org/1999/xlink">
<g id="graph0" class="graph" transform="scale(1 1) rotate(0) translate(4 43)">
<title>XMLParser.getNeighborhoodSize</title>
<polygon fill="white" stroke="none" points="-4,4 -4,-43 786,-43 786,4 -4,4"/>
<!-- Node1 -->
<g id="node1" class="node"><title>Node1</title>
<polygon fill="#bfbfbf" stroke="black" points="0,-19.5 0,-38.5 172,-38.5 172,-19.5 0,-19.5"/>
<text text-anchor="middle" x="86" y="-26.5" font-family="Helvetica,sans-Serif" font-size="10.00">XMLParser.getNeighborhoodSize</text>
</g>
<!-- Node2 -->
<g id="node2" class="node"><title>Node2</title>
<g id="a_node2"><a xlink:href="../../d2/d95/class_x_m_l_parser.html#a9ce3d4a8cb751a52ea349269f1e7d713" target="_top" xlink:title="XMLParser.getIntSpec">
<polygon fill="white" stroke="black" points="208,-19.5 208,-38.5 328,-38.5 328,-19.5 208,-19.5"/>
<text text-anchor="middle" x="268" y="-26.5" font-family="Helvetica,sans-Serif" font-size="10.00">XMLParser.getIntSpec</text>
</a>
</g>
</g>
<!-- Node1&#45;&gt;Node2 -->
<g id="edge1" class="edge"><title>Node1&#45;&gt;Node2</title>
<path fill="none" stroke="midnightblue" d="M172.256,-29C180.848,-29 189.498,-29 197.891,-29"/>
<polygon fill="midnightblue" stroke="midnightblue" points="197.98,-32.5001 207.98,-29 197.98,-25.5001 197.98,-32.5001"/>
</g>
<!-- Node3 -->
<g id="node3" class="node"><title>Node3</title>
<g id="a_node3"><a xlink:href="../../d2/d95/class_x_m_l_parser.html#aa07ac06ef863be8d35f723becb2a984f" target="_top" xlink:title="XMLParser.getSimSpec">
<polygon fill="white" stroke="black" points="364.5,-19.5 364.5,-38.5 491.5,-38.5 491.5,-19.5 364.5,-19.5"/>
<text text-anchor="middle" x="428" y="-26.5" font-family="Helvetica,sans-Serif" font-size="10.00">XMLParser.getSimSpec</text>
</a>
</g>
</g>
<!-- Node2&#45;&gt;Node3 -->
<g id="edge2" class="edge"><title>Node2&#45;&gt;Node3</title>
<path fill="none" stroke="midnightblue" d="M328.283,-29C336.779,-29 345.601,-29 354.319,-29"/>
<polygon fill="midnightblue" stroke="midnightblue" points="354.481,-32.5001 364.481,-29 354.481,-25.5001 354.481,-32.5001"/>
</g>
<!-- Node4 -->
<g id="node4" class="node"><title>Node4</title>
<g id="a_node4"><a xlink:href="../../d2/d95/class_x_m_l_parser.html#a6f6f67a0bf11d4b31ea5cc7d60d32460" target="_top" xlink:title="XMLParser.pullField">
<polygon fill="white" stroke="black" points="676,-19.5 676,-38.5 782,-38.5 782,-19.5 676,-19.5"/>
<text text-anchor="middle" x="729" y="-26.5" font-family="Helvetica,sans-Serif" font-size="10.00">XMLParser.pullField</text>
</a>
</g>
</g>
<!-- Node3&#45;&gt;Node4 -->
<g id="edge3" class="edge"><title>Node3&#45;&gt;Node4</title>
<path fill="none" stroke="midnightblue" d="M491.68,-29C542.786,-29 614.606,-29 665.628,-29"/>
<polygon fill="midnightblue" stroke="midnightblue" points="665.863,-32.5001 675.863,-29 665.863,-25.5001 665.863,-32.5001"/>
</g>
<!-- Node5 -->
<g id="node5" class="node"><title>Node5</title>
<g id="a_node5"><a xlink:href="../../d2/d95/class_x_m_l_parser.html#afbbeca369c1f7b61e0ea2ee6b48de167" target="_top" xlink:title="XMLParser.pullValue">
<polygon fill="white" stroke="black" points="528.5,-0.5 528.5,-19.5 639.5,-19.5 639.5,-0.5 528.5,-0.5"/>
<text text-anchor="middle" x="584" y="-7.5" font-family="Helvetica,sans-Serif" font-size="10.00">XMLParser.pullValue</text>
</a>
</g>
</g>
<!-- Node3&#45;&gt;Node5 -->
<g id="edge4" class="edge"><title>Node3&#45;&gt;Node5</title>
<path fill="none" stroke="midnightblue" d="M491.638,-21.272C500.376,-20.1939 509.37,-19.0842 518.149,-18.0011"/>
<polygon fill="midnightblue" stroke="midnightblue" points="518.83,-21.4437 528.326,-16.7455 517.973,-14.4964 518.83,-21.4437"/>
</g>
<!-- Node5&#45;&gt;Node4 -->
<g id="edge5" class="edge"><title>Node5&#45;&gt;Node4</title>
<path fill="none" stroke="midnightblue" d="M639.879,-17.2916C648.37,-18.4198 657.193,-19.5921 665.831,-20.7398"/>
<polygon fill="midnightblue" stroke="midnightblue" points="665.481,-24.224 675.855,-22.0717 666.403,-17.285 665.481,-24.224"/>
</g>
</g>
</svg>
