<?xml version="1.0" encoding="UTF-8" standalone="no"?>
<!DOCTYPE svg PUBLIC "-//W3C//DTD SVG 1.1//EN"
 "http://www.w3.org/Graphics/SVG/1.1/DTD/svg11.dtd">
<!-- Generated by graphviz version 2.36.0 (20140111.2315)
 -->
<!-- Title: XMLParser.getCornerNeighbors Pages: 1 -->
<svg width="794pt" height="47pt"
 viewBox="0.00 0.00 794.00 47.00" xmlns="http://www.w3.org/2000/svg" xmlns:xlink="http://www.w3.org/1999/xlink">
<g id="graph0" class="graph" transform="scale(1 1) rotate(0) translate(4 43)">
<title>XMLParser.getCornerNeighbors</title>
<polygon fill="white" stroke="none" points="-4,4 -4,-43 790,-43 790,4 -4,4"/>
<!-- Node1 -->
<g id="node1" class="node"><title>Node1</title>
<polygon fill="#bfbfbf" stroke="black" points="0.5,-19.5 0.5,-38.5 165.5,-38.5 165.5,-19.5 0.5,-19.5"/>
<text text-anchor="middle" x="83" y="-26.5" font-family="Helvetica,sans-Serif" font-size="10.00">XMLParser.getCornerNeighbors</text>
</g>
<!-- Node2 -->
<g id="node2" class="node"><title>Node2</title>
<g id="a_node2"><a xlink:href="../../d2/d95/class_x_m_l_parser.html#a0c2191510d473b5df832969b345ddb7c" target="_top" xlink:title="XMLParser.getBoolSpec">
<polygon fill="white" stroke="black" points="202.5,-19.5 202.5,-38.5 331.5,-38.5 331.5,-19.5 202.5,-19.5"/>
<text text-anchor="middle" x="267" y="-26.5" font-family="Helvetica,sans-Serif" font-size="10.00">XMLParser.getBoolSpec</text>
</a>
</g>
</g>
<!-- Node1&#45;&gt;Node2 -->
<g id="edge1" class="edge"><title>Node1&#45;&gt;Node2</title>
<path fill="none" stroke="midnightblue" d="M165.683,-29C174.513,-29 183.461,-29 192.19,-29"/>
<polygon fill="midnightblue" stroke="midnightblue" points="192.316,-32.5001 202.316,-29 192.316,-25.5001 192.316,-32.5001"/>
</g>
<!-- Node3 -->
<g id="node3" class="node"><title>Node3</title>
<g id="a_node3"><a xlink:href="../../d2/d95/class_x_m_l_parser.html#aa07ac06ef863be8d35f723becb2a984f" target="_top" xlink:title="XMLParser.getSimSpec">
<polygon fill="white" stroke="black" points="368.5,-19.5 368.5,-38.5 495.5,-38.5 495.5,-19.5 368.5,-19.5"/>
<text text-anchor="middle" x="432" y="-26.5" font-family="Helvetica,sans-Serif" font-size="10.00">XMLParser.getSimSpec</text>
</a>
</g>
</g>
<!-- Node2&#45;&gt;Node3 -->
<g id="edge2" class="edge"><title>Node2&#45;&gt;Node3</title>
<path fill="none" stroke="midnightblue" d="M331.954,-29C340.544,-29 349.407,-29 358.137,-29"/>
<polygon fill="midnightblue" stroke="midnightblue" points="358.299,-32.5001 368.299,-29 358.299,-25.5001 358.299,-32.5001"/>
</g>
<!-- Node4 -->
<g id="node4" class="node"><title>Node4</title>
<g id="a_node4"><a xlink:href="../../d2/d95/class_x_m_l_parser.html#a6f6f67a0bf11d4b31ea5cc7d60d32460" target="_top" xlink:title="XMLParser.pullField">
<polygon fill="white" stroke="black" points="680,-19.5 680,-38.5 786,-38.5 786,-19.5 680,-19.5"/>
<text text-anchor="middle" x="733" y="-26.5" font-family="Helvetica,sans-Serif" font-size="10.00">XMLParser.pullField</text>
</a>
</g>
</g>
<!-- Node3&#45;&gt;Node4 -->
<g id="edge3" class="edge"><title>Node3&#45;&gt;Node4</title>
<path fill="none" stroke="midnightblue" d="M495.68,-29C546.786,-29 618.606,-29 669.628,-29"/>
<polygon fill="midnightblue" stroke="midnightblue" points="669.863,-32.5001 679.863,-29 669.863,-25.5001 669.863,-32.5001"/>
</g>
<!-- Node5 -->
<g id="node5" class="node"><title>Node5</title>
<g id="a_node5"><a xlink:href="../../d2/d95/class_x_m_l_parser.html#afbbeca369c1f7b61e0ea2ee6b48de167" target="_top" xlink:title="XMLParser.pullValue">
<polygon fill="white" stroke="black" points="532.5,-0.5 532.5,-19.5 643.5,-19.5 643.5,-0.5 532.5,-0.5"/>
<text text-anchor="middle" x="588" y="-7.5" font-family="Helvetica,sans-Serif" font-size="10.00">XMLParser.pullValue</text>
</a>
</g>
</g>
<!-- Node3&#45;&gt;Node5 -->
<g id="edge4" class="edge"><title>Node3&#45;&gt;Node5</title>
<path fill="none" stroke="midnightblue" d="M495.638,-21.272C504.376,-20.1939 513.37,-19.0842 522.149,-18.0011"/>
<polygon fill="midnightblue" stroke="midnightblue" points="522.83,-21.4437 532.326,-16.7455 521.973,-14.4964 522.83,-21.4437"/>
</g>
<!-- Node5&#45;&gt;Node4 -->
<g id="edge5" class="edge"><title>Node5&#45;&gt;Node4</title>
<path fill="none" stroke="midnightblue" d="M643.879,-17.2916C652.37,-18.4198 661.193,-19.5921 669.831,-20.7398"/>
<polygon fill="midnightblue" stroke="midnightblue" points="669.481,-24.224 679.855,-22.0717 670.403,-17.285 669.481,-24.224"/>
</g>
</g>
</svg>
