<?xml version="1.0" encoding="UTF-8" standalone="no"?>
<!DOCTYPE svg PUBLIC "-//W3C//DTD SVG 1.1//EN"
 "http://www.w3.org/Graphics/SVG/1.1/DTD/svg11.dtd">
<!-- Generated by graphviz version 2.36.0 (20140111.2315)
 -->
<!-- Title: XMLParser.pullField Pages: 1 -->
<svg width="828pt" height="322pt"
 viewBox="0.00 0.00 828.00 322.00" xmlns="http://www.w3.org/2000/svg" xmlns:xlink="http://www.w3.org/1999/xlink">
<g id="graph0" class="graph" transform="scale(1 1) rotate(0) translate(4 318)">
<title>XMLParser.pullField</title>
<polygon fill="white" stroke="none" points="-4,4 -4,-318 824,-318 824,4 -4,4"/>
<!-- Node1 -->
<g id="node1" class="node"><title>Node1</title>
<polygon fill="#bfbfbf" stroke="black" points="0,-152.5 0,-171.5 106,-171.5 106,-152.5 0,-152.5"/>
<text text-anchor="middle" x="53" y="-159.5" font-family="Helvetica,sans-Serif" font-size="10.00">XMLParser.pullField</text>
</g>
<!-- Node2 -->
<g id="node2" class="node"><title>Node2</title>
<g id="a_node2"><a xlink:href="../../d2/d95/class_x_m_l_parser.html#aa07ac06ef863be8d35f723becb2a984f" target="_top" xlink:title="XMLParser.getSimSpec">
<polygon fill="white" stroke="black" points="292.5,-228.5 292.5,-247.5 419.5,-247.5 419.5,-228.5 292.5,-228.5"/>
<text text-anchor="middle" x="356" y="-235.5" font-family="Helvetica,sans-Serif" font-size="10.00">XMLParser.getSimSpec</text>
</a>
</g>
</g>
<!-- Node1&#45;&gt;Node2 -->
<g id="edge1" class="edge"><title>Node1&#45;&gt;Node2</title>
<path fill="none" stroke="midnightblue" d="M81.3756,-176.222C98.4159,-184.543 121.013,-194.632 142,-201 191.385,-215.984 249.167,-225.546 292.079,-231.187"/>
<polygon fill="midnightblue" stroke="midnightblue" points="82.5501,-172.897 72.0388,-171.569 79.4275,-179.162 82.5501,-172.897"/>
</g>
<!-- Node10 -->
<g id="node10" class="node"><title>Node10</title>
<g id="a_node10"><a xlink:href="../../d2/d95/class_x_m_l_parser.html#a82c0cec83917a4aed10c8d5f05797b34" target="_top" xlink:title="XMLParser.getStateMap">
<polygon fill="white" stroke="black" points="290.5,-190.5 290.5,-209.5 421.5,-209.5 421.5,-190.5 290.5,-190.5"/>
<text text-anchor="middle" x="356" y="-197.5" font-family="Helvetica,sans-Serif" font-size="10.00">XMLParser.getStateMap</text>
</a>
</g>
</g>
<!-- Node1&#45;&gt;Node10 -->
<g id="edge9" class="edge"><title>Node1&#45;&gt;Node10</title>
<path fill="none" stroke="midnightblue" d="M103.108,-173.726C115.726,-176.429 129.319,-179.073 142,-181 191.551,-188.53 248.075,-193.402 290.437,-196.325"/>
<polygon fill="midnightblue" stroke="midnightblue" points="103.751,-170.284 93.2335,-171.558 102.25,-177.121 103.751,-170.284"/>
</g>
<!-- Node11 -->
<g id="node11" class="node"><title>Node11</title>
<g id="a_node11"><a xlink:href="../../d2/d95/class_x_m_l_parser.html#afbbeca369c1f7b61e0ea2ee6b48de167" target="_top" xlink:title="XMLParser.pullValue">
<polygon fill="white" stroke="black" points="142.5,-152.5 142.5,-171.5 253.5,-171.5 253.5,-152.5 142.5,-152.5"/>
<text text-anchor="middle" x="198" y="-159.5" font-family="Helvetica,sans-Serif" font-size="10.00">XMLParser.pullValue</text>
</a>
</g>
</g>
<!-- Node1&#45;&gt;Node11 -->
<g id="edge10" class="edge"><title>Node1&#45;&gt;Node11</title>
<path fill="none" stroke="midnightblue" d="M116.154,-162C124.878,-162 133.791,-162 142.361,-162"/>
<polygon fill="midnightblue" stroke="midnightblue" points="116.031,-158.5 106.031,-162 116.031,-165.5 116.031,-158.5"/>
</g>
<!-- Node16 -->
<g id="node16" class="node"><title>Node16</title>
<g id="a_node16"><a xlink:href="../../d2/d95/class_x_m_l_parser.html#a2b1b97e58c91e6452342afd031c98258" target="_top" xlink:title="XMLParser.setSpec">
<polygon fill="white" stroke="black" points="302.5,-0.5 302.5,-19.5 409.5,-19.5 409.5,-0.5 302.5,-0.5"/>
<text text-anchor="middle" x="356" y="-7.5" font-family="Helvetica,sans-Serif" font-size="10.00">XMLParser.setSpec</text>
</a>
</g>
</g>
<!-- Node1&#45;&gt;Node16 -->
<g id="edge17" class="edge"><title>Node1&#45;&gt;Node16</title>
<path fill="none" stroke="midnightblue" d="M60.5171,-142.724C71.8228,-112.606 98.1571,-55.1391 142,-29 190.471,-0.101845 256.473,1.17799 302.101,-2.55146"/>
<polygon fill="midnightblue" stroke="midnightblue" points="57.1022,-141.879 57.0273,-152.473 63.6927,-144.238 57.1022,-141.879"/>
</g>
<!-- Node17 -->
<g id="node17" class="node"><title>Node17</title>
<g id="a_node17"><a xlink:href="../../d2/d95/class_x_m_l_parser.html#a8937dc9e14a7634fc1c773a57391e55a" target="_top" xlink:title="XMLParser.setValue">
<polygon fill="white" stroke="black" points="143,-38.5 143,-57.5 253,-57.5 253,-38.5 143,-38.5"/>
<text text-anchor="middle" x="198" y="-45.5" font-family="Helvetica,sans-Serif" font-size="10.00">XMLParser.setValue</text>
</a>
</g>
</g>
<!-- Node1&#45;&gt;Node17 -->
<g id="edge19" class="edge"><title>Node1&#45;&gt;Node17</title>
<path fill="none" stroke="midnightblue" d="M74.3305,-145.792C104.52,-121.725 160.275,-77.2769 184.839,-57.695"/>
<polygon fill="midnightblue" stroke="midnightblue" points="71.8297,-143.31 66.1921,-152.28 76.1932,-148.784 71.8297,-143.31"/>
</g>
<!-- Node3 -->
<g id="node3" class="node"><title>Node3</title>
<g id="a_node3"><a xlink:href="../../d2/d95/class_x_m_l_parser.html#a0c2191510d473b5df832969b345ddb7c" target="_top" xlink:title="XMLParser.getBoolSpec">
<polygon fill="white" stroke="black" points="469.5,-266.5 469.5,-285.5 598.5,-285.5 598.5,-266.5 469.5,-266.5"/>
<text text-anchor="middle" x="534" y="-273.5" font-family="Helvetica,sans-Serif" font-size="10.00">XMLParser.getBoolSpec</text>
</a>
</g>
</g>
<!-- Node2&#45;&gt;Node3 -->
<g id="edge2" class="edge"><title>Node2&#45;&gt;Node3</title>
<path fill="none" stroke="midnightblue" d="M411.433,-249.753C436.319,-255.126 465.419,-261.409 488.907,-266.48"/>
<polygon fill="midnightblue" stroke="midnightblue" points="411.926,-246.278 401.412,-247.589 410.448,-253.121 411.926,-246.278"/>
</g>
<!-- Node6 -->
<g id="node6" class="node"><title>Node6</title>
<g id="a_node6"><a xlink:href="../../d2/d95/class_x_m_l_parser.html#afae4e89d9bc740ba79798268632fa2d3" target="_top" xlink:title="XMLParser.getInteractStates">
<polygon fill="white" stroke="black" points="458,-228.5 458,-247.5 610,-247.5 610,-228.5 458,-228.5"/>
<text text-anchor="middle" x="534" y="-235.5" font-family="Helvetica,sans-Serif" font-size="10.00">XMLParser.getInteractStates</text>
</a>
</g>
</g>
<!-- Node2&#45;&gt;Node6 -->
<g id="edge5" class="edge"><title>Node2&#45;&gt;Node6</title>
<path fill="none" stroke="midnightblue" d="M429.82,-238C439.024,-238 448.458,-238 457.7,-238"/>
<polygon fill="midnightblue" stroke="midnightblue" points="429.547,-234.5 419.547,-238 429.547,-241.5 429.547,-234.5"/>
</g>
<!-- Node7 -->
<g id="node7" class="node"><title>Node7</title>
<g id="a_node7"><a xlink:href="../../d2/d95/class_x_m_l_parser.html#a9ce3d4a8cb751a52ea349269f1e7d713" target="_top" xlink:title="XMLParser.getIntSpec">
<polygon fill="white" stroke="black" points="474,-190.5 474,-209.5 594,-209.5 594,-190.5 474,-190.5"/>
<text text-anchor="middle" x="534" y="-197.5" font-family="Helvetica,sans-Serif" font-size="10.00">XMLParser.getIntSpec</text>
</a>
</g>
</g>
<!-- Node2&#45;&gt;Node7 -->
<g id="edge6" class="edge"><title>Node2&#45;&gt;Node7</title>
<path fill="none" stroke="midnightblue" d="M411.433,-226.247C436.319,-220.874 465.419,-214.591 488.907,-209.52"/>
<polygon fill="midnightblue" stroke="midnightblue" points="410.448,-222.879 401.412,-228.411 411.926,-229.722 410.448,-222.879"/>
</g>
<!-- Node4 -->
<g id="node4" class="node"><title>Node4</title>
<g id="a_node4"><a xlink:href="../../d2/d95/class_x_m_l_parser.html#a11061ead64d7b0da6e0a034dcc42b455" target="_top" xlink:title="XMLParser.getCornerNeighbors">
<polygon fill="white" stroke="black" points="650.5,-294.5 650.5,-313.5 815.5,-313.5 815.5,-294.5 650.5,-294.5"/>
<text text-anchor="middle" x="733" y="-301.5" font-family="Helvetica,sans-Serif" font-size="10.00">XMLParser.getCornerNeighbors</text>
</a>
</g>
</g>
<!-- Node3&#45;&gt;Node4 -->
<g id="edge3" class="edge"><title>Node3&#45;&gt;Node4</title>
<path fill="none" stroke="midnightblue" d="M608.811,-286.491C627.294,-289.118 647.017,-291.921 665.141,-294.497"/>
<polygon fill="midnightblue" stroke="midnightblue" points="609.081,-282.994 598.688,-285.052 608.096,-289.925 609.081,-282.994"/>
</g>
<!-- Node5 -->
<g id="node5" class="node"><title>Node5</title>
<g id="a_node5"><a xlink:href="../../d2/d95/class_x_m_l_parser.html#a7661b8f6a7517ce93d5c9b726f273e95" target="_top" xlink:title="XMLParser.getWrapAround">
<polygon fill="white" stroke="black" points="662,-256.5 662,-275.5 804,-275.5 804,-256.5 662,-256.5"/>
<text text-anchor="middle" x="733" y="-263.5" font-family="Helvetica,sans-Serif" font-size="10.00">XMLParser.getWrapAround</text>
</a>
</g>
</g>
<!-- Node3&#45;&gt;Node5 -->
<g id="edge4" class="edge"><title>Node3&#45;&gt;Node5</title>
<path fill="none" stroke="midnightblue" d="M608.754,-272.256C626.095,-271.376 644.53,-270.44 661.713,-269.568"/>
<polygon fill="midnightblue" stroke="midnightblue" points="608.498,-268.765 598.688,-272.767 608.853,-275.756 608.498,-268.765"/>
</g>
<!-- Node8 -->
<g id="node8" class="node"><title>Node8</title>
<g id="a_node8"><a xlink:href="../../d2/d95/class_x_m_l_parser.html#af0ec34241378ddfda04d5e53662f5d2d" target="_top" xlink:title="XMLParser.getNeighborhoodSize">
<polygon fill="white" stroke="black" points="647,-199.5 647,-218.5 819,-218.5 819,-199.5 647,-199.5"/>
<text text-anchor="middle" x="733" y="-206.5" font-family="Helvetica,sans-Serif" font-size="10.00">XMLParser.getNeighborhoodSize</text>
</a>
</g>
</g>
<!-- Node7&#45;&gt;Node8 -->
<g id="edge7" class="edge"><title>Node7&#45;&gt;Node8</title>
<path fill="none" stroke="midnightblue" d="M604.39,-203.17C618.073,-203.795 632.58,-204.458 646.716,-205.104"/>
<polygon fill="midnightblue" stroke="midnightblue" points="604.256,-199.66 594.106,-202.7 603.936,-206.653 604.256,-199.66"/>
</g>
<!-- Node9 -->
<g id="node9" class="node"><title>Node9</title>
<g id="a_node9"><a xlink:href="../../d2/d95/class_x_m_l_parser.html#a630ba14d1542cbfbb1759efb3580bf5a" target="_top" xlink:title="XMLParser.getNumCellProperties">
<polygon fill="white" stroke="black" points="646.5,-161.5 646.5,-180.5 819.5,-180.5 819.5,-161.5 646.5,-161.5"/>
<text text-anchor="middle" x="733" y="-168.5" font-family="Helvetica,sans-Serif" font-size="10.00">XMLParser.getNumCellProperties</text>
</a>
</g>
</g>
<!-- Node7&#45;&gt;Node9 -->
<g id="edge8" class="edge"><title>Node7&#45;&gt;Node9</title>
<path fill="none" stroke="midnightblue" d="M604.048,-189.836C624.646,-186.803 647.136,-183.493 667.435,-180.504"/>
<polygon fill="midnightblue" stroke="midnightblue" points="603.49,-186.38 594.106,-191.299 604.51,-193.305 603.49,-186.38"/>
</g>
<!-- Node11&#45;&gt;Node2 -->
<g id="edge11" class="edge"><title>Node11&#45;&gt;Node2</title>
<path fill="none" stroke="midnightblue" d="M220.421,-177.797C238.287,-190.374 264.801,-207.687 290,-219 298.151,-222.66 307.192,-225.821 315.875,-228.457"/>
<polygon fill="midnightblue" stroke="midnightblue" points="222.088,-174.686 211.92,-171.709 218.012,-180.377 222.088,-174.686"/>
</g>
<!-- Node11&#45;&gt;Node10 -->
<g id="edge14" class="edge"><title>Node11&#45;&gt;Node10</title>
<path fill="none" stroke="midnightblue" d="M248.132,-173.968C269.993,-179.293 295.376,-185.476 315.918,-190.48"/>
<polygon fill="midnightblue" stroke="midnightblue" points="248.91,-170.555 238.365,-171.589 247.253,-177.356 248.91,-170.555"/>
</g>
<!-- Node12 -->
<g id="node12" class="node"><title>Node12</title>
<g id="a_node12"><a xlink:href="../../d2/d95/class_x_m_l_parser.html#aaf28e3838541b96011b1e04580fc462a" target="_top" xlink:title="XMLParser.getSimType">
<polygon fill="white" stroke="black" points="294,-76.5 294,-95.5 418,-95.5 418,-76.5 294,-76.5"/>
<text text-anchor="middle" x="356" y="-83.5" font-family="Helvetica,sans-Serif" font-size="10.00">XMLParser.getSimType</text>
</a>
</g>
</g>
<!-- Node11&#45;&gt;Node12 -->
<g id="edge12" class="edge"><title>Node11&#45;&gt;Node12</title>
<path fill="none" stroke="midnightblue" d="M220.421,-146.203C238.287,-133.626 264.801,-116.313 290,-105 298.151,-101.34 307.192,-98.1791 315.875,-95.5428"/>
<polygon fill="midnightblue" stroke="midnightblue" points="218.012,-143.623 211.92,-152.291 222.088,-149.314 218.012,-143.623"/>
</g>
<!-- Node14 -->
<g id="node14" class="node"><title>Node14</title>
<g id="a_node14"><a xlink:href="../../d2/d95/class_x_m_l_parser.html#accbbb76e54cda65bc4cc9b7eec0d87fc" target="_top" xlink:title="XMLParser.getGridType">
<polygon fill="white" stroke="black" points="293.5,-114.5 293.5,-133.5 418.5,-133.5 418.5,-114.5 293.5,-114.5"/>
<text text-anchor="middle" x="356" y="-121.5" font-family="Helvetica,sans-Serif" font-size="10.00">XMLParser.getGridType</text>
</a>
</g>
</g>
<!-- Node11&#45;&gt;Node14 -->
<g id="edge15" class="edge"><title>Node11&#45;&gt;Node14</title>
<path fill="none" stroke="midnightblue" d="M248.132,-150.032C269.993,-144.707 295.376,-138.524 315.918,-133.52"/>
<polygon fill="midnightblue" stroke="midnightblue" points="247.253,-146.644 238.365,-152.411 248.91,-153.445 247.253,-146.644"/>
</g>
<!-- Node15 -->
<g id="node15" class="node"><title>Node15</title>
<g id="a_node15"><a xlink:href="../../d2/d95/class_x_m_l_parser.html#a7d94792297370f5a5e2d5d32aad86cbf" target="_top" xlink:title="XMLParser.getGrid">
<polygon fill="white" stroke="black" points="304,-152.5 304,-171.5 408,-171.5 408,-152.5 304,-152.5"/>
<text text-anchor="middle" x="356" y="-159.5" font-family="Helvetica,sans-Serif" font-size="10.00">XMLParser.getGrid</text>
</a>
</g>
</g>
<!-- Node11&#45;&gt;Node15 -->
<g id="edge16" class="edge"><title>Node11&#45;&gt;Node15</title>
<path fill="none" stroke="midnightblue" d="M263.68,-162C277.086,-162 291.033,-162 303.873,-162"/>
<polygon fill="midnightblue" stroke="midnightblue" points="263.561,-158.5 253.561,-162 263.561,-165.5 263.561,-158.5"/>
</g>
<!-- Node13 -->
<g id="node13" class="node"><title>Node13</title>
<g id="a_node13"><a xlink:href="../../d2/d95/class_x_m_l_parser.html#a0e8c6a4de7fe25aaf55ec0ffc3ca3c6e" target="_top" xlink:title="XMLParser.writeXML">
<polygon fill="white" stroke="black" points="479,-38.5 479,-57.5 589,-57.5 589,-38.5 479,-38.5"/>
<text text-anchor="middle" x="534" y="-45.5" font-family="Helvetica,sans-Serif" font-size="10.00">XMLParser.writeXML</text>
</a>
</g>
</g>
<!-- Node12&#45;&gt;Node13 -->
<g id="edge13" class="edge"><title>Node12&#45;&gt;Node13</title>
<path fill="none" stroke="midnightblue" d="M411.433,-74.2474C436.319,-68.8742 465.419,-62.5914 488.907,-57.5201"/>
<polygon fill="midnightblue" stroke="midnightblue" points="410.448,-70.8793 401.412,-76.411 411.926,-77.7216 410.448,-70.8793"/>
</g>
<!-- Node16&#45;&gt;Node13 -->
<g id="edge18" class="edge"><title>Node16&#45;&gt;Node13</title>
<path fill="none" stroke="midnightblue" d="M411.433,-21.7526C436.319,-27.1258 465.419,-33.4086 488.907,-38.4799"/>
<polygon fill="midnightblue" stroke="midnightblue" points="411.926,-18.2784 401.412,-19.589 410.448,-25.1207 411.926,-18.2784"/>
</g>
<!-- Node17&#45;&gt;Node13 -->
<g id="edge20" class="edge"><title>Node17&#45;&gt;Node13</title>
<path fill="none" stroke="midnightblue" d="M263.179,-48C325.746,-48 419.836,-48 478.767,-48"/>
<polygon fill="midnightblue" stroke="midnightblue" points="263.034,-44.5001 253.034,-48 263.034,-51.5001 263.034,-44.5001"/>
</g>
<!-- Node17&#45;&gt;Node16 -->
<g id="edge21" class="edge"><title>Node17&#45;&gt;Node16</title>
<path fill="none" stroke="midnightblue" d="M248.132,-36.032C269.993,-30.7069 295.376,-24.5238 315.918,-19.5201"/>
<polygon fill="midnightblue" stroke="midnightblue" points="247.253,-32.6437 238.365,-38.411 248.91,-39.4448 247.253,-32.6437"/>
</g>
</g>
</svg>
