<?xml version="1.0" encoding="UTF-8" standalone="no"?>
<!DOCTYPE svg PUBLIC "-//W3C//DTD SVG 1.1//EN"
 "http://www.w3.org/Graphics/SVG/1.1/DTD/svg11.dtd">
<!-- Generated by graphviz version 2.36.0 (20140111.2315)
 -->
<!-- Title: XMLParser.getWrapAround Pages: 1 -->
<svg width="770pt" height="47pt"
 viewBox="0.00 0.00 770.00 47.00" xmlns="http://www.w3.org/2000/svg" xmlns:xlink="http://www.w3.org/1999/xlink">
<g id="graph0" class="graph" transform="scale(1 1) rotate(0) translate(4 43)">
<title>XMLParser.getWrapAround</title>
<polygon fill="white" stroke="none" points="-4,4 -4,-43 766,-43 766,4 -4,4"/>
<!-- Node1 -->
<g id="node1" class="node"><title>Node1</title>
<polygon fill="#bfbfbf" stroke="black" points="0,-19.5 0,-38.5 142,-38.5 142,-19.5 0,-19.5"/>
<text text-anchor="middle" x="71" y="-26.5" font-family="Helvetica,sans-Serif" font-size="10.00">XMLParser.getWrapAround</text>
</g>
<!-- Node2 -->
<g id="node2" class="node"><title>Node2</title>
<g id="a_node2"><a xlink:href="../../d2/d95/class_x_m_l_parser.html#a0c2191510d473b5df832969b345ddb7c" target="_top" xlink:title="XMLParser.getBoolSpec">
<polygon fill="white" stroke="black" points="178.5,-19.5 178.5,-38.5 307.5,-38.5 307.5,-19.5 178.5,-19.5"/>
<text text-anchor="middle" x="243" y="-26.5" font-family="Helvetica,sans-Serif" font-size="10.00">XMLParser.getBoolSpec</text>
</a>
</g>
</g>
<!-- Node1&#45;&gt;Node2 -->
<g id="edge1" class="edge"><title>Node1&#45;&gt;Node2</title>
<path fill="none" stroke="midnightblue" d="M142.127,-29C150.739,-29 159.561,-29 168.224,-29"/>
<polygon fill="midnightblue" stroke="midnightblue" points="168.3,-32.5001 178.3,-29 168.3,-25.5001 168.3,-32.5001"/>
</g>
<!-- Node3 -->
<g id="node3" class="node"><title>Node3</title>
<g id="a_node3"><a xlink:href="../../d2/d95/class_x_m_l_parser.html#aa07ac06ef863be8d35f723becb2a984f" target="_top" xlink:title="XMLParser.getSimSpec">
<polygon fill="white" stroke="black" points="344.5,-19.5 344.5,-38.5 471.5,-38.5 471.5,-19.5 344.5,-19.5"/>
<text text-anchor="middle" x="408" y="-26.5" font-family="Helvetica,sans-Serif" font-size="10.00">XMLParser.getSimSpec</text>
</a>
</g>
</g>
<!-- Node2&#45;&gt;Node3 -->
<g id="edge2" class="edge"><title>Node2&#45;&gt;Node3</title>
<path fill="none" stroke="midnightblue" d="M307.954,-29C316.544,-29 325.407,-29 334.137,-29"/>
<polygon fill="midnightblue" stroke="midnightblue" points="334.299,-32.5001 344.299,-29 334.299,-25.5001 334.299,-32.5001"/>
</g>
<!-- Node4 -->
<g id="node4" class="node"><title>Node4</title>
<g id="a_node4"><a xlink:href="../../d2/d95/class_x_m_l_parser.html#a6f6f67a0bf11d4b31ea5cc7d60d32460" target="_top" xlink:title="XMLParser.pullField">
<polygon fill="white" stroke="black" points="656,-19.5 656,-38.5 762,-38.5 762,-19.5 656,-19.5"/>
<text text-anchor="middle" x="709" y="-26.5" font-family="Helvetica,sans-Serif" font-size="10.00">XMLParser.pullField</text>
</a>
</g>
</g>
<!-- Node3&#45;&gt;Node4 -->
<g id="edge3" class="edge"><title>Node3&#45;&gt;Node4</title>
<path fill="none" stroke="midnightblue" d="M471.68,-29C522.786,-29 594.606,-29 645.628,-29"/>
<polygon fill="midnightblue" stroke="midnightblue" points="645.863,-32.5001 655.863,-29 645.863,-25.5001 645.863,-32.5001"/>
</g>
<!-- Node5 -->
<g id="node5" class="node"><title>Node5</title>
<g id="a_node5"><a xlink:href="../../d2/d95/class_x_m_l_parser.html#afbbeca369c1f7b61e0ea2ee6b48de167" target="_top" xlink:title="XMLParser.pullValue">
<polygon fill="white" stroke="black" points="508.5,-0.5 508.5,-19.5 619.5,-19.5 619.5,-0.5 508.5,-0.5"/>
<text text-anchor="middle" x="564" y="-7.5" font-family="Helvetica,sans-Serif" font-size="10.00">XMLParser.pullValue</text>
</a>
</g>
</g>
<!-- Node3&#45;&gt;Node5 -->
<g id="edge4" class="edge"><title>Node3&#45;&gt;Node5</title>
<path fill="none" stroke="midnightblue" d="M471.638,-21.272C480.376,-20.1939 489.37,-19.0842 498.149,-18.0011"/>
<polygon fill="midnightblue" stroke="midnightblue" points="498.83,-21.4437 508.326,-16.7455 497.973,-14.4964 498.83,-21.4437"/>
</g>
<!-- Node5&#45;&gt;Node4 -->
<g id="edge5" class="edge"><title>Node5&#45;&gt;Node4</title>
<path fill="none" stroke="midnightblue" d="M619.879,-17.2916C628.37,-18.4198 637.193,-19.5921 645.831,-20.7398"/>
<polygon fill="midnightblue" stroke="midnightblue" points="645.481,-24.224 655.855,-22.0717 646.403,-17.285 645.481,-24.224"/>
</g>
</g>
</svg>
