<?xml version="1.0" encoding="UTF-8" standalone="no"?>
<!DOCTYPE svg PUBLIC "-//W3C//DTD SVG 1.1//EN"
 "http://www.w3.org/Graphics/SVG/1.1/DTD/svg11.dtd">
<!-- Generated by graphviz version 2.36.0 (20140111.2315)
 -->
<!-- Title: XMLParser.setSpec Pages: 1 -->
<svg width="404pt" height="47pt"
 viewBox="0.00 0.00 404.00 47.00" xmlns="http://www.w3.org/2000/svg" xmlns:xlink="http://www.w3.org/1999/xlink">
<g id="graph0" class="graph" transform="scale(1 1) rotate(0) translate(4 43)">
<title>XMLParser.setSpec</title>
<polygon fill="white" stroke="none" points="-4,4 -4,-43 400,-43 400,4 -4,4"/>
<!-- Node1 -->
<g id="node1" class="node"><title>Node1</title>
<polygon fill="#bfbfbf" stroke="black" points="0.5,-19.5 0.5,-38.5 107.5,-38.5 107.5,-19.5 0.5,-19.5"/>
<text text-anchor="middle" x="54" y="-26.5" font-family="Helvetica,sans-Serif" font-size="10.00">XMLParser.setSpec</text>
</g>
<!-- Node2 -->
<g id="node2" class="node"><title>Node2</title>
<g id="a_node2"><a xlink:href="../../d2/d95/class_x_m_l_parser.html#a6f6f67a0bf11d4b31ea5cc7d60d32460" target="_top" xlink:title="XMLParser.pullField">
<polygon fill="white" stroke="black" points="290,-19.5 290,-38.5 396,-38.5 396,-19.5 290,-19.5"/>
<text text-anchor="middle" x="343" y="-26.5" font-family="Helvetica,sans-Serif" font-size="10.00">XMLParser.pullField</text>
</a>
</g>
</g>
<!-- Node1&#45;&gt;Node2 -->
<g id="edge1" class="edge"><title>Node1&#45;&gt;Node2</title>
<path fill="none" stroke="midnightblue" d="M107.64,-29C156.087,-29 228.004,-29 279.382,-29"/>
<polygon fill="midnightblue" stroke="midnightblue" points="279.694,-32.5001 289.693,-29 279.693,-25.5001 279.694,-32.5001"/>
</g>
<!-- Node3 -->
<g id="node3" class="node"><title>Node3</title>
<g id="a_node3"><a xlink:href="../../d2/d95/class_x_m_l_parser.html#a8937dc9e14a7634fc1c773a57391e55a" target="_top" xlink:title="XMLParser.setValue">
<polygon fill="white" stroke="black" points="144,-0.5 144,-19.5 254,-19.5 254,-0.5 144,-0.5"/>
<text text-anchor="middle" x="199" y="-7.5" font-family="Helvetica,sans-Serif" font-size="10.00">XMLParser.setValue</text>
</a>
</g>
</g>
<!-- Node1&#45;&gt;Node3 -->
<g id="edge2" class="edge"><title>Node1&#45;&gt;Node3</title>
<path fill="none" stroke="midnightblue" d="M107.842,-21.9791C116.305,-20.8546 125.143,-19.6803 133.835,-18.5254"/>
<polygon fill="midnightblue" stroke="midnightblue" points="134.489,-21.9694 143.941,-17.1827 133.567,-15.0303 134.489,-21.9694"/>
</g>
<!-- Node3&#45;&gt;Node2 -->
<g id="edge3" class="edge"><title>Node3&#45;&gt;Node2</title>
<path fill="none" stroke="midnightblue" d="M254.089,-17.2373C262.539,-18.3679 271.329,-19.544 279.94,-20.6962"/>
<polygon fill="midnightblue" stroke="midnightblue" points="279.56,-24.1764 289.935,-22.0336 280.488,-17.2382 279.56,-24.1764"/>
</g>
</g>
</svg>
