<?xml version="1.0" encoding="UTF-8" standalone="no"?>
<!DOCTYPE svg PUBLIC "-//W3C//DTD SVG 1.1//EN"
 "http://www.w3.org/Graphics/SVG/1.1/DTD/svg11.dtd">
<!-- Generated by graphviz version 2.36.0 (20140111.2315)
 -->
<!-- Title: XMLParser.getNumCellProperties Pages: 1 -->
<svg width="792pt" height="47pt"
 viewBox="0.00 0.00 792.00 47.00" xmlns="http://www.w3.org/2000/svg" xmlns:xlink="http://www.w3.org/1999/xlink">
<g id="graph0" class="graph" transform="scale(1 1) rotate(0) translate(4 43)">
<title>XMLParser.getNumCellProperties</title>
<polygon fill="white" stroke="none" points="-4,4 -4,-43 788,-43 788,4 -4,4"/>
<!-- Node1 -->
<g id="node1" class="node"><title>Node1</title>
<polygon fill="#bfbfbf" stroke="black" points="0.5,-19.5 0.5,-38.5 173.5,-38.5 173.5,-19.5 0.5,-19.5"/>
<text text-anchor="middle" x="87" y="-26.5" font-family="Helvetica,sans-Serif" font-size="10.00">XMLParser.getNumCellProperties</text>
</g>
<!-- Node2 -->
<g id="node2" class="node"><title>Node2</title>
<g id="a_node2"><a xlink:href="../../d2/d95/class_x_m_l_parser.html#a9ce3d4a8cb751a52ea349269f1e7d713" target="_top" xlink:title="XMLParser.getIntSpec">
<polygon fill="white" stroke="black" points="210,-19.5 210,-38.5 330,-38.5 330,-19.5 210,-19.5"/>
<text text-anchor="middle" x="270" y="-26.5" font-family="Helvetica,sans-Serif" font-size="10.00">XMLParser.getIntSpec</text>
</a>
</g>
</g>
<!-- Node1&#45;&gt;Node2 -->
<g id="edge1" class="edge"><title>Node1&#45;&gt;Node2</title>
<path fill="none" stroke="midnightblue" d="M173.73,-29C182.434,-29 191.198,-29 199.697,-29"/>
<polygon fill="midnightblue" stroke="midnightblue" points="199.912,-32.5001 209.912,-29 199.912,-25.5001 199.912,-32.5001"/>
</g>
<!-- Node3 -->
<g id="node3" class="node"><title>Node3</title>
<g id="a_node3"><a xlink:href="../../d2/d95/class_x_m_l_parser.html#aa07ac06ef863be8d35f723becb2a984f" target="_top" xlink:title="XMLParser.getSimSpec">
<polygon fill="white" stroke="black" points="366.5,-19.5 366.5,-38.5 493.5,-38.5 493.5,-19.5 366.5,-19.5"/>
<text text-anchor="middle" x="430" y="-26.5" font-family="Helvetica,sans-Serif" font-size="10.00">XMLParser.getSimSpec</text>
</a>
</g>
</g>
<!-- Node2&#45;&gt;Node3 -->
<g id="edge2" class="edge"><title>Node2&#45;&gt;Node3</title>
<path fill="none" stroke="midnightblue" d="M330.283,-29C338.779,-29 347.601,-29 356.319,-29"/>
<polygon fill="midnightblue" stroke="midnightblue" points="356.481,-32.5001 366.481,-29 356.481,-25.5001 356.481,-32.5001"/>
</g>
<!-- Node4 -->
<g id="node4" class="node"><title>Node4</title>
<g id="a_node4"><a xlink:href="../../d2/d95/class_x_m_l_parser.html#a6f6f67a0bf11d4b31ea5cc7d60d32460" target="_top" xlink:title="XMLParser.pullField">
<polygon fill="white" stroke="black" points="678,-19.5 678,-38.5 784,-38.5 784,-19.5 678,-19.5"/>
<text text-anchor="middle" x="731" y="-26.5" font-family="Helvetica,sans-Serif" font-size="10.00">XMLParser.pullField</text>
</a>
</g>
</g>
<!-- Node3&#45;&gt;Node4 -->
<g id="edge3" class="edge"><title>Node3&#45;&gt;Node4</title>
<path fill="none" stroke="midnightblue" d="M493.68,-29C544.786,-29 616.606,-29 667.628,-29"/>
<polygon fill="midnightblue" stroke="midnightblue" points="667.863,-32.5001 677.863,-29 667.863,-25.5001 667.863,-32.5001"/>
</g>
<!-- Node5 -->
<g id="node5" class="node"><title>Node5</title>
<g id="a_node5"><a xlink:href="../../d2/d95/class_x_m_l_parser.html#afbbeca369c1f7b61e0ea2ee6b48de167" target="_top" xlink:title="XMLParser.pullValue">
<polygon fill="white" stroke="black" points="530.5,-0.5 530.5,-19.5 641.5,-19.5 641.5,-0.5 530.5,-0.5"/>
<text text-anchor="middle" x="586" y="-7.5" font-family="Helvetica,sans-Serif" font-size="10.00">XMLParser.pullValue</text>
</a>
</g>
</g>
<!-- Node3&#45;&gt;Node5 -->
<g id="edge4" class="edge"><title>Node3&#45;&gt;Node5</title>
<path fill="none" stroke="midnightblue" d="M493.638,-21.272C502.376,-20.1939 511.37,-19.0842 520.149,-18.0011"/>
<polygon fill="midnightblue" stroke="midnightblue" points="520.83,-21.4437 530.326,-16.7455 519.973,-14.4964 520.83,-21.4437"/>
</g>
<!-- Node5&#45;&gt;Node4 -->
<g id="edge5" class="edge"><title>Node5&#45;&gt;Node4</title>
<path fill="none" stroke="midnightblue" d="M641.879,-17.2916C650.37,-18.4198 659.193,-19.5921 667.831,-20.7398"/>
<polygon fill="midnightblue" stroke="midnightblue" points="667.481,-24.224 677.855,-22.0717 668.403,-17.285 667.481,-24.224"/>
</g>
</g>
</svg>
