<?xml version="1.0" encoding="UTF-8" standalone="no"?>
<!DOCTYPE svg PUBLIC "-//W3C//DTD SVG 1.1//EN"
 "http://www.w3.org/Graphics/SVG/1.1/DTD/svg11.dtd">
<!-- Generated by graphviz version 2.36.0 (20140111.2315)
 -->
<!-- Title: XMLParser.getInteractStates Pages: 1 -->
<svg width="614pt" height="47pt"
 viewBox="0.00 0.00 614.00 47.00" xmlns="http://www.w3.org/2000/svg" xmlns:xlink="http://www.w3.org/1999/xlink">
<g id="graph0" class="graph" transform="scale(1 1) rotate(0) translate(4 43)">
<title>XMLParser.getInteractStates</title>
<polygon fill="white" stroke="none" points="-4,4 -4,-43 610,-43 610,4 -4,4"/>
<!-- Node1 -->
<g id="node1" class="node"><title>Node1</title>
<polygon fill="#bfbfbf" stroke="black" points="0,-19.5 0,-38.5 152,-38.5 152,-19.5 0,-19.5"/>
<text text-anchor="middle" x="76" y="-26.5" font-family="Helvetica,sans-Serif" font-size="10.00">XMLParser.getInteractStates</text>
</g>
<!-- Node2 -->
<g id="node2" class="node"><title>Node2</title>
<g id="a_node2"><a xlink:href="../../d2/d95/class_x_m_l_parser.html#aa07ac06ef863be8d35f723becb2a984f" target="_top" xlink:title="XMLParser.getSimSpec">
<polygon fill="white" stroke="black" points="188.5,-19.5 188.5,-38.5 315.5,-38.5 315.5,-19.5 188.5,-19.5"/>
<text text-anchor="middle" x="252" y="-26.5" font-family="Helvetica,sans-Serif" font-size="10.00">XMLParser.getSimSpec</text>
</a>
</g>
</g>
<!-- Node1&#45;&gt;Node2 -->
<g id="edge1" class="edge"><title>Node1&#45;&gt;Node2</title>
<path fill="none" stroke="midnightblue" d="M152.054,-29C160.781,-29 169.671,-29 178.364,-29"/>
<polygon fill="midnightblue" stroke="midnightblue" points="178.457,-32.5001 188.457,-29 178.457,-25.5001 178.457,-32.5001"/>
</g>
<!-- Node3 -->
<g id="node3" class="node"><title>Node3</title>
<g id="a_node3"><a xlink:href="../../d2/d95/class_x_m_l_parser.html#a6f6f67a0bf11d4b31ea5cc7d60d32460" target="_top" xlink:title="XMLParser.pullField">
<polygon fill="white" stroke="black" points="500,-19.5 500,-38.5 606,-38.5 606,-19.5 500,-19.5"/>
<text text-anchor="middle" x="553" y="-26.5" font-family="Helvetica,sans-Serif" font-size="10.00">XMLParser.pullField</text>
</a>
</g>
</g>
<!-- Node2&#45;&gt;Node3 -->
<g id="edge2" class="edge"><title>Node2&#45;&gt;Node3</title>
<path fill="none" stroke="midnightblue" d="M315.68,-29C366.786,-29 438.606,-29 489.628,-29"/>
<polygon fill="midnightblue" stroke="midnightblue" points="489.863,-32.5001 499.863,-29 489.863,-25.5001 489.863,-32.5001"/>
</g>
<!-- Node4 -->
<g id="node4" class="node"><title>Node4</title>
<g id="a_node4"><a xlink:href="../../d2/d95/class_x_m_l_parser.html#afbbeca369c1f7b61e0ea2ee6b48de167" target="_top" xlink:title="XMLParser.pullValue">
<polygon fill="white" stroke="black" points="352.5,-0.5 352.5,-19.5 463.5,-19.5 463.5,-0.5 352.5,-0.5"/>
<text text-anchor="middle" x="408" y="-7.5" font-family="Helvetica,sans-Serif" font-size="10.00">XMLParser.pullValue</text>
</a>
</g>
</g>
<!-- Node2&#45;&gt;Node4 -->
<g id="edge3" class="edge"><title>Node2&#45;&gt;Node4</title>
<path fill="none" stroke="midnightblue" d="M315.638,-21.272C324.376,-20.1939 333.37,-19.0842 342.149,-18.0011"/>
<polygon fill="midnightblue" stroke="midnightblue" points="342.83,-21.4437 352.326,-16.7455 341.973,-14.4964 342.83,-21.4437"/>
</g>
<!-- Node4&#45;&gt;Node3 -->
<g id="edge4" class="edge"><title>Node4&#45;&gt;Node3</title>
<path fill="none" stroke="midnightblue" d="M463.879,-17.2916C472.37,-18.4198 481.193,-19.5921 489.831,-20.7398"/>
<polygon fill="midnightblue" stroke="midnightblue" points="489.481,-24.224 499.855,-22.0717 490.403,-17.285 489.481,-24.224"/>
</g>
</g>
</svg>
