<?xml version="1.0" encoding="UTF-8" standalone="no"?>
<!DOCTYPE svg PUBLIC "-//W3C//DTD SVG 1.1//EN"
 "http://www.w3.org/Graphics/SVG/1.1/DTD/svg11.dtd">
<!-- Generated by graphviz version 2.36.0 (20140111.2315)
 -->
<!-- Title: XMLParser.getStateMap Pages: 1 -->
<svg width="430pt" height="47pt"
 viewBox="0.00 0.00 430.00 47.00" xmlns="http://www.w3.org/2000/svg" xmlns:xlink="http://www.w3.org/1999/xlink">
<g id="graph0" class="graph" transform="scale(1 1) rotate(0) translate(4 43)">
<title>XMLParser.getStateMap</title>
<polygon fill="white" stroke="none" points="-4,4 -4,-43 426,-43 426,4 -4,4"/>
<!-- Node1 -->
<g id="node1" class="node"><title>Node1</title>
<polygon fill="#bfbfbf" stroke="black" points="0.5,-19.5 0.5,-38.5 131.5,-38.5 131.5,-19.5 0.5,-19.5"/>
<text text-anchor="middle" x="66" y="-26.5" font-family="Helvetica,sans-Serif" font-size="10.00">XMLParser.getStateMap</text>
</g>
<!-- Node2 -->
<g id="node2" class="node"><title>Node2</title>
<g id="a_node2"><a xlink:href="../../d2/d95/class_x_m_l_parser.html#a6f6f67a0bf11d4b31ea5cc7d60d32460" target="_top" xlink:title="XMLParser.pullField">
<polygon fill="white" stroke="black" points="316,-19.5 316,-38.5 422,-38.5 422,-19.5 316,-19.5"/>
<text text-anchor="middle" x="369" y="-26.5" font-family="Helvetica,sans-Serif" font-size="10.00">XMLParser.pullField</text>
</a>
</g>
</g>
<!-- Node1&#45;&gt;Node2 -->
<g id="edge1" class="edge"><title>Node1&#45;&gt;Node2</title>
<path fill="none" stroke="midnightblue" d="M131.572,-29C182.963,-29 254.458,-29 305.341,-29"/>
<polygon fill="midnightblue" stroke="midnightblue" points="305.551,-32.5001 315.551,-29 305.551,-25.5001 305.551,-32.5001"/>
</g>
<!-- Node3 -->
<g id="node3" class="node"><title>Node3</title>
<g id="a_node3"><a xlink:href="../../d2/d95/class_x_m_l_parser.html#afbbeca369c1f7b61e0ea2ee6b48de167" target="_top" xlink:title="XMLParser.pullValue">
<polygon fill="white" stroke="black" points="168.5,-0.5 168.5,-19.5 279.5,-19.5 279.5,-0.5 168.5,-0.5"/>
<text text-anchor="middle" x="224" y="-7.5" font-family="Helvetica,sans-Serif" font-size="10.00">XMLParser.pullValue</text>
</a>
</g>
</g>
<!-- Node1&#45;&gt;Node3 -->
<g id="edge2" class="edge"><title>Node1&#45;&gt;Node3</title>
<path fill="none" stroke="midnightblue" d="M131.803,-21.1074C140.467,-20.0521 149.355,-18.9696 158.022,-17.914"/>
<polygon fill="midnightblue" stroke="midnightblue" points="158.565,-21.3738 168.069,-16.6903 157.719,-14.4251 158.565,-21.3738"/>
</g>
<!-- Node3&#45;&gt;Node2 -->
<g id="edge3" class="edge"><title>Node3&#45;&gt;Node2</title>
<path fill="none" stroke="midnightblue" d="M279.879,-17.2916C288.37,-18.4198 297.193,-19.5921 305.831,-20.7398"/>
<polygon fill="midnightblue" stroke="midnightblue" points="305.481,-24.224 315.855,-22.0717 306.403,-17.285 305.481,-24.224"/>
</g>
</g>
</svg>
