<?xml version="1.0" encoding="UTF-8" standalone="no"?>
<!DOCTYPE svg PUBLIC "-//W3C//DTD SVG 1.1//EN"
 "http://www.w3.org/Graphics/SVG/1.1/DTD/svg11.dtd">
<!-- Generated by graphviz version 2.36.0 (20140111.2315)
 -->
<!-- Title: syntax.GroupHandler Pages: 1 -->
<svg width="304pt" height="140pt"
 viewBox="0.00 0.00 304.00 140.00" xmlns="http://www.w3.org/2000/svg" xmlns:xlink="http://www.w3.org/1999/xlink">
<g id="graph0" class="graph" transform="scale(1 1) rotate(0) translate(4 136)">
<title>syntax.GroupHandler</title>
<polygon fill="white" stroke="none" points="-4,4 -4,-136 300,-136 300,4 -4,4"/>
<!-- Node1 -->
<g id="node1" class="node"><title>Node1</title>
<polygon fill="#bfbfbf" stroke="black" points="87,-56.5 87,-75.5 205,-75.5 205,-56.5 87,-56.5"/>
<text text-anchor="middle" x="146" y="-63.5" font-family="Helvetica,sans-Serif" font-size="10.00">syntax.GroupHandler</text>
</g>
<!-- Node3 -->
<g id="node3" class="node"><title>Node3</title>
<g id="a_node3"><a xlink:href="../../dc/d06/classsyntax_1_1_group_end_handler.html" target="_top" xlink:title="syntax.GroupEndHandler">
<polygon fill="white" stroke="black" points="0,-0.5 0,-19.5 136,-19.5 136,-0.5 0,-0.5"/>
<text text-anchor="middle" x="68" y="-7.5" font-family="Helvetica,sans-Serif" font-size="10.00">syntax.GroupEndHandler</text>
</a>
</g>
</g>
<!-- Node1&#45;&gt;Node3 -->
<g id="edge2" class="edge"><title>Node1&#45;&gt;Node3</title>
<path fill="none" stroke="midnightblue" d="M125.232,-50.6221C110.983,-40.7574 92.5438,-27.9919 80.5009,-19.6545"/>
<polygon fill="midnightblue" stroke="midnightblue" points="123.254,-53.5095 133.468,-56.324 127.238,-47.7541 123.254,-53.5095"/>
</g>
<!-- Node4 -->
<g id="node4" class="node"><title>Node4</title>
<g id="a_node4"><a xlink:href="../../d9/df4/classsyntax_1_1_group_start_handler.html" target="_top" xlink:title="syntax.GroupStartHandler">
<polygon fill="white" stroke="black" points="154,-0.5 154,-19.5 296,-19.5 296,-0.5 154,-0.5"/>
<text text-anchor="middle" x="225" y="-7.5" font-family="Helvetica,sans-Serif" font-size="10.00">syntax.GroupStartHandler</text>
</a>
</g>
</g>
<!-- Node1&#45;&gt;Node4 -->
<g id="edge3" class="edge"><title>Node1&#45;&gt;Node4</title>
<path fill="none" stroke="midnightblue" d="M167.034,-50.6221C181.466,-40.7574 200.141,-27.9919 212.339,-19.6545"/>
<polygon fill="midnightblue" stroke="midnightblue" points="164.973,-47.7914 158.693,-56.324 168.923,-53.5703 164.973,-47.7914"/>
</g>
<!-- Node2 -->
<g id="node2" class="node"><title>Node2</title>
<g id="a_node2"><a xlink:href="../../d0/d2d/classsyntax_1_1_syntax_handler.html" target="_top" xlink:title="syntax.SyntaxHandler">
<polygon fill="white" stroke="black" points="85,-112.5 85,-131.5 207,-131.5 207,-112.5 85,-112.5"/>
<text text-anchor="middle" x="146" y="-119.5" font-family="Helvetica,sans-Serif" font-size="10.00">syntax.SyntaxHandler</text>
</a>
</g>
</g>
<!-- Node2&#45;&gt;Node1 -->
<g id="edge1" class="edge"><title>Node2&#45;&gt;Node1</title>
<path fill="none" stroke="midnightblue" d="M146,-101.805C146,-92.9102 146,-82.7798 146,-75.7511"/>
<polygon fill="midnightblue" stroke="midnightblue" points="142.5,-102.083 146,-112.083 149.5,-102.083 142.5,-102.083"/>
</g>
</g>
</svg>
