<?xml version="1.0" encoding="UTF-8" standalone="no"?>
<!DOCTYPE svg PUBLIC "-//W3C//DTD SVG 1.1//EN"
 "http://www.w3.org/Graphics/SVG/1.1/DTD/svg11.dtd">
<!-- Generated by graphviz version 2.36.0 (20140111.2315)
 -->
<!-- Title: application.Parser.updateCommandPatterns Pages: 1 -->
<svg width="842pt" height="38pt"
 viewBox="0.00 0.00 842.00 38.00" xmlns="http://www.w3.org/2000/svg" xmlns:xlink="http://www.w3.org/1999/xlink">
<g id="graph0" class="graph" transform="scale(1 1) rotate(0) translate(4 34)">
<title>application.Parser.updateCommandPatterns</title>
<polygon fill="white" stroke="none" points="-4,4 -4,-34 838,-34 838,4 -4,4"/>
<!-- Node1 -->
<g id="node1" class="node"><title>Node1</title>
<polygon fill="#bfbfbf" stroke="black" points="0.5,-0 0.5,-30 137.5,-30 137.5,-0 0.5,-0"/>
<text text-anchor="start" x="8.5" y="-18" font-family="Helvetica,sans-Serif" font-size="10.00">application.Parser.update</text>
<text text-anchor="middle" x="69" y="-7" font-family="Helvetica,sans-Serif" font-size="10.00">CommandPatterns</text>
</g>
<!-- Node2 -->
<g id="node2" class="node"><title>Node2</title>
<g id="a_node2"><a xlink:href="../../dd/d17/classapplication_1_1_model.html#aad99353c2f5f15a7b60a353b4d0fcae0" target="_top" xlink:title="application.Model.update\lCommandPatterns">
<polygon fill="white" stroke="black" points="174.5,-0 174.5,-30 311.5,-30 311.5,-0 174.5,-0"/>
<text text-anchor="start" x="182.5" y="-18" font-family="Helvetica,sans-Serif" font-size="10.00">application.Model.update</text>
<text text-anchor="middle" x="243" y="-7" font-family="Helvetica,sans-Serif" font-size="10.00">CommandPatterns</text>
</a>
</g>
</g>
<!-- Node1&#45;&gt;Node2 -->
<g id="edge1" class="edge"><title>Node1&#45;&gt;Node2</title>
<path fill="none" stroke="midnightblue" d="M148.134,-15C156.846,-15 165.666,-15 174.233,-15"/>
<polygon fill="midnightblue" stroke="midnightblue" points="147.979,-11.5001 137.979,-15 147.979,-18.5001 147.979,-11.5001"/>
</g>
<!-- Node3 -->
<g id="node3" class="node"><title>Node3</title>
<g id="a_node3"><a xlink:href="../../d3/dbe/classview_1_1_view.html#a6c2525fe1f26dc400c48823ce4f0d057" target="_top" xlink:title="view.View.addModelListeners">
<polygon fill="white" stroke="black" points="348.5,-5.5 348.5,-24.5 501.5,-24.5 501.5,-5.5 348.5,-5.5"/>
<text text-anchor="middle" x="425" y="-12.5" font-family="Helvetica,sans-Serif" font-size="10.00">view.View.addModelListeners</text>
</a>
</g>
</g>
<!-- Node2&#45;&gt;Node3 -->
<g id="edge2" class="edge"><title>Node2&#45;&gt;Node3</title>
<path fill="none" stroke="midnightblue" d="M321.752,-15C330.532,-15 339.471,-15 348.226,-15"/>
<polygon fill="midnightblue" stroke="midnightblue" points="321.538,-11.5001 311.537,-15 321.537,-18.5001 321.538,-11.5001"/>
</g>
<!-- Node4 -->
<g id="node4" class="node"><title>Node4</title>
<g id="a_node4"><a xlink:href="../../d4/d9d/classapplication_1_1_wrapper.html#a4be5486a54f6d10d816c3ff49e82ecb9" target="_top" xlink:title="application.Wrapper.make\lNewWindow">
<polygon fill="white" stroke="black" points="538,-0 538,-30 678,-30 678,-0 538,-0"/>
<text text-anchor="start" x="546" y="-18" font-family="Helvetica,sans-Serif" font-size="10.00">application.Wrapper.make</text>
<text text-anchor="middle" x="608" y="-7" font-family="Helvetica,sans-Serif" font-size="10.00">NewWindow</text>
</a>
</g>
</g>
<!-- Node3&#45;&gt;Node4 -->
<g id="edge3" class="edge"><title>Node3&#45;&gt;Node4</title>
<path fill="none" stroke="midnightblue" d="M511.912,-15C520.64,-15 529.426,-15 537.942,-15"/>
<polygon fill="midnightblue" stroke="midnightblue" points="511.712,-11.5001 501.712,-15 511.712,-18.5001 511.712,-11.5001"/>
</g>
<!-- Node5 -->
<g id="node5" class="node"><title>Node5</title>
<g id="a_node5"><a xlink:href="../../d9/d96/classapplication_1_1_main.html#a4e5ad4e3de8bbd8654120180a94e870d" target="_top" xlink:title="application.Main.start">
<polygon fill="white" stroke="black" points="714.5,-5.5 714.5,-24.5 833.5,-24.5 833.5,-5.5 714.5,-5.5"/>
<text text-anchor="middle" x="774" y="-12.5" font-family="Helvetica,sans-Serif" font-size="10.00">application.Main.start</text>
</a>
</g>
</g>
<!-- Node4&#45;&gt;Node5 -->
<g id="edge4" class="edge"><title>Node4&#45;&gt;Node5</title>
<path fill="none" stroke="midnightblue" d="M688.335,-15C697.112,-15 705.929,-15 714.384,-15"/>
<polygon fill="midnightblue" stroke="midnightblue" points="688.075,-11.5001 678.075,-15 688.075,-18.5001 688.075,-11.5001"/>
</g>
</g>
</svg>
