<?xml version="1.0" encoding="UTF-8" standalone="no"?>
<!DOCTYPE svg PUBLIC "-//W3C//DTD SVG 1.1//EN"
 "http://www.w3.org/Graphics/SVG/1.1/DTD/svg11.dtd">
<!-- Generated by graphviz version 2.36.0 (20140111.2315)
 -->
<!-- Title: application.Parser.Parser Pages: 1 -->
<svg width="352pt" height="77pt"
 viewBox="0.00 0.00 352.00 77.00" xmlns="http://www.w3.org/2000/svg" xmlns:xlink="http://www.w3.org/1999/xlink">
<g id="graph0" class="graph" transform="scale(1 1) rotate(0) translate(4 73)">
<title>application.Parser.Parser</title>
<polygon fill="white" stroke="none" points="-4,4 -4,-73 348,-73 348,4 -4,4"/>
<!-- Node1 -->
<g id="node1" class="node"><title>Node1</title>
<polygon fill="#bfbfbf" stroke="black" points="0,-27.5 0,-46.5 134,-46.5 134,-27.5 0,-27.5"/>
<text text-anchor="middle" x="67" y="-34.5" font-family="Helvetica,sans-Serif" font-size="10.00">application.Parser.Parser</text>
</g>
<!-- Node2 -->
<g id="node2" class="node"><title>Node2</title>
<g id="a_node2"><a xlink:href="../../dd/d17/classapplication_1_1_model.html#aee52a4cb7337da546f826833d133c871" target="_top" xlink:title="application.Model.getLanguage">
<polygon fill="white" stroke="black" points="174,-49.5 174,-68.5 340,-68.5 340,-49.5 174,-49.5"/>
<text text-anchor="middle" x="257" y="-56.5" font-family="Helvetica,sans-Serif" font-size="10.00">application.Model.getLanguage</text>
</a>
</g>
</g>
<!-- Node1&#45;&gt;Node2 -->
<g id="edge1" class="edge"><title>Node1&#45;&gt;Node2</title>
<path fill="none" stroke="midnightblue" d="M134.017,-44.7254C143.857,-45.8769 154.147,-47.081 164.398,-48.2806"/>
<polygon fill="midnightblue" stroke="midnightblue" points="164.28,-51.7906 174.619,-49.4767 165.094,-44.838 164.28,-51.7906"/>
</g>
<!-- Node3 -->
<g id="node3" class="node"><title>Node3</title>
<g id="a_node3"><a xlink:href="../../de/d31/classapplication_1_1_pattern_matcher.html#aa9ad491c96a7737068b2907dffd3f837" target="_top" xlink:title="application.PatternMatcher.make\lPatterns">
<polygon fill="white" stroke="black" points="170,-0 170,-30 344,-30 344,-0 170,-0"/>
<text text-anchor="start" x="178" y="-18" font-family="Helvetica,sans-Serif" font-size="10.00">application.PatternMatcher.make</text>
<text text-anchor="middle" x="257" y="-7" font-family="Helvetica,sans-Serif" font-size="10.00">Patterns</text>
</a>
</g>
</g>
<!-- Node1&#45;&gt;Node3 -->
<g id="edge2" class="edge"><title>Node1&#45;&gt;Node3</title>
<path fill="none" stroke="midnightblue" d="M134.017,-29.2746C142.306,-28.3046 150.915,-27.2972 159.55,-26.2866"/>
<polygon fill="midnightblue" stroke="midnightblue" points="160.158,-29.7395 169.683,-25.1009 159.344,-22.787 160.158,-29.7395"/>
</g>
</g>
</svg>
