<?xml version="1.0" encoding="UTF-8" standalone="no"?>
<!DOCTYPE svg PUBLIC "-//W3C//DTD SVG 1.1//EN"
 "http://www.w3.org/Graphics/SVG/1.1/DTD/svg11.dtd">
<!-- Generated by graphviz version 2.36.0 (20140111.2315)
 -->
<!-- Title: application.Parser.parse Pages: 1 -->
<svg width="944pt" height="134pt"
 viewBox="0.00 0.00 944.00 134.00" xmlns="http://www.w3.org/2000/svg" xmlns:xlink="http://www.w3.org/1999/xlink">
<g id="graph0" class="graph" transform="scale(1 1) rotate(0) translate(4 130)">
<title>application.Parser.parse</title>
<polygon fill="white" stroke="none" points="-4,4 -4,-130 940,-130 940,4 -4,4"/>
<!-- Node1 -->
<g id="node1" class="node"><title>Node1</title>
<polygon fill="#bfbfbf" stroke="black" points="0.5,-57.5 0.5,-76.5 131.5,-76.5 131.5,-57.5 0.5,-57.5"/>
<text text-anchor="middle" x="66" y="-64.5" font-family="Helvetica,sans-Serif" font-size="10.00">application.Parser.parse</text>
</g>
<!-- Node2 -->
<g id="node2" class="node"><title>Node2</title>
<g id="a_node2"><a xlink:href="../../dc/d9e/classapplication_1_1_parser.html#a74e9be1b3f5d45542735791cf13baa90" target="_top" xlink:title="application.Parser.parse\lIterator">
<polygon fill="white" stroke="black" points="168.5,-52 168.5,-82 299.5,-82 299.5,-52 168.5,-52"/>
<text text-anchor="start" x="176.5" y="-70" font-family="Helvetica,sans-Serif" font-size="10.00">application.Parser.parse</text>
<text text-anchor="middle" x="234" y="-59" font-family="Helvetica,sans-Serif" font-size="10.00">Iterator</text>
</a>
</g>
</g>
<!-- Node1&#45;&gt;Node2 -->
<g id="edge1" class="edge"><title>Node1&#45;&gt;Node2</title>
<path fill="none" stroke="midnightblue" d="M131.655,-67C140.292,-67 149.208,-67 158.003,-67"/>
<polygon fill="midnightblue" stroke="midnightblue" points="158.248,-70.5001 168.248,-67 158.248,-63.5001 158.248,-70.5001"/>
</g>
<!-- Node3 -->
<g id="node3" class="node"><title>Node3</title>
<g id="a_node3"><a xlink:href="../../de/d31/classapplication_1_1_pattern_matcher.html#a2db70f4edd389c1f149acdebd3da0b7f" target="_top" xlink:title="application.PatternMatcher.check\lForMatch">
<polygon fill="white" stroke="black" points="336.5,-96 336.5,-126 511.5,-126 511.5,-96 336.5,-96"/>
<text text-anchor="start" x="344.5" y="-114" font-family="Helvetica,sans-Serif" font-size="10.00">application.PatternMatcher.check</text>
<text text-anchor="middle" x="424" y="-103" font-family="Helvetica,sans-Serif" font-size="10.00">ForMatch</text>
</a>
</g>
</g>
<!-- Node2&#45;&gt;Node3 -->
<g id="edge2" class="edge"><title>Node2&#45;&gt;Node3</title>
<path fill="none" stroke="midnightblue" d="M299.173,-82.0192C315.117,-85.7508 332.338,-89.7814 348.723,-93.616"/>
<polygon fill="midnightblue" stroke="midnightblue" points="348.263,-97.1028 358.797,-95.9738 349.858,-90.287 348.263,-97.1028"/>
</g>
<!-- Node5 -->
<g id="node5" class="node"><title>Node5</title>
<g id="a_node5"><a xlink:href="../../d0/d2d/classsyntax_1_1_syntax_handler.html#a5068c7316f7b220bb6a8ce045e5ebd47" target="_top" xlink:title="syntax.SyntaxHandler.handle">
<polygon fill="white" stroke="black" points="346,-57.5 346,-76.5 502,-76.5 502,-57.5 346,-57.5"/>
<text text-anchor="middle" x="424" y="-64.5" font-family="Helvetica,sans-Serif" font-size="10.00">syntax.SyntaxHandler.handle</text>
</a>
</g>
</g>
<!-- Node2&#45;&gt;Node5 -->
<g id="edge4" class="edge"><title>Node2&#45;&gt;Node5</title>
<path fill="none" stroke="midnightblue" d="M299.699,-67C311.316,-67 323.597,-67 335.727,-67"/>
<polygon fill="midnightblue" stroke="midnightblue" points="335.864,-70.5001 345.864,-67 335.864,-63.5001 335.864,-70.5001"/>
</g>
<!-- Node6 -->
<g id="node6" class="node"><title>Node6</title>
<g id="a_node6"><a xlink:href="../../d5/d4b/classtree_1_1_tree_builder.html#a1e29a66ff647bc0ef8933f412cc16359" target="_top" xlink:title="tree.TreeBuilder.build">
<polygon fill="white" stroke="black" points="366,-19.5 366,-38.5 482,-38.5 482,-19.5 366,-19.5"/>
<text text-anchor="middle" x="424" y="-26.5" font-family="Helvetica,sans-Serif" font-size="10.00">tree.TreeBuilder.build</text>
</a>
</g>
</g>
<!-- Node2&#45;&gt;Node6 -->
<g id="edge5" class="edge"><title>Node2&#45;&gt;Node6</title>
<path fill="none" stroke="midnightblue" d="M299.699,-53.9226C321.241,-49.5684 345.063,-44.7532 365.98,-40.5254"/>
<polygon fill="midnightblue" stroke="midnightblue" points="366.883,-43.9136 375.992,-38.5017 365.496,-37.0524 366.883,-43.9136"/>
</g>
<!-- Node4 -->
<g id="node4" class="node"><title>Node4</title>
<g id="a_node4"><a xlink:href="../../de/d31/classapplication_1_1_pattern_matcher.html#a463a0d665a268cd83796230ffb17ebdc" target="_top" xlink:title="application.PatternMatcher.match">
<polygon fill="white" stroke="black" points="548,-101.5 548,-120.5 726,-120.5 726,-101.5 548,-101.5"/>
<text text-anchor="middle" x="637" y="-108.5" font-family="Helvetica,sans-Serif" font-size="10.00">application.PatternMatcher.match</text>
</a>
</g>
</g>
<!-- Node3&#45;&gt;Node4 -->
<g id="edge3" class="edge"><title>Node3&#45;&gt;Node4</title>
<path fill="none" stroke="midnightblue" d="M511.735,-111C520.313,-111 529.063,-111 537.746,-111"/>
<polygon fill="midnightblue" stroke="midnightblue" points="537.895,-114.5 547.895,-111 537.895,-107.5 537.895,-114.5"/>
</g>
<!-- Node7 -->
<g id="node7" class="node"><title>Node7</title>
<g id="a_node7"><a xlink:href="../../d5/d4b/classtree_1_1_tree_builder.html#a4032cc1efc7fb77f4414d1bd58713d4b" target="_top" xlink:title="tree.TreeBuilder.addChildren">
<polygon fill="white" stroke="black" points="561.5,-19.5 561.5,-38.5 712.5,-38.5 712.5,-19.5 561.5,-19.5"/>
<text text-anchor="middle" x="637" y="-26.5" font-family="Helvetica,sans-Serif" font-size="10.00">tree.TreeBuilder.addChildren</text>
</a>
</g>
</g>
<!-- Node6&#45;&gt;Node7 -->
<g id="edge6" class="edge"><title>Node6&#45;&gt;Node7</title>
<path fill="none" stroke="midnightblue" d="M482.1,-29C503.363,-29 527.975,-29 551.194,-29"/>
<polygon fill="midnightblue" stroke="midnightblue" points="551.396,-32.5001 561.396,-29 551.396,-25.5001 551.396,-32.5001"/>
</g>
<!-- Node8 -->
<g id="node8" class="node"><title>Node8</title>
<g id="a_node8"><a xlink:href="../../d7/d99/classtree_1_1_command_node.html#a7a383438fa8edd362dddfc785615edd2" target="_top" xlink:title="tree.CommandNode.getArgNum">
<polygon fill="white" stroke="black" points="762.5,-38.5 762.5,-57.5 935.5,-57.5 935.5,-38.5 762.5,-38.5"/>
<text text-anchor="middle" x="849" y="-45.5" font-family="Helvetica,sans-Serif" font-size="10.00">tree.CommandNode.getArgNum</text>
</a>
</g>
</g>
<!-- Node7&#45;&gt;Node8 -->
<g id="edge7" class="edge"><title>Node7&#45;&gt;Node8</title>
<path fill="none" stroke="midnightblue" d="M712.629,-35.7522C725.406,-36.9081 738.839,-38.1235 752.078,-39.3213"/>
<polygon fill="midnightblue" stroke="midnightblue" points="751.875,-42.8172 762.15,-40.2326 752.506,-35.8456 751.875,-42.8172"/>
</g>
<!-- Node9 -->
<g id="node9" class="node"><title>Node9</title>
<g id="a_node9"><a xlink:href="../../d7/d99/classtree_1_1_command_node.html#ae5d7b13f887006572eb9bbaa3f0e9d4e" target="_top" xlink:title="tree.CommandNode.addChild">
<polygon fill="white" stroke="black" points="769.5,-0.5 769.5,-19.5 928.5,-19.5 928.5,-0.5 769.5,-0.5"/>
<text text-anchor="middle" x="849" y="-7.5" font-family="Helvetica,sans-Serif" font-size="10.00">tree.CommandNode.addChild</text>
</a>
</g>
</g>
<!-- Node7&#45;&gt;Node9 -->
<g id="edge8" class="edge"><title>Node7&#45;&gt;Node9</title>
<path fill="none" stroke="midnightblue" d="M712.629,-22.2478C727.716,-20.8829 743.717,-19.4351 759.234,-18.0312"/>
<polygon fill="midnightblue" stroke="midnightblue" points="759.702,-21.5032 769.346,-17.1163 759.072,-14.5317 759.702,-21.5032"/>
</g>
</g>
</svg>
