<?xml version="1.0" encoding="UTF-8" standalone="no"?>
<!DOCTYPE svg PUBLIC "-//W3C//DTD SVG 1.1//EN"
 "http://www.w3.org/Graphics/SVG/1.1/DTD/svg11.dtd">
<!-- Generated by graphviz version 2.36.0 (20140111.2315)
 -->
<!-- Title: application.Parser.updateCommandPatterns Pages: 1 -->
<svg width="356pt" height="77pt"
 viewBox="0.00 0.00 356.00 77.00" xmlns="http://www.w3.org/2000/svg" xmlns:xlink="http://www.w3.org/1999/xlink">
<g id="graph0" class="graph" transform="scale(1 1) rotate(0) translate(4 73)">
<title>application.Parser.updateCommandPatterns</title>
<polygon fill="white" stroke="none" points="-4,4 -4,-73 352,-73 352,4 -4,4"/>
<!-- Node1 -->
<g id="node1" class="node"><title>Node1</title>
<polygon fill="#bfbfbf" stroke="black" points="0.5,-22 0.5,-52 137.5,-52 137.5,-22 0.5,-22"/>
<text text-anchor="start" x="8.5" y="-40" font-family="Helvetica,sans-Serif" font-size="10.00">application.Parser.update</text>
<text text-anchor="middle" x="69" y="-29" font-family="Helvetica,sans-Serif" font-size="10.00">CommandPatterns</text>
</g>
<!-- Node2 -->
<g id="node2" class="node"><title>Node2</title>
<g id="a_node2"><a xlink:href="../../dd/d17/classapplication_1_1_model.html#aee52a4cb7337da546f826833d133c871" target="_top" xlink:title="application.Model.getLanguage">
<polygon fill="white" stroke="black" points="178,-49.5 178,-68.5 344,-68.5 344,-49.5 178,-49.5"/>
<text text-anchor="middle" x="261" y="-56.5" font-family="Helvetica,sans-Serif" font-size="10.00">application.Model.getLanguage</text>
</a>
</g>
</g>
<!-- Node1&#45;&gt;Node2 -->
<g id="edge1" class="edge"><title>Node1&#45;&gt;Node2</title>
<path fill="none" stroke="midnightblue" d="M137.522,-44.8183C147.282,-45.9484 157.465,-47.1275 167.608,-48.302"/>
<polygon fill="midnightblue" stroke="midnightblue" points="167.385,-51.7994 177.721,-49.4729 168.19,-44.8459 167.385,-51.7994"/>
</g>
<!-- Node3 -->
<g id="node3" class="node"><title>Node3</title>
<g id="a_node3"><a xlink:href="../../de/d31/classapplication_1_1_pattern_matcher.html#aa9ad491c96a7737068b2907dffd3f837" target="_top" xlink:title="application.PatternMatcher.make\lPatterns">
<polygon fill="white" stroke="black" points="174,-0 174,-30 348,-30 348,-0 174,-0"/>
<text text-anchor="start" x="182" y="-18" font-family="Helvetica,sans-Serif" font-size="10.00">application.PatternMatcher.make</text>
<text text-anchor="middle" x="261" y="-7" font-family="Helvetica,sans-Serif" font-size="10.00">Patterns</text>
</a>
</g>
</g>
<!-- Node1&#45;&gt;Node3 -->
<g id="edge2" class="edge"><title>Node1&#45;&gt;Node3</title>
<path fill="none" stroke="midnightblue" d="M137.522,-29.1817C146.047,-28.1946 154.894,-27.1701 163.756,-26.144"/>
<polygon fill="midnightblue" stroke="midnightblue" points="164.221,-29.6137 173.752,-24.9866 163.415,-22.6602 164.221,-29.6137"/>
</g>
</g>
</svg>
