<?xml version="1.0" encoding="UTF-8" standalone="no"?>
<!DOCTYPE svg PUBLIC "-//W3C//DTD SVG 1.1//EN"
 "http://www.w3.org/Graphics/SVG/1.1/DTD/svg11.dtd">
<!-- Generated by graphviz version 2.36.0 (20140111.2315)
 -->
<!-- Title: view.LanguageChooser Pages: 1 -->
<svg width="1352pt" height="883pt"
 viewBox="0.00 0.00 1352.00 883.00" xmlns="http://www.w3.org/2000/svg" xmlns:xlink="http://www.w3.org/1999/xlink">
<g id="graph0" class="graph" transform="scale(1 1) rotate(0) translate(4 879)">
<title>view.LanguageChooser</title>
<polygon fill="white" stroke="none" points="-4,4 -4,-879 1348,-879 1348,4 -4,4"/>
<!-- Node1 -->
<g id="node1" class="node"><title>Node1</title>
<polygon fill="#bfbfbf" stroke="black" points="822,-543.5 822,-562.5 948,-562.5 948,-543.5 822,-543.5"/>
<text text-anchor="middle" x="885" y="-550.5" font-family="Helvetica,sans-Serif" font-size="10.00">view.LanguageChooser</text>
</g>
<!-- Node4 -->
<g id="node4" class="node"><title>Node4</title>
<g id="a_node4"><a xlink:href="../../d3/dbe/classview_1_1_view.html" target="_top" xlink:title="view.View">
<polygon fill="white" stroke="black" points="1282.5,-543.5 1282.5,-562.5 1343.5,-562.5 1343.5,-543.5 1282.5,-543.5"/>
<text text-anchor="middle" x="1313" y="-550.5" font-family="Helvetica,sans-Serif" font-size="10.00">view.View</text>
</a>
</g>
</g>
<!-- Node1&#45;&gt;Node4 -->
<g id="edge6" class="edge"><title>Node1&#45;&gt;Node4</title>
<path fill="none" stroke="#9a32cd" stroke-dasharray="5,2" d="M958.52,-553C1053.62,-553 1216.16,-553 1282.5,-553"/>
<polygon fill="#9a32cd" stroke="#9a32cd" points="958.4,-549.5 948.4,-553 958.4,-556.5 958.4,-549.5"/>
<text text-anchor="middle" x="1096" y="-556" font-family="Helvetica,sans-Serif" font-size="10.00"> lang</text>
</g>
<!-- Node23 -->
<g id="node23" class="node"><title>Node23</title>
<g id="a_node23"><a xlink:href="../../d3/d1e/classview_1_1_button_bar.html" target="_top" xlink:title="view.ButtonBar">
<polygon fill="white" stroke="black" points="1052,-246.5 1052,-265.5 1140,-265.5 1140,-246.5 1052,-246.5"/>
<text text-anchor="middle" x="1096" y="-253.5" font-family="Helvetica,sans-Serif" font-size="10.00">view.ButtonBar</text>
</a>
</g>
</g>
<!-- Node1&#45;&gt;Node23 -->
<g id="edge28" class="edge"><title>Node1&#45;&gt;Node23</title>
<path fill="none" stroke="#9a32cd" stroke-dasharray="5,2" d="M934.501,-538.777C939.648,-535.601 944.332,-531.725 948,-527 981.609,-483.705 943.15,-454.819 966,-405 994.387,-343.11 1056.59,-287.404 1082.88,-265.666"/>
<polygon fill="#9a32cd" stroke="#9a32cd" points="932.737,-535.75 925.501,-543.489 935.984,-541.951 932.737,-535.75"/>
<text text-anchor="middle" x="988" y="-408" font-family="Helvetica,sans-Serif" font-size="10.00"> lang</text>
</g>
<!-- Node2 -->
<g id="node2" class="node"><title>Node2</title>
<polygon fill="white" stroke="#bfbfbf" points="283,-621.5 283,-640.5 369,-640.5 369,-621.5 283,-621.5"/>
<text text-anchor="middle" x="326" y="-628.5" font-family="Helvetica,sans-Serif" font-size="10.00">StringProperty</text>
</g>
<!-- Node2&#45;&gt;Node1 -->
<g id="edge1" class="edge"><title>Node2&#45;&gt;Node1</title>
<path fill="none" stroke="#9a32cd" stroke-dasharray="5,2" d="M379.323,-631.734C468.11,-631.78 653.317,-626.662 804,-588 826.467,-582.236 850.654,-570.86 866.481,-562.639"/>
<polygon fill="#9a32cd" stroke="#9a32cd" points="379.248,-628.234 369.238,-631.706 379.228,-635.234 379.248,-628.234"/>
<text text-anchor="middle" x="612" y="-629" font-family="Helvetica,sans-Serif" font-size="10.00"> languageProp</text>
</g>
<!-- Node37 -->
<g id="node37" class="node"><title>Node37</title>
<g id="a_node37"><a xlink:href="../../dd/d17/classapplication_1_1_model.html" target="_top" xlink:title="application.Model">
<polygon fill="white" stroke="black" points="562,-461.5 562,-480.5 662,-480.5 662,-461.5 562,-461.5"/>
<text text-anchor="middle" x="612" y="-468.5" font-family="Helvetica,sans-Serif" font-size="10.00">application.Model</text>
</a>
</g>
</g>
<!-- Node2&#45;&gt;Node37 -->
<g id="edge52" class="edge"><title>Node2&#45;&gt;Node37</title>
<path fill="none" stroke="#9a32cd" stroke-dasharray="5,2" d="M378.962,-620.795C387.497,-618.38 396.121,-615.471 404,-612 412.799,-608.124 413.155,-603.769 422,-600 465.55,-581.442 491.785,-609.715 526,-577 548.286,-555.691 525.265,-534.489 544,-510 554.304,-496.531 570.696,-486.873 584.686,-480.537"/>
<polygon fill="#9a32cd" stroke="#9a32cd" points="377.814,-617.477 369.033,-623.406 379.594,-624.247 377.814,-617.477"/>
<text text-anchor="middle" x="474" y="-603" font-family="Helvetica,sans-Serif" font-size="10.00"> errorMsg</text>
</g>
<!-- Node3 -->
<g id="node3" class="node"><title>Node3</title>
<polygon fill="white" stroke="#bfbfbf" points="552,-654.5 552,-673.5 672,-673.5 672,-654.5 552,-654.5"/>
<text text-anchor="middle" x="612" y="-661.5" font-family="Helvetica,sans-Serif" font-size="10.00">ComboBox&lt; String &gt;</text>
</g>
<!-- Node3&#45;&gt;Node1 -->
<g id="edge2" class="edge"><title>Node3&#45;&gt;Node1</title>
<path fill="none" stroke="#9a32cd" stroke-dasharray="5,2" d="M682.324,-658.128C728.013,-653.38 783.125,-645.715 804,-635 837.973,-617.563 865.986,-580.156 877.87,-562.543"/>
<polygon fill="#9a32cd" stroke="#9a32cd" points="681.737,-654.67 672.139,-659.156 682.439,-661.635 681.737,-654.67"/>
<text text-anchor="middle" x="751" y="-660" font-family="Helvetica,sans-Serif" font-size="10.00"> languageComboBox</text>
</g>
<!-- Node4&#45;&gt;Node1 -->
<g id="edge3" class="edge"><title>Node4&#45;&gt;Node1</title>
<path fill="none" stroke="#9a32cd" stroke-dasharray="5,2" d="M1272.6,-541.181C1269.7,-540.411 1266.81,-539.675 1264,-539 1161.68,-514.419 1132.54,-508.012 1028,-520 989.402,-524.426 946.038,-535.409 917.501,-543.494"/>
<polygon fill="#9a32cd" stroke="#9a32cd" points="1271.85,-544.603 1282.42,-543.889 1273.71,-537.855 1271.85,-544.603"/>
<text text-anchor="middle" x="1096" y="-523" font-family="Helvetica,sans-Serif" font-size="10.00"> view</text>
</g>
<!-- Node5 -->
<g id="node5" class="node"><title>Node5</title>
<g id="a_node5"><a xlink:href="../../de/d83/classview_1_1_import_design.html" target="_top" xlink:title="view.ImportDesign">
<polygon fill="white" stroke="black" points="560,-780.5 560,-799.5 664,-799.5 664,-780.5 560,-780.5"/>
<text text-anchor="middle" x="612" y="-787.5" font-family="Helvetica,sans-Serif" font-size="10.00">view.ImportDesign</text>
</a>
</g>
</g>
<!-- Node5&#45;&gt;Node4 -->
<g id="edge4" class="edge"><title>Node5&#45;&gt;Node4</title>
<path fill="none" stroke="#9a32cd" stroke-dasharray="5,2" d="M648.402,-802.957C758.49,-840.717 1097.39,-937.42 1264,-764 1292.63,-734.2 1307.5,-599.79 1311.12,-562.576"/>
<polygon fill="#9a32cd" stroke="#9a32cd" points="649.368,-799.587 638.773,-799.603 647.065,-806.197 649.368,-799.587"/>
<text text-anchor="middle" x="988" y="-867" font-family="Helvetica,sans-Serif" font-size="10.00"> des</text>
</g>
<!-- Node8 -->
<g id="node8" class="node"><title>Node8</title>
<g id="a_node8"><a xlink:href="../../d3/dfc/classview_1_1_enter_commands.html" target="_top" xlink:title="view.EnterCommands">
<polygon fill="white" stroke="black" points="825,-730.5 825,-749.5 945,-749.5 945,-730.5 825,-730.5"/>
<text text-anchor="middle" x="885" y="-737.5" font-family="Helvetica,sans-Serif" font-size="10.00">view.EnterCommands</text>
</a>
</g>
</g>
<!-- Node5&#45;&gt;Node8 -->
<g id="edge10" class="edge"><title>Node5&#45;&gt;Node8</title>
<path fill="none" stroke="#9a32cd" stroke-dasharray="5,2" d="M674.333,-778.827C711.797,-771.986 760.673,-763.032 804,-755 813.448,-753.249 823.521,-751.369 833.221,-749.554"/>
<polygon fill="#9a32cd" stroke="#9a32cd" points="673.292,-775.459 664.083,-780.698 674.549,-782.345 673.292,-775.459"/>
<text text-anchor="middle" x="751" y="-777" font-family="Helvetica,sans-Serif" font-size="10.00"> upload</text>
</g>
<!-- Node6 -->
<g id="node6" class="node"><title>Node6</title>
<g id="a_node6"><a xlink:href="../../da/d44/classview_1_1_command_guide.html" target="_top" xlink:title="view.CommandGuide">
<polygon fill="white" stroke="black" points="1037.5,-620.5 1037.5,-639.5 1154.5,-639.5 1154.5,-620.5 1037.5,-620.5"/>
<text text-anchor="middle" x="1096" y="-627.5" font-family="Helvetica,sans-Serif" font-size="10.00">view.CommandGuide</text>
</a>
</g>
</g>
<!-- Node6&#45;&gt;Node4 -->
<g id="edge5" class="edge"><title>Node6&#45;&gt;Node4</title>
<path fill="none" stroke="#9a32cd" stroke-dasharray="5,2" d="M1164.8,-625.071C1196.29,-620.701 1233.42,-612.474 1264,-597 1280.54,-588.628 1295.59,-572.925 1304.27,-562.72"/>
<polygon fill="#9a32cd" stroke="#9a32cd" points="1164.27,-621.611 1154.8,-626.358 1165.16,-628.553 1164.27,-621.611"/>
<text text-anchor="middle" x="1223" y="-625" font-family="Helvetica,sans-Serif" font-size="10.00"> comm</text>
</g>
<!-- Node7 -->
<g id="node7" class="node"><title>Node7</title>
<g id="a_node7"><a xlink:href="../../d8/da5/classview_1_1_create_design.html" target="_top" xlink:title="view.CreateDesign">
<polygon fill="white" stroke="black" points="1044,-704.5 1044,-723.5 1148,-723.5 1148,-704.5 1044,-704.5"/>
<text text-anchor="middle" x="1096" y="-711.5" font-family="Helvetica,sans-Serif" font-size="10.00">view.CreateDesign</text>
</a>
</g>
</g>
<!-- Node7&#45;&gt;Node4 -->
<g id="edge7" class="edge"><title>Node7&#45;&gt;Node4</title>
<path fill="none" stroke="#9a32cd" stroke-dasharray="5,2" d="M1158.22,-716.774C1192.87,-715.17 1234.96,-707.475 1264,-683 1301.71,-651.215 1309.81,-586.973 1311.53,-562.638"/>
<polygon fill="#9a32cd" stroke="#9a32cd" points="1158.08,-713.276 1148.19,-717.081 1158.29,-720.273 1158.08,-713.276"/>
<text text-anchor="middle" x="1223" y="-718" font-family="Helvetica,sans-Serif" font-size="10.00"> cre</text>
</g>
<!-- Node8&#45;&gt;Node4 -->
<g id="edge49" class="edge"><title>Node8&#45;&gt;Node4</title>
<path fill="none" stroke="#9a32cd" stroke-dasharray="5,2" d="M923.972,-752.537C998.437,-774.519 1164.99,-810.475 1264,-730 1290.81,-708.211 1306.66,-596.183 1310.86,-562.555"/>
<polygon fill="#9a32cd" stroke="#9a32cd" points="924.677,-749.094 914.092,-749.542 922.646,-755.793 924.677,-749.094"/>
<text text-anchor="middle" x="1096" y="-782" font-family="Helvetica,sans-Serif" font-size="10.00"> enter</text>
</g>
<!-- Node8&#45;&gt;Node7 -->
<g id="edge8" class="edge"><title>Node8&#45;&gt;Node7</title>
<path fill="none" stroke="#9a32cd" stroke-dasharray="5,2" d="M955.113,-731.402C984.088,-727.798 1017.18,-723.681 1043.9,-720.357"/>
<polygon fill="#9a32cd" stroke="#9a32cd" points="954.544,-727.946 945.053,-732.654 955.409,-734.892 954.544,-727.946"/>
<text text-anchor="middle" x="988" y="-733" font-family="Helvetica,sans-Serif" font-size="10.00"> myEnter</text>
</g>
<!-- Node10 -->
<g id="node10" class="node"><title>Node10</title>
<g id="a_node10"><a xlink:href="../../d2/d22/classview_1_1_previous_commands.html" target="_top" xlink:title="view.PreviousCommands">
<polygon fill="white" stroke="black" points="1028.5,-660.5 1028.5,-679.5 1163.5,-679.5 1163.5,-660.5 1028.5,-660.5"/>
<text text-anchor="middle" x="1096" y="-667.5" font-family="Helvetica,sans-Serif" font-size="10.00">view.PreviousCommands</text>
</a>
</g>
</g>
<!-- Node8&#45;&gt;Node10 -->
<g id="edge13" class="edge"><title>Node8&#45;&gt;Node10</title>
<path fill="none" stroke="#9a32cd" stroke-dasharray="5,2" d="M919.758,-726.844C933.967,-721.437 950.72,-715.229 966,-710 998.612,-698.84 1036.31,-687.307 1062.49,-679.51"/>
<polygon fill="#9a32cd" stroke="#9a32cd" points="918.462,-723.593 910.376,-730.439 920.967,-730.129 918.462,-723.593"/>
<text text-anchor="middle" x="988" y="-713" font-family="Helvetica,sans-Serif" font-size="10.00"> enter</text>
</g>
<!-- Node9 -->
<g id="node9" class="node"><title>Node9</title>
<polygon fill="white" stroke="#bfbfbf" points="576.5,-732.5 576.5,-751.5 647.5,-751.5 647.5,-732.5 576.5,-732.5"/>
<text text-anchor="middle" x="612" y="-739.5" font-family="Helvetica,sans-Serif" font-size="10.00">Observable</text>
</g>
<!-- Node9&#45;&gt;Node8 -->
<g id="edge9" class="edge"><title>Node9&#45;&gt;Node8</title>
<path fill="none" stroke="midnightblue" d="M657.787,-741.669C703.466,-741.332 774.581,-740.808 824.865,-740.436"/>
<polygon fill="midnightblue" stroke="midnightblue" points="657.571,-738.171 647.598,-741.745 657.623,-745.171 657.571,-738.171"/>
</g>
<!-- Node10&#45;&gt;Node4 -->
<g id="edge16" class="edge"><title>Node10&#45;&gt;Node4</title>
<path fill="none" stroke="#9a32cd" stroke-dasharray="5,2" d="M1173.71,-668.376C1204.15,-664.46 1238.02,-655.678 1264,-637 1290.18,-618.174 1304.09,-580.337 1309.41,-562.595"/>
<polygon fill="#9a32cd" stroke="#9a32cd" points="1173.07,-664.925 1163.53,-669.524 1173.86,-671.881 1173.07,-664.925"/>
<text text-anchor="middle" x="1223" y="-671" font-family="Helvetica,sans-Serif" font-size="10.00"> prev</text>
</g>
<!-- Node10&#45;&gt;Node8 -->
<g id="edge11" class="edge"><title>Node10&#45;&gt;Node8</title>
<path fill="none" stroke="#9a32cd" stroke-dasharray="5,2" d="M1018.17,-663.409C1000.59,-664.174 982.298,-666.861 966,-673 934.466,-684.877 906.524,-714.864 893.6,-730.375"/>
<polygon fill="#9a32cd" stroke="#9a32cd" points="1018.5,-666.902 1028.42,-663.168 1018.34,-659.904 1018.5,-666.902"/>
<text text-anchor="middle" x="988" y="-676" font-family="Helvetica,sans-Serif" font-size="10.00"> prev</text>
</g>
<!-- Node11 -->
<g id="node11" class="node"><title>Node11</title>
<polygon fill="white" stroke="#bfbfbf" points="583,-693.5 583,-712.5 641,-712.5 641,-693.5 583,-693.5"/>
<text text-anchor="middle" x="612" y="-700.5" font-family="Helvetica,sans-Serif" font-size="10.00">TextArea</text>
</g>
<!-- Node11&#45;&gt;Node8 -->
<g id="edge14" class="edge"><title>Node11&#45;&gt;Node8</title>
<path fill="none" stroke="#9a32cd" stroke-dasharray="5,2" d="M651.491,-707.024C690.122,-711.207 751.298,-718.221 804,-726 813.067,-727.338 822.687,-728.9 831.995,-730.484"/>
<polygon fill="#9a32cd" stroke="#9a32cd" points="651.535,-703.509 641.218,-705.921 650.787,-710.469 651.535,-703.509"/>
<text text-anchor="middle" x="751" y="-729" font-family="Helvetica,sans-Serif" font-size="10.00"> text</text>
</g>
<!-- Node11&#45;&gt;Node10 -->
<g id="edge12" class="edge"><title>Node11&#45;&gt;Node10</title>
<path fill="none" stroke="#9a32cd" stroke-dasharray="5,2" d="M651.54,-694.838C722.351,-680.754 878.006,-654.032 1010,-661 1015.93,-661.313 1022.08,-661.748 1028.24,-662.259"/>
<polygon fill="#9a32cd" stroke="#9a32cd" points="650.43,-691.491 641.321,-696.901 651.815,-698.353 650.43,-691.491"/>
<text text-anchor="middle" x="885" y="-672" font-family="Helvetica,sans-Serif" font-size="10.00"> text</text>
</g>
<!-- Node12 -->
<g id="node12" class="node"><title>Node12</title>
<g id="a_node12"><a xlink:href="../../d5/d91/classview_1_1_workspace_adder.html" target="_top" xlink:title="view.WorkspaceAdder">
<polygon fill="white" stroke="black" points="1036.5,-582.5 1036.5,-601.5 1155.5,-601.5 1155.5,-582.5 1036.5,-582.5"/>
<text text-anchor="middle" x="1096" y="-589.5" font-family="Helvetica,sans-Serif" font-size="10.00">view.WorkspaceAdder</text>
</a>
</g>
</g>
<!-- Node12&#45;&gt;Node4 -->
<g id="edge15" class="edge"><title>Node12&#45;&gt;Node4</title>
<path fill="none" stroke="#9a32cd" stroke-dasharray="5,2" d="M1165.75,-583.838C1196.05,-579.694 1231.97,-574.034 1264,-567 1270.02,-565.678 1276.39,-564.012 1282.46,-562.295"/>
<polygon fill="#9a32cd" stroke="#9a32cd" points="1165.15,-580.387 1155.71,-585.185 1166.08,-587.325 1165.15,-580.387"/>
<text text-anchor="middle" x="1223" y="-585" font-family="Helvetica,sans-Serif" font-size="10.00"> workspaceAdder</text>
</g>
<!-- Node13 -->
<g id="node13" class="node"><title>Node13</title>
<g id="a_node13"><a xlink:href="../../d4/d54/classview_1_1_turtle_state.html" target="_top" xlink:title="view.TurtleState">
<polygon fill="white" stroke="black" points="839.5,-343.5 839.5,-362.5 930.5,-362.5 930.5,-343.5 839.5,-343.5"/>
<text text-anchor="middle" x="885" y="-350.5" font-family="Helvetica,sans-Serif" font-size="10.00">view.TurtleState</text>
</a>
</g>
</g>
<!-- Node13&#45;&gt;Node4 -->
<g id="edge17" class="edge"><title>Node13&#45;&gt;Node4</title>
<path fill="none" stroke="#9a32cd" stroke-dasharray="5,2" d="M941.207,-347.392C1021.94,-342.352 1172.54,-345.364 1264,-424 1301.15,-455.937 1309.58,-519.446 1311.47,-543.483"/>
<polygon fill="#9a32cd" stroke="#9a32cd" points="940.501,-343.933 930.766,-348.114 940.984,-350.916 940.501,-343.933"/>
<text text-anchor="middle" x="1096" y="-372" font-family="Helvetica,sans-Serif" font-size="10.00"> tState</text>
</g>
<!-- Node13&#45;&gt;Node23 -->
<g id="edge29" class="edge"><title>Node13&#45;&gt;Node23</title>
<path fill="none" stroke="#9a32cd" stroke-dasharray="5,2" d="M915.924,-339.112C958.924,-319.155 1037.1,-282.873 1074.28,-265.616"/>
<polygon fill="#9a32cd" stroke="#9a32cd" points="914.401,-335.96 906.804,-343.345 917.348,-342.309 914.401,-335.96"/>
<text text-anchor="middle" x="988" y="-317" font-family="Helvetica,sans-Serif" font-size="10.00"> tur</text>
</g>
<!-- Node14 -->
<g id="node14" class="node"><title>Node14</title>
<polygon fill="white" stroke="#bfbfbf" points="589.5,-323.5 589.5,-342.5 634.5,-342.5 634.5,-323.5 589.5,-323.5"/>
<text text-anchor="middle" x="612" y="-330.5" font-family="Helvetica,sans-Serif" font-size="10.00">Stage</text>
</g>
<!-- Node14&#45;&gt;Node13 -->
<g id="edge18" class="edge"><title>Node14&#45;&gt;Node13</title>
<path fill="none" stroke="#9a32cd" stroke-dasharray="5,2" d="M644.856,-335.351C692.959,-338.901 784.321,-345.644 839.136,-349.689"/>
<polygon fill="#9a32cd" stroke="#9a32cd" points="644.949,-331.848 634.719,-334.603 644.434,-338.829 644.949,-331.848"/>
<text text-anchor="middle" x="751" y="-351" font-family="Helvetica,sans-Serif" font-size="10.00"> t</text>
</g>
<!-- Node15 -->
<g id="node15" class="node"><title>Node15</title>
<g id="a_node15"><a xlink:href="../../d1/deb/classapplication_1_1_turtle_list.html" target="_top" xlink:title="application.TurtleList">
<polygon fill="white" stroke="black" points="269.5,-388.5 269.5,-407.5 382.5,-407.5 382.5,-388.5 269.5,-388.5"/>
<text text-anchor="middle" x="326" y="-395.5" font-family="Helvetica,sans-Serif" font-size="10.00">application.TurtleList</text>
</a>
</g>
</g>
<!-- Node15&#45;&gt;Node13 -->
<g id="edge19" class="edge"><title>Node15&#45;&gt;Node13</title>
<path fill="none" stroke="#9a32cd" stroke-dasharray="5,2" d="M392.531,-394.255C484.555,-388.754 657.255,-377.546 804,-363 815.422,-361.868 827.734,-360.435 839.195,-359.01"/>
<polygon fill="#9a32cd" stroke="#9a32cd" points="392.302,-390.762 382.528,-394.849 392.718,-397.75 392.302,-390.762"/>
<text text-anchor="middle" x="612" y="-388" font-family="Helvetica,sans-Serif" font-size="10.00"> tList</text>
</g>
<!-- Node15&#45;&gt;Node37 -->
<g id="edge55" class="edge"><title>Node15&#45;&gt;Node37</title>
<path fill="none" stroke="#9a32cd" stroke-dasharray="5,2" d="M392.766,-401.585C432.225,-405.198 482.946,-412.45 526,-427 534.67,-429.93 535.918,-432.706 544,-437 559.897,-445.445 578.124,-454.666 591.55,-461.371"/>
<polygon fill="#9a32cd" stroke="#9a32cd" points="392.992,-398.092 382.729,-400.722 392.393,-405.066 392.992,-398.092"/>
<text text-anchor="middle" x="474" y="-430" font-family="Helvetica,sans-Serif" font-size="10.00"> myTurtleList</text>
</g>
<!-- Node16 -->
<g id="node16" class="node"><title>Node16</title>
<polygon fill="white" stroke="#bfbfbf" points="28.5,-496.5 28.5,-515.5 119.5,-515.5 119.5,-496.5 28.5,-496.5"/>
<text text-anchor="middle" x="74" y="-503.5" font-family="Helvetica,sans-Serif" font-size="10.00">DoubleProperty</text>
</g>
<!-- Node16&#45;&gt;Node15 -->
<g id="edge20" class="edge"><title>Node16&#45;&gt;Node15</title>
<path fill="none" stroke="#9a32cd" stroke-dasharray="5,2" d="M129.902,-504.485C168.358,-502.286 215.383,-496.942 230,-484 253.086,-463.561 225.975,-438.578 248,-417 254,-411.122 261.512,-406.967 269.476,-404.047"/>
<polygon fill="#9a32cd" stroke="#9a32cd" points="129.635,-500.994 119.827,-505.002 129.994,-507.985 129.635,-500.994"/>
<text text-anchor="middle" x="198" y="-505" font-family="Helvetica,sans-Serif" font-size="10.00"> newID</text>
</g>
<!-- Node25 -->
<g id="node25" class="node"><title>Node25</title>
<g id="a_node25"><a xlink:href="../../d1/d31/classapplication_1_1_turtle.html" target="_top" xlink:title="application.Turtle">
<polygon fill="white" stroke="black" points="277.5,-289.5 277.5,-308.5 374.5,-308.5 374.5,-289.5 277.5,-289.5"/>
<text text-anchor="middle" x="326" y="-296.5" font-family="Helvetica,sans-Serif" font-size="10.00">application.Turtle</text>
</a>
</g>
</g>
<!-- Node16&#45;&gt;Node25 -->
<g id="edge32" class="edge"><title>Node16&#45;&gt;Node25</title>
<path fill="none" stroke="#9a32cd" stroke-dasharray="5,2" d="M100.533,-491.417C118.539,-481.411 143.383,-468.157 166,-458 193.713,-445.555 210.482,-457.279 230,-434 258.172,-400.4 221.537,-371.961 248,-337 258.257,-323.45 274.648,-314.432 289.676,-308.597"/>
<polygon fill="#9a32cd" stroke="#9a32cd" points="98.7984,-488.377 91.7876,-496.321 102.222,-494.483 98.7984,-488.377"/>
<text text-anchor="middle" x="198" y="-472" font-family="Helvetica,sans-Serif" font-size="10.00"> heading</text>
<text text-anchor="middle" x="198" y="-461" font-family="Helvetica,sans-Serif" font-size="10.00">shape</text>
</g>
<!-- Node16&#45;&gt;Node37 -->
<g id="edge53" class="edge"><title>Node16&#45;&gt;Node37</title>
<path fill="none" stroke="#9a32cd" stroke-dasharray="5,2" d="M130.014,-513.73C141.86,-515.092 154.328,-516.297 166,-517 326.065,-526.639 368.112,-521.023 526,-493 543.71,-489.857 563.153,-484.937 578.969,-480.546"/>
<polygon fill="#9a32cd" stroke="#9a32cd" points="130.146,-510.221 119.8,-512.502 129.31,-517.17 130.146,-510.221"/>
<text text-anchor="middle" x="326" y="-547" font-family="Helvetica,sans-Serif" font-size="10.00"> penSize</text>
<text text-anchor="middle" x="326" y="-536" font-family="Helvetica,sans-Serif" font-size="10.00">penColor</text>
<text text-anchor="middle" x="326" y="-525" font-family="Helvetica,sans-Serif" font-size="10.00">background</text>
</g>
<!-- Node17 -->
<g id="node17" class="node"><title>Node17</title>
<polygon fill="white" stroke="#bfbfbf" points="8.5,-372 8.5,-402 139.5,-402 139.5,-372 8.5,-372"/>
<text text-anchor="start" x="16.5" y="-390" font-family="Helvetica,sans-Serif" font-size="10.00">Map&lt; application.Turtle,</text>
<text text-anchor="middle" x="74" y="-379" font-family="Helvetica,sans-Serif" font-size="10.00"> Double &gt;</text>
</g>
<!-- Node17&#45;&gt;Node15 -->
<g id="edge21" class="edge"><title>Node17&#45;&gt;Node15</title>
<path fill="none" stroke="#9a32cd" stroke-dasharray="5,2" d="M149.812,-390.292C188.235,-391.982 234.245,-394.007 269.47,-395.557"/>
<polygon fill="#9a32cd" stroke="#9a32cd" points="149.851,-386.79 139.706,-389.847 149.543,-393.783 149.851,-386.79"/>
<text text-anchor="middle" x="198" y="-397" font-family="Helvetica,sans-Serif" font-size="10.00"> IDMap</text>
</g>
<!-- Node18 -->
<g id="node18" class="node"><title>Node18</title>
<polygon fill="white" stroke="#bfbfbf" points="2.5,-550 2.5,-580 145.5,-580 145.5,-550 2.5,-550"/>
<text text-anchor="start" x="10.5" y="-568" font-family="Helvetica,sans-Serif" font-size="10.00">Map&lt; Double, application.</text>
<text text-anchor="middle" x="74" y="-557" font-family="Helvetica,sans-Serif" font-size="10.00">Turtle &gt;</text>
</g>
<!-- Node18&#45;&gt;Node15 -->
<g id="edge22" class="edge"><title>Node18&#45;&gt;Node15</title>
<path fill="none" stroke="#9a32cd" stroke-dasharray="5,2" d="M155.496,-557.06C182.748,-550.402 211.048,-538.422 230,-517 259.922,-483.177 217.103,-449.935 248,-417 253.841,-410.774 261.369,-406.449 269.424,-403.47"/>
<polygon fill="#9a32cd" stroke="#9a32cd" points="154.524,-553.691 145.523,-559.28 156.044,-560.524 154.524,-553.691"/>
<text text-anchor="middle" x="198" y="-557" font-family="Helvetica,sans-Serif" font-size="10.00"> TurtleMap</text>
</g>
<!-- Node19 -->
<g id="node19" class="node"><title>Node19</title>
<polygon fill="white" stroke="#bfbfbf" points="6,-421.5 6,-440.5 142,-440.5 142,-421.5 6,-421.5"/>
<text text-anchor="middle" x="74" y="-428.5" font-family="Helvetica,sans-Serif" font-size="10.00">List&lt; application.Turtle &gt;</text>
</g>
<!-- Node19&#45;&gt;Node15 -->
<g id="edge23" class="edge"><title>Node19&#45;&gt;Node15</title>
<path fill="none" stroke="#9a32cd" stroke-dasharray="5,2" d="M152.301,-420.796C190.175,-415.797 234.922,-409.89 269.377,-405.342"/>
<polygon fill="#9a32cd" stroke="#9a32cd" points="151.78,-417.335 142.324,-422.113 152.696,-424.274 151.78,-417.335"/>
<text text-anchor="middle" x="198" y="-422" font-family="Helvetica,sans-Serif" font-size="10.00"> myActiveList</text>
</g>
<!-- Node20 -->
<g id="node20" class="node"><title>Node20</title>
<polygon fill="white" stroke="#bfbfbf" points="554.5,-285.5 554.5,-304.5 669.5,-304.5 669.5,-285.5 554.5,-285.5"/>
<text text-anchor="middle" x="612" y="-292.5" font-family="Helvetica,sans-Serif" font-size="10.00">ArrayList&lt; Double &gt;</text>
</g>
<!-- Node20&#45;&gt;Node13 -->
<g id="edge24" class="edge"><title>Node20&#45;&gt;Node13</title>
<path fill="none" stroke="#9a32cd" stroke-dasharray="5,2" d="M680.115,-289.519C717.395,-288.512 764.153,-290.664 804,-303 831.224,-311.428 858.398,-331.498 873.014,-343.491"/>
<polygon fill="#9a32cd" stroke="#9a32cd" points="679.736,-286.03 669.866,-289.88 679.983,-293.025 679.736,-286.03"/>
<text text-anchor="middle" x="751" y="-328" font-family="Helvetica,sans-Serif" font-size="10.00"> x</text>
<text text-anchor="middle" x="751" y="-317" font-family="Helvetica,sans-Serif" font-size="10.00">y</text>
<text text-anchor="middle" x="751" y="-306" font-family="Helvetica,sans-Serif" font-size="10.00">r</text>
</g>
<!-- Node21 -->
<g id="node21" class="node"><title>Node21</title>
<polygon fill="white" stroke="#bfbfbf" points="591,-237.5 591,-256.5 633,-256.5 633,-237.5 591,-237.5"/>
<text text-anchor="middle" x="612" y="-244.5" font-family="Helvetica,sans-Serif" font-size="10.00">Label</text>
</g>
<!-- Node21&#45;&gt;Node13 -->
<g id="edge25" class="edge"><title>Node21&#45;&gt;Node13</title>
<path fill="none" stroke="#9a32cd" stroke-dasharray="5,2" d="M642.831,-237.848C682.149,-227.579 752.366,-215.567 804,-242 846.712,-263.866 871.829,-320.335 880.524,-343.186"/>
<polygon fill="#9a32cd" stroke="#9a32cd" points="641.781,-234.506 633.066,-240.53 643.636,-241.256 641.781,-234.506"/>
<text text-anchor="middle" x="751" y="-278" font-family="Helvetica,sans-Serif" font-size="10.00"> pen</text>
<text text-anchor="middle" x="751" y="-267" font-family="Helvetica,sans-Serif" font-size="10.00">rotation</text>
<text text-anchor="middle" x="751" y="-256" font-family="Helvetica,sans-Serif" font-size="10.00">turtleX</text>
<text text-anchor="middle" x="751" y="-245" font-family="Helvetica,sans-Serif" font-size="10.00">turtleY</text>
</g>
<!-- Node22 -->
<g id="node22" class="node"><title>Node22</title>
<polygon fill="white" stroke="#bfbfbf" points="552,-408.5 552,-427.5 672,-427.5 672,-408.5 552,-408.5"/>
<text text-anchor="middle" x="612" y="-415.5" font-family="Helvetica,sans-Serif" font-size="10.00">ArrayList&lt; Boolean &gt;</text>
</g>
<!-- Node22&#45;&gt;Node13 -->
<g id="edge26" class="edge"><title>Node22&#45;&gt;Node13</title>
<path fill="none" stroke="#9a32cd" stroke-dasharray="5,2" d="M682.154,-412.699C718.899,-408.68 764.51,-401.758 804,-390 826.733,-383.232 851.265,-371.095 867.084,-362.573"/>
<polygon fill="#9a32cd" stroke="#9a32cd" points="681.619,-409.236 672.037,-413.758 682.347,-416.198 681.619,-409.236"/>
<text text-anchor="middle" x="751" y="-414" font-family="Helvetica,sans-Serif" font-size="10.00"> isPen</text>
</g>
<!-- Node23&#45;&gt;Node4 -->
<g id="edge27" class="edge"><title>Node23&#45;&gt;Node4</title>
<path fill="none" stroke="#9a32cd" stroke-dasharray="5,2" d="M1150.1,-266.884C1187.44,-277.309 1235.63,-296.837 1264,-332 1291.18,-365.692 1307.15,-505.301 1311.05,-543.373"/>
<polygon fill="#9a32cd" stroke="#9a32cd" points="1150.93,-263.484 1140.37,-264.303 1149.14,-270.25 1150.93,-263.484"/>
<text text-anchor="middle" x="1223" y="-335" font-family="Helvetica,sans-Serif" font-size="10.00"> btnz</text>
</g>
<!-- Node24 -->
<g id="node24" class="node"><title>Node24</title>
<g id="a_node24"><a xlink:href="../../d1/d1a/classview_1_1_display.html" target="_top" xlink:title="view.Display">
<polygon fill="white" stroke="black" points="575,-93.5 575,-112.5 649,-112.5 649,-93.5 575,-93.5"/>
<text text-anchor="middle" x="612" y="-100.5" font-family="Helvetica,sans-Serif" font-size="10.00">view.Display</text>
</a>
</g>
</g>
<!-- Node24&#45;&gt;Node4 -->
<g id="edge47" class="edge"><title>Node24&#45;&gt;Node4</title>
<path fill="none" stroke="#9a32cd" stroke-dasharray="5,2" d="M652.471,-90.5673C666.672,-86.6867 682.912,-82.9209 698,-81 744.734,-75.0501 756.903,-79.856 804,-81 1025.64,-86.384 1137.98,-91.5907 1264,-274 1295.36,-319.39 1308.63,-499.734 1311.42,-543.429"/>
<polygon fill="#9a32cd" stroke="#9a32cd" points="651.2,-87.2899 642.536,-93.3886 653.112,-94.0236 651.2,-87.2899"/>
<text text-anchor="middle" x="988" y="-99" font-family="Helvetica,sans-Serif" font-size="10.00"> display</text>
</g>
<!-- Node24&#45;&gt;Node23 -->
<g id="edge30" class="edge"><title>Node24&#45;&gt;Node23</title>
<path fill="none" stroke="#9a32cd" stroke-dasharray="5,2" d="M659.067,-93.3334C697.903,-86.6272 754.849,-80.1817 804,-88 870.487,-98.5758 888.986,-102.601 948,-135 1006.53,-167.134 1064.22,-223.893 1085.95,-246.409"/>
<polygon fill="#9a32cd" stroke="#9a32cd" points="658.328,-89.91 649.107,-95.1275 659.569,-96.7991 658.328,-89.91"/>
<text text-anchor="middle" x="885" y="-138" font-family="Helvetica,sans-Serif" font-size="10.00"> dis</text>
</g>
<!-- Node34 -->
<g id="node34" class="node"><title>Node34</title>
<g id="a_node34"><a xlink:href="../../dd/d5e/classview_1_1_image_chooser.html" target="_top" xlink:title="view.ImageChooser">
<polygon fill="white" stroke="black" points="830.5,-155.5 830.5,-174.5 939.5,-174.5 939.5,-155.5 830.5,-155.5"/>
<text text-anchor="middle" x="885" y="-162.5" font-family="Helvetica,sans-Serif" font-size="10.00">view.ImageChooser</text>
</a>
</g>
</g>
<!-- Node24&#45;&gt;Node34 -->
<g id="edge42" class="edge"><title>Node24&#45;&gt;Node34</title>
<path fill="none" stroke="#9a32cd" stroke-dasharray="5,2" d="M659.473,-95.1743C699.015,-90.3913 756.745,-87.9015 804,-104 834.09,-114.251 861.83,-140.758 875.353,-155.225"/>
<polygon fill="#9a32cd" stroke="#9a32cd" points="658.79,-91.7336 649.328,-96.4998 659.697,-98.6746 658.79,-91.7336"/>
<text text-anchor="middle" x="751" y="-107" font-family="Helvetica,sans-Serif" font-size="10.00"> display</text>
</g>
<!-- Node36 -->
<g id="node36" class="node"><title>Node36</title>
<g id="a_node36"><a xlink:href="../../d6/d05/classview_1_1_color_chooser.html" target="_top" xlink:title="view.ColorChooser">
<polygon fill="white" stroke="black" points="833,-193.5 833,-212.5 937,-212.5 937,-193.5 833,-193.5"/>
<text text-anchor="middle" x="885" y="-200.5" font-family="Helvetica,sans-Serif" font-size="10.00">view.ColorChooser</text>
</a>
</g>
</g>
<!-- Node24&#45;&gt;Node36 -->
<g id="edge45" class="edge"><title>Node24&#45;&gt;Node36</title>
<path fill="none" stroke="#9a32cd" stroke-dasharray="5,2" d="M659.271,-109.882C712.151,-118.107 792.865,-131.897 804,-141 820.04,-154.114 806.643,-170.094 822,-184 826.256,-187.854 831.277,-190.926 836.589,-193.376"/>
<polygon fill="#9a32cd" stroke="#9a32cd" points="659.511,-106.378 649.095,-108.314 658.446,-113.296 659.511,-106.378"/>
<text text-anchor="middle" x="751" y="-144" font-family="Helvetica,sans-Serif" font-size="10.00"> disp</text>
</g>
<!-- Node25&#45;&gt;Node24 -->
<g id="edge31" class="edge"><title>Node25&#45;&gt;Node24</title>
<path fill="none" stroke="#9a32cd" stroke-dasharray="5,2" d="M366.847,-286.086C379.04,-281.583 392.312,-276.108 404,-270 462.344,-239.508 486.433,-238.615 526,-186 541.205,-165.781 526.904,-150.647 544,-132 552.223,-123.031 563.7,-116.711 574.835,-112.314"/>
<polygon fill="#9a32cd" stroke="#9a32cd" points="365.587,-282.819 357.35,-289.482 367.945,-289.41 365.587,-282.819"/>
<text text-anchor="middle" x="474" y="-264" font-family="Helvetica,sans-Serif" font-size="10.00"> myTurtle</text>
</g>
<!-- Node26 -->
<g id="node26" class="node"><title>Node26</title>
<polygon fill="white" stroke="#bfbfbf" points="26,-217.5 26,-236.5 122,-236.5 122,-217.5 26,-217.5"/>
<text text-anchor="middle" x="74" y="-224.5" font-family="Helvetica,sans-Serif" font-size="10.00">BooleanProperty</text>
</g>
<!-- Node26&#45;&gt;Node25 -->
<g id="edge33" class="edge"><title>Node26&#45;&gt;Node25</title>
<path fill="none" stroke="#9a32cd" stroke-dasharray="5,2" d="M132.265,-237.139C161.83,-243.072 198.261,-251.477 230,-262 238.31,-264.755 239.9,-266.678 248,-270 264.653,-276.83 283.566,-283.962 298.481,-289.444"/>
<polygon fill="#9a32cd" stroke="#9a32cd" points="132.6,-233.638 122.112,-235.144 131.25,-240.507 132.6,-233.638"/>
<text text-anchor="middle" x="198" y="-287" font-family="Helvetica,sans-Serif" font-size="10.00"> showing</text>
<text text-anchor="middle" x="198" y="-276" font-family="Helvetica,sans-Serif" font-size="10.00">penDown</text>
<text text-anchor="middle" x="198" y="-265" font-family="Helvetica,sans-Serif" font-size="10.00">stamp</text>
</g>
<!-- Node26&#45;&gt;Node37 -->
<g id="edge56" class="edge"><title>Node26&#45;&gt;Node37</title>
<path fill="none" stroke="#9a32cd" stroke-dasharray="5,2" d="M132.131,-221.001C200.29,-216.336 316.052,-216.446 404,-258 414.229,-262.833 413.653,-268.363 422,-276 466.461,-316.68 494.174,-311.827 526,-363 543.876,-391.743 522.984,-410.467 544,-437 552.909,-448.247 566.532,-456.107 579.173,-461.413"/>
<polygon fill="#9a32cd" stroke="#9a32cd" points="131.735,-217.521 122.021,-221.752 132.253,-224.502 131.735,-217.521"/>
<text text-anchor="middle" x="326" y="-272" font-family="Helvetica,sans-Serif" font-size="10.00"> clearStamp</text>
<text text-anchor="middle" x="326" y="-261" font-family="Helvetica,sans-Serif" font-size="10.00">clearScreen</text>
</g>
<!-- Node27 -->
<g id="node27" class="node"><title>Node27</title>
<polygon fill="white" stroke="#bfbfbf" points="0.5,-332.5 0.5,-351.5 147.5,-351.5 147.5,-332.5 0.5,-332.5"/>
<text text-anchor="middle" x="74" y="-339.5" font-family="Helvetica,sans-Serif" font-size="10.00">ObjectProperty&lt; double[]&gt;</text>
</g>
<!-- Node27&#45;&gt;Node25 -->
<g id="edge34" class="edge"><title>Node27&#45;&gt;Node25</title>
<path fill="none" stroke="#9a32cd" stroke-dasharray="5,2" d="M140.548,-330.726C183.434,-323.349 238.492,-313.879 277.25,-307.213"/>
<polygon fill="#9a32cd" stroke="#9a32cd" points="139.745,-327.312 130.483,-332.457 140.932,-334.211 139.745,-327.312"/>
<text text-anchor="middle" x="198" y="-329" font-family="Helvetica,sans-Serif" font-size="10.00"> location</text>
</g>
<!-- Node27&#45;&gt;Node37 -->
<g id="edge57" class="edge"><title>Node27&#45;&gt;Node37</title>
<path fill="none" stroke="#9a32cd" stroke-dasharray="5,2" d="M157.805,-342.893C272.326,-345.787 471.17,-357.316 526,-402 539.56,-413.05 531.598,-424.665 544,-437 554.913,-447.854 570.001,-455.926 583.096,-461.474"/>
<polygon fill="#9a32cd" stroke="#9a32cd" points="157.752,-339.391 147.673,-342.654 157.587,-346.389 157.752,-339.391"/>
<text text-anchor="middle" x="326" y="-365" font-family="Helvetica,sans-Serif" font-size="10.00"> pallet</text>
</g>
<!-- Node28 -->
<g id="node28" class="node"><title>Node28</title>
<polygon fill="white" stroke="#bfbfbf" points="6,-289.5 6,-308.5 142,-308.5 142,-289.5 6,-289.5"/>
<text text-anchor="middle" x="74" y="-296.5" font-family="Helvetica,sans-Serif" font-size="10.00">ObjectProperty&lt; Node &gt;</text>
</g>
<!-- Node28&#45;&gt;Node25 -->
<g id="edge35" class="edge"><title>Node28&#45;&gt;Node25</title>
<path fill="none" stroke="#9a32cd" stroke-dasharray="5,2" d="M152.521,-299C193.351,-299 242.119,-299 277.364,-299"/>
<polygon fill="#9a32cd" stroke="#9a32cd" points="152.324,-295.5 142.324,-299 152.324,-302.5 152.324,-295.5"/>
<text text-anchor="middle" x="198" y="-302" font-family="Helvetica,sans-Serif" font-size="10.00"> node</text>
</g>
<!-- Node29 -->
<g id="node29" class="node"><title>Node29</title>
<polygon fill="white" stroke="#bfbfbf" points="292,-55.5 292,-74.5 360,-74.5 360,-55.5 292,-55.5"/>
<text text-anchor="middle" x="326" y="-62.5" font-family="Helvetica,sans-Serif" font-size="10.00">ImageView</text>
</g>
<!-- Node29&#45;&gt;Node24 -->
<g id="edge36" class="edge"><title>Node29&#45;&gt;Node24</title>
<path fill="none" stroke="#9a32cd" stroke-dasharray="5,2" d="M370.211,-69.2439C410.586,-73.3869 472.497,-80.1944 526,-88 542.014,-90.3363 559.645,-93.3711 574.677,-96.0991"/>
<polygon fill="#9a32cd" stroke="#9a32cd" points="370.48,-65.7532 360.177,-68.2237 369.772,-72.7173 370.48,-65.7532"/>
<text text-anchor="middle" x="474" y="-91" font-family="Helvetica,sans-Serif" font-size="10.00"> turtleImage</text>
</g>
<!-- Node30 -->
<g id="node30" class="node"><title>Node30</title>
<polygon fill="white" stroke="#bfbfbf" points="260.5,-132 260.5,-162 391.5,-162 391.5,-132 260.5,-132"/>
<text text-anchor="start" x="268.5" y="-150" font-family="Helvetica,sans-Serif" font-size="10.00">Map&lt; application.Turtle,</text>
<text text-anchor="middle" x="326" y="-139" font-family="Helvetica,sans-Serif" font-size="10.00"> ImageView &gt;</text>
</g>
<!-- Node30&#45;&gt;Node24 -->
<g id="edge37" class="edge"><title>Node30&#45;&gt;Node24</title>
<path fill="none" stroke="#9a32cd" stroke-dasharray="5,2" d="M401.987,-135.382C457.723,-126.747 531.332,-115.343 574.678,-108.627"/>
<polygon fill="#9a32cd" stroke="#9a32cd" points="401.146,-131.971 391.799,-136.961 402.217,-138.888 401.146,-131.971"/>
<text text-anchor="middle" x="474" y="-135" font-family="Helvetica,sans-Serif" font-size="10.00"> imageMap</text>
</g>
<!-- Node31 -->
<g id="node31" class="node"><title>Node31</title>
<polygon fill="white" stroke="#bfbfbf" points="294.5,-93.5 294.5,-112.5 357.5,-112.5 357.5,-93.5 294.5,-93.5"/>
<text text-anchor="middle" x="326" y="-100.5" font-family="Helvetica,sans-Serif" font-size="10.00">Rectangle</text>
</g>
<!-- Node31&#45;&gt;Node24 -->
<g id="edge38" class="edge"><title>Node31&#45;&gt;Node24</title>
<path fill="none" stroke="#9a32cd" stroke-dasharray="5,2" d="M367.831,-103C423.309,-103 521.645,-103 574.68,-103"/>
<polygon fill="#9a32cd" stroke="#9a32cd" points="367.663,-99.5001 357.663,-103 367.663,-106.5 367.663,-99.5001"/>
<text text-anchor="middle" x="474" y="-106" font-family="Helvetica,sans-Serif" font-size="10.00"> initial</text>
</g>
<!-- Node32 -->
<g id="node32" class="node"><title>Node32</title>
<polygon fill="white" stroke="#bfbfbf" points="303,-4.5 303,-23.5 349,-23.5 349,-4.5 303,-4.5"/>
<text text-anchor="middle" x="326" y="-11.5" font-family="Helvetica,sans-Serif" font-size="10.00">Group</text>
</g>
<!-- Node32&#45;&gt;Node4 -->
<g id="edge48" class="edge"><title>Node32&#45;&gt;Node4</title>
<path fill="none" stroke="#9a32cd" stroke-dasharray="5,2" d="M359.141,-11.3824C411.751,-7.33009 519.556,-0 611,-0 611,-0 611,-0 1097,-0 1204.83,-0 1217.79,-78.5729 1264,-176 1296.31,-244.108 1309.18,-490.987 1311.58,-543.241"/>
<polygon fill="#9a32cd" stroke="#9a32cd" points="358.773,-7.90035 349.076,-12.1697 359.319,-14.879 358.773,-7.90035"/>
<text text-anchor="middle" x="885" y="-3" font-family="Helvetica,sans-Serif" font-size="10.00"> root</text>
</g>
<!-- Node32&#45;&gt;Node24 -->
<g id="edge39" class="edge"><title>Node32&#45;&gt;Node24</title>
<path fill="none" stroke="#9a32cd" stroke-dasharray="5,2" d="M359.253,-18.9881C399.19,-25.7215 468.927,-39.3117 526,-60 551.032,-69.0737 578.198,-83.7419 594.913,-93.3789"/>
<polygon fill="#9a32cd" stroke="#9a32cd" points="359.726,-15.519 349.29,-17.3471 358.588,-22.4259 359.726,-15.519"/>
<text text-anchor="middle" x="474" y="-63" font-family="Helvetica,sans-Serif" font-size="10.00"> root</text>
</g>
<!-- Node33 -->
<g id="node33" class="node"><title>Node33</title>
<polygon fill="white" stroke="#bfbfbf" points="305.5,-184.5 305.5,-203.5 346.5,-203.5 346.5,-184.5 305.5,-184.5"/>
<text text-anchor="middle" x="326" y="-191.5" font-family="Helvetica,sans-Serif" font-size="10.00">Color</text>
</g>
<!-- Node33&#45;&gt;Node24 -->
<g id="edge40" class="edge"><title>Node33&#45;&gt;Node24</title>
<path fill="none" stroke="#9a32cd" stroke-dasharray="5,2" d="M356.426,-187.141C411.337,-174.328 524.079,-147.96 526,-147 535.316,-142.346 535.131,-137.457 544,-132 556.522,-124.295 571.453,-117.618 584.038,-112.62"/>
<polygon fill="#9a32cd" stroke="#9a32cd" points="355.518,-183.758 346.574,-189.439 357.108,-190.575 355.518,-183.758"/>
<text text-anchor="middle" x="474" y="-174" font-family="Helvetica,sans-Serif" font-size="10.00"> penColor</text>
</g>
<!-- Node33&#45;&gt;Node36 -->
<g id="edge46" class="edge"><title>Node33&#45;&gt;Node36</title>
<path fill="none" stroke="#9a32cd" stroke-dasharray="5,2" d="M356.942,-194.484C447.45,-195.946 718.94,-200.333 832.83,-202.173"/>
<polygon fill="#9a32cd" stroke="#9a32cd" points="356.879,-190.982 346.824,-194.32 356.766,-197.982 356.879,-190.982"/>
<text text-anchor="middle" x="612" y="-214" font-family="Helvetica,sans-Serif" font-size="10.00"> penColor</text>
<text text-anchor="middle" x="612" y="-203" font-family="Helvetica,sans-Serif" font-size="10.00">backgroundColor</text>
</g>
<!-- Node34&#45;&gt;Node23 -->
<g id="edge41" class="edge"><title>Node34&#45;&gt;Node23</title>
<path fill="none" stroke="#9a32cd" stroke-dasharray="5,2" d="M929.178,-177.625C935.524,-179.656 941.956,-181.813 948,-184 976.097,-194.168 983.05,-197.096 1010,-210 1034.21,-221.594 1061.36,-236.664 1078.32,-246.337"/>
<polygon fill="#9a32cd" stroke="#9a32cd" points="929.933,-174.194 919.344,-174.551 927.844,-180.875 929.933,-174.194"/>
<text text-anchor="middle" x="988" y="-213" font-family="Helvetica,sans-Serif" font-size="10.00"> img</text>
</g>
<!-- Node35 -->
<g id="node35" class="node"><title>Node35</title>
<polygon fill="white" stroke="#bfbfbf" points="584,-141.5 584,-160.5 640,-160.5 640,-141.5 584,-141.5"/>
<text text-anchor="middle" x="612" y="-148.5" font-family="Helvetica,sans-Serif" font-size="10.00">Desktop</text>
</g>
<!-- Node35&#45;&gt;Node34 -->
<g id="edge43" class="edge"><title>Node35&#45;&gt;Node34</title>
<path fill="none" stroke="#9a32cd" stroke-dasharray="5,2" d="M650.492,-152.937C697.142,-155.347 777.125,-159.479 830.281,-162.225"/>
<polygon fill="#9a32cd" stroke="#9a32cd" points="650.393,-149.427 640.225,-152.406 650.031,-156.418 650.393,-149.427"/>
<text text-anchor="middle" x="751" y="-164" font-family="Helvetica,sans-Serif" font-size="10.00"> desktop</text>
</g>
<!-- Node36&#45;&gt;Node23 -->
<g id="edge44" class="edge"><title>Node36&#45;&gt;Node23</title>
<path fill="none" stroke="#9a32cd" stroke-dasharray="5,2" d="M933.552,-215.059C971.095,-224.579 1022.75,-237.679 1057.43,-246.474"/>
<polygon fill="#9a32cd" stroke="#9a32cd" points="934.402,-211.663 923.848,-212.598 932.681,-218.449 934.402,-211.663"/>
<text text-anchor="middle" x="988" y="-238" font-family="Helvetica,sans-Serif" font-size="10.00"> colz</text>
</g>
<!-- Node37&#45;&gt;Node4 -->
<g id="edge50" class="edge"><title>Node37&#45;&gt;Node4</title>
<path fill="none" stroke="#9a32cd" stroke-dasharray="5,2" d="M672.285,-460.758C680.888,-459.615 689.655,-458.634 698,-458 744.976,-454.429 756.985,-454.997 804,-458 1009.7,-471.138 1073.01,-439.488 1264,-517 1278.86,-523.033 1293.22,-534.835 1302.29,-543.282"/>
<polygon fill="#9a32cd" stroke="#9a32cd" points="671.71,-457.305 662.296,-462.165 672.686,-464.236 671.71,-457.305"/>
<text text-anchor="middle" x="988" y="-466" font-family="Helvetica,sans-Serif" font-size="10.00"> m</text>
</g>
<!-- Node41 -->
<g id="node41" class="node"><title>Node41</title>
<g id="a_node41"><a xlink:href="../../dc/d9e/classapplication_1_1_parser.html" target="_top" xlink:title="application.Parser">
<polygon fill="white" stroke="black" points="834.5,-498.5 834.5,-517.5 935.5,-517.5 935.5,-498.5 834.5,-498.5"/>
<text text-anchor="middle" x="885" y="-505.5" font-family="Helvetica,sans-Serif" font-size="10.00">application.Parser</text>
</a>
</g>
</g>
<!-- Node37&#45;&gt;Node41 -->
<g id="edge62" class="edge"><title>Node37&#45;&gt;Node41</title>
<path fill="none" stroke="#9a32cd" stroke-dasharray="5,2" d="M672.723,-463.842C710.764,-460.955 760.83,-460.268 804,-470 828.15,-475.444 853.565,-489.07 869.103,-498.434"/>
<polygon fill="#9a32cd" stroke="#9a32cd" points="672.003,-460.389 662.329,-464.708 672.585,-467.365 672.003,-460.389"/>
<text text-anchor="middle" x="751" y="-473" font-family="Helvetica,sans-Serif" font-size="10.00"> myModel</text>
</g>
<!-- Node38 -->
<g id="node38" class="node"><title>Node38</title>
<polygon fill="white" stroke="#bfbfbf" points="296,-476.5 296,-495.5 356,-495.5 356,-476.5 296,-476.5"/>
<text text-anchor="middle" x="326" y="-483.5" font-family="Helvetica,sans-Serif" font-size="10.00">Observer</text>
</g>
<!-- Node38&#45;&gt;Node37 -->
<g id="edge51" class="edge"><title>Node38&#45;&gt;Node37</title>
<path fill="none" stroke="midnightblue" d="M366.347,-483.922C417.386,-481.226 506.429,-476.523 561.857,-473.596"/>
<polygon fill="midnightblue" stroke="midnightblue" points="365.86,-480.443 356.058,-484.465 366.229,-487.433 365.86,-480.443"/>
</g>
<!-- Node39 -->
<g id="node39" class="node"><title>Node39</title>
<polygon fill="white" stroke="#bfbfbf" points="248.5,-427 248.5,-457 403.5,-457 403.5,-427 248.5,-427"/>
<text text-anchor="start" x="256.5" y="-445" font-family="Helvetica,sans-Serif" font-size="10.00">Map&lt; String, tree.Command</text>
<text text-anchor="middle" x="326" y="-434" font-family="Helvetica,sans-Serif" font-size="10.00">Node &gt;</text>
</g>
<!-- Node39&#45;&gt;Node37 -->
<g id="edge54" class="edge"><title>Node39&#45;&gt;Node37</title>
<path fill="none" stroke="#9a32cd" stroke-dasharray="5,2" d="M414.045,-441.697C448.987,-442.563 489.546,-444.819 526,-450 543.758,-452.524 563.205,-457.183 579.011,-461.473"/>
<polygon fill="#9a32cd" stroke="#9a32cd" points="413.943,-438.194 403.871,-441.479 413.794,-445.192 413.943,-438.194"/>
<text text-anchor="middle" x="474" y="-464" font-family="Helvetica,sans-Serif" font-size="10.00"> myCommandHistory</text>
<text text-anchor="middle" x="474" y="-453" font-family="Helvetica,sans-Serif" font-size="10.00">myUserCommands</text>
</g>
<!-- Node40 -->
<g id="node40" class="node"><title>Node40</title>
<polygon fill="white" stroke="#bfbfbf" points="262,-583.5 262,-602.5 390,-602.5 390,-583.5 262,-583.5"/>
<text text-anchor="middle" x="326" y="-590.5" font-family="Helvetica,sans-Serif" font-size="10.00">Map&lt; String, Double &gt;</text>
</g>
<!-- Node40&#45;&gt;Node37 -->
<g id="edge58" class="edge"><title>Node40&#45;&gt;Node37</title>
<path fill="none" stroke="#9a32cd" stroke-dasharray="5,2" d="M368.864,-580.523C385.363,-575.758 404.516,-570.414 422,-566 467.899,-554.413 488.159,-571.443 526,-543 539.355,-532.962 532.352,-521.976 544,-510 556.387,-497.264 573.813,-487.293 587.788,-480.622"/>
<polygon fill="#9a32cd" stroke="#9a32cd" points="367.597,-577.247 358.973,-583.402 369.553,-583.968 367.597,-577.247"/>
<text text-anchor="middle" x="474" y="-569" font-family="Helvetica,sans-Serif" font-size="10.00"> variableMap</text>
</g>
<!-- Node41&#45;&gt;Node37 -->
<g id="edge59" class="edge"><title>Node41&#45;&gt;Node37</title>
<path fill="none" stroke="#9a32cd" stroke-dasharray="5,2" d="M824.27,-500.074C787.787,-495.208 740.19,-488.813 698,-483 686.484,-481.413 674.095,-479.679 662.434,-478.035"/>
<polygon fill="#9a32cd" stroke="#9a32cd" points="823.877,-503.553 834.252,-501.405 824.802,-496.614 823.877,-503.553"/>
<text text-anchor="middle" x="751" y="-501" font-family="Helvetica,sans-Serif" font-size="10.00"> myParser</text>
</g>
<!-- Node42 -->
<g id="node42" class="node"><title>Node42</title>
<polygon fill="white" stroke="#bfbfbf" points="544.5,-558 544.5,-588 679.5,-588 679.5,-558 544.5,-558"/>
<text text-anchor="start" x="552.5" y="-576" font-family="Helvetica,sans-Serif" font-size="10.00">List&lt; Map.Entry&lt; String,</text>
<text text-anchor="middle" x="612" y="-565" font-family="Helvetica,sans-Serif" font-size="10.00"> Pattern &gt; &gt;</text>
</g>
<!-- Node42&#45;&gt;Node41 -->
<g id="edge60" class="edge"><title>Node42&#45;&gt;Node41</title>
<path fill="none" stroke="#9a32cd" stroke-dasharray="5,2" d="M689.826,-563.478C725.009,-558.163 767.015,-550.467 804,-540 815.155,-536.843 842.129,-525.778 861.678,-517.538"/>
<polygon fill="#9a32cd" stroke="#9a32cd" points="689.001,-560.061 679.618,-564.982 690.022,-566.987 689.001,-560.061"/>
<text text-anchor="middle" x="751" y="-576" font-family="Helvetica,sans-Serif" font-size="10.00"> mySyntaxPatterns</text>
<text text-anchor="middle" x="751" y="-565" font-family="Helvetica,sans-Serif" font-size="10.00">myCommandPatterns</text>
</g>
<!-- Node43 -->
<g id="node43" class="node"><title>Node43</title>
<g id="a_node43"><a xlink:href="../../d5/d4b/classtree_1_1_tree_builder.html" target="_top" xlink:title="tree.TreeBuilder">
<polygon fill="white" stroke="black" points="566,-519.5 566,-538.5 658,-538.5 658,-519.5 566,-519.5"/>
<text text-anchor="middle" x="612" y="-526.5" font-family="Helvetica,sans-Serif" font-size="10.00">tree.TreeBuilder</text>
</a>
</g>
</g>
<!-- Node43&#45;&gt;Node41 -->
<g id="edge61" class="edge"><title>Node43&#45;&gt;Node41</title>
<path fill="none" stroke="#9a32cd" stroke-dasharray="5,2" d="M668.578,-526.233C706.717,-524.156 758.468,-520.989 804,-517 813.746,-516.146 824.144,-515.086 834.108,-513.997"/>
<polygon fill="#9a32cd" stroke="#9a32cd" points="667.997,-522.759 658.199,-526.789 668.372,-529.749 667.997,-522.759"/>
<text text-anchor="middle" x="751" y="-528" font-family="Helvetica,sans-Serif" font-size="10.00"> myTreeBuilder</text>
</g>
</g>
</svg>
