<?xml version="1.0" encoding="UTF-8" standalone="no"?>
<!DOCTYPE svg PUBLIC "-//W3C//DTD SVG 1.1//EN"
 "http://www.w3.org/Graphics/SVG/1.1/DTD/svg11.dtd">
<!-- Generated by graphviz version 2.36.0 (20140111.2315)
 -->
<!-- Title: view.PreviousCommands.getTextArea Pages: 1 -->
<!--zoomable 53 -->
<svg id="main" version="1.1" xmlns="http://www.w3.org/2000/svg" xmlns:xlink="http://www.w3.org/1999/xlink" xml:space="preserve" onload="init(evt)">
<style type="text/css"><![CDATA[
.edge:hover path { stroke: red; }
.edge:hover polygon { stroke: red; fill: red; }
]]></style>
<script type="text/javascript"><![CDATA[
var edges = document.getElementsByTagName('g');
if (edges && edges.length) {
  for (var i=0;i<edges.length;i++) {
    if (edges[i].id.substr(0,4)=='edge') {
      edges[i].setAttribute('class','edge');
    }
  }
}
]]></script>
        <defs>
                <circle id="rim" cx="0" cy="0" r="7"/>
                <circle id="rim2" cx="0" cy="0" r="3.5"/>
                <g id="zoomPlus">
                        <use xlink:href="#rim" fill="#404040">
                                <set attributeName="fill" to="#808080" begin="zoomplus.mouseover" end="zoomplus.mouseout"/>
                        </use>
                        <path d="M-4,0h8M0,-4v8" fill="none" stroke="white" stroke-width="1.5" pointer-events="none"/>
                </g>
                <g id="zoomMin">
                        <use xlink:href="#rim" fill="#404040">
                                <set attributeName="fill" to="#808080" begin="zoomminus.mouseover" end="zoomminus.mouseout"/>
                        </use>
                        <path d="M-4,0h8" fill="none" stroke="white" stroke-width="1.5" pointer-events="none"/>
                </g>
                <g id="dirArrow">
                        <path fill="none" stroke="white" stroke-width="1.5" d="M0,-3.0v7 M-2.5,-0.5L0,-3.0L2.5,-0.5"/>
                </g>
               <g id="resetDef">
                       <use xlink:href="#rim2" fill="#404040">
                               <set attributeName="fill" to="#808080" begin="reset.mouseover" end="reset.mouseout"/>
                       </use>
               </g>
        </defs>

<script type="text/javascript">
var viewWidth = 1008;
var viewHeight = 53;
var sectionId = 'dynsection-1';
</script>
<script xlink:href="../../svgpan.js"/>
<svg id="graph" class="graph">
<g id="viewport">
<title>view.PreviousCommands.getTextArea</title>
<polygon fill="white" stroke="none" points="-4,4 -4,-49 1004,-49 1004,4 -4,4"/>
<!-- Node1 -->
<g id="node1" class="node"><title>Node1</title>
<polygon fill="#bfbfbf" stroke="black" points="0,-1 0,-31 154,-31 154,-1 0,-1"/>
<text text-anchor="start" x="8" y="-19" font-family="Helvetica,sans-Serif" font-size="10.00">view.PreviousCommands.get</text>
<text text-anchor="middle" x="77" y="-8" font-family="Helvetica,sans-Serif" font-size="10.00">TextArea</text>
</g>
<!-- Node2 -->
<g id="node2" class="node"><title>Node2</title>
<g id="a_node2"><a xlink:href="../../d3/dfc/classview_1_1_enter_commands.html#accac5331932cfb53b59d1ba5b2027184" target="_top" xlink:title="view.EnterCommands.getHistory">
<polygon fill="white" stroke="black" points="190.5,-25.5 190.5,-44.5 363.5,-44.5 363.5,-25.5 190.5,-25.5"/>
<text text-anchor="middle" x="277" y="-32.5" font-family="Helvetica,sans-Serif" font-size="10.00">view.EnterCommands.getHistory</text>
</a>
</g>
</g>
<!-- Node1&#45;&gt;Node2 -->
<g id="edge1" class="edge"><title>Node1&#45;&gt;Node2</title>
<path fill="none" stroke="midnightblue" d="M164.287,-24.2801C172.886,-25.1053 181.615,-25.9429 190.209,-26.7676"/>
<polygon fill="midnightblue" stroke="midnightblue" points="164.557,-20.79 154.269,-23.3187 163.889,-27.758 164.557,-20.79"/>
</g>
<!-- Node4 -->
<g id="node4" class="node"><title>Node4</title>
<g id="a_node4"><a xlink:href="../../d3/dbe/classview_1_1_view.html#aef3f2dd859a6a5c719987365a9afb905" target="_top" xlink:title="view.View.start">
<polygon fill="white" stroke="black" points="582,-6.5 582,-25.5 668,-25.5 668,-6.5 582,-6.5"/>
<text text-anchor="middle" x="625" y="-13.5" font-family="Helvetica,sans-Serif" font-size="10.00">view.View.start</text>
</a>
</g>
</g>
<!-- Node1&#45;&gt;Node4 -->
<g id="edge6" class="edge"><title>Node1&#45;&gt;Node4</title>
<path fill="none" stroke="midnightblue" d="M164.364,-16C283.232,-16 492.66,-16 581.859,-16"/>
<polygon fill="midnightblue" stroke="midnightblue" points="164.206,-12.5001 154.206,-16 164.206,-19.5001 164.206,-12.5001"/>
</g>
<!-- Node3 -->
<g id="node3" class="node"><title>Node3</title>
<g id="a_node3"><a xlink:href="../../d8/da5/classview_1_1_create_design.html#a4552eff83910a3510b98f123945ce0da" target="_top" xlink:title="view.CreateDesign.saveFile">
<polygon fill="white" stroke="black" points="400.5,-25.5 400.5,-44.5 545.5,-44.5 545.5,-25.5 400.5,-25.5"/>
<text text-anchor="middle" x="473" y="-32.5" font-family="Helvetica,sans-Serif" font-size="10.00">view.CreateDesign.saveFile</text>
</a>
</g>
</g>
<!-- Node2&#45;&gt;Node3 -->
<g id="edge2" class="edge"><title>Node2&#45;&gt;Node3</title>
<path fill="none" stroke="midnightblue" d="M373.77,-35C382.748,-35 391.739,-35 400.438,-35"/>
<polygon fill="midnightblue" stroke="midnightblue" points="373.656,-31.5001 363.656,-35 373.656,-38.5001 373.656,-31.5001"/>
</g>
<!-- Node3&#45;&gt;Node4 -->
<g id="edge3" class="edge"><title>Node3&#45;&gt;Node4</title>
<path fill="none" stroke="midnightblue" d="M556.037,-24.6086C564.968,-23.4774 573.765,-22.3632 581.914,-21.3309"/>
<polygon fill="midnightblue" stroke="midnightblue" points="555.405,-21.1606 545.925,-25.8896 556.285,-28.1051 555.405,-21.1606"/>
</g>
<!-- Node5 -->
<g id="node5" class="node"><title>Node5</title>
<g id="a_node5"><a xlink:href="../../d4/d9d/classapplication_1_1_wrapper.html#a4be5486a54f6d10d816c3ff49e82ecb9" target="_top" xlink:title="application.Wrapper.make\lNewWindow">
<polygon fill="white" stroke="black" points="704,-1 704,-31 844,-31 844,-1 704,-1"/>
<text text-anchor="start" x="712" y="-19" font-family="Helvetica,sans-Serif" font-size="10.00">application.Wrapper.make</text>
<text text-anchor="middle" x="774" y="-8" font-family="Helvetica,sans-Serif" font-size="10.00">NewWindow</text>
</a>
</g>
</g>
<!-- Node4&#45;&gt;Node5 -->
<g id="edge4" class="edge"><title>Node4&#45;&gt;Node5</title>
<path fill="none" stroke="midnightblue" d="M678.379,-16C686.668,-16 695.349,-16 703.949,-16"/>
<polygon fill="midnightblue" stroke="midnightblue" points="678.124,-12.5001 668.124,-16 678.124,-19.5001 678.124,-12.5001"/>
</g>
<!-- Node6 -->
<g id="node6" class="node"><title>Node6</title>
<g id="a_node6"><a xlink:href="../../d9/d96/classapplication_1_1_main.html#a4e5ad4e3de8bbd8654120180a94e870d" target="_top" xlink:title="application.Main.start">
<polygon fill="white" stroke="black" points="880.5,-6.5 880.5,-25.5 999.5,-25.5 999.5,-6.5 880.5,-6.5"/>
<text text-anchor="middle" x="940" y="-13.5" font-family="Helvetica,sans-Serif" font-size="10.00">application.Main.start</text>
</a>
</g>
</g>
<!-- Node5&#45;&gt;Node6 -->
<g id="edge5" class="edge"><title>Node5&#45;&gt;Node6</title>
<path fill="none" stroke="midnightblue" d="M854.335,-16C863.112,-16 871.929,-16 880.384,-16"/>
<polygon fill="midnightblue" stroke="midnightblue" points="854.075,-12.5001 844.075,-16 854.075,-19.5001 854.075,-12.5001"/>
</g>
</g>
</svg>
        <g id="navigator" transform="translate(0 0)" fill="#404254">
                <rect fill="#f2f5e9" fill-opacity="0.5" stroke="#606060" stroke-width=".5" x="0" y="0" width="60" height="60"/>
                <use id="zoomplus" xlink:href="#zoomPlus" x="17" y="9" onmousedown="handleZoom(evt,'in')"/>
                <use id="zoomminus" xlink:href="#zoomMin" x="42" y="9" onmousedown="handleZoom(evt,'out')"/>
                <use id="reset" xlink:href="#resetDef" x="30" y="36" onmousedown="handleReset()"/>
                <g id="arrowUp" xlink:href="#dirArrow" transform="translate(30 24)" onmousedown="handlePan(0,-1)">
                  <use xlink:href="#rim" fill="#404040">
                        <set attributeName="fill" to="#808080" begin="arrowUp.mouseover" end="arrowUp.mouseout"/>
                  </use>
                  <path fill="none" stroke="white" stroke-width="1.5" d="M0,-3.0v7 M-2.5,-0.5L0,-3.0L2.5,-0.5"/>
                </g>
                <g id="arrowRight" xlink:href="#dirArrow" transform="rotate(90) translate(36 -43)" onmousedown="handlePan(1,0)">
                  <use xlink:href="#rim" fill="#404040">
                        <set attributeName="fill" to="#808080" begin="arrowRight.mouseover" end="arrowRight.mouseout"/>
                  </use>
                  <path fill="none" stroke="white" stroke-width="1.5" d="M0,-3.0v7 M-2.5,-0.5L0,-3.0L2.5,-0.5"/>
                </g>
                <g id="arrowDown" xlink:href="#dirArrow" transform="rotate(180) translate(-30 -48)" onmousedown="handlePan(0,1)">
                  <use xlink:href="#rim" fill="#404040">
                        <set attributeName="fill" to="#808080" begin="arrowDown.mouseover" end="arrowDown.mouseout"/>
                  </use>
                  <path fill="none" stroke="white" stroke-width="1.5" d="M0,-3.0v7 M-2.5,-0.5L0,-3.0L2.5,-0.5"/>
                </g>
                <g id="arrowLeft" xlink:href="#dirArrow" transform="rotate(270) translate(-36 17)" onmousedown="handlePan(-1,0)">
                  <use xlink:href="#rim" fill="#404040">
                        <set attributeName="fill" to="#808080" begin="arrowLeft.mouseover" end="arrowLeft.mouseout"/>
                  </use>
                  <path fill="none" stroke="white" stroke-width="1.5" d="M0,-3.0v7 M-2.5,-0.5L0,-3.0L2.5,-0.5"/>
                </g>
        </g>
        <svg viewBox="0 0 15 15" width="100%" height="30px" preserveAspectRatio="xMaxYMin meet">
         <g id="arrow_out" transform="scale(0.3 0.3)">
          <a xlink:href="classview_1_1_previous_commands_ac81954fc7397e066d454cfd63fc9e2e0_icgraph_org.svg" target="_base">
           <rect id="button" ry="5" rx="5" y="6" x="6" height="38" width="38"
                fill="#f2f5e9" fill-opacity="0.5" stroke="#606060" stroke-width="1.0"/>
           <path id="arrow"
             d="M 11.500037,31.436501 C 11.940474,20.09759 22.043105,11.32322 32.158766,21.979434 L 37.068811,17.246167 C 37.068811,17.246167 37.088388,32 37.088388,32 L 22.160133,31.978069 C 22.160133,31.978069 26.997745,27.140456 26.997745,27.140456 C 18.528582,18.264221 13.291696,25.230495 11.500037,31.436501 z"
             style="fill:#404040;"/>
          </a>
         </g>
        </svg>
</svg>
