<?xml version="1.0" encoding="UTF-8" standalone="no"?>
<!DOCTYPE svg PUBLIC "-//W3C//DTD SVG 1.1//EN"
 "http://www.w3.org/Graphics/SVG/1.1/DTD/svg11.dtd">
<!-- Generated by graphviz version 2.36.0 (20140111.2315)
 -->
<!-- Title: view.PreviousCommands.getTextArea Pages: 1 -->
<svg width="1008pt" height="53pt"
 viewBox="0.00 0.00 1008.00 53.00" xmlns="http://www.w3.org/2000/svg" xmlns:xlink="http://www.w3.org/1999/xlink">
<g id="graph0" class="graph" transform="scale(1 1) rotate(0) translate(4 49)">
<title>view.PreviousCommands.getTextArea</title>
<polygon fill="white" stroke="none" points="-4,4 -4,-49 1004,-49 1004,4 -4,4"/>
<!-- Node1 -->
<g id="node1" class="node"><title>Node1</title>
<polygon fill="#bfbfbf" stroke="black" points="0,-1 0,-31 154,-31 154,-1 0,-1"/>
<text text-anchor="start" x="8" y="-19" font-family="Helvetica,sans-Serif" font-size="10.00">view.PreviousCommands.get</text>
<text text-anchor="middle" x="77" y="-8" font-family="Helvetica,sans-Serif" font-size="10.00">TextArea</text>
</g>
<!-- Node2 -->
<g id="node2" class="node"><title>Node2</title>
<g id="a_node2"><a xlink:href="../../d3/dfc/classview_1_1_enter_commands.html#accac5331932cfb53b59d1ba5b2027184" target="_top" xlink:title="view.EnterCommands.getHistory">
<polygon fill="white" stroke="black" points="190.5,-25.5 190.5,-44.5 363.5,-44.5 363.5,-25.5 190.5,-25.5"/>
<text text-anchor="middle" x="277" y="-32.5" font-family="Helvetica,sans-Serif" font-size="10.00">view.EnterCommands.getHistory</text>
</a>
</g>
</g>
<!-- Node1&#45;&gt;Node2 -->
<g id="edge1" class="edge"><title>Node1&#45;&gt;Node2</title>
<path fill="none" stroke="midnightblue" d="M164.287,-24.2801C172.886,-25.1053 181.615,-25.9429 190.209,-26.7676"/>
<polygon fill="midnightblue" stroke="midnightblue" points="164.557,-20.79 154.269,-23.3187 163.889,-27.758 164.557,-20.79"/>
</g>
<!-- Node4 -->
<g id="node4" class="node"><title>Node4</title>
<g id="a_node4"><a xlink:href="../../d3/dbe/classview_1_1_view.html#aef3f2dd859a6a5c719987365a9afb905" target="_top" xlink:title="view.View.start">
<polygon fill="white" stroke="black" points="582,-6.5 582,-25.5 668,-25.5 668,-6.5 582,-6.5"/>
<text text-anchor="middle" x="625" y="-13.5" font-family="Helvetica,sans-Serif" font-size="10.00">view.View.start</text>
</a>
</g>
</g>
<!-- Node1&#45;&gt;Node4 -->
<g id="edge6" class="edge"><title>Node1&#45;&gt;Node4</title>
<path fill="none" stroke="midnightblue" d="M164.364,-16C283.232,-16 492.66,-16 581.859,-16"/>
<polygon fill="midnightblue" stroke="midnightblue" points="164.206,-12.5001 154.206,-16 164.206,-19.5001 164.206,-12.5001"/>
</g>
<!-- Node3 -->
<g id="node3" class="node"><title>Node3</title>
<g id="a_node3"><a xlink:href="../../d8/da5/classview_1_1_create_design.html#a4552eff83910a3510b98f123945ce0da" target="_top" xlink:title="view.CreateDesign.saveFile">
<polygon fill="white" stroke="black" points="400.5,-25.5 400.5,-44.5 545.5,-44.5 545.5,-25.5 400.5,-25.5"/>
<text text-anchor="middle" x="473" y="-32.5" font-family="Helvetica,sans-Serif" font-size="10.00">view.CreateDesign.saveFile</text>
</a>
</g>
</g>
<!-- Node2&#45;&gt;Node3 -->
<g id="edge2" class="edge"><title>Node2&#45;&gt;Node3</title>
<path fill="none" stroke="midnightblue" d="M373.77,-35C382.748,-35 391.739,-35 400.438,-35"/>
<polygon fill="midnightblue" stroke="midnightblue" points="373.656,-31.5001 363.656,-35 373.656,-38.5001 373.656,-31.5001"/>
</g>
<!-- Node3&#45;&gt;Node4 -->
<g id="edge3" class="edge"><title>Node3&#45;&gt;Node4</title>
<path fill="none" stroke="midnightblue" d="M556.037,-24.6086C564.968,-23.4774 573.765,-22.3632 581.914,-21.3309"/>
<polygon fill="midnightblue" stroke="midnightblue" points="555.405,-21.1606 545.925,-25.8896 556.285,-28.1051 555.405,-21.1606"/>
</g>
<!-- Node5 -->
<g id="node5" class="node"><title>Node5</title>
<g id="a_node5"><a xlink:href="../../d4/d9d/classapplication_1_1_wrapper.html#a4be5486a54f6d10d816c3ff49e82ecb9" target="_top" xlink:title="application.Wrapper.make\lNewWindow">
<polygon fill="white" stroke="black" points="704,-1 704,-31 844,-31 844,-1 704,-1"/>
<text text-anchor="start" x="712" y="-19" font-family="Helvetica,sans-Serif" font-size="10.00">application.Wrapper.make</text>
<text text-anchor="middle" x="774" y="-8" font-family="Helvetica,sans-Serif" font-size="10.00">NewWindow</text>
</a>
</g>
</g>
<!-- Node4&#45;&gt;Node5 -->
<g id="edge4" class="edge"><title>Node4&#45;&gt;Node5</title>
<path fill="none" stroke="midnightblue" d="M678.379,-16C686.668,-16 695.349,-16 703.949,-16"/>
<polygon fill="midnightblue" stroke="midnightblue" points="678.124,-12.5001 668.124,-16 678.124,-19.5001 678.124,-12.5001"/>
</g>
<!-- Node6 -->
<g id="node6" class="node"><title>Node6</title>
<g id="a_node6"><a xlink:href="../../d9/d96/classapplication_1_1_main.html#a4e5ad4e3de8bbd8654120180a94e870d" target="_top" xlink:title="application.Main.start">
<polygon fill="white" stroke="black" points="880.5,-6.5 880.5,-25.5 999.5,-25.5 999.5,-6.5 880.5,-6.5"/>
<text text-anchor="middle" x="940" y="-13.5" font-family="Helvetica,sans-Serif" font-size="10.00">application.Main.start</text>
</a>
</g>
</g>
<!-- Node5&#45;&gt;Node6 -->
<g id="edge5" class="edge"><title>Node5&#45;&gt;Node6</title>
<path fill="none" stroke="midnightblue" d="M854.335,-16C863.112,-16 871.929,-16 880.384,-16"/>
<polygon fill="midnightblue" stroke="midnightblue" points="854.075,-12.5001 844.075,-16 854.075,-19.5001 854.075,-12.5001"/>
</g>
</g>
</svg>
