<?xml version="1.0" encoding="UTF-8" standalone="no"?>
<!DOCTYPE svg PUBLIC "-//W3C//DTD SVG 1.1//EN"
 "http://www.w3.org/Graphics/SVG/1.1/DTD/svg11.dtd">
<!-- Generated by graphviz version 2.36.0 (20140111.2315)
 -->
<!-- Title: view.PreviousCommands.makeBox Pages: 1 -->
<svg width="646pt" height="38pt"
 viewBox="0.00 0.00 646.00 38.00" xmlns="http://www.w3.org/2000/svg" xmlns:xlink="http://www.w3.org/1999/xlink">
<g id="graph0" class="graph" transform="scale(1 1) rotate(0) translate(4 34)">
<title>view.PreviousCommands.makeBox</title>
<polygon fill="white" stroke="none" points="-4,4 -4,-34 642,-34 642,4 -4,4"/>
<!-- Node1 -->
<g id="node1" class="node"><title>Node1</title>
<polygon fill="#bfbfbf" stroke="black" points="0.5,-5.5 0.5,-24.5 183.5,-24.5 183.5,-5.5 0.5,-5.5"/>
<text text-anchor="middle" x="92" y="-12.5" font-family="Helvetica,sans-Serif" font-size="10.00">view.PreviousCommands.makeBox</text>
</g>
<!-- Node2 -->
<g id="node2" class="node"><title>Node2</title>
<g id="a_node2"><a xlink:href="../../d3/dbe/classview_1_1_view.html#aef3f2dd859a6a5c719987365a9afb905" target="_top" xlink:title="view.View.start">
<polygon fill="white" stroke="black" points="220,-5.5 220,-24.5 306,-24.5 306,-5.5 220,-5.5"/>
<text text-anchor="middle" x="263" y="-12.5" font-family="Helvetica,sans-Serif" font-size="10.00">view.View.start</text>
</a>
</g>
</g>
<!-- Node1&#45;&gt;Node2 -->
<g id="edge1" class="edge"><title>Node1&#45;&gt;Node2</title>
<path fill="none" stroke="midnightblue" d="M194.12,-15C203.068,-15 211.756,-15 219.763,-15"/>
<polygon fill="midnightblue" stroke="midnightblue" points="193.931,-11.5001 183.931,-15 193.931,-18.5001 193.931,-11.5001"/>
</g>
<!-- Node3 -->
<g id="node3" class="node"><title>Node3</title>
<g id="a_node3"><a xlink:href="../../d4/d9d/classapplication_1_1_wrapper.html#a4be5486a54f6d10d816c3ff49e82ecb9" target="_top" xlink:title="application.Wrapper.make\lNewWindow">
<polygon fill="white" stroke="black" points="342,-0 342,-30 482,-30 482,-0 342,-0"/>
<text text-anchor="start" x="350" y="-18" font-family="Helvetica,sans-Serif" font-size="10.00">application.Wrapper.make</text>
<text text-anchor="middle" x="412" y="-7" font-family="Helvetica,sans-Serif" font-size="10.00">NewWindow</text>
</a>
</g>
</g>
<!-- Node2&#45;&gt;Node3 -->
<g id="edge2" class="edge"><title>Node2&#45;&gt;Node3</title>
<path fill="none" stroke="midnightblue" d="M316.379,-15C324.668,-15 333.349,-15 341.949,-15"/>
<polygon fill="midnightblue" stroke="midnightblue" points="316.124,-11.5001 306.124,-15 316.124,-18.5001 316.124,-11.5001"/>
</g>
<!-- Node4 -->
<g id="node4" class="node"><title>Node4</title>
<g id="a_node4"><a xlink:href="../../d9/d96/classapplication_1_1_main.html#a4e5ad4e3de8bbd8654120180a94e870d" target="_top" xlink:title="application.Main.start">
<polygon fill="white" stroke="black" points="518.5,-5.5 518.5,-24.5 637.5,-24.5 637.5,-5.5 518.5,-5.5"/>
<text text-anchor="middle" x="578" y="-12.5" font-family="Helvetica,sans-Serif" font-size="10.00">application.Main.start</text>
</a>
</g>
</g>
<!-- Node3&#45;&gt;Node4 -->
<g id="edge3" class="edge"><title>Node3&#45;&gt;Node4</title>
<path fill="none" stroke="midnightblue" d="M492.335,-15C501.112,-15 509.929,-15 518.384,-15"/>
<polygon fill="midnightblue" stroke="midnightblue" points="492.075,-11.5001 482.075,-15 492.075,-18.5001 492.075,-11.5001"/>
</g>
</g>
</svg>
