<?xml version="1.0" encoding="UTF-8" standalone="no"?>
<!DOCTYPE svg PUBLIC "-//W3C//DTD SVG 1.1//EN"
 "http://www.w3.org/Graphics/SVG/1.1/DTD/svg11.dtd">
<!-- Generated by graphviz version 2.36.0 (20140111.2315)
 -->
<!-- Title: view.PreviousCommands.makeBox Pages: 1 -->
<svg width="564pt" height="38pt"
 viewBox="0.00 0.00 564.00 38.00" xmlns="http://www.w3.org/2000/svg" xmlns:xlink="http://www.w3.org/1999/xlink">
<g id="graph0" class="graph" transform="scale(1 1) rotate(0) translate(4 34)">
<title>view.PreviousCommands.makeBox</title>
<polygon fill="white" stroke="none" points="-4,4 -4,-34 560,-34 560,4 -4,4"/>
<!-- Node1 -->
<g id="node1" class="node"><title>Node1</title>
<polygon fill="#bfbfbf" stroke="black" points="0.5,-5.5 0.5,-24.5 183.5,-24.5 183.5,-5.5 0.5,-5.5"/>
<text text-anchor="middle" x="92" y="-12.5" font-family="Helvetica,sans-Serif" font-size="10.00">view.PreviousCommands.makeBox</text>
</g>
<!-- Node2 -->
<g id="node2" class="node"><title>Node2</title>
<g id="a_node2"><a xlink:href="../../d3/dfc/classview_1_1_enter_commands.html#a77e6f93d9ab56679c8a32220d1d7f7c1" target="_top" xlink:title="view.EnterCommands.clear\lHistory">
<polygon fill="white" stroke="black" points="220,-0 220,-30 366,-30 366,-0 220,-0"/>
<text text-anchor="start" x="228" y="-18" font-family="Helvetica,sans-Serif" font-size="10.00">view.EnterCommands.clear</text>
<text text-anchor="middle" x="293" y="-7" font-family="Helvetica,sans-Serif" font-size="10.00">History</text>
</a>
</g>
</g>
<!-- Node1&#45;&gt;Node2 -->
<g id="edge1" class="edge"><title>Node1&#45;&gt;Node2</title>
<path fill="none" stroke="midnightblue" d="M183.765,-15C192.459,-15 201.242,-15 209.847,-15"/>
<polygon fill="midnightblue" stroke="midnightblue" points="209.851,-18.5001 219.851,-15 209.851,-11.5001 209.851,-18.5001"/>
</g>
<!-- Node3 -->
<g id="node3" class="node"><title>Node3</title>
<g id="a_node3"><a xlink:href="../../d2/d22/classview_1_1_previous_commands.html#ac81954fc7397e066d454cfd63fc9e2e0" target="_top" xlink:title="view.PreviousCommands.get\lTextArea">
<polygon fill="white" stroke="black" points="402,-0 402,-30 556,-30 556,-0 402,-0"/>
<text text-anchor="start" x="410" y="-18" font-family="Helvetica,sans-Serif" font-size="10.00">view.PreviousCommands.get</text>
<text text-anchor="middle" x="479" y="-7" font-family="Helvetica,sans-Serif" font-size="10.00">TextArea</text>
</a>
</g>
</g>
<!-- Node2&#45;&gt;Node3 -->
<g id="edge2" class="edge"><title>Node2&#45;&gt;Node3</title>
<path fill="none" stroke="midnightblue" d="M366.194,-15C374.497,-15 383.026,-15 391.492,-15"/>
<polygon fill="midnightblue" stroke="midnightblue" points="391.77,-18.5001 401.77,-15 391.77,-11.5001 391.77,-18.5001"/>
</g>
</g>
</svg>
