<?xml version="1.0" encoding="UTF-8" standalone="no"?>
<!DOCTYPE svg PUBLIC "-//W3C//DTD SVG 1.1//EN"
 "http://www.w3.org/Graphics/SVG/1.1/DTD/svg11.dtd">
<!-- Generated by graphviz version 2.36.0 (20140111.2315)
 -->
<!-- Title: view.PreviousCommands.getTextArea Pages: 1 -->
<svg width="1018pt" height="38pt"
 viewBox="0.00 0.00 1018.00 38.00" xmlns="http://www.w3.org/2000/svg" xmlns:xlink="http://www.w3.org/1999/xlink">
<g id="graph0" class="graph" transform="scale(1 1) rotate(0) translate(4 34)">
<title>view.PreviousCommands.getTextArea</title>
<polygon fill="white" stroke="none" points="-4,4 -4,-34 1014,-34 1014,4 -4,4"/>
<!-- Node1 -->
<g id="node1" class="node"><title>Node1</title>
<polygon fill="#bfbfbf" stroke="black" points="0,-0 0,-30 154,-30 154,-0 0,-0"/>
<text text-anchor="start" x="8" y="-18" font-family="Helvetica,sans-Serif" font-size="10.00">view.PreviousCommands.get</text>
<text text-anchor="middle" x="77" y="-7" font-family="Helvetica,sans-Serif" font-size="10.00">TextArea</text>
</g>
<!-- Node2 -->
<g id="node2" class="node"><title>Node2</title>
<g id="a_node2"><a xlink:href="../../d3/dfc/classview_1_1_enter_commands.html#a77e6f93d9ab56679c8a32220d1d7f7c1" target="_top" xlink:title="view.EnterCommands.clear\lHistory">
<polygon fill="white" stroke="black" points="190,-0 190,-30 336,-30 336,-0 190,-0"/>
<text text-anchor="start" x="198" y="-18" font-family="Helvetica,sans-Serif" font-size="10.00">view.EnterCommands.clear</text>
<text text-anchor="middle" x="263" y="-7" font-family="Helvetica,sans-Serif" font-size="10.00">History</text>
</a>
</g>
</g>
<!-- Node1&#45;&gt;Node2 -->
<g id="edge1" class="edge"><title>Node1&#45;&gt;Node2</title>
<path fill="none" stroke="midnightblue" d="M164.441,-15C172.904,-15 181.43,-15 189.731,-15"/>
<polygon fill="midnightblue" stroke="midnightblue" points="164.168,-11.5001 154.168,-15 164.168,-18.5001 164.168,-11.5001"/>
</g>
<!-- Node3 -->
<g id="node3" class="node"><title>Node3</title>
<g id="a_node3"><a xlink:href="../../d2/d22/classview_1_1_previous_commands.html#a472f2472ea7abd1ccb32bf2a618da248" target="_top" xlink:title="view.PreviousCommands.makeBox">
<polygon fill="white" stroke="black" points="372.5,-5.5 372.5,-24.5 555.5,-24.5 555.5,-5.5 372.5,-5.5"/>
<text text-anchor="middle" x="464" y="-12.5" font-family="Helvetica,sans-Serif" font-size="10.00">view.PreviousCommands.makeBox</text>
</a>
</g>
</g>
<!-- Node2&#45;&gt;Node3 -->
<g id="edge2" class="edge"><title>Node2&#45;&gt;Node3</title>
<path fill="none" stroke="midnightblue" d="M346.189,-15C354.846,-15 363.684,-15 372.429,-15"/>
<polygon fill="midnightblue" stroke="midnightblue" points="346.125,-11.5001 336.125,-15 346.125,-18.5001 346.125,-11.5001"/>
</g>
<!-- Node4 -->
<g id="node4" class="node"><title>Node4</title>
<g id="a_node4"><a xlink:href="../../d3/dbe/classview_1_1_view.html#aef3f2dd859a6a5c719987365a9afb905" target="_top" xlink:title="view.View.start">
<polygon fill="white" stroke="black" points="592,-5.5 592,-24.5 678,-24.5 678,-5.5 592,-5.5"/>
<text text-anchor="middle" x="635" y="-12.5" font-family="Helvetica,sans-Serif" font-size="10.00">view.View.start</text>
</a>
</g>
</g>
<!-- Node3&#45;&gt;Node4 -->
<g id="edge3" class="edge"><title>Node3&#45;&gt;Node4</title>
<path fill="none" stroke="midnightblue" d="M566.12,-15C575.068,-15 583.756,-15 591.763,-15"/>
<polygon fill="midnightblue" stroke="midnightblue" points="565.931,-11.5001 555.931,-15 565.931,-18.5001 565.931,-11.5001"/>
</g>
<!-- Node5 -->
<g id="node5" class="node"><title>Node5</title>
<g id="a_node5"><a xlink:href="../../d4/d9d/classapplication_1_1_wrapper.html#a4be5486a54f6d10d816c3ff49e82ecb9" target="_top" xlink:title="application.Wrapper.make\lNewWindow">
<polygon fill="white" stroke="black" points="714,-0 714,-30 854,-30 854,-0 714,-0"/>
<text text-anchor="start" x="722" y="-18" font-family="Helvetica,sans-Serif" font-size="10.00">application.Wrapper.make</text>
<text text-anchor="middle" x="784" y="-7" font-family="Helvetica,sans-Serif" font-size="10.00">NewWindow</text>
</a>
</g>
</g>
<!-- Node4&#45;&gt;Node5 -->
<g id="edge4" class="edge"><title>Node4&#45;&gt;Node5</title>
<path fill="none" stroke="midnightblue" d="M688.379,-15C696.668,-15 705.349,-15 713.949,-15"/>
<polygon fill="midnightblue" stroke="midnightblue" points="688.124,-11.5001 678.124,-15 688.124,-18.5001 688.124,-11.5001"/>
</g>
<!-- Node6 -->
<g id="node6" class="node"><title>Node6</title>
<g id="a_node6"><a xlink:href="../../d9/d96/classapplication_1_1_main.html#a4e5ad4e3de8bbd8654120180a94e870d" target="_top" xlink:title="application.Main.start">
<polygon fill="white" stroke="black" points="890.5,-5.5 890.5,-24.5 1009.5,-24.5 1009.5,-5.5 890.5,-5.5"/>
<text text-anchor="middle" x="950" y="-12.5" font-family="Helvetica,sans-Serif" font-size="10.00">application.Main.start</text>
</a>
</g>
</g>
<!-- Node5&#45;&gt;Node6 -->
<g id="edge5" class="edge"><title>Node5&#45;&gt;Node6</title>
<path fill="none" stroke="midnightblue" d="M864.335,-15C873.112,-15 881.929,-15 890.384,-15"/>
<polygon fill="midnightblue" stroke="midnightblue" points="864.075,-11.5001 854.075,-15 864.075,-18.5001 864.075,-11.5001"/>
</g>
</g>
</svg>
