<?xml version="1.0" encoding="UTF-8" standalone="no"?>
<!DOCTYPE svg PUBLIC "-//W3C//DTD SVG 1.1//EN"
 "http://www.w3.org/Graphics/SVG/1.1/DTD/svg11.dtd">
<!-- Generated by graphviz version 2.36.0 (20140111.2315)
 -->
<!-- Title: commands.Forward.advanceTurtle Pages: 1 -->
<svg width="382pt" height="408pt"
 viewBox="0.00 0.00 382.00 408.00" xmlns="http://www.w3.org/2000/svg" xmlns:xlink="http://www.w3.org/1999/xlink">
<g id="graph0" class="graph" transform="scale(1 1) rotate(0) translate(4 404)">
<title>commands.Forward.advanceTurtle</title>
<polygon fill="white" stroke="none" points="-4,4 -4,-404 378,-404 378,4 -4,4"/>
<!-- Node1 -->
<g id="node1" class="node"><title>Node1</title>
<polygon fill="#bfbfbf" stroke="black" points="0.5,-185 0.5,-215 155.5,-215 155.5,-185 0.5,-185"/>
<text text-anchor="start" x="8.5" y="-203" font-family="Helvetica,sans-Serif" font-size="10.00">commands.Forward.advance</text>
<text text-anchor="middle" x="78" y="-192" font-family="Helvetica,sans-Serif" font-size="10.00">Turtle</text>
</g>
<!-- Node2 -->
<g id="node2" class="node"><title>Node2</title>
<g id="a_node2"><a xlink:href="../../d1/d31/classapplication_1_1_turtle.html#a060718d9e233e3c4ff1920f51db78206" target="_top" xlink:title="application.Turtle.getHeading">
<polygon fill="white" stroke="black" points="205.5,-380.5 205.5,-399.5 360.5,-399.5 360.5,-380.5 205.5,-380.5"/>
<text text-anchor="middle" x="283" y="-387.5" font-family="Helvetica,sans-Serif" font-size="10.00">application.Turtle.getHeading</text>
</a>
</g>
</g>
<!-- Node1&#45;&gt;Node2 -->
<g id="edge1" class="edge"><title>Node1&#45;&gt;Node2</title>
<path fill="none" stroke="midnightblue" d="M84.4093,-215.221C97.288,-249.115 133.161,-330.965 192,-371 194.927,-372.992 198.023,-374.781 201.235,-376.388"/>
<polygon fill="midnightblue" stroke="midnightblue" points="199.99,-379.663 210.555,-380.451 202.787,-373.246 199.99,-379.663"/>
</g>
<!-- Node3 -->
<g id="node3" class="node"><title>Node3</title>
<g id="a_node3"><a xlink:href="../../dd/d17/classapplication_1_1_model.html#a3d3cc4e125eb703c34005f184e7eadba" target="_top" xlink:title="application.Model.getMaxX">
<polygon fill="white" stroke="black" points="211,-342.5 211,-361.5 355,-361.5 355,-342.5 211,-342.5"/>
<text text-anchor="middle" x="283" y="-349.5" font-family="Helvetica,sans-Serif" font-size="10.00">application.Model.getMaxX</text>
</a>
</g>
</g>
<!-- Node1&#45;&gt;Node3 -->
<g id="edge2" class="edge"><title>Node1&#45;&gt;Node3</title>
<path fill="none" stroke="midnightblue" d="M87.2855,-215.199C103.449,-243.301 142.023,-303.226 192,-333 195.627,-335.161 199.465,-337.078 203.431,-338.779"/>
<polygon fill="midnightblue" stroke="midnightblue" points="202.289,-342.089 212.88,-342.367 204.774,-335.545 202.289,-342.089"/>
</g>
<!-- Node4 -->
<g id="node4" class="node"><title>Node4</title>
<g id="a_node4"><a xlink:href="../../dd/d17/classapplication_1_1_model.html#a5a8cc58b4a700f02a1f6c7582bea61e6" target="_top" xlink:title="application.Model.getMaxY">
<polygon fill="white" stroke="black" points="211.5,-304.5 211.5,-323.5 354.5,-323.5 354.5,-304.5 211.5,-304.5"/>
<text text-anchor="middle" x="283" y="-311.5" font-family="Helvetica,sans-Serif" font-size="10.00">application.Model.getMaxY</text>
</a>
</g>
</g>
<!-- Node1&#45;&gt;Node4 -->
<g id="edge3" class="edge"><title>Node1&#45;&gt;Node4</title>
<path fill="none" stroke="midnightblue" d="M92.3268,-215.158C111.946,-236.461 150.761,-274.898 192,-295 196.934,-297.405 202.166,-299.507 207.527,-301.344"/>
<polygon fill="midnightblue" stroke="midnightblue" points="206.691,-304.749 217.279,-304.372 208.766,-298.064 206.691,-304.749"/>
</g>
<!-- Node5 -->
<g id="node5" class="node"><title>Node5</title>
<g id="a_node5"><a xlink:href="../../d7/d99/classtree_1_1_command_node.html#ae60b1b2f861235627eb90a0d1fa25814" target="_top" xlink:title="tree.CommandNode.getModel">
<polygon fill="white" stroke="black" points="202,-266.5 202,-285.5 364,-285.5 364,-266.5 202,-266.5"/>
<text text-anchor="middle" x="283" y="-273.5" font-family="Helvetica,sans-Serif" font-size="10.00">tree.CommandNode.getModel</text>
</a>
</g>
</g>
<!-- Node1&#45;&gt;Node5 -->
<g id="edge4" class="edge"><title>Node1&#45;&gt;Node5</title>
<path fill="none" stroke="midnightblue" d="M104.193,-215.101C126.559,-227.917 160.487,-245.937 192,-257 199.606,-259.67 207.711,-262.026 215.824,-264.088"/>
<polygon fill="midnightblue" stroke="midnightblue" points="215.148,-267.525 225.689,-266.458 216.783,-260.718 215.148,-267.525"/>
</g>
<!-- Node6 -->
<g id="node6" class="node"><title>Node6</title>
<g id="a_node6"><a xlink:href="../../d1/d31/classapplication_1_1_turtle.html#a80e3fa65ab3f13379b31618aac18a08e" target="_top" xlink:title="application.Turtle.getX">
<polygon fill="white" stroke="black" points="222,-228.5 222,-247.5 344,-247.5 344,-228.5 222,-228.5"/>
<text text-anchor="middle" x="283" y="-235.5" font-family="Helvetica,sans-Serif" font-size="10.00">application.Turtle.getX</text>
</a>
</g>
</g>
<!-- Node1&#45;&gt;Node6 -->
<g id="edge5" class="edge"><title>Node1&#45;&gt;Node6</title>
<path fill="none" stroke="midnightblue" d="M155.746,-214.366C177.359,-218.412 200.567,-222.756 221.116,-226.603"/>
<polygon fill="midnightblue" stroke="midnightblue" points="220.498,-230.048 230.971,-228.448 221.786,-223.168 220.498,-230.048"/>
</g>
<!-- Node7 -->
<g id="node7" class="node"><title>Node7</title>
<g id="a_node7"><a xlink:href="../../d1/d31/classapplication_1_1_turtle.html#a50b8c7a122871445c4c7eebb8de97e63" target="_top" xlink:title="application.Turtle.getY">
<polygon fill="white" stroke="black" points="222.5,-190.5 222.5,-209.5 343.5,-209.5 343.5,-190.5 222.5,-190.5"/>
<text text-anchor="middle" x="283" y="-197.5" font-family="Helvetica,sans-Serif" font-size="10.00">application.Turtle.getY</text>
</a>
</g>
</g>
<!-- Node1&#45;&gt;Node7 -->
<g id="edge6" class="edge"><title>Node1&#45;&gt;Node7</title>
<path fill="none" stroke="midnightblue" d="M155.746,-200C174.228,-200 193.876,-200 212.03,-200"/>
<polygon fill="midnightblue" stroke="midnightblue" points="212.234,-203.5 222.234,-200 212.234,-196.5 212.234,-203.5"/>
</g>
<!-- Node8 -->
<g id="node8" class="node"><title>Node8</title>
<g id="a_node8"><a xlink:href="../../d1/d31/classapplication_1_1_turtle.html#a652b61c378ef935292ba88f128d2ca9b" target="_top" xlink:title="application.Turtle.isPenDown">
<polygon fill="white" stroke="black" points="207,-152.5 207,-171.5 359,-171.5 359,-152.5 207,-152.5"/>
<text text-anchor="middle" x="283" y="-159.5" font-family="Helvetica,sans-Serif" font-size="10.00">application.Turtle.isPenDown</text>
</a>
</g>
</g>
<!-- Node1&#45;&gt;Node8 -->
<g id="edge7" class="edge"><title>Node1&#45;&gt;Node8</title>
<path fill="none" stroke="midnightblue" d="M155.746,-185.634C177.359,-181.588 200.567,-177.244 221.116,-173.397"/>
<polygon fill="midnightblue" stroke="midnightblue" points="221.786,-176.832 230.971,-171.552 220.498,-169.952 221.786,-176.832"/>
</g>
<!-- Node9 -->
<g id="node9" class="node"><title>Node9</title>
<g id="a_node9"><a xlink:href="../../d2/dc9/classcommands_1_1_forward.html#abacebfa35429a541d35211f1b2c6511b" target="_top" xlink:title="commands.Forward.outOfXBounds">
<polygon fill="white" stroke="black" points="192,-114.5 192,-133.5 374,-133.5 374,-114.5 192,-114.5"/>
<text text-anchor="middle" x="283" y="-121.5" font-family="Helvetica,sans-Serif" font-size="10.00">commands.Forward.outOfXBounds</text>
</a>
</g>
</g>
<!-- Node1&#45;&gt;Node9 -->
<g id="edge8" class="edge"><title>Node1&#45;&gt;Node9</title>
<path fill="none" stroke="midnightblue" d="M104.193,-184.899C126.559,-172.083 160.487,-154.063 192,-143 199.606,-140.33 207.711,-137.974 215.824,-135.912"/>
<polygon fill="midnightblue" stroke="midnightblue" points="216.783,-139.282 225.689,-133.542 215.148,-132.475 216.783,-139.282"/>
</g>
<!-- Node10 -->
<g id="node10" class="node"><title>Node10</title>
<g id="a_node10"><a xlink:href="../../d2/dc9/classcommands_1_1_forward.html#a400ab6b6d5cf943c1995f13951fb91af" target="_top" xlink:title="commands.Forward.outOfYBounds">
<polygon fill="white" stroke="black" points="192,-76.5 192,-95.5 374,-95.5 374,-76.5 192,-76.5"/>
<text text-anchor="middle" x="283" y="-83.5" font-family="Helvetica,sans-Serif" font-size="10.00">commands.Forward.outOfYBounds</text>
</a>
</g>
</g>
<!-- Node1&#45;&gt;Node10 -->
<g id="edge9" class="edge"><title>Node1&#45;&gt;Node10</title>
<path fill="none" stroke="midnightblue" d="M92.3268,-184.842C111.946,-163.539 150.761,-125.102 192,-105 196.934,-102.595 202.166,-100.493 207.527,-98.656"/>
<polygon fill="midnightblue" stroke="midnightblue" points="208.766,-101.936 217.279,-95.6283 206.691,-95.2509 208.766,-101.936"/>
</g>
<!-- Node11 -->
<g id="node11" class="node"><title>Node11</title>
<g id="a_node11"><a xlink:href="../../d1/d31/classapplication_1_1_turtle.html#aee4406eddbfc4ed9316cd6da1f5bc7af" target="_top" xlink:title="application.Turtle.setLocation">
<polygon fill="white" stroke="black" points="205.5,-38.5 205.5,-57.5 360.5,-57.5 360.5,-38.5 205.5,-38.5"/>
<text text-anchor="middle" x="283" y="-45.5" font-family="Helvetica,sans-Serif" font-size="10.00">application.Turtle.setLocation</text>
</a>
</g>
</g>
<!-- Node1&#45;&gt;Node11 -->
<g id="edge10" class="edge"><title>Node1&#45;&gt;Node11</title>
<path fill="none" stroke="midnightblue" d="M87.2855,-184.801C103.449,-156.699 142.023,-96.774 192,-67 195.627,-64.8392 199.465,-62.922 203.431,-61.2213"/>
<polygon fill="midnightblue" stroke="midnightblue" points="204.774,-64.4551 212.88,-57.6327 202.289,-57.9112 204.774,-64.4551"/>
</g>
<!-- Node12 -->
<g id="node12" class="node"><title>Node12</title>
<g id="a_node12"><a xlink:href="../../d1/d31/classapplication_1_1_turtle.html#a6674f61063cd54e15d663f65a95de31c" target="_top" xlink:title="application.Turtle.setPenDown">
<polygon fill="white" stroke="black" points="203.5,-0.5 203.5,-19.5 362.5,-19.5 362.5,-0.5 203.5,-0.5"/>
<text text-anchor="middle" x="283" y="-7.5" font-family="Helvetica,sans-Serif" font-size="10.00">application.Turtle.setPenDown</text>
</a>
</g>
</g>
<!-- Node1&#45;&gt;Node12 -->
<g id="edge11" class="edge"><title>Node1&#45;&gt;Node12</title>
<path fill="none" stroke="midnightblue" d="M84.4093,-184.779C97.288,-150.885 133.161,-69.0348 192,-29 194.927,-27.0082 198.023,-25.2189 201.235,-23.612"/>
<polygon fill="midnightblue" stroke="midnightblue" points="202.787,-26.7537 210.555,-19.5494 199.99,-20.3367 202.787,-26.7537"/>
</g>
</g>
</svg>
