<?xml version="1.0" encoding="UTF-8" standalone="no"?>
<!DOCTYPE svg PUBLIC "-//W3C//DTD SVG 1.1//EN"
 "http://www.w3.org/Graphics/SVG/1.1/DTD/svg11.dtd">
<!-- Generated by graphviz version 2.36.0 (20140111.2315)
 -->
<!-- Title: commands.Forward.function Pages: 1 -->
<!--zoomable 408 -->
<svg id="main" version="1.1" xmlns="http://www.w3.org/2000/svg" xmlns:xlink="http://www.w3.org/1999/xlink" xml:space="preserve" onload="init(evt)">
<style type="text/css"><![CDATA[
.edge:hover path { stroke: red; }
.edge:hover polygon { stroke: red; fill: red; }
]]></style>
<script type="text/javascript"><![CDATA[
var edges = document.getElementsByTagName('g');
if (edges && edges.length) {
  for (var i=0;i<edges.length;i++) {
    if (edges[i].id.substr(0,4)=='edge') {
      edges[i].setAttribute('class','edge');
    }
  }
}
]]></script>
        <defs>
                <circle id="rim" cx="0" cy="0" r="7"/>
                <circle id="rim2" cx="0" cy="0" r="3.5"/>
                <g id="zoomPlus">
                        <use xlink:href="#rim" fill="#404040">
                                <set attributeName="fill" to="#808080" begin="zoomplus.mouseover" end="zoomplus.mouseout"/>
                        </use>
                        <path d="M-4,0h8M0,-4v8" fill="none" stroke="white" stroke-width="1.5" pointer-events="none"/>
                </g>
                <g id="zoomMin">
                        <use xlink:href="#rim" fill="#404040">
                                <set attributeName="fill" to="#808080" begin="zoomminus.mouseover" end="zoomminus.mouseout"/>
                        </use>
                        <path d="M-4,0h8" fill="none" stroke="white" stroke-width="1.5" pointer-events="none"/>
                </g>
                <g id="dirArrow">
                        <path fill="none" stroke="white" stroke-width="1.5" d="M0,-3.0v7 M-2.5,-0.5L0,-3.0L2.5,-0.5"/>
                </g>
               <g id="resetDef">
                       <use xlink:href="#rim2" fill="#404040">
                               <set attributeName="fill" to="#808080" begin="reset.mouseover" end="reset.mouseout"/>
                       </use>
               </g>
        </defs>

<script type="text/javascript">
var viewWidth = 578;
var viewHeight = 408;
var sectionId = 'dynsection-4';
</script>
<script xlink:href="../../svgpan.js"/>
<svg id="graph" class="graph">
<g id="viewport">
<title>commands.Forward.function</title>
<polygon fill="white" stroke="none" points="-4,4 -4,-404 574,-404 574,4 -4,4"/>
<!-- Node1 -->
<g id="node1" class="node"><title>Node1</title>
<polygon fill="#bfbfbf" stroke="black" points="0,-165.5 0,-184.5 152,-184.5 152,-165.5 0,-165.5"/>
<text text-anchor="middle" x="76" y="-172.5" font-family="Helvetica,sans-Serif" font-size="10.00">commands.Forward.function</text>
</g>
<!-- Node2 -->
<g id="node2" class="node"><title>Node2</title>
<g id="a_node2"><a xlink:href="../../d2/dc9/classcommands_1_1_forward.html#a847dfb7681940af22b76944f2ece7342" target="_top" xlink:title="commands.Forward.advance\lTurtle">
<polygon fill="white" stroke="black" points="192.5,-185 192.5,-215 347.5,-215 347.5,-185 192.5,-185"/>
<text text-anchor="start" x="200.5" y="-203" font-family="Helvetica,sans-Serif" font-size="10.00">commands.Forward.advance</text>
<text text-anchor="middle" x="270" y="-192" font-family="Helvetica,sans-Serif" font-size="10.00">Turtle</text>
</a>
</g>
</g>
<!-- Node1&#45;&gt;Node2 -->
<g id="edge1" class="edge"><title>Node1&#45;&gt;Node2</title>
<path fill="none" stroke="midnightblue" d="M150.135,-184.523C160.575,-185.882 171.398,-187.291 182.071,-188.681"/>
<polygon fill="midnightblue" stroke="midnightblue" points="181.871,-192.185 192.239,-190.005 182.775,-185.243 181.871,-192.185"/>
</g>
<!-- Node14 -->
<g id="node14" class="node"><title>Node14</title>
<g id="a_node14"><a xlink:href="../../d7/d99/classtree_1_1_command_node.html#a9f3dd4c2d2489cbbbc7e09e252a8c9a3" target="_top" xlink:title="tree.CommandNode.putObject\lInList">
<polygon fill="white" stroke="black" points="188,-136 188,-166 352,-166 352,-136 188,-136"/>
<text text-anchor="start" x="196" y="-154" font-family="Helvetica,sans-Serif" font-size="10.00">tree.CommandNode.putObject</text>
<text text-anchor="middle" x="270" y="-143" font-family="Helvetica,sans-Serif" font-size="10.00">InList</text>
</a>
</g>
</g>
<!-- Node1&#45;&gt;Node14 -->
<g id="edge13" class="edge"><title>Node1&#45;&gt;Node14</title>
<path fill="none" stroke="midnightblue" d="M152.057,-165.618C160.524,-164.56 169.219,-163.473 177.862,-162.392"/>
<polygon fill="midnightblue" stroke="midnightblue" points="178.477,-165.843 187.966,-161.129 177.609,-158.897 178.477,-165.843"/>
</g>
<!-- Node3 -->
<g id="node3" class="node"><title>Node3</title>
<g id="a_node3"><a xlink:href="../../d1/d31/classapplication_1_1_turtle.html#a060718d9e233e3c4ff1920f51db78206" target="_top" xlink:title="application.Turtle.getHeading">
<polygon fill="white" stroke="black" points="401.5,-380.5 401.5,-399.5 556.5,-399.5 556.5,-380.5 401.5,-380.5"/>
<text text-anchor="middle" x="479" y="-387.5" font-family="Helvetica,sans-Serif" font-size="10.00">application.Turtle.getHeading</text>
</a>
</g>
</g>
<!-- Node2&#45;&gt;Node3 -->
<g id="edge2" class="edge"><title>Node2&#45;&gt;Node3</title>
<path fill="none" stroke="midnightblue" d="M276.761,-215.227C290.425,-249.134 328.196,-331.01 388,-371 390.943,-372.968 394.052,-374.738 397.275,-376.329"/>
<polygon fill="midnightblue" stroke="midnightblue" points="396.051,-379.612 406.62,-380.355 398.821,-373.184 396.051,-379.612"/>
</g>
<!-- Node4 -->
<g id="node4" class="node"><title>Node4</title>
<g id="a_node4"><a xlink:href="../../dd/d17/classapplication_1_1_model.html#a3d3cc4e125eb703c34005f184e7eadba" target="_top" xlink:title="application.Model.getMaxX">
<polygon fill="white" stroke="black" points="407,-342.5 407,-361.5 551,-361.5 551,-342.5 407,-342.5"/>
<text text-anchor="middle" x="479" y="-349.5" font-family="Helvetica,sans-Serif" font-size="10.00">application.Model.getMaxX</text>
</a>
</g>
</g>
<!-- Node2&#45;&gt;Node4 -->
<g id="edge3" class="edge"><title>Node2&#45;&gt;Node4</title>
<path fill="none" stroke="midnightblue" d="M279.722,-215.197C296.695,-243.296 337.015,-303.217 388,-333 391.723,-335.175 395.662,-337.102 399.73,-338.81"/>
<polygon fill="midnightblue" stroke="midnightblue" points="398.821,-342.206 409.414,-342.411 401.26,-335.645 398.821,-342.206"/>
</g>
<!-- Node5 -->
<g id="node5" class="node"><title>Node5</title>
<g id="a_node5"><a xlink:href="../../dd/d17/classapplication_1_1_model.html#a5a8cc58b4a700f02a1f6c7582bea61e6" target="_top" xlink:title="application.Model.getMaxY">
<polygon fill="white" stroke="black" points="407.5,-304.5 407.5,-323.5 550.5,-323.5 550.5,-304.5 407.5,-304.5"/>
<text text-anchor="middle" x="479" y="-311.5" font-family="Helvetica,sans-Serif" font-size="10.00">application.Model.getMaxY</text>
</a>
</g>
</g>
<!-- Node2&#45;&gt;Node5 -->
<g id="edge4" class="edge"><title>Node2&#45;&gt;Node5</title>
<path fill="none" stroke="midnightblue" d="M284.914,-215.141C305.367,-236.425 345.726,-274.838 388,-295 393.045,-297.406 398.393,-299.509 403.866,-301.348"/>
<polygon fill="midnightblue" stroke="midnightblue" points="403.23,-304.813 413.816,-304.379 405.27,-298.117 403.23,-304.813"/>
</g>
<!-- Node6 -->
<g id="node6" class="node"><title>Node6</title>
<g id="a_node6"><a xlink:href="../../d7/d99/classtree_1_1_command_node.html#ae60b1b2f861235627eb90a0d1fa25814" target="_top" xlink:title="tree.CommandNode.getModel">
<polygon fill="white" stroke="black" points="398,-266.5 398,-285.5 560,-285.5 560,-266.5 398,-266.5"/>
<text text-anchor="middle" x="479" y="-273.5" font-family="Helvetica,sans-Serif" font-size="10.00">tree.CommandNode.getModel</text>
</a>
</g>
</g>
<!-- Node2&#45;&gt;Node6 -->
<g id="edge5" class="edge"><title>Node2&#45;&gt;Node6</title>
<path fill="none" stroke="midnightblue" d="M297.157,-215.057C320.36,-227.845 355.517,-245.848 388,-257 395.816,-259.683 404.15,-262.058 412.473,-264.14"/>
<polygon fill="midnightblue" stroke="midnightblue" points="411.669,-267.546 422.207,-266.449 413.285,-260.735 411.669,-267.546"/>
</g>
<!-- Node7 -->
<g id="node7" class="node"><title>Node7</title>
<g id="a_node7"><a xlink:href="../../d1/d31/classapplication_1_1_turtle.html#a80e3fa65ab3f13379b31618aac18a08e" target="_top" xlink:title="application.Turtle.getX">
<polygon fill="white" stroke="black" points="418,-228.5 418,-247.5 540,-247.5 540,-228.5 418,-228.5"/>
<text text-anchor="middle" x="479" y="-235.5" font-family="Helvetica,sans-Serif" font-size="10.00">application.Turtle.getX</text>
</a>
</g>
</g>
<!-- Node2&#45;&gt;Node7 -->
<g id="edge6" class="edge"><title>Node2&#45;&gt;Node7</title>
<path fill="none" stroke="midnightblue" d="M347.785,-214.096C370.332,-218.235 394.696,-222.707 416.182,-226.652"/>
<polygon fill="midnightblue" stroke="midnightblue" points="415.687,-230.119 426.155,-228.483 416.951,-223.234 415.687,-230.119"/>
</g>
<!-- Node8 -->
<g id="node8" class="node"><title>Node8</title>
<g id="a_node8"><a xlink:href="../../d1/d31/classapplication_1_1_turtle.html#a50b8c7a122871445c4c7eebb8de97e63" target="_top" xlink:title="application.Turtle.getY">
<polygon fill="white" stroke="black" points="418.5,-190.5 418.5,-209.5 539.5,-209.5 539.5,-190.5 418.5,-190.5"/>
<text text-anchor="middle" x="479" y="-197.5" font-family="Helvetica,sans-Serif" font-size="10.00">application.Turtle.getY</text>
</a>
</g>
</g>
<!-- Node2&#45;&gt;Node8 -->
<g id="edge7" class="edge"><title>Node2&#45;&gt;Node8</title>
<path fill="none" stroke="midnightblue" d="M347.785,-200C367.675,-200 388.978,-200 408.472,-200"/>
<polygon fill="midnightblue" stroke="midnightblue" points="408.484,-203.5 418.484,-200 408.484,-196.5 408.484,-203.5"/>
</g>
<!-- Node9 -->
<g id="node9" class="node"><title>Node9</title>
<g id="a_node9"><a xlink:href="../../d1/d31/classapplication_1_1_turtle.html#a652b61c378ef935292ba88f128d2ca9b" target="_top" xlink:title="application.Turtle.isPenDown">
<polygon fill="white" stroke="black" points="403,-152.5 403,-171.5 555,-171.5 555,-152.5 403,-152.5"/>
<text text-anchor="middle" x="479" y="-159.5" font-family="Helvetica,sans-Serif" font-size="10.00">application.Turtle.isPenDown</text>
</a>
</g>
</g>
<!-- Node2&#45;&gt;Node9 -->
<g id="edge8" class="edge"><title>Node2&#45;&gt;Node9</title>
<path fill="none" stroke="midnightblue" d="M347.785,-185.904C370.332,-181.765 394.696,-177.293 416.182,-173.348"/>
<polygon fill="midnightblue" stroke="midnightblue" points="416.951,-176.766 426.155,-171.517 415.687,-169.881 416.951,-176.766"/>
</g>
<!-- Node10 -->
<g id="node10" class="node"><title>Node10</title>
<g id="a_node10"><a xlink:href="../../d2/dc9/classcommands_1_1_forward.html#abacebfa35429a541d35211f1b2c6511b" target="_top" xlink:title="commands.Forward.outOfXBounds">
<polygon fill="white" stroke="black" points="388,-114.5 388,-133.5 570,-133.5 570,-114.5 388,-114.5"/>
<text text-anchor="middle" x="479" y="-121.5" font-family="Helvetica,sans-Serif" font-size="10.00">commands.Forward.outOfXBounds</text>
</a>
</g>
</g>
<!-- Node2&#45;&gt;Node10 -->
<g id="edge9" class="edge"><title>Node2&#45;&gt;Node10</title>
<path fill="none" stroke="midnightblue" d="M330.202,-184.993C337.75,-182.143 345.204,-178.828 352,-175 370.652,-164.493 368.888,-152.644 388,-143 392.812,-140.572 397.919,-138.454 403.16,-136.606"/>
<polygon fill="midnightblue" stroke="midnightblue" points="404.24,-139.936 412.704,-133.564 402.114,-133.266 404.24,-139.936"/>
</g>
<!-- Node11 -->
<g id="node11" class="node"><title>Node11</title>
<g id="a_node11"><a xlink:href="../../d2/dc9/classcommands_1_1_forward.html#a400ab6b6d5cf943c1995f13951fb91af" target="_top" xlink:title="commands.Forward.outOfYBounds">
<polygon fill="white" stroke="black" points="388,-76.5 388,-95.5 570,-95.5 570,-76.5 388,-76.5"/>
<text text-anchor="middle" x="479" y="-83.5" font-family="Helvetica,sans-Serif" font-size="10.00">commands.Forward.outOfYBounds</text>
</a>
</g>
</g>
<!-- Node2&#45;&gt;Node11 -->
<g id="edge10" class="edge"><title>Node2&#45;&gt;Node11</title>
<path fill="none" stroke="midnightblue" d="M336.647,-184.92C342.155,-182.152 347.376,-178.876 352,-175 378.812,-152.527 360.19,-126.225 388,-105 390.321,-103.229 392.769,-101.614 395.315,-100.141"/>
<polygon fill="midnightblue" stroke="midnightblue" points="396.91,-103.257 404.302,-95.6663 393.79,-96.9906 396.91,-103.257"/>
</g>
<!-- Node12 -->
<g id="node12" class="node"><title>Node12</title>
<g id="a_node12"><a xlink:href="../../d1/d31/classapplication_1_1_turtle.html#aee4406eddbfc4ed9316cd6da1f5bc7af" target="_top" xlink:title="application.Turtle.setLocation">
<polygon fill="white" stroke="black" points="401.5,-38.5 401.5,-57.5 556.5,-57.5 556.5,-38.5 401.5,-38.5"/>
<text text-anchor="middle" x="479" y="-45.5" font-family="Helvetica,sans-Serif" font-size="10.00">application.Turtle.setLocation</text>
</a>
</g>
</g>
<!-- Node2&#45;&gt;Node12 -->
<g id="edge11" class="edge"><title>Node2&#45;&gt;Node12</title>
<path fill="none" stroke="midnightblue" d="M338.477,-184.995C343.405,-182.21 348.002,-178.91 352,-175 388.175,-139.626 350.248,-100.687 388,-67 389.564,-65.6045 391.204,-64.3022 392.908,-63.0871"/>
<polygon fill="midnightblue" stroke="midnightblue" points="395.119,-65.8435 401.911,-57.7117 391.531,-59.8334 395.119,-65.8435"/>
</g>
<!-- Node13 -->
<g id="node13" class="node"><title>Node13</title>
<g id="a_node13"><a xlink:href="../../d1/d31/classapplication_1_1_turtle.html#a6674f61063cd54e15d663f65a95de31c" target="_top" xlink:title="application.Turtle.setPenDown">
<polygon fill="white" stroke="black" points="399.5,-0.5 399.5,-19.5 558.5,-19.5 558.5,-0.5 399.5,-0.5"/>
<text text-anchor="middle" x="479" y="-7.5" font-family="Helvetica,sans-Serif" font-size="10.00">application.Turtle.setPenDown</text>
</a>
</g>
</g>
<!-- Node2&#45;&gt;Node13 -->
<g id="edge12" class="edge"><title>Node2&#45;&gt;Node13</title>
<path fill="none" stroke="midnightblue" d="M339.587,-184.88C344.147,-182.116 348.363,-178.853 352,-175 397.877,-126.401 339.953,-75.4548 388,-29 389.464,-27.5847 391.005,-26.2633 392.612,-25.0299"/>
<polygon fill="midnightblue" stroke="midnightblue" points="394.61,-27.9068 401.147,-19.5691 390.837,-22.0104 394.61,-27.9068"/>
</g>
</g>
</svg>
        <g id="navigator" transform="translate(0 0)" fill="#404254">
                <rect fill="#f2f5e9" fill-opacity="0.5" stroke="#606060" stroke-width=".5" x="0" y="0" width="60" height="60"/>
                <use id="zoomplus" xlink:href="#zoomPlus" x="17" y="9" onmousedown="handleZoom(evt,'in')"/>
                <use id="zoomminus" xlink:href="#zoomMin" x="42" y="9" onmousedown="handleZoom(evt,'out')"/>
                <use id="reset" xlink:href="#resetDef" x="30" y="36" onmousedown="handleReset()"/>
                <g id="arrowUp" xlink:href="#dirArrow" transform="translate(30 24)" onmousedown="handlePan(0,-1)">
                  <use xlink:href="#rim" fill="#404040">
                        <set attributeName="fill" to="#808080" begin="arrowUp.mouseover" end="arrowUp.mouseout"/>
                  </use>
                  <path fill="none" stroke="white" stroke-width="1.5" d="M0,-3.0v7 M-2.5,-0.5L0,-3.0L2.5,-0.5"/>
                </g>
                <g id="arrowRight" xlink:href="#dirArrow" transform="rotate(90) translate(36 -43)" onmousedown="handlePan(1,0)">
                  <use xlink:href="#rim" fill="#404040">
                        <set attributeName="fill" to="#808080" begin="arrowRight.mouseover" end="arrowRight.mouseout"/>
                  </use>
                  <path fill="none" stroke="white" stroke-width="1.5" d="M0,-3.0v7 M-2.5,-0.5L0,-3.0L2.5,-0.5"/>
                </g>
                <g id="arrowDown" xlink:href="#dirArrow" transform="rotate(180) translate(-30 -48)" onmousedown="handlePan(0,1)">
                  <use xlink:href="#rim" fill="#404040">
                        <set attributeName="fill" to="#808080" begin="arrowDown.mouseover" end="arrowDown.mouseout"/>
                  </use>
                  <path fill="none" stroke="white" stroke-width="1.5" d="M0,-3.0v7 M-2.5,-0.5L0,-3.0L2.5,-0.5"/>
                </g>
                <g id="arrowLeft" xlink:href="#dirArrow" transform="rotate(270) translate(-36 17)" onmousedown="handlePan(-1,0)">
                  <use xlink:href="#rim" fill="#404040">
                        <set attributeName="fill" to="#808080" begin="arrowLeft.mouseover" end="arrowLeft.mouseout"/>
                  </use>
                  <path fill="none" stroke="white" stroke-width="1.5" d="M0,-3.0v7 M-2.5,-0.5L0,-3.0L2.5,-0.5"/>
                </g>
        </g>
        <svg viewBox="0 0 15 15" width="100%" height="30px" preserveAspectRatio="xMaxYMin meet">
         <g id="arrow_out" transform="scale(0.3 0.3)">
          <a xlink:href="classcommands_1_1_forward_ad6aede47835c759954a874b7793cff06_cgraph_org.svg" target="_base">
           <rect id="button" ry="5" rx="5" y="6" x="6" height="38" width="38"
                fill="#f2f5e9" fill-opacity="0.5" stroke="#606060" stroke-width="1.0"/>
           <path id="arrow"
             d="M 11.500037,31.436501 C 11.940474,20.09759 22.043105,11.32322 32.158766,21.979434 L 37.068811,17.246167 C 37.068811,17.246167 37.088388,32 37.088388,32 L 22.160133,31.978069 C 22.160133,31.978069 26.997745,27.140456 26.997745,27.140456 C 18.528582,18.264221 13.291696,25.230495 11.500037,31.436501 z"
             style="fill:#404040;"/>
          </a>
         </g>
        </svg>
</svg>
