<?xml version="1.0" encoding="UTF-8" standalone="no"?>
<!DOCTYPE svg PUBLIC "-//W3C//DTD SVG 1.1//EN"
 "http://www.w3.org/Graphics/SVG/1.1/DTD/svg11.dtd">
<!-- Generated by graphviz version 2.36.0 (20140111.2315)
 -->
<!-- Title: application.Model Pages: 1 -->
<svg width="928pt" height="337pt"
 viewBox="0.00 0.00 928.00 337.07" xmlns="http://www.w3.org/2000/svg" xmlns:xlink="http://www.w3.org/1999/xlink">
<g id="graph0" class="graph" transform="scale(1 1) rotate(0) translate(4 333.067)">
<title>application.Model</title>
<polygon fill="white" stroke="none" points="-4,4 -4,-333.067 924,-333.067 924,4 -4,4"/>
<!-- Node1 -->
<g id="node1" class="node"><title>Node1</title>
<polygon fill="#bfbfbf" stroke="black" points="558,-142.5 558,-161.5 658,-161.5 658,-142.5 558,-142.5"/>
<text text-anchor="middle" x="608" y="-149.5" font-family="Helvetica,sans-Serif" font-size="10.00">application.Model</text>
</g>
<!-- Node13 -->
<g id="node13" class="node"><title>Node13</title>
<g id="a_node13"><a xlink:href="../../dc/d9e/classapplication_1_1_parser.html" target="_top" xlink:title="application.Parser">
<polygon fill="white" stroke="black" points="818.5,-178.5 818.5,-197.5 919.5,-197.5 919.5,-178.5 818.5,-178.5"/>
<text text-anchor="middle" x="869" y="-185.5" font-family="Helvetica,sans-Serif" font-size="10.00">application.Parser</text>
</a>
</g>
</g>
<!-- Node1&#45;&gt;Node13 -->
<g id="edge16" class="edge"><title>Node1&#45;&gt;Node13</title>
<path fill="none" stroke="#9a32cd" stroke-dasharray="5,2" d="M668.39,-159.918C706.101,-164.987 755.932,-171.76 800,-178 805.907,-178.836 812.101,-179.728 818.244,-180.62"/>
<polygon fill="#9a32cd" stroke="#9a32cd" points="668.466,-156.397 658.09,-158.535 667.535,-163.335 668.466,-156.397"/>
<text text-anchor="middle" x="747" y="-181" font-family="Helvetica,sans-Serif" font-size="10.00"> myModel</text>
</g>
<!-- Node2 -->
<g id="node2" class="node"><title>Node2</title>
<polygon fill="white" stroke="#bfbfbf" points="292,-309.5 292,-328.5 352,-328.5 352,-309.5 292,-309.5"/>
<text text-anchor="middle" x="322" y="-316.5" font-family="Helvetica,sans-Serif" font-size="10.00">Observer</text>
</g>
<!-- Node2&#45;&gt;Node1 -->
<g id="edge1" class="edge"><title>Node2&#45;&gt;Node1</title>
<path fill="none" stroke="midnightblue" d="M362.145,-326.019C407.021,-331.619 479.801,-332.814 522,-292 556.348,-258.779 511.666,-224.479 540,-186 548.353,-174.656 561.583,-166.832 574.088,-161.578"/>
<polygon fill="midnightblue" stroke="midnightblue" points="362.578,-322.546 352.194,-324.648 361.623,-329.48 362.578,-322.546"/>
</g>
<!-- Node3 -->
<g id="node3" class="node"><title>Node3</title>
<polygon fill="white" stroke="#bfbfbf" points="279,-271.5 279,-290.5 365,-290.5 365,-271.5 279,-271.5"/>
<text text-anchor="middle" x="322" y="-278.5" font-family="Helvetica,sans-Serif" font-size="10.00">StringProperty</text>
</g>
<!-- Node3&#45;&gt;Node1 -->
<g id="edge2" class="edge"><title>Node3&#45;&gt;Node1</title>
<path fill="none" stroke="#9a32cd" stroke-dasharray="5,2" d="M375.347,-281.66C419.464,-279.46 481.673,-269.511 522,-234 539.099,-218.943 524.806,-202.978 540,-186 549.916,-174.919 564.287,-166.965 577.179,-161.55"/>
<polygon fill="#9a32cd" stroke="#9a32cd" points="374.966,-278.172 365.107,-282.049 375.232,-285.167 374.966,-278.172"/>
<text text-anchor="middle" x="470" y="-280" font-family="Helvetica,sans-Serif" font-size="10.00"> errorMsg</text>
</g>
<!-- Node4 -->
<g id="node4" class="node"><title>Node4</title>
<polygon fill="white" stroke="#bfbfbf" points="26.5,-206.5 26.5,-225.5 117.5,-225.5 117.5,-206.5 26.5,-206.5"/>
<text text-anchor="middle" x="72" y="-213.5" font-family="Helvetica,sans-Serif" font-size="10.00">DoubleProperty</text>
</g>
<!-- Node4&#45;&gt;Node1 -->
<g id="edge3" class="edge"><title>Node4&#45;&gt;Node1</title>
<path fill="none" stroke="#9a32cd" stroke-dasharray="5,2" d="M127.788,-216.715C213.079,-216.743 382.32,-212.445 522,-182 543.865,-177.234 567.825,-168.432 584.717,-161.59"/>
<polygon fill="#9a32cd" stroke="#9a32cd" points="127.571,-213.214 117.563,-216.69 127.554,-220.214 127.571,-213.214"/>
<text text-anchor="middle" x="322" y="-240" font-family="Helvetica,sans-Serif" font-size="10.00"> penSize</text>
<text text-anchor="middle" x="322" y="-229" font-family="Helvetica,sans-Serif" font-size="10.00">penColor</text>
<text text-anchor="middle" x="322" y="-218" font-family="Helvetica,sans-Serif" font-size="10.00">background</text>
</g>
<!-- Node6 -->
<g id="node6" class="node"><title>Node6</title>
<g id="a_node6"><a xlink:href="../../d1/deb/classapplication_1_1_turtle_list.html" target="_top" xlink:title="application.TurtleList">
<polygon fill="white" stroke="black" points="265.5,-164.5 265.5,-183.5 378.5,-183.5 378.5,-164.5 265.5,-164.5"/>
<text text-anchor="middle" x="322" y="-171.5" font-family="Helvetica,sans-Serif" font-size="10.00">application.TurtleList</text>
</a>
</g>
</g>
<!-- Node4&#45;&gt;Node6 -->
<g id="edge6" class="edge"><title>Node4&#45;&gt;Node6</title>
<path fill="none" stroke="#9a32cd" stroke-dasharray="5,2" d="M119.718,-204.046C133.296,-200.825 148.188,-197.535 162,-195 196.096,-188.742 234.634,-183.604 265.23,-179.977"/>
<polygon fill="#9a32cd" stroke="#9a32cd" points="118.53,-200.732 109.631,-206.482 120.174,-207.537 118.53,-200.732"/>
<text text-anchor="middle" x="194" y="-198" font-family="Helvetica,sans-Serif" font-size="10.00"> newID</text>
</g>
<!-- Node5 -->
<g id="node5" class="node"><title>Node5</title>
<polygon fill="white" stroke="#bfbfbf" points="244.5,-115 244.5,-145 399.5,-145 399.5,-115 244.5,-115"/>
<text text-anchor="start" x="252.5" y="-133" font-family="Helvetica,sans-Serif" font-size="10.00">Map&lt; String, tree.Command</text>
<text text-anchor="middle" x="322" y="-122" font-family="Helvetica,sans-Serif" font-size="10.00">Node &gt;</text>
</g>
<!-- Node5&#45;&gt;Node1 -->
<g id="edge4" class="edge"><title>Node5&#45;&gt;Node1</title>
<path fill="none" stroke="#9a32cd" stroke-dasharray="5,2" d="M409.987,-125.983C444.921,-125.528 485.49,-126.464 522,-131 540.102,-133.249 559.91,-138.004 575.847,-142.421"/>
<polygon fill="#9a32cd" stroke="#9a32cd" points="409.755,-122.486 399.816,-126.156 409.874,-129.485 409.755,-122.486"/>
<text text-anchor="middle" x="470" y="-145" font-family="Helvetica,sans-Serif" font-size="10.00"> myCommandHistory</text>
<text text-anchor="middle" x="470" y="-134" font-family="Helvetica,sans-Serif" font-size="10.00">myUserCommands</text>
</g>
<!-- Node6&#45;&gt;Node1 -->
<g id="edge5" class="edge"><title>Node6&#45;&gt;Node1</title>
<path fill="none" stroke="#9a32cd" stroke-dasharray="5,2" d="M388.834,-168.9C440.488,-164.899 511.24,-159.418 557.991,-155.796"/>
<polygon fill="#9a32cd" stroke="#9a32cd" points="388.47,-165.418 378.77,-169.68 389.011,-172.397 388.47,-165.418"/>
<text text-anchor="middle" x="470" y="-170" font-family="Helvetica,sans-Serif" font-size="10.00"> myTurtleList</text>
</g>
<!-- Node7 -->
<g id="node7" class="node"><title>Node7</title>
<polygon fill="white" stroke="#bfbfbf" points="6.5,-153 6.5,-183 137.5,-183 137.5,-153 6.5,-153"/>
<text text-anchor="start" x="14.5" y="-171" font-family="Helvetica,sans-Serif" font-size="10.00">Map&lt; application.Turtle,</text>
<text text-anchor="middle" x="72" y="-160" font-family="Helvetica,sans-Serif" font-size="10.00"> Double &gt;</text>
</g>
<!-- Node7&#45;&gt;Node6 -->
<g id="edge7" class="edge"><title>Node7&#45;&gt;Node6</title>
<path fill="none" stroke="#9a32cd" stroke-dasharray="5,2" d="M147.621,-161.7C152.485,-161.423 157.31,-161.184 162,-161 190.423,-159.884 197.621,-159.067 226,-161 238.788,-161.871 252.478,-163.394 265.371,-165.098"/>
<polygon fill="#9a32cd" stroke="#9a32cd" points="147.381,-158.208 137.616,-162.319 147.813,-165.195 147.381,-158.208"/>
<text text-anchor="middle" x="194" y="-164" font-family="Helvetica,sans-Serif" font-size="10.00"> IDMap</text>
</g>
<!-- Node8 -->
<g id="node8" class="node"><title>Node8</title>
<polygon fill="white" stroke="#bfbfbf" points="0.5,-104 0.5,-134 143.5,-134 143.5,-104 0.5,-104"/>
<text text-anchor="start" x="8.5" y="-122" font-family="Helvetica,sans-Serif" font-size="10.00">Map&lt; Double, application.</text>
<text text-anchor="middle" x="72" y="-111" font-family="Helvetica,sans-Serif" font-size="10.00">Turtle &gt;</text>
</g>
<!-- Node8&#45;&gt;Node6 -->
<g id="edge8" class="edge"><title>Node8&#45;&gt;Node6</title>
<path fill="none" stroke="#9a32cd" stroke-dasharray="5,2" d="M153.739,-128.154C177.378,-132.052 203.032,-137.491 226,-145 234.501,-147.779 235.626,-150.858 244,-154 254.733,-158.026 266.601,-161.544 277.739,-164.46"/>
<polygon fill="#9a32cd" stroke="#9a32cd" points="154.169,-124.679 143.745,-126.577 153.077,-131.593 154.169,-124.679"/>
<text text-anchor="middle" x="194" y="-148" font-family="Helvetica,sans-Serif" font-size="10.00"> TurtleMap</text>
</g>
<!-- Node9 -->
<g id="node9" class="node"><title>Node9</title>
<polygon fill="white" stroke="#bfbfbf" points="4,-65.5 4,-84.5 140,-84.5 140,-65.5 4,-65.5"/>
<text text-anchor="middle" x="72" y="-72.5" font-family="Helvetica,sans-Serif" font-size="10.00">List&lt; application.Turtle &gt;</text>
</g>
<!-- Node9&#45;&gt;Node6 -->
<g id="edge9" class="edge"><title>Node9&#45;&gt;Node6</title>
<path fill="none" stroke="#9a32cd" stroke-dasharray="5,2" d="M150.244,-81.7159C176.639,-87.2881 204.814,-97.2616 226,-115 240.637,-127.255 229.353,-141.756 244,-154 250.252,-159.226 257.712,-163.106 265.492,-165.982"/>
<polygon fill="#9a32cd" stroke="#9a32cd" points="150.715,-78.2423 140.234,-79.7887 149.392,-85.1161 150.715,-78.2423"/>
<text text-anchor="middle" x="194" y="-118" font-family="Helvetica,sans-Serif" font-size="10.00"> myActiveList</text>
</g>
<!-- Node10 -->
<g id="node10" class="node"><title>Node10</title>
<polygon fill="white" stroke="#bfbfbf" points="274,-76.5 274,-95.5 370,-95.5 370,-76.5 274,-76.5"/>
<text text-anchor="middle" x="322" y="-83.5" font-family="Helvetica,sans-Serif" font-size="10.00">BooleanProperty</text>
</g>
<!-- Node10&#45;&gt;Node1 -->
<g id="edge10" class="edge"><title>Node10&#45;&gt;Node1</title>
<path fill="none" stroke="#9a32cd" stroke-dasharray="5,2" d="M380.252,-82.9161C420.768,-82.4305 475.875,-85.2436 522,-100 550.834,-109.225 579.967,-130.137 595.516,-142.447"/>
<polygon fill="#9a32cd" stroke="#9a32cd" points="379.949,-79.4212 370.018,-83.1122 380.084,-86.4199 379.949,-79.4212"/>
<text text-anchor="middle" x="470" y="-114" font-family="Helvetica,sans-Serif" font-size="10.00"> clearStamp</text>
<text text-anchor="middle" x="470" y="-103" font-family="Helvetica,sans-Serif" font-size="10.00">clearScreen</text>
</g>
<!-- Node11 -->
<g id="node11" class="node"><title>Node11</title>
<polygon fill="white" stroke="#bfbfbf" points="248.5,-38.5 248.5,-57.5 395.5,-57.5 395.5,-38.5 248.5,-38.5"/>
<text text-anchor="middle" x="322" y="-45.5" font-family="Helvetica,sans-Serif" font-size="10.00">ObjectProperty&lt; double[]&gt;</text>
</g>
<!-- Node11&#45;&gt;Node1 -->
<g id="edge11" class="edge"><title>Node11&#45;&gt;Node1</title>
<path fill="none" stroke="#9a32cd" stroke-dasharray="5,2" d="M405.869,-44.6756C442.925,-46.1698 486.219,-52.185 522,-69 558.027,-85.9308 588.044,-124.508 600.636,-142.47"/>
<polygon fill="#9a32cd" stroke="#9a32cd" points="405.694,-41.1689 395.594,-44.3688 405.485,-48.1658 405.694,-41.1689"/>
<text text-anchor="middle" x="470" y="-72" font-family="Helvetica,sans-Serif" font-size="10.00"> pallet</text>
</g>
<!-- Node12 -->
<g id="node12" class="node"><title>Node12</title>
<polygon fill="white" stroke="#bfbfbf" points="258,-0.5 258,-19.5 386,-19.5 386,-0.5 258,-0.5"/>
<text text-anchor="middle" x="322" y="-7.5" font-family="Helvetica,sans-Serif" font-size="10.00">Map&lt; String, Double &gt;</text>
</g>
<!-- Node12&#45;&gt;Node1 -->
<g id="edge12" class="edge"><title>Node12&#45;&gt;Node1</title>
<path fill="none" stroke="#9a32cd" stroke-dasharray="5,2" d="M396.49,-3.57158C436.164,-3.448 484.538,-8.96125 522,-31 567.139,-57.5555 594.314,-118.624 603.491,-142.338"/>
<polygon fill="#9a32cd" stroke="#9a32cd" points="396.286,-0.0741628 386.34,-3.72481 396.392,-7.07337 396.286,-0.0741628"/>
<text text-anchor="middle" x="470" y="-34" font-family="Helvetica,sans-Serif" font-size="10.00"> variableMap</text>
</g>
<!-- Node13&#45;&gt;Node1 -->
<g id="edge13" class="edge"><title>Node13&#45;&gt;Node1</title>
<path fill="none" stroke="#9a32cd" stroke-dasharray="5,2" d="M851.516,-171.127C838.725,-159.313 819.873,-144.52 800,-138 746.136,-120.328 679.297,-132.406 640.659,-142.445"/>
<polygon fill="#9a32cd" stroke="#9a32cd" points="849.369,-173.919 858.996,-178.343 854.229,-168.881 849.369,-173.919"/>
<text text-anchor="middle" x="747" y="-141" font-family="Helvetica,sans-Serif" font-size="10.00"> myParser</text>
</g>
<!-- Node14 -->
<g id="node14" class="node"><title>Node14</title>
<polygon fill="white" stroke="#bfbfbf" points="540.5,-234 540.5,-264 675.5,-264 675.5,-234 540.5,-234"/>
<text text-anchor="start" x="548.5" y="-252" font-family="Helvetica,sans-Serif" font-size="10.00">List&lt; Map.Entry&lt; String,</text>
<text text-anchor="middle" x="608" y="-241" font-family="Helvetica,sans-Serif" font-size="10.00"> Pattern &gt; &gt;</text>
</g>
<!-- Node14&#45;&gt;Node13 -->
<g id="edge14" class="edge"><title>Node14&#45;&gt;Node13</title>
<path fill="none" stroke="#9a32cd" stroke-dasharray="5,2" d="M685.808,-238.949C720.987,-233.425 762.995,-225.523 800,-215 816.25,-210.379 833.969,-203.272 847.245,-197.509"/>
<polygon fill="#9a32cd" stroke="#9a32cd" points="684.955,-235.539 675.602,-240.516 686.017,-242.458 684.955,-235.539"/>
<text text-anchor="middle" x="747" y="-252" font-family="Helvetica,sans-Serif" font-size="10.00"> mySyntaxPatterns</text>
<text text-anchor="middle" x="747" y="-241" font-family="Helvetica,sans-Serif" font-size="10.00">myCommandPatterns</text>
</g>
<!-- Node15 -->
<g id="node15" class="node"><title>Node15</title>
<g id="a_node15"><a xlink:href="../../d5/d4b/classtree_1_1_tree_builder.html" target="_top" xlink:title="tree.TreeBuilder">
<polygon fill="white" stroke="black" points="562,-195.5 562,-214.5 654,-214.5 654,-195.5 562,-195.5"/>
<text text-anchor="middle" x="608" y="-202.5" font-family="Helvetica,sans-Serif" font-size="10.00">tree.TreeBuilder</text>
</a>
</g>
</g>
<!-- Node15&#45;&gt;Node13 -->
<g id="edge15" class="edge"><title>Node15&#45;&gt;Node13</title>
<path fill="none" stroke="#9a32cd" stroke-dasharray="5,2" d="M664.128,-201.382C709.745,-198.387 773.988,-194.171 818.101,-191.275"/>
<polygon fill="#9a32cd" stroke="#9a32cd" points="663.864,-197.891 654.114,-202.039 664.322,-204.876 663.864,-197.891"/>
<text text-anchor="middle" x="747" y="-203" font-family="Helvetica,sans-Serif" font-size="10.00"> myTreeBuilder</text>
</g>
</g>
</svg>
