<?xml version="1.0" encoding="UTF-8" standalone="no"?>
<!DOCTYPE svg PUBLIC "-//W3C//DTD SVG 1.1//EN"
 "http://www.w3.org/Graphics/SVG/1.1/DTD/svg11.dtd">
<!-- Generated by graphviz version 2.36.0 (20140111.2315)
 -->
<!-- Title: XMLParser Pages: 1 -->
<svg width="149pt" height="96pt"
 viewBox="0.00 0.00 149.00 96.00" xmlns="http://www.w3.org/2000/svg" xmlns:xlink="http://www.w3.org/1999/xlink">
<g id="graph0" class="graph" transform="scale(1 1) rotate(0) translate(4 92)">
<title>XMLParser</title>
<polygon fill="white" stroke="none" points="-4,4 -4,-92 145,-92 145,4 -4,4"/>
<!-- Node1 -->
<g id="node1" class="node"><title>Node1</title>
<polygon fill="#bfbfbf" stroke="black" points="35,-0.5 35,-19.5 101,-19.5 101,-0.5 35,-0.5"/>
<text text-anchor="middle" x="68" y="-7.5" font-family="Helvetica,sans-Serif" font-size="10.00">XMLParser</text>
</g>
<!-- Node2 -->
<g id="node2" class="node"><title>Node2</title>
<polygon fill="white" stroke="#bfbfbf" points="0,-68.5 0,-87.5 56,-87.5 56,-68.5 0,-68.5"/>
<text text-anchor="middle" x="28" y="-75.5" font-family="Helvetica,sans-Serif" font-size="10.00">Element</text>
</g>
<!-- Node2&#45;&gt;Node1 -->
<g id="edge1" class="edge"><title>Node2&#45;&gt;Node1</title>
<path fill="none" stroke="#9a32cd" stroke-dasharray="5,2" d="M35.299,-58.7189C38.2694,-52.0095 41.9573,-44.4761 46,-38 50.0984,-31.4346 55.5984,-24.6846 60.0738,-19.576"/>
<polygon fill="#9a32cd" stroke="#9a32cd" points="31.915,-57.7383 31.274,-68.3137 38.37,-60.4462 31.915,-57.7383"/>
<text text-anchor="middle" x="66" y="-41.5" font-family="Helvetica,sans-Serif" font-size="10.00"> myRoot</text>
</g>
<!-- Node3 -->
<g id="node3" class="node"><title>Node3</title>
<polygon fill="white" stroke="#bfbfbf" points="74.5,-68.5 74.5,-87.5 141.5,-87.5 141.5,-68.5 74.5,-68.5"/>
<text text-anchor="middle" x="108" y="-75.5" font-family="Helvetica,sans-Serif" font-size="10.00">Document</text>
</g>
<!-- Node3&#45;&gt;Node1 -->
<g id="edge2" class="edge"><title>Node3&#45;&gt;Node1</title>
<path fill="none" stroke="#9a32cd" stroke-dasharray="5,2" d="M98.36,-59.2624C94.6104,-52.5384 90.2097,-44.8539 86,-38 82.2259,-31.8554 77.7259,-25.1054 74.1694,-19.8915"/>
<polygon fill="#9a32cd" stroke="#9a32cd" points="95.4011,-61.1453 103.29,-68.2181 101.533,-57.7697 95.4011,-61.1453"/>
<text text-anchor="middle" x="111.5" y="-41.5" font-family="Helvetica,sans-Serif" font-size="10.00"> myDoc</text>
</g>
</g>
</svg>
