<?xml version="1.0" encoding="UTF-8" standalone="no"?>
<!DOCTYPE svg PUBLIC "-//W3C//DTD SVG 1.1//EN"
 "http://www.w3.org/Graphics/SVG/1.1/DTD/svg11.dtd">
<!-- Generated by graphviz version 2.36.0 (20140111.2315)
 -->
<!-- Title: tree.EvaluatorNode Pages: 1 -->
<svg width="1090pt" height="337pt"
 viewBox="0.00 0.00 1090.00 337.46" xmlns="http://www.w3.org/2000/svg" xmlns:xlink="http://www.w3.org/1999/xlink">
<g id="graph0" class="graph" transform="scale(1 1) rotate(0) translate(4 333.462)">
<title>tree.EvaluatorNode</title>
<polygon fill="white" stroke="none" points="-4,4 -4,-333.462 1086,-333.462 1086,4 -4,4"/>
<!-- Node1 -->
<g id="node1" class="node"><title>Node1</title>
<polygon fill="#bfbfbf" stroke="black" points="972,-239.962 972,-258.962 1082,-258.962 1082,-239.962 972,-239.962"/>
<text text-anchor="middle" x="1027" y="-246.962" font-family="Helvetica,sans-Serif" font-size="10.00">tree.EvaluatorNode</text>
</g>
<!-- Node2 -->
<g id="node2" class="node"><title>Node2</title>
<g id="a_node2"><a xlink:href="../../d7/d99/classtree_1_1_command_node.html" target="_top" xlink:title="tree.CommandNode">
<polygon fill="white" stroke="black" points="818.5,-207.962 818.5,-226.962 933.5,-226.962 933.5,-207.962 818.5,-207.962"/>
<text text-anchor="middle" x="876" y="-214.962" font-family="Helvetica,sans-Serif" font-size="10.00">tree.CommandNode</text>
</a>
</g>
</g>
<!-- Node2&#45;&gt;Node1 -->
<g id="edge1" class="edge"><title>Node2&#45;&gt;Node1</title>
<path fill="none" stroke="midnightblue" d="M931.37,-229.138C947.888,-232.686 965.833,-236.54 981.612,-239.929"/>
<polygon fill="midnightblue" stroke="midnightblue" points="931.814,-225.654 921.301,-226.976 930.344,-232.498 931.814,-225.654"/>
</g>
<!-- Node3 -->
<g id="node3" class="node"><title>Node3</title>
<g id="a_node3"><a xlink:href="../../da/d49/classtree_1_1_tree_node.html" target="_top" xlink:title="tree.TreeNode">
<polygon fill="white" stroke="black" points="566,-201.962 566,-220.962 650,-220.962 650,-201.962 566,-201.962"/>
<text text-anchor="middle" x="608" y="-208.962" font-family="Helvetica,sans-Serif" font-size="10.00">tree.TreeNode</text>
</a>
</g>
</g>
<!-- Node3&#45;&gt;Node2 -->
<g id="edge2" class="edge"><title>Node3&#45;&gt;Node2</title>
<path fill="none" stroke="midnightblue" d="M660.457,-212.622C705.728,-213.644 771.523,-215.128 818.296,-216.183"/>
<polygon fill="midnightblue" stroke="midnightblue" points="660.347,-209.119 650.271,-212.393 660.189,-216.117 660.347,-209.119"/>
</g>
<!-- Node4 -->
<g id="node4" class="node"><title>Node4</title>
<polygon fill="white" stroke="#bfbfbf" points="546.5,-249.962 546.5,-268.962 669.5,-268.962 669.5,-249.962 546.5,-249.962"/>
<text text-anchor="middle" x="608" y="-256.962" font-family="Helvetica,sans-Serif" font-size="10.00">List&lt; tree.TreeNode &gt;</text>
</g>
<!-- Node4&#45;&gt;Node1 -->
<g id="edge21" class="edge"><title>Node4&#45;&gt;Node1</title>
<path fill="none" stroke="#9a32cd" stroke-dasharray="5,2" d="M680.039,-258.603C715.993,-258.104 760.319,-257.388 800,-256.462 858.67,-255.092 925.89,-252.935 971.665,-251.377"/>
<polygon fill="#9a32cd" stroke="#9a32cd" points="679.6,-255.109 669.649,-258.745 679.696,-262.108 679.6,-255.109"/>
<text text-anchor="middle" x="876" y="-259.462" font-family="Helvetica,sans-Serif" font-size="10.00"> nodeList</text>
</g>
<!-- Node4&#45;&gt;Node2 -->
<g id="edge3" class="edge"><title>Node4&#45;&gt;Node2</title>
<path fill="none" stroke="#9a32cd" stroke-dasharray="5,2" d="M676.527,-248.278C682.435,-247.318 688.323,-246.368 694,-245.462 735.604,-238.818 782.629,-231.55 818.318,-226.085"/>
<polygon fill="#9a32cd" stroke="#9a32cd" points="675.905,-244.833 666.598,-249.897 677.031,-251.742 675.905,-244.833"/>
<text text-anchor="middle" x="747" y="-248.462" font-family="Helvetica,sans-Serif" font-size="10.00"> myChildren</text>
</g>
<!-- Node5 -->
<g id="node5" class="node"><title>Node5</title>
<g id="a_node5"><a xlink:href="../../dd/d17/classapplication_1_1_model.html" target="_top" xlink:title="application.Model">
<polygon fill="white" stroke="black" points="558,-141.962 558,-160.962 658,-160.962 658,-141.962 558,-141.962"/>
<text text-anchor="middle" x="608" y="-148.962" font-family="Helvetica,sans-Serif" font-size="10.00">application.Model</text>
</a>
</g>
</g>
<!-- Node5&#45;&gt;Node2 -->
<g id="edge4" class="edge"><title>Node5&#45;&gt;Node2</title>
<path fill="none" stroke="#9a32cd" stroke-dasharray="5,2" d="M658.094,-163.445C696.686,-172.888 751.794,-186.425 800,-198.462 812.25,-201.521 825.616,-204.895 837.627,-207.94"/>
<polygon fill="#9a32cd" stroke="#9a32cd" points="658.706,-159.991 648.16,-161.015 657.042,-166.791 658.706,-159.991"/>
<text text-anchor="middle" x="747" y="-201.462" font-family="Helvetica,sans-Serif" font-size="10.00"> myModel</text>
</g>
<!-- Node17 -->
<g id="node17" class="node"><title>Node17</title>
<g id="a_node17"><a xlink:href="../../dc/d9e/classapplication_1_1_parser.html" target="_top" xlink:title="application.Parser">
<polygon fill="white" stroke="black" points="825.5,-84.9617 825.5,-103.962 926.5,-103.962 926.5,-84.9617 825.5,-84.9617"/>
<text text-anchor="middle" x="876" y="-91.9617" font-family="Helvetica,sans-Serif" font-size="10.00">application.Parser</text>
</a>
</g>
</g>
<!-- Node5&#45;&gt;Node17 -->
<g id="edge20" class="edge"><title>Node5&#45;&gt;Node17</title>
<path fill="none" stroke="#9a32cd" stroke-dasharray="5,2" d="M668.543,-149.524C706.714,-147.085 756.99,-141.627 800,-129.462 821.154,-123.478 843.812,-112.145 858.62,-103.994"/>
<polygon fill="#9a32cd" stroke="#9a32cd" points="667.892,-146.056 658.113,-150.135 668.301,-153.044 667.892,-146.056"/>
<text text-anchor="middle" x="747" y="-150.462" font-family="Helvetica,sans-Serif" font-size="10.00"> myModel</text>
</g>
<!-- Node6 -->
<g id="node6" class="node"><title>Node6</title>
<polygon fill="white" stroke="#bfbfbf" points="292,-309.962 292,-328.962 352,-328.962 352,-309.962 292,-309.962"/>
<text text-anchor="middle" x="322" y="-316.962" font-family="Helvetica,sans-Serif" font-size="10.00">Observer</text>
</g>
<!-- Node6&#45;&gt;Node5 -->
<g id="edge5" class="edge"><title>Node6&#45;&gt;Node5</title>
<path fill="none" stroke="midnightblue" d="M362.087,-326.17C406.907,-331.435 479.636,-332.162 522,-291.462 554.25,-260.479 514.721,-229.353 540,-192.462 549.944,-177.95 566.879,-167.653 581.234,-161.007"/>
<polygon fill="midnightblue" stroke="midnightblue" points="362.517,-322.696 352.149,-324.874 361.612,-329.637 362.517,-322.696"/>
</g>
<!-- Node7 -->
<g id="node7" class="node"><title>Node7</title>
<polygon fill="white" stroke="#bfbfbf" points="279,-271.962 279,-290.962 365,-290.962 365,-271.962 279,-271.962"/>
<text text-anchor="middle" x="322" y="-278.962" font-family="Helvetica,sans-Serif" font-size="10.00">StringProperty</text>
</g>
<!-- Node7&#45;&gt;Node5 -->
<g id="edge6" class="edge"><title>Node7&#45;&gt;Node5</title>
<path fill="none" stroke="#9a32cd" stroke-dasharray="5,2" d="M375.345,-281.628C419.183,-279.092 480.991,-268.927 522,-234.462 537.547,-221.395 526.712,-207.82 540,-192.462 551.957,-178.643 569.753,-168.057 584,-161.106"/>
<polygon fill="#9a32cd" stroke="#9a32cd" points="374.996,-278.141 365.169,-282.1 375.32,-285.133 374.996,-278.141"/>
<text text-anchor="middle" x="470" y="-279.462" font-family="Helvetica,sans-Serif" font-size="10.00"> errorMsg</text>
</g>
<!-- Node8 -->
<g id="node8" class="node"><title>Node8</title>
<polygon fill="white" stroke="#bfbfbf" points="26.5,-201.962 26.5,-220.962 117.5,-220.962 117.5,-201.962 26.5,-201.962"/>
<text text-anchor="middle" x="72" y="-208.962" font-family="Helvetica,sans-Serif" font-size="10.00">DoubleProperty</text>
</g>
<!-- Node8&#45;&gt;Node5 -->
<g id="edge7" class="edge"><title>Node8&#45;&gt;Node5</title>
<path fill="none" stroke="#9a32cd" stroke-dasharray="5,2" d="M127.775,-215.355C213.311,-219.975 383.189,-223.267 522,-189.462 546.972,-183.38 573.713,-170.194 590.393,-161.075"/>
<polygon fill="#9a32cd" stroke="#9a32cd" points="127.952,-211.859 117.769,-214.787 127.555,-218.848 127.952,-211.859"/>
<text text-anchor="middle" x="322" y="-243.462" font-family="Helvetica,sans-Serif" font-size="10.00"> penSize</text>
<text text-anchor="middle" x="322" y="-232.462" font-family="Helvetica,sans-Serif" font-size="10.00">penColor</text>
<text text-anchor="middle" x="322" y="-221.462" font-family="Helvetica,sans-Serif" font-size="10.00">background</text>
</g>
<!-- Node10 -->
<g id="node10" class="node"><title>Node10</title>
<g id="a_node10"><a xlink:href="../../d1/deb/classapplication_1_1_turtle_list.html" target="_top" xlink:title="application.TurtleList">
<polygon fill="white" stroke="black" points="265.5,-114.962 265.5,-133.962 378.5,-133.962 378.5,-114.962 265.5,-114.962"/>
<text text-anchor="middle" x="322" y="-121.962" font-family="Helvetica,sans-Serif" font-size="10.00">application.TurtleList</text>
</a>
</g>
</g>
<!-- Node8&#45;&gt;Node10 -->
<g id="edge10" class="edge"><title>Node8&#45;&gt;Node10</title>
<path fill="none" stroke="#9a32cd" stroke-dasharray="5,2" d="M127.818,-202.442C158.521,-195.547 196.453,-183.824 226,-164.462 236.282,-157.724 233.533,-149.908 244,-143.462 250.565,-139.418 257.943,-136.234 265.463,-133.728"/>
<polygon fill="#9a32cd" stroke="#9a32cd" points="126.755,-199.09 117.706,-204.6 128.216,-205.936 126.755,-199.09"/>
<text text-anchor="middle" x="194" y="-196.462" font-family="Helvetica,sans-Serif" font-size="10.00"> newID</text>
</g>
<!-- Node9 -->
<g id="node9" class="node"><title>Node9</title>
<polygon fill="white" stroke="#bfbfbf" points="244.5,-153.462 244.5,-183.462 399.5,-183.462 399.5,-153.462 244.5,-153.462"/>
<text text-anchor="start" x="252.5" y="-171.462" font-family="Helvetica,sans-Serif" font-size="10.00">Map&lt; String, tree.Command</text>
<text text-anchor="middle" x="322" y="-160.462" font-family="Helvetica,sans-Serif" font-size="10.00">Node &gt;</text>
</g>
<!-- Node9&#45;&gt;Node5 -->
<g id="edge8" class="edge"><title>Node9&#45;&gt;Node5</title>
<path fill="none" stroke="#9a32cd" stroke-dasharray="5,2" d="M410.043,-163.251C458.554,-160.348 517.184,-156.838 557.797,-154.407"/>
<polygon fill="#9a32cd" stroke="#9a32cd" points="409.627,-159.77 399.854,-163.861 410.046,-166.757 409.627,-159.77"/>
<text text-anchor="middle" x="470" y="-177.462" font-family="Helvetica,sans-Serif" font-size="10.00"> myCommandHistory</text>
<text text-anchor="middle" x="470" y="-166.462" font-family="Helvetica,sans-Serif" font-size="10.00">myUserCommands</text>
</g>
<!-- Node10&#45;&gt;Node5 -->
<g id="edge9" class="edge"><title>Node10&#45;&gt;Node5</title>
<path fill="none" stroke="#9a32cd" stroke-dasharray="5,2" d="M388.89,-130.167C427.659,-133.588 477.632,-138.106 522,-142.462 533.519,-143.592 545.91,-144.87 557.572,-146.099"/>
<polygon fill="#9a32cd" stroke="#9a32cd" points="389.045,-126.667 378.777,-129.277 388.432,-133.64 389.045,-126.667"/>
<text text-anchor="middle" x="470" y="-145.462" font-family="Helvetica,sans-Serif" font-size="10.00"> myTurtleList</text>
</g>
<!-- Node11 -->
<g id="node11" class="node"><title>Node11</title>
<polygon fill="white" stroke="#bfbfbf" points="6.5,-105.462 6.5,-135.462 137.5,-135.462 137.5,-105.462 6.5,-105.462"/>
<text text-anchor="start" x="14.5" y="-123.462" font-family="Helvetica,sans-Serif" font-size="10.00">Map&lt; application.Turtle,</text>
<text text-anchor="middle" x="72" y="-112.462" font-family="Helvetica,sans-Serif" font-size="10.00"> Double &gt;</text>
</g>
<!-- Node11&#45;&gt;Node10 -->
<g id="edge11" class="edge"><title>Node11&#45;&gt;Node10</title>
<path fill="none" stroke="#9a32cd" stroke-dasharray="5,2" d="M147.944,-121.67C185.664,-122.279 230.603,-123.004 265.233,-123.562"/>
<polygon fill="#9a32cd" stroke="#9a32cd" points="147.567,-118.164 137.512,-121.502 147.454,-125.163 147.567,-118.164"/>
<text text-anchor="middle" x="194" y="-126.462" font-family="Helvetica,sans-Serif" font-size="10.00"> IDMap</text>
</g>
<!-- Node12 -->
<g id="node12" class="node"><title>Node12</title>
<polygon fill="white" stroke="#bfbfbf" points="0.5,-56.4617 0.5,-86.4617 143.5,-86.4617 143.5,-56.4617 0.5,-56.4617"/>
<text text-anchor="start" x="8.5" y="-74.4617" font-family="Helvetica,sans-Serif" font-size="10.00">Map&lt; Double, application.</text>
<text text-anchor="middle" x="72" y="-63.4617" font-family="Helvetica,sans-Serif" font-size="10.00">Turtle &gt;</text>
</g>
<!-- Node12&#45;&gt;Node10 -->
<g id="edge12" class="edge"><title>Node12&#45;&gt;Node10</title>
<path fill="none" stroke="#9a32cd" stroke-dasharray="5,2" d="M153.326,-88.6281C194.083,-97.3382 242.056,-107.591 276.224,-114.893"/>
<polygon fill="#9a32cd" stroke="#9a32cd" points="153.914,-85.1749 143.403,-86.5076 152.451,-92.0203 153.914,-85.1749"/>
<text text-anchor="middle" x="194" y="-106.462" font-family="Helvetica,sans-Serif" font-size="10.00"> TurtleMap</text>
</g>
<!-- Node13 -->
<g id="node13" class="node"><title>Node13</title>
<polygon fill="white" stroke="#bfbfbf" points="4,-154.962 4,-173.962 140,-173.962 140,-154.962 4,-154.962"/>
<text text-anchor="middle" x="72" y="-161.962" font-family="Helvetica,sans-Serif" font-size="10.00">List&lt; application.Turtle &gt;</text>
</g>
<!-- Node13&#45;&gt;Node10 -->
<g id="edge13" class="edge"><title>Node13&#45;&gt;Node10</title>
<path fill="none" stroke="#9a32cd" stroke-dasharray="5,2" d="M142.274,-153.289C181.126,-147.022 228.946,-139.309 265.343,-133.439"/>
<polygon fill="#9a32cd" stroke="#9a32cd" points="141.402,-149.884 132.087,-154.932 142.517,-156.794 141.402,-149.884"/>
<text text-anchor="middle" x="194" y="-152.462" font-family="Helvetica,sans-Serif" font-size="10.00"> myActiveList</text>
</g>
<!-- Node14 -->
<g id="node14" class="node"><title>Node14</title>
<polygon fill="white" stroke="#bfbfbf" points="274,-76.9617 274,-95.9617 370,-95.9617 370,-76.9617 274,-76.9617"/>
<text text-anchor="middle" x="322" y="-83.9617" font-family="Helvetica,sans-Serif" font-size="10.00">BooleanProperty</text>
</g>
<!-- Node14&#45;&gt;Node5 -->
<g id="edge14" class="edge"><title>Node14&#45;&gt;Node5</title>
<path fill="none" stroke="#9a32cd" stroke-dasharray="5,2" d="M380.401,-86.9048C420.763,-88.5631 475.624,-93.5517 522,-107.462 548.421,-115.386 576.317,-131.535 592.666,-141.909"/>
<polygon fill="#9a32cd" stroke="#9a32cd" points="380.323,-83.4 370.206,-86.5438 380.075,-90.3956 380.323,-83.4"/>
<text text-anchor="middle" x="470" y="-121.462" font-family="Helvetica,sans-Serif" font-size="10.00"> clearStamp</text>
<text text-anchor="middle" x="470" y="-110.462" font-family="Helvetica,sans-Serif" font-size="10.00">clearScreen</text>
</g>
<!-- Node15 -->
<g id="node15" class="node"><title>Node15</title>
<polygon fill="white" stroke="#bfbfbf" points="248.5,-38.9617 248.5,-57.9617 395.5,-57.9617 395.5,-38.9617 248.5,-38.9617"/>
<text text-anchor="middle" x="322" y="-45.9617" font-family="Helvetica,sans-Serif" font-size="10.00">ObjectProperty&lt; double[]&gt;</text>
</g>
<!-- Node15&#45;&gt;Node5 -->
<g id="edge15" class="edge"><title>Node15&#45;&gt;Node5</title>
<path fill="none" stroke="#9a32cd" stroke-dasharray="5,2" d="M406.284,-46.6106C443.615,-48.992 487.012,-56.4152 522,-75.4617 532.797,-81.3391 531.216,-87.8624 540,-96.4617 557.637,-113.727 580.173,-131.443 594.093,-141.947"/>
<polygon fill="#9a32cd" stroke="#9a32cd" points="406.098,-43.0961 395.928,-46.0672 405.731,-50.0865 406.098,-43.0961"/>
<text text-anchor="middle" x="470" y="-78.4617" font-family="Helvetica,sans-Serif" font-size="10.00"> pallet</text>
</g>
<!-- Node16 -->
<g id="node16" class="node"><title>Node16</title>
<polygon fill="white" stroke="#bfbfbf" points="258,-0.961683 258,-19.9617 386,-19.9617 386,-0.961683 258,-0.961683"/>
<text text-anchor="middle" x="322" y="-7.96168" font-family="Helvetica,sans-Serif" font-size="10.00">Map&lt; String, Double &gt;</text>
</g>
<!-- Node16&#45;&gt;Node5 -->
<g id="edge16" class="edge"><title>Node16&#45;&gt;Node5</title>
<path fill="none" stroke="#9a32cd" stroke-dasharray="5,2" d="M395.756,-0.404261C437.27,1.21278 487.706,-4.35407 522,-33.4617 544.201,-52.3057 524.02,-72.1174 540,-96.4617 552.883,-116.088 574.944,-132.218 590.214,-141.825"/>
<polygon fill="#9a32cd" stroke="#9a32cd" points="395.483,3.08622 385.683,-0.941596 395.856,-3.90384 395.483,3.08622"/>
<text text-anchor="middle" x="470" y="-36.4617" font-family="Helvetica,sans-Serif" font-size="10.00"> variableMap</text>
</g>
<!-- Node17&#45;&gt;Node5 -->
<g id="edge17" class="edge"><title>Node17&#45;&gt;Node5</title>
<path fill="none" stroke="#9a32cd" stroke-dasharray="5,2" d="M815.005,-98.8007C779.431,-102.265 733.684,-108.283 694,-118.462 671.306,-124.282 646.443,-134.402 629.503,-141.905"/>
<polygon fill="#9a32cd" stroke="#9a32cd" points="815.595,-102.261 825.227,-97.8479 814.945,-95.2912 815.595,-102.261"/>
<text text-anchor="middle" x="747" y="-121.462" font-family="Helvetica,sans-Serif" font-size="10.00"> myParser</text>
</g>
<!-- Node18 -->
<g id="node18" class="node"><title>Node18</title>
<polygon fill="white" stroke="#bfbfbf" points="540.5,-57.4617 540.5,-87.4617 675.5,-87.4617 675.5,-57.4617 540.5,-57.4617"/>
<text text-anchor="start" x="548.5" y="-75.4617" font-family="Helvetica,sans-Serif" font-size="10.00">List&lt; Map.Entry&lt; String,</text>
<text text-anchor="middle" x="608" y="-64.4617" font-family="Helvetica,sans-Serif" font-size="10.00"> Pattern &gt; &gt;</text>
</g>
<!-- Node18&#45;&gt;Node17 -->
<g id="edge18" class="edge"><title>Node18&#45;&gt;Node17</title>
<path fill="none" stroke="#9a32cd" stroke-dasharray="5,2" d="M685.762,-68.2001C720.762,-67.4509 762.638,-68.2301 800,-73.4617 816.069,-75.7118 833.553,-80.4667 847.594,-84.8837"/>
<polygon fill="#9a32cd" stroke="#9a32cd" points="685.515,-64.7052 675.609,-68.4638 685.697,-71.7028 685.515,-64.7052"/>
<text text-anchor="middle" x="747" y="-87.4617" font-family="Helvetica,sans-Serif" font-size="10.00"> mySyntaxPatterns</text>
<text text-anchor="middle" x="747" y="-76.4617" font-family="Helvetica,sans-Serif" font-size="10.00">myCommandPatterns</text>
</g>
<!-- Node19 -->
<g id="node19" class="node"><title>Node19</title>
<g id="a_node19"><a xlink:href="../../d5/d4b/classtree_1_1_tree_builder.html" target="_top" xlink:title="tree.TreeBuilder">
<polygon fill="white" stroke="black" points="562,-18.9617 562,-37.9617 654,-37.9617 654,-18.9617 562,-18.9617"/>
<text text-anchor="middle" x="608" y="-25.9617" font-family="Helvetica,sans-Serif" font-size="10.00">tree.TreeBuilder</text>
</a>
</g>
</g>
<!-- Node19&#45;&gt;Node17 -->
<g id="edge19" class="edge"><title>Node19&#45;&gt;Node17</title>
<path fill="none" stroke="#9a32cd" stroke-dasharray="5,2" d="M664.082,-30.2941C702.892,-32.8716 755.636,-38.9952 800,-53.4617 822.855,-60.9146 846.818,-75.3534 861.335,-84.9521"/>
<polygon fill="#9a32cd" stroke="#9a32cd" points="664.221,-26.7962 654.027,-29.6846 663.797,-33.7833 664.221,-26.7962"/>
<text text-anchor="middle" x="747" y="-56.4617" font-family="Helvetica,sans-Serif" font-size="10.00"> myTreeBuilder</text>
</g>
</g>
</svg>
