<?xml version="1.0" encoding="UTF-8" standalone="no"?>
<!DOCTYPE svg PUBLIC "-//W3C//DTD SVG 1.1//EN"
 "http://www.w3.org/Graphics/SVG/1.1/DTD/svg11.dtd">
<!-- Generated by graphviz version 2.36.0 (20140111.2315)
 -->
<!-- Title: view.TurtleState Pages: 1 -->
<svg width="928pt" height="402pt"
 viewBox="0.00 0.00 928.00 402.46" xmlns="http://www.w3.org/2000/svg" xmlns:xlink="http://www.w3.org/1999/xlink">
<g id="graph0" class="graph" transform="scale(1 1) rotate(0) translate(4 398.462)">
<title>view.TurtleState</title>
<polygon fill="white" stroke="none" points="-4,4 -4,-398.462 924,-398.462 924,4 -4,4"/>
<!-- Node1 -->
<g id="node1" class="node"><title>Node1</title>
<polygon fill="#bfbfbf" stroke="black" points="823.5,-244.962 823.5,-263.962 914.5,-263.962 914.5,-244.962 823.5,-244.962"/>
<text text-anchor="middle" x="869" y="-251.962" font-family="Helvetica,sans-Serif" font-size="10.00">view.TurtleState</text>
</g>
<!-- Node2 -->
<g id="node2" class="node"><title>Node2</title>
<polygon fill="white" stroke="#bfbfbf" points="585.5,-367.962 585.5,-386.962 630.5,-386.962 630.5,-367.962 585.5,-367.962"/>
<text text-anchor="middle" x="608" y="-374.962" font-family="Helvetica,sans-Serif" font-size="10.00">Stage</text>
</g>
<!-- Node2&#45;&gt;Node1 -->
<g id="edge1" class="edge"><title>Node2&#45;&gt;Node1</title>
<path fill="none" stroke="#9a32cd" stroke-dasharray="5,2" d="M640.629,-381.484C680.753,-384.967 750.653,-385.476 800,-355.462 835.94,-333.602 857.094,-284.697 864.733,-264.002"/>
<polygon fill="#9a32cd" stroke="#9a32cd" points="640.917,-377.996 630.622,-380.499 640.231,-384.962 640.917,-377.996"/>
<text text-anchor="middle" x="747" y="-386.462" font-family="Helvetica,sans-Serif" font-size="10.00"> t</text>
</g>
<!-- Node3 -->
<g id="node3" class="node"><title>Node3</title>
<polygon fill="white" stroke="#bfbfbf" points="550.5,-311.962 550.5,-330.962 665.5,-330.962 665.5,-311.962 550.5,-311.962"/>
<text text-anchor="middle" x="608" y="-318.962" font-family="Helvetica,sans-Serif" font-size="10.00">ArrayList&lt; Double &gt;</text>
</g>
<!-- Node3&#45;&gt;Node1 -->
<g id="edge2" class="edge"><title>Node3&#45;&gt;Node1</title>
<path fill="none" stroke="#9a32cd" stroke-dasharray="5,2" d="M676.045,-321.356C713.496,-319.436 760.443,-313.885 800,-299.462 822.078,-291.412 844.116,-274.88 856.882,-264.252"/>
<polygon fill="#9a32cd" stroke="#9a32cd" points="675.585,-317.873 665.748,-321.806 675.891,-324.866 675.585,-317.873"/>
<text text-anchor="middle" x="747" y="-345.462" font-family="Helvetica,sans-Serif" font-size="10.00"> x</text>
<text text-anchor="middle" x="747" y="-334.462" font-family="Helvetica,sans-Serif" font-size="10.00">y</text>
<text text-anchor="middle" x="747" y="-323.462" font-family="Helvetica,sans-Serif" font-size="10.00">r</text>
</g>
<!-- Node4 -->
<g id="node4" class="node"><title>Node4</title>
<polygon fill="white" stroke="#bfbfbf" points="587,-246.962 587,-265.962 629,-265.962 629,-246.962 587,-246.962"/>
<text text-anchor="middle" x="608" y="-253.962" font-family="Helvetica,sans-Serif" font-size="10.00">Label</text>
</g>
<!-- Node4&#45;&gt;Node1 -->
<g id="edge3" class="edge"><title>Node4&#45;&gt;Node1</title>
<path fill="none" stroke="#9a32cd" stroke-dasharray="5,2" d="M639.272,-256.061C655.502,-255.858 675.841,-255.621 694,-255.462 737.952,-255.077 788.151,-254.806 823.297,-254.645"/>
<polygon fill="#9a32cd" stroke="#9a32cd" points="639.22,-252.562 629.265,-256.189 639.309,-259.561 639.22,-252.562"/>
<text text-anchor="middle" x="747" y="-291.462" font-family="Helvetica,sans-Serif" font-size="10.00"> pen</text>
<text text-anchor="middle" x="747" y="-280.462" font-family="Helvetica,sans-Serif" font-size="10.00">rotation</text>
<text text-anchor="middle" x="747" y="-269.462" font-family="Helvetica,sans-Serif" font-size="10.00">turtleX</text>
<text text-anchor="middle" x="747" y="-258.462" font-family="Helvetica,sans-Serif" font-size="10.00">turtleY</text>
</g>
<!-- Node5 -->
<g id="node5" class="node"><title>Node5</title>
<polygon fill="white" stroke="#bfbfbf" points="548,-208.962 548,-227.962 668,-227.962 668,-208.962 548,-208.962"/>
<text text-anchor="middle" x="608" y="-215.962" font-family="Helvetica,sans-Serif" font-size="10.00">ArrayList&lt; Boolean &gt;</text>
</g>
<!-- Node5&#45;&gt;Node1 -->
<g id="edge4" class="edge"><title>Node5&#45;&gt;Node1</title>
<path fill="none" stroke="#9a32cd" stroke-dasharray="5,2" d="M678.135,-224.937C714.507,-228.719 759.781,-234.018 800,-240.462 807.974,-241.739 816.432,-243.307 824.574,-244.926"/>
<polygon fill="#9a32cd" stroke="#9a32cd" points="678.428,-221.449 668.124,-223.911 677.715,-228.412 678.428,-221.449"/>
<text text-anchor="middle" x="747" y="-243.462" font-family="Helvetica,sans-Serif" font-size="10.00"> isPen</text>
</g>
<!-- Node6 -->
<g id="node6" class="node"><title>Node6</title>
<g id="a_node6"><a xlink:href="../../dd/d17/classapplication_1_1_model.html" target="_top" xlink:title="application.Model">
<polygon fill="white" stroke="black" points="558,-141.962 558,-160.962 658,-160.962 658,-141.962 558,-141.962"/>
<text text-anchor="middle" x="608" y="-148.962" font-family="Helvetica,sans-Serif" font-size="10.00">application.Model</text>
</a>
</g>
</g>
<!-- Node6&#45;&gt;Node1 -->
<g id="edge5" class="edge"><title>Node6&#45;&gt;Node1</title>
<path fill="none" stroke="#9a32cd" stroke-dasharray="5,2" d="M658.329,-163.647C697.644,-174.198 753.6,-191.113 800,-212.462 820.043,-221.683 841.42,-235.652 854.743,-244.913"/>
<polygon fill="#9a32cd" stroke="#9a32cd" points="659.02,-160.21 648.458,-161.038 657.231,-166.977 659.02,-160.21"/>
<text text-anchor="middle" x="747" y="-215.462" font-family="Helvetica,sans-Serif" font-size="10.00"> myModel</text>
</g>
<!-- Node18 -->
<g id="node18" class="node"><title>Node18</title>
<g id="a_node18"><a xlink:href="../../dc/d9e/classapplication_1_1_parser.html" target="_top" xlink:title="application.Parser">
<polygon fill="white" stroke="black" points="818.5,-84.9617 818.5,-103.962 919.5,-103.962 919.5,-84.9617 818.5,-84.9617"/>
<text text-anchor="middle" x="869" y="-91.9617" font-family="Helvetica,sans-Serif" font-size="10.00">application.Parser</text>
</a>
</g>
</g>
<!-- Node6&#45;&gt;Node18 -->
<g id="edge21" class="edge"><title>Node6&#45;&gt;Node18</title>
<path fill="none" stroke="#9a32cd" stroke-dasharray="5,2" d="M668.709,-150.091C706.947,-147.877 757.233,-142.458 800,-129.462 819.437,-123.555 839.93,-112.207 853.274,-104.031"/>
<polygon fill="#9a32cd" stroke="#9a32cd" points="668.065,-146.619 658.26,-150.634 668.428,-153.61 668.065,-146.619"/>
<text text-anchor="middle" x="747" y="-151.462" font-family="Helvetica,sans-Serif" font-size="10.00"> myModel</text>
</g>
<!-- Node7 -->
<g id="node7" class="node"><title>Node7</title>
<polygon fill="white" stroke="#bfbfbf" points="292,-309.962 292,-328.962 352,-328.962 352,-309.962 292,-309.962"/>
<text text-anchor="middle" x="322" y="-316.962" font-family="Helvetica,sans-Serif" font-size="10.00">Observer</text>
</g>
<!-- Node7&#45;&gt;Node6 -->
<g id="edge6" class="edge"><title>Node7&#45;&gt;Node6</title>
<path fill="none" stroke="midnightblue" d="M362.285,-325.861C407.047,-330.735 479.482,-330.882 522,-290.462 551.88,-262.055 517.675,-234.122 540,-199.462 551.157,-182.139 570.962,-169.117 586.155,-161.038"/>
<polygon fill="midnightblue" stroke="midnightblue" points="362.433,-322.353 352.082,-324.616 361.585,-329.302 362.433,-322.353"/>
</g>
<!-- Node8 -->
<g id="node8" class="node"><title>Node8</title>
<polygon fill="white" stroke="#bfbfbf" points="279,-271.962 279,-290.962 365,-290.962 365,-271.962 279,-271.962"/>
<text text-anchor="middle" x="322" y="-278.962" font-family="Helvetica,sans-Serif" font-size="10.00">StringProperty</text>
</g>
<!-- Node8&#45;&gt;Node6 -->
<g id="edge7" class="edge"><title>Node8&#45;&gt;Node6</title>
<path fill="none" stroke="#9a32cd" stroke-dasharray="5,2" d="M375.148,-280.863C418.589,-277.83 479.937,-267.368 522,-234.462 535.777,-223.684 528.571,-212.703 540,-199.462 554.024,-183.214 574.617,-169.527 589.265,-160.978"/>
<polygon fill="#9a32cd" stroke="#9a32cd" points="374.841,-277.375 365.064,-281.457 375.253,-284.363 374.841,-277.375"/>
<text text-anchor="middle" x="470" y="-278.462" font-family="Helvetica,sans-Serif" font-size="10.00"> errorMsg</text>
</g>
<!-- Node9 -->
<g id="node9" class="node"><title>Node9</title>
<polygon fill="white" stroke="#bfbfbf" points="26.5,-205.962 26.5,-224.962 117.5,-224.962 117.5,-205.962 26.5,-205.962"/>
<text text-anchor="middle" x="72" y="-212.962" font-family="Helvetica,sans-Serif" font-size="10.00">DoubleProperty</text>
</g>
<!-- Node9&#45;&gt;Node6 -->
<g id="edge8" class="edge"><title>Node9&#45;&gt;Node6</title>
<path fill="none" stroke="#9a32cd" stroke-dasharray="5,2" d="M127.761,-218.577C213.278,-222.048 383.131,-223.316 522,-189.462 546.97,-183.374 573.712,-170.19 590.393,-161.072"/>
<polygon fill="#9a32cd" stroke="#9a32cd" points="127.899,-215.08 117.758,-218.146 127.597,-222.074 127.899,-215.08"/>
<text text-anchor="middle" x="322" y="-245.462" font-family="Helvetica,sans-Serif" font-size="10.00"> penSize</text>
<text text-anchor="middle" x="322" y="-234.462" font-family="Helvetica,sans-Serif" font-size="10.00">penColor</text>
<text text-anchor="middle" x="322" y="-223.462" font-family="Helvetica,sans-Serif" font-size="10.00">background</text>
</g>
<!-- Node11 -->
<g id="node11" class="node"><title>Node11</title>
<g id="a_node11"><a xlink:href="../../d1/deb/classapplication_1_1_turtle_list.html" target="_top" xlink:title="application.TurtleList">
<polygon fill="white" stroke="black" points="265.5,-114.962 265.5,-133.962 378.5,-133.962 378.5,-114.962 265.5,-114.962"/>
<text text-anchor="middle" x="322" y="-121.962" font-family="Helvetica,sans-Serif" font-size="10.00">application.TurtleList</text>
</a>
</g>
</g>
<!-- Node9&#45;&gt;Node11 -->
<g id="edge11" class="edge"><title>Node9&#45;&gt;Node11</title>
<path fill="none" stroke="#9a32cd" stroke-dasharray="5,2" d="M121.426,-203.289C159.501,-193.112 208.877,-178.387 226,-166.462 236.652,-159.043 233.102,-150.514 244,-143.462 250.474,-139.273 257.799,-136.007 265.295,-133.462"/>
<polygon fill="#9a32cd" stroke="#9a32cd" points="120.296,-199.968 111.52,-205.904 122.082,-206.736 120.296,-199.968"/>
<text text-anchor="middle" x="194" y="-194.462" font-family="Helvetica,sans-Serif" font-size="10.00"> newID</text>
</g>
<!-- Node10 -->
<g id="node10" class="node"><title>Node10</title>
<polygon fill="white" stroke="#bfbfbf" points="244.5,-153.462 244.5,-183.462 399.5,-183.462 399.5,-153.462 244.5,-153.462"/>
<text text-anchor="start" x="252.5" y="-171.462" font-family="Helvetica,sans-Serif" font-size="10.00">Map&lt; String, tree.Command</text>
<text text-anchor="middle" x="322" y="-160.462" font-family="Helvetica,sans-Serif" font-size="10.00">Node &gt;</text>
</g>
<!-- Node10&#45;&gt;Node6 -->
<g id="edge9" class="edge"><title>Node10&#45;&gt;Node6</title>
<path fill="none" stroke="#9a32cd" stroke-dasharray="5,2" d="M410.043,-163.251C458.554,-160.348 517.184,-156.838 557.797,-154.407"/>
<polygon fill="#9a32cd" stroke="#9a32cd" points="409.627,-159.77 399.854,-163.861 410.046,-166.757 409.627,-159.77"/>
<text text-anchor="middle" x="470" y="-177.462" font-family="Helvetica,sans-Serif" font-size="10.00"> myCommandHistory</text>
<text text-anchor="middle" x="470" y="-166.462" font-family="Helvetica,sans-Serif" font-size="10.00">myUserCommands</text>
</g>
<!-- Node11&#45;&gt;Node6 -->
<g id="edge10" class="edge"><title>Node11&#45;&gt;Node6</title>
<path fill="none" stroke="#9a32cd" stroke-dasharray="5,2" d="M388.89,-130.167C427.659,-133.588 477.632,-138.106 522,-142.462 533.519,-143.592 545.91,-144.87 557.572,-146.099"/>
<polygon fill="#9a32cd" stroke="#9a32cd" points="389.045,-126.667 378.777,-129.277 388.432,-133.64 389.045,-126.667"/>
<text text-anchor="middle" x="470" y="-145.462" font-family="Helvetica,sans-Serif" font-size="10.00"> myTurtleList</text>
</g>
<!-- Node12 -->
<g id="node12" class="node"><title>Node12</title>
<polygon fill="white" stroke="#bfbfbf" points="6.5,-152.462 6.5,-182.462 137.5,-182.462 137.5,-152.462 6.5,-152.462"/>
<text text-anchor="start" x="14.5" y="-170.462" font-family="Helvetica,sans-Serif" font-size="10.00">Map&lt; application.Turtle,</text>
<text text-anchor="middle" x="72" y="-159.462" font-family="Helvetica,sans-Serif" font-size="10.00"> Double &gt;</text>
</g>
<!-- Node12&#45;&gt;Node11 -->
<g id="edge12" class="edge"><title>Node12&#45;&gt;Node11</title>
<path fill="none" stroke="#9a32cd" stroke-dasharray="5,2" d="M147.535,-154.538C185.637,-147.932 231.192,-140.033 266.055,-133.989"/>
<polygon fill="#9a32cd" stroke="#9a32cd" points="146.767,-151.119 137.512,-156.276 147.963,-158.016 146.767,-151.119"/>
<text text-anchor="middle" x="194" y="-154.462" font-family="Helvetica,sans-Serif" font-size="10.00"> IDMap</text>
</g>
<!-- Node13 -->
<g id="node13" class="node"><title>Node13</title>
<polygon fill="white" stroke="#bfbfbf" points="0.5,-103.462 0.5,-133.462 143.5,-133.462 143.5,-103.462 0.5,-103.462"/>
<text text-anchor="start" x="8.5" y="-121.462" font-family="Helvetica,sans-Serif" font-size="10.00">Map&lt; Double, application.</text>
<text text-anchor="middle" x="72" y="-110.462" font-family="Helvetica,sans-Serif" font-size="10.00">Turtle &gt;</text>
</g>
<!-- Node13&#45;&gt;Node11 -->
<g id="edge13" class="edge"><title>Node13&#45;&gt;Node11</title>
<path fill="none" stroke="#9a32cd" stroke-dasharray="5,2" d="M153.839,-120.417C190.239,-121.298 232.309,-122.316 265.138,-123.11"/>
<polygon fill="#9a32cd" stroke="#9a32cd" points="153.817,-116.916 143.735,-120.173 153.647,-123.914 153.817,-116.916"/>
<text text-anchor="middle" x="194" y="-125.462" font-family="Helvetica,sans-Serif" font-size="10.00"> TurtleMap</text>
</g>
<!-- Node14 -->
<g id="node14" class="node"><title>Node14</title>
<polygon fill="white" stroke="#bfbfbf" points="4,-64.9617 4,-83.9617 140,-83.9617 140,-64.9617 4,-64.9617"/>
<text text-anchor="middle" x="72" y="-71.9617" font-family="Helvetica,sans-Serif" font-size="10.00">List&lt; application.Turtle &gt;</text>
</g>
<!-- Node14&#45;&gt;Node11 -->
<g id="edge14" class="edge"><title>Node14&#45;&gt;Node11</title>
<path fill="none" stroke="#9a32cd" stroke-dasharray="5,2" d="M130.084,-85.9706C173.537,-94.7312 232.641,-106.647 273.523,-114.89"/>
<polygon fill="#9a32cd" stroke="#9a32cd" points="130.725,-82.5295 120.231,-83.984 129.342,-89.3914 130.725,-82.5295"/>
<text text-anchor="middle" x="194" y="-107.462" font-family="Helvetica,sans-Serif" font-size="10.00"> myActiveList</text>
</g>
<!-- Node15 -->
<g id="node15" class="node"><title>Node15</title>
<polygon fill="white" stroke="#bfbfbf" points="274,-76.9617 274,-95.9617 370,-95.9617 370,-76.9617 274,-76.9617"/>
<text text-anchor="middle" x="322" y="-83.9617" font-family="Helvetica,sans-Serif" font-size="10.00">BooleanProperty</text>
</g>
<!-- Node15&#45;&gt;Node6 -->
<g id="edge15" class="edge"><title>Node15&#45;&gt;Node6</title>
<path fill="none" stroke="#9a32cd" stroke-dasharray="5,2" d="M380.401,-86.9048C420.763,-88.5631 475.624,-93.5517 522,-107.462 548.421,-115.386 576.317,-131.535 592.666,-141.909"/>
<polygon fill="#9a32cd" stroke="#9a32cd" points="380.323,-83.4 370.206,-86.5438 380.075,-90.3956 380.323,-83.4"/>
<text text-anchor="middle" x="470" y="-121.462" font-family="Helvetica,sans-Serif" font-size="10.00"> clearStamp</text>
<text text-anchor="middle" x="470" y="-110.462" font-family="Helvetica,sans-Serif" font-size="10.00">clearScreen</text>
</g>
<!-- Node16 -->
<g id="node16" class="node"><title>Node16</title>
<polygon fill="white" stroke="#bfbfbf" points="248.5,-38.9617 248.5,-57.9617 395.5,-57.9617 395.5,-38.9617 248.5,-38.9617"/>
<text text-anchor="middle" x="322" y="-45.9617" font-family="Helvetica,sans-Serif" font-size="10.00">ObjectProperty&lt; double[]&gt;</text>
</g>
<!-- Node16&#45;&gt;Node6 -->
<g id="edge16" class="edge"><title>Node16&#45;&gt;Node6</title>
<path fill="none" stroke="#9a32cd" stroke-dasharray="5,2" d="M406.284,-46.6106C443.615,-48.992 487.012,-56.4152 522,-75.4617 532.797,-81.3391 531.216,-87.8624 540,-96.4617 557.637,-113.727 580.173,-131.443 594.093,-141.947"/>
<polygon fill="#9a32cd" stroke="#9a32cd" points="406.098,-43.0961 395.928,-46.0672 405.731,-50.0865 406.098,-43.0961"/>
<text text-anchor="middle" x="470" y="-78.4617" font-family="Helvetica,sans-Serif" font-size="10.00"> pallet</text>
</g>
<!-- Node17 -->
<g id="node17" class="node"><title>Node17</title>
<polygon fill="white" stroke="#bfbfbf" points="258,-0.961683 258,-19.9617 386,-19.9617 386,-0.961683 258,-0.961683"/>
<text text-anchor="middle" x="322" y="-7.96168" font-family="Helvetica,sans-Serif" font-size="10.00">Map&lt; String, Double &gt;</text>
</g>
<!-- Node17&#45;&gt;Node6 -->
<g id="edge17" class="edge"><title>Node17&#45;&gt;Node6</title>
<path fill="none" stroke="#9a32cd" stroke-dasharray="5,2" d="M395.756,-0.404261C437.27,1.21278 487.706,-4.35407 522,-33.4617 544.201,-52.3057 524.02,-72.1174 540,-96.4617 552.883,-116.088 574.944,-132.218 590.214,-141.825"/>
<polygon fill="#9a32cd" stroke="#9a32cd" points="395.483,3.08622 385.683,-0.941596 395.856,-3.90384 395.483,3.08622"/>
<text text-anchor="middle" x="470" y="-36.4617" font-family="Helvetica,sans-Serif" font-size="10.00"> variableMap</text>
</g>
<!-- Node18&#45;&gt;Node6 -->
<g id="edge18" class="edge"><title>Node18&#45;&gt;Node6</title>
<path fill="none" stroke="#9a32cd" stroke-dasharray="5,2" d="M808.074,-99.2467C774.212,-102.814 731.318,-108.786 694,-118.462 671.321,-124.342 646.456,-134.453 629.511,-141.937"/>
<polygon fill="#9a32cd" stroke="#9a32cd" points="808.679,-102.703 818.276,-98.2155 807.975,-95.739 808.679,-102.703"/>
<text text-anchor="middle" x="747" y="-121.462" font-family="Helvetica,sans-Serif" font-size="10.00"> myParser</text>
</g>
<!-- Node19 -->
<g id="node19" class="node"><title>Node19</title>
<polygon fill="white" stroke="#bfbfbf" points="540.5,-57.4617 540.5,-87.4617 675.5,-87.4617 675.5,-57.4617 540.5,-57.4617"/>
<text text-anchor="start" x="548.5" y="-75.4617" font-family="Helvetica,sans-Serif" font-size="10.00">List&lt; Map.Entry&lt; String,</text>
<text text-anchor="middle" x="608" y="-64.4617" font-family="Helvetica,sans-Serif" font-size="10.00"> Pattern &gt; &gt;</text>
</g>
<!-- Node19&#45;&gt;Node18 -->
<g id="edge19" class="edge"><title>Node19&#45;&gt;Node18</title>
<path fill="none" stroke="#9a32cd" stroke-dasharray="5,2" d="M685.829,-67.7417C720.842,-66.9009 762.711,-67.735 800,-73.4617 814.655,-75.7123 830.512,-80.4672 843.225,-84.8842"/>
<polygon fill="#9a32cd" stroke="#9a32cd" points="685.566,-64.2477 675.672,-68.0365 685.77,-71.2448 685.566,-64.2477"/>
<text text-anchor="middle" x="747" y="-87.4617" font-family="Helvetica,sans-Serif" font-size="10.00"> mySyntaxPatterns</text>
<text text-anchor="middle" x="747" y="-76.4617" font-family="Helvetica,sans-Serif" font-size="10.00">myCommandPatterns</text>
</g>
<!-- Node20 -->
<g id="node20" class="node"><title>Node20</title>
<g id="a_node20"><a xlink:href="../../d5/d4b/classtree_1_1_tree_builder.html" target="_top" xlink:title="tree.TreeBuilder">
<polygon fill="white" stroke="black" points="562,-18.9617 562,-37.9617 654,-37.9617 654,-18.9617 562,-18.9617"/>
<text text-anchor="middle" x="608" y="-25.9617" font-family="Helvetica,sans-Serif" font-size="10.00">tree.TreeBuilder</text>
</a>
</g>
</g>
<!-- Node20&#45;&gt;Node18 -->
<g id="edge20" class="edge"><title>Node20&#45;&gt;Node18</title>
<path fill="none" stroke="#9a32cd" stroke-dasharray="5,2" d="M664.278,-29.7135C703.179,-32.0209 755.952,-38.0603 800,-53.4617 821.081,-60.8327 842.712,-75.2933 855.755,-84.919"/>
<polygon fill="#9a32cd" stroke="#9a32cd" points="664.369,-26.2135 654.198,-29.1803 663.999,-33.2037 664.369,-26.2135"/>
<text text-anchor="middle" x="747" y="-56.4617" font-family="Helvetica,sans-Serif" font-size="10.00"> myTreeBuilder</text>
</g>
</g>
</svg>
