<?xml version="1.0" encoding="UTF-8" standalone="no"?>
<!DOCTYPE svg PUBLIC "-//W3C//DTD SVG 1.1//EN"
 "http://www.w3.org/Graphics/SVG/1.1/DTD/svg11.dtd">
<!-- Generated by graphviz version 2.36.0 (20140111.2315)
 -->
<!-- Title: view.TurtleState Pages: 1 -->
<!--zoomable 256 -->
<svg id="main" version="1.1" xmlns="http://www.w3.org/2000/svg" xmlns:xlink="http://www.w3.org/1999/xlink" xml:space="preserve" onload="init(evt)">
<style type="text/css"><![CDATA[
.edge:hover path { stroke: red; }
.edge:hover polygon { stroke: red; fill: red; }
]]></style>
<script type="text/javascript"><![CDATA[
var edges = document.getElementsByTagName('g');
if (edges && edges.length) {
  for (var i=0;i<edges.length;i++) {
    if (edges[i].id.substr(0,4)=='edge') {
      edges[i].setAttribute('class','edge');
    }
  }
}
]]></script>
        <defs>
                <circle id="rim" cx="0" cy="0" r="7"/>
                <circle id="rim2" cx="0" cy="0" r="3.5"/>
                <g id="zoomPlus">
                        <use xlink:href="#rim" fill="#404040">
                                <set attributeName="fill" to="#808080" begin="zoomplus.mouseover" end="zoomplus.mouseout"/>
                        </use>
                        <path d="M-4,0h8M0,-4v8" fill="none" stroke="white" stroke-width="1.5" pointer-events="none"/>
                </g>
                <g id="zoomMin">
                        <use xlink:href="#rim" fill="#404040">
                                <set attributeName="fill" to="#808080" begin="zoomminus.mouseover" end="zoomminus.mouseout"/>
                        </use>
                        <path d="M-4,0h8" fill="none" stroke="white" stroke-width="1.5" pointer-events="none"/>
                </g>
                <g id="dirArrow">
                        <path fill="none" stroke="white" stroke-width="1.5" d="M0,-3.0v7 M-2.5,-0.5L0,-3.0L2.5,-0.5"/>
                </g>
               <g id="resetDef">
                       <use xlink:href="#rim2" fill="#404040">
                               <set attributeName="fill" to="#808080" begin="reset.mouseover" end="reset.mouseout"/>
                       </use>
               </g>
        </defs>

<script type="text/javascript">
var viewWidth = 538;
var viewHeight = 256;
var sectionId = 'dynsection-0';
</script>
<script xlink:href="../../svgpan.js"/>
<svg id="graph" class="graph">
<g id="viewport">
<title>view.TurtleState</title>
<polygon fill="white" stroke="none" points="-4,4 -4,-252 534,-252 534,4 -4,4"/>
<!-- Node1 -->
<g id="node1" class="node"><title>Node1</title>
<polygon fill="#bfbfbf" stroke="black" points="438.5,-105.5 438.5,-124.5 529.5,-124.5 529.5,-105.5 438.5,-105.5"/>
<text text-anchor="middle" x="484" y="-112.5" font-family="Helvetica,sans-Serif" font-size="10.00">view.TurtleState</text>
</g>
<!-- Node2 -->
<g id="node2" class="node"><title>Node2</title>
<polygon fill="white" stroke="#bfbfbf" points="281.5,-197.5 281.5,-216.5 326.5,-216.5 326.5,-197.5 281.5,-197.5"/>
<text text-anchor="middle" x="304" y="-204.5" font-family="Helvetica,sans-Serif" font-size="10.00">Stage</text>
</g>
<!-- Node2&#45;&gt;Node1 -->
<g id="edge1" class="edge"><title>Node2&#45;&gt;Node1</title>
<path fill="none" stroke="#9a32cd" stroke-dasharray="5,2" d="M336.536,-202.111C360.573,-197.427 393.876,-188.82 420,-174 442.939,-160.986 464.114,-137.98 475.109,-124.871"/>
<polygon fill="#9a32cd" stroke="#9a32cd" points="335.735,-198.699 326.527,-203.94 336.993,-205.585 335.735,-198.699"/>
<text text-anchor="middle" x="401" y="-193" font-family="Helvetica,sans-Serif" font-size="10.00"> t</text>
</g>
<!-- Node3 -->
<g id="node3" class="node"><title>Node3</title>
<g id="a_node3"><a xlink:href="../../d1/deb/classapplication_1_1_turtle_list.html" target="_top" xlink:title="application.TurtleList">
<polygon fill="white" stroke="black" points="247.5,-159.5 247.5,-178.5 360.5,-178.5 360.5,-159.5 247.5,-159.5"/>
<text text-anchor="middle" x="304" y="-166.5" font-family="Helvetica,sans-Serif" font-size="10.00">application.TurtleList</text>
</a>
</g>
</g>
<!-- Node3&#45;&gt;Node1 -->
<g id="edge2" class="edge"><title>Node3&#45;&gt;Node1</title>
<path fill="none" stroke="#9a32cd" stroke-dasharray="5,2" d="M370.659,-161.335C387.04,-158.405 404.381,-154.412 420,-149 437.616,-142.896 456.217,-132.273 468.602,-124.521"/>
<polygon fill="#9a32cd" stroke="#9a32cd" points="369.89,-157.915 360.609,-163.025 371.051,-164.818 369.89,-157.915"/>
<text text-anchor="middle" x="401" y="-162" font-family="Helvetica,sans-Serif" font-size="10.00"> tList</text>
</g>
<!-- Node4 -->
<g id="node4" class="node"><title>Node4</title>
<polygon fill="white" stroke="#bfbfbf" points="26.5,-228.5 26.5,-247.5 117.5,-247.5 117.5,-228.5 26.5,-228.5"/>
<text text-anchor="middle" x="72" y="-235.5" font-family="Helvetica,sans-Serif" font-size="10.00">DoubleProperty</text>
</g>
<!-- Node4&#45;&gt;Node3 -->
<g id="edge3" class="edge"><title>Node4&#45;&gt;Node3</title>
<path fill="none" stroke="#9a32cd" stroke-dasharray="5,2" d="M127.471,-228.256C157.279,-221.906 194.457,-212.301 226,-199 234.639,-195.357 235.478,-191.909 244,-188 251.825,-184.411 260.521,-181.209 268.78,-178.504"/>
<polygon fill="#9a32cd" stroke="#9a32cd" points="126.746,-224.831 117.663,-230.285 128.165,-231.686 126.746,-224.831"/>
<text text-anchor="middle" x="194" y="-223" font-family="Helvetica,sans-Serif" font-size="10.00"> newID</text>
</g>
<!-- Node5 -->
<g id="node5" class="node"><title>Node5</title>
<polygon fill="white" stroke="#bfbfbf" points="6.5,-179 6.5,-209 137.5,-209 137.5,-179 6.5,-179"/>
<text text-anchor="start" x="14.5" y="-197" font-family="Helvetica,sans-Serif" font-size="10.00">Map&lt; application.Turtle,</text>
<text text-anchor="middle" x="72" y="-186" font-family="Helvetica,sans-Serif" font-size="10.00"> Double &gt;</text>
</g>
<!-- Node5&#45;&gt;Node3 -->
<g id="edge4" class="edge"><title>Node5&#45;&gt;Node3</title>
<path fill="none" stroke="#9a32cd" stroke-dasharray="5,2" d="M148.001,-185.848C180.36,-182.33 217.546,-178.288 247.383,-175.045"/>
<polygon fill="#9a32cd" stroke="#9a32cd" points="147.243,-182.409 137.68,-186.97 148,-189.368 147.243,-182.409"/>
<text text-anchor="middle" x="194" y="-187" font-family="Helvetica,sans-Serif" font-size="10.00"> IDMap</text>
</g>
<!-- Node6 -->
<g id="node6" class="node"><title>Node6</title>
<polygon fill="white" stroke="#bfbfbf" points="0.5,-130 0.5,-160 143.5,-160 143.5,-130 0.5,-130"/>
<text text-anchor="start" x="8.5" y="-148" font-family="Helvetica,sans-Serif" font-size="10.00">Map&lt; Double, application.</text>
<text text-anchor="middle" x="72" y="-137" font-family="Helvetica,sans-Serif" font-size="10.00">Turtle &gt;</text>
</g>
<!-- Node6&#45;&gt;Node3 -->
<g id="edge5" class="edge"><title>Node6&#45;&gt;Node3</title>
<path fill="none" stroke="#9a32cd" stroke-dasharray="5,2" d="M153.877,-153.439C184.716,-156.657 219.155,-160.251 247.161,-163.173"/>
<polygon fill="#9a32cd" stroke="#9a32cd" points="153.88,-149.921 143.571,-152.364 153.153,-156.883 153.88,-149.921"/>
<text text-anchor="middle" x="194" y="-164" font-family="Helvetica,sans-Serif" font-size="10.00"> TurtleMap</text>
</g>
<!-- Node7 -->
<g id="node7" class="node"><title>Node7</title>
<polygon fill="white" stroke="#bfbfbf" points="4,-91.5 4,-110.5 140,-110.5 140,-91.5 4,-91.5"/>
<text text-anchor="middle" x="72" y="-98.5" font-family="Helvetica,sans-Serif" font-size="10.00">List&lt; application.Turtle &gt;</text>
</g>
<!-- Node7&#45;&gt;Node3 -->
<g id="edge6" class="edge"><title>Node7&#45;&gt;Node3</title>
<path fill="none" stroke="#9a32cd" stroke-dasharray="5,2" d="M125.326,-112.821C155.07,-119.918 192.876,-129.576 226,-140 244.259,-145.746 264.5,-153.422 279.645,-159.434"/>
<polygon fill="#9a32cd" stroke="#9a32cd" points="126.103,-109.409 115.566,-110.515 124.493,-116.221 126.103,-109.409"/>
<text text-anchor="middle" x="194" y="-143" font-family="Helvetica,sans-Serif" font-size="10.00"> myActiveList</text>
</g>
<!-- Node8 -->
<g id="node8" class="node"><title>Node8</title>
<polygon fill="white" stroke="#bfbfbf" points="246.5,-105.5 246.5,-124.5 361.5,-124.5 361.5,-105.5 246.5,-105.5"/>
<text text-anchor="middle" x="304" y="-112.5" font-family="Helvetica,sans-Serif" font-size="10.00">ArrayList&lt; Double &gt;</text>
</g>
<!-- Node8&#45;&gt;Node1 -->
<g id="edge7" class="edge"><title>Node8&#45;&gt;Node1</title>
<path fill="none" stroke="#9a32cd" stroke-dasharray="5,2" d="M371.842,-115C394.023,-115 418.166,-115 438.267,-115"/>
<polygon fill="#9a32cd" stroke="#9a32cd" points="371.81,-111.5 361.81,-115 371.81,-118.5 371.81,-111.5"/>
<text text-anchor="middle" x="401" y="-140" font-family="Helvetica,sans-Serif" font-size="10.00"> x</text>
<text text-anchor="middle" x="401" y="-129" font-family="Helvetica,sans-Serif" font-size="10.00">y</text>
<text text-anchor="middle" x="401" y="-118" font-family="Helvetica,sans-Serif" font-size="10.00">r</text>
</g>
<!-- Node9 -->
<g id="node9" class="node"><title>Node9</title>
<polygon fill="white" stroke="#bfbfbf" points="283,-38.5 283,-57.5 325,-57.5 325,-38.5 283,-38.5"/>
<text text-anchor="middle" x="304" y="-45.5" font-family="Helvetica,sans-Serif" font-size="10.00">Label</text>
</g>
<!-- Node9&#45;&gt;Node1 -->
<g id="edge8" class="edge"><title>Node9&#45;&gt;Node1</title>
<path fill="none" stroke="#9a32cd" stroke-dasharray="5,2" d="M335.579,-49.0364C359.428,-50.7794 392.932,-55.3186 420,-67 441.21,-76.1532 461.714,-93.9647 473.304,-105.129"/>
<polygon fill="#9a32cd" stroke="#9a32cd" points="335.553,-45.5284 325.359,-48.4167 335.129,-52.5156 335.553,-45.5284"/>
<text text-anchor="middle" x="401" y="-103" font-family="Helvetica,sans-Serif" font-size="10.00"> pen</text>
<text text-anchor="middle" x="401" y="-92" font-family="Helvetica,sans-Serif" font-size="10.00">rotation</text>
<text text-anchor="middle" x="401" y="-81" font-family="Helvetica,sans-Serif" font-size="10.00">turtleX</text>
<text text-anchor="middle" x="401" y="-70" font-family="Helvetica,sans-Serif" font-size="10.00">turtleY</text>
</g>
<!-- Node10 -->
<g id="node10" class="node"><title>Node10</title>
<polygon fill="white" stroke="#bfbfbf" points="244,-0.5 244,-19.5 364,-19.5 364,-0.5 244,-0.5"/>
<text text-anchor="middle" x="304" y="-7.5" font-family="Helvetica,sans-Serif" font-size="10.00">ArrayList&lt; Boolean &gt;</text>
</g>
<!-- Node10&#45;&gt;Node1 -->
<g id="edge9" class="edge"><title>Node10&#45;&gt;Node1</title>
<path fill="none" stroke="#9a32cd" stroke-dasharray="5,2" d="M374.059,-21.4191C389.928,-25.9508 406.183,-32.2523 420,-41 446.658,-57.8775 467.986,-89.5833 477.547,-105.449"/>
<polygon fill="#9a32cd" stroke="#9a32cd" points="374.817,-17.9992 364.254,-18.8201 373.023,-24.7655 374.817,-17.9992"/>
<text text-anchor="middle" x="401" y="-44" font-family="Helvetica,sans-Serif" font-size="10.00"> isPen</text>
</g>
</g>
</svg>
        <g id="navigator" transform="translate(0 0)" fill="#404254">
                <rect fill="#f2f5e9" fill-opacity="0.5" stroke="#606060" stroke-width=".5" x="0" y="0" width="60" height="60"/>
                <use id="zoomplus" xlink:href="#zoomPlus" x="17" y="9" onmousedown="handleZoom(evt,'in')"/>
                <use id="zoomminus" xlink:href="#zoomMin" x="42" y="9" onmousedown="handleZoom(evt,'out')"/>
                <use id="reset" xlink:href="#resetDef" x="30" y="36" onmousedown="handleReset()"/>
                <g id="arrowUp" xlink:href="#dirArrow" transform="translate(30 24)" onmousedown="handlePan(0,-1)">
                  <use xlink:href="#rim" fill="#404040">
                        <set attributeName="fill" to="#808080" begin="arrowUp.mouseover" end="arrowUp.mouseout"/>
                  </use>
                  <path fill="none" stroke="white" stroke-width="1.5" d="M0,-3.0v7 M-2.5,-0.5L0,-3.0L2.5,-0.5"/>
                </g>
                <g id="arrowRight" xlink:href="#dirArrow" transform="rotate(90) translate(36 -43)" onmousedown="handlePan(1,0)">
                  <use xlink:href="#rim" fill="#404040">
                        <set attributeName="fill" to="#808080" begin="arrowRight.mouseover" end="arrowRight.mouseout"/>
                  </use>
                  <path fill="none" stroke="white" stroke-width="1.5" d="M0,-3.0v7 M-2.5,-0.5L0,-3.0L2.5,-0.5"/>
                </g>
                <g id="arrowDown" xlink:href="#dirArrow" transform="rotate(180) translate(-30 -48)" onmousedown="handlePan(0,1)">
                  <use xlink:href="#rim" fill="#404040">
                        <set attributeName="fill" to="#808080" begin="arrowDown.mouseover" end="arrowDown.mouseout"/>
                  </use>
                  <path fill="none" stroke="white" stroke-width="1.5" d="M0,-3.0v7 M-2.5,-0.5L0,-3.0L2.5,-0.5"/>
                </g>
                <g id="arrowLeft" xlink:href="#dirArrow" transform="rotate(270) translate(-36 17)" onmousedown="handlePan(-1,0)">
                  <use xlink:href="#rim" fill="#404040">
                        <set attributeName="fill" to="#808080" begin="arrowLeft.mouseover" end="arrowLeft.mouseout"/>
                  </use>
                  <path fill="none" stroke="white" stroke-width="1.5" d="M0,-3.0v7 M-2.5,-0.5L0,-3.0L2.5,-0.5"/>
                </g>
        </g>
        <svg viewBox="0 0 15 15" width="100%" height="30px" preserveAspectRatio="xMaxYMin meet">
         <g id="arrow_out" transform="scale(0.3 0.3)">
          <a xlink:href="classview_1_1_turtle_state__coll__graph_org.svg" target="_base">
           <rect id="button" ry="5" rx="5" y="6" x="6" height="38" width="38"
                fill="#f2f5e9" fill-opacity="0.5" stroke="#606060" stroke-width="1.0"/>
           <path id="arrow"
             d="M 11.500037,31.436501 C 11.940474,20.09759 22.043105,11.32322 32.158766,21.979434 L 37.068811,17.246167 C 37.068811,17.246167 37.088388,32 37.088388,32 L 22.160133,31.978069 C 22.160133,31.978069 26.997745,27.140456 26.997745,27.140456 C 18.528582,18.264221 13.291696,25.230495 11.500037,31.436501 z"
             style="fill:#404040;"/>
          </a>
         </g>
        </svg>
</svg>
